<?xml version="1.0" encoding="UTF-8" standalone="no"?>
<!-- Generator: Adobe Illustrator 25.2.1, SVG Export Plug-In . SVG Version: 6.00 Build 0)  -->

<svg
   version="1.1"
   id="Layer_1"
   x="0px"
   y="0px"
   viewBox="0 0 600.00001 450.00001"
   enable-background="new 0 0 283.465 283.465"
   xml:space="preserve"
   sodipodi:docname="feature.svg"
   width="600"
   height="450"
   inkscape:version="1.3 (0e150ed, 2023-07-21)"
   xmlns:inkscape="http://www.inkscape.org/namespaces/inkscape"
   xmlns:sodipodi="http://sodipodi.sourceforge.net/DTD/sodipodi-0.dtd"
   xmlns="http://www.w3.org/2000/svg"
   xmlns:svg="http://www.w3.org/2000/svg"><defs
   id="defs1" /><sodipodi:namedview
   id="namedview1"
   pagecolor="#ffffff"
   bordercolor="#000000"
   borderopacity="0.25"
   inkscape:showpageshadow="2"
   inkscape:pageopacity="0.0"
   inkscape:pagecheckerboard="0"
   inkscape:deskcolor="#d1d1d1"
   inkscape:zoom="0.75349762"
   inkscape:cx="299.27102"
   inkscape:cy="300.59816"
   inkscape:window-width="1512"
   inkscape:window-height="712"
   inkscape:window-x="0"
   inkscape:window-y="38"
   inkscape:window-maximized="0"
   inkscape:current-layer="Layer_1" />&#10;&#10;<path
   fill="#0033a0"
   d="m 364.65583,201.22081 c 0.429,24.998 -11.023,41.967 -14.629,47.856 -3.143,5.13 -10.654,15.024 -25.11,30.374 -18.235,19.365 -75.231,79.947 -79.029,83.983 h 154.558 l -35.636,-162.227 z m 14.216,82.805 1.277,5.803 c -15.302,16.528 -38.73,28.912 -66,28.912 -5.841,0 -11.941,-0.565 -18.719,-2.005 1.375,-1.463 2.693,-2.867 3.937,-4.188 4.352,0.773 9.361,1.284 14.506,1.286 26.524,0.013 49.699,-11.923 64.999,-29.808 z M 155.12583,79.968808 V 363.43381 h 84.595 l 83.686,-88.992 -0.117,-0.107 c -13.455,9.491 -30.532,14.646 -48.943,14.646 -34.121,0 -64.191,-20.244 -77.232,-45.437 l -0.132,0.088 17.755,59.9 h -4.806 c 0,0 -8.809,-30.352 -16.33,-56.812 -5.692,-20.026 -9.198,-34.861 -9.154,-48.029 0.156,-45.284 35.77,-86.809 83.128,-89.874 1.3,-0.086 5.328,-0.506 11.328,-0.511 36.48,-0.022 148.884,0.84 159.687,0.923 V 79.968808 Z m 99.509,210.790002 c 6.786,5.88 17.542,13.273 30.838,18.05 -1.113,1.185 -2.321,2.469 -3.603,3.833 -13.279,-5.257 -26.271,-13.409 -36.369,-24.392 2.842,0.957 5.972,1.824 9.134,2.509 z m 45.622,-178.026 c 13.977,3.923 27.086,11.109 37.504,20.825 -3.006,-0.803 -6.071,-1.451 -9.188,-1.939 -14.647,-11.578 -33.714,-18.482 -53.64,-18.482 -47.069,0 -85.592,38.386 -85.592,85.565 0,47.18 38.382,85.564 85.565,85.564 47.179,0 85.565,-38.384 85.565,-85.564 0,-18.252 -6.876,-36.487 -16.318,-49.367 2.255,0.678 5.004,1.841 8.162,3.708 6.393,9.69 12.32,25.515 17.398,49.787 5.33,25.462 32.732,147.426 35.694,160.605 h 33.182 v -249.977 l -138.333,-0.85 c 10e-4,0.001 10e-4,0.009 10e-4,0.125 z m -95.288,83.956 c 0,-11.441 8.652,-19.051 20.412,-19.051 4.577,0 9.814,1.409 12.738,2.664 -0.611,1.353 -1.113,3.142 -1.326,4.258 l -0.319,0.106 c -2.261,-2.503 -5.898,-4.672 -11.279,-4.672 -6.83,0 -14.689,5.528 -14.689,16.557 0,10.737 8.009,16.442 15.169,16.442 6.434,0 9.513,-3 12.278,-5.337 l 0.212,0.213 -0.783,4.172 c -1.268,0.96 -5.664,3.695 -12.279,3.695 -11.975,-10e-4 -20.134,-7.545 -20.134,-19.047 z m 28.17,71.273 c -6.344,-12.899 -9.219,-25.995 -9.6,-38.519 1.612,0 3.481,0.067 5.093,0.067 0.556,11.987 3.274,26.892 12.648,43.087 -3.385,-1.244 -5.932,-2.886 -8.141,-4.635 z m 34.022,-52.901 c 0,0.001 0,0.001 0,0.001 -1.911,-0.098 -4.565,-0.176 -7.084,-0.221 -1.451,-0.024 -2.861,-0.041 -3.973,-0.044 -0.158,0 -0.319,0 -0.47,0 -3.247,0 -8.227,0.105 -11.475,0.266 0.214,-4.631 0.429,-9.26 0.429,-13.836 v -9.15 c 0,-4.578 -0.215,-9.206 -0.429,-13.728 3.193,0.16 8.121,0.265 11.313,0.265 3.193,0 9.149,-0.141 10.991,-0.265 -0.078,0.498 -0.127,1.089 -0.127,1.815 0,0.725 0.071,1.473 0.127,1.836 -3.505,-0.263 -9.766,-0.692 -16.682,-0.692 -0.056,2.287 -0.162,11.991 -0.162,13.324 6.278,0 10.301,-0.269 13.441,-0.532 -0.105,0.532 -0.16,1.486 -0.16,2.017 0,0.532 0.054,1.32 0.16,1.853 -3.671,-0.374 -11.887,-0.48 -13.441,-0.48 -0.095,1.779 -0.012,13.294 0.053,14.266 3.889,-0.057 13.857,-0.359 17.489,-0.693 -0.057,0.403 -0.125,1.233 -0.125,2.042 -10e-4,0.809 0.046,1.399 0.125,1.956 z m 31.252,-0.175 c -0.485,0 -2.321,0.017 -3.334,0.177 -2.103,-3.205 -8.839,-13.302 -13.419,-18.015 -0.137,0 -2.708,0.003 -2.708,0.003 v 4.23 c 0,4.575 0.212,9.205 0.426,13.781 -0.906,-0.161 -2.542,-0.177 -2.877,-0.177 -0.335,0 -1.971,0.017 -2.878,0.177 0.214,-4.577 0.428,-9.206 0.428,-13.781 v -9.152 c 0,-4.577 -0.213,-9.207 -0.428,-13.782 2.024,0.16 4.584,0.265 6.606,0.265 2.021,0 4.043,-0.265 6.064,-0.265 6.013,0 11.523,1.776 11.523,8.472 0,7.084 -7.06,9.632 -11.104,10.163 2.606,3.246 11.946,14.619 15.032,18.08 -1.061,-0.16 -2.845,-0.176 -3.331,-0.176 z m 40.28,0.673 -1.742,-0.017 c -2.13,-2.888 -24.461,-26.18 -26.395,-28.237 -0.053,1.967 -0.055,6.062 -0.055,10.043 0,5.287 0.4,13.354 0.634,17.714 -0.54,-0.098 -1.338,-0.195 -2.268,-0.195 -0.939,0 -1.709,0.086 -2.331,0.195 0.436,-5.625 0.558,-14.755 0.558,-23.337 0,-6.704 -0.099,-10.38 -0.178,-13.762 l 1.744,0.015 c 2.256,2.45 24.457,25.428 26.392,27.487 0.053,-1.967 0.057,-5.441 0.057,-9.424 0,-5.285 -0.402,-13.354 -0.636,-17.711 0.542,0.094 1.338,0.192 2.269,0.192 0.942,0 1.71,-0.084 2.332,-0.192 -0.438,5.624 -0.56,14.753 -0.56,23.336 0,6.703 0.099,10.508 0.179,13.893 z m 45.774,-47.143 c 9.889,12.128 17.896,31.314 19.065,47.379 h 0.156 l 8.24,-85.104 4.646,-0.003 c 0,0 -5.271,55.013 -8.341,82.351 -3.844,34.241 -8.729,48.448 -18.071,63.403 l -1.43,-6.508 c 7.28,-12.787 9.357,-23.946 10.306,-29.823 2.956,-18.304 -1.273,-43.291 -14.025,-62.789 -14.291,-21.849 -39.84,-37.924 -71.2,-37.924 -25.762,0 -48.143,11.327 -63.766,28.993 l -3.789,-3.003 c 16.539,-18.764 40.576,-30.737 67.558,-30.737 28.293,0.001 53.482,12.713 70.651,33.765 z m -91.788,19.131 c 0,-5.29 -4.629,-6.973 -8.248,-6.973 -2.448,0 -4.043,0.161 -5.162,0.268 -0.159,3.885 -0.318,7.457 -0.318,11.287 v 2.926 c 0.529,0.071 3.021,0.059 3.566,0.049 4.394,-0.091 10.162,-1.486 10.162,-7.557 z"
   id="path1" />&#10;</svg>
