<?xml version="1.0" encoding="UTF-8" standalone="no"?>
<!-- Generator: Adobe Illustrator 19.2.1, SVG Export Plug-In . SVG Version: 6.00 Build 0)  -->

<svg
   version="1.1"
   id="Capa_1"
   x="0px"
   y="0px"
   viewBox="0 0 320.00001 320"
   enable-background="new 0 0 283.46 69.36"
   xml:space="preserve"
   sodipodi:docname="BSC_centred.svg"
   width="320"
   height="320"
   inkscape:version="1.3.2 (091e20e, 2023-11-25)"
   xmlns:inkscape="http://www.inkscape.org/namespaces/inkscape"
   xmlns:sodipodi="http://sodipodi.sourceforge.net/DTD/sodipodi-0.dtd"
   xmlns="http://www.w3.org/2000/svg"
   xmlns:svg="http://www.w3.org/2000/svg"><defs
   id="defs63" /><sodipodi:namedview
   id="namedview63"
   pagecolor="#ffffff"
   bordercolor="#000000"
   borderopacity="0.25"
   inkscape:showpageshadow="2"
   inkscape:pageopacity="0.0"
   inkscape:pagecheckerboard="0"
   inkscape:deskcolor="#d1d1d1"
   showguides="false"
   inkscape:zoom="1.6363237"
   inkscape:cx="177.22655"
   inkscape:cy="158.28164"
   inkscape:window-width="1512"
   inkscape:window-height="771"
   inkscape:window-x="0"
   inkscape:window-y="38"
   inkscape:window-maximized="0"
   inkscape:current-layer="Capa_1" />
<g
   id="BSC_Logo_2_"
   transform="translate(17.722655,122.83634)">
	<g
   id="g63">
		<g
   id="g58">
			<path
   fill="#213970"
   d="m 91.2,9.25 h 4.99 c 2.11,0 2.9,0.74 2.9,2.14 0,1.22 -0.61,2.03 -1.78,2.34 H 97.3 v 0.03 c 0.9,0.19 1.47,1.05 1.47,1.95 0,2.34 -1.88,3.27 -4,3.27 h -5.58 z m 1.39,7.4 h 1.92 c 0.53,0 1.27,-0.19 1.27,-0.98 0,-0.72 -0.53,-0.83 -1.16,-0.83 h -1.65 z m 0.75,-3.62 h 1.68 c 0.48,0 1.07,-0.18 1.07,-0.78 0,-0.59 -0.39,-0.69 -0.92,-0.69 h -1.54 z"
   id="path1" />
			<path
   fill="#213970"
   d="m 100.23,14.04 c 0.42,-1.88 1.88,-2.31 3.61,-2.31 1.28,0 3.43,0.16 3.43,1.88 0,1.1 -0.86,4.27 -0.86,4.74 0.05,0.54 0,0.3 0.11,0.63 h -2.64 c -0.07,-0.22 -0.11,-0.45 -0.1,-0.68 h -0.03 c -0.48,0.57 -1.39,0.86 -2.18,0.86 -1.21,0 -2.29,-0.53 -2.29,-1.88 0,-1.87 1.39,-2.37 3.41,-2.52 0.76,-0.06 1.98,0.05 1.98,-0.82 0,-0.49 -0.44,-0.61 -0.84,-0.61 -0.54,0 -0.93,0.19 -1.07,0.72 h -2.53 z m 2.61,3.51 c 0.91,0 1.28,-0.67 1.44,-1.72 -0.44,0.22 -0.94,0.27 -1.43,0.31 -0.45,0.04 -0.87,0.27 -0.87,0.79 0,0.5 0.42,0.62 0.86,0.62 z"
   id="path2" />
			<path
   fill="#213970"
   d="m 109.24,11.9 h 2.61 l -0.23,1.1 h 0.03 c 0.47,-0.75 1.36,-1.28 2.05,-1.28 0.45,0 0.71,0.03 0.95,0.11 l -0.5,2.38 c -0.33,-0.12 -0.7,-0.18 -1.04,-0.18 -1.14,0 -1.71,0.49 -2.03,1.97 l -0.61,2.95 h -2.7 z"
   id="path3" />
			<path
   fill="#213970"
   d="m 119.25,14.58 c 0.01,-0.34 -0.04,-0.56 -0.19,-0.69 -0.14,-0.15 -0.37,-0.2 -0.68,-0.2 -1.17,0 -1.48,1.54 -1.48,2.21 0,0.67 0.15,1.29 0.92,1.29 0.74,0 1.03,-0.64 1.18,-1.04 h 2.59 c -0.46,2.01 -1.76,2.99 -3.8,2.99 -2.99,0 -3.59,-1.91 -3.59,-3.23 0,-2.41 1.56,-4.19 4.26,-4.19 1.96,0 3.42,0.88 3.38,2.86 z"
   id="path4" />
			<path
   fill="#213970"
   d="m 129.54,16.91 c -0.18,0.48 -0.71,2.23 -3.76,2.23 -2.5,0 -3.51,-1.4 -3.51,-3.12 0,-3.23 2.48,-4.3 4.23,-4.3 1.56,0 3.46,0.87 3.46,3.09 0,0.38 -0.01,0.79 -0.14,1.22 h -5.03 c 0,0.75 0.26,1.37 1.1,1.37 0.59,0 0.92,-0.26 1.06,-0.51 h 2.59 z m -2.12,-2.27 c 0.01,-0.07 0.03,-0.16 0.03,-0.23 0,-0.53 -0.34,-0.95 -1.02,-0.95 -0.72,0 -1.2,0.44 -1.4,1.18 z"
   id="path5" />
			<polygon
   fill="#213970"
   points="130.53,18.97 132.55,9.25 135.24,9.25 133.23,18.97 "
   id="polygon5" />
			<path
   fill="#213970"
   d="m 139.49,11.73 c 2.07,0 3.43,0.96 3.43,3.09 0,1.81 -1.01,4.33 -4.26,4.33 -1.95,0 -3.53,-0.94 -3.53,-3.31 0,-2.26 1.47,-4.11 4.36,-4.11 z m -0.71,5.46 c 1.06,0 1.44,-1.57 1.44,-2.18 0,-0.84 -0.22,-1.32 -0.94,-1.32 -1.08,0 -1.46,1.62 -1.46,2.36 0.01,0.56 0.2,1.14 0.96,1.14 z"
   id="path6" />
			<path
   fill="#213970"
   d="m 144.79,11.9 h 2.6 l -0.2,0.9 h 0.03 c 0.52,-0.64 1.34,-1.08 2.19,-1.08 1.24,0 2.3,0.52 2.3,1.9 0,0.31 -0.08,0.83 -0.19,1.35 l -0.86,3.99 h -2.7 l 0.69,-3.24 c 0.08,-0.41 0.22,-0.89 0.22,-1.17 0,-0.45 -0.33,-0.68 -0.76,-0.68 -0.86,0 -1.14,0.61 -1.31,1.35 l -0.79,3.74 h -2.7 z"
   id="path7" />
			<path
   fill="#213970"
   d="m 153.17,14.04 c 0.42,-1.88 1.88,-2.31 3.61,-2.31 1.28,0 3.43,0.16 3.43,1.88 0,1.1 -0.86,4.27 -0.86,4.74 0.05,0.54 0,0.3 0.11,0.63 h -2.64 c -0.07,-0.22 -0.11,-0.45 -0.09,-0.68 h -0.03 c -0.47,0.57 -1.39,0.86 -2.18,0.86 -1.21,0 -2.29,-0.53 -2.29,-1.88 0,-1.87 1.39,-2.37 3.42,-2.52 0.76,-0.06 1.97,0.05 1.97,-0.82 0,-0.49 -0.43,-0.61 -0.84,-0.61 -0.54,0 -0.93,0.19 -1.07,0.72 h -2.54 z m 2.61,3.51 c 0.91,0 1.28,-0.67 1.44,-1.72 -0.44,0.22 -0.94,0.27 -1.43,0.31 -0.45,0.04 -0.87,0.27 -0.87,0.79 0,0.5 0.42,0.62 0.86,0.62 z"
   id="path8" />
			<path
   fill="#213970"
   d="m 95.49,27.8 c 0.01,-0.39 -0.12,-0.64 -0.34,-0.8 -0.22,-0.16 -0.53,-0.22 -0.87,-0.22 -0.5,0 -1.16,0.15 -1.16,0.79 0,0.73 1.46,0.77 2.41,1.11 1.69,0.6 2.26,1.52 2.26,2.68 0,2.34 -2.27,3.44 -4.38,3.44 -2.23,0 -4.25,-1.02 -4.12,-3.5 h 2.9 c 0,0.53 0.12,0.86 0.36,1.1 0.26,0.22 0.61,0.25 1.11,0.25 0.58,0 1.3,-0.3 1.3,-0.94 0,-0.71 -0.99,-0.8 -2.34,-1.25 -1.18,-0.39 -2.33,-1.02 -2.33,-2.64 0,-2.19 2.13,-3.2 4.08,-3.2 2.07,0 3.93,0.78 3.88,3.17 h -2.76 z"
   id="path9" />
			<path
   fill="#213970"
   d="m 105.48,34.58 h -2.61 l 0.22,-0.9 h -0.03 c -0.58,0.7 -1.36,1.08 -2.27,1.08 -1.22,0 -2.24,-0.53 -2.24,-1.88 0,-0.61 0.23,-1.47 1.05,-5.36 h 2.7 l -0.79,3.69 c -0.11,0.37 -0.11,0.74 -0.11,0.74 0,0.43 0.38,0.67 0.77,0.67 1.21,0 1.27,-1.32 1.48,-2.22 l 0.61,-2.87 h 2.69 z"
   id="path10" />
			<path
   fill="#213970"
   d="m 108.5,27.51 h 2.61 l -0.16,0.8 h 0.03 c 0.46,-0.65 1.06,-0.98 1.89,-0.98 1.98,0 2.57,1.65 2.57,2.9 0,2.1 -1.05,4.52 -3.45,4.52 -0.77,0 -1.54,-0.1 -2.12,-1.03 l -0.64,3.14 h -2.7 z m 4.25,3.04 c 0,-0.69 -0.19,-1.25 -0.98,-1.25 -1.2,0 -1.42,1.71 -1.42,2.34 0,0.26 0.1,1.16 0.98,1.16 1.08,-0.01 1.42,-1.34 1.42,-2.25 z"
   id="path11" />
			<path
   fill="#213970"
   d="m 123.48,32.52 c -0.18,0.48 -0.71,2.23 -3.76,2.23 -2.5,0 -3.51,-1.4 -3.51,-3.12 0,-3.24 2.48,-4.3 4.23,-4.3 1.57,0 3.46,0.87 3.46,3.09 0,0.38 -0.01,0.79 -0.14,1.22 h -5.03 c 0,0.75 0.26,1.37 1.1,1.37 0.59,0 0.93,-0.26 1.06,-0.5 z m -2.12,-2.27 c 0.02,-0.07 0.03,-0.16 0.03,-0.23 0,-0.53 -0.34,-0.95 -1.02,-0.95 -0.72,0 -1.2,0.44 -1.4,1.18 z"
   id="path12" />
			<path
   fill="#213970"
   d="m 125.87,27.51 h 2.61 l -0.23,1.1 h 0.03 c 0.48,-0.75 1.36,-1.28 2.06,-1.28 0.45,0 0.71,0.02 0.95,0.11 l -0.51,2.38 c -0.33,-0.12 -0.69,-0.18 -1.03,-0.18 -1.14,0 -1.71,0.49 -2.03,1.98 l -0.61,2.95 h -2.7 z"
   id="path13" />
			<path
   fill="#213970"
   d="m 135.88,30.2 c 0.02,-0.34 -0.04,-0.56 -0.19,-0.69 -0.13,-0.15 -0.36,-0.2 -0.68,-0.2 -1.17,0 -1.48,1.54 -1.48,2.2 0,0.66 0.15,1.29 0.93,1.29 0.74,0 1.03,-0.64 1.18,-1.03 h 2.59 c -0.46,2.01 -1.75,2.99 -3.8,2.99 -2.99,0 -3.59,-1.91 -3.59,-3.22 0,-2.41 1.57,-4.19 4.26,-4.19 1.96,0 3.41,0.89 3.37,2.86 h -2.59 z"
   id="path14" />
			<path
   fill="#213970"
   d="m 143.26,27.34 c 2.07,0 3.43,0.95 3.43,3.09 0,1.81 -1.01,4.33 -4.26,4.33 -1.95,0 -3.52,-0.94 -3.52,-3.31 -0.01,-2.26 1.46,-4.11 4.35,-4.11 z m -0.71,5.45 c 1.06,0 1.44,-1.57 1.44,-2.18 0,-0.84 -0.22,-1.32 -0.94,-1.32 -1.08,0 -1.46,1.62 -1.46,2.36 0.01,0.57 0.2,1.14 0.96,1.14 z"
   id="path15" />
			<path
   fill="#213970"
   d="m 148.57,27.51 h 2.61 l -0.19,0.92 h 0.03 c 0.54,-0.66 1.32,-1.1 2.22,-1.1 0.92,0 1.73,0.3 1.9,1.17 0.59,-0.73 1.38,-1.17 2.31,-1.17 1.37,0 2.26,0.64 2.26,2.1 0,0.33 -0.11,0.8 -0.16,1.12 l -0.86,4.03 H 156 l 0.72,-3.38 c 0.02,-0.14 0.16,-0.83 0.16,-1.03 0,-0.45 -0.26,-0.68 -0.69,-0.68 -0.53,0 -0.92,0.3 -1.02,0.82 l -0.92,4.27 h -2.69 l 0.82,-3.78 c 0.04,-0.18 0.11,-0.47 0.11,-0.66 0,-0.45 -0.25,-0.65 -0.68,-0.65 -0.67,0 -1.01,0.43 -1.13,1.05 l -0.87,4.04 h -2.69 z"
   id="path16" />
			<path
   fill="#213970"
   d="m 161.68,27.51 h 2.62 l -0.17,0.8 h 0.03 c 0.46,-0.65 1.06,-0.98 1.89,-0.98 1.99,0 2.57,1.65 2.57,2.9 0,2.1 -1.05,4.52 -3.44,4.52 -0.78,0 -1.54,-0.1 -2.13,-1.03 l -0.64,3.14 h -2.7 z m 4.25,3.04 c 0,-0.69 -0.19,-1.25 -0.98,-1.25 -1.2,0 -1.42,1.71 -1.42,2.34 0,0.26 0.1,1.16 0.98,1.16 1.08,-0.01 1.42,-1.34 1.42,-2.25 z"
   id="path17" />
			<path
   fill="#213970"
   d="m 176.3,34.58 h -2.61 l 0.22,-0.9 h -0.03 c -0.59,0.7 -1.36,1.08 -2.27,1.08 -1.22,0 -2.24,-0.53 -2.24,-1.88 0,-0.61 0.23,-1.47 1.05,-5.36 h 2.7 l -0.79,3.69 c -0.11,0.37 -0.11,0.74 -0.11,0.74 0,0.43 0.38,0.67 0.78,0.67 1.21,0 1.27,-1.32 1.48,-2.22 l 0.61,-2.87 h 2.69 z"
   id="path18" />
			<path
   fill="#213970"
   d="m 182.41,27.51 h 1.46 l -0.38,1.66 h -1.43 l -0.48,2.27 c -0.05,0.23 -0.12,0.48 -0.12,0.71 0,0.23 0.12,0.42 0.55,0.42 0.44,0 0.67,-0.03 0.89,-0.04 l -0.41,1.95 c -0.48,0.08 -0.97,0.15 -1.46,0.18 -0.57,0 -1.19,0 -1.7,-0.29 -0.46,-0.26 -0.73,-0.82 -0.73,-1.33 0,-0.38 0.08,-0.64 0.15,-0.97 l 0.63,-2.9 h -1.2 l 0.38,-1.66 h 1.17 l 0.47,-2.14 h 2.69 z"
   id="path19" />
			<path
   fill="#213970"
   d="m 184.92,27.51 h 2.7 l -1.47,7.06 h -2.69 z m 2.84,-0.76 h -2.7 l 0.39,-1.89 h 2.7 z"
   id="path20" />
			<path
   fill="#213970"
   d="m 189.14,27.51 h 2.6 l -0.2,0.9 h 0.03 c 0.51,-0.64 1.33,-1.07 2.19,-1.07 1.24,0 2.3,0.52 2.3,1.91 0,0.31 -0.08,0.83 -0.19,1.35 L 195,34.58 h -2.69 L 193,31.34 c 0.08,-0.41 0.22,-0.89 0.22,-1.17 0,-0.45 -0.33,-0.68 -0.76,-0.68 -0.86,0 -1.14,0.61 -1.31,1.35 l -0.79,3.74 h -2.7 z"
   id="path21" />
			<path
   fill="#213970"
   d="m 203.85,33.35 c -0.41,1.99 -0.78,3.69 -4.19,3.69 -0.83,0 -3.36,-0.09 -3.27,-2.36 h 2.67 c 0,0.28 0.07,0.46 0.22,0.61 0.14,0.11 0.35,0.15 0.63,0.15 0.82,0 1.02,-0.63 1.16,-1.25 l 0.17,-0.75 h -0.03 c -0.41,0.46 -1.03,0.71 -1.68,0.71 -1.69,0 -2.76,-1.07 -2.76,-2.75 0,-2.02 1.2,-4.07 3.4,-4.07 0.87,0 1.68,0.26 2.1,1.09 h 0.03 l 0.18,-0.91 h 2.6 z m -4.41,-2.05 c 0,0.63 0.31,1.13 0.92,1.13 1.28,0 1.5,-1.55 1.5,-2.03 0,-0.43 -0.04,-1.1 -1.01,-1.1 -1.06,0 -1.41,1.17 -1.41,2 z"
   id="path22" />
			<path
   fill="#213970"
   d="m 99,46.5 c -0.18,0.99 -0.94,3.92 -4.98,3.92 -2.82,0 -4.18,-1.83 -4.18,-4.42 0,-3.15 1.96,-5.76 5.27,-5.76 2.16,0 4.09,0.94 4.15,3.85 h -2.83 c 0.03,-0.91 -0.41,-1.43 -1.34,-1.43 -1.66,0 -2.26,1.91 -2.26,3.28 0,0.8 0.19,2.06 1.57,2.06 0.94,0 1.47,-0.64 1.66,-1.5 z"
   id="path23" />
			<path
   fill="#213970"
   d="m 107.1,48.13 c -0.18,0.48 -0.71,2.23 -3.76,2.23 -2.5,0 -3.51,-1.4 -3.51,-3.12 0,-3.24 2.48,-4.3 4.23,-4.3 1.57,0 3.46,0.87 3.46,3.09 0,0.38 -0.01,0.79 -0.14,1.22 h -5.03 c 0,0.75 0.26,1.37 1.1,1.37 0.59,0 0.92,-0.26 1.06,-0.5 h 2.59 z m -2.12,-2.27 c 0.01,-0.07 0.03,-0.16 0.03,-0.23 0,-0.53 -0.34,-0.95 -1.02,-0.95 -0.72,0 -1.2,0.44 -1.4,1.18 z"
   id="path24" />
			<path
   fill="#213970"
   d="m 109.49,43.12 h 2.6 l -0.2,0.9 h 0.03 c 0.51,-0.64 1.33,-1.07 2.19,-1.07 1.24,0 2.3,0.52 2.3,1.9 0,0.31 -0.08,0.83 -0.19,1.35 l -0.86,3.99 h -2.7 l 0.69,-3.24 c 0.09,-0.41 0.22,-0.89 0.22,-1.17 0,-0.45 -0.33,-0.68 -0.76,-0.68 -0.86,0 -1.14,0.61 -1.31,1.35 l -0.79,3.74 h -2.7 z"
   id="path25" />
			<path
   fill="#213970"
   d="m 121.41,43.12 h 1.46 l -0.38,1.66 h -1.43 l -0.48,2.27 c -0.05,0.23 -0.12,0.48 -0.12,0.71 0,0.23 0.12,0.42 0.54,0.42 0.44,0 0.67,-0.03 0.89,-0.04 l -0.41,1.94 c -0.48,0.08 -0.97,0.15 -1.46,0.18 -0.57,0 -1.18,0 -1.7,-0.29 -0.46,-0.26 -0.74,-0.81 -0.74,-1.33 0,-0.38 0.08,-0.64 0.15,-0.97 l 0.63,-2.9 h -1.2 l 0.38,-1.66 h 1.17 l 0.48,-2.13 h 2.69 z"
   id="path26" />
			<path
   fill="#213970"
   d="m 130.03,48.13 c -0.18,0.48 -0.71,2.23 -3.76,2.23 -2.5,0 -3.51,-1.4 -3.51,-3.12 0,-3.24 2.48,-4.3 4.23,-4.3 1.57,0 3.46,0.87 3.46,3.09 0,0.38 -0.01,0.79 -0.13,1.22 h -5.04 c 0,0.75 0.26,1.37 1.11,1.37 0.58,0 0.92,-0.26 1.06,-0.5 h 2.58 z m -2.12,-2.27 c 0.01,-0.07 0.03,-0.16 0.03,-0.23 0,-0.53 -0.34,-0.95 -1.02,-0.95 -0.72,0 -1.2,0.44 -1.4,1.18 z"
   id="path27" />
			<path
   fill="#213970"
   d="m 132.41,43.12 h 2.61 l -0.23,1.1 h 0.03 c 0.48,-0.75 1.36,-1.28 2.06,-1.28 0.45,0 0.71,0.03 0.95,0.11 l -0.51,2.38 c -0.33,-0.12 -0.69,-0.18 -1.03,-0.18 -1.14,0 -1.72,0.49 -2.03,1.97 l -0.61,2.95 h -2.69 z"
   id="path28" />
			<path
   fill="#213970"
   d="m 96.76,60.48 c -0.4,1.79 -1.57,2.89 -3.54,2.89 -2.18,0 -3.43,-1.3 -3.43,-3.51 0,-2.59 1.66,-4.87 4.39,-4.87 1.73,0 3.05,0.92 3.05,2.77 h -1.07 c 0,-1.26 -0.82,-1.87 -1.98,-1.87 -2.23,0 -3.33,2.05 -3.33,3.98 0,1.55 0.76,2.61 2.37,2.61 1.31,0 2.13,-0.75 2.48,-2 z"
   id="path29" />
			<path
   fill="#213970"
   d="m 98.55,60.57 c -0.02,0.17 -0.03,0.34 -0.03,0.51 0,0.9 0.73,1.4 1.5,1.4 0.83,0 1.4,-0.39 1.67,-1.11 h 0.95 c -0.3,1.28 -1.36,1.95 -2.62,1.95 -1.92,0 -2.45,-1.32 -2.45,-2.33 0,-2.22 1.39,-3.73 2.98,-3.73 1.7,0 2.45,0.93 2.45,2.57 0,0.3 -0.05,0.59 -0.09,0.75 z m 3.5,-0.84 c 0.07,-0.82 -0.3,-1.64 -1.35,-1.64 -1.12,0 -1.73,0.74 -2.01,1.64 z"
   id="path30" />
			<path
   fill="#213970"
   d="m 104.64,57.39 h 0.92 l -0.18,0.87 h 0.02 c 0.48,-0.65 1.27,-1.01 2.06,-1.01 1.09,0 1.61,0.47 1.61,1.49 0,0.25 -0.07,0.69 -0.17,1.13 l -0.71,3.3 h -0.95 l 0.74,-3.38 c 0.04,-0.21 0.13,-0.69 0.13,-0.9 0,-0.55 -0.45,-0.81 -1.01,-0.81 -0.53,0 -1.08,0.29 -1.43,0.67 -0.34,0.29 -0.52,0.75 -0.64,1.21 l -0.67,3.2 h -0.95 z"
   id="path31" />
			<path
   fill="#213970"
   d="m 112.18,57.39 h 1.15 l -0.18,0.84 H 112 l -0.72,3.4 c -0.01,0.14 -0.03,0.25 -0.03,0.38 0,0.31 0.28,0.39 0.57,0.39 0.19,0 0.37,-0.05 0.55,-0.1 l -0.17,0.87 c -0.22,0.05 -0.45,0.07 -0.67,0.07 -0.71,0 -1.3,-0.2 -1.3,-0.94 0,-0.17 0.02,-0.3 0.05,-0.48 l 0.76,-3.6 h -0.97 l 0.18,-0.84 h 0.97 l 0.36,-1.72 h 0.95 z"
   id="path32" />
			<path
   fill="#213970"
   d="m 114.39,57.39 h 0.9 l -0.28,1.24 h 0.02 c 0.45,-0.79 1.13,-1.38 2.1,-1.38 0.11,0 0.23,-0.02 0.34,0 l -0.22,1.02 c -0.09,-0.01 -0.19,-0.01 -0.28,-0.01 -0.23,0 -0.35,0 -0.57,0.05 -0.53,0.13 -0.93,0.48 -1.23,0.94 -0.26,0.37 -0.39,0.92 -0.48,1.36 l -0.55,2.56 h -0.95 z"
   id="path33" />
			<path
   fill="#213970"
   d="m 120.4,57.25 c 1.55,0 2.41,0.85 2.41,2.4 0,1.9 -1.18,3.67 -3.21,3.67 -1.52,0 -2.44,-1.02 -2.44,-2.42 0,-1.9 1.21,-3.65 3.24,-3.65 z m -0.7,5.23 c 1.39,0 2.15,-1.6 2.15,-2.75 0,-0.91 -0.48,-1.64 -1.53,-1.64 -1.46,0 -2.22,1.59 -2.22,2.79 0.01,0.96 0.56,1.6 1.6,1.6 z"
   id="path34" />
			<polygon
   fill="#213970"
   points="126.6,63.18 128.29,55.18 129.43,55.18 132.29,61.8 132.31,61.8 133.65,55.18 134.68,55.18 132.99,63.18 131.84,63.18 129.01,56.6 128.98,56.6 127.63,63.18 "
   id="polygon34" />
			<path
   fill="#213970"
   d="m 135.2,59.13 c 0.19,-1.29 1.28,-1.88 2.51,-1.88 1.12,0 2.12,0.3 2.12,1.48 0,0.33 -0.11,0.74 -0.18,1.05 l -0.37,1.58 c -0.05,0.23 -0.16,0.56 -0.16,0.83 0,0.27 0.12,0.36 0.28,0.36 0.09,0 0.21,-0.05 0.31,-0.08 l -0.15,0.7 c -0.15,0.08 -0.41,0.13 -0.58,0.13 -0.53,0 -0.81,-0.31 -0.75,-0.81 l -0.02,-0.02 c -0.4,0.53 -0.96,0.84 -1.94,0.84 -0.96,0 -1.77,-0.45 -1.77,-1.63 0,-1.68 1.65,-1.79 2.92,-1.9 1.01,-0.09 1.46,-0.15 1.46,-0.92 0,-0.63 -0.66,-0.76 -1.17,-0.76 -0.73,0 -1.45,0.29 -1.56,1.04 h -0.95 z m 1.29,3.35 c 0.74,0 1.29,-0.25 1.63,-0.76 0.31,-0.44 0.37,-0.95 0.5,-1.49 h -0.02 c -0.41,0.25 -1.17,0.3 -1.86,0.39 -0.68,0.1 -1.29,0.31 -1.29,1.05 0,0.54 0.5,0.81 1.04,0.81 z"
   id="path35" />
			<path
   fill="#213970"
   d="m 145.09,59.23 c 0,-0.71 -0.48,-1.13 -1.22,-1.13 -1.47,0 -2.25,1.46 -2.25,2.72 0,0.9 0.37,1.66 1.44,1.66 0.82,0 1.42,-0.48 1.69,-1.19 h 0.96 c -0.34,1.29 -1.31,2.03 -2.64,2.03 -1.58,0 -2.39,-0.94 -2.39,-2.5 0,-1.84 1.13,-3.56 3.2,-3.56 1.31,0 2.13,0.63 2.17,1.97 z"
   id="path36" />
			<path
   fill="#213970"
   d="m 147.6,57.39 h 0.96 l -1.21,5.79 h -0.95 z m 1.18,-1.04 h -0.97 l 0.25,-1.17 h 0.96 z"
   id="path37" />
			<path
   fill="#213970"
   d="m 152.36,57.25 c 1.54,0 2.41,0.85 2.41,2.4 0,1.9 -1.18,3.67 -3.2,3.67 -1.53,0 -2.44,-1.02 -2.44,-2.42 -0.01,-1.9 1.2,-3.65 3.23,-3.65 z m -0.69,5.23 c 1.39,0 2.15,-1.6 2.15,-2.75 0,-0.91 -0.48,-1.64 -1.53,-1.64 -1.46,0 -2.22,1.59 -2.22,2.79 0.01,0.96 0.56,1.6 1.6,1.6 z"
   id="path38" />
			<path
   fill="#213970"
   d="m 156.53,57.39 h 0.92 l -0.18,0.87 h 0.02 c 0.48,-0.65 1.27,-1.01 2.06,-1.01 1.09,0 1.61,0.47 1.61,1.49 0,0.25 -0.07,0.69 -0.17,1.13 l -0.7,3.3 h -0.95 l 0.74,-3.38 c 0.04,-0.21 0.13,-0.69 0.13,-0.9 0,-0.55 -0.45,-0.81 -1.01,-0.81 -0.53,0 -1.08,0.29 -1.43,0.67 -0.34,0.29 -0.51,0.75 -0.64,1.21 l -0.67,3.2 h -0.95 z"
   id="path39" />
			<path
   fill="#213970"
   d="m 162.19,59.13 c 0.19,-1.29 1.28,-1.88 2.51,-1.88 1.12,0 2.12,0.3 2.12,1.48 0,0.33 -0.11,0.74 -0.18,1.05 l -0.37,1.58 c -0.05,0.23 -0.16,0.56 -0.16,0.83 0,0.27 0.13,0.36 0.28,0.36 0.09,0 0.21,-0.05 0.3,-0.08 l -0.15,0.7 c -0.14,0.08 -0.41,0.13 -0.58,0.13 -0.53,0 -0.81,-0.31 -0.75,-0.81 l -0.02,-0.02 c -0.41,0.53 -0.97,0.84 -1.94,0.84 -0.97,0 -1.77,-0.45 -1.77,-1.63 0,-1.68 1.65,-1.79 2.92,-1.9 1.01,-0.09 1.46,-0.15 1.46,-0.92 0,-0.63 -0.66,-0.76 -1.17,-0.76 -0.73,0 -1.44,0.29 -1.56,1.04 h -0.94 z m 1.29,3.35 c 0.74,0 1.29,-0.25 1.63,-0.76 0.31,-0.44 0.37,-0.95 0.51,-1.49 h -0.02 c -0.41,0.25 -1.17,0.3 -1.86,0.39 -0.68,0.1 -1.29,0.31 -1.29,1.05 -0.01,0.54 0.49,0.81 1.03,0.81 z"
   id="path40" />
			<polygon
   fill="#213970"
   points="167.36,63.18 169.04,55.18 169.99,55.18 168.31,63.18 "
   id="polygon40" />
			<path
   fill="#213970"
   d="m 178.12,63.18 h -0.9 l 0.2,-0.83 h -0.02 c -0.57,0.75 -1.14,0.96 -1.92,0.96 -1.48,0 -2.28,-0.96 -2.28,-2.37 0,-1.76 1.19,-3.69 3.22,-3.69 0.71,0 1.58,0.25 1.8,1.02 h 0.02 l 0.61,-3.09 h 0.94 z m -2.47,-0.7 c 1.45,0 2.26,-1.67 2.26,-2.88 0,-0.86 -0.51,-1.5 -1.46,-1.5 -1.51,0 -2.3,1.57 -2.3,2.85 0.01,0.93 0.46,1.53 1.5,1.53 z"
   id="path41" />
			<path
   fill="#213970"
   d="m 180.77,60.57 c -0.02,0.17 -0.04,0.34 -0.04,0.51 0,0.9 0.73,1.4 1.5,1.4 0.83,0 1.4,-0.39 1.67,-1.11 h 0.95 c -0.3,1.28 -1.36,1.95 -2.62,1.95 -1.92,0 -2.45,-1.32 -2.45,-2.33 0,-2.22 1.39,-3.73 2.98,-3.73 1.7,0 2.45,0.93 2.45,2.57 0,0.3 -0.06,0.59 -0.09,0.75 z m 3.49,-0.84 c 0.06,-0.82 -0.3,-1.64 -1.36,-1.64 -1.12,0 -1.73,0.74 -2.01,1.64 z"
   id="path42" />
			<path
   fill="#213970"
   d="m 194.62,57.55 c 0.03,-1.27 -0.74,-1.66 -1.84,-1.66 -0.79,0 -1.85,0.36 -1.85,1.31 0,0.77 0.57,1.09 1.3,1.29 l 1.08,0.29 c 0.99,0.27 1.93,0.73 1.93,2.16 0,1.65 -1.67,2.43 -3.11,2.43 -1.93,0 -3.28,-0.85 -3.15,-2.81 h 1.07 c -0.07,1.45 0.83,1.92 2.13,1.92 1,0 2.01,-0.46 2.01,-1.53 0,-0.82 -0.64,-1.11 -1.42,-1.32 l -1.09,-0.29 c -0.96,-0.26 -1.79,-0.84 -1.79,-2.01 0,-1.55 1.49,-2.32 2.91,-2.32 1.58,0 2.96,0.77 2.9,2.55 h -1.08 z"
   id="path43" />
			<path
   fill="#213970"
   d="m 200.67,63.18 h -0.92 l 0.18,-0.87 h -0.02 c -0.48,0.65 -1.27,1.01 -2.06,1.01 -1.09,0 -1.61,-0.47 -1.61,-1.49 0,-0.25 0.06,-0.69 0.16,-1.13 l 0.71,-3.3 h 0.95 l -0.74,3.38 c -0.05,0.21 -0.14,0.7 -0.14,0.9 0,0.55 0.45,0.81 1.01,0.81 1.05,0 1.87,-0.92 2.07,-1.88 l 0.67,-3.2 h 0.95 z"
   id="path44" />
			<path
   fill="#213970"
   d="m 203.44,57.39 h 0.89 l -0.2,0.83 h 0.02 c 0.57,-0.75 1.14,-0.96 1.92,-0.96 1.48,0 2.28,0.96 2.28,2.37 0,1.76 -1.19,3.69 -3.22,3.69 -0.71,0 -1.58,-0.25 -1.8,-1.02 h -0.02 l -0.61,3.1 h -0.94 z m 2.46,0.7 c -1.45,0 -2.26,1.67 -2.26,2.88 0,0.86 0.51,1.5 1.46,1.5 1.51,0 2.3,-1.57 2.3,-2.85 -0.01,-0.93 -0.45,-1.53 -1.5,-1.53 z"
   id="path45" />
			<path
   fill="#213970"
   d="m 210.04,60.57 c -0.02,0.17 -0.03,0.34 -0.03,0.51 0,0.9 0.73,1.4 1.5,1.4 0.83,0 1.4,-0.39 1.67,-1.11 h 0.95 c -0.3,1.28 -1.36,1.95 -2.62,1.95 -1.92,0 -2.45,-1.32 -2.45,-2.33 0,-2.22 1.39,-3.73 2.98,-3.73 1.7,0 2.45,0.93 2.45,2.57 0,0.3 -0.05,0.59 -0.09,0.75 z m 3.5,-0.84 c 0.07,-0.82 -0.3,-1.64 -1.36,-1.64 -1.12,0 -1.73,0.74 -2.01,1.64 z"
   id="path46" />
			<path
   fill="#213970"
   d="m 216.11,57.39 h 0.9 l -0.28,1.24 h 0.02 c 0.45,-0.79 1.13,-1.38 2.11,-1.38 0.11,0 0.23,-0.02 0.34,0 l -0.22,1.02 c -0.09,-0.01 -0.19,-0.01 -0.28,-0.01 -0.23,0 -0.35,0 -0.58,0.05 -0.52,0.13 -0.93,0.48 -1.23,0.94 -0.25,0.37 -0.39,0.92 -0.48,1.36 l -0.55,2.56 h -0.95 z"
   id="path47" />
			<path
   fill="#213970"
   d="m 223.35,59.23 c 0,-0.71 -0.48,-1.13 -1.22,-1.13 -1.47,0 -2.25,1.46 -2.25,2.72 0,0.9 0.37,1.66 1.43,1.66 0.82,0 1.42,-0.48 1.69,-1.19 h 0.95 c -0.34,1.29 -1.31,2.03 -2.64,2.03 -1.58,0 -2.38,-0.94 -2.38,-2.5 0,-1.84 1.13,-3.56 3.2,-3.56 1.31,0 2.13,0.63 2.18,1.97 z"
   id="path48" />
			<path
   fill="#213970"
   d="m 228.14,57.25 c 1.55,0 2.41,0.85 2.41,2.4 0,1.9 -1.18,3.67 -3.2,3.67 -1.53,0 -2.44,-1.02 -2.44,-2.42 -0.01,-1.9 1.2,-3.65 3.23,-3.65 z m -0.7,5.23 c 1.39,0 2.15,-1.6 2.15,-2.75 0,-0.91 -0.48,-1.64 -1.53,-1.64 -1.46,0 -2.22,1.59 -2.22,2.79 0.02,0.96 0.56,1.6 1.6,1.6 z"
   id="path49" />
			<path
   fill="#213970"
   d="m 232.32,57.39 h 0.89 l -0.21,0.86 0.02,0.02 c 0.49,-0.6 1.22,-1.02 2.02,-1.02 0.73,0 1.29,0.29 1.46,1.04 0.45,-0.62 1.21,-1.04 1.98,-1.04 0.82,0 1.61,0.36 1.61,1.3 0,0.33 -0.09,0.83 -0.17,1.15 l -0.73,3.47 h -0.95 l 0.81,-3.67 c 0.05,-0.18 0.09,-0.46 0.09,-0.63 0,-0.45 -0.38,-0.79 -0.88,-0.79 -0.54,0 -1.13,0.38 -1.46,0.79 -0.31,0.34 -0.44,0.81 -0.54,1.3 l -0.64,2.99 h -0.95 l 0.7,-3.31 c 0.1,-0.45 0.18,-0.89 0.18,-1.02 0,-0.48 -0.29,-0.76 -0.81,-0.76 -0.53,0 -1.09,0.36 -1.42,0.74 -0.4,0.39 -0.49,0.74 -0.62,1.31 l -0.65,3.04 h -0.95 z"
   id="path50" />
			<path
   fill="#213970"
   d="m 241.84,57.39 h 0.9 l -0.2,0.83 h 0.02 c 0.57,-0.75 1.14,-0.96 1.92,-0.96 1.48,0 2.28,0.96 2.28,2.37 0,1.76 -1.19,3.69 -3.22,3.69 -0.71,0 -1.58,-0.25 -1.8,-1.02 h -0.03 l -0.61,3.1 h -0.94 z m 2.46,0.7 c -1.45,0 -2.26,1.67 -2.26,2.88 0,0.86 0.51,1.5 1.46,1.5 1.51,0 2.3,-1.57 2.3,-2.85 -0.01,-0.93 -0.46,-1.53 -1.5,-1.53 z"
   id="path51" />
			<path
   fill="#213970"
   d="m 251.94,63.18 h -0.92 l 0.18,-0.87 h -0.02 c -0.48,0.65 -1.27,1.01 -2.06,1.01 -1.09,0 -1.61,-0.47 -1.61,-1.49 0,-0.25 0.07,-0.69 0.17,-1.13 l 0.7,-3.3 h 0.95 l -0.74,3.38 c -0.05,0.21 -0.13,0.7 -0.13,0.9 0,0.55 0.45,0.81 1.01,0.81 1.05,0 1.87,-0.92 2.07,-1.88 l 0.67,-3.2 h 0.95 z"
   id="path52" />
			<path
   fill="#213970"
   d="m 256.05,57.39 h 1.15 l -0.18,0.84 h -1.16 l -0.72,3.4 c -0.01,0.14 -0.03,0.25 -0.03,0.38 0,0.31 0.28,0.39 0.57,0.39 0.19,0 0.37,-0.05 0.55,-0.1 l -0.17,0.87 c -0.22,0.05 -0.45,0.07 -0.67,0.07 -0.71,0 -1.3,-0.2 -1.3,-0.94 0,-0.17 0.02,-0.3 0.05,-0.48 l 0.76,-3.6 h -0.97 l 0.18,-0.84 h 0.97 l 0.36,-1.72 h 0.95 z"
   id="path53" />
			<path
   fill="#213970"
   d="m 257.7,59.13 c 0.19,-1.29 1.28,-1.88 2.51,-1.88 1.12,0 2.12,0.3 2.12,1.48 0,0.33 -0.11,0.74 -0.18,1.05 l -0.37,1.58 c -0.05,0.23 -0.16,0.56 -0.16,0.83 0,0.27 0.12,0.36 0.28,0.36 0.09,0 0.21,-0.05 0.3,-0.08 l -0.15,0.7 c -0.15,0.08 -0.41,0.13 -0.58,0.13 -0.53,0 -0.81,-0.31 -0.75,-0.81 l -0.02,-0.02 c -0.4,0.53 -0.97,0.84 -1.94,0.84 -0.97,0 -1.77,-0.45 -1.77,-1.63 0,-1.68 1.65,-1.79 2.92,-1.9 1.01,-0.09 1.46,-0.15 1.46,-0.92 0,-0.63 -0.66,-0.76 -1.17,-0.76 -0.73,0 -1.45,0.29 -1.56,1.04 h -0.94 z m 1.28,3.35 c 0.74,0 1.29,-0.25 1.63,-0.76 0.31,-0.44 0.37,-0.95 0.5,-1.49 h -0.02 c -0.42,0.25 -1.17,0.3 -1.86,0.39 -0.68,0.1 -1.29,0.31 -1.29,1.05 0,0.54 0.51,0.81 1.04,0.81 z"
   id="path54" />
			<path
   fill="#213970"
   d="m 267.58,59.23 c 0,-0.71 -0.48,-1.13 -1.22,-1.13 -1.47,0 -2.25,1.46 -2.25,2.72 0,0.9 0.37,1.66 1.43,1.66 0.82,0 1.42,-0.48 1.69,-1.19 h 0.95 c -0.33,1.29 -1.31,2.03 -2.64,2.03 -1.58,0 -2.39,-0.94 -2.39,-2.5 0,-1.84 1.13,-3.56 3.21,-3.56 1.31,0 2.13,0.63 2.17,1.97 z"
   id="path55" />
			<path
   fill="#213970"
   d="m 270.09,57.39 h 0.95 l -1.21,5.79 h -0.96 z m 1.18,-1.04 h -0.97 l 0.25,-1.17 h 0.96 z"
   id="path56" />
			<path
   fill="#213970"
   d="m 274.86,57.25 c 1.54,0 2.41,0.85 2.41,2.4 0,1.9 -1.18,3.67 -3.2,3.67 -1.53,0 -2.44,-1.02 -2.44,-2.42 -0.01,-1.9 1.2,-3.65 3.23,-3.65 z m -0.7,5.23 c 1.39,0 2.15,-1.6 2.15,-2.75 0,-0.91 -0.48,-1.64 -1.52,-1.64 -1.46,0 -2.22,1.59 -2.22,2.79 0,0.96 0.55,1.6 1.59,1.6 z m 1.53,-7.49 h 1.27 l -1.52,1.6 h -0.79 z"
   id="path57" />
			<path
   fill="#213970"
   d="m 279.02,57.39 h 0.92 l -0.18,0.87 h 0.02 c 0.48,-0.65 1.27,-1.01 2.06,-1.01 1.09,0 1.62,0.47 1.62,1.49 0,0.25 -0.07,0.69 -0.17,1.13 l -0.71,3.3 h -0.95 l 0.74,-3.38 c 0.04,-0.21 0.13,-0.69 0.13,-0.9 0,-0.55 -0.45,-0.81 -1.01,-0.81 -0.53,0 -1.08,0.29 -1.44,0.67 -0.33,0.29 -0.51,0.75 -0.64,1.21 l -0.67,3.2 h -0.96 z"
   id="path58" />
		</g>
		<path
   fill="#213970"
   d="M 44.56,4.65 C 47.3,4.65 53.07,5.9 55.2,6.5 33.37,5.45 19.62,20.24 19.62,37.24 c 0,12.1 7.23,25.45 24.61,29.45 C 24.07,67.05 12.3,50.42 12.3,35.91 12.3,17.54 28.06,4.65 44.56,4.65 Z"
   id="path59" />
		<path
   fill="#213970"
   d="M 32.92,0 C 36.49,0 41.11,1.17 44.39,2.16 43.03,1.99 40.74,2 39.91,2 19.75,2 7.65,19.7 7.65,36.08 7.65,50.17 15.46,65.1 34.25,69.35 11.98,69.92 0,50.42 0,34.58 0,16.17 14.63,0 32.92,0 Z"
   id="path60" />
		<path
   fill="#213970"
   d="m 40.01,37.01 h -1.96 l -0.45,2.15 h 2.28 c 0.63,0 1.5,-0.23 1.5,-1.16 0,-0.86 -0.63,-0.99 -1.37,-0.99 z"
   id="path61" />
		<path
   fill="#213970"
   d="m 51.81,9.07 c -15.19,0 -27.5,12.31 -27.5,27.5 0,15.19 12.31,27.5 27.5,27.5 15.19,0 27.5,-12.31 27.5,-27.5 0,-15.19 -12.32,-27.5 -27.5,-27.5 z m -6.88,28.96 c 0,2.78 -2.23,3.88 -4.75,3.88 h -6.62 l 2.39,-11.54 h 5.93 c 2.5,0 3.44,0.87 3.44,2.54 0,1.46 -0.73,2.41 -2.12,2.78 h -0.02 v 0.03 c 1.08,0.23 1.75,1.24 1.75,2.31 z m 8.94,-3.12 c 2,0.71 2.68,1.81 2.68,3.19 0,2.78 -2.7,4.08 -5.2,4.08 -2.65,0 -5.04,-1.21 -4.9,-4.15 h 3.44 c 0,0.63 0.15,1.02 0.44,1.31 0.31,0.26 0.73,0.29 1.31,0.29 0.69,0 1.55,-0.35 1.55,-1.11 0,-0.84 -1.18,-0.96 -2.78,-1.49 -1.41,-0.47 -2.77,-1.21 -2.77,-3.13 0,-2.6 2.52,-3.8 4.85,-3.8 2.46,0 4.67,0.92 4.6,3.77 h -3.28 c 0.02,-0.47 -0.14,-0.76 -0.4,-0.96 -0.26,-0.19 -0.63,-0.26 -1.04,-0.26 -0.6,0 -1.37,0.18 -1.37,0.94 0.01,0.87 1.74,0.92 2.87,1.32 z m 10.24,4.4 c 1.11,0 1.74,-0.76 1.97,-1.78 h 3.49 c -0.21,1.18 -1.11,4.65 -5.91,4.65 -3.35,0 -4.96,-2.16 -4.96,-5.25 0,-3.73 2.33,-6.84 6.25,-6.84 2.57,0 4.86,1.12 4.93,4.58 h -3.36 c 0.03,-1.08 -0.49,-1.7 -1.58,-1.7 -1.97,0 -2.68,2.26 -2.68,3.89 -0.01,0.96 0.22,2.45 1.85,2.45 z"
   id="path62" />
		<path
   fill="#213970"
   d="m 40.67,33.12 h -1.83 l -0.35,1.75 h 2 c 0.57,0 1.28,-0.21 1.28,-0.92 0,-0.7 -0.47,-0.83 -1.1,-0.83 z"
   id="path63" />
	</g>
</g>
</svg>
