<?xml version="1.0" encoding="utf-8"?>
<!-- Generator: Adobe Illustrator 25.0.1, SVG Export Plug-In . SVG Version: 6.00 Build 0)  -->
<svg version="1.0" id="Layer_1" xmlns="http://www.w3.org/2000/svg" xmlns:xlink="http://www.w3.org/1999/xlink" x="0px" y="0px"
	 viewBox="0 0 228.4 157.6" style="enable-background:new 0 0 228.4 157.6;" xml:space="preserve">
<style type="text/css">
	.st0{fill:#221F1F;}
	.st1{clip-path:url(#SVGID_2_);}
	.st2{clip-path:url(#SVGID_4_);}
	.st3{fill:#D01041;}
</style>
<path class="st0" d="M106.4,62.5v6.8c0,1.9-0.1,2.3-0.4,3c-0.8,1.4-2.7,1.9-4.1,1.1c-0.3-0.2-0.6-0.4-0.8-0.7
	c-0.5-0.7-0.5-1-0.5-3.4v-6.8h1.6v-0.4H97v0.4h1.6v6.8c0,2.3,0.2,3,1,3.7c1,0.8,2.2,1.2,3.5,1.1c1.2,0.1,2.3-0.4,3.1-1.3
	c0.5-0.7,0.7-1.3,0.7-3.6v-6.8h1.6v-0.4h-3.6v0.4"/>
<path class="st0" d="M112.4,73.6h-1.6V74h3.6v-0.4h-1.6V62.9l7.7,11.1h0.4V62.5h1.6v-0.4h-3.6v0.4h1.6v8c-0.7-1-0.7-1-2.2-3.2
	l-3.6-5.2h-3.9v0.4h1.6"/>
<polyline class="st0" points="126.6,73.6 125.1,73.6 125.1,74 130.2,74 130.2,73.6 128.6,73.6 128.6,62.5 130.2,62.5 130.2,62.2 
	125.1,62.2 125.1,62.5 126.6,62.5 "/>
<polyline class="st0" points="142.3,62.5 143.6,62.5 143.6,62.2 140,62.2 140,62.5 141.9,62.5 138.9,71.2 135.7,62.5 137.4,62.5 
	137.4,62.2 132.5,62.2 132.5,62.5 133.6,62.5 137.9,74.2 138.3,74.2 "/>
<path class="st0" d="M147.4,73.6h-1.6V74h9.3l0.4-3.7h-0.3c-0.6,1.9-0.9,2.5-1.6,3c-0.4,0.3-0.6,0.3-1.9,0.3h-2.4v-5.5h0.6
	c1.1,0,1.6,0.2,1.9,0.7s0.2,0.5,0.3,1.6h0.3v-4.9h-0.3c0,1.9-0.4,2.2-2.7,2.2v-5.3h1.5c0.5,0,1,0,1.5,0.1c0.6,0.1,1.2,0.4,1.6,0.8
	c0.4,0.6,0.7,1.3,0.8,2h0.3l-0.1-3.3h-9v0.4h1.6"/>
<path class="st0" d="M161.7,67.5v-5h0.7c1.3,0,1.9,0.1,2.4,0.4c0.6,0.5,0.9,1.2,0.8,2c0.1,0.8-0.2,1.6-0.8,2.1
	c-0.7,0.4-1.6,0.6-2.4,0.4 M159.7,73.6h-1.6V74h5.1v-0.4h-1.6v-5.7h0.6c1.3,0,1.9,0.2,2.4,0.7s0.4,0.8,0.5,1.9
	c-0.1,0.8,0,1.6,0.4,2.4c0.5,0.7,1.3,1.2,2.2,1.2c0.5,0,0.9-0.1,1.3-0.3l-0.1-0.3c-0.2,0.1-0.4,0.2-0.7,0.2c-0.4,0-0.7-0.2-0.8-0.6
	c-0.1-0.4-0.1-0.8-0.1-1.3c0.1-2.3-1-3.7-3.5-4c2.4-0.2,3.9-1.3,3.9-2.9c0-0.9-0.5-1.7-1.3-2.1c-0.9-0.5-1.6-0.7-4.1-0.7h-4.3v0.4
	h1.6L159.7,73.6z"/>
<path class="st0" d="M171.5,74h9l0.4-3.7h-0.3c-0.2,1-0.6,2-1.3,2.8c-0.5,0.4-0.8,0.5-2.4,0.5h-3.2l7.4-11.5h-8.7l-0.4,3.6h0.2
	c0.6-2,1.1-2.7,2-3.1c0.4-0.2,0.4-0.2,1.4-0.2h2.9l-7,10.7"/>
<polyline class="st0" points="185.1,73.6 183.5,73.6 183.5,74 188.6,74 188.6,73.6 187.1,73.6 187.1,62.5 188.6,62.5 188.6,62.2 
	183.5,62.2 183.5,62.5 185.1,62.5 "/>
<path class="st0" d="M195.2,73.6h-1.8V74h5.6v-0.4h-1.7V62.5h0.6c1.3,0,1.7,0.2,2.2,0.7c0.6,0.8,1,1.7,1.1,2.6h0.3l-0.1-3.8h-10.2
	l-0.1,3.8h0.3c0.1-1,0.5-1.9,1.1-2.7c0.5-0.6,0.9-0.7,2.2-0.7h0.6"/>
<g>
	<defs>
		<rect id="SVGID_1_" x="202.4" y="62.2" width="10.7" height="12"/>
	</defs>
	<clipPath id="SVGID_2_">
		<use xlink:href="#SVGID_1_"  style="overflow:visible;"/>
	</clipPath>
	<g class="st1">
		<path class="st0" d="M208.6,69.9h-3.5l1.8-5 M208.8,70.2l1.3,3.4h-1.6V74h5v-0.4h-1.4l-4-11.5h-0.6l-4.2,11.5h-0.9V74h3v-0.4h-1.6
			l1.2-3.4L208.8,70.2z"/>
	</g>
</g>
<path class="st0" d="M102.5,87.5l4-4.3h1.6v-0.3h-4v0.3h1.8l-5,5.3l4.6,5.8h-1.6v0.4h4.9v-0.4h-0.9 M98.7,94.3h-1.6v0.4h5.1v-0.4
	h-1.6V83.2h1.6v-0.3h-5.1v0.3h1.6V94.3z"/>
<path class="st0" d="M117.1,90.5h-3.5l1.8-4.9 M117.3,90.9l1.3,3.4h-1.7v0.4h5.1v-0.4h-1.3l-4-11.4h-0.6l-4.2,11.4H111v0.4h3v-0.4
	h-1.6l1.2-3.4H117.3z"/>
<path class="st0" d="M127.8,88.2v-5h0.7c1.4,0,1.9,0.1,2.4,0.5c0.6,0.5,1,1.2,0.9,2c0,0.8-0.3,1.5-0.9,2c-0.4,0.4-1.1,0.4-2.4,0.4
	 M125.8,94.3h-1.6v0.4h5.1v-0.4h-1.6v-5.7h0.6c1.4,0,2,0.2,2.4,0.7c0.4,0.6,0.5,1.3,0.4,1.9c0.1,1.4,0.1,1.8,0.4,2.4
	c0.4,0.8,1.3,1.2,2.1,1.2c0.5,0,0.9-0.1,1.3-0.3l-0.1-0.3c-0.2,0.1-0.5,0.1-0.7,0.2c-0.3,0-0.6-0.2-0.7-0.5
	c-0.1-0.4-0.2-0.9-0.1-1.3c0.1-2.3-1-3.7-3.4-4c2.4-0.2,3.9-1.3,3.9-2.9c0-0.9-0.5-1.7-1.3-2.1c-0.8-0.5-1.6-0.6-4-0.6h-4.4v0.3h1.6
	L125.8,94.3z"/>
<path class="st0" d="M139.4,94.3h-1.6v0.4h9.3l0.3-3.6h-0.2c-0.1,1-0.6,1.9-1.2,2.6c-0.4,0.6-1,0.7-2.4,0.7h-2.2V83.2h1.6v-0.3h-5.1
	v0.3h1.6"/>
<path class="st0" d="M155.4,83.1c0.9,0,1.8,0.3,2.4,1c0.5,0.7,0.7,1.8,0.7,4.7c0,2.4-0.1,3.7-0.6,4.4c-0.5,0.8-1.5,1.3-2.4,1.3
	c-0.9,0-1.8-0.3-2.4-1c-0.5-0.7-0.7-1.9-0.7-4.7c0-2.4,0.2-3.7,0.7-4.4C153.5,83.5,154.4,83.1,155.4,83.1 M155.4,82.7
	c-3,0-5.5,2.8-5.5,6.1s2.5,6.1,5.5,6.1c1.4,0,2.7-0.6,3.6-1.6c1.1-1.2,1.8-2.8,1.9-4.4C160.9,85.5,158.3,82.7,155.4,82.7z"/>
<polyline class="st0" points="171.7,83.2 173,83.2 173,82.9 169.4,82.9 169.4,83.2 171.3,83.2 168.3,91.8 165.1,83.2 166.9,83.2 
	166.9,82.9 161.9,82.9 161.9,83.2 163,83.2 167.3,94.8 167.7,94.8 "/>
<path class="st0" d="M179,90.5h-3.6l1.8-4.9 M179.1,90.9l1.3,3.4h-1.6v0.4h5.1v-0.4h-1.3l-4.1-11.4h-0.6l-4.2,11.4h-0.9v0.4h3v-0.4
	h-1.6l1.2-3.4H179.1z"/>
<g>
	<defs>
		<rect id="SVGID_3_" x="15.1" y="42.1" width="73.6" height="73.6"/>
	</defs>
	<clipPath id="SVGID_4_">
		<use xlink:href="#SVGID_3_"  style="overflow:visible;"/>
	</clipPath>
	<g class="st2">
		<path class="st3" d="M51.7,42c-20.3,0-36.8,16.6-36.7,36.9s16.6,36.8,36.9,36.7s36.8-16.6,36.7-36.9c0,0,0,0,0,0
			C88.5,58.4,72,42,51.7,42C51.7,42,51.7,42,51.7,42 M51.9,115c-20,0-36.2-16.2-36.2-36.2s16.2-36.2,36.2-36.2s36.2,16.2,36.2,36.2
			c0,0,0,0,0,0C88.1,98.8,71.9,115,51.9,115C51.9,115,51.9,115,51.9,115L51.9,115z"/>
	</g>
</g>
<path class="st3" d="M50.8,46.2c0.2,0,0.3,0.2,0.3,0.5c0,0.5-0.1,1-0.2,1.5c0.4,0,0.8,0,1.2-0.1c-0.2-0.5-0.3-1-0.4-1.5
	c0-0.2,0.1-0.5,0.4-0.5c0.5,0,0.9,0.1,1.3,0.3v-1.2c-0.4,0.2-0.9,0.3-1.3,0.3c-0.2,0-0.4-0.2-0.5-0.4c-0.1-0.5,0-1.1,0.2-1.6
	c-0.4,0-0.7,0-1.1,0c0.2,0.5,0.3,1,0.3,1.6c0,0.2-0.1,0.4-0.4,0.4c-0.4,0-0.9-0.1-1.3-0.2l-0.1,1.1C49.7,46.2,50.2,46.1,50.8,46.2"
	/>
<path class="st3" d="M41.7,45.7c0.4-0.1,0.5-0.3,0.6,0.1c0.3,0.9,0.6,1.8,0.8,2.7c0.1,0.4-0.3,0.4-0.5,0.5c-0.2,0.1-0.2,0.6,0.1,0.4
	c0.8-0.2,1.6-0.4,2.4-0.5c0.2-0.1,0.4-0.2,0.6-0.4c0.1-0.1,0.3-0.1,0.5,0.1c0.2,0.2,1.8,0.4,2.1-0.7c0.3-0.7-0.5-1.4-1.3-1.8
	c0.4-0.6,1-1.6,1.3-2c0.1-0.2-0.2-0.5-0.4-0.3s-0.2,0.3-0.3,0.4s-0.2,0.2-0.6,0c-0.8-0.4-1.7-0.2-2.2,0.6c0,0,0,0.1,0,0.1
	c-0.2,0.5,0.1,1.1,1,1.6c0.1,0.2,0.1,0.2,0.1,0.4c-0.2,0.5-0.5,0.8-0.7,1.4c-0.2,0.2-1,0.4-1.2-0.2c-0.3-1-0.4-1.4-0.7-2.5
	c-0.1-0.4,0.5-0.4,0.7-0.5s0.1-0.5-0.1-0.4c-0.8,0.1-1.6,0.3-2.4,0.6C41.3,45.3,41.5,45.7,41.7,45.7 M45.8,44.8
	c0.2-0.3,0.8-0.2,1.2,0.1c0.1,0.1,0.1,0.3-0.1,0.4l-0.3,0.6C45.8,45.4,45.7,45.2,45.8,44.8L45.8,44.8z M46.2,47.6
	c0.1-0.2,0.2-0.5,0.3-0.7c0.3,0.2,1.3,0.5,0.8,1.2c-0.2,0.3-0.7,0.1-1,0C46.2,48,46.1,47.7,46.2,47.6C46.3,47.6,46.3,47.6,46.2,47.6
	L46.2,47.6z"/>
<path class="st3" d="M57,48.7c0.2-0.2,0.4-0.4,0.7,0c0.6,0.7,1.7,0.7,2.3,0.1c0.1-0.1,0.1-0.1,0.2-0.2c0.3-0.4,0.1-1.2-0.6-1.9
	l1.9-1.6c0.2-0.1-0.1-0.4-0.3-0.3s-0.7,0.2-0.8,0.1c-1.9-1.7-3.4,0.3-2.2,1.8l-1.6,1.6C56.5,48.6,56.9,48.9,57,48.7 M59,45.1
	c0.2-0.2,0.5-0.2,0.7,0.1c0.1,0.1,0.1,0,0.2,0.1s0.2,0.4,0.1,0.4l-0.3,0.3c-0.2,0.1-0.4,0.4-0.5,0.1L58.9,46
	C58.8,45.7,58.8,45.4,59,45.1z M58,47.8c0.1-0.1,0.2-0.2,0.3-0.4c0.2-0.2,0.4-0.3,0.5-0.2s1,0.8,0.4,1.3c-0.4,0.2-0.9,0.1-1.2-0.2
	C58,48.1,57.9,47.9,58,47.8L58,47.8z"/>
<path class="st3" d="M39,48.4c-0.1,0.7-0.3,1.6-0.5,2.3c-0.1,0.4,0.4,0.4,0.5,0.2c0-0.2,0.1-0.4,0.3-0.6c1,0.2,2.5,0.1,2.6-1.3
	c0.2-1.1-0.9-1.3-1.3-1.5c0.1-0.8,0.2-1.5,0.5-2.2c0.1-0.2-0.3-0.4-0.5-0.1c-0.1,0.2-0.2,0.4-0.2,0.6c-1.8-0.2-2.6,0.4-2.7,1.1
	C37.4,47.7,37.9,48.2,39,48.4 M40.9,49.3c-0.1,0.7-1.1,0.4-1.3,0.4c-0.2,0-0.2-0.1-0.2-0.3c0.1-0.3,0.1-0.6,0.2-0.9
	C40.2,48.6,40.9,48.7,40.9,49.3L40.9,49.3z M38.7,46.8c0-0.4,1.5-0.5,1.5,0c-0.1,0.2-0.1,0.4-0.2,0.7C39.6,47.4,38.5,47.6,38.7,46.8
	L38.7,46.8z"/>
<path class="st3" d="M60.9,49.1c-0.2,0-0.3,0.3-0.2,0.4c0.8,0.2,1.6,0.5,2.3,0.8c0.2,0.1,0.3-0.3,0.2-0.4c-0.4-0.1-0.6-0.5-0.5-0.8
	c0,0,0,0,0-0.1c0.2-0.8,0.4-1.6,0.7-2.4c0.2-0.4,0.5-0.1,0.8-0.1c0.2,0,0.3-0.3,0.1-0.4c-0.7-0.3-1.5-0.5-2.3-0.8
	c-0.1,0-0.2,0-0.2,0.1c0,0.1,0,0.2,0.1,0.2c0,0,0,0,0,0c0.2,0.2,0.6,0.2,0.5,0.6c-0.2,0.9-0.5,1.7-0.8,2.6
	C61.6,49.2,61.1,49.1,60.9,49.1"/>
<path class="st3" d="M64.9,51.3c0.5,0.3,1.2,0.3,1.8,0.1c0.6-0.2,1.3-1.6,0.4-2c-0.4-0.2-0.8-0.4-1.3-0.5c-0.2-0.2-0.4,0.3-0.1,0.4
	c1.3,0.6,0.5,2-0.5,1.6c-0.3-0.1-0.4-0.3-0.4-0.6c0.1-0.9,0.5-1.7,1-2.4c0.5-0.4,1.2-0.3,1.5,0.2c0.1,0.1,0.1,0.2,0.2,0.3
	c0.1,0.2,0,0.3-0.2,0.4s0.1,0.4,0.2,0.4c0.6-0.3,1-0.5,1.6-0.8c0.2-0.1,0-0.4-0.2-0.3s-0.8,0.2-1-0.2c-0.6-1.1-2.4-1.7-3.6,0.6
	C63.5,50.2,64.5,51,64.9,51.3"/>
<path class="st3" d="M30.2,55.1c0.4,0.4,1.1,0.5,1.6,0.3c0.6-0.3,1-0.8,1.3-1.3c0.3-0.1,0.6-0.2,0.8-0.3c0.2-0.2,1.7-1.1,2.6-1.6
	c0.2-0.1,0-0.4-0.2-0.4c-0.2,0.1-0.6,0.2-0.8,0c-0.6-0.8-1.1-1.7-1.5-2.6c-0.2-0.2,0.1-0.3,0.5-0.5c0.4-0.2,0.7-0.3,0.9,0
	c0.7,1.3,1.3,2.7,1.6,2.8c0.4,0.1,0.8-0.1,1-0.4c0.2-0.4-0.1-0.6-0.4-0.4s-0.4,0.2-0.5-0.1c-0.4-0.5,0.1-1.5-0.2-2
	c-0.4-0.5-1-0.9-1.6-1c-1.1,0.4-2.2,1.1-3.1,1.8c-0.2,0.2,0,0.4,0.2,0.4c0.2-0.1,0.5-0.3,0.7-0.1l1.5,2.4c0.1,0.3-0.2,0.6-0.5,0.8
	c-0.8,0.5-1.3-0.2-1.8-0.9c-0.7-1-0.8-1.6-0.6-1.8s0.1-0.4-0.1-0.3c-0.3,0.1-0.5,0.4-0.6,0.7c0,0.2-0.1,0.2-0.4,0.3
	c-0.8,0.2-1.8,0.5-1.9,1.3C28.7,53.4,29.2,54.4,30.2,55.1 M31.7,52.9c0.2,0.3,0.4,0.5,0.5,0.7c0.1,0.1,0.2,0.3,0.1,0.4
	c-0.1,0.1-0.6,1.3-1.7-0.1c-0.1-0.2-0.1-0.2,0-0.4c0.3-0.2,0.5-0.4,0.7-0.6C31.5,52.8,31.7,52.8,31.7,52.9z M29.7,51.9
	c0.3-0.3,0.9-0.3,1.2,0C31,52,31,52,31.1,52.1c0.1,0.2,0.1,0.3,0,0.4c-0.2,0.2-0.4,0.3-0.6,0.5c-0.1,0.2-0.4,0.3-0.5,0.2
	S29.2,52.2,29.7,51.9z"/>
<path class="st3" d="M69.7,49.7c-0.5,0.9-0.8,1.4-1.3,2.2c-0.3,0.4-0.5,0.2-1,0c-0.2-0.2-0.4,0.2-0.2,0.4c0.4,0.2,1.3,0.9,2.2,1.3
	c0.1,0.2,0.4-0.2,0.2-0.4c-0.2-0.2-0.5-0.3-0.3-0.7c0.4-0.8,0.8-1.6,1.3-2.3c0.2-0.4,0.6-0.1,0.8-0.1s0.4-0.3,0.2-0.4
	c-0.7-0.3-1.4-0.7-2-1.2c-0.1-0.1-0.3,0-0.3,0.1c0,0.1,0,0.2,0,0.3C69.6,49.2,69.9,49.3,69.7,49.7"/>
<path class="st3" d="M72.3,51.5c-0.5,0.8-1.1,1.6-1.7,2.4c-0.2,0.2-0.4-0.1-0.5-0.1S69.7,54,70,54.2c1,0.7,1.9,1.5,2.7,2.3
	c0.1,0.1,0.4-0.1,0.3-0.3s-0.4-0.5-0.1-0.9c0.6-0.6,1.3-1.1,2.1-1.5c0.3-0.2,0.4,0,0.6-0.1s0.2-0.3,0.1-0.4c-1-0.7-2.7,0.8-3.7,1.3
	c-0.3,0.2-0.7-0.1-0.4-0.4c0.7-0.8,1-1.3,1.6-2.2c0.3-0.4,0.5-0.1,0.7,0c0.2,0.1,0.5-0.2,0.3-0.3c-0.7-0.6-1-0.8-1.6-1.4
	c-0.3-0.2-0.5,0.1-0.3,0.4C72.3,50.9,72.7,51.1,72.3,51.5"/>
<path class="st3" d="M29.3,58.2c0.8-0.6,0.9-1.7,0.3-2.4c0,0,0,0,0,0c-0.5-0.5-1.3-0.5-1.9,0c-0.1,0.1-0.2,0.3-0.3,0.4
	c-0.2,0.4-0.1,0.6,0.2,0.4c0.3-0.1,0.7-0.4,1,0.2s0.5,0.7,0.2,1c-0.3,0.3-0.8,0.3-1.2,0.1c-0.6-0.4-1.2-0.9-1.6-1.5
	c-0.2-0.4-0.1-0.9,0.2-1.3c1-0.8,1.2,0.1,2.2-0.1c0.2,0,0.3-0.3,0.1-0.4c-0.6-0.3-1-0.8-1.1-1.4c-0.1-0.3-0.4-0.2-0.4,0.1
	s0.1,0.5-0.2,0.7c-0.5,0.3-1,0.6-1.4,1c-0.7,0.8-0.3,1.9,0.6,2.9c0.7,0.9,2,1.2,2.9,0.5C29.1,58.3,29.2,58.2,29.3,58.2"/>
<path class="st3" d="M76.1,54.7c-0.7,0.7-1.1,1.1-2,2c-0.1,0.1-0.3,0-0.4-0.1c-0.2-0.1-0.5,0.2-0.3,0.4c0.8,0.9,1.8,1.9,2.4,2.7
	c0.1,0.2,0.4,0,0.3-0.2c-0.2-0.4-0.4-0.4,0-0.9c0.6-0.5,1.3-1,2-1.3c0.6-0.2,0.9,0.5,0.7,1c-0.7,1.2-1.1,1.9-1.7,3.1
	c0,0.1,0,0.3,0.1,0.3c0,0,0,0,0,0c1.9,0.2,3.6-0.4,4.2-0.1c0.1,0.1,0.3,0.1,0.4,0c0.1-0.1,0.1-0.2,0.1-0.3c-0.4-0.7-0.5-0.8-1-1.6
	c-0.1-0.2-0.4-0.1-0.4,0.2s0.2,0.3-0.2,0.4c-0.7,0.4-1.5,0.7-2.4,0.7c-0.2,0-0.3,0-0.2-0.2c0.5-0.6,1.1-1.2,1.8-1.8
	c0.1-0.1,0.3-0.1,0.4,0c0,0,0,0,0,0c0.2,0.2,0.4-0.1,0.4-0.2c-0.5-0.7-0.7-1.2-1.3-1.9s-2.6,0.4-3.6,0.8c-0.4,0.2-0.8-0.2-0.4-0.5
	l1.8-1.8c0.3-0.3,0.5,0.1,0.7,0.2c0.1,0.1,0.4-0.2,0.3-0.4L76.4,54C76.3,53.8,76,54,76,54.3S76.3,54.6,76.1,54.7"/>
<path class="st3" d="M21.7,61.5c0.2-0.3,0.4-0.7,0.5-1c0.1-0.2,0.2,0.1,0.2,0.1s0,1,0.3,1.3c0.5,0.4,1.3,0.1,1.6,0.4
	c0.2,0.2,0.3,0.5,0.2,0.7c-0.2,0.6,0.5,0.9,0.7,0.2c0.2-0.9-0.5-1.1-0.9-1.8c-0.1-0.1-0.1-0.2,0-0.4s0.6-0.8,0.7-1
	c0.2,0.2,0.5,0.3,0.7,0.5c0.3,0.4-0.2,0.8-0.3,1.1s0.3,0.5,0.4,0.4c0.5-0.9,1.2-1.8,1.6-2.4c0.2-0.3-0.1-0.5-0.4-0.4
	c-0.2,0.1-0.5,0.7-0.9,0.4c-0.8-0.6-1.4-1-2.2-1.6c-0.2-0.2,0.1-0.7,0.3-1c0.1-0.3-0.2-0.4-0.4-0.3c-1,1.3-2,2.8-2.8,4.2
	C21.1,61.4,21.6,61.8,21.7,61.5 M23.1,59.4c0.1-0.2,0.4-0.4,0.5-0.4c0.3,0.2,0.7,0.5,1,0.7c0.2,0.2-0.1,0.4-0.1,0.5
	c-0.2,0.2-0.3,0.4-0.4,0.6c-0.1,0.1-0.1,0.2-0.3,0.1c-0.2-0.2-0.5-0.4-0.6-0.7C22.9,60,22.9,59.6,23.1,59.4z"/>
<path class="st3" d="M19.1,66.4c0.2-0.2,0.2-0.4,0.5-0.3c0.9,0.3,1.7,0.6,2.5,1c0.5,0.2,0.4,0.4,0.2,1c-0.1,0.2,0.4,0.4,0.4,0.1
	c0.3-0.9,1-2.4,1-2.4c0.1-0.2-0.3-0.4-0.4-0.2s-0.2,0.6-0.5,0.5l-1.3-0.5c0.5-1.5,1.6-0.3,2.4-0.6c0.4-0.1,0.7-0.6,0.6-1
	c0,0,0-0.1,0-0.1c-0.1-0.4-0.4-0.3-0.4-0.2c0,0.2-0.1,0.4-0.3,0.4c0,0,0,0,0,0c-0.2,0-0.6-0.4-0.9-0.4c-0.2-0.1-0.5-0.1-0.7,0.1
	c0,0,0,0,0,0c-0.1,0.2-0.3,0.2-0.2,0c0.1-0.5-0.1-1-0.6-1.3c-0.6-0.1-1.1,0.2-1.3,0.7c0,0-0.9,1.8-1.3,2.7
	C18.7,66.4,19,66.6,19.1,66.4 M20.2,64.5c0.1-0.4,0.4-0.9,0.8-0.7c0.7,0.3,0.1,1.3,0.1,1.6c0,0-0.8-0.2-1-0.3
	C19.9,65.1,20.1,64.7,20.2,64.5z"/>
<path class="st3" d="M80.8,61.9c-0.7,0.2-1.1,1.6-1.6,1.6c-0.4,0-0.4-0.9-0.7-0.6c-0.4,0.4,0.3,1.5,1.2,1s1.3-0.6,2.2-1.1
	c0.2-0.1,0.5-0.2,0.7,0s-0.2,0.5-0.4,0.7c-0.7,0.3-1.2,0.6-1.8,0.9c-0.2,0.1-0.3,0.2-0.5,0.1s-0.4,0.1-0.3,0.2
	c0.1,0.3,0.2,0.5,0.3,0.7s0.4,0.1,0.4-0.1s0.1-0.1,0.2-0.2c0.7-0.4,1.4-0.7,2.1-1c0.5-0.2,1.1,0.2,0.4,0.4c-1,0.4-1.4,0.7-2.4,1.1
	c-0.7,0.4-0.3,1.6,0.1,1.4s0-0.8,0.4-1c0.2-0.2,1.6,0,2-0.2s1-1.6,0.9-1.8s-0.7-0.7-0.7-0.8s0-0.8-0.1-1
	C82.3,61.8,81.5,61.7,80.8,61.9"/>
<path class="st3" d="M17.9,70.7c0.1-0.3,0.3-0.5,0.5-0.4c1.2,0.3,1.6,0.4,2.7,0.7c0.4,0.1,0.2,0.7,0.1,1c-0.1,0.2,0.4,0.4,0.4,0.2
	c0.2-1,0.5-2,0.8-2.9c0.1-0.3-0.3-0.4-0.4-0.2c-0.2,0.4-0.3,1-0.7,1c-0.5,0-0.4-0.2-0.8-0.3c0.2-0.8,0.7-2.4-0.7-2.7
	c-0.7-0.2-1.3,0-1.5,0.4c-0.4,1-0.7,2-0.8,3C17.4,70.8,17.8,70.8,17.9,70.7 M18.4,68.8c0.2-0.6,0.3-0.9,1-0.7
	c0.7,0.2,0.7,0.8,0.7,1.2c-0.1,0.2-0.1,0.4-0.3,0.3l-1.3-0.4C18.3,69.3,18.3,69,18.4,68.8L18.4,68.8z"/>
<path class="st3" d="M83.4,67.2c-0.3,0.1-0.4,0.4-0.3,0.7c0.2,0.2,0.4,0.3,0.7,0.2c0.3-0.1,0.4-0.4,0.4-0.7
	C84,67.2,83.7,67.1,83.4,67.2C83.4,67.2,83.4,67.2,83.4,67.2"/>
<path class="st3" d="M81.5,67.9c-0.2,0.2-0.3,0.5-0.1,0.7c0.1,0.3,0.4,0.4,0.7,0.3c0.3-0.1,0.4-0.5,0.2-0.7
	C82.2,67.9,81.8,67.8,81.5,67.9C81.6,67.9,81.6,67.9,81.5,67.9"/>
<path class="st3" d="M86.5,78.3c-0.1,0.3-0.1,0.8-0.5,0.8h-2.6c-0.2,0-0.4-0.2-0.4-0.4c0-0.7,0.2-1.3,0.5-1.3
	c0.9-0.1,1.2,0.5,1.7,0.5s1.8-0.7,1.7-1.5c0-1.6-0.3-3.1-0.7-4.7c-0.1-0.1-0.2-0.2-0.4-0.1c-0.9,0.1-1.8,0.2-2.7,0.1
	c-0.4-0.1-0.3-0.2-0.1-0.3c0.6-0.5,1.3-0.9,2.1-1.1c0.8-0.3,0.8-0.1,0.7-0.5c-0.1-0.5-0.2-0.9-0.4-1.4c-0.2-0.2-0.4-0.2-0.4,0.1
	c0,1-1.8,2-2.9,3.1c-0.2,0.2-0.1,0.4,0.1,0.4c1.6,0.5,2.2,0.3,3.6,1c0.2,0.2,0.3,0.3,0.4,0.7c0,0.2,0.2,0.4-0.3,0.5
	c-0.9,0.1-1.6,0.2-2.7,0.2c-0.4,0-0.4-0.5-0.5-1.1c-0.1-0.2-0.5-0.2-0.4,0.1s0.3,3,0.3,3c0,0.2,0.4,0.2,0.4,0s-0.2-0.9,0.3-1
	c1-0.1,1.5-0.1,2.6-0.2c0.4,0,0.4,0.2,0.4,0.4v0.4c0,0.3-0.2,0.6-0.4,0.6s-2.2,0.1-2.2,0.1c-1.8,0.2-0.8,1.8-1.3,4.6
	c0,0.1,0.1,0.3,0.2,0.3s0.3-0.1,0.3-0.2c0.1-0.4,0.2-1.1,0.5-1.2H86c0.3,0,0.4,0.3,0.4,0.6c0,0.2,0,0.4-0.1,0.5c0,0.1,0,0.3-0.3,0.4
	c-1.2,0.4-3.6,1-3.7,1.4s2.1,1.6,3,2.6c0.3,0.2,0.3,0.6,0.4,0.7c0,0.1,0.1,0.2,0.3,0.2c0.1,0,0.2-0.1,0.2-0.2
	c0.2-0.7,0.3-1.4,0.4-2.2c0-0.2-0.4-0.2-0.4-0.1s0,0.4-0.4,0.3c-0.5-0.2-2.2-1-2.5-1.2c-0.2-0.2-0.2-0.2,0.1-0.2
	c1.1-0.1,2.1-0.2,3.2-0.1c0.2,0.1,0.2,0.3,0.4-0.3c0.2-1.5,0.2-2.9,0.2-4.4c0-0.1-0.1-0.2-0.2-0.2S86.5,78.2,86.5,78.3"/>
<path class="st3" d="M18.1,72.2c-0.1,0.3,0,0.6,0.1,0.8c0.2,0.1,0.6,0.1,0.8-0.1c0.1-0.3,0.1-0.7-0.1-0.9
	C18.6,71.9,18.2,71.9,18.1,72.2"/>
<path class="st3" d="M17.1,76.2c0-0.3,0.1-0.7,0.2-1c0.3,0.2,0.4,0.9,0.9,1s1.2-0.6,1.8-0.5s0.6,0.6,0.7,1c0,0.2,0.3,0.2,0.4-0.1
	c0.2-0.5,0-1-0.3-1.4c-0.7-0.4-1.2-0.2-2.3-0.3c-0.5,0.1-1.1-0.3-1.1-0.8c0-0.2,0-0.3,0-0.5c0-0.1-0.1-0.2-0.3-0.2
	c-0.1,0-0.1,0.1-0.2,0.1c-0.1,0.9-0.2,1.7-0.3,2.6C16.6,76.4,17.1,76.4,17.1,76.2"/>
<path class="st3" d="M19.9,72.5c-0.2,0.1-0.4,0.3-0.3,0.6c0,0,0,0.1,0.1,0.1c0.1,0.3,0.4,0.4,0.7,0.2c0.4-0.2,0.3-0.4,0.2-0.7
	C20.5,72.5,20.1,72.4,19.9,72.5"/>
<path class="st3" d="M17.1,79.5c0.1-0.4,0.1-0.6,0.3-0.6c0.9-0.1,1.8-0.1,2.7,0c0.3,0,0.2,0.4,0.3,0.8c0.1,0.2,0.5,0.2,0.4-0.1
	c0-0.5,0.1-1.8,0.1-2.3c0.1-0.3-0.4-0.3-0.5,0s0.1,0.6-0.4,0.6c-0.7,0-1.9,0-2.6-0.1C17,77.8,17.2,77.3,17,77
	c-0.1-0.1-0.2-0.2-0.3-0.1c-0.1,0-0.1,0.1-0.1,0.2c0,0.4,0.1,1.7,0,2.4c0,0.1,0.1,0.2,0.2,0.2C16.9,79.7,17,79.6,17.1,79.5"/>
<path class="st3" d="M18.5,89.3c0.2-1.2,2.1-1.9,3.3-3c0.1-0.1,0-0.3-0.1-0.4c-1.5-0.5-2.9-0.6-3.6-0.9s-0.6-0.6-0.7-1
	c0-0.2,0-0.4,0.2-0.4c1-0.1,1.8-0.2,2.7-0.2c0.5,0,0.4,0.2,0.5,0.8c0.1,0.2,0.5,0.2,0.4-0.1c-0.1-1.8-0.1-2.5-0.5-3.3
	c-0.6-1-3.9-1.1-4.1,0.4c0,1.7,0.2,3.4,0.6,5.1c0.1,0.2,0.4,0.2,0.4-0.1c0.1-0.4,0.3-0.4,0.5-0.4c0.8,0,1.6,0,2.4,0.1
	c0.3,0,0.3,0.1,0.1,0.2c-0.7,0.5-1.6,0.9-2.4,1.1c-0.1,0.1-0.1,0.1-0.4-0.2c-0.2-0.2-0.4,0.1-0.4,0.3c0.2,0.6,0.4,1.1,0.5,1.7
	C18.1,89.6,18.4,89.6,18.5,89.3 M17.4,82.7v-0.8c0-0.2,0-0.4,0.3-0.4c0.8-0.1,1.6-0.2,2.4-0.2c0.3,0,0.5,0.4,0.5,0.4
	c0,0.2,0.1,0.4,0.1,0.8C19.5,82.5,18.4,82.7,17.4,82.7z"/>
<path class="st3" d="M21.3,92.7c-0.4,0-0.4-0.1-0.8-0.1c-0.2,0-0.4-0.1-0.5-0.3c-0.1-0.4,0.2-0.4,0.4-0.5c0.4-0.2,1.5-0.7,2-0.9
	s0.5,0.3,1,0.8c0.1,0.2,0.6,0,0.5-0.2c-0.6-0.9-1-1.9-1.3-2.9c-0.1-0.3-0.6-0.1-0.5,0.2c0.2,0.9,0.5,1.1,0.1,1.3
	c-0.8,0.3-1.8,0.8-2.1,0.9s-0.4,0.2-0.6-0.1c-0.1-0.4,0-0.4,0.1-0.5s0.5-0.5,0.6-0.7s0-0.4-0.3-0.4c-0.3,0.1-0.8,0.4-1.4,0.7
	c0.4,1.3,1,2.3,1.5,3.6l1.6-0.4C21.6,93,21.6,92.7,21.3,92.7"/>
<path class="st3" d="M85.5,87c-0.8-1.3-2.5-1.8-3.6-1.2c-1,0.5-0.5,2.2-0.8,2.6c-0.4,0.8-0.8,1.7-1.1,2.6c-0.1,0.1-0.1,0.2,0,0.3
	c0.1,0.1,0.2,0.1,0.3,0c0,0,0,0,0-0.1c0.2-0.2,0.2-0.2,0.4-0.2l1.1,0.4c-0.4,1-0.8,1-1.4,0.7s-1.8,0.2-1.6,1.6
	c0.1,0.5-0.2,0.5-0.4,0.6s-1.6,0.7-0.9,2.1c0.4,0.6,1.1,0.8,1.8,0.5c0,0,0,0,0,0c0.2,0.4,0.4,0.9,0.6,1.4c0.1,0.3,0,0.6-0.2,0.7
	c-0.2,0.2-0.6,0.7-0.9,0.4l-1.9-1.4c-0.4-0.2-0.1-0.5,0.2-1.1c0.1-0.2-0.2-0.4-0.4-0.2c-0.7,0.9-1,1.3-1.8,2.2
	c-0.1,0.2,0.2,0.4,0.4,0.3c0.6-0.4,0.7-0.8,1-0.4l1.8,1.3c0.4,0.2,0,0.7-0.2,1s0.2,0.5,0.4,0.2c0.7-0.8,1.4-1.7,2.1-2.6
	c0-0.2-0.1-0.4-0.1-0.6s0.3-0.4,0.7-0.5c0.8-0.3,1.2-1.1,0.9-1.9c0,0,0-0.1,0-0.1c-0.3-0.8-1.3-0.7-1.9-0.4c-0.3-0.6-1-1.7-0.6-2.1
	s1.1,0.4,1.6,0c0.3-0.2,0.4-0.2,0.3,0.2c0,0.4,0.3,0.8,0.7,0.9c0.5,0.2,1.1,0,1.5-0.9c0.4-0.8,0.7-1.6,1-2.4
	c0.1-0.3-0.2-0.4-0.4-0.1c-0.2,0.3-0.5,0.3-0.7,0.2c-0.8-0.3-1.5-0.5-2.2-0.9C81,90,81,89.7,81.2,89.2s0.6-0.7,2.1-0.2
	s1.2,0.6,1.4,1.2c0.1,0.2,0.5,0.2,0.4-0.1C85,88.3,86.4,88.2,85.5,87 M81.5,96.5c0.1,0.2-0.1,0.7-0.7,0.8s-0.7-0.2-0.9-0.7
	C80.3,96.4,81.3,95.8,81.5,96.5L81.5,96.5z M79.8,95.6c-0.7,0.4-1.2,0.5-1.4,0.1c-0.1-0.4,0.1-0.8,0.5-0.9c0,0,0,0,0,0
	C79.1,94.7,79.5,94.7,79.8,95.6L79.8,95.6z M82.4,91.6l1.2,0.4C83.2,94.1,81.4,93.3,82.4,91.6L82.4,91.6z M83.1,88.3
	c-0.5-0.1-0.9-0.2-1.3-0.4c-0.3-1.3,0.7-1.4,1.6-1.1C83.4,87.3,83.3,87.8,83.1,88.3L83.1,88.3z M84.8,88.7c-0.4,0-0.8-0.1-1.2-0.3
	c0.1-0.3,0.3-1.1,0.4-1.5C84.9,87.3,85.5,87.9,84.8,88.7L84.8,88.7z"/>
<path class="st3" d="M25.7,95.5c-1.3,0-0.1-2-1.7-2.3c-0.6-0.2-1.2,0.1-1.5,0.6c-0.7,0.1-1.5-0.1-2.2,0c-0.2,0-0.3,0-0.3,0.2
	s0.1,0.4,0.2,0.4c1.1,0-0.1,1.9,1.4,2.4c0.7,0.1,1.3-0.2,1.6-0.8c1-0.1,1.8,0.1,2.6,0.1C26,96,26,95.4,25.7,95.5 M21.6,95.6
	c-0.3-0.1-0.4-0.6-0.4-1c0.1-0.2,0.4-0.3,1.1-0.2C22.3,95,22.4,95.7,21.6,95.6L21.6,95.6z M24,95.3c-0.6,0-0.8,0.1-0.7-0.4
	s0.2-0.7,0.6-0.7c0.4,0,0.6,0.3,0.7,0.7S24.4,95.3,24,95.3L24,95.3z"/>
<path class="st3" d="M24.5,97.9c0.3-0.2,0.4-0.5,0.2-0.7c-0.1-0.3-0.4-0.4-0.7-0.3c0,0,0,0,0,0c-0.2,0.1-0.4,0.4-0.3,0.7
	C24,97.8,24.3,97.9,24.5,97.9"/>
<path class="st3" d="M27.8,100.5c0.1-0.6,0.7-0.4,0.9-0.3c0.1,0.1,0.5,0,0.3-0.5c-0.1-0.3-0.5-0.3-0.9-0.1c-1,0.4-1.6,1.6-2.1,2
	c-0.2,0.1-0.4,0.1-0.6-0.1c0,0,0,0,0,0c-0.2-0.2,0-0.2,0.1-0.4c0.8-0.6,1.3-1.2,2-1.8c0.1-0.1,0.1-0.1,0.2-0.1s0.3-0.2,0.1-0.3
	c0-0.1-0.1-0.2-0.3-0.4s-0.4-0.1-0.3,0s-0.1,0.2-0.1,0.2c-0.6,0.7-1.3,1.3-2,1.8c-0.1,0.1-0.1,0.2-0.3,0c-0.2-0.2-0.2-0.4,0-0.6
	c0.7-0.5,1.4-1.1,2.1-1.7c0.3-0.3,0.2-0.7,0-1c0,0,0,0,0,0c-0.5-0.4-0.7,0.2-0.5,0.4c0.1,0.2,0.2,0.2,0.1,0.4
	c-0.6,0.5-1.4,0.2-1.7,0.4c-0.5,0.5-0.7,1.2-0.6,1.9c0.1,0.4,0.4,0.7,0.7,1c0.4,0.4,0.5,0.7,0.9,0.8c0.5,0,1.7-0.1,1.9-0.4
	C27.8,101.6,27.7,101.2,27.8,100.5"/>
<path class="st3" d="M35.9,109.2L37,107c0.1-0.2,0.3-0.3,0.5-0.3c0,0,0.1,0,0.1,0c0.2,0.1,0.4-0.2,0.2-0.4c-0.4-0.3-0.9-0.6-1.4-0.9
	c-0.3-0.2-0.5,0.1-0.3,0.4s0.3,0.3,0.1,0.5l-0.5,1c-1.5-0.8-0.1-1.7-0.4-2.4c-0.2-0.4-0.7-0.4-1.5-1c-0.5-0.4-1.1-0.8-1.6-1.3
	c-0.1-0.2-0.4,0.2-0.3,0.4c0.2,0.2,0.7,0.7,0.5,1.1c-0.2,0.4-0.6,0.8-0.9,1.3s-0.5,0.8-1,0.4c-0.4-0.4-0.4-0.4-0.2-1
	c0.2-0.8,0.5-1.7,0.8-3.1c0.1-0.2-0.1-0.3-0.3-0.3c-1.3,0.4-2.3,0.8-2.7,1c-0.4,0.3-0.9,0.3-1.3,0.1c-0.2-0.1-0.4,0.2-0.3,0.4
	c0.4,0.5,0.8,0.8,1.2,1.2c0.1,0.2,0.4-0.1,0.3-0.2s0.1-0.3,0.2-0.4c0.6-0.6,1.3-1.1,2.1-1.3c0.1-0.1,0.2-0.1,0.1,0.2
	c-0.3,1-0.9,2-1.6,2.7c1,0.9,2,1.8,3.1,2.5c0.2,0.1,0.5-0.1,0.3-0.4s-0.5-0.4-0.3-0.7l1.2-1.8c0.2-0.4,0.5-0.2,0.9,0.1
	c1.1,0.8-0.7,1,0.2,2c0.2,0.2,0.1,0.2-0.1,0.1c-0.4-0.1-0.7,0-1,0.2c-1,1.3,2.5,2.8,3,3c0.1,0.1,0.3-0.3,0.1-0.4
	C36,109.6,35.9,109.5,35.9,109.2 M35,108.9c0,0.1-0.3,0.1-0.5,0s-1-0.5-0.6-1s1.3,0,1.5,0.1C35.3,108.3,35.2,108.6,35,108.9
	L35,108.9z"/>
<path class="st3" d="M76.6,101c0,0.3,0.1,0.4,0.3,0.9c0.2,0.3,0.2,0.4-0.1,0.6s-0.4,0.2-0.7-0.2c-0.5-0.4-1-0.9-1.5-1.4
	c-0.2-0.2,0.2-0.6,0.4-0.9c0.2-0.3,0-0.5-0.3-0.3c-0.7,0.7-1.3,1.1-2,1.7c-0.2,0.2,0,0.4,0.3,0.4c0.7-0.2,0.7-0.4,1-0.2l1.4,1.4
	c0.3,0.4,0.4,0.4,0.2,0.6c-0.2,0.2-0.4,0.1-0.7,0c-0.3,0-0.6-0.1-0.9-0.2c-0.1,0-0.4,0.2-0.2,0.4c0.7,0.4,0.8,0.5,1.4,0.9
	c1-0.8,1.6-1.5,2.7-2.4c-0.3-0.5-0.6-1-1-1.5C76.8,100.7,76.6,100.7,76.6,101"/>
<path class="st3" d="M74.5,104.8c-0.3,0.3-0.7,0.5-1.1,0.7c-0.1-0.4,0.3-1,0.1-1.3s-1.7-0.7-1.2-1.8c0.2-0.3-0.1-0.6-0.5-0.3
	c-0.6,0.5-0.2,1,0,1.7l-1.1,1.1c-0.3-0.4-0.6-0.8-0.9-1.3c-0.3,0.2-1.1,0.8-1.3,0.9c-0.2,0.2-0.1,0.4,0.2,0.4s0.6-0.4,0.7-0.1
	c0.5,0.7,1,1.5,1.5,2.3c0.1,0.2,0,0.4-0.2,0.5c-0.1,0.1,0.1,0.5,0.3,0.4c0.2-0.1,3.7-2.9,3.7-2.9C75,105,74.7,104.7,74.5,104.8
	 M72.3,106.3c-0.2,0.3-0.5,0.6-0.7,0.3s-0.4-0.6-0.7-1.1l1.2-1.1C72.5,104.9,72.6,105.7,72.3,106.3L72.3,106.3z"/>
<path class="st3" d="M45.4,109.1c-1-0.2-1.9-0.5-2.8-0.8c-0.1,0-0.3,0-0.3,0.2c0,0.1,0,0.2,0,0.2c0.1,0,0.2,0.1,0.2,0.3
	c0,0,0,0.1,0,0.1c-0.3,0.8-0.8,1.5-1.3,2.1c-0.4,0.4-1,0.1-1.5-0.1c-0.2-0.1-0.1-0.1,0-0.2c0.4,0,0.8-0.2,1-0.5
	c0.3-0.4,0-1.3,0.4-1.8c0.2-0.3,0.8,0.1,0.9-0.3s-0.2-0.4-0.4-0.4c-0.9-0.3-1.2,0.7-1.5,1.1c-0.3-0.1-0.6-0.2-0.9-0.3
	c-0.2-0.1-0.4-0.1-0.2-0.4c0.2-0.3,0.4-0.6,0.5-1c-0.5-0.2-0.7-0.3-1.1-0.5c-0.2-0.2-0.3,0.1-0.2,0.2c0.1,0.2,0.2,0.4,0.1,0.7
	c-0.3,0.8-0.9,1.9-1,2.2S37,110,36.7,110s-0.2,0.3-0.1,0.4c1.3,0.6,2.5,1.1,3.9,1.5c1,0.2,2.2-1.2,3-2.5c0.1-0.2,0.5,0,0.4,0.1
	c-0.1,1-0.2,1.3-0.4,2.3c-0.1,0.4-0.4,0.4-0.7,0.3c-0.2,0-0.3,0.4-0.1,0.4c0.7,0.3,1.5,0.5,2.3,0.6c0.1,0,0.3-0.4,0.1-0.5
	c-0.5-0.1-0.7-0.1-0.7-0.7s0.5-2.1,0.5-2.1c0.1-0.4,0.3-0.3,0.5-0.2c0.1,0,0.3-0.1,0.2-0.3C45.6,109.2,45.6,109.1,45.4,109.1
	 M38.3,110.5c-0.5-0.2-0.2-0.6,0.2-1.3c0-0.1,0.2-0.1,0.4-0.1l0.8,0.2C39.5,109.8,39.1,110.9,38.3,110.5L38.3,110.5z"/>
<path class="st3" d="M65.9,110.4c-0.5,0.1-0.7,0.4-0.9-0.1c-0.4-1-0.4-0.8-0.8-1.9c-0.3-0.8,0.2-0.8,0.5-1.1
	c0.2-0.1,0.1-0.6-0.2-0.4c-0.5,0.3-1.4,0.6-2,0.9c-0.4,0.2-0.5,0.2-0.7,0.6s-0.2,0.3-1,0c-0.6-0.3-1.4-0.1-1.7,0.6c0,0,0,0,0,0
	c-0.3,0.7,0.1,1.3,0.9,1.7c-0.2,0.7-0.5,1.7-0.7,2.4c-0.1,0.2,0.3,0.3,0.5,0.1c0.2-0.6,0.3-0.6,1-0.4c0.7,0.2,1.5-0.2,1.8-0.9
	c0.2-0.7-0.2-1-0.7-1.3c0.1-0.6,0.3-1.2,0.6-1.7c0.2-0.4,0.7-0.7,0.9-0.2c0.3,0.6,0.6,1.3,0.8,2c0.3,0.7-0.3,0.7-0.5,0.9
	s0,0.6,0.3,0.4c0.7-0.4,1.5-0.7,2.3-1C66.3,110.9,66.3,110.4,65.9,110.4 M61.4,112c-0.1,0.4-0.5,0.4-0.7,0.3
	c-0.5-0.1-0.5-0.1-0.4-0.5c0.2-0.6,0.3-0.7,0.6-0.6S61.5,111.6,61.4,112L61.4,112z M61.4,109.7c-0.1,0.4-0.2,0.6-0.4,0.5
	c-0.6-0.4-1-0.5-0.7-1S61.6,109,61.4,109.7L61.4,109.7z"/>
<path class="st3" d="M47.7,109.4c-1.5-0.1-1.7,0.8-1.9,1.9c-0.2,0.8-0.2,2.2,1.5,2.4c1.5,0.1,1.9-0.8,1.9-2.1
	C49.1,110.8,49.2,109.6,47.7,109.4 M48,113c-0.1,0.3-0.3,0.4-0.7,0.4c-0.2-0.1-0.5-0.1-0.6-0.5c-0.1-0.8,0-1.6,0.2-2.4
	c0.1-0.4,0.3-0.4,0.7-0.4s0.6,0.1,0.7,0.5C48.3,111.3,48.2,112.2,48,113L48,113z"/>
<path class="st3" d="M56.9,109.3c-0.4,0.4-0.4,0.4-1,0.1c-0.6-0.3-1.4-0.1-1.8,0.4c-0.4,0.7-0.2,1.2,0.5,1.7c-0.3,0.8-0.6,1.5-1,2.2
	c-0.2,0.3,0.3,0.4,0.4,0.2s0.5-0.7,0.9-0.4c0.6,0.5,1.4,0.4,1.9-0.1c0,0,0.1-0.1,0.1-0.1c0.3-0.7,0.1-1.5-0.5-1.9
	c0.3-0.7,0.6-1.3,1-1.9c0.2-0.2-0.2-0.4-0.3-0.2 M56,112.9c-0.1,0.5-0.7,0.4-1.2,0.2c-0.2-0.1,0.2-1,0.3-1.2c0.5,0.4,0.9,0.6,0.7,1
	L56,112.9z M56.3,110.6c-0.2,0.2-0.3,0.7-0.6,0.5s-0.7-0.4-0.5-0.8c0.2-0.3,0.6-0.5,0.9-0.3c0,0,0.1,0,0.1,0.1
	c0,0.2,0.1,0.3-0.1,0.5L56.3,110.6z"/>
<path class="st3" d="M51.1,109.9c-0.4,0.2-0.6,0.3-1.4-0.1c-0.2-0.1-0.5,0.2-0.2,0.4c0.3,0.1,0.5,0.4,0.5,0.7c0,0.6,0,1.2,0,1.8
	c-0.1,0.3-0.3,0.6-0.6,0.8c-0.2,0.1-0.2,0.4,0.2,0.3c0.4-0.1,0.8-0.1,1.2,0.1c1.9,0.7,2.5-0.3,2.5-2.1
	C53.2,109.7,52.1,109.5,51.1,109.9 M51.1,113.5c-0.3,0-0.4,0-0.4-0.6v-1.8c0-0.3,0.1-0.5,0.4-0.6c0,0,0,0,0,0c0.6-0.1,1-0.3,1,1.5
	S51.6,113.4,51.1,113.5L51.1,113.5z"/>
<path class="st3" d="M57.9,111.2c-0.2,0.1-0.3,0.4-0.2,0.6c0,0,0,0,0,0.1c0.1,0.2,0.4,0.3,0.6,0.2c0.2-0.1,0.4-0.4,0.3-0.7
	C58.4,111.2,58.2,111.1,57.9,111.2C57.9,111.2,57.9,111.2,57.9,111.2"/>
<path class="st3" d="M70.2,107.9c-0.2-0.1-0.4-0.1-0.6,0c-0.2,0.1-0.5,0.1-0.5,0c-0.2-1.3-0.8-2.9-2.6-2s-1.3,3.2,0,2.9
	c0.7-0.1,0.4-0.4,0.1-0.7c-0.3-0.2-0.5-1.5,0.3-1.7c0.8-0.2,1.1,1.2,1.3,1.8c0.2,0.6,0.2,0.9-0.4,1.3c-0.5,0.4-0.5,0.1-1.1,0.4
	c-0.4,0.2-0.4,0.5-0.1,0.5c0.6,0,1.3-0.1,1.8-0.3c0.7-0.4,1-1.9,1.8-1.6C70.5,108.5,70.6,108.2,70.2,107.9"/>
<path class="st3" d="M72.6,57.8c-4.7-4.7-10.8-7.6-17.3-8.4c0.2-0.9,0.6-2,0.9-3c-0.2-1-0.5-2-0.7-3l-0.2-0.1
	c-0.4,1-0.7,1.9-1.2,2.9c0.2,1.3,0.5,2.1,0.6,3c0,0-2-0.2-3-0.2c-16.4,0.3-29.4,13.9-29.1,30.3c0.3,16,13.3,28.8,29.2,29.1
	c7.9,0,15.4-3.2,20.9-8.9C84.1,88,84.1,69.3,72.6,57.8c0,0,0-0.1,0-0.1 M78.6,66.9l-4.2-3v0l1.8-1.3c0.9,1.4,1.7,3,2.4,4.4
	L78.6,66.9z M68.7,97.2c0,0-0.9-2.3-1-2.5c-0.2-0.5-0.3-0.6-1-0.9v-0.4h5.5L68.7,97.2z M72.6,93.5l0.1,2.9c-0.3-0.3-0.7-0.3-1.3,0
	c-0.1-0.4-0.4-0.6-0.8-0.5c-0.1,0-0.1,0-0.2,0.1L72.6,93.5z M69.6,97.7c-0.4,0.3-0.5,0.7-0.5,1.1c-0.2-0.1-0.4-0.1-0.6-0.2
	c0-0.4-0.1-0.8-0.4-1l0.7-0.1l0.8-0.9C69.6,97,69.6,97.4,69.6,97.7L69.6,97.7z M67.5,101.9c-0.8-0.1-0.7-0.9-0.7-1.3
	c-0.4,0-1.1,0.1-1.1-0.9s0.8-0.8,1.2-0.9c-0.1-0.2-0.1-1,0.7-1c0.7,0,0.7,0.7,0.7,1.1c0,0,1-0.1,1.1,0.7s-0.7,0.8-1,0.9
	C68.3,101,68.3,101.9,67.5,101.9z M45.1,52.6c-0.1,0.1-1-0.7-1.3-1.1c0.3-0.1,0.7-0.2,1-0.3C44.4,51.6,45.4,52.4,45.1,52.6z
	 M54.7,58.5c0.2,0.2,0.3-0.4,0.4-0.2c0.3,0.4-0.6,0.7-0.3,1c0.1,0.1,0.2-0.4,0.4-0.1s-0.3,0.5-0.2,0.7c0.1,0.3,0.3-0.2,0.4,0.1
	s-0.5,0.9-1,1.2c-0.7,0.4-1.8,0-1.3-1.6c0.2-0.8,0.7-1.4,1.4-1.8c0.3-0.2,0.6-0.1,0.4,0.3C54.8,58.2,54.5,58.3,54.7,58.5z
	 M76.6,77.4c-0.8,0.7-1.3,1.1-1.3,2c0,1.3,1.3,1.6,0.5,2.2c-0.4,0.2-0.6-0.4-1-0.5c0-0.7-0.7-1.5-0.6-2.4h0.4
	c-0.2-0.7-0.3-2.1,0.2-2.2l0.3,0.4c0.6-0.5,1-1.2,1.1-1.9l0.2,0.3C76.1,75.9,76.3,76.7,76.6,77.4z M76.3,74.5c0-0.2,0.2-0.5,0.3-0.5
	c0.2,0,0.2,0.2,0.2,0.5S76.7,75,76.6,75C76.4,75,76.3,74.7,76.3,74.5z M76.7,77.8c0,0,1.5,2.1-0.4,3c-0.8-0.6-0.9-1.7-0.3-2.4
	C76.1,78.1,76.4,77.9,76.7,77.8z M74.7,83.5c-0.1,0.3-0.2,0.6-0.4,0.9c-0.5-0.2-0.1-0.4-0.1-0.8c-0.2-1.6-2-2.4-0.3-3.6
	C74.8,81.3,73.7,82.2,74.7,83.5z M38.3,97.3c0.1-1-1-0.8-1.1-1.6c3.8,0.2,5.6,1.5,6.5-0.6c1.1,0.3,2.2-0.3,2.5-1.4
	c0-0.1,0-0.1,0-0.2l4.9-0.1c0,0-1.6,0.8-2.5,1.4c0.6,0.7,1.4,0.3,1.8,0.6s0.5,1,1.6,1.4c2.2,0.8,2.9-0.2,3.8-0.7c1,0.4,2,0.7,3,0.8
	l1.1-0.9c1.2,0.4,2.5,0.5,3.8,0.4c0.8,0.4,2,0.2,1.4-1l2.3,1.8L38.3,97.3z M66.8,97.7c-0.2,0.2-0.4,0.6-0.4,0.9
	c-0.4,0-0.8,0.2-1,0.6c-0.1-0.3-0.5-0.5-0.8-0.4c0.1-0.4-0.1-0.8-0.4-1L66.8,97.7z M62.5,98.7c-0.4,0-0.8,0.2-1,0.5
	c-0.1-0.3-0.4-0.4-0.7-0.4c0-0.4-0.2-0.9-0.5-1.1H63C62.7,98,62.5,98.3,62.5,98.7L62.5,98.7z M59.7,102c-0.9,0-0.8-1.1-0.9-1.3
	c-0.2,0-0.8,0.1-0.8-0.7s0.7-0.7,1-0.8c0-0.4-0.2-1.1,0.7-1.2s0.7,0.9,0.8,1.2c0.4,0,1-0.1,1,0.8s-0.7,0.8-1,0.8
	C60.5,101,60.6,101.9,59.7,102L59.7,102z M55.2,99.1c0-0.3-0.1-1.1,0.7-1.2s0.7,1,0.7,1.2c0.2,0,1-0.1,1,0.7s-1,0.7-1,0.7
	c0,0.4,0.2,1.6-0.7,1.4s-0.7-0.9-0.7-1.3c-0.4,0-1,0.1-1-0.9C54.2,99.1,55,99.1,55.2,99.1L55.2,99.1z M54,99.1
	c-0.2-0.2-0.5-0.3-0.7-0.3c0.1-0.4-0.1-0.9-0.5-1.1h2.7c-0.3,0.2-0.5,0.6-0.5,1C54.6,98.7,54.3,98.9,54,99.1L54,99.1z M58.6,98.8
	c-0.3,0-0.6,0.1-0.8,0.4c-0.2-0.2-0.4-0.4-0.7-0.4c0-0.4-0.2-0.7-0.4-1H59C58.8,98,58.6,98.4,58.6,98.8L58.6,98.8z M57.1,101
	c0.3,0,0.5-0.1,0.7-0.4c0.2,0.3,0.4,0.4,0.7,0.4c0,0.5,0.3,1,0.7,1.3h-2.8C57,102.1,57.2,101.5,57.1,101L57.1,101z M51.1,98.8
	c-0.4,0.1-0.7,0.2-1,0.4c-0.2-0.3-0.5-0.4-0.9-0.4c0-0.4-0.2-0.7-0.4-1l2.7-0.1C51.3,98,51.1,98.4,51.1,98.8L51.1,98.8z M45.3,101.2
	c0.5-0.1,0.7-0.2,0.8-0.5c0.2,0.3,0.6,0.5,1,0.5c-0.1,0.5,0.2,1,0.7,1.2h-3.2C45.1,102.2,45.4,101.7,45.3,101.2L45.3,101.2z
	 M45.3,98.9c0-0.7-0.2-0.9-0.4-1.1h2.7c-0.4,0.2-0.5,0.6-0.5,1c-0.3,0-0.7,0.2-0.9,0.4C45.8,99,45.7,98.8,45.3,98.9L45.3,98.9z
	 M47.4,100.9c-0.5,0.1-0.9-0.3-1-0.8c0,0,0-0.1,0-0.1c-0.1-0.7,0.7-0.9,1-0.9c0-0.3-0.2-1.2,0.7-1.2s0.8,0.9,0.8,1.2
	c0.4,0,1,0,1.1,0.7c0.2,1.2-0.7,1-1,1c0,0.4,0.1,1.3-0.7,1.3S47.4,101.2,47.4,100.9L47.4,100.9z M49.4,101.1c0.5,0,0.7-0.1,0.9-0.4
	c0.1,0.4,0.5,0.6,0.9,0.5c0,0.5,0.3,1,0.8,1.2h-3.2C49.3,102.2,49.5,101.6,49.4,101.1L49.4,101.1z M43.1,98.7
	c-0.3,0.1-0.6,0.2-0.9,0.4c-0.2-0.3-0.5-0.4-0.8-0.4c0-0.7-0.3-1-0.7-1h2.8C43.1,97.9,43.1,98.7,43.1,98.7z M36.9,97.7h3
	c-0.6,0.1-0.6,0.5-0.7,1c-0.2,0-0.8,0.1-1,0.4c-0.1-0.3-0.5-0.5-0.8-0.4C37.5,98.3,37.3,98,36.9,97.7L36.9,97.7z M28.8,78.9
	c-0.5-0.4-0.8-1-0.8-1.6c0-0.5,0.1-1.1,0.4-1.6c-0.6,0.1-1.1-0.1-1.6-0.4c-0.1,1.3-0.1,3-1.3,3c0.5-1,0.7-2.1,0.8-3.2l-0.3-0.2
	c-0.1,0.6-0.2,1.2-0.3,1.8C25.5,77,25.2,77,24.9,77c0.3-0.9,0.4-1.8,0.4-2.7L25.1,74c-0.1,0.4-0.1,0.7-0.6,0.8
	c0.1-0.7,0.2-1.4,0.1-2.1c0-0.5,0.2-0.7,0.5-0.7c0.3,0.1,0.5,0.3,0.5,0.7c0,0.3-0.1,0.5-0.6,0.6c0.8,1.1,2.1,1.9,3.5,2
	c0.1-0.4,0.1-0.4,0.1-0.8h0.7c-0.1,1.4,0.4,1.3,0.6,2.5C30.1,77.9,29.2,79.2,28.8,78.9z M28.9,84.7c-0.4-0.3-0.9-0.7-1.3-1.1
	c0.4-0.3,0.7-0.7,1-1.2C28.6,83.2,28.7,84,28.9,84.7z M27.7,76c0,0.7-0.2,1.3-1,1.3c0.2-0.5,0.3-1,0.3-1.6
	C27.3,75.9,27.5,75.9,27.7,76z M28,72c0.3,0.2,0.5,0.4,0.7,0.7c0.1-0.1,0.3-0.3,0.5-0.1c0.7,0.4,0.5,1.6-0.1,1.6
	C28.7,74.1,28.3,72.9,28,72z M32.6,73.2c0-0.3,0.2-0.4,0.6-0.4c0.5,0.1,0.5,0.6,0.5,1.1c0,0.6,0,1.2,0,1.8c-0.4,0-0.6-0.1-0.6-0.7
	v-0.8l-0.3,0.2c0,0.9,0.1,1.8,0.3,2.7c-1-0.1-0.8-1.3-0.9-2.4c-0.7,0.5-1.4,0.9-2.2,1.1l-0.1-0.4c1.1-0.3,2.1-0.9,3-1.6
	C32.7,73.7,32.5,73.4,32.6,73.2C32.6,73.2,32.6,73.2,32.6,73.2z M32.4,78.6c-0.4,0.1-1,0-1-1.3c-0.1-0.5-0.1-1-0.1-1.6
	c0.2-0.2,0.5-0.2,0.7-0.4C32,76.5,32.1,77.6,32.4,78.6z M31,77.6c-0.3-0.1-0.5-0.2-0.7-0.7c0-0.2,0-0.5-0.1-0.7
	c0.3-0.1,0.5-0.2,0.7-0.3V77.6z M29.1,80.6c0-0.8,0.4-1.5,0.9-2.1l0.4,1.2c-0.2,0-0.3,0-0.5,0.1v0.7c0.7-1,2,0.4,1.8,1.8
	c-0.4,0.5-0.8,0.9-1.2,1.3c-0.1-0.2-0.6-1-0.7-1.2c0.6,0,1.1-0.2,1-1c-0.4,0.6-1.6,1-1.6-0.2c0.1-0.1,0.5,0,0.5-0.4
	C29.5,80.5,29.3,80.5,29.1,80.6L29.1,80.6z M44.6,59.6l0.3,0.9c0.1,0.2,0.2,0.2,0.2,0.1l0.2-0.4l0.5,0.4v0.1l-4,2.8l-3.8-3v-0.2
	l3.8-2.7c0,0,0.2,0.1,0.2,0L44.6,59.6z M42.3,57.4L42.3,57.4l1.3-1.1c0.4,0.9,0.8,1.9,1,2.9L42.3,57.4z M50.3,58
	c0.1,0.1,0.1,0.1,0.2,0l2.2,1.7c-0.4,0.9-0.8,1.8-1,2.8l-1.4,1H50l-3.6-2.7v-0.2l0.5-0.3l0.2,0.4c0.1,0.2,0.2,0.2,0.3-0.1
	c0.2-0.4,0.4-0.8,0.6-1.2L50.3,58z M48.2,59.2c0.4-0.7,0.8-1.3,1.3-1.9l0.6,0.4v0.1L48.2,59.2z M55.9,68.2c-0.1,0.4-0.4,1.7-0.5,2.1
	l-0.3,0.3l-0.4,2.2c0.1,0.1,0.2,0.2,0.2,0.4c-1.4,6.4-0.9,13.6-0.8,17.2c0,1.6-0.2,1.6-1.1,2.2l1.2-23.8
	C54.8,68.7,55.4,68.4,55.9,68.2L55.9,68.2z M54.3,68.2l0.1-3l0.5-0.3c0.1,1,0.2,3,0.2,3C54.7,67.9,54.5,68,54.3,68.2L54.3,68.2z
	 M57.4,63.3c0.2,0,0.3-0.1,0.4-0.2c0.2,0.5,0.5,0.8,1,1c0,0.9-0.8,1.2-1.5,0.7C57.4,64.3,57.5,63.8,57.4,63.3L57.4,63.3z M62.9,61.7
	c0.2,0.2,0.4,0.5,0.7,0.7c-0.6,0.5-1.2,1-1.7,1.5c0-0.2-0.1-0.4-0.1-0.6C62.5,63.2,63,62.4,62.9,61.7C62.9,61.7,62.9,61.6,62.9,61.7
	L62.9,61.7z M66.3,65.3c-0.3,0.9-0.6,2.1-0.9,2.7c-1,0.1-2.7-0.5-2.7-1.8c0.8,0.1,1-0.6,1-1.2c-0.2-0.6-0.8-1-1.4-0.8
	c-0.1,0-0.1,0-0.2,0.1c1.2-1.3,2.5-2.3,4-3.2C65,63.4,66.8,63.5,66.3,65.3L66.3,65.3z M66.8,78.9l-1.1,1.5c-0.2-0.4-0.2-0.7-0.4-1.2
	c0.6,0.1,1.2-0.2,1.5-0.7V78.9z M66.8,83.3c-0.4-1-0.6-1.6-0.9-2.5l0.9-1.3C66.9,80.8,66.9,82.1,66.8,83.3z M65.1,78.7
	c-0.2-0.4-0.4-1.3-0.7-2l2.2-0.4v-0.4L66,76c0.2-0.6,0.3-1.3,0.5-2.2l0.3,0.2v2.7c-0.2,0-0.5,0.1-0.5,0.3s0.2,0.3,0.5,0.2
	C66.8,78.2,66.3,78.7,65.1,78.7z M65,72.4c0.3,0,0.5-0.1,0.7-0.3c0.2,0.5,0.3,1,0.4,1.5c0,0.8-0.1,1.7-0.4,2.4l-0.5-1l-0.4,0.1
	l0.4,0.7l-1.3-0.7C64.8,74.8,65.1,74,65,72.4z M65.3,76.2l-1,0.2c-0.2-0.5-0.3-0.9-0.3-0.9C64.3,75.7,65.1,76.1,65.3,76.2z
	 M66.8,73.6l-0.4-0.2c-0.1-0.7-0.4-1.8-0.4-1.8l-0.4-1.9h-0.4l0.2,1.7c0.1,0.4-0.4,0.5-0.5,0.6c-0.1-1-0.2-2.4-0.2-2.4l-0.4-0.4
	l0.2,2.9c0,1.3,0,2.3-1,2.7L63.1,73c1-0.3,1-1.2,0.8-2.5L63.8,69l-0.4-0.4l0.2,1.9c0.1,0.8,0.3,2-0.6,2.3l-0.5-1.3
	c0.5-0.2,0.7-0.6,0.5-1.7l-0.2-1.2L62.5,68l0.2,1.8c0.1,1,0.1,1-0.2,1.3c-0.4-1.2-0.7-2.3-0.8-3.6c-0.2-2.5,0.3-3,1-3
	c0.4,0,0.7,0.4,0.7,0.7c-0.1,0.7-0.9,0.5-0.9,0.5c0,0.5,0.1,0.9,0.3,1.3c0.7,0.9,1.9,1.3,3,1.3c0.3-0.8,0.6-1.7,0.8-2.6
	C66.8,69.2,66.8,73.6,66.8,73.6z M65.7,87l-1,2.7c-0.4,0.8-0.6,1.6-0.6,2.4l0.4-0.1c0-0.7,0.1-1.4,0.3-2c0.1,1.3,0.6,2.5,1.5,3.5
	c0,0-1.5-0.5-2-0.7c-0.5-0.2-0.7-0.4-0.7-1.3l1.1-7.8C65.6,85.5,66,86.3,65.7,87z M66.2,87.2l0.1,5.7c-0.8-1-1.1-2.3-1-3.6
	C65.5,88.6,65.8,87.9,66.2,87.2z M62.3,93.3c0.2,0.7,1,0.7,1.8,1.4c0.3,0.3,0.6,0.7,0.8,1.1c0.3,0.3-0.2,0.7-0.6,0.4
	c-0.4-0.2-0.7-0.1-1-0.4c-0.4-0.3-0.8-0.6-1.1-0.9c-0.6-0.4-1.6,0.3-1.3-1.6c0.2-1.1,0-2.1-0.4-3.1c-0.2-0.8-0.1-1.6,0.2-2.3
	c0.7,0,1.4,0.3,1.8,0.8C63.3,90.1,61.7,92.1,62.3,93.3z M46.1,90.9c-0.1-0.6-0.1-1.2-0.1-1.8l2.5-1.8c0,0,0.1,0.1,0.2,0l3.6,2.7
	l-3.7,2.6L46.1,90.9z M48.5,92.9l-2.3-0.1l-0.1-1.6L48.5,92.9z M43.6,93.6c0-1,0.6-1.2,2-0.8c0.4,1.8-1.3,1.8-1.9,1.8
	C43.8,94.3,43.7,93.9,43.6,93.6L43.6,93.6z M41.1,95v-0.2c0.8-0.2,1.5-0.5,2.1-1c0.2,0.4,0.1,0.8-0.1,1.1
	C42.5,95.1,41.8,95.2,41.1,95L41.1,95z M42.9,95.4c-0.4,0.6-1.3,0.4-2,0.4l0.1-0.5C41.6,95.4,42.3,95.5,42.9,95.4L42.9,95.4z
	 M41.2,94.3v-1c0.8-0.2,1.5-0.4,1.8,0.2C42.5,93.9,41.9,94.2,41.2,94.3L41.2,94.3z M37.1,93.3v-1.6c4.2,0.5,5-0.5,8.5-0.4l0.1,1
	C42.8,91.8,42.9,93,37.1,93.3L37.1,93.3z M40.9,93.4c0,0.8-0.2,1.6-0.4,2.4l-0.6-0.1c0.2-0.8,0.2-1.6,0.3-2.4L40.9,93.4z M43.5,63.5
	c-0.4,0-0.8,0.1-1.2,0.3l-0.3-0.3l4-2.7c0.1,0,0.2,0,0.3,0l3.5,2.8v0.1L46,66.4c-0.1,0-0.2,0-0.3,0l-2-1.6
	C43.9,64.4,43.8,63.9,43.5,63.5L43.5,63.5z M51.2,64.9c-0.1,1.1,0.1,2.3,0.6,3.3l-1.4,1h-1.4l-3-2.4c0,0,0.1-0.1,0-0.1l3.9-2.9h0.2
	L51.2,64.9z M50.2,63.7l1.2-0.9c0,0-0.1,0.8-0.2,1.8L50.2,63.7L50.2,63.7z M52.7,84.3l-0.6-0.4c0.5-0.4,0.6-1.1,0.2-1.6
	c-0.1-0.1-0.1-0.2-0.2-0.2c-0.2-0.1-0.4-0.1-0.3-0.4s0.1-2,0.2-3l0.3-0.1l0.4-9.4h-1.8l1.2-0.9c0.5,0.4,0.8,0.4,1.6,0.4L52.7,84.3z
	 M37.1,86.5c0-0.6,0.2-2.4,0.2-2.4c0.4,0.2,0.7,0.4,1.1,0.6v2.3C37.9,86.8,37.5,86.7,37.1,86.5L37.1,86.5z M37.8,87.2l-0.1,1.7
	l-0.7-0.3v-1.7L37.8,87.2z M37.8,79.9c0.3,0,0.6-0.1,0.8-0.3c0,0.4,0.3,0.7,0.7,0.8c0.1,0.7-0.7,1.2-1.5,0.4
	C37.8,80.5,37.8,80.2,37.8,79.9z M41.4,75.9c0.4,0.4,0.8,0.7,1.2,1c0.6,0.4,0.9,0.4,1.2-0.1c0.6-0.7,1.2-1.4,1.9-2
	c0.3,0.4,0.6,0.8,0.9,1.2c-0.4,1.1-1,2.2-1.6,3.2c-0.7,1.3-1.8,0.7-2.2,0.7c-0.8-0.3-1.6-0.7-2.4-1.2L41.4,75.9z M41.2,75
	c0.5,0.1,1,0,1.4-0.1c-0.1,0.4-0.2,0.9-0.2,1.3L41.2,75z M48.5,73.2c0.1,0.1,0.6-0.4,0.7-0.6s0.4-0.8,0.6-1.2
	c0.2-0.2,0.4-0.2,0.3,0.2c-0.1,0.1-0.5,1.3-0.7,1.5c-0.2,0.1-0.3,0.3-0.5,0.4l0.2,0.3l0.6-0.5l0.3-0.8c0.1-0.1,0.3-0.3,0.3,0.1
	c0,0.3-0.1,0.7-0.2,1c-0.2,0.2-0.3,0.4-0.5,0.5c-0.2,0.1-0.2,0.2-0.2,0.2s0.2,0,0.3,0s0.5,0.2,0,0.4c-0.2,0.1-0.3,0-0.3,0.2
	s0.2,0.1,0.2,0.1c0.3,0,0.3,0.3-0.1,0.4c-0.7,0.2-1.8,0-2.3,0.1c-0.5,0.2-1.1-0.1-1.3-0.6c0,0,0,0,0-0.1c0.3-0.4,0.7-0.7,1.1-0.9
	c0.7-0.4,1.2-1,1.6-1.8C49,72.3,48.5,73.1,48.5,73.2L48.5,73.2z M51.3,82.2c0.4,0,0.8,0.3,0.8,0.7c0,0.4-0.2,0.8-0.6,0.8
	s-0.8-0.2-0.8-0.7C50.7,82.6,50.9,82.3,51.3,82.2z M50.4,82.6l-1.4-1l2.5-1.8c0,0,0,1.2-0.1,1.8c0,0.2-0.1,0.2-0.2,0.2
	C50.9,82,50.6,82.3,50.4,82.6z M51.5,79.5l-2.6,1.8c-0.1,0-0.2,0-0.3,0L46.9,80l0.8-0.5V79c0.7,0.3,1.4,0.4,2.1,0.5
	c1.4,0.2,1.5-0.2,1.6-0.9h0.2L51.5,79.5z M48.4,77.7c0.2,0,0.3-0.1,0.4,0.2c0,0.1,0.1,0.2,0.1,0.2c0.1,0,0.2-0.1,0.2-0.1
	c0,0,0,0,0,0C49,77.8,49,77.7,49,77.6c-0.1-0.3,0.2-0.3,0.3-0.1s0.1,0.3,0.1,0.4s0.2,0.2,0.2,0c0-0.2,0-0.4-0.1-0.5
	c-0.1-0.4,0.3-0.3,0.4-0.1c0,0.2,0,0.4,0.1,0.6c0,0.2,0.2,0.2,0.2,0s-0.1-0.4-0.1-0.7s0.4-0.3,0.4,0V78c0,0.2,0.2,0.2,0.2,0
	c0.1-0.3,0.1-0.6,0.1-0.9c0.1-0.2,0.2-0.4,0.5-0.4c-0.1,0.8-0.2,1.4-0.2,2.1s-0.5,0.5-1,0.4c-0.9-0.1-1.8-0.4-2.6-0.9V79
	c-0.8,0.6-1.6,1.2-2.4,1.6l1.4-2.7C47.1,77.9,47.5,77.8,48.4,77.7z M46.6,77.4c0.4-0.8,0.6-1.8,2.1-1.7V77
	C48.1,77.3,47.4,77.4,46.6,77.4z M51.4,78.1c0,0,0.2-1.2,0.2-1.8c-0.2-0.1-0.9,0-1,0.5c-0.2-0.2-0.5-0.1-0.7,0.1
	c-0.2-0.1-0.5-0.1-0.6,0.2C49.3,77,49.2,77,49.1,77v-1.3c0.6,0,1.4-0.4,1-1c0.2-0.1,0.3-0.3,0.2-0.5c0-0.1-0.1-0.1-0.2-0.2
	c0.2-0.2,0.3-0.4,0.4-0.7c0-0.2,0.1-0.4,0.1-0.7S50.5,72,50.3,72c0.4-1.1-0.1-1.5-0.6-0.7l-0.6,0.9v-2.6h3.1l-0.4,8.5H51.4z
	 M48.8,71.3c-0.9,1.2-1,1.6-2.1,2.2l-0.9-0.7v-0.1l3-2.2L48.8,71.3z M46.4,73.7c-0.7,0.6-1.3,1.1-1.9,1.7c-0.3-0.4-0.6-0.8-1-1.1
	l1.9-1.3c0,0,0.1,0.1,0.2,0L46.4,73.7z M43.6,76.6c-0.3,0.4-0.6,0.2-0.7-0.1c-0.2-0.6-0.1-1.3,0.2-1.9
	C43.9,75.3,44.3,75.6,43.6,76.6z M43.7,81.6c-0.7-0.1-0.6-0.7-0.5-1.2c0.2,0.2,0.9,0.2,1.3,0.2C44.4,81.1,44.3,81.7,43.7,81.6
	L43.7,81.6z M40.9,79.4c0.5,0.3,1,0.5,1.5,0.7C42.3,81,40.4,80.6,40.9,79.4L40.9,79.4z M41.1,80.7c0.1,0.7-0.2,1.1-0.8,1
	s-0.8-0.6-0.6-1.2c0.3,0,0.7-0.1,0.9-0.3C40.5,80.2,40.7,80.7,41.1,80.7L41.1,80.7z M41.4,80.8c0.5,0.2,1.1-0.1,1.3-0.6
	c0.1,0.5,0.2,1.4-0.6,1.6C41.3,82,41.4,81.3,41.4,80.8L41.4,80.8z M40.4,77.5l-1.2-1l0.2-1l1.4,1.1L40.4,77.5z M40.5,79.3
	c0,0.4-0.3,0.8-0.8,0.8c-0.1,0-0.2,0-0.3-0.1c-0.4-0.2-0.7-0.6-0.4-1.6C39.4,78.8,40,79.1,40.5,79.3L40.5,79.3z M39.3,81.3
	c0.4,0.7,1.2,1.1,2,1c0.6,0,1.2-0.2,1.6-0.7c0.4,0.4,0.9,0.5,1.4,0.2l0.1,1c-0.3,0-0.7-0.1-1-0.2l-0.2-0.2l-0.2,0.1
	c-1.1,0.7-2.6,0.6-3.5-0.4c0-0.1-0.1-0.1-0.1-0.1c-0.1,0-0.2,0.1-0.2,0.1c-0.6,0.1-1.2,0-1.7-0.4l0.1-0.7c0.3,0.5,1,0.8,1.5,0.5
	C39.3,81.4,39.3,81.4,39.3,81.3L39.3,81.3z M44.7,83.2c0,0.5,0.1,1,0.2,1.6c-3.7,0-5.8,0-7.7-1.5l0.2-1.2
	C39.4,83.5,41.8,83.6,44.7,83.2L44.7,83.2z M45.1,87c-0.4-0.1-0.5-0.1-0.9-0.2l-0.2-1.7h0.8L45.1,87z M38.1,87.2
	c0.4,0.1,0.8,0.1,1.2,0.1l0.1,2.2c0,0-0.7-0.2-1.3-0.4V87.2z M38.7,86.8v-2.2c0.4,0.2,0.9,0.3,1.3,0.4l0.1,1.8
	C39.7,86.9,39.2,86.9,38.7,86.8L38.7,86.8z M41.2,87.3l0.1,2.4c-0.5,0-1-0.1-1.5-0.2l-0.1-2.2C40.2,87.4,40.7,87.4,41.2,87.3
	L41.2,87.3z M40.5,86.9l-0.1-1.8c0.5,0.1,1,0.2,1.6,0.2l0.1,1.7H40.5z M43.1,87.2l0.2,2.2c-0.5,0.1-1.1,0.2-1.6,0.2l-0.2-2.3
	C42.1,87.3,42.9,87.3,43.1,87.2L43.1,87.2z M42.4,86.8l-0.1-1.6h1.4l0.1,1.6C43.4,86.8,42.9,86.8,42.4,86.8L42.4,86.8z M45.2,87.4
	l0.1,1.8c0,0-0.8,0-1.6,0.1l-0.2-2.1C44.1,87.2,44.7,87.3,45.2,87.4L45.2,87.4z M45.2,82.9L45,82.8l-0.1-1.4l1.8-1.3l1.8,1.3v0.1
	l-3.1,2.2L45.2,82.9z M48.6,81.7c0.1,0,0.2,0,0.3,0l1.6,1.2c-0.1,0.6,0.3,1.1,0.9,1.2c0.2,0,0.5,0,0.7-0.1l0.4,0.3l-3.7,2.6
	c0,0-0.1-0.1-0.2,0l-3-2.2l-0.1-0.6L48.6,81.7z M48.8,87.1l3.9-2.7l-0.3,5.4L48.8,87.1z M43.9,65.4l1.5,1.3v0.1l-3.3,2.5
	c-0.1-1,0.1-2.1,0.6-3c0.3,0.3,0.8,0.2,1-0.1C44,65.9,44,65.7,43.9,65.4L43.9,65.4z M45.7,66.9c0,0,0.2,0.1,0.2,0l2.9,2.3v1.2
	l-3.2,2.2c-0.1-0.1-0.2-0.1-0.3,0l-3.1-2.5v-0.6L45.7,66.9z M42.3,70.4l2.9,2.3v0.2l-1.8,1.2c-0.9-0.6-1.5-1.6-1.6-2.8
	C42.2,71.2,42.4,70.8,42.3,70.4C42.3,70.5,42.3,70.5,42.3,70.4z M41.8,67.4c-0.1,0.1-0.1,0.3-0.2,0.4c0.1,0.4,0.1,0.8,0.1,1.3H41
	c-0.1-0.2,0.1-0.2,0.2-0.6c0-0.2,0-0.5-0.1-0.7c0-0.2,0.1-0.4-0.4-0.5c-0.4-0.1-0.7-0.1-1.1-0.1c0-0.3,0.2-0.4,0.6-0.5
	c0.4-0.1,0.8-0.1,1.2,0.1c0.3,0.1,0.4,0.1,0.4,0.4C42,67.3,42,67.3,41.8,67.4L41.8,67.4z M40.8,68.1c-0.3,0.3-0.8,0.2-1.1-0.1
	C39.9,67.7,40.7,67.6,40.8,68.1L40.8,68.1z M40.8,68.3c-0.2,0.7-0.5,1.4-0.9,2c0.3,0,0.9-0.5,1.1-0.7h0.6c0,0.1,0.2,0.4-0.3,0.4
	c0.8,1-0.4,1.2-1.4,0.7c-0.2-0.1-0.4-0.3-0.5-0.5c-0.1-0.4-0.2-0.8-0.1-1.3C39.6,68.1,40.3,68.8,40.8,68.3L40.8,68.3z M39.8,71.1
	c0.5,0.2,1,0.3,1.5,0.3c0.1,1.1,0.7,2.2,1.6,2.9c-0.5,0.4-1.2,0.5-1.8,0.4c-1-0.4-2.1-1.8-3.1-2.4c-0.2-0.7-0.5-1.6,0.9-2
	C39.1,70.7,39.4,70.9,39.8,71.1L39.8,71.1z M41.2,75.5l-0.3,0.7l-1.5-1.1c-0.1-0.6-0.3-1.2-0.6-1.7L41.2,75.5z M40.3,77.9l-0.3,0.7
	l-2.1-1.3c0.4,0,0.8-0.2,1-0.6L40.3,77.9z M38.6,78.2c0.1,1.5-0.8,1.3-0.8,1.3c-0.1-0.8-0.3-1.5-0.6-2.2
	C37.5,77.6,38.3,78,38.6,78.2L38.6,78.2z M36.4,83.5L33.1,81l3.8-2.7C37.6,80.4,36.9,82.1,36.4,83.5L36.4,83.5z M45.4,89.6l0.1,1.2
	c-3-0.1-5.2,1.1-8.4,0.4V89C42.1,91.2,42.5,89.4,45.4,89.6L45.4,89.6z M45.4,84.9l2.9,2.2v0.2l-2.4,1.7
	C45.8,87.7,45.6,86.2,45.4,84.9L45.4,84.9z M52.4,90.1l-0.2,2.7l-3.6,0.1L52.4,90.1z M53.9,92.3c0.1,0.4-1.6,3-2.1,3.9
	c-0.3-0.3-0.6-0.7-0.7-1.1c-0.1-0.2-0.3-0.3-0.5-0.3c-0.3,0.1-0.6,0-0.8-0.1C51.2,94.1,52.6,93.3,53.9,92.3L53.9,92.3z M54.2,92.8
	c0.2-0.6,0.3-1.2,0.4-1.9c0-1.5-0.2-6.3-0.2-6.3l0.3,0.2l0.4,2.9c-0.2,1.4-0.1,2.9,0.2,4.3c0.1,0.9,0.2,1.5-0.4,1.8
	c-1.8,1.3-1,1.3-2.4,2L54.2,92.8z M58.1,86.9L58,87.4c-0.8,0.1-1.7,0-2.5-0.2l-0.2-0.9C56.2,86.8,57.1,87,58.1,86.9z M56.4,83.9
	l0.6-0.1c0.2,0.9,0.2,1.7,0.1,2.6c-0.3,0-0.6-0.1-0.8-0.3C56.2,85.4,56.2,84.6,56.4,83.9L56.4,83.9z M57.4,83.8
	c0.4,0.2,0.7,0.4,1,0.7c0.1,0.6,0,1.2-0.2,1.7l-0.8,0.2C57.5,85.6,57.5,84.7,57.4,83.8L57.4,83.8z M56,86c-0.2-0.1-0.4-0.3-0.6-0.5
	c-0.1-0.4-0.1-0.8-0.2-1.2c0.2-0.2,0.5-0.4,0.9-0.4C55.8,84.6,55.7,85.3,56,86L56,86z M53.2,96c1-0.5,0.9-0.8,1.4-1.3
	s1.1-0.6,1.3-1.1c0.2-1-0.4-3.3-0.3-4.7s0.6-1.4,1.6-1c1.2,0.4,1.1,1.8,0.5,3.2c-0.3,0.7-0.5,1.6-0.5,2.4c0,0.6,0.5,1.5-0.4,1.8
	c-1.7,0.4-1.2,1.4-3.3,1.5C52.5,96.7,52.3,96.4,53.2,96L53.2,96z M57.6,95.1c0.2-0.6-0.3-1,0-2.3c0.1-0.6,0.4-1.2,0.7-1.8
	c0.2,3.9-0.2,3.1-0.3,3.9c0,0.6,0.2,1.1,0.6,1.5c-0.8-0.1-1.5-0.3-2.2-0.6C56.7,95.6,57.3,95.6,57.6,95.1L57.6,95.1z M58.4,95.5
	c-0.1-0.3,0.1-0.4,0.4-0.3c0.3,0.2,0.6,0.4,0.8,0.6c-0.2,0.3-0.4,0.5-0.7,0.7C58.7,96.2,58.5,95.9,58.4,95.5L58.4,95.5z M58.6,94.7
	c0.4-1,0.2-1.3-0.1-7c0-0.4,0-0.7,0.1-1.1c0.2-0.6,0.4-1.2,0.4-1.8l0.9-0.4c0,1.2,0.1,2.3,0.3,3.5c-0.2,0.5-0.3,0.9-0.3,1.4
	c0,1.3,1,1.8,0.6,4.7c-0.2,1.7,1.4,1,1.9,1.8c0.1,0.2,0.3,0.3,0.5,0.4C59.9,96.3,60,95.1,58.6,94.7L58.6,94.7z M61.1,86.5
	c-0.2-0.1-0.4-0.2-0.6-0.3c-0.2-0.6-0.2-1.3-0.1-1.9c0.2-0.2,0.4-0.3,0.7-0.3C60.8,84.9,60.8,85.7,61.1,86.5L61.1,86.5z M61.1,87.5
	h-0.6v-0.8c0.7,0.4,1.7,0.1,2.5,0.2l-0.1,1C62.2,88.2,61.9,87.5,61.1,87.5L61.1,87.5z M61.3,84c0.2,0,0.5,0,0.7,0.1
	c0.1,0.8,0.1,1.7,0,2.5c-0.2,0-0.4,0.1-0.7,0.1C61.3,85.9,61.2,84.7,61.3,84L61.3,84z M62.9,86.5l-0.5,0.1c0.2-0.8,0.2-1.7,0.1-2.5
	c0.3,0.1,0.6,0.2,0.9,0.4C63.4,85.2,63.3,85.9,62.9,86.5L62.9,86.5z M59,84c-1.1,0-1.6-1.3-4.4,0.2v-1.8c2.4-0.3,3.2,0.5,5.2,0.4
	c1.4-0.1,2.9-0.5,4.7,0.1l-0.1,1C60.4,83.2,60.3,84.1,59,84L59,84z M57.4,82.1c-0.9-0.1-1.8-0.2-2.7-0.3c0,0,0-1.6,0.1-2.7
	c1.3,0.8,2.8,1.3,4.3,1.7c1.4,0.3,3.3-0.4,4.7-0.2l0.7,1.6C61.8,81.9,60,82.7,57.4,82.1L57.4,82.1z M61.5,71.7
	c0.3,0,0.5-0.1,0.7-0.3c0.1,0.2,0.2,0.5,0.2,0.7c-0.9,0.2-1.7,0.5-2.5,0.9c-0.1-0.3-0.2-0.7-0.3-1c0.5,0,1,0,1.4-0.2
	c-0.3-0.9-0.6-1.9-0.7-2.8c0.7,0,1.3,0.4,1.4,1.1C62.1,71.2,61.3,71.2,61.5,71.7L61.5,71.7z M61.3,67c-0.2-0.1-0.8-0.2-0.7-1.6
	c0.4,0.1,0.8-0.1,1-0.4C61.4,65.7,61.2,66.4,61.3,67L61.3,67z M61.3,67.7c0,0.4-0.3,0.8-0.7,0.9c-0.7,0.2-1-0.1-1.1-0.5
	c-0.1-0.4,0.2-0.9,0.6-1C60.5,67,61.1,67.1,61.3,67.7L61.3,67.7z M59.1,70.3c-0.7-0.2-1.1-0.9-1-1.6c0.4,0,1,0,1.2-0.4
	c0.1,0.4,0.5,0.6,0.8,0.7C60,69.2,60.1,70.4,59.1,70.3L59.1,70.3z M59.2,67c-1.1,0-1-1.3-1-1.6c0.4,0,0.8-0.2,1-0.6
	c0.2,0.4,0.6,0.6,1,0.7C60.2,65.9,60.3,67,59.2,67L59.2,67z M59.2,67.3c0,0.6-0.5,1.1-1.1,1.1c-0.1,0-0.1,0-0.2,0
	c-0.7-0.1-1.1-0.8-1-1.4c0.5,0,0.9-0.3,1.1-0.7C58.1,66.9,58.6,67.3,59.2,67.3L59.2,67.3z M57.6,68.6c0,0.6-0.7,1-1.4,0.4l0.4-1.3
	C56.6,68.2,57,68.6,57.6,68.6C57.6,68.6,57.6,68.6,57.6,68.6z M55.4,67.7l-0.1-1.4l1.7-1.1C56.9,66.2,56.3,67.2,55.4,67.7z
	 M56.8,69.6c0.3,0,0.6-0.1,0.8-0.2c0.1,0.6,0.6,1.1,1.2,1.3c0.5,0.1,1,0,1.3-0.4l0.2,1c-0.1,0.1-0.3,0.2-0.5,0.2
	c-1.1,0-2.2-0.5-2.8-1.4c-0.3,0.1-0.9,0.2-1,0.1l0.2-0.8C56.3,69.5,56.5,69.6,56.8,69.6z M58.2,72.9c-0.9-0.3-0.5-1.3-0.5-1.8
	c0.5,0.4,1,0.6,1.6,0.6C59.3,72.4,59.3,73.1,58.2,72.9z M56.8,70.4c0.2,0.2,0.4,0.4,0.6,0.6c-0.1,1-0.7,1-1.2,0.6
	c-0.4-0.3-0.5-0.8-0.4-1.2C56.2,70.5,56.5,70.5,56.8,70.4z M60.9,73.3c0.2,0.5,0.4,1,0.6,1.6c-2.3,0.7-4.8-0.2-6.2-2.2l0.3-1.5
	C56.7,73,58.9,73.9,60.9,73.3z M59.1,77.3l0.1-2c0.4,0,0.9,0,1.3,0v2.1C60.1,77.4,59.6,77.4,59.1,77.3z M61.5,77.8l0.2,2.4
	c-0.5,0.1-1.1,0.1-1.6,0.2L60,77.8C60.5,77.8,61,77.8,61.5,77.8L61.5,77.8z M56.3,77c0.4,0.3,0.9,0.4,1.4,0.5L57.5,80
	c-0.5-0.2-1-0.4-1.4-0.7L56.3,77z M55.9,76.2l0.3-2.1c0.3,0.3,0.7,0.5,1.1,0.7c0,0.1-0.3,2-0.3,2C56.6,76.7,56.2,76.5,55.9,76.2z
	 M57.4,77l0.3-2.1c0.4,0.2,0.8,0.3,1.3,0.4l-0.2,2L57.4,77z M58.1,77.6c0.5,0.1,1,0.1,1.5,0.2v2.7c-0.6,0-1.1-0.1-1.6-0.3L58.1,77.6
	z M55.4,73.4l0.5,0.5l-0.3,2.2c-0.2-0.1-0.4-0.3-0.6-0.4C55.1,74.9,55.2,74.1,55.4,73.4z M56.1,76.7l-0.3,2.4l-1-0.7
	c0-0.8,0.1-1.6,0.2-2.4C55.3,76.3,55.7,76.5,56.1,76.7z M62.1,80.3l-0.2-2.4h0.7l0.9,2.4C63,80.2,62.5,80.2,62.1,80.3z M61,77.4
	l-0.2-2.2l0.8-0.2l0.8,2.4L61,77.4z M61.2,72.7c1.3-0.1,1.3,0.3,1.8,1.6l-1.2,0.4L61.2,72.7z M61.8,63c-0.8,0.2-1-0.6-1.2-1
	c0.6-0.2,1.2-0.5,1.7-1c0.4,0.6,0.3,1.4-0.3,1.9C61.9,62.9,61.9,62.9,61.8,63L61.8,63z M60.9,65c-0.5,0.3-1.1,0.2-1.4-0.3
	c-0.1-0.2-0.2-0.4-0.2-0.6c0.7,0,1.3-0.6,1.3-1.3c0.6,0.2,1,0.9,0.8,1.5C61.3,64.6,61.2,64.9,60.9,65L60.9,65z M58.9,63.6
	c-0.8-0.2-0.8-1.3-0.4-1.6c0.6,0.2,1.2,0.2,1.8,0.1C60.4,63,60.1,63.9,58.9,63.6L58.9,63.6z M57.8,65.3c0,0.4-0.4,1.3-0.9,1.3
	c0.2-0.5,0.3-1,0.4-1.5C57.4,65.3,57.6,65.3,57.8,65.3L57.8,65.3z M57.1,64.7l-1.8,1.2l-0.1-1.3l1.8-1.2
	C57.1,63.8,57.1,64.2,57.1,64.7z M54,62.1c-0.1,1.5-0.4,5.6-0.4,5.5c-0.1,1-2.1,1.3-1.7-3.2c0.1-1.3,0.4-2.6,0.8-3.8
	c0.3,0.4,0.6,0.8,1.1,1C54.1,61.7,54,61.8,54,62.1z M52.7,59.3l-2.1-1.6v-0.1l1.3-0.9c0.8,0.1,1.5,0.2,2.3,0.1l-0.1,0.6
	C53.6,57.9,53.1,58.5,52.7,59.3z M46.3,60.4c0-0.1-0.2-0.1-0.2,0l-0.6-0.5l0.7-1.4c0.1-0.2,0.2-0.1,0.2,0.1l0.5,1.3L46.3,60.4z
	 M37.8,60.1c0,0-0.1,0-0.1,0c0,0,0,0,0,0l-1.6-1.3c0.9-1.3,2.1-2.5,3.4-3.4l2.3,1.8v0.1L37.8,60.1z M37.8,60.5l3.9,3.1l-0.4,0.3
	c-0.1-0.3-0.5-0.6-0.8-0.6c-0.1-0.5-0.4-0.9-0.9-1.1c-0.4,0.3-0.7,0.7-0.7,1.1c-0.4,0-0.7,0.2-0.8,0.5c-0.3-0.3-0.7-0.3-1.1-0.2
	c-0.3-0.3-0.7-0.5-1.2-0.4c-0.2,0.4-0.3,0.9-0.2,1.3l-0.2,0.2l-1.7-1.3v-0.2l3.8-2.7C37.6,60.6,37.7,60.6,37.8,60.5z M36.1,64.7
	c-0.1-0.3-0.2-0.7-0.1-1c0.4,0,0.7,0.3,0.8,0.6c0.4-0.4,0.8-0.4,1,0c0.2,0.4-0.1,0.9-0.7,0.7c0.3,0.6,1.1,0.7,1.6,0.4
	c0.3-0.2,0.5-0.4,0.5-0.7c-0.7,0.3-1-0.1-1-0.4s0.4-0.7,0.9-0.5c-0.1-0.3,0.1-0.7,0.4-0.9c0.3,0.2,0.5,0.5,0.5,0.8
	c0.4-0.1,0.8,0.1,0.9,0.4c0.1,0.4-0.3,0.9-1,0.4c0,0.6,0.4,1,1,1c0.4,0,0.8-0.1,1-0.4c-0.2,0.1-0.6,0.1-0.7-0.2
	c-0.1-0.1-0.1-0.3,0-0.4c0.1-0.6,0.7-0.5,1-0.2c0.2-0.3,0.6-0.5,1-0.4c0,0.3-0.1,0.6-0.2,0.9c0.3,0.1,0.5,0.4,0.4,0.8
	c0,0,0,0.1-0.1,0.1c-0.2,0.2-0.5,0.3-0.8,0.1c-0.1-0.1-0.2-0.2-0.2-0.3c-0.1,0.4-0.2,0.7-0.2,1.1c-1.7-0.2-3.5-0.2-5.2,0.1
	c0.1-0.4,0-0.9-0.1-1.3c-0.2,0.3-0.6,0.4-0.9,0.2c0,0-0.1,0-0.1-0.1C35.4,65.1,35.9,64.7,36.1,64.7z M36.6,69.6
	c0,0.7-0.5,1.2-1.1,1.4c-0.6-0.4-1.3-0.9-1.9-1.4v-0.1l2.6-1.8C36.3,68.3,36.4,68.9,36.6,69.6L36.6,69.6z M35.8,71.6
	c2.6-2.7,0.5-2.4,1-4.5l0.3-0.1c0,0.2-0.1,0.3-0.1,0.5c0.2-0.2,0.2-0.3,0.4-0.5l0.5-0.1c-0.3,0.4-0.5,0.9-0.5,1.5h0.1
	c0.1-0.8,0.8-1.4,1.5-1.6c0.4-0.1,0.5,0,0.2,0.3c-0.3,0.5-0.5,1-0.5,1.6c0,0.6,0.2,1,0.1,1.1c-0.3,0.4-0.8,0.3-1.3,0.7
	s-0.4,1-0.2,2.2c0.9,0.4,1.4,1.3,1.5,2.3c0.2,1.8-1.5,2.9-2.7,0.8c-0.7-1-0.1-3,0.6-3.2v-1.3c-1.3,1.6-1.7,3.1-1.3,4.3
	c0.4,1,0.7,1,1.3,2.5l-2-1.6c0.3-1.7,0.4-3.3,0.4-5c-1.3-0.1-2.7-0.2-4-0.3l2-1.4h0.2L35.8,71.6z M36.7,78.2l-3.5,2.4
	c0.7-1.2,1.2-2.6,1.5-3.9L36.7,78.2z M32.8,80.5c-0.5-0.2-1-0.4-1.5-0.6c0.6-0.1,1.2-0.1,1.8-0.1C33,80,33,80.2,32.8,80.5L32.8,80.5
	z M32.6,80.8c0,0-0.4,0.6-0.5,0.8c-0.2-0.5-0.5-1-0.8-1.5C31.7,80.3,32.2,80.5,32.6,80.8L32.6,80.8z M29.1,82.5
	c0.3,0.5,0.6,0.9,1.1,1.2l-1.2,1C29.1,84,29.2,83.2,29.1,82.5L29.1,82.5z M33,81.2l3.3,2.6l-0.1,0.3l-3.5,2.5c0,0-0.2-0.1-0.2,0
	l-2.5-1.9C31,83.7,32.1,82.5,33,81.2L33,81.2z M32.7,86.8l3.2-2.3c-0.7,1.8-1.4,3.8-1.4,3.8L32.7,86.8L32.7,86.8z M36.8,83.8
	c0,0-0.1,1.7-0.2,2.4c-0.5,1.6-1.3,4-2.2,6.2c-0.3,0.7-0.5,0.6-0.5-0.1C34.6,89.4,35.6,86.6,36.8,83.8L36.8,83.8z M36.6,92.8
	c-0.6-0.1-1.3-0.4-1.8-0.2c0.4-1,1.7-4.8,1.8-5C36.5,90.2,36.6,91.8,36.6,92.8L36.6,92.8z M36.6,93.3c-0.7,0.1-1.3,0.2-2,0.1
	C34.5,93,34.7,93,35.1,93C35.7,93,36.4,93.3,36.6,93.3L36.6,93.3z M34.4,93.7c1.8,0.1,3.7,0,5.5-0.2c0,0.7-0.1,1.4-0.3,2.1
	c-1.3-0.2-3.5-0.3-3.5-0.3c0.4,0.4,0.8,1.2,1.3,1.3c0.7,0.2,0.6,0.7,0.4,0.7c-2.7,0-1.9-0.7-3.2-1.5C33.1,95,33.1,93.6,34.4,93.7
	L34.4,93.7z M63.4,93.8c-0.7-0.3-1-1.1-0.7-1.8c0,0,0,0,0-0.1c0.4-1.2,0.6-2.5,0.4-3.7c0.1-0.2,0.2-1,0.2-1.5
	c0.3-0.7,0.4-1.4,0.4-2.1c-0.1,0,0.5-0.2,0.5-0.2l-0.9,7.4c-0.1,0.7,0.1,1,0.7,1.3l2.2,1c0.6,0.3,0.9,0.4,1.1,1l0.6,1.4l0.3,0.9
	C66.7,96.1,65.1,94.9,63.4,93.8L63.4,93.8z M66.8,89.4l2.5,2.1v0.2l-1.7,1.2h-0.9L66.8,89.4z M62.1,75c0.7-0.2,1.2,0.2,1.6,1.1
	c1.5,3.9,3.8,9.8,4.5,12.6c0.2,0.7-0.3,0.9-0.6,0.2C66.4,86.6,63.8,80.2,62.1,75z M67.1,65.4l2.4,1.8v0.1l-2.2,1.6
	C67.2,67.7,67.1,66.8,67.1,65.4z M67.3,83.4l2.2,1.7v0.1l-1.6,1.1C67.6,85.4,67.4,84.4,67.3,83.4z M68.4,79l-1,0.7
	c-0.1-2.7-0.1-5.3-0.2-7.9l0.4,0.2C67.6,75.2,67.7,77,68.4,79z M68.5,76.8c0.2-0.1,0.5-0.1,0.7-0.2l1.3,1h0.4c0.1,0.4,0.2,0.7,0.3,1
	l0.5-0.2c0.2,0.4,0.5,0.7,0.7,1c-0.2,0.2-0.7,0.3-0.7,0.7c-0.1,0.7,0.7,1.4,0.3,1.6c-0.1-0.1-0.3-0.3-0.4-0.4c0-0.4-0.3-0.8-0.7-0.9
	v0.6c-0.3-0.1-0.6-0.1-0.9,0.2c0.2,0.2,0.4,0.4,0.7,0.4l-0.4,0.4c-1.2-1.9-1.9-4-2.2-6.2c0.2,0.2,0.2,0.2,0.4,0.2
	c0.2,0.1,0.4-0.1,0.4,0.1C68.6,76.3,68.5,76.5,68.5,76.8z M70.9,77.3h-0.4l-1.3-0.8c0,0-0.1-0.3-0.2-0.5c0.4,0.1,0.8,0.4,1.1,0.7
	h0.8C71,76.8,70.9,77,70.9,77.3z M70.9,74.5c0.2,0.3,0.4,0.6,0.6,1l0.3,0.2c-0.2,0.1-0.3,0.3-0.5,0.4C71.1,75.4,70.4,75.2,70.9,74.5
	z M72.3,82.6c-0.4-0.4-0.9-0.6-1.4-0.5c0.2-0.2,0.4-0.3,0.7-0.4c0.2,0.1,0.5,0.3,0.7,0.4c0.3-0.2,0.4-0.5,0.3-0.8
	c-0.1-0.4-1-1.5,0.3-1.6c0.1,0.1,0.2,0.3,0.3,0.5C72.5,81.3,73.8,81.4,72.3,82.6z M72.1,78.2l0.3-0.2c0.5,0.3,1,0.5,1.5,0.6
	c0,0.3,0,0.7,0.1,1L73.4,80C72.9,79.4,72.4,78.7,72.1,78.2z M67.3,83.1l0.1-3l1.1-0.8c0.6,1.7,1.6,3.3,2.8,4.6l-1.5,1
	c0-0.1-0.1-0.1-0.2,0L67.3,83.1z M70.8,82.5c0.1-0.2,0.7-0.5,1.6,0.6c0.3-0.4,0.6-0.7,1-0.9c1,1.3,0.5,1.8,0.5,1.8
	c-0.3-0.2-0.7-0.2-0.9,0c0,0-0.1,0.1-0.1,0.1c0.2,0.1,0.3,0.2,0.5,0.2l-0.7,0.2C72.3,84.2,71.3,83.2,70.8,82.5L70.8,82.5z M74,84.6
	c0.6,0.2-0.3,0.6,0.4,1l-0.2,0.2c-0.3-0.3-0.6-0.5-1-0.7C73.5,85.1,73.9,84.9,74,84.6L74,84.6z M75.1,76.3l-0.3-0.4
	c-0.6,0.3-0.9,0.7-0.7,2.3c-0.6,0-1.3-0.2-1.8-0.6c-0.2,0.1-0.5,0.3-0.9,0.5c-0.3-0.7-0.2-1.6,0.4-2.1c1.2-0.7,2.2-0.1,2.5-1
	c0.1-0.1,0.1-0.2,0.1-0.4c0.1-0.7-0.2-1.1-1.5-1.1v-0.3h0.7l0.4-0.3H75l0.3-0.4C75.3,72.6,76.4,75.2,75.1,76.3z M74.9,72.7l-0.3-0.4
	l-0.2,0.4L74,72.3v0.4L73.7,73H73c-0.2,0-0.3,0.1-0.3,0.3v0.6c0.7,0,1.6-0.1,1.5,0.8h-0.1c-0.3-1-1.6-0.3-2.1-0.7v0.3
	c0.2,0.2,0.4,0.1,0.6,0.1c0.4,0,1-0.1,1.1,0.3L73,74.6v0.3c0.3,0,0.7,0.1,1,0.2c-0.2,0.4-1,0.1-2,0.4l-0.4-0.2
	c-0.1-0.4-0.3-0.7-0.5-1c0.2-0.3,0.2-0.5-0.3-1c0,0.2,0,0.4-0.1,0.5c-0.2-0.4-0.5-0.4-0.9-0.2c0,0.2,0.1,0.3,0.2,0.4
	c0.1,0.1,0.5,0.2,0.4,0.4c-0.3-0.1-0.6,0-0.8,0.3c0.4,0.1,0.4,0.3,0.8,0.2c0,0.7,0.5,0.5,0.6,1.3h-0.7c-0.3-0.2-0.6-0.4-0.9-0.5
	c0-0.5-0.2-0.7-0.7-0.7c0,0.2,0.1,0.4,0.2,0.5c-0.2-0.1-0.4-0.2-0.7,0.1c-0.1-1.1-0.1-3.2-0.1-3.2l7.1-0.2L74.9,72.7z M67.7,71.8
	l-0.4-0.2l-0.1-2.4l2.4-1.6h0.2l3.9,2.8v0.1l-1.9,1.4L67.7,71.8z M69.6,67l-2.5-1.9l-0.2-1.5l3.2-2.4c0,0.1,0.1,0.1,0.2,0
	c0,0,0,0,0,0l3.6,2.7l-4.2,3L69.6,67z M66.8,63.3c-0.1-1-0.3-3-0.3-3c-0.9,0.4-1.7,1-2.5,1.6c-0.4-0.3-0.7-0.6-1-1l3.3-2.4h0.2
	L70,61v0.1L66.8,63.3z M66.2,58.3l-3.4,2.3c-0.2-0.3-0.4-0.7-0.5-1c1.1-0.5,1.9-1.4,2.2-2.6L66.2,58.3L66.2,58.3z M62.1,59.2
	c-0.1-0.3-0.1-0.5-0.2-0.8c0.3-0.2,0.6-0.4,0.7-0.7c0.1-0.2,0.1-0.2-0.2-0.4s-0.1-0.3-0.1-0.3c0.5-0.4,0.6-0.5,0.4-1.2
	c0-0.3-0.1-0.6-0.2-0.9c0.2-0.4-0.2-0.6-0.1-0.9c0.1-0.8-0.2-1.1-0.5-1.3c-0.5-0.4-1.1-0.3-1.7-0.4c-0.1-1-1.6-1-1.8-0.1
	c-0.5,0.1-0.9,0.2-1.3,0.3c-0.4,0.1-0.8,0.4-0.8,0.9c-0.1,0.8-0.2,0.7-0.3,1c-0.1,0.3,0,0.6,0.3,0.7c0,0,0,0,0,0
	c0,1-0.2,1.2,0.3,1.8c-0.3,0.3-0.5,0.4,0,0.8c0.3,0.2,0.7,0.2,1.1,0.2c0.1,0.2,0.2,0.5,0.3,0.7c0.6,0.7,1.7,0.7,2.4,0.2
	c-0.7,1.2-2.4,0.6-2.8,0.2l-0.2,0.4c-1.6-0.9-2.4-2.7-2.1-4.5c0.4-2,2.1-3.4,4.1-3.5c2.4,0,4.5,1.9,4.6,4.3
	C64.3,57.1,63.5,58.6,62.1,59.2z M61,55.3c-0.2-0.2-0.1-0.3,0.1-0.3h1.3c0.1,0.2,0.5,1.3-0.1,1.6c-0.1,0.1-0.2,0.1-0.3,0.2
	c-0.2,0.1-0.4,0.2-0.1,0.4c0.2,0.1,0.3,0.2,0.5,0.4c-0.2,0.4-0.7,0.6-1.1,0.4c0-0.4,0.1-1.2,0.3-1.3C62,56.3,61.1,55.4,61,55.3
	L61,55.3z M56.8,55.1c0.2,0,0.4,0,0.6,0.1c-0.2,0.5-0.2,1.2,0,1.7c0.2,0.2,0.2,0.2,0.3,0.1c-0.1-0.1-0.2-0.7,0.3-0.7
	c0.3,0,0.7,0,1-0.2c0-0.2,0-0.3-0.1-0.5c-0.2-0.3-0.7-0.4-1.3-0.4c0-0.4,0.4-0.4,0.8-0.5s1.8,0,1.9,0.4c-0.7,0.2-1,0.3-1,0.7
	c0,0.3,0,0.7,0.1,1h-0.7c-0.2,0.3-0.1,0.9-0.6,0.9c-0.2-0.1-0.2-0.2-0.4-0.4c-0.3,0-0.6,0.1-0.7,0.1s-0.4-0.3-0.2-0.4
	s0.2-0.1,0.2-0.2C56.8,56.4,56.7,56.4,56.8,55.1L56.8,55.1z M56.7,53.8c0-1.2,1.2-1.2,2.2-1.3c-0.1-0.4,0.2-0.7,0.7-0.7
	s0.5,0.6,0.6,0.7c0.7,0.2,1.6-0.1,1.9,0.5c0.2,0.4,0,0.9,0.2,1.2s0.1,0.4-0.2,0.4c-0.5-0.1-1.1-0.1-1.6-0.1c-1,0-1.3-0.1-2.1-0.1
	s-1,0.3-1.6,0.3l-0.4-0.1v-0.2C56.8,54.4,56.7,54.1,56.7,53.8L56.7,53.8z M60.8,55.8c-0.2,0.3-0.9,0.4-1,0.1S60.5,55.4,60.8,55.8
	L60.8,55.8z M57.7,55.9c0.2-0.4,1-0.3,1-0.1C58.7,56.2,58,56.2,57.7,55.9z M59.7,57.5h-0.7c0-0.2,0.1-0.3,0.4-0.3
	S59.7,57.3,59.7,57.5L59.7,57.5z M58.9,57.8c0.3,0,0.5,0,0.8,0c0.1,0.2,0.1,0.2,0.1,0.3s0,0.2-0.1,0.3c-0.3,0-0.5,0-0.8,0
	c-0.1-0.1-0.2-0.2-0.3-0.3C58.6,57.9,58.8,57.9,58.9,57.8L58.9,57.8z M59.9,56.9c-0.1-0.4-0.1-0.7,0.6-0.7s0.7,0,0.7,0.4
	c-0.1,0.6-0.1,0.8-0.4,1S60.1,57.6,59.9,56.9L59.9,56.9z M58.1,59.5c0.9,0.6,2.2,0.3,2.8-0.6c0.1-0.2,0.2-0.3,0.2-0.5h0.4
	c-0.1,0.8,0.1,1.6,0.6,2.2c-1.2,1.4-3.3,1.6-4.7,0.5C57.6,60.7,57.8,60.2,58.1,59.5z M58.1,61.9c0,0.5-0.3,1-0.7,1.1
	c-0.1-0.5-0.2-0.9-0.5-1.3l0.2-0.3C57.4,61.6,57.7,61.8,58.1,61.9z M57.1,63.1c-0.5,0.4-1.2,0.3-1.6-0.2c-0.1-0.1-0.1-0.2-0.1-0.3
	c0.4-0.2,0.9-0.5,1.3-0.7C56.8,62.2,57,62.6,57.1,63.1L57.1,63.1z M56.2,63.6l-1.8,1.1l0.1-1.6l0.6-0.3
	C55.2,63.2,55.7,63.6,56.2,63.6L56.2,63.6z M54.4,53.7L54.3,56C53.5,55.7,53.4,53.9,54.4,53.7L54.4,53.7z M54.4,53
	c-1-0.2-0.9-2.1,0.2-2.1L54.4,53z M53.4,51.9c-0.1,0.6,0.3,1.2,0.9,1.4c-0.6,0.2-1,0.8-1,1.4c-0.1,0.7,0.3,1.3,0.9,1.6
	c-1.5,0.1-3,0-4.5-0.4c0.1-0.2,0.2-0.2,0.9-0.2h0.6c0.5,0.1,0.8,0.1,1-0.2c0.1-0.2,0-0.4-0.1-0.5c-0.1-0.1-0.3-0.1-0.4,0
	c-0.2-0.2-0.4-0.5-0.5-0.8c-0.3-0.5,0.2-0.7,0.4-0.7c0.6,0,1.2,0.4,1.6,0.9c0.1-0.2,0.1-0.4-0.1-0.6c-0.2-0.4,0.2-0.3-0.2-0.8
	c0-0.2-0.2-0.3-0.4-0.3c-0.5-0.1-0.2,0.2-0.8,0.2s-0.7-0.2-0.4-0.5c0.2-0.2,0.4-0.5,0.7-0.8c0.1,0.2,0.3,0.2,0.5,0.1
	c0.1-0.1,0.1-0.2,0.2-0.3c0-0.4-0.4-0.5-0.8-0.5c-0.3,0-0.7,0-1,0c-0.7,0-0.8-0.2-0.8-0.4c1,0,3.2,0,4.6,0.1
	C53.8,50.7,53.4,51.3,53.4,51.9z M46.5,54.6c0.6-0.6,1.3-0.9,2.2-1c0.5,0.1,1.6,0.1,1.6,0.1l0.2,0.4h-1.7v0.3h1.9l0.1,0.4
	c-1.8,0-2.7-0.2-3.2,0.6c-0.5-0.2-1.3-0.4-2.1-0.7C45.1,54,45.2,53,46,53c0.7,0,1.3,0.1,2,0.3c-0.6,0.2-1.1,0.5-1.6,0.9L46.5,54.6z
	 M49.2,55h1.7l0.2,0.4c-1.5,0-1.8-0.1-2.1,0.3l-0.9-0.2C48.4,55,48.7,55,49.2,55L49.2,55z M51.5,51.2l-0.3,0.3
	c-1.5,0-2.7,0.1-2.8-0.8l0.8-0.1C49.4,51,49.7,51.1,51.5,51.2L51.5,51.2z M51.1,51.7L50.8,52h-1.9v0.2h1.7l-0.3,0.4h-1.4
	c-0.8-0.3-1.5-0.8-2.2-1.4l-0.2,0.3c0.4,0.5,0.9,0.9,1.5,1.1c-0.7,0-1.4,0-2.1-0.1c-0.5-0.1-0.8-0.5-0.8-1c0-0.2,0.1-0.4,0.2-0.5
	c0.8-0.2,1.6-0.4,2.4-0.4C48.3,51.9,49.1,51.6,51.1,51.7L51.1,51.7z M51.6,56.7l-1.1,0.7c-0.1-0.1-0.2-0.1-0.2,0L49.7,57
	c0.2-0.1,0.1-0.2-0.1-0.2c-0.6-0.1-0.7-0.1-1.4-0.2c0,0-0.2-0.2-0.2,0.2c0.1,0.9-0.1,1.9-0.6,2.7c-0.1,0.3-0.2,0.3-0.3,0
	c-0.3-1-0.4-2.1-0.4-3.1c0-0.1-0.1-0.2-0.1-0.2c0,0-0.1,0-0.1,0c-0.3,0.1-0.5,0.1-1,0.2c0.2,0.4,0.3,0.8,0.4,1.1
	c-0.2,0.5-0.4,1-0.6,1.6c-0.2,0.3-0.3,0.3-0.4,0c-0.7-2.8-0.4-3.2-0.1-3.3s0.1-0.3,0-0.3c-0.6,0-1.2-0.1-1.8-0.3
	c-0.2-0.1-0.3,0.1-0.1,0.2c0.3,0.2,0.4,0.4,0.4,0.8l-1.3,1c-0.1-0.1-0.2,0-0.2,0l-2.2-1.8c1.3-0.9,3-1.1,4.5-0.6
	C48.3,55.9,49.2,56.3,51.6,56.7L51.6,56.7z M44.9,54.4c-0.4-0.1-0.7-0.2-1-0.3c0.5-0.4,1.1-1.1,1.3-1S44.5,54,44.9,54.4L44.9,54.4z
	 M44.7,52.7c-0.1,0.1-1.8-0.2-2.1-0.2s-0.5,0.1-0.5,0.3c0.1,0.2,0.3,0.3,0.5,0.3c0.7-0.1,1.4-0.2,2.2-0.2c0.1,0.1-1.1,0.7-1.4,1
	c-1.1-0.4-2.3-0.6-3.5-0.7c1.1-0.6,2.3-1.2,3.6-1.6C43.5,52.1,44.8,52.5,44.7,52.7L44.7,52.7z M41.7,54.1c-1.9,0.4-3.6,1.6-5.6,3.9
	C36.9,55.5,37.5,53,41.7,54.1L41.7,54.1z M35.4,58.4L33.7,57l3.4-2.4C36.4,55.8,35.8,57.1,35.4,58.4L35.4,58.4z M35.3,58.7
	c-0.4,1.3-0.7,2.2-1,3.3l0.6-0.5c0.2-0.8,0.5-1.6,0.9-2.3l1.6,1.2v0.1l-3.9,2.8c-0.1,0-0.2,0-0.3,0L29.4,60l4.1-2.9L35.3,58.7z
	 M33.3,63.7c0,0,0.1,0,0.1,0l1.8,1.4c-0.2,0.4-0.1,0.9,0.4,1.1c0.2,0.1,0.4,0.1,0.6,0.1c0.1,0.4,0.1,0.8-0.1,1.2l-2.8,1.9h-0.2
	l-3.7-3v-0.1L33.3,63.7z M33.1,69.6L33.1,69.6l-2.2,1.6c-1.1-0.2-2.4-0.2-3.3-0.4l-2.1-1.7V69l3.6-2.5h0.2L33.1,69.6z M27.3,70.9
	c0,0-2.4-0.3-3.4-0.4l1.3-1h0.2L27.3,70.9z M24.1,70.9c3.5,0.4,7.2,0.8,10.7,1.1c0.1,2.5-0.4,5-1.4,7.3c-0.9,0.2-1.8,0.3-2.7,0.3
	l-0.4-2.1c0.2,0.2,0.5,0.3,0.8,0.4c0.2,1.3,1.6,1.1,1.9,1c-0.3-0.5-0.4-1.1-0.5-1.7c0.4,0.2,0.8,0.3,1.2,0.3
	c-0.2-0.5-0.3-1.1-0.4-1.6c0.2,0.2,0.5,0.2,0.8,0.2c-0.1-1.2,0.2-1.8,0.1-2.9c-0.2-0.5-0.7-0.8-1.3-0.7c-0.3,0.1-0.5,0.3-0.6,0.5
	c0,0.2,0,0.5,0.1,0.7c-0.7,0.6-1.5,1.1-2.4,1.3c-0.1-0.1-0.1-0.3-0.1-0.4l0.5-0.1c-0.1-0.1-0.2-0.3-0.3-0.4c0-1,0.1-1.4-0.9-1.9
	c-0.1-0.1-0.2,0-0.4,0.2c-0.4-0.4-1.1-1.3-1.6-0.4c0.2-0.1,0.3-0.1,0.5-0.1c0.2,0.7,0.4,1.4,0.7,2c-0.1,0.2-0.3,0.4-0.4,0.6h0.4
	c0,0.2-0.1,0.3-0.1,0.4c-0.5,0-2.2-0.5-2.6-1.5c0.2-0.3,0.3-0.3,0.3-0.7c0.1-0.5-0.3-0.9-0.7-1c-0.4-0.1-0.9,0.1-1,0.5
	c0,0.1,0,0.2,0,0.3c0,0.9-0.1,1.8-0.2,2.7c0.3,0,0.7-0.1,0.9-0.4c0,0.8-0.2,1.7-0.6,2.4c0.3,0,0.7,0,1,0c-0.2,0.5-0.4,0.9-0.7,1.3
	c0.8,0.2,1.6-0.1,1.9-0.9c0.4,0,0.7-0.1,0.9-0.4c0,0.8-0.2,1.5-0.6,2.2c-0.9-0.1-1.8-0.3-2.6-0.7C23.6,76.2,23.5,73.5,24.1,70.9z
	 M26.2,79.6l-1.4,0.3c-0.1-0.2-0.2-0.4-0.2-0.7C25,79.3,25.7,79.6,26.2,79.6L26.2,79.6z M26.4,79.8c-0.4,0.3-0.7,0.8-0.9,1.3
	c-0.2-0.2-0.3-0.5-0.4-0.8C25.5,80.1,25.9,80,26.4,79.8L26.4,79.8z M27.6,80.2c0-0.2,0-0.4,0.1-0.7l-0.4-0.1l0.6-1.1
	c0.4,0.6,0.7,1.4,0.7,2.2c-0.3,0-0.5,0.1-0.5,0.3s0.4,0.2,0.5,0.3c0.1,1.2-1.3,0.7-1.6,0.2c-0.2,0.8,0.5,1,1,1
	c-0.2,0.4-0.7,1.2-0.7,1.2c-0.3-0.3-1.2-1.3-1.4-1.6C25.7,79.7,27.4,79.6,27.6,80.2L27.6,80.2z M27.8,84.5c0.4,0.3,0.8,0.6,1.2,0.9
	c0.2-0.1,0.5-0.3,0.7-0.5l2.6,2v0.1l-4.2,3c-0.1,0-0.2,0-0.3,0l-3.9-2.7L27.8,84.5z M28.1,90.2l4.2-3h0.2l1.8,1.5
	c-0.5,1.4-0.8,2.8-0.9,4.2H32l-3.8-2.6L28.1,90.2z M33.2,93.4c-1,1-0.1,2.1,1.2,2.8c0.8,0.5,0.6,1,1.3,1.1h-1c-1.5-1.2-4-3.9-4-3.9
	H33.2z M33.7,97l0.8,0.8l1-0.1c-0.4,0.2-0.6,0.6-0.5,1c-0.2,0-0.3,0.1-0.5,0.1c0-0.5-0.3-1-0.8-1.2C33.7,97.4,33.7,97.2,33.7,97
	L33.7,97z M35.3,99.1c0-0.4-0.1-1.1,0.8-1.2s0.8,0.9,0.8,1.2c0.5-0.1,0.9,0.3,1,0.7c0,0,0,0.1,0,0.1c0,0.5-0.3,1-0.9,1
	c0,0-0.1,0-0.1,0c0,0.3,0.1,1.3-0.7,1.3c-0.9-0.1-0.8-0.9-0.8-1.3c-0.2,0-1.3,0.3-1.2-1C34.3,99.3,34.9,99,35.3,99.1L35.3,99.1z
	 M37.3,101.2c0.3,0,0.6-0.2,0.8-0.4c0.2,0.2,0.6,0.4,0.9,0.4c-0.1,0.5,0.2,1,0.7,1.3h-2.8C37.1,102.2,37.4,102,37.3,101.2
	L37.3,101.2z M39.4,100.8c-0.4-0.1-1-0.1-1-0.8c-0.1-0.9,0.9-0.8,1.1-0.9c0.1-0.4-0.1-1.2,0.8-1.1s0.7,0.9,0.7,1.1c0.4,0,1,0,1,0.7
	c0.2,0.9-0.7,1-1,1c0,0.4,0.1,1.2-0.7,1.3C39.5,102.3,39.4,101.3,39.4,100.8L39.4,100.8z M41.4,101.1c0.3-0.1,0.5-0.1,0.7-0.4
	c0.2,0.3,0.5,0.5,0.9,0.4c0,0.7,0.2,1.2,0.7,1.3h-3.1C41.2,102.2,41.5,101.7,41.4,101.1L41.4,101.1z M43.3,100.8c-0.3,0.1-1,0-1-0.9
	s0.8-0.8,1-0.9c0-0.2-0.2-1,0.7-1s0.8,0.9,0.8,1.2c0.5-0.1,0.9,0.1,1.1,0.6c0,0.1,0,0.2,0,0.2c0,0.8-0.9,0.8-1.1,0.8
	c0,0.5,0,1.3-0.7,1.3C43.3,102.1,43.4,101.2,43.3,100.8L43.3,100.8z M52.1,103l-3.8,2.7h-0.3l-3.3-2.7H52.1z M51.5,100.8
	c-0.4,0-1,0.1-1-0.8s0.8-0.9,1-1c0-0.3,0-1.1,0.8-1s0.7,0.8,0.7,1.2c0.4,0,1,0,1,0.7c0,0.9-0.6,0.9-1,0.9c0,0.3,0.2,1.3-0.7,1.3
	S51.5,101.1,51.5,100.8L51.5,100.8z M53.5,101.1c0.4,0,0.5-0.1,0.7-0.4c0.1,0.3,0.5,0.5,0.8,0.4c0,0,0,0,0,0c0,0.7,0.2,1,0.8,1.2
	l-3,0.1C53.2,102.1,53.5,101.6,53.5,101.1L53.5,101.1z M60.9,102.9l-3.8,2.8c-0.1,0-0.2,0-0.2,0.1l-3.6-2.8L60.9,102.9z M60.3,102.2
	c0.4-0.2,0.6-0.7,0.6-1.1c0.3,0,0.6-0.1,0.8-0.4c0.2,0.3,0.5,0.5,0.8,0.4c0,0.5,0.3,1,0.7,1.2H60.3z M62.8,100.7
	c-0.6-0.1-1-0.2-1-0.9s0.6-0.9,1.1-0.9c0-0.4,0.1-1,0.7-1s0.7,0.7,0.7,1.1c0.4,0,1,0.2,1,0.7s-0.3,0.8-1,0.9c0,0.4,0.2,1.3-0.7,1.3
	C62.8,102,62.8,101,62.8,100.7z M64.7,101c0.3,0,0.7-0.1,0.8-0.4c0.2,0.3,0.5,0.6,0.9,0.5c0,0.5,0.3,0.9,0.7,1.2h-2.9
	C64.6,101.9,64.8,101.4,64.7,101z M68.1,92.8l1.4-1c0.1,0.1,0.1,0.1,0.2,0c0,0,0,0,0,0l1.2,1H68.1z M69.5,91.3c0,0-1.9-1.6-2.1-1.7
	c0.6,0.4,1.3,0,1.2-0.4c-0.2-0.9-0.4-1.8-0.7-2.7l1.6-1.1h0.2l3.9,3v0.1l-3.9,2.8C69.7,91.3,69.6,91.3,69.5,91.3L69.5,91.3z
	 M69.9,85.2L69.9,85.2l1.5-1.1c0.8,0.9,1.8,1.7,2.8,2.4c0.7-0.7,2.1-2.2,2.1-2.2l1.6,1.3v0.1l-3.8,2.7c-0.1-0.1-0.2-0.2-0.3-0.1
	L69.9,85.2z M74.8,85.2c-0.4-0.4,0-1.2,0.3-1.6c-0.4-0.5-0.6-1.3-0.4-1.9c0.4,0.1,0.6,0.5,1.2,0.3c0.3-0.1,0.6-0.2,0.9-0.3
	c0-0.2-0.1-0.4-0.2-0.5c1.8-1.1,1-2.9,0.5-3.6c0.9-0.6,1.6-1.5,1.8-2.6c0,0,0.3,0,0.4-0.7C79.5,78.3,77.9,82.4,74.8,85.2L74.8,85.2z
	 M78.4,74c0-0.3,0.2-0.5,0.3-0.5S79,73.7,79,74c0,0.2-0.1,0.4-0.3,0.5C78.6,74.5,78.5,74.3,78.4,74L78.4,74z M79.2,73.8
	c-0.1-0.3-0.2-0.6-0.5-0.8c-0.6,0.4-0.8,1.2-0.4,1.9c0,0,0,0,0,0c0,0.5-0.2,1.2-1.5,2.3c-0.3-0.6-0.3-1.2-0.2-1.8
	c0.7-0.4,0.4-1.3,0.1-1.7c-0.4,0.1-0.6,0.5-0.7,0.9c0-0.8-0.3-1.6-0.6-2.3l3.7-0.1C79.3,72.6,79.3,73.2,79.2,73.8L79.2,73.8z
	 M72.2,71.8l1.6-1.2h0.3l1.5,1.1L72.2,71.8z M73.7,70.1l-3.8-2.8v-0.1l4.2-3h0.2l3.8,2.9l-4,3C74.1,70.1,73.9,70,73.7,70.1
	L73.7,70.1z M76.1,62.4l-1.8,1.3c0-0.1-0.1-0.1-0.2,0c0,0,0,0,0,0l-3.6-2.7V61l2.9-2.1C74.3,60.1,75.2,61.2,76.1,62.4z M72.4,58
	c0.2,0.3,0.5,0.5,0.7,0.8l-2.8,2c-0.1,0-0.2-0.1-0.2,0l-3.5-2.5v-0.1l3.4-2.3C70.8,56.5,71.6,57.3,72.4,58L72.4,58z M69.8,55.7
	L66.4,58h-0.2l-1.8-1.3c0.2-1,0.1-1.9-0.2-2.8l1.3-1C67.1,53.7,68.5,54.7,69.8,55.7L69.8,55.7z M65.4,52.8l-1.3,0.8
	c-0.9-1.7-2.7-2.7-4.6-2.7c-2.4,0.1-4.3,2-4.3,4.4c-0.1,1.7,0.7,3.4,2.2,4.3c-0.1,0.6-0.3,1.1-0.7,1.5c-0.6,0.6-1.4,1-2.2,1.4
	c0-0.3,0-0.6,0.2-0.9c0.5-0.6,1.5-1.3,0.9-2.1c0.2-0.3,0.2-0.5-0.1-0.7c0.2-0.3,0.2-0.8-0.2-1c0.2-0.7-0.3-0.8-0.5-0.7l0.1-0.5
	c0.1,0,0.3-0.1,0.3-0.2c0,0,0,0,0-0.1c0-0.1-0.1-0.3-0.2-0.3c0,0,0,0-0.1,0l0.2-2.5c0.1,0,0.3-0.1,0.3-0.2c0,0,0,0,0-0.1
	c0-0.2-0.1-0.3-0.3-0.3l0.1-2.2c0.1,0,0.3-0.1,0.3-0.2c0,0,0,0,0-0.1c0-0.1-0.1-0.3-0.2-0.3c0,0,0,0-0.1,0c0-0.2,0-0.3,0.1-0.5
	C58.8,50.1,62.2,51.1,65.4,52.8L65.4,52.8z M55.2,44.2l-0.3,4.4l-0.4-2.5L55.2,44.2z M30.8,58.1c5.5-5.6,13-8.7,20.8-8.7
	c1,0,3,0.2,3,0.2s-0.1,0.4-0.1,0.5c-6.9-0.3-11.3,0.3-17.8,4.5l-7.5,5.2C29.7,59.2,30.3,58.7,30.8,58.1z M29,60l4.2,3.3L29.4,66
	h-0.2l-2.9-2.2C27.1,62.5,28,61.2,29,60z M26.3,63.9l2.8,2.3v0.1l-3.6,2.6c-0.1-0.1-0.1-0.1-0.2-0.1l-1-0.8
	C24.8,66.6,25.5,65.2,26.3,63.9z M24.2,68.3l0.9,0.7v0.2L23.8,70c-0.8,3.3-0.6,6.8,0.6,10l-2.1,1.3C22,76.9,22.6,72.5,24.2,68.3
	L24.2,68.3z M22.4,81.7l2.1-1.4c0.8,1.5,1.8,2.9,3.1,4l-4.1,2.9C22.9,85.4,22.6,83.6,22.4,81.7L22.4,81.7z M23.4,87.2l4.2,2.9v0.1
	l-2.3,1.7C24.5,90.4,23.9,88.9,23.4,87.2L23.4,87.2z M25.4,92.1l2.4-1.7h0.3l3.5,2.5h-1.5v2.3l-1.9,1.4
	C27.1,95.2,26.2,93.7,25.4,92.1L25.4,92.1z M28.3,96.7l1.7-1.3l0.1,3.5C29.5,98.2,28.9,97.4,28.3,96.7L28.3,96.7z M32.4,95.7
	c-0.4,0-0.7,0.2-0.9,0.6c-0.4-0.2-0.7-0.2-1,0.1v-2.7L32.4,95.7z M30.9,99.2l-0.3-0.4l-0.1-0.7c0.1,0.2,0.3,0.3,0.5,0.3
	C30.9,98.7,30.9,99,30.9,99.2L30.9,99.2z M31.4,98.2c-0.3-0.2-1.2-0.5-1-1.2c0.3-1,1.1-0.4,1.3-0.3c0.3-0.8,0.8-0.8,1.1-0.6
	c0.5,0.4,0.6,1,0.4,1.6c0.4,0.2,1.2,0.5,0.8,1.3c-0.4,0.8-1.2,0.3-1.3,0.2c-0.1,0.3-0.2,1-1.2,0.7c-0.5-0.3-0.2-1.3-0.1-1.6
	L31.4,98.2z M32.2,100.3c0.4-0.1,0.5-0.2,0.7-0.6c0.3,0.2,0.6,0.2,0.9,0.1c0,0.6,0.2,1.5,1.3,1.3c-0.1,0.8,0.4,1.1,0.7,1.1l-1,0.1
	c-0.5-0.3-2.4-1.9-2.4-1.9L32.2,100.3z M35.1,103h8.2l-3.8,2.5C37.9,104.9,36.4,104,35.1,103z M39.7,105.7l4.2-2.9l3.9,3.1
	c-0.1,0,0,0.1,0,0.1l-2.3,1.6C43.5,107.1,41.6,106.5,39.7,105.7z M45.8,107.7l2.1-1.5h0.3l2.5,2C49.1,108.2,47.4,108,45.8,107.7z
	 M51.1,108.2l-2.7-2.2v-0.1l4.4-3.1l4,3.1v0.1l-3,2.2C52.8,108.3,51.9,108.3,51.1,108.2z M54.2,108.2l2.7-2h0.2l1.6,1.3
	C57.2,107.8,55.7,108.1,54.2,108.2z M58.9,107.4l-1.7-1.4v-0.1l4.2-3l3,2.4C62.6,106.2,60.8,106.9,58.9,107.4z M64.6,105.2l-3-2.4
	h6.8C67.2,103.7,66,104.5,64.6,105.2z M68.8,102.2h-0.7c0.4-0.3,0.7-0.8,0.7-1.3c0.5,0,1-0.5,1-1c0.2,0.2,0.7,0.1,0.8,0
	c0.2,0.2,0.3,0.3,0.5,0.4C70.4,101,69.6,101.6,68.8,102.2L68.8,102.2z M71.7,100c-0.7,0.3-0.9-0.4-1-0.6c-0.3,0.3-1,0.4-1.1-0.4
	c-0.1-0.8,0.2-0.9,0.5-1.1c-0.1-0.5-0.2-1.3,0.4-1.6c0.5-0.4,0.9,0.3,1,0.6c0.5-0.5,1.3-0.4,1.3,0.2c0,0.5-0.3,1.1-0.7,1.3
	C72.1,98.7,72.3,99.8,71.7,100L71.7,100z M72.4,99.1c0-0.2,0-0.4-0.1-0.7c0.2-0.1,0.3-0.3,0.4-0.5v0.7L72.4,99.1z M73.2,92.7h-1.9
	l-1.4-1.1v-0.1l4-2.8h0.2l3.7,2.9l-4.5,3.3L73.2,92.7z M73.4,98.4l-0.2-3.5l1.8,1.5C74.6,97.2,74.1,97.8,73.4,98.4L73.4,98.4z
	 M75.2,96.2l-1.6-1.3l4.3-3.2C77.2,93.3,76.3,94.8,75.2,96.2L75.2,96.2z M78.1,91.6l-3.8-3v-0.1l3.8-2.7h0.2l1.6,1.2
	C79.4,88.5,78.8,90.1,78.1,91.6z M79.9,86.7l-1.5-1.1v-0.1l2.2-1.4C80.4,85.1,80.3,85.7,79.9,86.7L79.9,86.7z M80.6,83.7l-2.2,1.6
	h-0.3L76.4,84c1-1.2,1.8-2.7,2.4-4.2l2.1,1.6C80.9,82.3,80.8,83,80.6,83.7L80.6,83.7z M79,79.7c0.6-2,0.9-3,0.7-8.1
	c-0.6,0-2.8,0.1-3.7,0.1c0,0-1.6-1.1-1.7-1.2c0,0,0-0.1,0-0.2l4.4-3.2c1.6,3.7,2.5,7.6,2.5,11.7c0,1,0,1.6-0.1,2.6L79,79.7z"/>
<path class="st3" d="M36.2,100.5c0.3,0,0.5-0.2,0.5-0.5c0-0.3-0.2-0.5-0.5-0.5s-0.5,0.2-0.5,0.5l0,0
	C35.6,100.3,35.9,100.5,36.2,100.5C36.2,100.5,36.2,100.5,36.2,100.5"/>
<path class="st3" d="M59.7,99.4c-0.3,0-0.5,0.2-0.5,0.5c0,0,0,0,0,0c0,0.3,0.2,0.5,0.5,0.5c0.3,0,0.5-0.2,0.5-0.5c0,0,0,0,0,0
	C60.2,99.7,60,99.4,59.7,99.4C59.7,99.4,59.7,99.4,59.7,99.4"/>
<path class="st3" d="M56,100.4c0.3,0,0.5-0.2,0.5-0.5c0,0,0,0,0,0c-0.1-0.3-0.4-0.4-0.6-0.4c-0.2,0-0.3,0.2-0.4,0.4
	C55.5,100.2,55.7,100.4,56,100.4C56,100.5,56,100.5,56,100.4"/>
<path class="st3" d="M52.2,99.5c-0.3,0-0.5,0.2-0.5,0.5c0,0.3,0.2,0.5,0.5,0.5c0.3,0,0.5-0.2,0.5-0.5l0,0
	C52.7,99.7,52.5,99.5,52.2,99.5C52.2,99.5,52.2,99.5,52.2,99.5"/>
<path class="st3" d="M48.1,100.5c0.3-0.1,0.4-0.4,0.4-0.6c0-0.2-0.2-0.3-0.4-0.4c-0.3,0.1-0.4,0.4-0.4,0.6
	C47.8,100.3,47.9,100.5,48.1,100.5"/>
<path class="st3" d="M44.7,100c0-0.3-0.2-0.5-0.5-0.5c-0.3,0-0.5,0.2-0.5,0.5s0.2,0.5,0.5,0.5c0,0,0,0,0,0
	C44.5,100.5,44.7,100.3,44.7,100C44.7,100,44.7,100,44.7,100"/>
<path class="st3" d="M40.8,100.1c0-0.3-0.3-0.5-0.6-0.5c-0.3-0.1-0.6,0.1-0.6,0.4c-0.1,0.3,0.1,0.6,0.4,0.6c0.1,0,0.2,0,0.3,0
	C40.5,100.6,40.7,100.3,40.8,100.1"/>
<path class="st3" d="M71.1,97.6c-0.2,0-0.4,0.3-0.4,0.5s0.3,0.6,0.5,0.5c0.2,0,0.5-0.2,0.5-0.4c0,0,0,0,0-0.1
	C71.6,97.7,71.3,97.5,71.1,97.6"/>
<path class="st3" d="M32.9,98.2c0-0.3-0.2-0.5-0.5-0.5C32,97.6,32,98,32,98.2c0,0.3,0.2,0.5,0.4,0.5C32.7,98.7,32.9,98.4,32.9,98.2"
	/>
<path class="st3" d="M67.5,99.3c-0.3,0-0.5,0.2-0.5,0.5c0,0,0,0,0,0c-0.1,0.3,0.1,0.6,0.4,0.6c0.3,0.1,0.6-0.1,0.6-0.4
	c0-0.1,0-0.2,0-0.3C68,99.6,67.8,99.3,67.5,99.3C67.5,99.3,67.5,99.3,67.5,99.3"/>
<path class="st3" d="M64.1,99.9c0.1-0.3-0.1-0.6-0.4-0.6s-0.6,0.1-0.6,0.4c0,0.1,0,0.2,0,0.3c-0.1,0.3,0.1,0.6,0.4,0.6
	s0.6-0.1,0.6-0.4C64.1,100.1,64.1,100,64.1,99.9"/>
<path class="st3" d="M56.2,66.5c0,0.1-0.1,0.2-0.2,0.2c-0.2,0-0.3-0.1-0.3-0.2c0-0.2,0.1-0.3,0.3-0.3C56.1,66.3,56.2,66.4,56.2,66.5
	"/>
<path class="st3" d="M55.2,63.6c0,0.2-0.1,0.3-0.3,0.3c-0.2,0-0.2-0.2-0.2-0.3s0.1-0.2,0.2-0.2S55.2,63.4,55.2,63.6"/>
<path class="st3" d="M56.1,64.9c0,0.1-0.2,0.2-0.3,0.2c-0.1,0-0.2-0.1-0.2-0.2c0,0,0,0,0-0.1c0-0.2,0.1-0.3,0.2-0.3
	C55.9,64.6,56.1,64.7,56.1,64.9"/>
<path class="st3" d="M40.3,76.7c0,0.2-0.1,0.2-0.2,0.2c-0.1,0-0.2-0.1-0.2-0.2c0,0,0,0,0-0.1c0-0.2,0.1-0.3,0.2-0.3
	C40.2,76.4,40.3,76.5,40.3,76.7"/>
<path class="st3" d="M39.7,77.8c0,0.1-0.1,0.2-0.2,0.2c-0.1,0-0.2-0.1-0.3-0.2c0-0.2,0.1-0.3,0.3-0.3C39.7,77.5,39.7,77.6,39.7,77.8
	"/>
<path class="st3" d="M40.7,75.4c0,0.2-0.1,0.3-0.2,0.3c-0.2,0-0.3-0.1-0.3-0.3c0-0.2,0.2-0.2,0.3-0.2C40.6,75.2,40.7,75.2,40.7,75.4
	C40.7,75.4,40.7,75.4,40.7,75.4"/>
<path class="st3" d="M41.6,86.1c0,0.1-0.1,0.2-0.3,0.2c-0.1,0-0.3-0.1-0.3-0.2c0-0.2,0.1-0.3,0.3-0.3C41.5,85.8,41.6,85.9,41.6,86.1
	"/>
<path class="st3" d="M39.7,85.9c0,0.2-0.1,0.3-0.3,0.3c-0.2,0-0.2-0.1-0.2-0.3s0.1-0.2,0.2-0.2C39.6,85.7,39.7,85.7,39.7,85.9"/>
<path class="st3" d="M43.4,86.1c0,0.1-0.2,0.2-0.3,0.2c-0.2,0-0.3-0.1-0.3-0.2c0-0.2,0.1-0.3,0.2-0.3c0.2,0,0.3,0.1,0.3,0.2
	C43.4,86,43.4,86,43.4,86.1"/>
<path class="st3" d="M39.1,88.2c0,0.2-0.1,0.3-0.3,0.3c-0.2,0-0.3-0.1-0.3-0.3c0-0.2,0.1-0.3,0.3-0.3c0,0,0,0,0,0
	C38.9,87.9,39.1,88.1,39.1,88.2"/>
<path class="st3" d="M44.8,88.2c0,0.2-0.1,0.3-0.3,0.3c-0.2,0-0.3-0.1-0.3-0.2c0-0.2,0.1-0.3,0.2-0.3c0,0,0.1,0,0.1,0
	C44.6,87.9,44.8,88.1,44.8,88.2"/>
<path class="st3" d="M42.8,88.4c0,0.2-0.1,0.2-0.3,0.2s-0.3-0.1-0.3-0.2c0-0.1,0.1-0.3,0.2-0.3c0,0,0,0,0.1,0
	C42.6,88.1,42.8,88.2,42.8,88.4C42.8,88.3,42.8,88.3,42.8,88.4"/>
<path class="st3" d="M40.9,88.4c0,0.2-0.1,0.3-0.3,0.3c-0.2,0-0.3-0.2-0.2-0.3c0-0.1,0.1-0.2,0.2-0.2C40.7,88.2,40.8,88.3,40.9,88.4
	"/>
<path class="st3" d="M38.1,85.6c0,0.2-0.1,0.3-0.3,0.3c-0.2,0-0.3-0.1-0.3-0.3c0-0.2,0.1-0.3,0.3-0.3c0,0,0,0,0,0
	C37.9,85.3,38.1,85.4,38.1,85.6"/>
<path class="st3" d="M59.1,79c0,0.2-0.1,0.3-0.3,0.3c-0.2,0-0.3-0.1-0.3-0.2c0-0.2,0.1-0.3,0.2-0.3c0,0,0.1,0,0.1,0
	C59,78.7,59.1,78.8,59.1,79"/>
<path class="st3" d="M57.2,78.4c0,0.2-0.1,0.3-0.3,0.3c0,0,0,0,0,0c-0.2,0-0.2-0.2-0.2-0.3s0.1-0.3,0.2-0.3
	C57.1,78.1,57.2,78.2,57.2,78.4C57.2,78.3,57.2,78.4,57.2,78.4"/>
<path class="st3" d="M61.1,79c0,0.2-0.1,0.3-0.3,0.3c-0.1,0-0.2-0.1-0.2-0.3s0.1-0.3,0.2-0.3C60.9,78.7,61.1,78.9,61.1,79"/>
<path class="st3" d="M60.2,76.3c0,0.2-0.2,0.3-0.3,0.2c-0.1,0-0.2-0.1-0.2-0.2c0-0.2,0.1-0.3,0.2-0.3c0.2,0,0.3,0.1,0.3,0.2
	C60.2,76.2,60.2,76.3,60.2,76.3"/>
<path class="st3" d="M58.5,76.2c0,0.2-0.1,0.3-0.3,0.3c-0.2,0-0.3-0.1-0.3-0.3c0-0.2,0.2-0.2,0.3-0.2S58.5,76,58.5,76.2"/>
<path class="st3" d="M56.8,75.6c0,0.1-0.1,0.2-0.2,0.2c0,0,0,0,0,0c-0.2,0-0.3-0.1-0.3-0.2c0-0.2,0.1-0.3,0.3-0.3
	C56.8,75.3,56.8,75.5,56.8,75.6"/>
<path class="st3" d="M55.5,77.6c0,0.2-0.1,0.2-0.3,0.2c-0.1,0-0.2-0.1-0.2-0.2c0,0,0,0,0-0.1c0-0.2,0.1-0.3,0.2-0.3
	S55.5,77.4,55.5,77.6"/>
<path class="st3" d="M61.8,76.3c0,0.1-0.1,0.3-0.2,0.3c0,0,0,0-0.1,0c-0.1,0-0.2-0.1-0.2-0.3s0.1-0.3,0.2-0.3
	C61.7,76,61.8,76.1,61.8,76.3C61.8,76.3,61.8,76.3,61.8,76.3"/>
<path class="st3" d="M38.3,83.1c0,0.2-0.1,0.3-0.3,0.3c-0.2,0-0.3-0.1-0.3-0.3s0.1-0.3,0.3-0.3C38.1,82.8,38.3,82.9,38.3,83.1
	L38.3,83.1"/>
<path class="st3" d="M39.3,83.6c0,0.2-0.1,0.3-0.2,0.3c-0.2,0-0.3-0.1-0.3-0.2c0,0,0-0.1,0-0.1c0-0.2,0.1-0.3,0.2-0.3
	c0.2,0,0.3,0.1,0.3,0.2C39.3,83.5,39.3,83.5,39.3,83.6"/>
<path class="st3" d="M40.5,83.9c0,0.2-0.1,0.3-0.3,0.3s-0.3-0.1-0.3-0.3s0.1-0.3,0.3-0.3S40.5,83.7,40.5,83.9L40.5,83.9"/>
<path class="st3" d="M41.7,84.1c0,0.2-0.1,0.3-0.3,0.3c-0.2,0-0.3-0.1-0.3-0.3c0-0.2,0.1-0.3,0.3-0.3C41.6,83.8,41.7,83.9,41.7,84.1
	"/>
<path class="st3" d="M43.1,84.1c0,0.2-0.1,0.3-0.4,0.3c-0.1,0-0.3-0.1-0.3-0.2c0,0,0,0,0-0.1c0-0.2,0.1-0.3,0.3-0.3
	C42.9,83.8,43,83.9,43.1,84.1"/>
<path class="st3" d="M44.3,84c0,0.2-0.1,0.3-0.3,0.4c-0.2,0-0.3-0.2-0.3-0.4c0-0.1,0.1-0.3,0.2-0.3c0,0,0,0,0.1,0
	C44.2,83.7,44.3,83.8,44.3,84"/>
<path class="st3" d="M58.3,73.9c0,0.2-0.1,0.3-0.3,0.3c-0.2,0-0.3-0.1-0.3-0.3c0-0.2,0.1-0.3,0.3-0.3C58.2,73.6,58.3,73.7,58.3,73.9
	"/>
<path class="st3" d="M57.2,73.3c0,0.2-0.1,0.3-0.3,0.3c-0.2,0-0.3-0.1-0.4-0.3c0-0.2,0.2-0.3,0.4-0.3C57.1,73,57.2,73.1,57.2,73.3
	C57.2,73.3,57.2,73.3,57.2,73.3"/>
<path class="st3" d="M56.3,72.5c0,0.2-0.1,0.3-0.3,0.3c-0.2,0-0.3-0.1-0.3-0.3c0,0,0,0,0,0c0-0.2,0.1-0.3,0.3-0.3
	C56.1,72.2,56.3,72.4,56.3,72.5C56.3,72.5,56.3,72.5,56.3,72.5"/>
<path class="st3" d="M59.6,74.2c0,0.2-0.1,0.3-0.3,0.4c-0.2,0-0.3-0.2-0.3-0.4c0,0,0,0,0,0c0-0.2,0.1-0.3,0.3-0.3
	C59.5,73.9,59.6,74,59.6,74.2"/>
<path class="st3" d="M60.9,74.2c0,0.2-0.2,0.3-0.4,0.3c-0.2,0-0.3-0.1-0.3-0.3c0-0.2,0.1-0.3,0.3-0.3C60.7,73.8,60.9,74,60.9,74.2"
	/>
<path class="st3" d="M62.5,73.7c0,0.2-0.1,0.3-0.2,0.4s-0.3-0.1-0.4-0.2c0-0.1,0-0.1,0-0.2c0-0.2,0.1-0.3,0.3-0.3
	C62.3,73.4,62.5,73.5,62.5,73.7"/>
<path class="st3" d="M48.7,89.4c-0.3-0.1-0.6,0.1-0.6,0.4c0,0,0,0,0,0.1c0,0.3,0.2,0.6,0.5,0.6c0,0,0.1,0,0.1,0
	c0.3,0,0.5-0.2,0.5-0.5c0,0,0,0,0-0.1C49.2,89.6,49,89.4,48.7,89.4C48.7,89.4,48.7,89.4,48.7,89.4 M48.7,90.3
	c-0.2,0-0.4-0.1-0.4-0.3c0,0,0,0,0,0c0-0.2,0.2-0.3,0.4-0.3c0.2,0,0.3,0.1,0.3,0.3C49,90.1,48.9,90.3,48.7,90.3
	C48.7,90.3,48.7,90.3,48.7,90.3L48.7,90.3z"/>
<path class="st3" d="M27.8,92.8c-0.3,0-0.6,0.3-0.6,0.6c0,0.3,0.2,0.6,0.6,0.6c0,0,0,0,0,0c0.3,0,0.6-0.2,0.6-0.5c0,0,0-0.1,0-0.1
	C28.4,93.1,28.2,92.8,27.8,92.8C27.8,92.8,27.8,92.8,27.8,92.8 M27.8,93.8c-0.2,0-0.3-0.2-0.3-0.4c0-0.2,0.1-0.3,0.3-0.3
	c0.2,0,0.3,0.1,0.4,0.3C28.2,93.6,28,93.8,27.8,93.8C27.8,93.8,27.8,93.8,27.8,93.8L27.8,93.8z"/>
<path class="st3" d="M28.1,86.5c-0.3,0-0.6,0.2-0.6,0.5c0,0,0,0.1,0,0.1c0,0.3,0.2,0.6,0.6,0.6c0,0,0,0,0,0c0.3,0,0.6-0.3,0.6-0.6
	C28.7,86.8,28.4,86.5,28.1,86.5C28.1,86.5,28.1,86.5,28.1,86.5 M28.1,87.4c-0.2,0-0.3-0.1-0.4-0.3c0-0.2,0.1-0.4,0.3-0.4
	c0,0,0,0,0,0c0.2,0,0.3,0.2,0.3,0.4C28.4,87.3,28.2,87.4,28.1,87.4z"/>
<path class="st3" d="M32.6,83.3c-0.3,0-0.6,0.3-0.6,0.6c0,0,0,0,0,0c0,0.3,0.3,0.6,0.6,0.6c0.3,0,0.6-0.3,0.6-0.6c0,0,0,0,0,0
	c0-0.3-0.2-0.6-0.5-0.6C32.7,83.3,32.7,83.3,32.6,83.3 M32.6,84.2c-0.2,0-0.3-0.1-0.3-0.3c0-0.2,0.1-0.3,0.3-0.4
	c0.2,0,0.4,0.1,0.4,0.3c0,0,0,0,0,0C33,84,32.8,84.2,32.6,84.2z"/>
<path class="st3" d="M32.3,89.6c-0.3,0-0.6,0.2-0.6,0.6c0,0,0,0,0,0c0,0.3,0.3,0.6,0.6,0.6c0.3,0,0.6-0.2,0.6-0.6c0,0,0,0,0,0
	c0-0.3-0.2-0.6-0.5-0.6C32.4,89.6,32.4,89.6,32.3,89.6 M32.3,90.4c-0.2,0-0.3-0.1-0.3-0.3c0-0.2,0.1-0.3,0.3-0.4
	c0.2,0,0.4,0.1,0.4,0.3c0,0,0,0,0,0C32.7,90.3,32.5,90.5,32.3,90.4z"/>
<path class="st3" d="M43.7,105.3c-0.3,0-0.6,0.3-0.6,0.6c0,0,0,0,0,0c0,0.3,0.3,0.6,0.7,0.5c0.3,0,0.5-0.2,0.5-0.5
	C44.3,105.6,44.1,105.3,43.7,105.3C43.7,105.3,43.7,105.3,43.7,105.3 M43.7,106.2c-0.2,0-0.3-0.1-0.3-0.3c0-0.2,0.1-0.3,0.2-0.3
	c0.2,0,0.3,0.1,0.3,0.2c0,0,0,0.1,0,0.1C44,106.1,43.9,106.2,43.7,106.2z"/>
<path class="st3" d="M61.2,105.3c-0.3,0-0.6,0.3-0.5,0.7c0,0.3,0.2,0.5,0.5,0.5c0.3,0,0.6-0.3,0.5-0.7
	C61.7,105.5,61.5,105.3,61.2,105.3 M61.3,106.3c-0.2,0-0.4-0.1-0.4-0.3c0,0,0,0,0,0c0-0.2,0.2-0.3,0.4-0.3c0,0,0,0,0,0
	c0.2,0,0.3,0.1,0.3,0.3C61.6,106.1,61.5,106.2,61.3,106.3L61.3,106.3z"/>
<path class="st3" d="M52.5,105.3c-0.3,0-0.6,0.3-0.6,0.6c0,0,0,0,0,0c0.1,0.3,0.4,0.6,0.7,0.5c0.3,0,0.5-0.3,0.5-0.5
	C53.1,105.6,52.8,105.3,52.5,105.3C52.5,105.3,52.5,105.3,52.5,105.3 M52.5,106.2c-0.2,0-0.3-0.1-0.3-0.3c0-0.2,0.1-0.3,0.3-0.4
	c0,0,0,0,0,0c0.2,0,0.4,0.1,0.4,0.3c0,0,0,0,0,0C52.9,106.1,52.7,106.2,52.5,106.2C52.5,106.2,52.5,106.2,52.5,106.2L52.5,106.2z"/>
<path class="st3" d="M66.3,54.8c-0.3,0-0.6,0.2-0.6,0.6c0,0,0,0,0,0c0,0.3,0.3,0.6,0.6,0.6c0.3,0,0.6-0.3,0.6-0.6
	C66.9,55.1,66.7,54.8,66.3,54.8C66.3,54.8,66.3,54.8,66.3,54.8 M66.3,55.7c-0.2,0-0.3-0.1-0.3-0.3c0-0.2,0.1-0.3,0.3-0.4
	c0.2,0,0.4,0.1,0.4,0.3c0,0,0,0,0,0C66.7,55.6,66.5,55.7,66.3,55.7C66.3,55.7,66.3,55.7,66.3,55.7z"/>
<path class="st3" d="M70.2,57.6c-0.3,0-0.6,0.3-0.5,0.7c0,0.3,0.2,0.5,0.5,0.5c0.3,0,0.6-0.3,0.5-0.7C70.7,57.9,70.5,57.7,70.2,57.6
	 M70.2,58.6c-0.2,0-0.4-0.1-0.4-0.3c0,0,0,0,0,0c0-0.2,0.2-0.3,0.4-0.3c0.2,0,0.3,0.1,0.3,0.3C70.5,58.4,70.4,58.6,70.2,58.6
	L70.2,58.6z"/>
<path class="st3" d="M70,63.5c-0.3,0-0.6,0.3-0.5,0.7c0,0.3,0.2,0.5,0.5,0.5c0.3,0,0.6-0.3,0.5-0.7C70.4,63.7,70.2,63.5,70,63.5
	 M70,64.4c-0.2,0-0.3-0.1-0.4-0.3c0-0.2,0.1-0.4,0.3-0.4c0,0,0,0,0.1,0c0.2,0,0.3,0.2,0.3,0.4C70.2,64.2,70.1,64.4,70,64.4z"/>
<path class="st3" d="M74.1,60.5c-0.3,0-0.6,0.3-0.6,0.6c0,0.3,0.3,0.6,0.6,0.6c0,0,0,0,0,0c0.3,0,0.6-0.2,0.6-0.5c0,0,0-0.1,0-0.1
	C74.7,60.8,74.4,60.5,74.1,60.5C74.1,60.5,74.1,60.5,74.1,60.5 M74.1,61.5c-0.2,0-0.3-0.2-0.3-0.4c0-0.2,0.1-0.3,0.3-0.3
	c0.2,0,0.3,0.1,0.4,0.3c0,0,0,0,0,0C74.4,61.3,74.3,61.5,74.1,61.5C74.1,61.5,74.1,61.5,74.1,61.5L74.1,61.5z"/>
<path class="st3" d="M78.4,69.7c-0.3,0-0.6,0.3-0.5,0.7c0,0.3,0.2,0.5,0.5,0.5c0.3,0,0.6-0.2,0.7-0.5c0-0.3-0.2-0.6-0.5-0.7
	C78.5,69.7,78.5,69.7,78.4,69.7 M78.4,70.6c-0.2,0-0.3-0.1-0.4-0.3c0,0,0,0,0,0c0-0.2,0.2-0.3,0.4-0.3c0.2,0,0.3,0.1,0.3,0.3
	C78.7,70.5,78.6,70.6,78.4,70.6z"/>
<path class="st3" d="M74.1,66.7c-0.3,0-0.6,0.2-0.6,0.5c0,0,0,0.1,0,0.1c0,0.3,0.2,0.5,0.5,0.5c0,0,0,0,0.1,0c0.3,0,0.6-0.2,0.6-0.5
	C74.7,66.9,74.4,66.7,74.1,66.7C74.1,66.7,74.1,66.7,74.1,66.7 M74.1,67.6c-0.2,0-0.3-0.1-0.4-0.3c0,0,0,0,0,0
	c0-0.2,0.1-0.4,0.3-0.4c0,0,0,0,0,0c0.2,0,0.3,0.2,0.3,0.4c0,0,0,0,0,0C74.4,67.4,74.2,67.5,74.1,67.6z"/>
<path class="st3" d="M69.7,69.6c-0.3,0-0.6,0.3-0.6,0.6c0,0.3,0.2,0.6,0.6,0.6c0,0,0,0,0,0c0.3,0,0.6-0.2,0.6-0.5c0,0,0-0.1,0-0.1
	C70.3,69.8,70,69.6,69.7,69.6C69.7,69.6,69.7,69.6,69.7,69.6 M69.7,70.6c-0.2,0-0.3-0.2-0.3-0.4c0,0,0,0,0,0c0-0.2,0.1-0.3,0.3-0.3
	c0.2,0,0.3,0.1,0.4,0.3C70,70.4,69.9,70.5,69.7,70.6C69.7,70.5,69.7,70.5,69.7,70.6L69.7,70.6z"/>
<path class="st3" d="M78.6,81.9c-0.3,0-0.6,0.2-0.6,0.6c0,0,0,0,0,0c0,0.3,0.2,0.6,0.5,0.6c0,0,0.1,0,0.1,0c0.3,0,0.5-0.2,0.5-0.5
	c0,0,0,0,0-0.1C79.1,82.2,78.9,81.9,78.6,81.9 M78.6,82.9c-0.2,0-0.4-0.1-0.4-0.3c0,0,0,0,0,0c0-0.2,0.2-0.3,0.4-0.3
	c0.2,0,0.3,0.1,0.3,0.3C78.9,82.7,78.7,82.9,78.6,82.9z"/>
<path class="st3" d="M73.8,91.1c-0.3,0-0.6,0.2-0.6,0.6c0,0,0,0,0,0c0,0.3,0.3,0.6,0.6,0.6c0.3,0,0.6-0.3,0.6-0.6c0,0,0,0,0,0
	c0-0.3-0.2-0.6-0.5-0.6C73.9,91.1,73.8,91.1,73.8,91.1 M73.8,92c-0.2,0-0.3-0.1-0.3-0.3c0-0.2,0.1-0.3,0.3-0.4
	c0.2,0,0.4,0.1,0.4,0.3c0,0,0,0,0,0C74.2,91.9,74,92,73.8,92z"/>
<path class="st3" d="M69.7,87.7c-0.3,0-0.6,0.2-0.7,0.5c0,0.3,0.2,0.6,0.5,0.7c0.1,0,0.1,0,0.2,0c0.3,0,0.6-0.3,0.5-0.7
	C70.2,87.9,70,87.7,69.7,87.7 M69.7,88.6c-0.2,0-0.4-0.1-0.4-0.3c0-0.2,0.2-0.3,0.4-0.3c0,0,0,0,0,0c0.2,0,0.3,0.1,0.3,0.3
	C70,88.5,69.9,88.6,69.7,88.6z"/>
<path class="st3" d="M45.6,69.1c-0.3,0-0.6,0.3-0.5,0.7c0,0.3,0.2,0.5,0.5,0.5c0.3,0,0.6-0.3,0.5-0.7C46.1,69.4,45.9,69.1,45.6,69.1
	 M45.6,70c-0.2,0-0.3-0.1-0.3-0.3c0-0.2,0.1-0.3,0.3-0.4c0.2,0,0.4,0.1,0.4,0.3c0,0,0,0,0,0C45.9,69.9,45.8,70,45.6,70z"/>
<path class="st3" d="M29.2,68.6c-0.3,0-0.6,0.3-0.6,0.6c0,0,0,0,0,0c0,0.3,0.2,0.6,0.5,0.6c0,0,0.1,0,0.1,0c0.3,0,0.5-0.2,0.5-0.5
	c0,0,0,0,0-0.1C29.8,68.9,29.5,68.6,29.2,68.6 M29.2,69.6c-0.2,0-0.4-0.1-0.4-0.3c0,0,0,0,0,0c0-0.2,0.2-0.3,0.4-0.3
	c0.2,0,0.3,0.1,0.3,0.3C29.5,69.4,29.4,69.5,29.2,69.6L29.2,69.6z"/>
<path class="st3" d="M23.4,83.2c-0.3,0-0.6,0.3-0.6,0.6c0,0.3,0.3,0.6,0.6,0.6s0.6-0.3,0.6-0.6C24,83.5,23.8,83.2,23.4,83.2
	 M23.4,84.2c-0.2,0-0.3-0.2-0.3-0.4c0-0.2,0.1-0.3,0.3-0.3c0.2,0,0.3,0.1,0.4,0.3C23.8,84,23.6,84.2,23.4,84.2
	C23.4,84.2,23.4,84.2,23.4,84.2L23.4,84.2z"/>
<path class="st3" d="M48.6,83.8c-0.3,0-0.6,0.3-0.6,0.6c0,0,0,0,0,0c0,0.3,0.3,0.6,0.6,0.6c0.3,0,0.6-0.2,0.6-0.6c0,0,0,0,0,0
	c0-0.3-0.2-0.6-0.5-0.6C48.7,83.8,48.7,83.8,48.6,83.8 M48.6,84.7c-0.2,0-0.3-0.1-0.3-0.3c0-0.2,0.1-0.3,0.3-0.4
	c0.2,0,0.4,0.1,0.4,0.3c0,0,0,0,0,0C49,84.6,48.8,84.7,48.6,84.7z"/>
<path class="st3" d="M33.4,65.8c-0.3,0-0.6,0.3-0.6,0.6c0,0,0,0,0,0c0,0.3,0.2,0.6,0.5,0.6c0,0,0.1,0,0.1,0c0.3,0,0.6-0.2,0.6-0.6
	c0,0,0,0,0,0C33.9,66.1,33.7,65.8,33.4,65.8 M33.4,66.8c-0.2,0-0.4-0.1-0.4-0.3c0,0,0,0,0,0c0-0.2,0.1-0.3,0.4-0.3
	c0.2,0,0.3,0.1,0.3,0.3C33.7,66.6,33.5,66.7,33.4,66.8L33.4,66.8z"/>
<path class="st3" d="M42,59.9c-0.3,0-0.6,0.2-0.6,0.5c0,0,0,0.1,0,0.1c0,0.3,0.2,0.6,0.6,0.6c0,0,0,0,0,0c0.3,0,0.6-0.3,0.6-0.6
	C42.6,60.2,42.3,59.9,42,59.9C42,59.9,42,59.9,42,59.9 M42,60.8c-0.2,0-0.3-0.1-0.4-0.3c0-0.2,0.1-0.4,0.3-0.4c0,0,0,0,0,0
	c0.2,0,0.3,0.2,0.3,0.4c0,0,0,0,0,0C42.2,60.6,42.1,60.7,42,60.8L42,60.8z"/>
<path class="st3" d="M49.9,66.2c-0.3,0-0.6,0.3-0.6,0.6c0,0.3,0.2,0.6,0.6,0.6c0,0,0,0,0,0c0.3,0,0.6-0.2,0.6-0.5c0,0,0-0.1,0-0.1
	C50.5,66.4,50.2,66.1,49.9,66.2C49.9,66.1,49.9,66.1,49.9,66.2 M49.9,67.2c-0.2,0-0.3-0.2-0.3-0.4c0-0.2,0.1-0.3,0.3-0.3
	c0.2,0,0.4,0.1,0.4,0.3C50.2,67,50.1,67.1,49.9,67.2C49.9,67.1,49.9,67.1,49.9,67.2L49.9,67.2z"/>
<path class="st3" d="M50.3,59.9c-0.3,0-0.6,0.3-0.6,0.6c0,0.3,0.3,0.6,0.6,0.6s0.6-0.3,0.6-0.6C50.8,60.2,50.6,59.9,50.3,59.9
	 M50.3,60.8c-0.2,0-0.4-0.1-0.4-0.3c0-0.2,0.1-0.4,0.3-0.4c0,0,0,0,0.1,0c0.2,0,0.3,0.2,0.3,0.4C50.6,60.7,50.4,60.8,50.3,60.8
	L50.3,60.8z"/>
<path class="st3" d="M46.1,63c-0.3,0-0.6,0.2-0.6,0.6c0,0,0,0,0,0c0,0.3,0.2,0.6,0.5,0.6c0,0,0.1,0,0.1,0c0.3,0,0.5-0.2,0.5-0.5
	c0,0,0,0,0-0.1C46.6,63.3,46.4,63.1,46.1,63 M46.1,64c-0.2,0-0.4-0.1-0.4-0.3c0,0,0,0,0,0c0-0.2,0.2-0.3,0.4-0.3
	c0.2,0,0.3,0.1,0.3,0.3C46.4,63.8,46.2,64,46.1,64L46.1,64z"/>
<path class="st3" d="M29.1,62.6c-0.3,0-0.5,0.3-0.5,0.5c0,0,0,0,0,0.1c0,0.3,0.2,0.5,0.5,0.5c0,0,0,0,0,0c0.3,0,0.6-0.2,0.6-0.5
	c0,0,0,0,0-0.1C29.8,62.9,29.5,62.6,29.1,62.6C29.2,62.6,29.2,62.6,29.1,62.6 M29.2,63.5c-0.2,0-0.3-0.1-0.4-0.3
	c0-0.2,0.1-0.4,0.3-0.4c0,0,0,0,0,0c0.1,0,0.3,0.1,0.3,0.4C29.5,63.3,29.4,63.5,29.2,63.5z"/>
<path class="st3" d="M25.5,65.6c-0.3,0-0.6,0.2-0.6,0.5c0,0,0,0.1,0,0.1c0,0.3,0.3,0.6,0.6,0.6c0,0,0,0,0,0c0.3,0,0.6-0.3,0.6-0.6
	C26.1,65.9,25.8,65.6,25.5,65.6C25.5,65.6,25.5,65.6,25.5,65.6 M25.5,66.5c-0.2,0-0.3-0.1-0.4-0.3c0-0.2,0.1-0.4,0.3-0.4
	c0,0,0,0,0,0c0.2,0,0.3,0.2,0.3,0.4C25.8,66.4,25.7,66.5,25.5,66.5z"/>
<path class="st3" d="M33.4,59.6c-0.3,0-0.6,0.2-0.6,0.6c0,0,0,0,0,0c0,0.3,0.3,0.6,0.6,0.6s0.6-0.3,0.6-0.6l0,0
	C34,59.8,33.8,59.6,33.4,59.6C33.5,59.6,33.4,59.6,33.4,59.6 M33.4,60.4c-0.2,0-0.3-0.1-0.3-0.3c0-0.2,0.1-0.3,0.2-0.4
	c0.2,0,0.3,0.1,0.4,0.2c0,0.1,0,0.1,0,0.2C33.7,60.3,33.6,60.4,33.4,60.4z"/>
<path class="st3" d="M37.8,56.6c-0.3,0-0.6,0.3-0.6,0.6c0,0.3,0.3,0.6,0.6,0.6s0.6-0.3,0.6-0.6C38.4,56.9,38.1,56.6,37.8,56.6
	 M37.8,57.6c-0.2,0-0.3-0.2-0.3-0.4c0-0.2,0.1-0.3,0.3-0.3s0.3,0.1,0.3,0.3C38.1,57.4,38,57.5,37.8,57.6L37.8,57.6z"/>
<path class="st3" d="M78.1,87.9c-0.3,0-0.6,0.3-0.6,0.6s0.3,0.6,0.6,0.6c0.3,0,0.6-0.3,0.6-0.6c0,0,0,0,0,0
	C78.6,88.2,78.4,87.9,78.1,87.9 M78.1,88.9c-0.2,0-0.4-0.1-0.4-0.3c0,0,0,0,0,0c0-0.2,0.2-0.3,0.4-0.3c0,0,0,0,0,0
	c0.2,0,0.3,0.1,0.3,0.3C78.3,88.7,78.2,88.8,78.1,88.9L78.1,88.9z"/>
</svg>
