<?xml version="1.0" encoding="UTF-8" standalone="no"?>
<!-- Generator: Adobe Illustrator 19.2.1, SVG Export Plug-In . SVG Version: 6.00 Build 0)  -->

<svg
   version="1.1"
   id="layer"
   x="0px"
   y="0px"
   viewBox="0 0 830 830"
   xml:space="preserve"
   sodipodi:docname="CNRS_centred.svg"
   width="830"
   height="830"
   inkscape:version="1.3.2 (091e20e, 2023-11-25)"
   xmlns:inkscape="http://www.inkscape.org/namespaces/inkscape"
   xmlns:sodipodi="http://sodipodi.sourceforge.net/DTD/sodipodi-0.dtd"
   xmlns="http://www.w3.org/2000/svg"
   xmlns:svg="http://www.w3.org/2000/svg"><defs
   id="defs10" /><sodipodi:namedview
   id="namedview10"
   pagecolor="#ffffff"
   bordercolor="#000000"
   borderopacity="0.25"
   inkscape:showpageshadow="2"
   inkscape:pageopacity="0.0"
   inkscape:pagecheckerboard="0"
   inkscape:deskcolor="#d1d1d1"
   inkscape:zoom="0.36196319"
   inkscape:cx="375.72881"
   inkscape:cy="374.34746"
   inkscape:window-width="1480"
   inkscape:window-height="666"
   inkscape:window-x="0"
   inkscape:window-y="38"
   inkscape:window-maximized="0"
   inkscape:current-layer="layer" />
<style
   type="text/css"
   id="style1">
	.st0{fill:url(#SVGID_1_);}
	.st1{fill:#FFFFFF;}
	.st2{fill:#62C4DD;}
</style>
<g
   id="g10"
   transform="translate(102.22034,93.932204)">
	
		<radialGradient
   id="SVGID_1_"
   cx="2048.5679"
   cy="1654.7695"
   r="1952.7865"
   gradientTransform="matrix(0.1616,0,0,0.1616,46.1036,-5.3991)"
   gradientUnits="userSpaceOnUse">
		<stop
   offset="0"
   style="stop-color:#456587"
   id="stop1" />
		<stop
   offset="0.2555"
   style="stop-color:#2C4F73"
   id="stop2" />
		<stop
   offset="0.5931"
   style="stop-color:#0C395D"
   id="stop3" />
		<stop
   offset="0.8524"
   style="stop-color:#002D50"
   id="stop4" />
		<stop
   offset="1"
   style="stop-color:#00294B"
   id="stop5" />
	</radialGradient>
	<path
   class="st0"
   d="m 309.9,71 c -4.5,-0.3 -9,-0.4 -13.4,-0.4 -61.9,-0.1 -117.9,26.3 -166.8,78.5 -44.4,47.4 -59.3,85.7 -59.2,131.8 0.1,24.7 4.5,51.6 10.9,83.5 12.3,59.8 47.8,117.6 97.6,158.5 38.1,31.3 80.6,47.3 125.4,47.6 23.2,0.1 47,-3.9 71.2,-12.2 78,-26.9 152.6,-104 181.4,-187.4 9.1,-26.4 13.6,-52.1 13.5,-76.5 C 570.3,234.6 543,182.3 490.8,144.8 427.6,99.3 366.7,74.5 309.9,71 Z"
   id="path5"
   style="fill:url(#SVGID_1_)" />
	<g
   id="g9">
		<path
   class="st1"
   d="m 220.9,321.4 h -17.2 v 0.5 c -0.1,3.3 -2.1,32.5 -28.2,32.5 -23.3,0 -35.2,-20.9 -35.2,-62.1 0,-41.2 11.9,-62.1 35.2,-62.1 26.5,0 28.2,31.2 28.2,32.5 v 0.5 h 17.2 c 1.6,0 3.1,-0.6 4.2,-1.8 1.1,-1.1 1.6,-2.5 1.5,-4 -0.3,-8.1 -4.5,-48.4 -51.4,-48.4 -37.9,0 -57.9,28.8 -57.9,83.3 0,54.6 20,83.4 57.9,83.4 45.1,0 50.7,-36.9 51.4,-48.1 0.1,-1.6 -0.4,-3.1 -1.5,-4.2 -1.1,-1.4 -2.6,-2 -4.2,-2 z"
   id="path6" />
		<path
   class="st2"
   d="m 487.4,282.3 v 0 l -14.7,-6.4 c -14.2,-6.2 -19.2,-12.3 -19.2,-23.2 0,-14.2 10.4,-23.7 25.8,-23.7 9.1,0 16.6,1.9 25.8,11.2 l 0.5,0.5 7.9,-7.2 c 4.6,-4.2 3.2,-8.1 1.3,-10.5 -7.7,-9.1 -20,-14 -34.8,-14 -28.4,0 -49.1,18.5 -49.1,44.1 0,25.1 15.8,35.6 32.9,43.2 l 15.1,6.7 c 15.2,6.8 22.4,12.6 22.4,27.2 0,19.9 -18,25.2 -28.6,25.2 -9.1,0 -19.3,-2 -31.8,-16.1 l -0.5,-0.6 -8.2,7.2 c -4.2,3.7 -4.2,6.9 -0.1,12.2 11.3,14.5 27.9,17.6 39.8,17.6 25.8,0 51.9,-15.8 51.9,-46.1 -0.1,-26.3 -14.6,-37.9 -36.4,-47.3 z"
   id="path7" />
		<path
   class="st2"
   d="m 341.7,256.5 c 0,-25.7 -20.9,-47.5 -46.6,-47.5 -12.1,0 -23.1,4.6 -31.4,12.2 v -8.8 h -15.5 c -4.7,0 -6.5,3 -6.5,6.6 v 150.2 c 0,4.2 2.6,6.5 6.4,6.5 h 15.5 V 257.4 c 0,-15.5 12.6,-28.1 28.1,-28.1 15.5,0 28.1,12.6 28.1,28.1 v 118.1 h 15.4 c 4.3,0 6.5,-2.4 6.5,-6.5 0,0.1 0,-112.3 0,-112.5 z"
   id="path8" />
		<path
   class="st1"
   d="m 430.6,220.2 c 0.8,-1 1.3,-2.3 1.3,-3.7 0,-2.6 -1.7,-4.7 -4,-5.5 -4.5,-1.5 -9.3,-2.3 -14.2,-2.3 -12.1,0 -23.1,4.6 -31.4,12.2 v -8.8 h -15.5 c -4.7,0 -6.5,3 -6.5,6.6 v 150.1 c 0,4.2 2.6,6.5 6.4,6.5 h 15.5 V 257.1 c 0,-15.5 12.6,-28.1 28.1,-28.1 4.1,0 7.9,0.9 11.4,2.4 z"
   id="path9" />
	</g>
</g>
</svg>
