<?xml version="1.0" encoding="utf-8"?>
<!-- Generator: Adobe Illustrator 19.0.0, SVG Export Plug-In . SVG Version: 6.00 Build 0)  -->
<svg version="1.1" id="layer" xmlns="http://www.w3.org/2000/svg" xmlns:xlink="http://www.w3.org/1999/xlink" x="0px" y="0px"
	 viewBox="-153 -46 652 652" style="enable-background:new -153 -46 652 652;" xml:space="preserve">
<style type="text/css">
	.st0{fill:#6C2383;}
	.st1{fill:#FFD500;}
	.st2{fill:#FFFFFF;}
	.st3{fill:#939292;}
</style>
<title>Artboard 1</title>
<rect x="-126.7" y="153.6" class="st0" width="599.7" height="186.2"/>
<path class="st1" d="M270.7,216.9c0-4.2,3.8-6.7,9.2-6.7c5.6,0,10.9,3.6,13.2,9h1.3l-1.1-8c-2.8-1.3-8.8-3.2-14.1-3.2
	c-8.3,0-14.4,5.4-14.4,11.7c0,13.2,26.1,16.1,26.1,26.9c0,5.9-5.8,8.5-11.3,8.5c-6.4,0-12.3-3.9-14-11.3h-1.4l1.7,11.2
	c4.2,1.2,10,2.5,14.5,2.5c9.6,0,16.5-6.2,16.5-13.5C296.8,230,270.7,227.6,270.7,216.9 M297.9,208.9h38.5l1.1,10.2h-1.3
	c-1.1-6.6-2.5-7.4-5.5-7.4h-10.3V249c0,4,1.3,5.4,5.9,5.4h1.7v1.6h-21.6v-1.6h1.7c4.5,0,5.9-1.4,5.9-5.4v-37.2h-10.3
	c-3,0-4.3,0.8-5.4,7.4h-1.3L297.9,208.9z M258.1,210.8c-1.2-7.5-3.5-8-6.7-8h-20.3v22.1H247c3.3,0,4.8-0.4,5.3-5.7h1.7v15.2h-1.7
	c-0.7-6.4-2.4-6-6.2-6h-15v19.3c0,4.2,1.9,5,5.3,5H250c6.2,0,8.3-1.3,10.5-9h1.7l-1.4,12.3h-44.9v-1.7c7.3-0.2,7.8-1.2,7.8-6.7
	l0-39.6c0-5.5-0.5-6.5-7.8-6.7v-1.7l43.2,0l0.7,11.3H258.1z M302.2,301.9h-1.4c-1,4.4-2.2,5.5-5.8,5.6h-17
	c9-7.9,22.8-18.2,22.8-29.1c0-7.2-5.5-12.7-13-12.7c-7.8,0-13.6,5.6-14.5,13.8h1.1c1.6-5.8,6.2-9.7,11.3-9.7c5.4,0,9.5,4.2,9.5,9.6
	c0,12.9-21,28.7-22.8,30.5v2.1h28.5h0h0l0.6-4.5h0L302.2,301.9z M216.5,311.9v-1.7c6.8,0,7.1-1.2,7.1-4.7h0v-33.6
	c-2.4,2-6.7,4.7-9.5,5.9l-0.6-1c4.4-2.8,10.7-8.2,12.5-10.7h2.6v38.4c0.1,4.6,1,5.5,7.8,5.7v1.7H216.5z M302.9,298.9v-1.7l22.9-31.2
	h2.1v29.2h5.9v3.6H328v13h-5.1v-13H302.9 M322.9,273.1l-16.2,22.2h16.2V273.1z M257.9,286.7c8.3,3.4,12,7.1,12,12.6
	c0,7.5-6.8,13.3-15.5,13.3c-8.5,0-15.3-5.3-15.3-11.8c0-5.1,3.9-9.2,11.6-12c-7.4-3-11-6.6-11-11.5c0-6.4,6.5-11.7,14.4-11.7
	c7.9,0,14.2,4.6,14.2,10.4C268.3,280.6,264.8,284.2,257.9,286.7 M252.2,289.5c-5.4,2.7-8.6,6.4-8.6,11.1c0,6.1,4.8,10.2,10.8,10.2
	c5.9,0,10.8-3.8,10.8-9.4C265.2,296.5,261.3,293.3,252.2,289.5 M254,267.5c-5.4,0-10.1,3.1-10.1,7.6c0,4,2.2,6.7,12.5,10.7
	c4.4-2.5,7.5-5.7,7.5-9.8C263.9,270.8,259.5,267.5,254,267.5"/>
<path class="st2" d="M378.6,210.8l-0.7-11.3l-43.2,0v1.7c7.3,0.2,7.8,1.2,7.8,6.7l0,39.6c0,5.5-0.5,6.5-7.8,6.7v1.7h44.9l1.4-12.3
	h-1.7c-2.2,7.6-4.2,9-10.5,9h-13.6c-3.4,0-5.3-0.8-5.3-5v-19.3h15c3.7,0,5.5-0.4,6.2,6h1.7v-15.2h-1.7c-0.5,5.3-2,5.7-5.3,5.7h-15.9
	v-22.1h20.3c3.2,0,5.5,0.5,6.7,8H378.6 M76.9,199.5v1.7c7.3,0.2,7.8,1.2,7.8,6.7v36.1l-37.9-44.6H33.2v1.7c3.2,0.1,4.9,0.8,6.9,2.3
	v44.7c0,3.4-1.3,5.9-4.4,5.9c-2.4,0-3.6-2.7-4.9-5.5l-21.1-49H3.3l-19.5,45.8c-3.5,7.6-4.1,8.8-6,8.8c-2.4,0-3.2-2.1-3.6-8.2
	l-2.8-39.9c0-3.5,1.1-4.7,7.9-4.7v-1.7l-15.3,0l-20,45.8L-76,199.5h-15.9v1.7c6.8,0,7.9,1.2,7.9,4.7l-2.4,38.6
	c-0.5,8.3-1.3,9.7-7.9,9.7v1.7h18.9v-1.7c-4.1-0.2-7.5-1.2-7.3-5.8l2.5-40.9h0.2l21.3,48.4h2.1l20.7-48.4h0.2l2.6,40.7
	c0.4,4.8-3.8,6-8.1,6v1.7h35v-1.7h-0.3c-5,0-7.4-0.9-7.4-3.4c0-1.3,1.2-4,1.8-5.7l5-11.9h23.7l5.9,14.2c0.4,0.9,1,2.3,1,3.7
	c0,2.5-1.9,3.1-7.1,3.1h-1.2v1.7h36.9v-1.7c-7.7,0-8-1.4-8-7.9v-38.9l42.2,49.2h2.4v-50.6c0-3.5,0.3-4.7,7.1-4.7v-1.7H76.9z
	 M-5.5,229.7l10.4-24.6l10.3,24.6H-5.5z M214.5,254.2v1.7H192v-1.7c6.9-0.2,7.7-1.1,7.8-5.8v-20h-33.3v19.1h0c0,5.5,0.5,6.5,7.8,6.7
	v1.7h-22.5v-1.7c6.8,0,7.1-1.2,7.1-4.7h0v-43.5l0,0c0-3.5-0.3-4.7-7.1-4.7v-1.7h22.5v1.7c-7.3,0.2-7.8,1.2-7.8,6.7h0l0,16.9h33.3
	l0-17.7c-0.1-4.8-0.9-5.8-7.8-5.9v-1.7h22.5v1.7c-6.8,0-7.1,1.2-7.1,4.7h0v43.5l0,0C207.3,253,207.7,254.2,214.5,254.2 M126.8,198.1
	c9.5,0,16.5,3.2,20.8,5l0.7,11.2h-1.7c-3-8.4-9.3-14-19.2-14c-15.2,0-22.7,11.7-22.7,27c0,16.4,9.9,27.5,23.7,27.5
	c4.1,0,14.5-2.8,20.7-13.7h1.7l-4.3,10.7c-5.4,2.6-9.8,5.6-20.5,5.6c-18.4,0-29.4-12.2-29.4-29C96.4,210.8,107.8,198.1,126.8,198.1
	 M434.5,245.4l-7.2-6.9c-4.3-4.3-7-6.2-10.4-8.8c7.5-2.2,12.2-7.9,12.2-14.8c0-9.3-7.6-16.2-24.5-16.2c-5.9,0-7.8,0.1-11.5,0.3
	c-3.7,0.2-9.3,0.5-11.5,0.5v1.7h2c5.3,0,6.9,1.6,6.9,7.3v38.1c0,6.1-1.9,7.6-7.3,7.6h-1.5v1.7h25.8v-1.7h-2.1
	c-5.1,0-7.3-1.4-7.3-6.9v-15.1c1.5,0.1,2.6,0.2,4.7,0.2c2.4,0,3.8-0.1,6-0.2c6.9,4,12.4,10.1,15.6,13.2c8.3,7.9,10.3,11.2,26.2,10.5
	v-1.7C443.5,253.8,439.9,250.8,434.5,245.4 M403.6,230.3c-2.1,0-3.5,0.1-5.7-0.2V201c1.6-0.2,2.8-0.2,4.6-0.2
	c14.1,0,17.9,6.2,17.9,14.7C420.5,226.4,413.8,230.3,403.6,230.3 M434.5,245.4l-7.2-6.9c-4.3-4.3-7-6.2-10.4-8.8
	c7.5-2.2,12.2-7.9,12.2-14.8c0-9.3-7.6-16.2-24.5-16.2c-5.9,0-7.8,0.1-11.5,0.3c-3.7,0.2-9.3,0.5-11.5,0.5v1.7h2
	c5.3,0,6.9,1.6,6.9,7.3v38.1c0,6.1-1.9,7.6-7.3,7.6h-1.5v1.7h25.8v-1.7h-2.1c-5.1,0-7.3-1.4-7.3-6.9v-15.1c1.5,0.1,2.6,0.2,4.7,0.2
	c2.4,0,3.8-0.1,6-0.2c6.9,4,12.4,10.1,15.6,13.2c8.3,7.9,10.3,11.2,26.2,10.5v-1.7C443.5,253.8,439.9,250.8,434.5,245.4
	 M403.6,230.3c-2.1,0-3.5,0.1-5.7-0.2V201c1.6-0.2,2.8-0.2,4.6-0.2c14.1,0,17.9,6.2,17.9,14.7C420.5,226.4,413.8,230.3,403.6,230.3"
	/>
<path class="st3" d="M-113.1,364.1v30.4h-3.8v-30.4H-127v-3.2h24v3.2H-113.1z M-82.6,394.6h3.7v-17.3c0-4.4-1.7-8-7.4-8
	c-4.3,0-7.4,2.3-8.8,6l-0.1,0c0.3-1.2,0.4-3.3,0.4-4.9v-12.1h-3.7v36.4h3.7v-11.9c0-5.9,3.1-10.3,7.6-10.3c3.6,0,4.6,2.2,4.6,6.1
	V394.6 M-62.5,372.2c3.8,0,6.1,2.6,6,6.4H-69C-68.5,374.7-66,372.2-62.5,372.2 M-52.7,381.4c0.1-0.7,0.1-1.4,0.1-1.8
	c0-5.5-2.8-10.2-9.7-10.2c-6.9,0-10.9,5.5-10.9,13c0,8.7,4,12.7,11.5,12.7c3.1,0,5.9-0.5,8.2-1.5l-0.3-3.2c-1.9,1-4.6,1.6-7.2,1.6
	c-5.5,0-8.5-3.1-8.2-10.5H-52.7 M-24.4,395c8.7,0,13.3-4.6,13.3-13.2v-20.9h-3.7v21.2c0,7.2-3,9.8-9.2,9.8c-7.3,0-8.9-4-8.9-8.8
	v-22.1h-3.8v22.5C-36.8,389.2-34.8,395-24.4,395 M12.2,394.6h3.7v-17.3c0-4.4-1.7-8-7.4-8c-4.3,0-7.5,2.4-8.9,6l-0.1-0.1
	c0.2-1.5,0.4-3.9,0.4-5.5h-3.7v24.8H0v-11.9c0-5.9,3.1-10.3,7.6-10.3c3.6,0,4.6,2.2,4.6,6.1V394.6 M23,394.6h3.7v-24.8H23V394.6z
	 M24.9,365.3c1.4,0,2.6-1.1,2.6-2.5c0-1.4-1.2-2.5-2.6-2.5c-1.4,0-2.6,1.2-2.6,2.5C22.3,364.2,23.4,365.3,24.9,365.3 M44,394.6
	l9.6-24.8h-4.1l-5.9,16.4c-0.5,1.3-0.9,2.8-1.3,4.2h0c-0.5-1.4-0.9-2.8-1.4-4.4L35,369.8h-4.2l9.4,24.8H44 M65.2,372.2
	c3.8,0,6.1,2.6,6,6.4H58.6C59.2,374.7,61.7,372.2,65.2,372.2 M74.9,381.4c0.1-0.7,0.1-1.4,0.1-1.8c0-5.5-2.8-10.2-9.7-10.2
	c-6.9,0-10.9,5.5-10.9,13c0,8.7,4,12.7,11.5,12.7c3.1,0,5.9-0.5,8.2-1.5l-0.3-3.2c-1.9,1-4.6,1.6-7.2,1.6c-5.5,0-8.5-3.1-8.2-10.5
	H74.9 M92.8,373l0.2-3.7c-5.2-0.6-7.8,3.1-8.8,6.7l0,0c0.3-2.1,0.5-4.6,0.5-6.2H81v24.8h3.7v-9.9C84.8,376.3,87.4,372.1,92.8,373
	 M101.4,395c6.5,0,10.4-3.4,10.4-7.8c0-8.4-12.1-5-12.1-11c0-2.4,1.8-3.9,5.4-3.9c1.7,0,3.5,0.3,5.1,0.9l0.1-3.2
	c-1.5-0.3-3.3-0.5-4.8-0.5c-6.3,0-9.7,3.1-9.7,7.3c0,8.8,12.1,5.1,12.1,11.1c0,2.6-2.5,4.2-6.1,4.2c-1.9,0-3.9-0.4-5.5-0.8l-0.1,3.4
	C97.7,394.8,99.6,395,101.4,395 M121.2,394.6h-3.7v-24.8h3.7V394.6z M122,362.8c0,1.4-1.2,2.5-2.6,2.5c-1.4,0-2.6-1.1-2.6-2.5
	c0-1.4,1.1-2.5,2.6-2.5C120.8,360.2,122,361.4,122,362.8 M136.7,395c1.5,0,3.3-0.2,4.6-0.5v-3.2c-1,0.3-2.3,0.4-3.5,0.4
	c-2.9,0-3.7-1.1-3.7-5.6v-13.4h7.3v-2.9H134v-9.3l-3.7,1v8.2h-5.4v2.9h5.4v14.9C130.2,392.8,131.7,395,136.7,395 M154.8,397.2
	l10.4-27.3h-4.1l-4.4,12.6c-1,2.8-2,5.9-2.5,7.5h-0.1c-0.5-1.8-1.1-3.6-1.9-5.9l-5.2-14.2h-4.3l9.5,24.8l-1.1,2.9
	c-1.9,5.2-3.4,6.6-6.4,6.6c-1.1,0-2.1-0.2-3.1-0.5l-0.4,3.4c1,0.2,2.2,0.2,3.1,0.2C149.7,407.3,151.9,404.8,154.8,397.2
	 M188.1,372.4c4.9,0,7.4,3.6,7.4,9.6c0,6.8-3.5,9.8-7.4,9.8c-4.8,0-7.6-3.5-7.6-9.8C180.5,375.4,184.2,372.4,188.1,372.4 M187.6,395
	c7.3,0,11.9-5.9,11.9-13.3c0-9.1-4.9-12.4-11-12.4c-7.4,0-11.8,5.9-11.8,13C176.6,391,180.9,395,187.6,395 M219.5,361.5l0.3-3.1
	c-1.3-0.3-2.7-0.5-4.1-0.5c-5.9,0-9.4,3.2-9.4,10.1v1.7H201v2.9h5.4v21.8h3.7v-21.8h7.3v-2.9h-7.3V368c0-4.8,1.7-7,5.5-7
	C216.9,361,218.2,361.1,219.5,361.5 M264.5,394.6h4l-5-33.6h-5l-7.9,23.1c-0.9,2.4-1.4,3.9-1.8,6.2h-0.1c-0.3-1.8-1-4.1-1.9-6.5
	l-7.7-22.7h-4.8l-4.8,33.6h3.9l2.4-20.3c0.4-3.4,0.7-6.1,0.9-8.8h0c0.4,2,1.3,4.7,2.1,7.1l7.5,22h4.3l7.9-23.5
	c0.8-2.3,1.3-4.2,1.6-5.6h0.1c0.2,1.8,0.5,4.3,1,8.4L264.5,394.6 M287.8,383v0.4c0,4.3-2.9,8.6-7.3,8.6c-2.4,0-4-1.4-4-3.7
	C276.5,385.9,278.5,383,287.8,383 M291.7,394.6c-0.1-2.2-0.1-5-0.1-7.4v-9.7c0-4.7-1.9-8.1-8.8-8.1c-3.3,0-6.2,0.8-8.6,1.8l0.3,3.3
	c2.2-1.4,5.2-2.1,7.6-2.1c4.3,0,5.6,2.1,5.6,5.8v2c-9.7,0-15,3.6-15,8.8c0,3.9,2.8,6,6.8,6c4.2,0,7.4-2.5,8.6-5.7h0.1
	c-0.2,1.4-0.2,3.3-0.2,5.2H291.7z M314.7,394.6h3.7v-17.3c0-4.4-1.7-8-7.4-8c-4.3,0-7.5,2.4-8.9,6l-0.1-0.1c0.2-1.5,0.4-3.9,0.4-5.5
	h-3.7v24.8h3.7v-11.9c0-5.9,3.1-10.3,7.6-10.3c3.6,0,4.6,2.2,4.6,6.1V394.6 M334.9,394.9c3,0,5.7-0.7,7.4-1.3l-0.3-3.2
	c-1.7,0.9-4,1.4-6.2,1.4c-6,0-7.6-4.2-7.6-9.3c0-6,2.6-9.9,8-9.9c2.1,0,4,0.4,5.7,1.1l0.4-3.3c-1.7-0.5-3.8-0.8-5.8-0.8
	c-8.1,0-12.2,5.5-12.2,13.6C324.2,392.4,329.4,394.9,334.9,394.9 M363.4,394.6h3.7v-17.3c0-4.4-1.7-8-7.4-8c-4.3,0-7.4,2.3-8.8,6
	l-0.1,0c0.3-1.2,0.4-3.3,0.4-4.9v-12.1h-3.7v36.4h3.7v-11.9c0-5.9,3.1-10.3,7.6-10.3c3.6,0,4.6,2.2,4.6,6.1V394.6 M383.5,372.2
	c3.8,0,6.1,2.6,6,6.4h-12.6C377.5,374.7,380,372.2,383.5,372.2 M393.3,381.4c0.1-0.7,0.1-1.4,0.1-1.8c0-5.5-2.8-10.2-9.7-10.2
	c-6.9,0-10.9,5.5-10.9,13c0,8.7,4,12.7,11.5,12.7c3.1,0,5.9-0.5,8.2-1.5l-0.3-3.2c-1.9,1-4.6,1.6-7.2,1.6c-5.5,0-8.5-3.1-8.2-10.5
	H393.3 M403.1,395c6.5,0,10.4-3.4,10.4-7.8c0-8.4-12.1-5-12.1-11c0-2.4,1.8-3.9,5.4-3.9c1.7,0,3.5,0.3,5.1,0.9l0.1-3.2
	c-1.5-0.3-3.3-0.5-4.8-0.5c-6.3,0-9.7,3.1-9.7,7.3c0,8.8,12.1,5.1,12.1,11.1c0,2.6-2.5,4.2-6.1,4.2c-1.9,0-3.9-0.4-5.5-0.8l-0.1,3.4
	C399.4,394.8,401.3,395,403.1,395 M427.1,395c1.5,0,3.3-0.2,4.6-0.5v-3.2c-1,0.3-2.3,0.4-3.5,0.4c-2.9,0-3.7-1.1-3.7-5.6v-13.4h7.3
	v-2.9h-7.3v-9.3l-3.7,1v8.2h-5.4v2.9h5.4v14.9C420.6,392.8,422.1,395,427.1,395 M445.5,372.2c3.8,0,6.1,2.6,6,6.4h-12.6
	C439.5,374.7,442,372.2,445.5,372.2 M455.2,381.4c0.1-0.7,0.1-1.4,0.1-1.8c0-5.5-2.8-10.2-9.7-10.2c-6.9,0-10.9,5.5-10.9,13
	c0,8.7,4,12.7,11.5,12.7c3.1,0,5.9-0.5,8.2-1.5l-0.3-3.2c-1.8,1-4.6,1.6-7.2,1.6c-5.5,0-8.5-3.1-8.2-10.5H455.2 M472.9,373l0.2-3.7
	c-5.2-0.6-7.8,3.1-8.8,6.7l0,0c0.3-2.1,0.5-4.6,0.5-6.2h-3.7v24.8h3.7v-9.9C464.8,376.3,467.4,372.1,472.9,373"/>
</svg>
