<?xml version="1.0" encoding="utf-8"?>
<!-- Generator: Adobe Illustrator 25.2.1, SVG Export Plug-In . SVG Version: 6.00 Build 0)  -->
<svg version="1.1" id="Layer_1" xmlns="http://www.w3.org/2000/svg" xmlns:xlink="http://www.w3.org/1999/xlink" x="0px" y="0px"
	 viewBox="0 0 191.9 153.4" style="enable-background:new 0 0 191.9 153.4;" xml:space="preserve">
<style type="text/css">
	.st0{fill:none;}
	.st1{fill:#011E41;}
	.st2{fill:#FFFFFF;}
	.st3{fill:#DB0032;}
</style>
<g>
	<g>
		<path class="st0" d="M138.1,42.1c0,23.2-18.8,42.1-42.1,42.1S53.9,65.3,53.9,42.1C53.9,18.8,72.8,0,96,0S138.1,18.8,138.1,42.1z"
			/>
		<g>
			<g>
				<path class="st1" d="M60.2,33.6c0.7,0.2,1,0.1,1.1-0.4l0.2,0L61,35.4l-0.2,0c0.1-0.4,0-0.7-0.8-0.9l-4.6-1l-0.2,0.9
					c-0.2,0.8,0,1.2,0.6,1.4l0,0.2l-1.4-0.3l0-0.2c0.1-0.1,0.2-0.2,0.2-0.3c0.1-0.1,0.1-0.3,0.2-0.6l0.7-3.2c0.1-0.5,0.1-0.8,0-1
					l0-0.2l1.4,0.3l0,0.1c-0.5,0-0.9,0.1-1.2,1.1l-0.2,0.9L60.2,33.6z"/>
				<path class="st1" d="M60.5,26.7l1.6,0.8c0.7,0.3,1,0.3,1.2-0.2l0.2,0.1l-1,2l-0.2-0.1c0.2-0.4,0.2-0.7-0.6-1.1l-3.5-1.7
					c-0.7-0.3-1-0.3-1.2,0.2l-0.2-0.1l1-2l0.2,0.1c-0.2,0.4-0.1,0.7,0.6,1.1l1.6,0.8l1.5-3l-1.6-0.8c-0.7-0.3-1-0.3-1.2,0.2
					l-0.2-0.1l1-2l0.2,0.1c-0.2,0.5-0.1,0.8,0.6,1.1l3.5,1.7c0.7,0.3,1,0.3,1.2-0.2l0.2,0.1l-1,2l-0.2-0.1c0.2-0.4,0.2-0.7-0.6-1.1
					L62,23.7L60.5,26.7z"/>
				<path class="st1" d="M67.9,16.4l-0.1,0.1c-0.5-0.2-0.6-0.2-1,0.3l-1,1.2l1.7,1.4c0.2,0.2,0.4,0.2,0.6-0.1l0.7-0.8
					c0.6-0.7,0.7-0.9,0.3-1.7l0.1-0.1l0.7,1l-2.9,3.5L66.9,21c0.3-0.4,0.3-0.6-0.3-1.2l-3-2.5c-0.6-0.5-0.9-0.5-1.2-0.1l-0.1-0.1
					l2.9-3.5l0.8,0.7l-0.1,0.1c-0.6-0.3-0.8-0.2-1.2,0.3l-1.1,1.4l2.1,1.7l1.1-1.3c0.3-0.3,0.3-0.5,0-0.9l0.1-0.1L67.9,16.4z"/>
				<path class="st1" d="M79.6,9.4c-0.2,0.9-0.6,1.5-1.3,1.9c-1.3,0.7-2.4,0.1-2.9-0.8l-1.5-2.7c-0.4-0.7-0.7-0.8-1.1-0.5l-0.1-0.2
					l2-1.1l0.1,0.2c-0.4,0.2-0.5,0.5-0.1,1.2l1.6,2.8c0.5,0.8,1.3,1.2,2.2,0.7c0.6-0.3,1-1,1.1-1.8l-1.8-3.3
					c-0.4-0.6-0.6-0.8-1.1-0.5L76.4,5L78.3,4l0.1,0.2c-0.5,0.3-0.5,0.6-0.1,1.2l1.9,3.4c0.4,0.7,0.7,0.8,1.1,0.5l0.1,0.2L80,10.2
					L79.6,9.4z"/>
				<path class="st1" d="M89.5,6.9l-0.2,0l-5.6-4.2h0l1.1,4.2c0.2,0.6,0.5,0.8,1,0.6l0.1,0.2L84,8.4l-0.1-0.2
					C84.4,8,84.6,7.8,84.4,7l-0.9-3.5c-0.2-0.7-0.4-1-1.2-0.9l-0.1-0.2L83.8,2l5,3.7l0,0l-0.9-3.5c-0.2-0.8-0.5-0.9-1-0.8l-0.1-0.2
					l1.8-0.5l0.1,0.2C88.2,1,88,1.3,88.2,2L89.5,6.9z"/>
				<path class="st1" d="M94.5,5.3c0,0.8,0.2,1,0.8,1l0,0.2l-2.2,0.1l0-0.2c0.5,0,0.7-0.2,0.7-1l-0.2-3.9c0-0.8-0.2-1-0.8-1l0-0.2
					L95,0.2l0,0.2c-0.5,0-0.7,0.3-0.7,1L94.5,5.3z"/>
				<path class="st1" d="M100.8,6.8l-0.2,0l-1.2-5.3c-0.2-0.8-0.3-1.1-0.9-1.2l0-0.2l2.2,0.3l0,0.2c-0.4-0.1-0.7,0.2-0.6,0.7l1,4.2
					l1.9-3.7c0.3-0.5,0.2-0.8-0.4-0.9l0-0.2l1.8,0.2l0,0.2c-0.5-0.1-0.9,0.2-1.3,1L100.8,6.8z"/>
				<path class="st1" d="M110.7,7l-0.2-0.1c0.1-0.5,0-0.6-0.6-0.9l-1.4-0.5l-0.8,2.1c-0.1,0.3,0,0.4,0.3,0.6l1,0.4
					c0.9,0.3,1.1,0.3,1.7-0.3l0.2,0.1l-0.7,1L106,7.8l0.1-0.2c0.5,0.2,0.7,0.1,1-0.7l1.3-3.7c0.3-0.7,0.2-1-0.3-1.2l0.1-0.2l4.2,1.5
					l-0.4,1l-0.1,0c0.1-0.7-0.1-0.8-0.7-1l-1.7-0.6l-0.9,2.5l1.6,0.6c0.4,0.2,0.6,0.1,0.8-0.3l0.2,0.1L110.7,7z"/>
				<path class="st1" d="M117.8,6.5l0.6,0.4c0.8,0.5,1,1.4,0.5,2c-0.4,0.6-1.1,1-2,0.4l-0.6-0.4L117.8,6.5z M116.1,9.1l0.4,0.3
					c0.9,0.6,0.4,2,0.6,3.9l1.1,0.7l0.1-0.2c-0.8-0.6,0-2.6-0.6-3.8c0.9,0.3,1.5,0,1.9-0.6c0.5-0.7,0.3-1.7-0.8-2.5l-2.1-1.4
					l-0.1,0.2c0.4,0.3,0.5,0.5,0.1,1.2l-2.1,3.2c-0.5,0.7-0.7,0.7-1.1,0.4l-0.1,0.2l1.9,1.2l0.1-0.2c-0.4-0.3-0.5-0.6-0.1-1.2
					L116.1,9.1z"/>
				<path class="st1" d="M126,14.8l-0.1-0.1c0.6-0.7,0.4-1.4-0.1-1.9c-0.5-0.5-1-0.5-1.4-0.1c-0.8,0.8,0.1,2.2,0.1,3.4
					c0,0.6-0.2,1-0.5,1.3c-0.7,0.7-1.8,0.7-2.5,0c-0.5-0.5-0.6-1.1-0.8-1.2c-0.1-0.1-0.2-0.1-0.3,0l-0.1-0.1l1.2-1.2l0.1,0.1
					c-0.8,0.8-0.4,1.8,0,2.2c0.5,0.5,1.2,0.6,1.7,0.1c0.8-0.8-0.1-2.3,0-3.3c0-0.5,0.2-1,0.6-1.3c0.7-0.7,1.6-0.6,2.3,0.1
					c0.5,0.5,0.5,0.9,0.7,1c0.1,0.1,0.1,0.1,0.2,0l0.1,0.1L126,14.8z"/>
				<path class="st1" d="M126.5,21.5c-0.6,0.4-0.7,0.7-0.4,1.2l-0.1,0.1l-1.3-1.8l0.1-0.1c0.3,0.4,0.6,0.5,1.2,0l3.2-2.2
					c0.6-0.5,0.7-0.7,0.4-1.2l0.1-0.1l1.3,1.8l-0.1,0.1c-0.3-0.4-0.6-0.4-1.2,0L126.5,21.5z"/>
				<path class="st1" d="M129.6,27.1c-0.7,0.3-0.8,0.5-0.6,1l-0.2,0.1l-0.9-2l0.2-0.1c0.2,0.4,0.4,0.6,1.2,0.2l4.3-2l-0.4-0.8
					c-0.4-0.8-0.7-1-1.3-0.8l-0.1-0.2l1.3-0.6l0.1,0.2c0,0.1,0,0.2,0,0.4c0,0.1,0.1,0.3,0.2,0.6l1.4,3c0.2,0.5,0.4,0.7,0.6,0.8
					l0.1,0.2l-1.3,0.6l-0.1-0.1c0.4-0.3,0.7-0.7,0.3-1.6l-0.4-0.9L129.6,27.1z"/>
				<path class="st1" d="M132.1,34.7c-0.7,0.2-0.9,0.4-0.8,0.9l-0.2,0l-0.5-2.2l0.2,0c0.1,0.5,0.2,0.7,1.1,0.5l1.9-0.4l1.7-1.7
					c0.6-0.6,0.7-0.8,0.6-1.3l0.2,0l0.5,2.4l-0.2,0c-0.1-0.7-0.4-0.7-0.7-0.4l-1.6,1.6l1.7,0.6c0.5,0.2,1,0.1,0.9-0.4l0.2,0l0.4,1.7
					l-0.2,0c-0.1-0.5-0.3-0.6-0.9-0.8l-2.4-0.9L132.1,34.7z"/>
				<path class="st1" d="M58.1,50.5c1.7-0.5,3.2,0.1,3.6,1.5c0.4,1.2-0.4,2.5-2.3,3.1c-1.4,0.4-3.1,0.1-3.5-1.5
					C55.4,52.3,56.4,51,58.1,50.5z M57.9,49.6c-1.8,0.5-2.8,2.3-2.2,4.1c0.5,1.8,2.3,2.8,4.1,2.3c1.8-0.5,2.7-2.3,2.2-4.1
					C61.4,50.1,59.6,49.1,57.9,49.6z"/>
				<path class="st1" d="M60.3,61.7c-0.7,0.4-0.8,0.7-0.5,1.1l-0.2,0.1l-1.1-1.9l0.2-0.1c0.3,0.4,0.5,0.5,1.2,0.1l3.4-1.9
					c0.7-0.4,0.8-0.7,0.5-1.1l0.2-0.1l2.1,3.7l-1,0.6L65.1,62c0.6-0.5,0.5-0.7,0.2-1.3l-0.8-1.4l-2.3,1.3l0.8,1.4
					c0.2,0.4,0.5,0.4,1,0.2l0.1,0.2l-1.5,0.9l-0.1-0.2c0.4-0.2,0.5-0.6,0.3-0.9l-0.8-1.4L60.3,61.7z"/>
				<path class="st1" d="M72.3,73.7l-0.1-0.1c0.2-0.5,0.2-0.6-0.3-1l-1.2-1l-1.4,1.7c-0.2,0.2-0.2,0.4,0.1,0.6l0.8,0.7
					c0.7,0.6,0.9,0.7,1.7,0.3l0.1,0.1l-1,0.7l-3.5-2.8l0.1-0.1c0.4,0.3,0.6,0.3,1.2-0.3l2.5-3c0.5-0.6,0.5-0.9,0.1-1.2l0.1-0.1
					L75,71l-0.7,0.8l-0.1-0.1c0.3-0.6,0.2-0.8-0.3-1.2l-1.4-1.1l-1.7,2.1l1.4,1.1c0.3,0.3,0.5,0.3,0.9,0l0.1,0.1L72.3,73.7z"/>
				<path class="st1" d="M79.4,73.9l1.1,0.5c1.8,0.8,1.8,2.5,1.2,3.9c-0.7,1.5-2,2.1-3.4,1.5l-0.6-0.3c-0.5-0.2-0.6-0.5-0.2-1.4
					L79.4,73.9z M76.6,78c-0.3,0.7-0.6,0.8-1.1,0.6l-0.1,0.2l2.7,1.2c2.2,1,3.7,0.1,4.4-1.3c0.7-1.5,0.3-3.4-1.8-4.4l-2.6-1.2
					L78,73.2c0.5,0.2,0.5,0.5,0.2,1.2L76.6,78z"/>
				<path class="st1" d="M87.6,81.9c-0.2,0.7,0,1,0.5,1.1l0,0.2l-2.2-0.5l0-0.2c0.5,0.1,0.7,0,0.9-0.8l0.8-3.8c0.2-0.8,0-1-0.5-1.1
					l0-0.2l2.2,0.5l0,0.2c-0.5-0.1-0.7,0.1-0.9,0.8L87.6,81.9z"/>
				<path class="st1" d="M98.9,83.9h-0.2l-4.5-5.4h0l0.1,4.4c0,0.6,0.3,0.9,0.8,0.8V84l-1.9,0v-0.2c0.5,0,0.8-0.2,0.8-1.1l0-3.6
					c0-0.7-0.2-1.1-0.9-1.1v-0.2l1.6,0l3.9,4.8h0l0-3.7c0-0.8-0.2-1-0.8-1v-0.2l1.9,0v0.2c-0.6,0-0.8,0.3-0.8,1L98.9,83.9z"/>
				<path class="st1" d="M105.4,79.4l-0.7-2.6l0.6-0.2c1-0.3,1.6,0.1,1.8,0.9c0.2,0.8-0.2,1.4-1.1,1.7L105.4,79.4z M105.2,81.8
					c0.2,0.7,0.1,1-0.4,1.1l0.1,0.2l2.8-0.8c1.1-0.3,1.8-1.1,1.5-2c-0.2-0.8-1-1.3-2-1.3l0,0c0.8-0.5,1-1,0.8-1.7
					c-0.2-0.8-1-1.3-2.5-0.9l-2.3,0.6l0.1,0.2c0.5-0.1,0.7,0,0.9,0.8L105.2,81.8z M105.5,79.7l0.6-0.2c1.1-0.3,1.9,0.1,2.1,1
					s-0.2,1.4-0.8,1.6l-0.5,0.1c-0.5,0.1-0.7,0-0.9-0.8L105.5,79.7z"/>
				<path class="st1" d="M118.1,76.7c-0.2,0.9-0.6,1.5-1.3,1.9c-1.3,0.8-2.4,0.2-2.9-0.8l-1.6-2.7c-0.4-0.7-0.7-0.7-1.1-0.5
					l-0.1-0.2l1.9-1.1l0.1,0.2c-0.4,0.3-0.5,0.5-0.1,1.2l1.6,2.7c0.5,0.8,1.3,1.2,2.2,0.6c0.6-0.4,1-1,1-1.8L116,73
					c-0.4-0.6-0.6-0.8-1.1-0.5l-0.1-0.2l1.9-1.1l0.1,0.2c-0.4,0.3-0.5,0.6-0.1,1.2l2,3.4c0.4,0.7,0.7,0.7,1.1,0.5l0.1,0.2l-1.3,0.8
					L118.1,76.7z"/>
				<path class="st1" d="M120.6,68.2l0.5-0.5c0.7-0.7,1.5-0.7,2.1-0.1c0.5,0.5,0.7,1.3,0,2.1l-0.5,0.5L120.6,68.2z M122.8,70.4
					l0.4-0.4c0.8-0.8,2.1,0,3.9,0.2l0.9-0.9l-0.1-0.1c-0.8,0.7-2.5-0.5-3.9-0.2c0.4-0.8,0.3-1.5-0.2-2c-0.6-0.6-1.6-0.7-2.6,0.3
					l-1.8,1.8l0.1,0.1c0.4-0.4,0.6-0.4,1.2,0.2l2.8,2.7c0.6,0.6,0.6,0.9,0.2,1.2l0.1,0.1l1.6-1.6l-0.1-0.1c-0.4,0.4-0.7,0.3-1.2-0.2
					L122.8,70.4z"/>
				<path class="st1" d="M133.1,61.7c-0.1,0.3-0.6,1.3-0.8,1.6c-1.4,2.3-3.3,2.3-4.5,1.5c-1.9-1.2-2.1-3.2-1.3-4.5
					c0.5-0.8,0.9-0.9,1.1-1.3c0.1-0.2,0.1-0.3,0-0.4l0.1-0.2l1.6,1l-0.1,0.2c-1.1-0.5-2.1,0.2-2.5,0.9c-0.7,1.1-0.2,2.5,1.2,3.4
					c1.6,0.9,3.3,0.7,4.1-0.5c0.2-0.4,0.4-0.9,0-1.2l-0.6-0.3c-0.6-0.4-1-0.4-1.2,0.1l-0.1,0.2l-0.2-0.1l1.3-2.2l0.2,0.1
					c-0.3,0.5-0.1,0.8,0.3,1.1L133.1,61.7z"/>
				<path class="st1" d="M132.9,54.5l1.7,0.5c0.7,0.2,1,0.1,1.1-0.4l0.2,0.1l-0.6,2.2l-0.2-0.1c0.1-0.5,0-0.7-0.8-0.9l-3.7-1.1
					c-0.7-0.2-1-0.1-1.1,0.4l-0.2-0.1l0.6-2.2l0.2,0.1c-0.1,0.5,0,0.7,0.8,1l1.7,0.5l0.9-3.3l-1.7-0.5c-0.7-0.2-1-0.1-1.1,0.4
					l-0.2-0.1l0.6-2.1l0.2,0.1c-0.1,0.5,0,0.8,0.8,0.9l3.7,1.1c0.7,0.2,1,0.1,1.1-0.4l0.2,0.1l-0.6,2.1l-0.2-0.1
					c0.1-0.5,0-0.7-0.8-0.9l-1.7-0.5L132.9,54.5z"/>
				<path class="st1" d="M57.6,42.6c0,0.3-0.2,0.6-0.6,0.6s-0.6-0.2-0.5-0.6c0-0.3,0.2-0.6,0.6-0.6C57.3,42.1,57.6,42.3,57.6,42.6z"
					/>
				<path class="st1" d="M135.5,42.6c0,0.3-0.2,0.6-0.6,0.5c-0.3,0-0.6-0.2-0.6-0.6s0.2-0.6,0.6-0.6
					C135.3,42.1,135.5,42.3,135.5,42.6z"/>
			</g>
			<g>
				<path class="st1" d="M112,70.9c0.4-0.2,0.8-0.5,1.3-0.8c0.4-0.2,0.7-0.4,1.1-0.7c0.3-0.2,0.6-0.5,0.9-0.7c0.4-0.2,0.7-0.5,1-0.8
					c0.1-0.1,0.1-0.1,0.2-0.2c0.1,0,0.2-0.1,0.2-0.1c0.3-0.2,0.6-0.5,0.9-0.8c0.2-0.2,0.4-0.4,0.6-0.7s0.5-0.4,0.7-0.6
					c0.1-0.1,0.1-0.2,0.2-0.3c0.2-0.2,0.4-0.4,0.6-0.6c0.1-0.2,0.2-0.3,0.4-0.4c0.4-0.4,0.8-0.9,1.2-1.3c0.3-0.3,0.6-0.7,0.9-1.1
					c0.2-0.3,0.4-0.5,0.6-0.8c0.1-0.1,0.2-0.2,0.3-0.3c0.3-0.4,0.6-0.9,0.9-1.3c0.1-0.2,0.1-0.3,0.2-0.5c0.1-0.1,0.1-0.2,0.2-0.3
					c0.1-0.1,0.1-0.3,0.2-0.4c0.2-0.4,0.4-0.7,0.6-1.1c0.2-0.3,0.3-0.6,0.5-0.8c0.1-0.3,0.2-0.6,0.4-0.9c0.1-0.3,0.3-0.6,0.4-0.9
					c0.5-1.3,1-2.6,1.3-3.9c0-0.2,0.1-0.3,0.1-0.5c0.1-0.5,0.2-1,0.3-1.5c0-0.3,0.1-0.5,0.1-0.8c0.1-0.4,0.2-0.9,0.2-1.3
					c0-0.3,0.1-0.7,0.1-1c0-0.1,0.1-0.3,0.1-0.4c0-0.3,0-0.6,0.1-0.9c0-0.2,0.1-0.3,0.1-0.4c0-0.2,0-0.4,0-0.6c0.1-1.3,0.1-2.7,0-4
					c0-0.7-0.2-1.3-0.3-2c-0.1-0.7-0.1-1.4-0.3-2c-0.4-1.8-0.9-3.6-1.5-5.3c-0.1-0.2-0.2-0.5-0.3-0.7c-0.2-0.5-0.4-1-0.7-1.5
					c-0.1-0.1-0.2-0.3-0.2-0.4c-0.2-0.4-0.3-0.9-0.6-1.3c-0.1-0.2-0.3-0.5-0.5-0.7c-0.1-0.3-0.2-0.5-0.4-0.8
					c-0.5-0.7-0.9-1.4-1.4-2.1c-0.2-0.2-0.4-0.4-0.5-0.6c-0.2-0.3-0.4-0.5-0.6-0.8c-0.2-0.2-0.4-0.4-0.6-0.6
					c-0.1-0.1-0.1-0.2-0.3-0.4c-0.1-0.2-0.3-0.3-0.4-0.5c-0.1-0.1-0.2-0.2-0.3-0.2c-0.2-0.3-0.4-0.5-0.7-0.8
					c-0.2-0.2-0.4-0.4-0.6-0.6s-0.4-0.4-0.6-0.6c-0.3-0.2-0.6-0.4-0.8-0.6c-0.3-0.2-0.6-0.5-0.9-0.8c-0.2-0.1-0.4-0.2-0.6-0.4
					c-0.2-0.2-0.5-0.4-0.7-0.5c-0.2-0.1-0.3-0.3-0.5-0.4c-0.1-0.1-0.3-0.2-0.4-0.2c-0.2-0.1-0.4-0.2-0.5-0.4c-0.6-0.4-1.2-0.6-1.8-1
					c-0.2-0.1-0.4-0.3-0.7-0.4c-0.4-0.2-0.8-0.4-1.1-0.6c-0.3-0.2-0.6-0.3-1-0.4c-0.2-0.1-0.3-0.2-0.5-0.3c-0.1,0-0.2-0.1-0.4-0.1
					c-0.2-0.1-0.4-0.2-0.6-0.3c-0.6-0.2-1.2-0.4-1.9-0.6c-0.3-0.1-0.6-0.2-0.9-0.3c-0.6-0.2-1.3-0.3-2-0.4c-0.4-0.1-0.9-0.2-1.3-0.3
					c-0.3,0-0.6-0.1-0.9-0.1c-0.5-0.1-1-0.2-1.5-0.2c-0.2,0-0.4,0-0.6,0c-0.1,0-0.3,0-0.4,0c-0.3,0-0.5,0-0.8,0
					C96.9,9,96.3,9,95.7,9c-0.2,0.1-0.6,0-0.8,0c-0.3,0-0.6,0-0.9,0c-0.1,0-0.2,0-0.3,0c-0.2,0-0.4,0-0.7,0c-0.1,0-0.2,0.1-0.4,0.1
					c-0.1,0-0.2,0-0.3,0c-0.1,0-0.2,0-0.3,0c-0.1,0-0.1,0-0.2,0c-0.1,0-0.3,0-0.4,0c-0.3,0-0.8,0-1,0.2c-0.1,0-0.1,0-0.2,0
					c-0.2,0-0.5,0-0.6,0.1c-0.5,0-0.9,0.2-1.4,0.3c-0.2,0.1-0.5,0.1-0.8,0.2c-0.2,0-0.4,0-0.6,0.1c-0.3,0-0.6,0.2-0.9,0.3
					c-0.2,0.1-0.4,0.1-0.5,0.2c-0.3,0-0.6,0.2-0.9,0.3c-0.2,0.1-0.4,0.2-0.6,0.2c-1,0.4-2,0.9-2.9,1.4c-0.2,0.1-0.3,0.2-0.5,0.3
					c-1.1,0.6-2.3,1.2-3.3,2c-0.3,0.2-0.6,0.4-0.9,0.6c-0.2,0.1-0.3,0.3-0.5,0.4c-0.3,0.2-0.6,0.4-0.9,0.6c-0.6,0.5-1.1,1-1.6,1.5
					c-0.3,0.3-0.6,0.6-1,0.9c-0.1,0.1-0.2,0.3-0.3,0.4c-0.1,0.1-0.3,0.3-0.4,0.4c-0.2,0.2-0.4,0.5-0.6,0.8c-0.2,0.2-0.4,0.4-0.6,0.6
					c-0.1,0.1-0.2,0.2-0.2,0.3c-0.3,0.4-0.7,0.8-1,1.2c-0.2,0.3-0.4,0.6-0.6,1c-0.3,0.4-0.6,0.9-0.9,1.3c-0.1,0.1-0.1,0.3-0.2,0.4
					c-0.2,0.3-0.4,0.7-0.6,1c-0.2,0.3-0.3,0.7-0.5,1c-0.1,0.1-0.2,0.3-0.2,0.4c-0.2,0.3-0.3,0.6-0.5,0.9c-0.1,0.2-0.2,0.4-0.2,0.6
					c-0.1,0.2-0.2,0.4-0.3,0.6c-0.1,0.2-0.2,0.5-0.2,0.7c-0.1,0.2-0.2,0.5-0.3,0.8c-0.5,1.6-0.9,3.2-1.2,4.8c0,0.3-0.1,0.6-0.1,0.9
					c0,0.4-0.2,0.8-0.2,1.1c0,0.3,0,0.6-0.1,0.9c0,0.2,0,0.4-0.1,0.7c-0.1,1.3,0,2.6,0,3.9c0,0.6,0.1,1.3,0.2,1.9c0,0.3,0,0.5,0,0.8
					c0.1,0.8,0.2,1.7,0.4,2.5c0.1,0.2,0.1,0.4,0.2,0.6c0.1,0.7,0.3,1.3,0.5,1.9c0.1,0.1,0.1,0.3,0.2,0.4c0,0.2,0.1,0.3,0.1,0.4
					c0.2,0.7,0.5,1.4,0.8,2.1c0.1,0.3,0.2,0.5,0.4,0.8c0.1,0.2,0.1,0.4,0.2,0.5c0.2,0.4,0.5,0.8,0.7,1.3c0.2,0.3,0.4,0.7,0.6,1
					c0.1,0.1,0.1,0.2,0.1,0.4c0.1,0.1,0.1,0.2,0.2,0.2c0.1,0.2,0.1,0.3,0.2,0.4c0.2,0.3,0.4,0.6,0.6,0.8c0.1,0.2,0.2,0.3,0.4,0.5
					c0.2,0.2,0.4,0.4,0.5,0.6c0.1,0.2,0.2,0.4,0.4,0.6c0.2,0.3,0.5,0.6,0.7,0.8c0.2,0.2,0.4,0.5,0.6,0.7c0.2,0.3,0.5,0.5,0.7,0.8
					c0.2,0.2,0.4,0.5,0.6,0.7c0.3,0.3,0.6,0.6,1,0.9c0.2,0.2,0.3,0.3,0.5,0.5c0.3,0.2,0.6,0.4,0.8,0.6s0.5,0.5,0.8,0.7
					c0.2,0.1,0.4,0.3,0.5,0.4c0.2,0.2,0.4,0.4,0.6,0.6c0.3,0.2,0.6,0.4,0.9,0.6c0.2,0.1,0.4,0.2,0.6,0.3c0.2,0.2,0.4,0.3,0.7,0.5
					c0.2,0.1,0.5,0.3,0.7,0.4c0.9,0.5,1.7,1,2.6,1.4c0.4,0.2,0.8,0.4,1.2,0.6c0.4,0.2,0.8,0.3,1.1,0.4c0.1,0,0.3,0.1,0.4,0.1
					c0.4,0.1,0.8,0.3,1.1,0.4c0.1,0,0.2,0.1,0.3,0.1c0.3,0.1,0.6,0.3,1,0.4c0.4,0.1,0.8,0.2,1.2,0.2c0.6,0.1,1.2,0.3,1.9,0.4
					c0.2,0,0.5,0,0.7,0.1c0.3,0,0.6,0.1,0.9,0.1c0.2,0,0.5,0,0.7,0.1c0.2,0,0.3,0.1,0.5,0.1c0.2,0,0.3,0,0.5,0
					c0.4,0.1,0.8,0.1,1.1,0.2c0.2,0,0.4,0,0.6,0c0.1,0,0.2,0,0.4,0c0.3,0,0.8,0,1.1,0.1c0.2,0,0.4,0,0.6,0c0.4,0,0.8-0.1,1.2-0.1
					c0.2,0,0.4,0,0.5,0c0.2,0,0.5-0.1,0.8-0.1c0.9-0.1,1.8-0.2,2.6-0.3c0.3-0.1,0.6-0.2,0.9-0.2c0.4-0.1,0.7-0.2,1.1-0.2
					c0.2-0.1,0.4-0.2,0.5-0.2c0.3-0.1,0.6-0.2,0.9-0.3c0.1-0.1,0.2-0.1,0.4-0.1c0.2-0.1,0.4-0.1,0.6-0.2c0.4-0.2,0.9-0.3,1.3-0.5
					c0.3-0.1,0.5-0.2,0.8-0.4c0.2-0.1,0.5-0.2,0.8-0.3c0.1,0,0.1-0.1,0.2-0.1c0.3-0.1,0.5-0.2,0.8-0.4c0.3-0.2,0.6-0.3,0.9-0.5
					C111.7,71.1,111.8,71,112,70.9z"/>
				<g>
					<path class="st2" d="M95.6,72.3C95.6,72.3,95.6,72.3,95.6,72.3C95.6,72.3,95.6,72.3,95.6,72.3c-0.1,0-0.1-0.1-0.1-0.1
						c-0.1-0.2-0.2-0.3-0.3-0.5c-0.2-0.3-0.5-0.5-0.7-0.8c-0.7-0.7-1.5-1.2-2.4-1.6c-0.2-0.1-0.4-0.1-0.5-0.2
						c-0.2-0.1-0.4-0.2-0.6-0.3c-0.2-0.1-0.4-0.1-0.6-0.1c-0.2,0-0.4-0.1-0.6-0.1c-0.4-0.1-0.9-0.2-1.3-0.3
						c-0.4-0.1-0.9-0.1-1.3-0.2c-0.3,0-0.7,0-1,0c-1.6-0.2-3.1-0.3-4.6-0.6c-0.5-0.1-1-0.1-1.5-0.2c-0.5-0.1-1-0.2-1.5-0.4
						c-0.3-0.1-0.5-0.1-0.8-0.2c-0.2-0.1-0.5-0.2-0.8-0.3c-0.2-0.1-0.4-0.2-0.5-0.2c-0.1-0.1-0.2-0.2-0.4-0.2
						c-0.1,0-0.1-0.1-0.2-0.1c-0.4-0.3-0.7-0.8-1.1-1.2c-0.2-0.3-0.4-0.7-0.5-1.1c-0.1-0.2-0.1-0.4-0.2-0.6
						c-0.2-0.9-0.2-1.8-0.2-2.7c0-0.2,0-0.4-0.1-0.6c0-0.7,0.1-1.4,0.1-2.1c0-0.2,0-0.3,0-0.5c0-0.7,0-1.4,0-2.1c0-0.5,0-0.9,0-1.3
						c0-1.9,0-3.8,0.1-5.7c0-0.3,0-0.5-0.1-0.8c0-0.3,0-0.6,0-0.9c0-0.1,0-0.3,0-0.4c0-0.4,0.1-0.9,0.1-1.3c0-0.3,0-0.7,0-1
						c0-0.2,0-0.5,0-0.7c0-0.2-0.1-0.4-0.1-0.6c0-0.2,0-0.4,0-0.6c0-0.4,0-0.8,0-1.2c0-0.2,0-0.5,0-0.7c0-0.3-0.1-0.5-0.1-0.8
						c0-0.3,0.1-0.6,0.1-0.9c0-0.3,0-0.6,0-0.9c0-0.7,0-1.3,0-2c0-0.1,0-0.3,0-0.4c0-0.3,0-0.6,0-0.9c0-0.2,0-0.5,0.1-0.8
						c0-1.2,0-2.4,0.1-3.6c0-0.4,0-0.8,0-1.2c0-0.3-0.1-0.6-0.1-0.9c0-0.2,0-0.4,0-0.6c0-1,0-2,0-3c0-0.4,0-0.7,0-1.1
						c0-0.4,0-0.8,0-1.3c0-0.3,0-0.5,0-0.8c0-0.2,0-0.5,0-0.8c0-0.1,0.1,0,0.1,0c0.4-0.1,0.9-0.1,1.4,0c0.6,0.1,1.1,0,1.7,0
						c0.5,0,1,0,1.5,0c0.3,0,0.6,0,0.9,0c0.6,0,1.1,0,1.7,0c0.7,0,1.4,0,2.1,0c0.2,0,0.4,0,0.6,0c0.3,0,0.6,0,0.9,0
						c0.2,0,0.5,0.1,0.7,0.1c0.3,0,0.6,0,0.9,0c0.5,0,1,0,1.5,0c0.2,0,0.5,0,0.7,0c0.7,0,1.4,0,2.1,0c0.4,0,0.9,0,1.4,0
						c0.4,0,0.8-0.1,1.1-0.1c0.3,0,0.6,0,0.9,0c0.3,0,0.5,0,0.8,0c0.3,0,0.6,0,0.9,0.1c0.2,0,0.5,0,0.7,0c0.4,0,0.9,0,1.4,0
						c0.2,0,0.4,0,0.6,0c1.2,0,2.4,0,3.6,0c0.3,0,0.5,0,0.8,0c0.6,0,1.1,0,1.7,0c0.1,0,0.2,0,0.4,0c0.5,0,1,0,1.5,0
						c0.2,0,0.4,0,0.6,0.1c0.2,0,0.4,0,0.7,0c0.4,0,0.8,0.1,1.1,0c0.2,0,0.5,0,0.8,0c0.2,0,0.4,0,0.6,0c0.2,0,0.5,0,0.8,0
						c0.2,0,0.4,0,0.6,0.1c0.1,0,0.3,0,0.5,0c0.2,0,0.3,0,0.5,0c0.2,0,0.3,0,0.5,0c0.3,0,0.6,0,0.9,0c0.5,0,0.9,0,1.4,0
						c0.2,0,0.5,0,0.7,0c0.1,0,0.3,0,0.5,0c0.1,0,0.3,0,0.4,0c0,0,0,0,0,0c0.1,0.2,0.1,0.4,0.1,0.6c0,0.7,0,1.3,0,1.9
						c0,0.4,0,0.9,0,1.3c0,0.1,0,0.3,0,0.4c0,0.3,0,0.6,0,0.9c0,0.3,0,0.6-0.1,0.9c0,0.4,0.1,0.8,0.1,1.1c0,0.1,0,0.3-0.1,0.4
						c0,0.2,0,0.5,0,0.7c0,0.2,0,0.5-0.1,0.8c0,0.3,0,0.6,0,0.9c0,0.2,0,0.5-0.1,0.7c0,0.4,0.1,0.8,0.1,1.1c0,0.1,0,0.3,0,0.4
						c0,0.3,0,0.6,0,0.9c0,0.5,0.1,1.1,0.1,1.6c0,0.1,0,0.2,0,0.3c0,0.2,0,0.5,0,0.7c0,0.3,0,0.6,0,0.9c0,0.2,0.1,0.4,0,0.6
						c0,0.1,0,0.2-0.1,0.3c0,0.2,0,0.3,0,0.5c0,0.6-0.1,1.1-0.1,1.7c0,0.3,0,0.6,0,0.9c0,0.1,0,0.2,0,0.3c0,0.2,0,0.4,0,0.6
						c0,0.1,0,0.2,0,0.4c0,0.2,0,0.4-0.1,0.6c0,0.3,0.1,0.6,0.1,0.9c0,0.8-0.1,1.6-0.1,2.5c0,0.3,0.1,0.6,0.1,1c0,0.2,0,0.4-0.1,0.6
						c0,0.4,0,0.8,0,1.2c0,0.2,0,0.4-0.1,0.6c0,0.8,0,1.6,0,2.4c0,0.6-0.1,1.1-0.1,1.7c0,0.3,0,0.6,0,0.9c0,0.1,0,0.2,0,0.3
						c0,0.2,0,0.4,0,0.6c0,0.5,0,1,0,1.5c0,0.6,0,1.2,0,1.9c0,0.2,0,0.3,0,0.5c0,0.1,0,0.2,0,0.3c0,0.4,0,0.7-0.1,1.1
						c0,0.3,0,0.6,0,0.9c0,0.2-0.1,0.4-0.1,0.6c0,0.2-0.1,0.4-0.1,0.6c-0.1,0.4-0.3,0.9-0.5,1.2c-0.2,0.3-0.4,0.4-0.6,0.6
						c-0.1,0.1-0.3,0.2-0.4,0.3c-0.2,0.2-0.5,0.4-0.8,0.6c-0.2,0.1-0.4,0.1-0.5,0.2c-0.4,0.2-0.7,0.3-1.1,0.4
						c-0.3,0.1-0.7,0.2-1,0.3c-0.1,0-0.2,0.1-0.3,0.1c-0.2,0-0.4,0.1-0.6,0.2c-0.2,0-0.3,0-0.5,0.1c-0.2,0-0.4,0.1-0.6,0.1
						c-0.1,0-0.1,0-0.2,0.1c-0.1,0-0.2,0-0.3,0.1c-0.2,0-0.6,0.1-0.8,0.2c-0.2,0-0.4,0-0.5,0c-0.1,0-0.2,0-0.3,0.1
						c-0.1,0-0.3,0-0.5,0.1c-0.1,0-0.1,0-0.2,0c-0.1,0-0.2,0-0.4,0.1c-0.1,0-0.2,0-0.3,0.1c-0.2,0-0.5,0-0.7,0.1c-0.1,0-0.1,0-0.2,0
						c-0.2,0-0.4-0.1-0.6,0c-0.1,0-0.2,0-0.4,0c-0.1,0-0.1,0-0.2,0c-0.2,0-0.4,0-0.6,0c-0.1,0-0.1,0-0.2,0c-0.1,0-0.1,0-0.2,0
						c-0.1,0-0.1,0-0.2,0c-0.1,0-0.2,0-0.3,0c-0.1,0-0.2,0-0.4,0.1c-0.1,0-0.1,0-0.2,0c-0.1,0-0.3,0-0.4,0.1c-0.1,0-0.2,0-0.3,0.1
						c-0.1,0-0.2,0-0.3,0.1c-0.1,0-0.2,0-0.3,0.1c-0.1,0-0.1,0-0.2,0c-0.1,0-0.3,0-0.5,0.1c-0.1,0-0.2,0-0.3,0.1
						c-0.3,0-0.6,0.1-0.8,0.2c-0.2,0.1-0.4,0.1-0.6,0.2c-0.4,0-0.8,0.3-1.1,0.6c-0.2,0.2-0.6,0.3-0.8,0.5
						C96.4,70.6,96,71.5,95.6,72.3z"/>
					<path class="st1" d="M98.9,68.2c0.2-0.1,0.4-0.2,0.5-0.2c0.4-0.1,0.7-0.2,1.1-0.2c0.7-0.2,1.4-0.3,2.1-0.5c0.2,0,0.3,0,0.5,0
						c0.3-0.1,0.5-0.1,0.8-0.1c0.4,0,0.7,0,1.1,0c0.4,0,0.9-0.1,1.3-0.2c0.4,0,0.8,0,1.2-0.1c0.4-0.1,0.7-0.1,1-0.2
						c0.1,0,0.2,0,0.3,0c0.5-0.1,1.1-0.2,1.6-0.3c0.2,0,0.3-0.1,0.5-0.1c0.5-0.2,1-0.3,1.4-0.5c0.4-0.1,0.8-0.2,1.2-0.4
						c0.3-0.2,0.6-0.4,0.9-0.6c0.5-0.3,1.1-0.7,1.5-1.3c0.1-0.2,0.3-0.6,0.3-0.9c0-0.1,0-0.3,0-0.4c0.1-0.6,0.1-1.3,0.1-1.9
						c0-0.2,0-0.5,0-0.7c0-0.1,0-0.2,0-0.4c0-0.2,0-0.5,0-0.8c0-0.1,0-0.2,0-0.3c0-0.1,0-0.2,0-0.3c0-0.1,0-0.2,0-0.3
						c0-0.2,0.1-0.3,0.1-0.5c0-0.2-0.1-0.3-0.1-0.5c0-0.2,0.1-0.4,0.1-0.6c0-0.8,0-1.5,0-2.2c0-0.2,0-0.4,0-0.5c0-0.7,0-1.3,0-2
						c0-1.8,0-3.7,0.1-5.5c0-0.2,0-0.4,0-0.6c0-0.1,0-0.1,0-0.2c0-0.1,0-0.3,0-0.5c0-0.1,0-0.2,0-0.3c0-0.2,0-0.3,0-0.5
						c0-0.3-0.1-0.6-0.1-0.9c0-0.2,0-0.4,0.1-0.6c0-0.1,0-0.2,0-0.3c0-0.1,0-0.2,0.1-0.3c0-0.1,0-0.2,0-0.4c0-0.1,0-0.3,0.1-0.4
						c0-0.1,0-0.2,0-0.4c0-0.8,0-1.6,0-2.4c0-0.2,0.1-0.3,0.1-0.5c0-0.2-0.1-0.3,0-0.5c0-0.1,0-0.2,0-0.3c0-0.3,0-0.5,0-0.8
						c0-0.4,0-0.8,0-1.2c0-0.1,0-0.3-0.1-0.4c0-0.3,0.1-0.6,0.1-0.9c0-0.2,0-0.5,0-0.7c0-1.9-0.1-3.6,0-5.5c0-1,0-2,0-3
						c0-0.5,0-1.1,0-1.7c0-0.5,0-1,0-1.6c0,0,0,0,0,0c0-0.1-0.3,0-0.3,0c-0.5,0-1.1,0-1.6,0c-0.4,0-0.7,0-1.1,0c-0.1,0-0.2,0-0.3,0
						c-0.1,0-0.3,0-0.4,0c-0.2,0-0.4,0-0.6-0.1c-0.7,0-1.3,0-2,0c-0.2,0-0.7-0.1-0.8,0c-0.4,0-0.7,0-1,0c-0.3,0-0.6-0.1-0.9,0
						c-0.1,0-0.1,0-0.2,0c-0.2,0-0.5,0-0.8,0c-0.4,0-0.7-0.1-1.1-0.1c-0.3,0.1-0.7-0.1-1,0c-0.1,0-0.1,0-0.2,0c-0.3,0-0.6,0-0.9,0
						c-0.1,0-0.3,0-0.5,0c-0.1,0-0.2,0-0.3,0c-0.2,0-0.5,0-0.7-0.1c-0.6,0-1.2,0-1.8,0c-0.2,0-0.5,0-0.7,0c-0.1,0-0.1,0-0.2,0
						c-0.1,0-0.2,0-0.3,0c-0.3,0-0.9-0.2-1.2-0.1c-0.1,0-0.1,0-0.2,0c-0.1,0-0.3,0-0.4,0.1c-0.9,0-1.7,0-2.5,0c-0.2,0-0.4,0-0.7,0
						c-0.1,0-0.3,0-0.4,0c-0.2,0-0.4,0-0.6,0c-0.3,0-0.9-0.1-1.2,0c-0.2,0-0.4,0-0.6,0c-0.1,0-0.3,0-0.4,0c-0.2,0-0.4,0-0.5,0
						c-0.3,0-0.6-0.1-1-0.1c-0.1,0-0.2,0-0.4,0c-0.2,0-0.5,0-0.7,0c-0.3,0-0.6,0-1,0c-0.1,0-0.4,0-0.5,0c-0.4,0-0.8,0-1.2,0
						c-0.3,0-0.8-0.1-1,0c-0.3,0-0.7-0.1-0.9,0c-0.5,0-1.1,0-1.6-0.1c-0.2,0-0.5-0.1-0.7,0c-0.1,0-0.2,0-0.3,0c-0.2,0-0.5,0-0.7,0
						c-0.2,0-0.5,0-0.6,0c-0.7,0-1.4,0-2.1,0c-0.2,0-0.5,0-0.7,0c-0.3,0-0.8-0.1-1,0c-0.1,0-0.4,0-0.5,0c-0.2,0.2-0.1,0.9-0.1,1.2
						c0,0.2,0,0.4,0,0.6c0,0.2,0,0.4,0,0.5c0,0.3,0,0.5,0,0.8c0,0.7,0,1.4,0,2.2c0,0.2-0.1,0.3-0.1,0.5c0,0.2,0,0.4,0,0.6
						c0,0.2-0.1,0.4-0.1,0.5c0,0.4,0,0.8,0,1.2c0,0.7-0.1,1.4-0.1,2c0,0.3,0,0.5,0,0.8c0,0.1,0,0.2,0,0.3c0,0.2,0,0.3-0.1,0.5
						c0,1.2,0,2.3,0,3.5c0,0.5,0,1,0,1.5c0,0.2,0,0.5-0.1,0.8c0,0.4,0,0.8,0,1.1c0,0.7,0,1.5,0,2.3c0,0.3,0,0.5,0,0.8
						c0,0.3,0,0.7-0.1,1c0,1.4,0,2.8,0,4.2c0,0.3-0.1,0.6-0.1,1c0,0.4,0,0.7,0,1.1c0,0.2,0,0.3,0,0.5c0,1.2-0.1,2.4-0.1,3.7
						c0,0.6-0.1,1.1-0.1,1.6c0,0.2,0,0.5,0,0.7c0,0.1,0,0.2,0,0.3c0,0.1,0,0.2,0,0.3c0,0.3,0,0.6,0,0.8c0,0.3,0,0.7,0,1.1
						c0,0.2,0.1,0.3,0.1,0.5s-0.1,0.3-0.1,0.5c0,0.2,0.1,0.3,0.1,0.6c0,1.5,0,2.9,0.7,4.1c0.5,0.8,1.3,1.3,2.1,1.6
						c0.5,0.2,1.1,0.5,1.7,0.6c0.4,0.1,0.9,0.2,1.3,0.2c0.4,0.1,0.7,0.2,1.1,0.2c0.3,0,0.7,0.1,1,0.1c0.7,0.1,1.5,0.2,2.2,0.3
						c0.4,0,0.7,0,1.1,0.1c0.1,0,0.3,0.1,0.5,0.1c0.3,0,0.6,0,0.8,0c0.3,0,0.6,0.1,0.9,0.1c0.1,0,0.3,0,0.5,0c0.1,0,0.3,0.1,0.4,0.1
						c0.4,0.1,0.7,0.1,1.1,0.2c0.1,0,0.2,0.1,0.4,0.1c0.3,0.1,0.5,0.1,0.8,0.2c0.4,0.1,0.7,0.3,1.1,0.4c0.3,0.1,0.5,0.3,0.8,0.4
						c0.1,0.1,0.3,0.2,0.4,0.3c0.3,0.2,0.6,0.3,0.8,0.5c0.3,0.3,0.6,0.6,0.8,0.9c0.1,0.1,0.1,0.2,0.3,0.3c0,0.1,0,0,0.1,0
						c0-0.1,0.1-0.1,0.2-0.2c0.1-0.1,0.1-0.2,0.2-0.3c0.6-0.9,1.6-1.6,2.5-2.1C98.6,68.3,98.7,68.2,98.9,68.2z"/>
					<g>
						<g>
							<path class="st2" d="M99,24.3C99,24.3,99,24.3,99,24.3C99,24.3,99,24.3,99,24.3c-0.1-0.1-0.1-0.2-0.1-0.2
								c0-0.3,0.3-0.4,0.4-0.6C99.7,23.7,99.2,24.1,99,24.3z"/>
							<path class="st2" d="M100.5,21.9c0.1-0.1,0.2-0.3,0.3-0.4c0.1-0.1,0.2-0.2,0.3-0.3c0.2,0,0.4,0,0.6,0.1c0,0,0,0.1,0,0.1
								c-0.3,0-1.1,1-1.3,1.3c-0.1,0.1-0.2,0.4-0.3,0.4c-0.1,0-0.2,0-0.2,0c-0.2-0.1-0.1-0.3,0-0.5c0-0.1,0-0.2,0.1-0.3
								c0.1,0,0.2-0.1,0.2-0.1C100.3,22.1,100.4,22,100.5,21.9z"/>
							<path class="st2" d="M98.6,22.6c0.1-0.2,0.1-0.3,0.1-0.5c0.1-0.2,0.3-0.2,0.4-0.3c0.1-0.1,0.1-0.3,0.2-0.4
								c0.1-0.1,0.2-0.2,0.4-0.2c0.1,0,0.2,0,0.3,0c0,0.1-0.2,0.3-0.3,0.4c-0.1,0.2-0.2,0.3-0.3,0.5c-0.1,0.2-0.2,0.3-0.3,0.5
								c-0.1,0.1-0.1,0.2-0.2,0.4c-0.1,0-0.1,0.1-0.2,0.2c-0.1,0.1-0.1,0.1-0.2,0.2c-0.1,0.1-0.1,0.1-0.2,0.2
								c-0.1,0.1-0.1,0.3-0.3,0.5C98,24,97.8,24.1,97.6,24c0,0,0,0-0.1,0c0-0.1,0.4-0.7,0.5-0.8c0.1-0.1,0.2-0.1,0.3-0.2
								s0.1-0.2,0.1-0.3C98.4,22.8,98.5,22.7,98.6,22.6z"/>
							<path class="st2" d="M96.4,22.2c0-0.1,0.2-0.2,0.2-0.4c0.1-0.2,0-0.3,0.1-0.4c0.1-0.1,0.9,0,1.1-0.2c0.1,0,0.3,0,0.5,0
								c0,0,0,0,0,0.1c0,0,0,0-0.1,0c-0.2,0.3-0.3,0.7-0.5,1c-0.1,0.1-0.1,0.2-0.2,0.4c-0.1,0.1-0.1,0.3-0.2,0.4
								c-0.1,0.3-0.5,0.8-0.9,0.8c0,0,0,0,0,0c-0.1,0,0-0.3,0-0.3c0-0.1-0.1-0.2-0.1-0.4c0-0.2,0.1-0.3,0.1-0.4
								C96.5,22.6,96.3,22.4,96.4,22.2z"/>
							<path class="st2" d="M94.1,21.2c0.1-0.1,0.5,0,0.7-0.1c0.2,0.1,0.6,0,0.9,0.1c0,0.1,0,0.2,0,0.4c0,0.1,0,0.2,0.1,0.3
								c0,0.1,0,0.2-0.1,0.3c0,0.5-0.1,0.9-0.1,1.3c0,0.3,0,0.6,0.1,0.8c0,0,0,0,0,0c0,0,0,0,0,0c-0.4,0-0.8-1.1-0.9-1.4
								c-0.1-0.1-0.2-0.2-0.3-0.4C94.1,22.3,93.8,21.6,94.1,21.2z"/>
							<path class="st2" d="M91.8,21.5C91.8,21.4,91.8,21.4,91.8,21.5c0.1-0.2,0.5-0.2,0.7-0.3c0.2,0,0.4,0,0.5,0
								c0.4,0.2,0.6,0.8,0.7,1.2c0.1,0.2,0.2,0.5,0.4,0.7c0.1,0.1,0.1,0.3,0.2,0.4c0.1,0.1,0.1,0.3,0.1,0.4c0,0.1,0,0.3-0.1,0.4
								c-0.1,0-0.2,0-0.3,0C93.9,24.2,91.8,21.6,91.8,21.5C91.8,21.5,91.8,21.5,91.8,21.5C91.8,21.5,91.8,21.5,91.8,21.5z"/>
							<path class="st2" d="M90.6,21.2c0.2,0,0.3,0.1,0.5,0.2c0.2,0.2,0.4,0.5,0.6,0.7c0.1,0.1,0.1,0.3,0.3,0.4
								c0.1,0.2,0.3,0.3,0.4,0.5c0.1,0.2,0.2,0.3,0.4,0.5c0.1,0.1,0.1,0.1,0.1,0.2c0.1,0.1,0.2,0.2,0.3,0.2c0.2,0.2,0.4,0.4,0.5,0.7
								c-0.1,0,0,0-0.1,0.1c-0.2,0-0.4-0.1-0.5-0.2c-0.2-0.2-0.4-0.4-0.6-0.6c-0.1-0.1-0.3-0.2-0.4-0.3c-0.2-0.3-0.4-0.6-0.6-0.8
								c-0.1-0.1-0.3-0.2-0.5-0.3l0,0C91,22.4,91,22.2,90.9,22c-0.1-0.2-0.4-0.3-0.5-0.5c0,0,0,0,0,0c0,0,0,0,0,0
								C90.3,21.3,90.5,21.2,90.6,21.2z"/>
						</g>
						<g>
							<path class="st2" d="M97.1,27.2c0.1,0,0.2,0,0.2,0c0.2,0.1,0.5,0.5,0.4,0.7c-0.1,0.1-0.2,0.3-0.3,0.4
								c-0.1,0.1-0.2,0.2-0.3,0.2c-0.2,0-0.1-0.4-0.1-0.5c0.1-0.1,0.2-0.2,0.2-0.3C97.2,27.4,97.1,27.4,97.1,27.2z"/>
							<path class="st2" d="M97.5,26c-0.1,0.1-0.2,0.2-0.3,0.2c-0.2,0-0.2-0.2-0.4-0.4c-0.1-0.1-0.4-0.2-0.4-0.4
								c0-0.1,0.1-0.1,0.2-0.2c0,0,0,0,0,0c0.2,0,0.3,0.1,0.5,0.2c0.2,0.1,0.4,0.1,0.6,0.2c0,0,0.1,0.1,0.1,0.1
								C97.7,25.9,97.6,25.9,97.5,26z"/>
							<path class="st2" d="M97.1,29.6c0,0.2-0.5,0.3-0.7,0.2c-0.2-0.2,0.2-0.5,0.3-0.5C96.9,29.2,97.1,29.4,97.1,29.6z"/>
							<path class="st2" d="M95.9,29.4c-0.1,0-0.1-0.1-0.2-0.1c-0.1,0-0.1-0.1-0.2-0.1c-0.1-0.2-0.1-0.3-0.1-0.6c0-0.1,0-0.3,0-0.4
								c0-0.1,0.1-0.1,0.2-0.2c0.1,0,0.2,0,0.2,0c0.1,0,0.7,0.6,0.7,0.7C96.5,29,96,29.3,95.9,29.4z"/>
							<path class="st2" d="M99.2,27.5c0,0.2-0.1,0.4-0.3,0.5c0,0-0.1,0-0.1,0C98.8,27.8,99.1,27.7,99.2,27.5
								C99.2,27.5,99.2,27.5,99.2,27.5z"/>
							<path class="st2" d="M98.7,27.2c-0.1,0-0.1,0.1-0.2,0.1c-0.1,0-0.1-0.1-0.2-0.2c0-0.1,0-1,0-1.1c0-0.1,0.2-0.2,0.3-0.3
								c0.2,0.1,0.2,0.2,0.3,0.4C99,26.5,99.1,26.9,98.7,27.2z"/>
							<path class="st2" d="M98.3,28.8C98.4,28.8,98.4,28.8,98.3,28.8c0,0.2-0.4,0.4-0.5,0.3c-0.2-0.2,0-0.3,0.1-0.4
								C98.1,28.7,98.3,28.7,98.3,28.8z"/>
							<path class="st2" d="M95.7,25.8c0.1,0,0.2,0,0.3,0c0.2,0.1,0.8,0.5,0.7,0.8c-0.1,0.2-0.2,0.3-0.4,0.5s-0.3,0.3-0.6,0.3
								c-0.2,0-0.5-0.9-0.5-1.1C95.3,26.2,95.6,25.8,95.7,25.8C95.7,25.8,95.7,25.8,95.7,25.8z"/>
							<path class="st2" d="M95,28.1c-0.1,0.1-0.3,0.3-0.4,0.3c-0.1,0-0.2-0.1-0.3-0.1c-0.2-0.2-0.3-0.5-0.3-0.8
								c0-0.1,0.1-0.2,0.1-0.2c0.1-0.2,0.1-0.3,0.2-0.5c0.2,0.1,1,0.6,0.9,1C95.3,27.9,95.1,28,95,28.1z"/>
							<path class="st2" d="M95.2,29.7C95.2,29.7,95.1,29.7,95.2,29.7c0,0-0.1,0-0.2,0c-0.4-0.1-0.9-0.2-0.6-0.7c0.1,0,0.1,0,0.2,0
								c0.1,0.1,0.1,0.2,0.2,0.3C94.9,29.5,95.1,29.5,95.2,29.7z"/>
							<path class="st2" d="M93.2,26c0,0,0.2-0.2,0.3-0.3c0,0,0,0,0,0c0.4,0.2,0.7,0.7,0.3,1c-0.1,0.1-0.2,0.2-0.3,0.2
								c-0.3,0-0.2-0.4-0.2-0.5C93.2,26.3,93.2,26.2,93.2,26z"/>
							<path class="st2" d="M93.8,25.5C93.8,25.5,93.8,25.4,93.8,25.5c0.1-0.1,0.1-0.1,0.2-0.1c0.4,0,0.6-0.1,0.9-0.3
								c0.1,0,0.2,0,0.3,0.1c0.2,0.2-0.6,0.8-0.8,0.8C94.1,25.9,94,25.6,93.8,25.5z"/>
							<path class="st2" d="M93.4,27.9c0.1,0,0.1,0,0.2,0c0.1,0.1,0.6,0.6,0.7,0.7c0,0.2-0.4,0.5-0.5,0.5c-0.1,0-0.1-0.1-0.2-0.2
								C93.3,28.6,93.3,28.3,93.4,27.9z"/>
							<path class="st2" d="M92.8,27.6c-0.3,0.1-0.2-0.5-0.2-0.7C92.8,27,93.2,27.5,92.8,27.6z"/>
						</g>
						<g>
							<path class="st2" d="M96.4,57.5c0-0.1,0.6-1,0.7-1.1c0.1-0.1,0.1-0.1,0.2-0.1c0,0,0,0,0,0c0.1,0,0.3,0,0.4,0
								c0,0.2-0.7,1.2-0.9,1.3C96.7,57.6,96.5,57.6,96.4,57.5C96.4,57.6,96.4,57.5,96.4,57.5C96.4,57.5,96.4,57.5,96.4,57.5z"/>
							<path class="st2" d="M92,57.4c-0.2,0.1-0.4,0-0.6,0c0-0.3,1.1-1,1.3-1.2c0.1,0,0.3,0,0.4,0C93.1,56.5,92.2,57.4,92,57.4z"/>
							<path class="st2" d="M99.8,63.1c-0.2,0.1-0.4-0.1-0.5-0.2c-0.1-0.2-0.1-0.3-0.2-0.5c-0.1-0.3-0.2-0.6-0.3-0.8
								c-0.1-0.2-0.2-0.4-0.2-0.6c0-0.1,0.1-0.2,0.2-0.3c0.1,0,0.1,0.1,0.2,0.1c0.1,0.1,0.1,0.2,0.1,0.3c0.1,0.3,0.2,0.5,0.3,0.8
								c0.1,0.3,0.2,0.6,0.4,0.9C99.8,62.9,99.9,63.1,99.8,63.1z"/>
							<path class="st2" d="M98.9,56.2c0.1,0.2,1,1.1,0.9,1.3c0,0-0.1,0.1-0.1,0.1c-0.2,0-0.5,0-0.8,0c-0.4,0-0.9,0-1.3,0
								c0,0,0,0,0,0c0,0,0,0,0,0c0-0.1,0.1-0.2,0.1-0.3c0.1-0.3,0.7-1,0.6-1.3c0-0.1-0.1-0.2-0.2-0.2c-0.4-0.1-0.8,0-1.1,0
								c-0.2,0-0.7-0.1-0.8,0c-0.4,0-1.7-0.2-1.9,0.1c0,0.1,0,0.2,0.1,0.2c0.1,0.3,0.4,0.6,0.6,0.9c0.1,0.2,0.2,0.3,0.3,0.5
								c0,0,0,0,0,0c0,0-0.1,0-0.1,0c-0.8,0-1.6,0-2.4,0c0,0,0,0,0-0.1c0,0,1.2-1.4,1.3-1.6c0,0,0,0,0-0.1c-0.1,0-0.3,0-0.4-0.1
								c-0.2,0-0.5,0-0.7,0c-0.7,0-1.4,0-2.1,0c0-0.1,1-1,1.1-1.2c0.8-0.9,1.7-1.7,2.6-2.6c0.3-0.3,0.6-0.6,0.9-0.9
								c0.1-0.1,0.2-0.2,0.3-0.2c0,0,0,0,0-0.1c0.2,0.1,0.4,0.3,0.5,0.5c0.3,0.3,0.5,0.5,0.8,0.8c0.2,0.2,0.3,0.3,0.5,0.5
								c0.7,0.8,1.5,1.5,2.3,2.3c0.3,0.3,0.7,0.6,1,1c-0.1,0-0.1,0-0.2,0c-0.2,0-0.5,0-0.7,0c-0.1,0-0.2,0-0.3,0c-0.3,0-0.7,0-1,0.1
								C98.6,56,98.8,56.1,98.9,56.2z"/>
							<path class="st2" d="M90.7,59.5c0.1-0.2,2.3,0,2.7,0c0.6,0,1.1-0.1,1.6-0.1c0.8,0,1.5,0.1,2.3,0.1c0.4,0,0.8,0,1.2,0
								c0.9,0,1.9,0,2.7,0c0,0,0,0,0,0c0.1,0,0.1-0.2,0.1-0.3c0-0.6,0-1.2,0-1.8c0-0.4,0-0.8,0.1-1.2c0.5,0.2,0.4,0.8,0.4,1.4
								c0,0.3,0,0.7,0,1c0,0.2,0,0.4-0.1,0.6c0,0.3,0.1,0.6,0,0.8c0,0,0,0,0,0.1c0,0,0,0,0,0c0-0.1-0.2,0-0.2,0c-0.5,0-0.9,0-1.4,0
								c-0.2,0-0.5,0-0.7,0c-0.2,0-0.4,0-0.6,0c-0.5,0-1,0-1.6,0c-0.2,0-0.6-0.1-0.8,0c-0.4,0-0.8,0-1.1,0c-0.1,0-0.2,0-0.3,0
								c-0.2,0-0.7-0.1-0.9,0c-0.1,0-0.3,0-0.4,0c-0.4,0-0.7,0-1.1,0c-0.2,0-0.5,0-0.7,0c-0.1,0-0.1,0-0.2,0c-0.1,0-0.2,0-0.3,0
								c-0.4,0-0.8,0.1-1-0.3C90.7,59.6,90.7,59.6,90.7,59.5z"/>
							<path class="st2" d="M101.7,66.7c-0.1,0.1-0.3,0.2-0.5,0.2c0-0.7,0-1.5,0-2.2c0-0.2,0-0.4,0-0.7c0-0.1,0.1-0.1,0.1-0.2
								c0.1,0,0.3,0,0.4,0.1c0,0,0.1,0.3,0,0.4c0,0.2,0,0.3,0,0.5c0,0.3,0,0.5,0,0.8C101.8,65.8,101.8,66.5,101.7,66.7z"/>
							<path class="st2" d="M110.3,65.8c-0.1,0-0.2,0-0.3,0.1c-0.1,0-0.4,0.1-0.6,0.1c-0.3,0-0.5,0.1-0.7,0.2
								c-0.2,0-0.3,0.1-0.5,0.1c-0.1,0-0.2,0-0.4,0.1c-0.1,0-0.1,0-0.2,0c-0.1,0-0.1,0-0.2,0c-0.2,0-0.4,0-0.5,0.1
								c-0.1,0-0.1,0-0.2,0c-0.3,0-0.6,0-0.8,0.1c-0.1,0-0.2,0-0.3,0c-0.1,0-0.2,0-0.3-0.1c0,0.1-0.4,0.1-0.4,0.1
								c-0.2,0-0.4,0-0.6,0c-0.1,0-0.1,0-0.2,0c-0.2,0-0.4,0-0.6,0.1c-0.1,0-0.3,0-0.4,0.1c-0.2,0-0.7,0.1-0.8,0
								c-0.2-0.2-0.1-2-0.1-2.3c0-0.2,0-0.3,0-0.5c0-0.2,0.1-0.8-0.3-0.7c-0.2,0-0.6,0-0.7,0c-0.2,0-0.7,0-0.8-0.1
								c-0.2-0.2-0.3-0.9-0.4-1.2c-0.2-0.4-0.4-0.8-0.5-1.2c0-0.1,0-0.1,0-0.2c0.1-0.1,0.5-0.1,0.6-0.1c0.3,0,1.9,0,2-0.2
								c0.1-0.1,0.1-0.6,0-0.8c0-0.3,0-0.6,0-0.8c0-0.4-0.1-0.9,0.1-1.3c1,1.1,2.1,2,3.1,3.1c0.1,0.1,0.2,0.2,0.3,0.3
								c0.2,0.2,0.5,0.5,0.8,0.7c0.7,0.7,1.3,1.4,2,2.1c0.5,0.5,1.1,1.1,1.6,1.6c0.1,0.1,0.3,0.2,0.3,0.3
								C110.6,65.7,110.4,65.7,110.3,65.8z"/>
							<path class="st2" d="M108.4,38.4c0.2-0.2,0.3-0.4,0.5-0.6c0.2-0.2,0.4-0.3,0.6-0.5c0.2-0.3,0.5-0.5,0.8-0.8
								c0.3-0.3,0.6-0.5,0.9-0.8c0.6-0.6,1.1-1.2,1.7-1.7c0.9-0.8,1.7-1.6,2.5-2.5c0.2-0.2,0.5-0.4,0.7-0.7c0.1,0.2,0,0.7,0.1,1
								c0,0.6,0,1.3,0,2c0,0.3,0,0.7,0,1c0,0.3,0,0.7-0.1,1c0,0.2,0,0.4,0.1,0.6c0,0.1,0,0.2,0,0.3c0,0.1,0,0.2,0,0.3
								c0,0.1,0,0.2,0,0.3c0,0.5-0.1,1.1,0,1.6c0,0.3,0.1,0.6,0.1,0.8c0,0.2,0,0.3-0.1,0.5c0,0.3,0,0.7,0,1c0,0.1,0,0.2,0,0.3
								c0,0.2,0.1,0.4,0.1,0.7c0,0.3-0.1,0.6-0.1,0.9c0,0.4,0.1,0.8,0.1,1.2c0,0.2,0,0.5-0.1,0.7c0,0.1,0,0.2,0,0.3
								c0,0.3,0,0.5,0,0.8c0,0.2,0,0.4,0,0.6c0,0.1,0,0.3-0.1,0.4c0,0.3,0,0.6,0,0.8c0.1,0.4,0,0.9,0,1.3c0,0.1,0,0.2,0,0.3
								c0,0.2,0.1,0.5,0,0.7c0,0.1,0,0.3-0.1,0.4c0,0.1,0,0.3,0,0.4c0,0.2,0,0.4,0,0.6c0,0.2,0.1,1.2-0.1,1.2c-0.1,0-1-1-1.2-1.2
								c-1.1-1.2-2.3-2.3-3.4-3.5c-0.2-0.2-0.3-0.4-0.5-0.6c-0.2-0.2-0.3-0.3-0.5-0.5c-0.1-0.1-0.2-0.2-0.2-0.3
								c-1.1-1.1-2.2-2.2-3.3-3.3c-0.2-0.2-1.6-1.6-1.6-1.7c0,0,0-0.1,0-0.1c0.1-0.3,0.6-0.6,0.8-0.8c0.2-0.2,0.4-0.5,0.6-0.7
								c0.2-0.2,0.4-0.4,0.6-0.6c0.1-0.1,0.2-0.1,0.2-0.2c0.2-0.2,0.4-0.4,0.5-0.6C108.1,38.8,108.3,38.6,108.4,38.4z"/>
							<path class="st2" d="M101.8,22.4c0.1-0.1,0.2-0.1,0.3-0.2c0.1-0.1,0.1-0.2,0.2-0.3c0.1-0.2,0.3-0.4,0.5-0.6
								c0.1-0.1,0.1-0.1,0.2-0.2c0.1-0.1,0.3,0,0.5,0c0.3,0,0.6,0,0.9,0c0.1,0,0.3,0,0.4-0.1c0.2,0,0.4,0,0.7,0
								c0.2,0,0.5,0.1,0.8,0.1c0.2,0,0.4-0.1,0.7-0.1c0.1,0,0.1,0,0.2,0c0.3,0,0.6,0,0.9,0c0,0,0,0,0,0c0,0,0,0,0,0c0,0,0,0,0,0
								c0,0,0,0,0,0c-0.3,0.4-0.7,0.7-1,1c-0.6,0.6-1.2,1.2-1.9,1.8c-0.1,0.1-0.3,0.2-0.4,0.4c-0.6,0.6-1.1,1.2-1.6,1.7
								c-0.2,0.2-0.4,0.4-0.6,0.6c-0.1,0.1-0.2,0.2-0.3,0.3c-0.1,0.2-0.3,0.3-0.4,0.5c-0.3,0.4-0.7,0.7-1.1,1.1
								c-0.2,0.2-0.3,0.4-0.5,0.6c-0.4,0.4-0.8,0.7-1.1,1.1c-0.6,0.6-1.3,1.3-1.9,1.9c-0.2,0.2-0.4,0.5-0.6,0.6c0,0,0,0,0,0
								c0,0,0,0,0,0c0,0,0,0,0,0c0,0,0,0,0,0c0-0.1,0-0.2,0-0.3c0-0.2,0-0.4,0-0.6c0-0.1,0.1-0.2,0.1-0.3c0-0.2-0.1-0.4,0-0.5
								c0.1-0.1,0.2-0.2,0.3-0.2c0.2-0.2,0.3-0.4,0.5-0.5c0.2-0.1,0.5-0.2,0.7-0.3c0.1-0.1,0.3-0.2,0.4-0.3c0.3-0.2,0.7-0.4,0.9-0.7
								c0.1-0.1,0.1-0.2,0.2-0.4c0.1-0.1,0.1-0.2,0.2-0.3c0.1-0.2,0.1-0.3,0.1-0.5c0.1-0.2,0.2-0.4,0.2-0.7c0-0.2-0.1-0.4-0.1-0.7
								c0-0.3-0.2-0.5-0.4-0.8c-0.1-0.1-0.2-0.2-0.2-0.3c-0.1,0,0-0.1,0-0.1c0.1-0.1,0.1-0.1,0.1-0.2c0.2-0.3,0.4-0.6,0.7-0.8
								c0.1-0.1,0.2-0.3,0.3-0.4c0.1-0.2,0.3-0.2,0.5-0.4c0.1-0.1,0.1-0.2,0.2-0.3c0.1-0.1,0.1-0.2,0.2-0.3c0.1-0.1,0.2-0.1,0.3-0.2
								C101.7,22.5,101.7,22.4,101.8,22.4z"/>
							<path class="st2" d="M85.1,21.1c0.3,0,0.6,0,0.9,0c0.2,0,0.4,0,0.7,0c0.2,0,0.4,0,0.5,0c0.2,0,0.5,0,0.7,0
								c0.1,0,0.2,0,0.3,0.1c0.2,0,0.5-0.2,0.7-0.1c0.2,0.1,0.5,0.4,0.7,0.6c0.3,0.3,0.6,0.6,0.9,0.9c0.2,0.2,0.4,0.5,0.6,0.7
								c0.3,0.3,0.5,0.5,0.8,0.7c0.1,0.2,0.2,0.3,0.4,0.5c0.1,0.1,0.2,0.1,0.3,0.2c0.2,0.1,0.3,0.3,0.4,0.5c-0.1,0-0.2,0.2-0.3,0.3
								c-0.2,0.2-0.4,0.5-0.5,0.8c0,0.1,0,0.3-0.1,0.4c0,0.2-0.1,0.4-0.1,0.7c0,0.2,0.1,0.3,0.1,0.5c0.1,0.2,0.1,0.3,0.2,0.5
								c0.1,0.2,0.1,0.4,0.2,0.5c0.1,0.1,0.2,0.2,0.4,0.2c0.1,0.1,0.2,0.2,0.3,0.3c0.1,0,0.2,0.1,0.3,0.2c0.1,0.1,0.3,0.2,0.4,0.3
								c0.2,0.1,0.4,0.2,0.6,0.4c0.1,0.2,0.2,0.3,0.3,0.5c0.1,0.1,0.3,0.2,0.3,0.4c0.1,0.1,0.1,0.2,0.1,0.4c0,0.1,0,0.2,0,0.3
								c0.1,0.3,0.2,0.6,0.1,0.9c-0.2,0-0.7-0.6-0.9-0.8c-0.4-0.3-0.7-0.7-1.1-1c-0.3-0.3-0.5-0.6-0.8-0.8c-0.5-0.5-1.1-1-1.6-1.6
								c-0.3-0.3-0.6-0.6-0.8-0.8c-0.1-0.1-0.2-0.3-0.4-0.4c-0.9-0.9-1.9-1.8-2.8-2.8c-0.2-0.3-0.5-0.5-0.8-0.8
								c-0.5-0.5-1-1.1-1.6-1.6c-0.3-0.3-0.9-0.6-1-1C84.3,21.1,84.7,21.1,85.1,21.1z"/>
							<path class="st2" d="M79.1,49.5c-0.4,0.4-0.8,0.8-1.2,1.2c-0.6,0.6-1.2,1.2-1.8,1.8c-0.2,0.2-0.5,0.4-0.6,0.7c0,0,0,0,0,0
								c0,0.1-0.1-0.1-0.1-0.2c0-0.2,0-0.4,0-0.6c0-0.6,0-1.3,0-1.9c0-0.5,0-1,0-1.5c0-0.2,0-0.3,0-0.5c0-0.5,0-1,0-1.5
								c0-0.2,0-0.4,0-0.6c0-0.3,0-0.6,0-0.9c0-0.2,0-0.4,0-0.6c0-0.6,0-1.1,0-1.6c0-0.2,0-0.3,0-0.5c0-0.2,0-0.4,0.1-0.6
								c0-0.5,0-0.9,0-1.3c0-0.3,0-0.7,0.1-1c0-0.7,0-1.4,0-2.2c0-0.3,0-0.7,0.1-1c0-0.2,0-0.4,0-0.6c0-0.7,0-1.5,0-2.2
								c0-0.2,0-0.3,0-0.5c0-0.2,0-0.4,0-0.6c0-0.2,0-0.4,0-0.6c0-0.1,0-0.2,0.1-0.4c0-0.3,0-0.7,0-1c0.3,0.1,0.5,0.4,0.8,0.7
								c0.5,0.5,1,1,1.5,1.4c0.2,0.2,0.3,0.4,0.5,0.6c0.4,0.3,0.8,0.7,1.1,1.1c0.1,0.1,0.2,0.3,0.4,0.4c0.2,0.2,0.5,0.4,0.8,0.7
								c0.1,0.1,0.2,0.2,0.3,0.3c0.6,0.6,1.2,1.1,1.8,1.6c0.6,0.6,1.1,1.1,1.7,1.7c0.4,0.3,2.6,2.4,2.4,2.7c0,0.1-0.1,0.1-0.1,0.2
								c-0.3,0.4-0.9,0.9-1.3,1.3c-0.1,0.1-0.2,0.3-0.4,0.4c-0.3,0.3-0.6,0.7-1,1c-0.4,0.4-0.9,0.9-1.4,1.3
								c-0.3,0.3-0.6,0.6-0.9,0.9c-0.1,0.1-0.1,0.2-0.2,0.3C80.6,48.1,79.8,48.8,79.1,49.5z"/>
							<path class="st2" d="M91.3,63.2c-0.2,0-1.1-0.1-1.2,0c-0.1,0-0.1,0.1-0.1,0.2c0,0.8,0,1.5,0,2.3c0,0.3,0,0.8,0,1.2
								c0,0.1-0.1,0.2-0.1,0.2c0,0,0,0,0,0c-0.2,0-0.4-0.1-0.7-0.1c-0.2,0-0.4,0-0.6,0c-0.1,0-0.3,0-0.5-0.1c-0.3,0-0.6-0.1-0.9-0.1
								c-0.1,0-0.3,0-0.4,0c-0.7,0-1.3-0.1-2-0.2c-0.3,0-0.6,0-0.9-0.1c-0.2,0-0.5-0.1-0.7-0.1c-0.1,0-0.2-0.1-0.3-0.1
								c-0.1,0-0.3,0-0.5,0c-0.4-0.1-0.7-0.1-1-0.2c-0.3,0-0.6,0-0.8-0.2c0,0,0,0,0,0c0,0,0,0,0-0.1c0,0,0,0,0,0
								c0.1-0.2,0.4-0.5,0.7-0.7c0.2-0.2,0.4-0.4,0.6-0.6c0.3-0.3,0.6-0.6,1-0.9c0.1-0.2,0.3-0.3,0.5-0.4c0.1-0.1,0.3-0.3,0.4-0.4
								c0.8-0.8,1.6-1.5,2.4-2.3c0.5-0.5,0.9-1,1.4-1.5c0.7-0.7,1.4-1.3,2-2c0.2-0.2,0.4-0.4,0.6-0.6c0.1,0.2,0.1,0.8,0,1.1
								c0,0.4,0,0.7,0,1.1c0,0.2,0,0.5,0.1,0.7c0.1,0.2,0.2,0.4,0.3,0.6c0.1,0.1,0.1,0.2,0.2,0.3c0.2,0.1,0.7,0.1,1,0.1
								c0.4,0,0.8,0,1.3,0c0,0.3-0.2,0.6-0.3,0.9c-0.2,0.4-0.4,0.9-0.5,1.3c-0.1,0.2-0.1,0.4-0.2,0.5c-0.1,0.1-0.2,0-0.3,0.1
								C91.4,63.2,91.3,63.2,91.3,63.2z"/>
							<path class="st2" d="M93.3,68.3c-0.3,0-0.6-0.2-0.8-0.3c-0.2-0.1-0.5-0.1-0.6-0.2c0,0,0,0,0,0c0,0,0,0,0,0c0,0,0,0,0,0
								c0,0,0,0,0,0c0.4,0,2.4,0.1,2.6-0.1c0.1-0.1,0.1-0.5,0.1-0.6c0-0.9-0.1-2.2,0.8-2.7c0.1-0.1,0.3-0.1,0.4-0.1
								c0.2,0,0.8,0.1,0.8,0.4c0,0.1-0.1,0.1-0.2,0.1c-0.6,0.1-0.7,0.4-0.9,0.8c-0.2,0.4-0.2,1-0.2,1.4s0,0.9,0,1.3c0,0,0,0,0,0
								c0,0.1-0.3,0-0.4,0c-0.2,0-0.3,0-0.4,0.1C94,68.3,93.6,68.3,93.3,68.3z"/>
							<path class="st2" d="M96.5,68.9c-0.1,0.1-0.2,0.2-0.3,0.4c-0.2,0.2-0.5,0.5-0.7,0.8c0,0,0,0,0,0c-0.2-0.2-0.4-0.4-0.5-0.6
								c-0.2-0.2-0.5-0.4-0.7-0.5c0,0,0,0,0,0c0,0,0,0,0,0c0,0,0,0,0,0c0,0,0,0,0,0c0-0.1,0.1,0,0.1,0c0.1,0,0.2-0.1,0.3-0.1
								c0.3,0,0.7,0,1,0c0-0.1,0-0.1,0.1-0.2c0-0.1,0-0.3,0-0.4c0-0.1,0-0.3,0-0.4c0-0.1,0-0.3,0-0.4c0-0.3,0-0.6,0-0.9
								c0-0.2,0.1-0.3,0.1-0.5c0-0.2,0.1-0.4,0.2-0.6c0.1-0.2,0.3-0.1,0.5-0.2c0.1,0,0.1,0.1,0.1,0.1c0.1,0.2,0,0.4,0,0.7
								c0,0.5,0,1,0,1.5c0,0.1,0.1,0.2,0.1,0.3c0.1,0.2,0.1,0.3,0.2,0.5c0,0,0,0,0,0C96.9,68.6,96.7,68.8,96.5,68.9z"/>
							<path class="st2" d="M97.6,68.1c-0.1-0.1-0.2-0.4-0.2-0.6c0.1,0,0.3,0,0.4,0c0.3,0,0.7,0,1,0c0,0,0,0,0,0.1
								c-0.1,0-0.2,0.1-0.3,0.1C98.2,67.9,97.9,68,97.6,68.1C97.7,68.2,97.6,68.2,97.6,68.1z"/>
						</g>
						<g>
							<g>
								<path class="st2" d="M87.7,44.5c0-0.3,0.1-0.5,0.1-0.8c0-0.3,0-0.6-0.1-0.9c0-0.5,0.1-1,0.1-1.4c0-0.3,0-0.6,0-0.9
									c0-0.2,0-0.4,0-0.7c0-0.2,0-0.4-0.1-0.7c0-0.4,0.1-0.7,0.1-1c0-0.2,0-0.4-0.1-0.6c0-0.1,0-0.2,0-0.3c0-0.4,0.1-0.8,0.1-1.3
									c0-0.3-0.1-0.7,0-1c0.1-0.3,0.9-1.2,1.1-1.3c0,0,0,0,0,0c0.1,0.2,0,0.5,0,0.8c0,0.3-0.1,0.6,0,0.9c0,0.2,0,0.4,0.1,0.6
									c0,0.4,0,0.7,0,1.1c0,0.2,0,0.3,0,0.5c0,0.2,0,0.4,0,0.6c0,0.5,0,1.1,0,1.6c0,0.6-0.1,1.2-0.1,1.7c0,0.2,0,0.4,0.1,0.6
									c0,0.4,0,0.9,0,1.3c0,0.2,0,0.4-0.1,0.6c0,0.3,0,0.7,0,1c0,0.4,0.1,1.1-0.1,1.5c0,0.1-0.2,0.2-0.2,0.3
									c-0.1,0.1-0.2,0.3-0.3,0.4c-0.1,0.1-0.2,0.2-0.3,0.3c-0.1,0.2-0.2,0.4-0.3,0.6c0,0,0,0,0,0c0,0,0,0,0,0c0,0,0,0,0,0
									c0-0.5-0.1-1.1-0.1-1.7c0-0.3,0.1-0.7,0.1-1C87.7,44.9,87.6,44.7,87.7,44.5z"/>
								<path class="st2" d="M88.2,48.1c0.1-0.3,0.3-0.4,0.5-0.7c0.1-0.1,0.3-0.3,0.4-0.4c0.7-0.5,1.9-0.5,2.8-0.3
									c0.2,0.1,0.4,0.1,0.5,0.2c0.6,0.1,1.1,0.2,1.6,0.5c0.3,0.2,0.6,0.4,0.9,0.7c0.1,0.1,0.2,0.1,0.2,0.2
									c0.1,0.1,0.3,0.3,0.5,0.3c0.3,0,0.4-0.3,0.6-0.5c0.2-0.2,0.4-0.3,0.7-0.5c0.7-0.3,1.4-0.7,2.1-0.8c0.3-0.1,0.5-0.1,0.8-0.2
									c0.1,0,0.3,0,0.5-0.1c0.2,0,0.5,0,0.7,0c0.4,0.1,0.8,0.2,1.1,0.5c0.1,0.2,0.3,0.3,0.4,0.4c0.2,0.2,0.4,0.5,0.5,0.8
									c0,0,0,0,0,0c0,0.1-0.2,0-0.3,0c-0.6,0-1.2,0-1.8,0c-0.2,0-0.5,0-0.7,0.1c-0.2,0-0.5-0.1-0.7,0c-0.1,0-0.1,0-0.2,0
									c-0.2,0-0.5,0-0.7,0.1c-0.1,0-0.2,0-0.3,0.1c-0.2,0-0.6-0.1-0.8,0c-0.1,0-0.2,0-0.3,0s-0.2,0-0.3,0c-0.1,0-0.3,0-0.4,0.1
									c-0.1,0,0,0.2,0,0.2c0,0.5-0.4,1-0.9,1c-0.4,0-0.8-0.3-0.8-0.7c0-0.1,0-0.3-0.1-0.4c0,0-0.1-0.1-0.2-0.1c-0.2,0-0.4,0-0.6,0
									c-0.1,0-0.1,0-0.1,0c-0.5,0-0.9-0.1-1.4-0.1c-0.1,0-0.3,0-0.4,0c-0.4,0-0.7,0-1,0c-0.2,0-0.4,0-0.5,0.1c-0.5,0-1,0-1.5,0
									c-0.2,0-0.4,0-0.6,0c-0.1,0-0.3,0-0.4-0.1C88.1,48.3,88.2,48.2,88.2,48.1z"/>
							</g>
							<g>
								<path class="st2" d="M103.9,36.6c0-0.3-0.1-0.6-0.1-0.8c0-0.1,0-0.3,0-0.4c0-0.1,0-0.3,0-0.3c0,0,0,0,0,0c0,0-0.1,0-0.1,0
									c-0.1,0.6,0,1.2,0,1.8c0,0.2-0.1,0.4-0.1,0.6c0,0.1,0,0.2,0,0.3c0,0.1,0,0.2,0,0.3c-0.1,0-0.2,0-0.3-0.2
									c0-0.2,0.1-0.4,0.1-0.5c0-0.1,0-0.2,0-0.4c0-0.7,0.1-1.4,0.1-2.1c0-0.1,0-0.2,0-0.3c0-0.1,0-0.1,0-0.2c0,0-0.1,0-0.1,0
									c0,0,0,0,0,0c0,0,0,0,0,0c0,0.5-0.1,0.9-0.1,1.4c0,0.1,0,0.2-0.1,0.3c0,0-0.1,0-0.1,0c-0.1-0.4-0.1-0.9-0.1-1.3
									c0-0.2,0-0.5-0.1-0.7c-0.1,0.2-0.1,0.3-0.1,0.5c0,0.2,0,0.5,0,0.8c0,0.3,0.1,0.5,0,0.8c-0.1,1.7-0.1,3.3-0.1,4.9
									c0,0.3,0,0.7,0,1c0,0.3-0.1,0.6-0.1,0.9c0,0.4,0,0.9,0,1.3c0,0.4-0.1,0.9,0,1.3c0,0.1,0,0.2,0.1,0.2c0,0,0,0,0,0
									c0,0,0,0,0,0c0,0,0,0,0,0c0,0,0,0,0,0c0.1-0.2,0.1-0.5,0.1-0.8c0-0.4,0.1-0.9,0.1-1.4c0-0.3-0.1-0.7,0-0.9
									c0-0.1,0.1-0.1,0.1-0.1c0.1,0,0.1,0.2,0.1,0.3c0.1,0.3,0,0.7,0,1.1c0,0.3,0,0.6,0,0.9c0,0.3,0,0.7,0,0.9c0,0.2,0,0.3,0,0.5
									c0,0.1,0.1,0.3,0.2,0.3c0-0.5,0.1-1,0.1-1.5c0-0.2,0-0.5,0-0.7c0-0.2,0-0.5,0.1-0.7c0-0.2,0.1-0.3,0.1-0.5
									c0-0.2-0.1-0.4-0.1-0.6c0-0.3,0-0.6,0-1c0-0.2,0-0.4,0.1-0.5c0-0.1,0.1-0.1,0.1-0.2c0,0,0,0,0,0c0.1,0.1,0.2,0.2,0.2,0.3
									c0.1,0.3,0,0.8,0,1.2c0,0.1-0.1,0.2-0.1,0.4c0,0.3,0.1,0.7,0.1,1c0,0.1,0,0.3,0,0.4c0,0.6,0,1.1,0,1.7c0,0.4,0,0.9,0.1,1.3
									c0,0.1,0,0.2,0,0.2c0,0,0.1,0,0.1,0c0.1-0.2,0.1-0.6,0.1-0.9c0-0.3,0.1-0.7,0-1c0-0.2-0.1-0.4-0.1-0.7
									c0-0.2,0.1-0.4,0.1-0.7c0-0.4-0.1-0.7-0.1-1c0-0.4,0-0.8,0.1-1.1c0-0.3,0-0.6,0-0.9c0-0.1,0-0.2,0-0.3
									c0-0.2,0.1-0.3,0.1-0.5c0-0.3,0-0.6,0-0.9c0-0.5,0-0.9,0-1.4C103.9,37.6,103.9,37.1,103.9,36.6z M102.9,41.1
									c0,0-0.2,0.3-0.2,0.1c0-0.1,0-0.2,0-0.3c0-0.3,0-0.6,0-0.8c0-0.4,0-0.7,0-1.1c0-0.3,0-0.6,0.1-0.8c0.1,0,0.1,0.1,0.2,0.2
									c0.1,0.3,0,0.7,0,1C102.9,39.8,103,40.7,102.9,41.1z M102.9,36.9C102.9,36.9,102.9,36.9,102.9,36.9c-0.2,0-0.3-0.2-0.1-0.4
									C102.9,36.5,103,36.9,102.9,36.9z M103.4,40.4C103.4,40.4,103.3,40.4,103.4,40.4c-0.1-0.2-0.1-0.4-0.1-0.7
									c0-0.3-0.1-0.7,0.1-1c0.1,0,0.2,0.1,0.2,0.1C103.6,39,103.6,40.4,103.4,40.4z"/>
								<path class="st2" d="M102.1,39.7c0-0.2,0-0.3-0.1-0.5c0-0.7,0-1.5,0-2.2c0-0.2,0-0.4,0-0.7c0-0.6,0-1.1,0-1.6
									c0-0.2-0.1-0.3-0.1-0.5c0-0.2,0-0.4,0-0.6c0-0.1,0-0.3-0.1-0.3c-0.1-0.1-0.3,0-0.5,0c-0.2,0-0.4-0.1-0.6-0.1
									c-0.2,0.1-0.5,0.1-0.7,0.1c-1.1,0.2-2.1,0.3-3,0.8c-0.2,0.1-0.5,0.2-0.6,0.5c-0.1,0.2-0.1,0.4-0.2,0.6
									c-0.1,0.5-0.1,1-0.1,1.6c0,0.3,0,0.5-0.1,0.8c0,0.4,0,0.8,0,1.2c0,0.2,0,0.3-0.1,0.5c0,0.4,0,0.8,0,1.1c0,0.6,0,1.1,0,1.6
									c0,0.5,0,1.1,0,1.6c0,0.1,0,0.3,0,0.4c0,0.1,0,0.2,0,0.3c0,0.2,0.1,0.5,0,0.8c0,0.7,0,1.6,0.3,2.2c0,0,0.1,0.2,0.1,0.1
									c0.3-0.1,0.6-0.4,0.9-0.5c0.3-0.1,0.6-0.2,0.8-0.4c0.3-0.2,0.5-0.3,0.9-0.3c0.1-0.1,0.5-0.1,0.6-0.1c0.1,0,0.1,0,0.2,0
									c0.1,0,0.1,0,0.2,0c0.3-0.2,1,0,1.3,0.1c0.1,0,0.3,0.1,0.5,0.1c0.1-0.4,0-0.9,0-1.4c0-0.2,0-0.5,0.1-0.8c0-0.3,0-0.6,0-0.9
									c0-0.2,0-0.3,0.1-0.5c0-0.4,0-0.7,0-1.1c0-0.2,0-0.4,0.1-0.6C102.1,40.5,102.1,40.1,102.1,39.7z M96.7,40.8
									c0.7-0.6,1.6-1,2.4-1.3c0.3-0.1,0.6-0.3,0.9-0.3c0.1-0.1,0.4-0.2,0.5-0.2c0,0,0,0,0,0c0.2,0,0.3,0.1,0.3,0.3
									c0,0.2-0.1,0.3-0.2,0.4c-0.2,0.2-0.6,0.2-0.8,0.3c-0.3,0.1-0.7,0.2-1,0.3c-0.2,0.1-0.4,0.1-0.7,0.2
									c-0.4,0.2-0.8,0.4-1.1,0.6c-0.1,0.1-0.3,0.2-0.4,0.2c0,0-0.1,0-0.1,0C96.3,41.1,96.7,40.9,96.7,40.8z M100.8,43.1
									c-0.2,0.1-0.6,0.1-0.8,0.2c-0.2,0.1-0.5,0.1-0.8,0.2c-0.9,0.2-1.6,0.5-2.3,1c-0.1,0.1-0.3,0.3-0.4,0.1
									c-0.1-0.1,0.1-0.2,0.2-0.3c0.3-0.2,0.6-0.4,0.9-0.6c0.3-0.2,0.7-0.4,1.1-0.6c0.1-0.1,0.2-0.1,0.4-0.2c0.5-0.2,1-0.3,1.4-0.5
									c0.1,0,0.3,0,0.4,0.1C101,42.7,101,43,100.8,43.1z M100.8,36.1c-0.1,0.1-0.3,0.1-0.4,0.2c-0.3,0.1-0.6,0.2-1,0.3
									c-0.4,0.1-0.9,0.3-1.3,0.5c-0.3,0.2-0.6,0.3-0.9,0.5c-0.1,0-0.4,0.2-0.4,0.1c0,0,0,0,0,0c0-0.3,0.4-0.5,0.6-0.7
									c0.1-0.1,0.2-0.2,0.3-0.2c0.3-0.2,0.6-0.4,0.9-0.5c0.3-0.2,0.7-0.2,1-0.3c0.1-0.1,0.2-0.1,0.4-0.2c0.2-0.1,0.3-0.1,0.5-0.2
									c0.1,0,0.3,0,0.4,0C101.1,35.7,100.9,36,100.8,36.1z"/>
								<path class="st2" d="M95.5,35.9c0-0.4,0-0.9-0.2-1.2c-0.4-0.6-1.1-0.8-1.7-1.1c-0.2-0.1-0.4-0.1-0.5-0.2
									c-0.2,0-0.4-0.1-0.6-0.1c-0.3-0.1-0.7-0.1-1-0.2c-0.5,0-0.9,0-1.4,0c-0.1,0.1-0.4,0-0.4,0.2s0,0.7,0,0.9c0,0.8,0,1.6,0,2.4
									c0,0.5,0,0.9,0,1.4c0,0.4-0.1,0.8-0.1,1.2c0,0.3,0.1,0.5,0.1,0.8c0,0.6,0,1.2,0,1.8c0,0.2,0,0.5-0.1,0.8c0,0.5,0,1,0,1.5
									c0,0.2,0,0.5-0.1,0.8c0,0.2,0.1,0.4,0.1,0.7c0,0.3-0.1,0.5-0.1,0.8c0.1,0,0.2,0,0.3,0c0.1,0,0.2-0.1,0.3-0.1
									c0.1,0,0.2-0.1,0.3-0.1c0.1,0,0.1,0,0.2,0c0.3-0.1,1,0,1.3,0.1c0.4,0.1,0.7,0.1,1,0.1c0.4,0.1,1,0.3,1.4,0.5
									c0.1,0.1,0.8,0.6,0.9,0.6c0,0,0,0,0,0c0.2-0.3,0.2-0.6,0.2-1c0.1-0.4,0.1-0.9,0.1-1.3c0-0.7,0.1-1.3,0.1-2
									c0-0.3,0-0.6,0-0.9c0-0.8,0-1.6,0-2.4C95.5,38.5,95.6,37.1,95.5,35.9z M94.4,44.6c-0.5-0.2-1-0.4-1.6-0.6
									c-0.2-0.1-0.4-0.1-0.6-0.1c-0.3-0.1-0.6-0.1-0.9-0.2c-0.3-0.1-0.7-0.1-1-0.1c0,0-0.1,0-0.1,0c-0.3-0.1-0.3-0.7,0.1-0.7
									c0,0,0,0,0,0c0.2,0,0.4,0.1,0.6,0.1c0.2,0.1,0.4,0.1,0.6,0.1c0.2,0.1,0.4,0.1,0.5,0.2c0.5,0.2,1,0.3,1.5,0.6
									c0.1,0,0.2,0.1,0.3,0.1c0.3,0.1,0.7,0.4,0.9,0.7c0.1,0.1,0.2,0.1,0.2,0.3C94.8,44.9,94.6,44.7,94.4,44.6z M95.1,41.4
									C95.1,41.5,95.1,41.5,95.1,41.4C95,41.5,95,41.5,95.1,41.4c-0.3,0.1-1.1-0.6-1.3-0.7c-0.3-0.1-0.6-0.2-0.9-0.4
									c-0.4-0.2-0.8-0.3-1.2-0.4c-0.2,0-0.3,0-0.5-0.1c-0.2,0-0.6,0-0.8-0.1c-0.2-0.2-0.1-0.6,0.2-0.6c0,0,0,0,0,0
									c1.3,0.1,2.4,0.7,3.4,1.2c0.3,0.2,1,0.6,1.1,0.9C95.1,41.3,95.2,41.4,95.1,41.4z M95.2,37.8c0,0.1-0.1,0.1-0.2,0.1
									c-0.2,0-0.3-0.2-0.4-0.3c-0.2-0.1-0.3-0.2-0.5-0.3c-0.9-0.4-1.9-0.7-2.9-1c-0.3-0.1-0.6-0.1-0.9-0.2c-0.2-0.1-0.2-0.4,0-0.5
									c0.4,0,0.8,0.1,1.1,0.2c0.1,0,0.2,0,0.3,0.1c0.2,0.1,0.5,0.2,0.7,0.3c0.2,0.1,0.4,0.1,0.6,0.2c0.1,0.1,0.2,0.1,0.3,0.2
									c0.3,0.1,0.6,0.3,0.8,0.4C94.4,37,95.3,37.6,95.2,37.8z"/>
							</g>
						</g>
					</g>
				</g>
				<g>
					<path class="st3" d="M93.7,10.5c-0.4,0-0.9,0.1-1.3,0.2c-0.4,0.1-0.8,0.1-1.2,0.1c-0.9,0.2-1.8,0.3-2.7,0.5
						c-1.3,0.3-2.4,0.8-3.6,1.3c-2.2,0.9-4.2,1.9-6.2,3.2c-0.5,0.3-3.7,2.6-3.7,2.9c0.5,0,1.1,0.1,1.6,0.1c1.3,0.1,2.6,0,3.9,0
						c0.8,0,1.6,0.1,2.4,0.1c0.3-0.1,0.8-0.1,1.2-0.1c1.1,0,2.1,0.1,3.1,0.1c0.5-0.2,1.4,0,1.9,0c1.7,0,3.4,0,5.2,0
						c1.9,0,3.9,0.1,5.8,0.1c3.6,0,7.1-0.1,10.7-0.1c0.3-0.1,0.7,0,1,0c0.6,0,1.2,0,1.9,0c0.3,0,0.6,0,1,0c0.6,0,1.3,0.1,1.9,0.1
						c0.1,0,0.6,0,0.7,0c0.4,0-0.4-0.6-0.5-0.8c-0.4-0.5-0.9-0.9-1.5-1.2c-0.3-0.2-0.6-0.5-1-0.8c-0.6-0.4-1.3-0.9-1.9-1.3
						c-4.1-2.5-8-3.9-13.1-4.4c-0.7,0-1.5,0-2.2,0C95.9,10.6,94.7,10.5,93.7,10.5z"/>
					<path class="st3" d="M73.3,20.4c-0.4,0.5-1.1,1.1-1.5,1.6c-0.9,1.2-1.8,2.5-2.8,3.7c-1.9,3.3-3.1,6.7-3.9,10.5
						c-0.1,0.6-0.1,1.2-0.2,1.8c-0.3,3.1-0.4,6.7,0.1,9.8c0.1,0.5,0.3,1,0.4,1.5c0.1,0.8,0.3,1.6,0.5,2.4c0.3,0.7,0.5,1.3,0.8,1.9
						c0.3,0.9,0.8,1.8,1.3,2.7c1.1,2.1,2.3,4.1,3.8,6c0.2,0.3,0.8,1,1.2,1c0,0,0,0,0-0.1c0.3-0.6,0.1-2.3,0.1-3c0-1.2,0-2.4,0-3.6
						c0-1.1,0-2.2,0-3.3c0.1-2.4,0-4.8,0.1-7.2c0-2,0.1-4.1,0.1-6.2c0-2-0.1-4.1,0.1-6c0-0.2,0-0.4-0.1-0.6c0-0.6,0-1.2,0-1.8
						c0-0.8,0.1-1.7,0.1-2.5c-0.1-1.8,0-3.6-0.1-5.4C73.2,22.2,73.4,21,73.3,20.4z"/>
					<path class="st3" d="M118.8,20.5c-0.1,1.2,0.1,3.1,0.1,4.4c0,2.8-0.1,5.5-0.1,8.4c0,4.7,0,8.9,0,13.4c0,2.5-0.1,5,0,7.6
						c0,1,0,2.1,0,3.1c0,1.9,0.2,3.9-0.2,5.7c0,0.1-0.3,0.9-0.1,0.9c0.6,0,3.6-4.3,4.1-5c0.3-0.6,0.6-1.1,0.9-1.7
						c0.2-0.4,0.3-0.8,0.5-1.1c0.6-1,1.2-2.3,1.6-3.4c0.8-2.4,1.3-4.9,1.6-7.5c0.1-0.9,0.1-1.7,0.1-2.6c0-0.5,0-1,0.1-1.4
						c0-2.6-0.4-5.3-1-7.6c-0.7-2.3-1.7-4.5-2.8-6.5c-0.4-0.7-0.9-1.4-1.3-2.1C121.8,24.1,119.2,20.2,118.8,20.5z"/>
					<path class="st3" d="M114.7,67.3c-1.8,1.3-5.4,1.5-7.8,1.8c-0.6,0.1-1.2,0.2-1.8,0.2c-2.9,0.1-6.8,0.4-7.8,3.4
						c-0.1,0.3-0.1,0.4-0.2,0.7c-0.1,0.3,1.3,0,1.9,0c0.2-0.1,0.5-0.1,0.7-0.1c0.1,0,0.3-0.1,0.4-0.1c0.3-0.2,0.9-0.2,1.3-0.2
						c0.3-0.2,0.7-0.1,1-0.1c0.4-0.2,1.3-0.3,1.8-0.3c0.8-0.3,1.6-0.6,2.5-0.8c2.3-0.9,4.8-1.9,6.8-3.5
						C113.8,68,114.2,67.9,114.7,67.3z"/>
					<path class="st3" d="M78.3,67.9c0.5,0.6,1.3,0.8,1.9,1.2c0.4,0.3,0.9,0.6,1.3,0.8c1.4,0.7,2.5,1.2,3.9,1.7
						c1.6,0.5,3.1,1,4.9,1.3c0.6,0.1,4.5,0.8,4.7,0.4c0.2-0.6-1.1-2.1-1.5-2.4c-0.4-0.3-0.9-0.6-1.4-0.8c-0.4-0.2-1-0.4-1.4-0.5
						c-0.6-0.2-1.3-0.4-1.9-0.5C88,69,87.4,69,86.7,69c-0.6-0.1-1.2-0.2-1.8-0.3c-0.8-0.1-1.6-0.1-2.3-0.2
						C81.1,68.3,79.8,68,78.3,67.9z"/>
				</g>
			</g>
		</g>
	</g>
	<g>
		<g>
			<path class="st1" d="M10.2,105.6H7.9v11.8c0,0.9,0.1,1.6,0.3,1.9c0.2,0.3,0.7,0.5,1.3,0.5v0.4H4.1v-0.4c0.7,0,1.1-0.2,1.4-0.6
				s0.4-1,0.4-1.9v-11.7H3.6c-1.1,0-1.8,0.2-2.3,0.5c-0.5,0.3-0.8,0.9-0.8,1.7H0v-3.5h0.5c0.4,0.4,1.2,0.6,2.3,0.6h8.1
				c1.2,0,2-0.2,2.4-0.6h0.5v3.5h-0.3c-0.2-0.9-0.5-1.4-1-1.7C11.9,105.8,11.2,105.6,10.2,105.6z"/>
			<path class="st1" d="M27.8,117.4v-4.5h-8.4v4.5c0,0.9,0.1,1.6,0.4,1.9c0.3,0.4,0.7,0.5,1.4,0.5v0.4h-5.6v-0.4
				c0.7,0,1.1-0.2,1.4-0.5c0.2-0.4,0.4-1,0.4-1.9v-9.6c0-0.9-0.1-1.6-0.4-1.9c-0.2-0.4-0.7-0.5-1.4-0.5v-0.4h5.6v0.4
				c-0.7,0-1.1,0.2-1.4,0.6s-0.4,1-0.4,1.9v4.4h8.4v-4.4c0-0.9-0.1-1.6-0.4-1.9c-0.2-0.4-0.7-0.5-1.4-0.5v-0.4h5.5v0.4
				c-0.7,0-1.1,0.2-1.4,0.5s-0.4,1-0.4,1.9v9.6c0,0.9,0.1,1.6,0.4,1.9c0.2,0.4,0.7,0.5,1.4,0.5v0.4h-5.5v-0.4c0.7,0,1.1-0.2,1.4-0.5
				C27.7,118.9,27.8,118.3,27.8,117.4z"/>
			<path class="st1" d="M43.6,110.7H44v3.7h-0.5c-0.2-0.7-0.4-1.1-0.6-1.2c-0.2-0.2-0.8-0.2-1.6-0.2h-3.8v5.5c0,0.4,0.1,0.7,0.3,0.8
				s0.5,0.2,0.9,0.2h2.7c1,0,1.6-0.1,2-0.2c0.4-0.1,0.7-0.3,0.9-0.6s0.5-0.7,0.8-1.4h0.5l-0.7,2.9H33.9v-0.4c0.7,0,1.2-0.2,1.4-0.5
				s0.3-1,0.3-1.9v-9.6c0-0.9-0.1-1.6-0.4-1.9c-0.2-0.4-0.7-0.5-1.4-0.5v-0.4h11.1v2.6h-0.3c-0.2-0.7-0.4-1.2-0.7-1.5
				c-0.3-0.2-0.9-0.4-1.9-0.4h-4.4v6.6h4.3c0.6,0,1-0.1,1.2-0.3C43.3,111.7,43.5,111.3,43.6,110.7z"/>
			<path class="st1" d="M65.5,117v-9.2c0-0.9-0.1-1.5-0.4-1.9s-0.7-0.5-1.3-0.6v-0.4h5.4v0.4c-0.7,0-1.1,0.2-1.4,0.5s-0.4,1-0.4,1.9
				v9.6c0,0.9,0.1,1.5,0.4,1.9c0.2,0.4,0.7,0.5,1.4,0.5v0.4h-3.8v-2.1c-1.4,1.7-3.1,2.5-5.1,2.5c-1.6,0-2.9-0.5-3.8-1.4
				s-1.4-2.2-1.4-3.8v-7.6c0-0.9-0.1-1.6-0.4-1.9c-0.2-0.4-0.7-0.5-1.4-0.5v-0.4h5.6v0.4c-0.7,0-1.2,0.2-1.4,0.5s-0.4,1-0.4,1.9v7.8
				c0,1.3,0.3,2.2,1,3c0.7,0.7,1.7,1.1,2.9,1.1C62.9,119.6,64.4,118.8,65.5,117z"/>
			<path class="st1" d="M83.1,105.3v-0.4h4.6v0.4c-0.7,0-1.3,0.2-1.6,0.5c-0.3,0.4-0.4,1-0.4,1.9v12.5h-0.5l-10.9-13.4v10.8
				c0,0.8,0.1,1.3,0.5,1.6c0.3,0.3,0.8,0.5,1.6,0.5v0.4h-4.7v-0.4c0.7,0,1.2-0.2,1.5-0.6c0.3-0.4,0.4-1.1,0.4-2.1v-9
				c0-1-0.2-1.7-0.5-2.1s-0.9-0.7-1.8-0.8v-0.4h3.9l9.7,12v-9c0-0.9-0.1-1.6-0.4-2C84.3,105.5,83.8,105.3,83.1,105.3z"/>
			<path class="st1" d="M95.4,104.9v0.4c-0.7,0-1.1,0.2-1.4,0.5s-0.4,1-0.4,1.9v9.6c0,0.9,0.1,1.6,0.4,1.9c0.2,0.4,0.7,0.5,1.4,0.5
				v0.4h-5.5v-0.4c0.7,0,1.1-0.2,1.4-0.5c0.2-0.4,0.4-1,0.4-1.9v-9.6c0-0.9-0.1-1.6-0.4-1.9c-0.2-0.4-0.7-0.5-1.4-0.5v-0.4
				L95.4,104.9L95.4,104.9z"/>
			<path class="st1" d="M112.4,104.9v0.5c-1.1,0-2.1,1-2.8,3l-4.5,12.1h-0.4L99.8,108c-0.4-1.1-0.8-1.9-1.1-2.2
				c-0.3-0.3-0.8-0.5-1.4-0.5v-0.4h5.6v0.4c-0.9,0-1.4,0.3-1.4,1c0,0.2,0.1,0.5,0.2,0.8l3.8,9.9l3.6-9.6c0.1-0.4,0.2-0.8,0.2-1.1
				c0-0.7-0.5-1.1-1.4-1.1v-0.4L112.4,104.9L112.4,104.9z"/>
			<path class="st1" d="M123.6,110.7h0.5v3.7h-0.5c-0.2-0.7-0.4-1.1-0.6-1.2c-0.2-0.2-0.8-0.2-1.6-0.2h-3.8v5.5
				c0,0.4,0.1,0.7,0.3,0.8c0.2,0.2,0.5,0.2,0.9,0.2h2.7c1,0,1.6-0.1,2-0.2c0.4-0.1,0.7-0.3,0.9-0.6s0.5-0.7,0.8-1.4h0.5l-0.7,2.9
				h-11.1v-0.4c0.7,0,1.1-0.2,1.4-0.5s0.4-1,0.4-1.9v-9.6c0-0.9-0.1-1.6-0.4-1.9c-0.2-0.4-0.7-0.5-1.4-0.5v-0.4H125v2.6h-0.3
				c-0.2-0.7-0.4-1.2-0.7-1.5c-0.3-0.2-0.9-0.4-1.9-0.4h-4.4v6.6h4.3c0.6,0,1-0.1,1.2-0.3C123.4,111.7,123.5,111.3,123.6,110.7z"/>
			<path class="st1" d="M132.7,113.1h-1.2v4.2c0,0.9,0.1,1.6,0.4,1.9c0.3,0.4,0.7,0.5,1.4,0.5v0.4h-5.5v-0.4c0.7,0,1.1-0.2,1.4-0.5
				s0.4-1,0.4-1.9v-9.6c0-0.9-0.1-1.5-0.4-1.9c-0.2-0.4-0.7-0.5-1.4-0.5v-0.4h6.3c1.6,0,2.8,0.4,3.7,1.1c0.9,0.8,1.4,1.7,1.4,2.9
				c0,1.9-1.1,3.1-3.2,3.8c0.5,0.3,0.9,0.7,1.4,1.2c0.4,0.5,1,1.4,1.7,2.6c0.8,1.3,1.4,2.2,1.9,2.6c0.4,0.4,0.9,0.6,1.4,0.7v0.4
				h-3.1c-0.6-0.8-1.4-1.9-2.4-3.4c-1-1.6-1.8-2.6-2.3-3C134,113.4,133.4,113.1,132.7,113.1z M133.1,105.5h-1.6v7h1.9
				c1.1,0,2-0.3,2.6-1s1-1.5,1-2.6c0-1-0.4-1.9-1.1-2.5C135.2,105.8,134.2,105.5,133.1,105.5z"/>
			<path class="st1" d="M151.4,104.7h0.4v3.6h-0.5c-0.1-1-0.5-1.8-1.1-2.3c-0.6-0.6-1.4-0.8-2.3-0.8c-0.8,0-1.5,0.2-2,0.6
				c-0.5,0.4-0.8,1-0.8,1.7c0,0.6,0.2,1.2,0.6,1.8s1.3,1.2,2.7,2.1c1.6,1,2.7,1.8,3.3,2.5c0.6,0.7,0.8,1.6,0.8,2.5
				c0,1.2-0.4,2.2-1.3,3.1c-0.9,0.9-1.9,1.3-3.1,1.3c-0.7,0-1.6-0.2-2.7-0.6c-0.4-0.2-0.7-0.2-0.9-0.2c-0.2,0-0.4,0.2-0.6,0.6h-0.5
				v-4.1h0.5c0,1.1,0.4,2.1,1.1,2.8c0.7,0.7,1.6,1,2.6,1c0.9,0,1.7-0.2,2.2-0.8c0.6-0.5,0.8-1.2,0.8-2c0-0.6-0.2-1.2-0.7-1.8
				c-0.5-0.6-1.4-1.3-2.9-2.2c-1.2-0.7-2-1.3-2.4-1.8s-0.7-0.9-0.9-1.4c-0.2-0.5-0.3-1.1-0.3-1.7c0-1.2,0.4-2.1,1.2-2.9
				s1.8-1.1,3-1.1c0.7,0,1.4,0.1,2.2,0.4c0.4,0.1,0.6,0.2,0.8,0.2c0.1,0,0.2,0,0.2-0.1C151.3,105,151.4,104.9,151.4,104.7z"/>
			<path class="st1" d="M160.8,104.9v0.4c-0.7,0-1.1,0.2-1.4,0.5s-0.4,1-0.4,1.9v9.6c0,0.9,0.1,1.6,0.4,1.9c0.2,0.4,0.7,0.5,1.4,0.5
				v0.4h-5.5v-0.4c0.7,0,1.1-0.2,1.4-0.5c0.2-0.4,0.4-1,0.4-1.9v-9.6c0-0.9-0.1-1.6-0.4-1.9c-0.2-0.4-0.7-0.5-1.4-0.5v-0.4
				L160.8,104.9L160.8,104.9z"/>
			<path class="st1" d="M173,105.6h-2.3v11.8c0,0.9,0.1,1.6,0.3,1.9c0.2,0.3,0.7,0.5,1.3,0.5v0.4h-5.4v-0.4c0.7,0,1.1-0.2,1.4-0.6
				s0.4-1,0.4-1.9v-11.7h-2.2c-1.1,0-1.8,0.2-2.3,0.5c-0.5,0.3-0.8,0.9-0.8,1.7h-0.5v-3.5h0.5c0.4,0.4,1.2,0.6,2.3,0.6h8.1
				c1.2,0,2-0.2,2.4-0.6h0.5v3.5h-0.3c-0.2-0.9-0.5-1.4-1-1.7C174.8,105.8,174,105.6,173,105.6z"/>
			<path class="st1" d="M189.5,107.1l-3.5,5.4v4.8c0,0.9,0.1,1.6,0.4,1.9s0.7,0.5,1.3,0.5v0.4h-5.6v-0.4c0.8,0,1.3-0.2,1.5-0.6
				c0.2-0.4,0.4-1,0.4-1.9v-4.8l-3.3-5.1c-0.5-0.9-1-1.4-1.3-1.7c-0.3-0.3-0.8-0.4-1.4-0.4v-0.4h6v0.4c-1.1,0-1.6,0.2-1.6,0.7
				c0,0.2,0.1,0.5,0.3,0.8l3,4.7l2.4-3.9c0.4-0.6,0.5-1.1,0.5-1.5c0-0.6-0.3-0.9-1-0.9v-0.4h4.2v0.4c-0.6,0-1,0.2-1.3,0.4
				C190.4,105.9,190,106.4,189.5,107.1z"/>
		</g>
		<g>
			<path class="st1" d="M21.6,136.9c0.7,0,1.3,0.3,1.9,0.9c0.5,0.6,0.8,1.3,0.8,2.1c0,1.4-0.5,2.9-1.6,4.3s-2.3,2.1-3.8,2.1
				c-0.8,0-1.5-0.3-2-0.9c-0.5-0.6-0.8-1.3-0.8-2.2c0-1.6,0.6-3,1.7-4.3C19,137.6,20.2,136.9,21.6,136.9z M19.5,145.6
				c0.9,0,1.6-0.5,2.3-1.6s1-2.4,1-3.9c0-0.7-0.2-1.2-0.5-1.7c-0.3-0.5-0.8-0.7-1.3-0.7c-0.8,0-1.6,0.5-2.2,1.6s-1,2.3-1,3.8
				c0,0.8,0.2,1.4,0.5,1.8C18.5,145.4,18.9,145.6,19.5,145.6z"/>
			<path class="st1" d="M30.9,137.2l-0.1,0.7H29l-1.5,7.8c-0.4,2.1-0.8,3.6-1.3,4.6c-0.5,1-1.2,1.7-2,2.2s-1.8,0.8-2.8,0.8
				c-1.3,0-2.4-0.2-3.1-0.7l0.4-1.9h0.5c0.3,1.4,1.1,2.1,2.3,2.1c1,0,1.8-0.4,2.5-1c0.7-0.7,1.3-2.3,1.8-4.8l1.7-9.1h-1.9l0.1-0.7
				h1.9l0.7-3.2c0.3-1.7,0.9-2.9,1.7-3.6s1.7-1,2.8-1c0.5,0,1.1,0.1,1.8,0.4l0.1-0.3h0.5l-0.5,2.4h-0.5c-0.1-1.3-0.7-1.9-1.7-1.9
				c-1.3,0-2.2,1.1-2.6,3.3l-0.8,4L30.9,137.2L30.9,137.2z"/>
			<path class="st1" d="M49.5,136.5h0.5v3.7h-0.5c-0.2-0.7-0.4-1.1-0.6-1.2c-0.2-0.2-0.8-0.2-1.6-0.2h-3.8v5.5
				c0,0.4,0.1,0.7,0.3,0.8c0.2,0.2,0.5,0.2,0.9,0.2h2.7c1,0,1.6-0.1,2-0.2c0.4-0.1,0.7-0.3,0.9-0.6s0.5-0.7,0.8-1.4h0.5l-0.7,2.9
				H39.7v-0.4c0.7,0,1.2-0.2,1.4-0.5s0.3-1,0.3-1.9v-9.6c0-0.9-0.1-1.6-0.4-1.9c-0.2-0.4-0.7-0.5-1.4-0.5v-0.4h11.1v2.6h-0.3
				c-0.2-0.7-0.4-1.2-0.7-1.5c-0.3-0.2-0.9-0.4-1.9-0.4h-4.4v6.6h4.3c0.6,0,1-0.1,1.2-0.3C49.2,137.5,49.4,137.1,49.5,136.5z"/>
			<path class="st1" d="M53.6,146.1v-0.4c0.7,0,1.1-0.2,1.4-0.5c0.2-0.4,0.4-1,0.4-1.9v-9.6c0-0.9-0.1-1.6-0.4-1.9s-0.7-0.5-1.4-0.5
				v-0.4h7.1c2.6,0,4.7,0.8,6.3,2.2s2.4,3.4,2.4,5.7c0,2.3-0.8,4.1-2.2,5.4c-1.5,1.4-3.6,2-6.2,2L53.6,146.1L53.6,146.1z
				 M60.3,131.3h-2.9v11.4c0,1.1,0.1,1.8,0.4,2.2c0.3,0.4,0.8,0.6,1.6,0.6H61c1.9,0,3.4-0.6,4.5-1.8c1.1-1.2,1.6-2.9,1.6-5
				c0-2.2-0.6-4-1.8-5.4C64.1,131.9,62.5,131.3,60.3,131.3z"/>
			<path class="st1" d="M77,130.7v0.4c-0.7,0-1.1,0.2-1.4,0.5s-0.4,1-0.4,1.9v9.6c0,0.9,0.1,1.6,0.4,1.9c0.2,0.4,0.7,0.5,1.4,0.5
				v0.4h-5.5v-0.4c0.7,0,1.1-0.2,1.4-0.5c0.2-0.4,0.4-1,0.4-1.9v-9.6c0-0.9-0.1-1.6-0.4-1.9c-0.2-0.4-0.7-0.5-1.4-0.5v-0.4L77,130.7
				L77,130.7z"/>
			<path class="st1" d="M90.6,131.1v-0.4h4.6v0.4c-0.7,0-1.3,0.2-1.6,0.5c-0.3,0.4-0.4,1-0.4,1.9v12.5h-0.5l-10.9-13.4v10.8
				c0,0.8,0.1,1.3,0.5,1.6c0.3,0.3,0.8,0.5,1.6,0.5v0.4h-4.7v-0.4c0.7,0,1.2-0.2,1.5-0.6c0.3-0.4,0.4-1.1,0.4-2.1v-9
				c0-1-0.2-1.7-0.5-2.1s-0.9-0.7-1.8-0.8v-0.4h3.9l9.7,12v-9c0-0.9-0.1-1.6-0.4-2C91.9,131.3,91.4,131.1,90.6,131.1z"/>
			<path class="st1" d="M104.1,146.1H97v-0.4c0.7,0,1.1-0.2,1.4-0.5s0.4-1,0.4-1.9v-9.6c0-0.9-0.1-1.6-0.4-1.9
				c-0.2-0.4-0.7-0.5-1.4-0.5v-0.4h5.8c1.7,0,3,0.3,3.9,1s1.4,1.6,1.4,2.7c0,1.6-1,2.8-3.1,3.5v0.1c1.2,0.2,2.1,0.8,2.9,1.6
				c0.7,0.8,1.1,1.7,1.1,2.8c0,1.1-0.4,2.1-1.4,2.7C106.8,145.7,105.6,146.1,104.1,146.1z M100.8,131.3v6.5h1.6c1.1,0,2-0.3,2.6-0.9
				c0.7-0.6,1-1.4,1-2.4c0-1-0.3-1.9-1-2.4c-0.6-0.6-1.6-0.9-2.7-0.9H100.8z M102.2,138.4h-1.5v4.5c0,1,0.1,1.7,0.3,2
				s0.6,0.5,1.3,0.5h1.3c0.9,0,1.6-0.3,2.2-0.9c0.6-0.6,0.9-1.4,0.9-2.4c0-1.1-0.4-2.1-1.2-2.8C104.6,138.7,103.6,138.4,102.2,138.4
				z"/>
			<path class="st1" d="M122.7,142.8v-9.2c0-0.9-0.1-1.5-0.4-1.9s-0.7-0.5-1.3-0.6v-0.4h5.4v0.4c-0.7,0-1.1,0.2-1.4,0.5
				s-0.4,1-0.4,1.9v9.6c0,0.9,0.1,1.5,0.4,1.9c0.2,0.4,0.7,0.5,1.4,0.5v0.4h-3.8v-2.1c-1.4,1.7-3.1,2.5-5.1,2.5
				c-1.6,0-2.9-0.5-3.8-1.4c-0.9-1-1.4-2.2-1.4-3.8v-7.6c0-0.9-0.1-1.6-0.4-1.9s-0.7-0.5-1.4-0.5v-0.4h5.6v0.4
				c-0.7,0-1.2,0.2-1.4,0.5c-0.2,0.4-0.4,1-0.4,1.9v7.8c0,1.3,0.4,2.2,1,3c0.7,0.7,1.6,1.1,2.9,1.1
				C120.1,145.4,121.6,144.5,122.7,142.8z"/>
			<path class="st1" d="M133.8,138.9h-1.2v4.2c0,0.9,0.1,1.6,0.4,1.9c0.3,0.4,0.7,0.5,1.4,0.5v0.4h-5.5v-0.4c0.7,0,1.1-0.2,1.4-0.5
				s0.4-1,0.4-1.9v-9.6c0-0.9-0.1-1.5-0.4-1.9c-0.2-0.4-0.7-0.5-1.4-0.5v-0.4h6.3c1.6,0,2.8,0.4,3.7,1.1c0.9,0.8,1.4,1.7,1.4,2.9
				c0,1.9-1.1,3.1-3.2,3.8c0.5,0.3,0.9,0.7,1.4,1.2c0.4,0.5,1,1.4,1.7,2.6c0.8,1.3,1.4,2.2,1.9,2.6c0.4,0.4,0.9,0.6,1.4,0.7v0.4
				h-3.1c-0.6-0.8-1.4-1.9-2.4-3.4c-1-1.6-1.8-2.6-2.3-3S134.5,138.9,133.8,138.9z M134.2,131.3h-1.6v7h1.9c1.1,0,2-0.3,2.6-1
				s1-1.5,1-2.6c0-1-0.4-1.9-1.1-2.5C136.3,131.6,135.3,131.3,134.2,131.3z"/>
			<path class="st1" d="M158.7,139.4v0.4c-0.7,0-1.2,0.2-1.5,0.5c-0.3,0.3-0.4,0.9-0.4,1.6v4.1c-0.4,0.1-1,0.2-2,0.3
				s-1.7,0.1-2.3,0.1c-2.8,0-5.1-0.7-6.6-2.1s-2.4-3.2-2.4-5.5c0-1.6,0.4-3,1-4.3c0.7-1.3,1.7-2.3,2.9-3.1s2.6-1.1,4-1.1
				c0.8,0,1.8,0.1,2.7,0.4c0.6,0.2,1.1,0.3,1.4,0.3c0.4,0,0.7-0.2,0.9-0.5h0.5v4.5h-0.4c-0.2-1.3-0.7-2.3-1.7-3s-2.1-1.1-3.4-1.1
				c-1.6,0-3,0.6-4,1.9s-1.6,3-1.6,5c0,2.2,0.6,4.1,1.8,5.6s2.7,2.2,4.5,2.2c1.7,0,2.6-0.6,2.6-1.6v-1.7c0-0.9-0.1-1.6-0.4-2
				c-0.2-0.4-0.7-0.6-1.3-0.6h-0.6v-0.4L158.7,139.4L158.7,139.4z"/>
			<path class="st1" d="M172.1,143.2v-4.5h-8.4v4.5c0,0.9,0.1,1.6,0.4,1.9c0.3,0.4,0.7,0.5,1.4,0.5v0.4H160v-0.4
				c0.7,0,1.1-0.2,1.4-0.5c0.2-0.4,0.4-1,0.4-1.9v-9.6c0-0.9-0.1-1.6-0.4-1.9c-0.2-0.4-0.7-0.5-1.4-0.5v-0.4h5.6v0.4
				c-0.7,0-1.1,0.2-1.4,0.6s-0.4,1-0.4,1.9v4.4h8.4v-4.4c0-0.9-0.1-1.6-0.4-1.9s-0.7-0.5-1.4-0.5v-0.4h5.5v0.4
				c-0.7,0-1.1,0.2-1.4,0.5s-0.4,1-0.4,1.9v9.6c0,0.9,0.1,1.6,0.4,1.9c0.2,0.4,0.7,0.5,1.4,0.5v0.4h-5.5v-0.4c0.7,0,1.1-0.2,1.4-0.5
				C172,144.7,172.1,144.1,172.1,143.2z"/>
		</g>
	</g>
</g>
</svg>
