<?xml version="1.0" encoding="UTF-8" standalone="no"?>
<!-- Generator: Adobe Illustrator 16.0.0, SVG Export Plug-In . SVG Version: 6.00 Build 0)  -->

<svg
   version="1.1"
   x="0px"
   y="0px"
   width="570"
   height="570"
   viewBox="0 0 570 570"
   enable-background="new 0 0 512 512"
   xml:space="preserve"
   id="svg29"
   sodipodi:docname="openAIRE_centred.svg"
   inkscape:version="1.3.2 (091e20e, 2023-11-25)"
   xmlns:inkscape="http://www.inkscape.org/namespaces/inkscape"
   xmlns:sodipodi="http://sodipodi.sourceforge.net/DTD/sodipodi-0.dtd"
   xmlns:xlink="http://www.w3.org/1999/xlink"
   xmlns="http://www.w3.org/2000/svg"
   xmlns:svg="http://www.w3.org/2000/svg"><defs
   id="defs29" /><sodipodi:namedview
   id="namedview29"
   pagecolor="#ffffff"
   bordercolor="#000000"
   borderopacity="0.25"
   inkscape:showpageshadow="2"
   inkscape:pageopacity="0.0"
   inkscape:pagecheckerboard="0"
   inkscape:deskcolor="#d1d1d1"
   inkscape:zoom="0.4609375"
   inkscape:cx="256"
   inkscape:cy="256"
   inkscape:window-width="1424"
   inkscape:window-height="553"
   inkscape:window-x="0"
   inkscape:window-y="38"
   inkscape:window-maximized="0"
   inkscape:current-layer="svg29" />
<g
   id="Layer_1"
   display="none">
	<g
   display="inline"
   id="g20">
		<defs
   id="defs1">
			<rect
   id="SVGID_1_"
   width="512"
   height="512"
   x="0"
   y="0" />
		</defs>
		<clipPath
   id="SVGID_2_">
			<use
   xlink:href="#SVGID_1_"
   overflow="visible"
   id="use1" />
		</clipPath>
		<g
   clip-path="url(#SVGID_2_)"
   id="g19">
			<rect
   x="439"
   opacity="0.4"
   fill="#ff5050"
   enable-background="new    "
   width="73"
   height="512"
   id="rect1"
   y="0" />
			<rect
   opacity="0.4"
   fill="#ff5050"
   enable-background="new    "
   width="73"
   height="512"
   id="rect2"
   x="0"
   y="0" />
			<rect
   x="73"
   opacity="0.1"
   fill="#ff5050"
   enable-background="new    "
   width="73"
   height="512"
   id="rect3"
   y="0" />
			<rect
   y="73"
   opacity="0.1"
   fill="#ff5050"
   enable-background="new    "
   width="512"
   height="73"
   id="rect4"
   x="0" />
			<rect
   x="366"
   opacity="0.1"
   fill="#ff5050"
   enable-background="new    "
   width="73"
   height="512"
   id="rect5"
   y="0" />
			<rect
   y="366"
   opacity="0.1"
   fill="#ff5050"
   enable-background="new    "
   width="512"
   height="73"
   id="rect6"
   x="0" />
			<rect
   x="-0.5"
   opacity="0.4"
   fill="#ff5050"
   enable-background="new    "
   width="512"
   height="73"
   id="rect7"
   y="0" />
			<rect
   y="439"
   opacity="0.4"
   fill="#ff5050"
   enable-background="new    "
   width="512"
   height="73"
   id="rect8"
   x="0" />
			<path
   fill="none"
   stroke="#ff4d4d"
   stroke-width="0.25"
   d="M 73,0 V 512"
   id="path8" />
			<path
   fill="none"
   stroke="#ff4d4d"
   stroke-width="0.25"
   d="M 146,0 V 512"
   id="path9" />
			<path
   fill="none"
   stroke="#ff4d4d"
   stroke-width="0.25"
   d="M 219,0 V 512"
   id="path10" />
			<path
   fill="none"
   stroke="#ff4d4d"
   stroke-width="0.25"
   d="M 292,0 V 512"
   id="path11" />
			<path
   fill="none"
   stroke="#ff4d4d"
   stroke-width="0.25"
   d="M 366,0 V 512"
   id="path12" />
			<path
   fill="none"
   stroke="#ff4d4d"
   stroke-width="0.25"
   d="M 439,0 V 512"
   id="path13" />
			<path
   fill="none"
   stroke="#ff4d4d"
   stroke-width="0.25"
   d="M 512,73 H 0"
   id="path14" />
			<path
   fill="none"
   stroke="#ff4d4d"
   stroke-width="0.25"
   d="M 512,146 H 0"
   id="path15" />
			<path
   fill="none"
   stroke="#ff4d4d"
   stroke-width="0.25"
   d="M 512,219 H 0"
   id="path16" />
			<path
   fill="none"
   stroke="#ff4d4d"
   stroke-width="0.25"
   d="M 512,292 H 0"
   id="path17" />
			<path
   fill="none"
   stroke="#ff4d4d"
   stroke-width="0.25"
   d="M 512,366 H 0"
   id="path18" />
			<path
   fill="none"
   stroke="#ff4d4d"
   stroke-width="0.25"
   d="M 512,439 H 0"
   id="path19" />
		</g>
	</g>
</g>
<g
   id="Layer_2"
   transform="translate(30.372881,26.033898)">
	<g
   id="g27">
		<path
   fill-rule="evenodd"
   clip-rule="evenodd"
   fill="#4687e6"
   d="m 364.249,384.023 c 2.225,4.548 4.36,8.91 6.492,13.274 0.818,1.677 1.654,3.348 2.427,5.047 0.719,1.583 0.506,3.091 -0.672,4.38 -1.106,1.209 -2.609,1.615 -4.03,0.968 -0.975,-0.443 -1.942,-1.378 -2.429,-2.34 -3.254,-6.446 -6.377,-12.958 -9.548,-19.446 -0.17,-0.348 -0.393,-0.669 -0.607,-1.028 -5.524,0 -11.008,0 -16.644,0 -0.057,0.694 -0.15,1.311 -0.151,1.927 -0.012,5.259 -0.002,10.517 -0.013,15.773 -0.002,0.686 -0.012,1.383 -0.13,2.055 -0.364,2.076 -1.91,3.368 -3.882,3.31 -2.085,-0.062 -3.695,-1.585 -3.896,-3.704 -0.041,-0.439 -0.026,-0.885 -0.026,-1.326 -10e-4,-14.792 -0.002,-29.584 0,-44.376 0,-3.767 1.269,-5.032 5.042,-5.034 7.027,-0.003 14.06,-0.151 21.08,0.071 2.896,0.092 5.896,0.622 8.627,1.584 5.642,1.985 8.61,6.331 9.166,12.224 0.178,1.882 0.063,3.851 -0.29,5.711 -0.898,4.737 -3.732,8.018 -8.137,9.949 -0.712,0.311 -1.439,0.594 -2.379,0.981 z m -25.022,-23.057 c 0,5.746 0,11.262 0,16.746 0.274,0.098 0.41,0.188 0.546,0.188 6.578,-0.002 13.161,0.121 19.734,-0.071 3.307,-0.097 5.969,-1.745 7.141,-5.035 2.096,-5.879 -1.114,-12.022 -8.055,-11.979 -5.893,0.037 -11.785,0.003 -17.679,0.011 -0.522,10e-4 -1.046,0.083 -1.687,0.14 z"
   id="path20" />
		<path
   fill-rule="evenodd"
   clip-rule="evenodd"
   fill="#222080"
   d="m 149.081,380.515 c -0.098,11.762 -6.536,21.728 -16.878,25.513 -16.156,5.911 -33.982,-2.896 -36.479,-21.648 -1.544,-11.6 3.632,-22.709 13.222,-27.929 15.009,-8.17 36.655,-1.465 39.77,19.819 0.204,1.402 0.246,2.829 0.365,4.245 z m -26.892,-20.236 c -8.523,0.021 -15.087,4.76 -17.747,12.864 -1.379,4.199 -1.596,8.492 -0.522,12.777 1.886,7.529 6.322,12.799 14.145,14.306 7.9,1.521 14.779,-0.518 19.535,-7.427 3.356,-4.875 4.143,-10.394 3.301,-16.196 -1.425,-9.793 -8.922,-16.346 -18.712,-16.324 z"
   id="path21" />
		<path
   fill-rule="evenodd"
   clip-rule="evenodd"
   fill="#4687e6"
   d="m 385.837,360.865 c 0,5.224 0,10.156 0,15.221 0.728,0.045 1.35,0.117 1.971,0.117 7.174,0.009 14.349,-0.004 21.523,0.02 0.773,0.002 1.585,0.081 2.312,0.321 1.457,0.482 2.274,1.857 2.221,3.468 -0.053,1.622 -0.946,2.87 -2.482,3.268 -0.75,0.193 -1.554,0.235 -2.333,0.237 -7.075,0.018 -14.151,0.008 -21.228,0.016 -0.622,0.002 -1.243,0.082 -1.977,0.133 0,5.458 0,10.786 0,16.278 0.647,0.053 1.263,0.146 1.878,0.146 7.961,0.01 15.921,0 23.881,0.016 0.779,0.002 1.584,0.043 2.332,0.236 1.639,0.422 2.563,1.684 2.59,3.341 0.027,1.581 -0.935,3.006 -2.472,3.461 -0.692,0.205 -1.451,0.258 -2.181,0.259 -9.729,0.017 -19.459,0.017 -29.188,0.009 -3.445,-0.003 -4.867,-1.407 -4.869,-4.82 -0.007,-14.743 -0.007,-29.484 0,-44.227 0.003,-3.186 1.46,-4.773 4.656,-4.79 9.926,-0.053 19.853,-0.021 29.778,-0.014 0.391,0 0.785,0.063 1.168,0.14 1.947,0.387 3.197,1.877 3.124,3.703 -0.073,1.864 -1.543,3.32 -3.578,3.435 -1.322,0.074 -2.651,0.026 -3.979,0.026 -7.027,0.002 -14.055,10e-4 -21.08,10e-4 -0.628,-10e-4 -1.256,-10e-4 -2.067,-10e-4 z"
   id="path22" />
		<path
   fill-rule="evenodd"
   clip-rule="evenodd"
   fill="#4687e6"
   d="m 303.439,393.989 c -8.432,0 -16.679,0 -25.09,0 -0.88,1.89 -1.771,3.793 -2.652,5.701 -0.907,1.961 -1.768,3.945 -2.72,5.885 -1.06,2.154 -3.282,2.95 -5.296,1.979 -1.765,-0.854 -2.431,-2.932 -1.479,-5.072 5.299,-11.89 10.632,-23.765 15.952,-35.643 1.688,-3.766 3.4,-7.521 5.053,-11.3 0.717,-1.644 1.802,-2.647 3.674,-2.658 1.863,-0.011 2.98,0.945 3.717,2.592 6.998,15.649 14.023,31.287 21.021,46.937 0.979,2.186 0.291,4.348 -1.534,5.176 -2.055,0.933 -4.231,0.114 -5.266,-2.074 -1.532,-3.242 -2.994,-6.517 -4.495,-9.773 -0.262,-0.574 -0.568,-1.129 -0.885,-1.75 z m -2.906,-7.214 c -3.235,-7.516 -6.352,-14.754 -9.613,-22.331 -3.271,7.597 -6.399,14.859 -9.617,22.331 6.519,0 12.687,0 19.23,0 z"
   id="path23" />
		<path
   fill-rule="evenodd"
   clip-rule="evenodd"
   fill="#222080"
   d="m 159.868,401.668 c 0,0.819 0,1.337 0,1.854 0,4.813 0.006,9.625 -0.003,14.437 -0.005,2.657 -1.441,4.269 -3.786,4.285 -2.343,0.016 -3.897,-1.596 -3.901,-4.218 -0.021,-14.045 -0.022,-28.09 0,-42.136 0.004,-2.644 1.454,-4.166 3.761,-4.142 2.282,0.022 3.643,1.592 3.661,4.224 0.003,0.483 0,0.966 0,1.817 1.786,-2.426 3.779,-4.101 6.258,-5.143 9.009,-3.786 19.165,1.325 21.826,11.211 1.899,7.057 0.906,13.667 -4.296,19.195 -5.646,6 -16.72,6.979 -22.781,-0.689 -0.137,-0.174 -0.325,-0.307 -0.739,-0.695 z m 22.628,-11.979 c 0.005,-7.157 -4.49,-11.919 -11.209,-11.877 -6.394,0.041 -11.393,5.225 -11.391,11.813 0.001,6.587 5.032,11.796 11.405,11.807 6.689,0.011 11.19,-4.71 11.195,-11.743 z"
   id="path24" />
		<path
   fill-rule="evenodd"
   clip-rule="evenodd"
   fill="#222080"
   d="m 199.855,392.464 c -0.256,3.481 2.285,7.201 5.822,8.443 4.494,1.577 8.704,0.98 12.443,-2.117 0.604,-0.5 1.162,-1.066 1.804,-1.513 1.317,-0.917 3.154,-0.712 4.172,0.401 1.023,1.12 1.105,2.759 0.103,4.052 -1.768,2.281 -4.123,3.792 -6.802,4.738 -6.027,2.131 -12.008,2.133 -17.618,-1.184 -5.693,-3.363 -7.885,-8.813 -8.114,-15.149 -0.279,-7.769 4.001,-14.484 10.878,-17.342 10.255,-4.262 21.16,1.7 23.062,12.634 0.217,1.252 0.317,2.533 0.373,3.804 0.095,2.153 -0.866,3.175 -3.069,3.216 -2.8,0.051 -5.601,0.016 -8.401,0.016 -4.274,10e-4 -8.549,10e-4 -12.822,10e-4 -0.582,0 -1.162,0 -1.831,0 z m 0.148,-6.395 c 6.26,0 12.421,0 18.574,0 0.301,-3.799 -3.904,-8.085 -8.08,-8.337 -5.555,-0.337 -10.308,3.382 -10.494,8.337 z"
   id="path25" />
		<path
   fill-rule="evenodd"
   clip-rule="evenodd"
   fill="#222080"
   d="m 236.864,395.521 c -0.001,2.701 0.018,5.402 -0.007,8.104 -0.022,2.391 -1.534,4.038 -3.715,4.113 -2.101,0.072 -3.953,-1.585 -3.959,-3.907 -0.016,-6.036 -0.128,-12.09 0.262,-18.104 0.448,-6.941 6.206,-12.703 13.627,-13.836 9.698,-1.48 17.068,4.421 18.948,12.283 0.216,0.903 0.433,1.836 0.439,2.756 0.044,5.696 0.056,11.394 0.014,17.091 -0.015,2.027 -1.525,3.535 -3.499,3.709 -1.832,0.162 -3.562,-1.1 -4.005,-2.99 -0.144,-0.613 -0.168,-1.264 -0.17,-1.896 -0.013,-5.01 0.007,-10.019 -0.012,-15.028 -0.021,-5.375 -3.796,-9.164 -9.045,-9.12 -5.174,0.044 -8.866,3.854 -8.876,9.165 -0.005,2.552 -0.001,5.106 -0.002,7.66 z"
   id="path26" />
		<path
   fill-rule="evenodd"
   clip-rule="evenodd"
   fill="#4687e6"
   d="m 319.376,380.324 c 0,-7.663 -0.006,-15.326 0.004,-22.989 0.004,-2.225 0.85,-3.578 2.561,-4.208 2.392,-0.881 4.776,0.438 5.257,2.945 0.119,0.622 0.126,1.27 0.126,1.906 0.008,14.934 0.009,29.865 -0.002,44.798 -10e-4,0.73 -0.036,1.483 -0.208,2.188 -0.452,1.857 -1.891,2.97 -3.717,2.98 -1.873,0.013 -3.413,-1.166 -3.854,-3.028 -0.146,-0.612 -0.158,-1.265 -0.16,-1.898 -0.01,-7.565 -0.008,-15.129 -0.007,-22.694 z"
   id="path27" />
	</g>
	<path
   fill="#222080"
   d="m 344.053,216.343 c -0.307,-5.771 -1.199,-11.509 -1.961,-17.314 -3.158,-14.614 -9.378,-28.089 -17.97,-39.72 0.013,1.546 0.019,3.092 -0.109,4.625 -0.291,3.452 -2.632,5.683 -5.614,5.636 -2.998,-0.047 -5.25,-2.313 -5.419,-5.792 -0.163,-3.376 -0.048,-6.768 -0.089,-10.152 -0.013,-1.335 -0.121,-2.672 -0.224,-4.767 -3.397,0 -6.605,0 -9.819,-0.007 -1.58,0 -3.161,0.048 -4.741,-0.027 -3.241,-0.163 -5.086,-1.838 -5.1,-4.666 -0.014,-3.133 1.736,-4.876 4.739,-5.093 2.158,-0.149 4.321,-0.163 6.484,-0.176 -11,-8.572 -39.015,-18.195 -39.441,-18.29 -26.456,-6.199 -51.968,-3.344 -75.276,10.544 -12.139,7.23 -22.597,15.598 -30.945,25.269 -11.956,15.062 -19.83,33.508 -21.959,53.664 -0.197,2.799 -0.277,5.656 -0.244,8.579 0.074,6.774 0.475,14.044 1.58,20.649 2.679,16.019 9.203,31.176 18.785,44.189 0.251,0.333 0.502,0.665 0.753,0.997 19.05,24.841 49.031,40.859 82.756,40.859 51.256,0 93.871,-37.008 102.579,-85.76 0.014,-0.088 0.035,-0.185 0.048,-0.272 1.213,-7.398 1.608,-15.054 1.187,-22.975 z m -58.75,61.34 c -27.839,22.25 -66.73,21.008 -93.329,-2.849 -26.096,-23.403 -31.263,-62.507 -11.969,-92.312 19.687,-30.423 56.267,-38.636 82.315,-29.094 17.137,4.87 31.271,13.352 31.271,13.352 0,0 8.698,19.775 14.87,33.211 7.895,19.871 5.007,55.183 -23.158,77.692 z"
   id="path28" />
	<path
   fill="#4687e6"
   d="m 318.676,87.091 c -31.46,0 -56.966,25.506 -56.966,56.966 0,31.46 25.506,56.966 56.966,56.966 31.467,0 56.966,-25.506 56.966,-56.966 0,-31.46 -25.499,-56.966 -56.966,-56.966 z m 25.22,57.182 c -0.122,2.788 -1.776,4.388 -4.529,4.503 -3.609,0.149 -10.831,0.096 -10.831,0.096 l -4.43,-0.005 c 0,0 0.016,5.742 0,8.305 -0.005,2.251 0.098,4.523 -0.094,6.761 -0.291,3.452 -2.632,5.683 -5.614,5.636 -2.998,-0.047 -5.25,-2.313 -5.419,-5.792 -0.163,-3.376 -0.089,-10.152 -0.089,-10.152 l -0.034,-4.767 -10.009,-0.007 c 0,0 -3.161,0.048 -4.741,-0.027 -3.241,-0.163 -5.086,-1.838 -5.1,-4.666 -0.014,-3.133 1.736,-4.876 4.739,-5.093 3.372,-0.23 15.151,-0.137 15.151,-0.137 0,0 -0.007,-5.228 0.007,-7.54 0.007,-2.366 -0.074,-4.748 0.067,-7.107 0.211,-3.52 2.36,-5.778 5.358,-5.866 3.072,-0.088 5.507,2.299 5.703,5.914 0.176,3.262 0.325,12.691 0.325,14.526 2.062,0 12.322,0.041 15.564,0.4 2.77,0.312 4.1,2.292 3.976,5.018 z"
   id="path29" />
</g>
</svg>
