<?xml version="1.0" encoding="UTF-8" standalone="no"?>
<!-- Generator: Adobe Illustrator 25.2.1, SVG Export Plug-In . SVG Version: 6.00 Build 0)  -->

<svg
   version="1.1"
   id="Layer_1"
   x="0px"
   y="0px"
   viewBox="0 0 270.00001 270.00001"
   xml:space="preserve"
   sodipodi:docname="UEDIN_centred.svg"
   width="270"
   height="270"
   inkscape:version="1.3.2 (091e20e, 2023-11-25)"
   xmlns:inkscape="http://www.inkscape.org/namespaces/inkscape"
   xmlns:sodipodi="http://sodipodi.sourceforge.net/DTD/sodipodi-0.dtd"
   xmlns="http://www.w3.org/2000/svg"
   xmlns:svg="http://www.w3.org/2000/svg"><defs
   id="defs106" /><sodipodi:namedview
   id="namedview106"
   pagecolor="#ffffff"
   bordercolor="#000000"
   borderopacity="0.25"
   inkscape:showpageshadow="2"
   inkscape:pageopacity="0.0"
   inkscape:pagecheckerboard="0"
   inkscape:deskcolor="#d1d1d1"
   inkscape:zoom="1.3321763"
   inkscape:cx="144.12507"
   inkscape:cy="145.62637"
   inkscape:window-width="1392"
   inkscape:window-height="609"
   inkscape:window-x="0"
   inkscape:window-y="38"
   inkscape:window-maximized="0"
   inkscape:current-layer="Layer_1" />
<style
   type="text/css"
   id="style1">
	.st0{fill:none;}
	.st1{fill:#011E41;}
	.st2{fill:#FFFFFF;}
	.st3{fill:#DB0032;}
</style>
<g
   id="g106"
   transform="translate(39.557816,53.610421)">
	<g
   id="g81">
		<path
   class="st0"
   d="M 138.1,42.1 C 138.1,65.3 119.3,84.2 96,84.2 72.7,84.2 53.9,65.3 53.9,42.1 53.9,18.8 72.8,0 96,0 c 23.2,0 42.1,18.8 42.1,42.1 z"
   id="path1" />
		<g
   id="g80">
			<g
   id="g27">
				<path
   class="st1"
   d="m 60.2,33.6 c 0.7,0.2 1,0.1 1.1,-0.4 h 0.2 L 61,35.4 h -0.2 c 0.1,-0.4 0,-0.7 -0.8,-0.9 l -4.6,-1 -0.2,0.9 c -0.2,0.8 0,1.2 0.6,1.4 V 36 l -1.4,-0.3 v -0.2 c 0.1,-0.1 0.2,-0.2 0.2,-0.3 0.1,-0.1 0.1,-0.3 0.2,-0.6 l 0.7,-3.2 c 0.1,-0.5 0.1,-0.8 0,-1 v -0.2 l 1.4,0.3 v 0.1 c -0.5,0 -0.9,0.1 -1.2,1.1 l -0.2,0.9 z"
   id="path2" />
				<path
   class="st1"
   d="m 60.5,26.7 1.6,0.8 c 0.7,0.3 1,0.3 1.2,-0.2 l 0.2,0.1 -1,2 -0.2,-0.1 c 0.2,-0.4 0.2,-0.7 -0.6,-1.1 l -3.5,-1.7 c -0.7,-0.3 -1,-0.3 -1.2,0.2 l -0.2,-0.1 1,-2 0.2,0.1 c -0.2,0.4 -0.1,0.7 0.6,1.1 l 1.6,0.8 1.5,-3 -1.6,-0.8 c -0.7,-0.3 -1,-0.3 -1.2,0.2 l -0.2,-0.1 1,-2 0.2,0.1 c -0.2,0.5 -0.1,0.8 0.6,1.1 l 3.5,1.7 c 0.7,0.3 1,0.3 1.2,-0.2 l 0.2,0.1 -1,2 -0.2,-0.1 c 0.2,-0.4 0.2,-0.7 -0.6,-1.1 L 62,23.7 Z"
   id="path3" />
				<path
   class="st1"
   d="m 67.9,16.4 -0.1,0.1 c -0.5,-0.2 -0.6,-0.2 -1,0.3 l -1,1.2 1.7,1.4 c 0.2,0.2 0.4,0.2 0.6,-0.1 l 0.7,-0.8 c 0.6,-0.7 0.7,-0.9 0.3,-1.7 l 0.1,-0.1 0.7,1 L 67,21.2 66.9,21 c 0.3,-0.4 0.3,-0.6 -0.3,-1.2 l -3,-2.5 C 63,16.8 62.7,16.8 62.4,17.2 l -0.1,-0.1 2.9,-3.5 0.8,0.7 -0.1,0.1 c -0.6,-0.3 -0.8,-0.2 -1.2,0.3 l -1.1,1.4 2.1,1.7 1.1,-1.3 c 0.3,-0.3 0.3,-0.5 0,-0.9 l 0.1,-0.1 z"
   id="path4" />
				<path
   class="st1"
   d="M 79.6,9.4 C 79.4,10.3 79,10.9 78.3,11.3 77,12 75.9,11.4 75.4,10.5 L 73.9,7.8 C 73.5,7.1 73.2,7 72.8,7.3 l -0.1,-0.2 2,-1.1 0.1,0.2 c -0.4,0.2 -0.5,0.5 -0.1,1.2 l 1.6,2.8 c 0.5,0.8 1.3,1.2 2.2,0.7 0.6,-0.3 1,-1 1.1,-1.8 L 77.8,5.8 C 77.4,5.2 77.2,5 76.7,5.3 L 76.4,5 78.3,4 78.4,4.2 c -0.5,0.3 -0.5,0.6 -0.1,1.2 l 1.9,3.4 c 0.4,0.7 0.7,0.8 1.1,0.5 l 0.1,0.2 -1.4,0.7 z"
   id="path5" />
				<path
   class="st1"
   d="M 89.5,6.9 H 89.3 L 83.7,2.7 v 0 l 1.1,4.2 c 0.2,0.6 0.5,0.8 1,0.6 L 85.9,7.7 84,8.4 83.9,8.2 C 84.4,8 84.6,7.8 84.4,7 L 83.5,3.5 C 83.3,2.8 83.1,2.5 82.3,2.6 L 82.2,2.4 83.8,2 l 5,3.7 v 0 L 87.9,2.2 C 87.7,1.4 87.4,1.3 86.9,1.4 L 86.8,1.2 88.6,0.7 88.7,0.9 C 88.2,1 88,1.3 88.2,2 Z"
   id="path6" />
				<path
   class="st1"
   d="m 94.5,5.3 c 0,0.8 0.2,1 0.8,1 V 6.5 L 93.1,6.6 V 6.4 c 0.5,0 0.7,-0.2 0.7,-1 L 93.6,1.5 c 0,-0.8 -0.2,-1 -0.8,-1 V 0.3 L 95,0.2 v 0.2 c -0.5,0 -0.7,0.3 -0.7,1 z"
   id="path7" />
				<path
   class="st1"
   d="m 100.8,6.8 h -0.2 L 99.4,1.5 C 99.2,0.7 99.1,0.4 98.5,0.3 V 0.1 l 2.2,0.3 v 0.2 c -0.4,-0.1 -0.7,0.2 -0.6,0.7 l 1,4.2 1.9,-3.7 C 103.3,1.3 103.2,1 102.6,0.9 V 0.7 l 1.8,0.2 v 0.2 c -0.5,-0.1 -0.9,0.2 -1.3,1 z"
   id="path8" />
				<path
   class="st1"
   d="m 110.7,7 -0.2,-0.1 c 0.1,-0.5 0,-0.6 -0.6,-0.9 l -1.4,-0.5 -0.8,2.1 c -0.1,0.3 0,0.4 0.3,0.6 l 1,0.4 c 0.9,0.3 1.1,0.3 1.7,-0.3 l 0.2,0.1 -0.7,1 -4.2,-1.6 0.1,-0.2 c 0.5,0.2 0.7,0.1 1,-0.7 l 1.3,-3.7 c 0.3,-0.7 0.2,-1 -0.3,-1.2 l 0.1,-0.2 4.2,1.5 -0.4,1 h -0.1 c 0.1,-0.7 -0.1,-0.8 -0.7,-1 l -1.7,-0.6 -0.9,2.5 1.6,0.6 c 0.4,0.2 0.6,0.1 0.8,-0.3 l 0.2,0.1 z"
   id="path9" />
				<path
   class="st1"
   d="m 117.8,6.5 0.6,0.4 c 0.8,0.5 1,1.4 0.5,2 -0.4,0.6 -1.1,1 -2,0.4 l -0.6,-0.4 z m -1.7,2.6 0.4,0.3 c 0.9,0.6 0.4,2 0.6,3.9 l 1.1,0.7 0.1,-0.2 c -0.8,-0.6 0,-2.6 -0.6,-3.8 0.9,0.3 1.5,0 1.9,-0.6 0.5,-0.7 0.3,-1.7 -0.8,-2.5 l -2.1,-1.4 -0.1,0.2 c 0.4,0.3 0.5,0.5 0.1,1.2 l -2.1,3.2 c -0.5,0.7 -0.7,0.7 -1.1,0.4 l -0.1,0.2 1.9,1.2 0.1,-0.2 c -0.4,-0.3 -0.5,-0.6 -0.1,-1.2 z"
   id="path10" />
				<path
   class="st1"
   d="m 126,14.8 -0.1,-0.1 c 0.6,-0.7 0.4,-1.4 -0.1,-1.9 -0.5,-0.5 -1,-0.5 -1.4,-0.1 -0.8,0.8 0.1,2.2 0.1,3.4 0,0.6 -0.2,1 -0.5,1.3 -0.7,0.7 -1.8,0.7 -2.5,0 -0.5,-0.5 -0.6,-1.1 -0.8,-1.2 -0.1,-0.1 -0.2,-0.1 -0.3,0 l -0.1,-0.1 1.2,-1.2 0.1,0.1 c -0.8,0.8 -0.4,1.8 0,2.2 0.5,0.5 1.2,0.6 1.7,0.1 0.8,-0.8 -0.1,-2.3 0,-3.3 0,-0.5 0.2,-1 0.6,-1.3 0.7,-0.7 1.6,-0.6 2.3,0.1 0.5,0.5 0.5,0.9 0.7,1 0.1,0.1 0.1,0.1 0.2,0 l 0.1,0.1 z"
   id="path11" />
				<path
   class="st1"
   d="m 126.5,21.5 c -0.6,0.4 -0.7,0.7 -0.4,1.2 l -0.1,0.1 -1.3,-1.8 0.1,-0.1 c 0.3,0.4 0.6,0.5 1.2,0 l 3.2,-2.2 c 0.6,-0.5 0.7,-0.7 0.4,-1.2 l 0.1,-0.1 1.3,1.8 -0.1,0.1 c -0.3,-0.4 -0.6,-0.4 -1.2,0 z"
   id="path12" />
				<path
   class="st1"
   d="m 129.6,27.1 c -0.7,0.3 -0.8,0.5 -0.6,1 l -0.2,0.1 -0.9,-2 0.2,-0.1 c 0.2,0.4 0.4,0.6 1.2,0.2 l 4.3,-2 -0.4,-0.8 c -0.4,-0.8 -0.7,-1 -1.3,-0.8 l -0.1,-0.2 1.3,-0.6 0.1,0.2 c 0,0.1 0,0.2 0,0.4 0,0.1 0.1,0.3 0.2,0.6 l 1.4,3 c 0.2,0.5 0.4,0.7 0.6,0.8 l 0.1,0.2 -1.3,0.6 -0.1,-0.1 c 0.4,-0.3 0.7,-0.7 0.3,-1.6 L 134,25.1 Z"
   id="path13" />
				<path
   class="st1"
   d="m 132.1,34.7 c -0.7,0.2 -0.9,0.4 -0.8,0.9 h -0.2 l -0.5,-2.2 h 0.2 c 0.1,0.5 0.2,0.7 1.1,0.5 l 1.9,-0.4 1.7,-1.7 c 0.6,-0.6 0.7,-0.8 0.6,-1.3 h 0.2 l 0.5,2.4 h -0.2 c -0.1,-0.7 -0.4,-0.7 -0.7,-0.4 l -1.6,1.6 1.7,0.6 c 0.5,0.2 1,0.1 0.9,-0.4 h 0.2 l 0.4,1.7 h -0.2 c -0.1,-0.5 -0.3,-0.6 -0.9,-0.8 L 134,34.3 Z"
   id="path14" />
				<path
   class="st1"
   d="m 58.1,50.5 c 1.7,-0.5 3.2,0.1 3.6,1.5 0.4,1.2 -0.4,2.5 -2.3,3.1 -1.4,0.4 -3.1,0.1 -3.5,-1.5 -0.5,-1.3 0.5,-2.6 2.2,-3.1 z m -0.2,-0.9 c -1.8,0.5 -2.8,2.3 -2.2,4.1 0.5,1.8 2.3,2.8 4.1,2.3 1.8,-0.5 2.7,-2.3 2.2,-4.1 -0.6,-1.8 -2.4,-2.8 -4.1,-2.3 z"
   id="path15" />
				<path
   class="st1"
   d="m 60.3,61.7 c -0.7,0.4 -0.8,0.7 -0.5,1.1 l -0.2,0.1 -1.1,-1.9 0.2,-0.1 c 0.3,0.4 0.5,0.5 1.2,0.1 l 3.4,-1.9 C 64,58.7 64.1,58.4 63.8,58 l 0.2,-0.1 2.1,3.7 -1,0.6 V 62 c 0.6,-0.5 0.5,-0.7 0.2,-1.3 L 64.5,59.3 62.2,60.6 63,62 c 0.2,0.4 0.5,0.4 1,0.2 l 0.1,0.2 -1.5,0.9 -0.1,-0.2 c 0.4,-0.2 0.5,-0.6 0.3,-0.9 L 62,60.8 Z"
   id="path16" />
				<path
   class="st1"
   d="m 72.3,73.7 -0.1,-0.1 c 0.2,-0.5 0.2,-0.6 -0.3,-1 l -1.2,-1 -1.4,1.7 c -0.2,0.2 -0.2,0.4 0.1,0.6 l 0.8,0.7 c 0.7,0.6 0.9,0.7 1.7,0.3 l 0.1,0.1 -1,0.7 -3.5,-2.8 0.1,-0.1 c 0.4,0.3 0.6,0.3 1.2,-0.3 l 2.5,-3 c 0.5,-0.6 0.5,-0.9 0.1,-1.2 l 0.1,-0.1 3.5,2.8 -0.7,0.8 -0.1,-0.1 c 0.3,-0.6 0.2,-0.8 -0.3,-1.2 l -1.4,-1.1 -1.7,2.1 1.4,1.1 c 0.3,0.3 0.5,0.3 0.9,0 l 0.1,0.1 z"
   id="path17" />
				<path
   class="st1"
   d="m 79.4,73.9 1.1,0.5 c 1.8,0.8 1.8,2.5 1.2,3.9 -0.7,1.5 -2,2.1 -3.4,1.5 L 77.7,79.5 C 77.2,79.3 77.1,79 77.5,78.1 Z M 76.6,78 c -0.3,0.7 -0.6,0.8 -1.1,0.6 l -0.1,0.2 2.7,1.2 c 2.2,1 3.7,0.1 4.4,-1.3 0.7,-1.5 0.3,-3.4 -1.8,-4.4 L 78.1,73.1 78,73.2 c 0.5,0.2 0.5,0.5 0.2,1.2 z"
   id="path18" />
				<path
   class="st1"
   d="m 87.6,81.9 c -0.2,0.7 0,1 0.5,1.1 v 0.2 l -2.2,-0.5 v -0.2 c 0.5,0.1 0.7,0 0.9,-0.8 l 0.8,-3.8 c 0.2,-0.8 0,-1 -0.5,-1.1 v -0.2 l 2.2,0.5 v 0.2 c -0.5,-0.1 -0.7,0.1 -0.9,0.8 z"
   id="path19" />
				<path
   class="st1"
   d="m 98.9,83.9 h -0.2 l -4.5,-5.4 v 0 l 0.1,4.4 c 0,0.6 0.3,0.9 0.8,0.8 V 84 h -1.9 v -0.2 c 0.5,0 0.8,-0.2 0.8,-1.1 V 79.1 C 94,78.4 93.8,78 93.1,78 v -0.2 h 1.6 l 3.9,4.8 v 0 -3.7 c 0,-0.8 -0.2,-1 -0.8,-1 v -0.2 h 1.9 v 0.2 c -0.6,0 -0.8,0.3 -0.8,1 z"
   id="path20" />
				<path
   class="st1"
   d="m 105.4,79.4 -0.7,-2.6 0.6,-0.2 c 1,-0.3 1.6,0.1 1.8,0.9 0.2,0.8 -0.2,1.4 -1.1,1.7 z m -0.2,2.4 c 0.2,0.7 0.1,1 -0.4,1.1 l 0.1,0.2 2.8,-0.8 c 1.1,-0.3 1.8,-1.1 1.5,-2 -0.2,-0.8 -1,-1.3 -2,-1.3 v 0 c 0.8,-0.5 1,-1 0.8,-1.7 -0.2,-0.8 -1,-1.3 -2.5,-0.9 l -2.3,0.6 0.1,0.2 c 0.5,-0.1 0.7,0 0.9,0.8 z m 0.3,-2.1 0.6,-0.2 c 1.1,-0.3 1.9,0.1 2.1,1 0.2,0.9 -0.2,1.4 -0.8,1.6 l -0.5,0.1 c -0.5,0.1 -0.7,0 -0.9,-0.8 z"
   id="path21" />
				<path
   class="st1"
   d="m 118.1,76.7 c -0.2,0.9 -0.6,1.5 -1.3,1.9 -1.3,0.8 -2.4,0.2 -2.9,-0.8 l -1.6,-2.7 c -0.4,-0.7 -0.7,-0.7 -1.1,-0.5 l -0.1,-0.2 1.9,-1.1 0.1,0.2 c -0.4,0.3 -0.5,0.5 -0.1,1.2 l 1.6,2.7 c 0.5,0.8 1.3,1.2 2.2,0.6 0.6,-0.4 1,-1 1,-1.8 L 116,73 c -0.4,-0.6 -0.6,-0.8 -1.1,-0.5 l -0.1,-0.2 1.9,-1.1 0.1,0.2 c -0.4,0.3 -0.5,0.6 -0.1,1.2 l 2,3.4 c 0.4,0.7 0.7,0.7 1.1,0.5 l 0.1,0.2 -1.3,0.8 z"
   id="path22" />
				<path
   class="st1"
   d="m 120.6,68.2 0.5,-0.5 c 0.7,-0.7 1.5,-0.7 2.1,-0.1 0.5,0.5 0.7,1.3 0,2.1 l -0.5,0.5 z m 2.2,2.2 0.4,-0.4 c 0.8,-0.8 2.1,0 3.9,0.2 l 0.9,-0.9 -0.1,-0.1 c -0.8,0.7 -2.5,-0.5 -3.9,-0.2 0.4,-0.8 0.3,-1.5 -0.2,-2 -0.6,-0.6 -1.6,-0.7 -2.6,0.3 l -1.8,1.8 0.1,0.1 c 0.4,-0.4 0.6,-0.4 1.2,0.2 l 2.8,2.7 c 0.6,0.6 0.6,0.9 0.2,1.2 l 0.1,0.1 1.6,-1.6 -0.1,-0.1 c -0.4,0.4 -0.7,0.3 -1.2,-0.2 z"
   id="path23" />
				<path
   class="st1"
   d="m 133.1,61.7 c -0.1,0.3 -0.6,1.3 -0.8,1.6 -1.4,2.3 -3.3,2.3 -4.5,1.5 -1.9,-1.2 -2.1,-3.2 -1.3,-4.5 0.5,-0.8 0.9,-0.9 1.1,-1.3 0.1,-0.2 0.1,-0.3 0,-0.4 l 0.1,-0.2 1.6,1 -0.1,0.2 c -1.1,-0.5 -2.1,0.2 -2.5,0.9 -0.7,1.1 -0.2,2.5 1.2,3.4 1.6,0.9 3.3,0.7 4.1,-0.5 0.2,-0.4 0.4,-0.9 0,-1.2 l -0.6,-0.3 c -0.6,-0.4 -1,-0.4 -1.2,0.1 l -0.1,0.2 -0.2,-0.1 1.3,-2.2 0.2,0.1 c -0.3,0.5 -0.1,0.8 0.3,1.1 z"
   id="path24" />
				<path
   class="st1"
   d="m 132.9,54.5 1.7,0.5 c 0.7,0.2 1,0.1 1.1,-0.4 l 0.2,0.1 -0.6,2.2 -0.2,-0.1 c 0.1,-0.5 0,-0.7 -0.8,-0.9 l -3.7,-1.1 c -0.7,-0.2 -1,-0.1 -1.1,0.4 l -0.2,-0.1 0.6,-2.2 0.2,0.1 c -0.1,0.5 0,0.7 0.8,1 l 1.7,0.5 0.9,-3.3 -1.7,-0.5 c -0.7,-0.2 -1,-0.1 -1.1,0.4 l -0.2,-0.1 0.6,-2.1 0.2,0.1 c -0.1,0.5 0,0.8 0.8,0.9 l 3.7,1.1 c 0.7,0.2 1,0.1 1.1,-0.4 l 0.2,0.1 -0.6,2.1 -0.2,-0.1 c 0.1,-0.5 0,-0.7 -0.8,-0.9 l -1.7,-0.5 z"
   id="path25" />
				<path
   class="st1"
   d="m 57.6,42.6 c 0,0.3 -0.2,0.6 -0.6,0.6 -0.4,0 -0.6,-0.2 -0.5,-0.6 0,-0.3 0.2,-0.6 0.6,-0.6 0.2,0.1 0.5,0.3 0.5,0.6 z"
   id="path26" />
				<path
   class="st1"
   d="m 135.5,42.6 c 0,0.3 -0.2,0.6 -0.6,0.5 -0.3,0 -0.6,-0.2 -0.6,-0.6 0,-0.4 0.2,-0.6 0.6,-0.6 0.4,0.2 0.6,0.4 0.6,0.7 z"
   id="path27" />
			</g>
			<g
   id="g79">
				<path
   class="st1"
   d="m 112,70.9 c 0.4,-0.2 0.8,-0.5 1.3,-0.8 0.4,-0.2 0.7,-0.4 1.1,-0.7 0.3,-0.2 0.6,-0.5 0.9,-0.7 0.4,-0.2 0.7,-0.5 1,-0.8 0.1,-0.1 0.1,-0.1 0.2,-0.2 0.1,0 0.2,-0.1 0.2,-0.1 0.3,-0.2 0.6,-0.5 0.9,-0.8 0.2,-0.2 0.4,-0.4 0.6,-0.7 0.2,-0.3 0.5,-0.4 0.7,-0.6 0.1,-0.1 0.1,-0.2 0.2,-0.3 0.2,-0.2 0.4,-0.4 0.6,-0.6 0.1,-0.2 0.2,-0.3 0.4,-0.4 0.4,-0.4 0.8,-0.9 1.2,-1.3 0.3,-0.3 0.6,-0.7 0.9,-1.1 0.2,-0.3 0.4,-0.5 0.6,-0.8 0.1,-0.1 0.2,-0.2 0.3,-0.3 0.3,-0.4 0.6,-0.9 0.9,-1.3 0.1,-0.2 0.1,-0.3 0.2,-0.5 0.1,-0.1 0.1,-0.2 0.2,-0.3 0.1,-0.1 0.1,-0.3 0.2,-0.4 0.2,-0.4 0.4,-0.7 0.6,-1.1 0.2,-0.3 0.3,-0.6 0.5,-0.8 0.1,-0.3 0.2,-0.6 0.4,-0.9 0.1,-0.3 0.3,-0.6 0.4,-0.9 0.5,-1.3 1,-2.6 1.3,-3.9 0,-0.2 0.1,-0.3 0.1,-0.5 0.1,-0.5 0.2,-1 0.3,-1.5 0,-0.3 0.1,-0.5 0.1,-0.8 0.1,-0.4 0.2,-0.9 0.2,-1.3 0,-0.3 0.1,-0.7 0.1,-1 0,-0.1 0.1,-0.3 0.1,-0.4 0,-0.3 0,-0.6 0.1,-0.9 0,-0.2 0.1,-0.3 0.1,-0.4 0,-0.2 0,-0.4 0,-0.6 0.1,-1.3 0.1,-2.7 0,-4 0,-0.7 -0.2,-1.3 -0.3,-2 -0.1,-0.7 -0.1,-1.4 -0.3,-2 -0.4,-1.8 -0.9,-3.6 -1.5,-5.3 -0.1,-0.2 -0.2,-0.5 -0.3,-0.7 -0.2,-0.5 -0.4,-1 -0.7,-1.5 -0.1,-0.1 -0.2,-0.3 -0.2,-0.4 -0.2,-0.4 -0.3,-0.9 -0.6,-1.3 -0.1,-0.2 -0.3,-0.5 -0.5,-0.7 -0.1,-0.3 -0.2,-0.5 -0.4,-0.8 -0.5,-0.7 -0.9,-1.4 -1.4,-2.1 -0.2,-0.2 -0.4,-0.4 -0.5,-0.6 -0.2,-0.3 -0.4,-0.5 -0.6,-0.8 -0.2,-0.2 -0.4,-0.4 -0.6,-0.6 -0.1,-0.1 -0.1,-0.2 -0.3,-0.4 -0.1,-0.2 -0.3,-0.3 -0.4,-0.5 -0.1,-0.1 -0.2,-0.2 -0.3,-0.2 -0.2,-0.3 -0.4,-0.5 -0.7,-0.8 -0.2,-0.2 -0.4,-0.4 -0.6,-0.6 -0.2,-0.2 -0.4,-0.4 -0.6,-0.6 -0.3,-0.2 -0.6,-0.4 -0.8,-0.6 -0.3,-0.2 -0.6,-0.5 -0.9,-0.8 -0.2,-0.1 -0.4,-0.2 -0.6,-0.4 -0.2,-0.2 -0.5,-0.4 -0.7,-0.5 -0.2,-0.1 -0.3,-0.3 -0.5,-0.4 -0.1,-0.1 -0.3,-0.2 -0.4,-0.2 -0.2,-0.1 -0.4,-0.2 -0.5,-0.4 -0.6,-0.4 -1.2,-0.6 -1.8,-1 -0.2,-0.1 -0.4,-0.3 -0.7,-0.4 -0.4,-0.2 -0.8,-0.4 -1.1,-0.6 -0.3,-0.2 -0.6,-0.3 -1,-0.4 -0.2,-0.1 -0.3,-0.2 -0.5,-0.3 -0.1,0 -0.2,-0.1 -0.4,-0.1 -0.2,-0.1 -0.4,-0.2 -0.6,-0.3 -0.6,-0.2 -1.2,-0.4 -1.9,-0.6 -0.3,-0.1 -0.6,-0.2 -0.9,-0.3 -0.6,-0.2 -1.3,-0.3 -2,-0.4 -0.4,-0.1 -0.9,-0.2 -1.3,-0.3 -0.3,0 -0.6,-0.1 -0.9,-0.1 C 100.1,9.1 99.6,9 99.1,9 98.9,9 98.7,9 98.5,9 98.4,9 98.2,9 98.1,9 97.8,9 97.6,9 97.3,9 96.9,9 96.3,9 95.7,9 95.5,9.1 95.1,9 94.9,9 94.6,9 94.3,9 94,9 93.9,9 93.8,9 93.7,9 93.5,9 93.3,9 93,9 c -0.1,0 -0.2,0.1 -0.4,0.1 -0.1,0 -0.2,0 -0.3,0 -0.1,0 -0.2,0 -0.3,0 -0.1,0 -0.1,0 -0.2,0 -0.1,0 -0.3,0 -0.4,0 -0.3,0 -0.8,0 -1,0.2 -0.1,0 -0.1,0 -0.2,0 -0.2,0 -0.5,0 -0.6,0.1 -0.5,0 -0.9,0.2 -1.4,0.3 -0.2,0.1 -0.5,0.1 -0.8,0.2 -0.2,0 -0.4,0 -0.6,0.1 -0.3,0 -0.6,0.2 -0.9,0.3 -0.2,0.1 -0.4,0.1 -0.5,0.2 -0.3,0 -0.6,0.2 -0.9,0.3 -0.2,0.1 -0.4,0.2 -0.6,0.2 -1,0.4 -2,0.9 -2.9,1.4 -0.2,0.1 -0.3,0.2 -0.5,0.3 -1.1,0.6 -2.3,1.2 -3.3,2 -0.3,0.2 -0.6,0.4 -0.9,0.6 -0.2,0.1 -0.3,0.3 -0.5,0.4 -0.3,0.2 -0.6,0.4 -0.9,0.6 -0.6,0.5 -1.1,1 -1.6,1.5 -0.3,0.3 -0.6,0.6 -1,0.9 -0.1,0.1 -0.2,0.3 -0.3,0.4 -0.1,0.1 -0.3,0.3 -0.4,0.4 -0.2,0.2 -0.4,0.5 -0.6,0.8 -0.2,0.2 -0.4,0.4 -0.6,0.6 -0.1,0.1 -0.2,0.2 -0.2,0.3 -0.3,0.4 -0.7,0.8 -1,1.2 -0.2,0.3 -0.4,0.6 -0.6,1 -0.3,0.4 -0.6,0.9 -0.9,1.3 -0.1,0.1 -0.1,0.3 -0.2,0.4 -0.2,0.3 -0.4,0.7 -0.6,1 -0.2,0.3 -0.3,0.7 -0.5,1 -0.1,0.1 -0.2,0.3 -0.2,0.4 -0.2,0.3 -0.3,0.6 -0.5,0.9 -0.1,0.2 -0.2,0.4 -0.2,0.6 -0.1,0.2 -0.2,0.4 -0.3,0.6 -0.1,0.2 -0.2,0.5 -0.2,0.7 -0.1,0.2 -0.2,0.5 -0.3,0.8 -0.5,1.6 -0.9,3.2 -1.2,4.8 0,0.3 -0.1,0.6 -0.1,0.9 0,0.4 -0.2,0.8 -0.2,1.1 0,0.3 0,0.6 -0.1,0.9 0,0.2 0,0.4 -0.1,0.7 -0.1,1.3 0,2.6 0,3.9 0,0.6 0.1,1.3 0.2,1.9 0,0.3 0,0.5 0,0.8 0.1,0.8 0.2,1.7 0.4,2.5 0.1,0.2 0.1,0.4 0.2,0.6 0.1,0.7 0.3,1.3 0.5,1.9 0.1,0.1 0.1,0.3 0.2,0.4 0,0.2 0.1,0.3 0.1,0.4 0.2,0.7 0.5,1.4 0.8,2.1 0.1,0.3 0.2,0.5 0.4,0.8 0.1,0.2 0.1,0.4 0.2,0.5 0.2,0.4 0.5,0.8 0.7,1.3 0.2,0.3 0.4,0.7 0.6,1 0.1,0.1 0.1,0.2 0.1,0.4 0.1,0.1 0.1,0.2 0.2,0.2 0.1,0.2 0.1,0.3 0.2,0.4 0.2,0.3 0.4,0.6 0.6,0.8 0.1,0.2 0.2,0.3 0.4,0.5 0.2,0.2 0.4,0.4 0.5,0.6 0.1,0.2 0.2,0.4 0.4,0.6 0.2,0.3 0.5,0.6 0.7,0.8 0.2,0.2 0.4,0.5 0.6,0.7 0.2,0.3 0.5,0.5 0.7,0.8 0.2,0.2 0.4,0.5 0.6,0.7 0.3,0.3 0.6,0.6 1,0.9 0.2,0.2 0.3,0.3 0.5,0.5 0.3,0.2 0.6,0.4 0.8,0.6 0.2,0.2 0.5,0.5 0.8,0.7 0.2,0.1 0.4,0.3 0.5,0.4 0.2,0.2 0.4,0.4 0.6,0.6 0.3,0.2 0.6,0.4 0.9,0.6 0.2,0.1 0.4,0.2 0.6,0.3 0.2,0.2 0.4,0.3 0.7,0.5 0.2,0.1 0.5,0.3 0.7,0.4 0.9,0.5 1.7,1 2.6,1.4 0.4,0.2 0.8,0.4 1.2,0.6 0.4,0.2 0.8,0.3 1.1,0.4 0.1,0 0.3,0.1 0.4,0.1 0.4,0.1 0.8,0.3 1.1,0.4 0.1,0 0.2,0.1 0.3,0.1 0.3,0.1 0.6,0.3 1,0.4 0.4,0.1 0.8,0.2 1.2,0.2 0.6,0.1 1.2,0.3 1.9,0.4 0.2,0 0.5,0 0.7,0.1 0.3,0 0.6,0.1 0.9,0.1 0.2,0 0.5,0 0.7,0.1 0.2,0 0.3,0.1 0.5,0.1 0.2,0 0.3,0 0.5,0 0.4,0.1 0.8,0.1 1.1,0.2 0.2,0 0.4,0 0.6,0 0.1,0 0.2,0 0.4,0 0.3,0 0.8,0 1.1,0.1 0.2,0 0.4,0 0.6,0 0.4,0 0.8,-0.1 1.2,-0.1 0.2,0 0.4,0 0.5,0 0.2,0 0.5,-0.1 0.8,-0.1 0.9,-0.1 1.8,-0.2 2.6,-0.3 0.3,-0.1 0.6,-0.2 0.9,-0.2 0.4,-0.1 0.7,-0.2 1.1,-0.2 0.2,-0.1 0.4,-0.2 0.5,-0.2 0.3,-0.1 0.6,-0.2 0.9,-0.3 0.1,-0.1 0.2,-0.1 0.4,-0.1 0.2,-0.1 0.4,-0.1 0.6,-0.2 0.4,-0.2 0.9,-0.3 1.3,-0.5 0.3,-0.1 0.5,-0.2 0.8,-0.4 0.2,-0.1 0.5,-0.2 0.8,-0.3 0.1,0 0.1,-0.1 0.2,-0.1 0.3,-0.1 0.5,-0.2 0.8,-0.4 0.3,-0.2 0.6,-0.3 0.9,-0.5 0.1,0.7 0.2,0.6 0.4,0.5 z"
   id="path28" />
				<g
   id="g74">
					<path
   class="st2"
   d="m 95.6,72.3 c 0,0 0,0 0,0 0,0 0,0 0,0 -0.1,0 -0.1,-0.1 -0.1,-0.1 C 95.4,72 95.3,71.9 95.2,71.7 95,71.4 94.7,71.2 94.5,70.9 93.8,70.2 93,69.7 92.1,69.3 91.9,69.2 91.7,69.2 91.6,69.1 91.4,69 91.2,68.9 91,68.8 c -0.2,-0.1 -0.4,-0.1 -0.6,-0.1 -0.2,0 -0.4,-0.1 -0.6,-0.1 -0.4,-0.1 -0.9,-0.2 -1.3,-0.3 -0.4,-0.1 -0.9,-0.1 -1.3,-0.2 -0.3,0 -0.7,0 -1,0 -1.6,-0.2 -3.1,-0.3 -4.6,-0.6 -0.5,-0.1 -1,-0.1 -1.5,-0.2 -0.5,-0.1 -1,-0.2 -1.5,-0.4 C 78.3,66.8 78.1,66.8 77.8,66.7 77.6,66.6 77.3,66.5 77,66.4 76.8,66.3 76.6,66.2 76.5,66.2 76.4,66.1 76.3,66 76.1,66 76,66 76,65.9 75.9,65.9 75.5,65.6 75.2,65.1 74.8,64.7 74.6,64.4 74.4,64 74.3,63.6 74.2,63.4 74.2,63.2 74.1,63 c -0.2,-0.9 -0.2,-1.8 -0.2,-2.7 0,-0.2 0,-0.4 -0.1,-0.6 0,-0.7 0.1,-1.4 0.1,-2.1 0,-0.2 0,-0.3 0,-0.5 0,-0.7 0,-1.4 0,-2.1 0,-0.5 0,-0.9 0,-1.3 0,-1.9 0,-3.8 0.1,-5.7 0,-0.3 0,-0.5 -0.1,-0.8 0,-0.3 0,-0.6 0,-0.9 0,-0.1 0,-0.3 0,-0.4 0,-0.4 0.1,-0.9 0.1,-1.3 0,-0.3 0,-0.7 0,-1 0,-0.2 0,-0.5 0,-0.7 0,-0.2 -0.1,-0.4 -0.1,-0.6 0,-0.2 0,-0.4 0,-0.6 0,-0.4 0,-0.8 0,-1.2 0,-0.2 0,-0.5 0,-0.7 0,-0.3 -0.1,-0.5 -0.1,-0.8 0,-0.3 0.1,-0.6 0.1,-0.9 0,-0.3 0,-0.6 0,-0.9 0,-0.7 0,-1.3 0,-2 0,-0.1 0,-0.3 0,-0.4 0,-0.3 0,-0.6 0,-0.9 0,-0.2 0,-0.5 0.1,-0.8 0,-1.2 0,-2.4 0.1,-3.6 0,-0.4 0,-0.8 0,-1.2 0,-0.3 -0.1,-0.6 -0.1,-0.9 0,-0.2 0,-0.4 0,-0.6 0,-1 0,-2 0,-3 0,-0.4 0,-0.7 0,-1.1 0,-0.4 0,-0.8 0,-1.3 0,-0.3 0,-0.5 0,-0.8 0,-0.2 0,-0.5 0,-0.8 0,-0.1 0.1,0 0.1,0 0.4,-0.1 0.9,-0.1 1.4,0 0.6,0.1 1.1,0 1.7,0 0.5,0 1,0 1.5,0 0.3,0 0.6,0 0.9,0 0.6,0 1.1,0 1.7,0 0.7,0 1.4,0 2.1,0 0.2,0 0.4,0 0.6,0 0.3,0 0.6,0 0.9,0 0.2,0 0.5,0.1 0.7,0.1 0.3,0 0.6,0 0.9,0 0.5,0 1,0 1.5,0 0.2,0 0.5,0 0.7,0 0.7,0 1.4,0 2.1,0 0.4,0 0.9,0 1.4,0 0.4,0 0.8,-0.1 1.1,-0.1 0.3,0 0.6,0 0.9,0 0.3,0 0.5,0 0.8,0 0.3,0 0.6,0 0.9,0.1 0.2,0 0.5,0 0.7,0 0.4,0 0.9,0 1.4,0 0.2,0 0.4,0 0.6,0 1.2,0 2.4,0 3.6,0 0.3,0 0.5,0 0.8,0 0.6,0 1.1,0 1.7,0 0.1,0 0.2,0 0.4,0 0.5,0 1,0 1.5,0 0.2,0 0.4,0 0.6,0.1 0.2,0 0.4,0 0.7,0 0.4,0 0.8,0.1 1.1,0 0.2,0 0.5,0 0.8,0 0.2,0 0.4,0 0.6,0 0.2,0 0.5,0 0.8,0 0.2,0 0.4,0 0.6,0.1 0.1,0 0.3,0 0.5,0 0.2,0 0.3,0 0.5,0 0.2,0 0.3,0 0.5,0 0.3,0 0.6,0 0.9,0 0.5,0 0.9,0 1.4,0 0.2,0 0.5,0 0.7,0 0.1,0 0.3,0 0.5,0 0.1,0 0.3,0 0.4,0 0,0 0,0 0,0 0.1,0.2 0.1,0.4 0.1,0.6 0,0.7 0,1.3 0,1.9 0,0.4 0,0.9 0,1.3 0,0.1 0,0.3 0,0.4 0,0.3 0,0.6 0,0.9 0,0.3 0,0.6 -0.1,0.9 0,0.4 0.1,0.8 0.1,1.1 0,0.1 0,0.3 -0.1,0.4 0,0.2 0,0.5 0,0.7 0,0.2 0,0.5 -0.1,0.8 0,0.3 0,0.6 0,0.9 0,0.2 0,0.5 -0.1,0.7 0,0.4 0.1,0.8 0.1,1.1 0,0.1 0,0.3 0,0.4 0,0.3 0,0.6 0,0.9 0,0.5 0.1,1.1 0.1,1.6 0,0.1 0,0.2 0,0.3 0,0.2 0,0.5 0,0.7 0,0.3 0,0.6 0,0.9 0,0.2 0.1,0.4 0,0.6 0,0.1 0,0.2 -0.1,0.3 0,0.2 0,0.3 0,0.5 0,0.6 -0.1,1.1 -0.1,1.7 0,0.3 0,0.6 0,0.9 0,0.1 0,0.2 0,0.3 0,0.2 0,0.4 0,0.6 0,0.1 0,0.2 0,0.4 0,0.2 0,0.4 -0.1,0.6 0,0.3 0.1,0.6 0.1,0.9 0,0.8 -0.1,1.6 -0.1,2.5 0,0.3 0.1,0.6 0.1,1 0,0.2 0,0.4 -0.1,0.6 0,0.4 0,0.8 0,1.2 0,0.2 0,0.4 -0.1,0.6 0,0.8 0,1.6 0,2.4 0,0.6 -0.1,1.1 -0.1,1.7 0,0.3 0,0.6 0,0.9 0,0.1 0,0.2 0,0.3 0,0.2 0,0.4 0,0.6 0,0.5 0,1 0,1.5 0,0.6 0,1.2 0,1.9 0,0.2 0,0.3 0,0.5 0,0.1 0,0.2 0,0.3 0,0.4 0,0.7 -0.1,1.1 0,0.3 0,0.6 0,0.9 0,0.2 -0.1,0.4 -0.1,0.6 0,0.2 -0.1,0.4 -0.1,0.6 -0.1,0.4 -0.3,0.9 -0.5,1.2 -0.2,0.3 -0.4,0.4 -0.6,0.6 -0.1,0.1 -0.3,0.2 -0.4,0.3 -0.2,0.2 -0.5,0.4 -0.8,0.6 -0.2,0.1 -0.4,0.1 -0.5,0.2 -0.4,0.2 -0.7,0.3 -1.1,0.4 -0.3,0.1 -0.7,0.2 -1,0.3 -0.1,0 -0.2,0.1 -0.3,0.1 -0.2,0 -0.4,0.1 -0.6,0.2 -0.2,0 -0.3,0 -0.5,0.1 -0.2,0 -0.4,0.1 -0.6,0.1 -0.1,0 -0.1,0 -0.2,0.1 -0.1,0 -0.2,0 -0.3,0.1 -0.2,0 -0.6,0.1 -0.8,0.2 -0.2,0 -0.4,0 -0.5,0 -0.1,0 -0.2,0 -0.3,0.1 -0.1,0 -0.3,0 -0.5,0.1 -0.1,0 -0.1,0 -0.2,0 -0.1,0 -0.2,0 -0.4,0.1 -0.1,0 -0.2,0 -0.3,0.1 -0.2,0 -0.5,0 -0.7,0.1 -0.1,0 -0.1,0 -0.2,0 -0.2,0 -0.4,-0.1 -0.6,0 -0.1,0 -0.2,0 -0.4,0 -0.1,0 -0.1,0 -0.2,0 -0.2,0 -0.4,0 -0.6,0 -0.1,0 -0.1,0 -0.2,0 -0.1,0 -0.1,0 -0.2,0 -0.1,0 -0.1,0 -0.2,0 -0.1,0 -0.2,0 -0.3,0 -0.1,0 -0.2,0 -0.4,0.1 -0.1,0 -0.1,0 -0.2,0 -0.1,0 -0.3,0 -0.4,0.1 -0.1,0 -0.2,0 -0.3,0.1 -0.1,0 -0.2,0 -0.3,0.1 -0.1,0 -0.2,0 -0.3,0.1 -0.1,0 -0.1,0 -0.2,0 -0.1,0 -0.3,0 -0.5,0.1 -0.1,0 -0.2,0 -0.3,0.1 -0.3,0 -0.6,0.1 -0.8,0.2 -0.2,0.1 -0.4,0.1 -0.6,0.2 -0.4,0 -0.8,0.3 -1.1,0.6 -0.2,0.2 -0.6,0.3 -0.8,0.5 0.2,0.8 -0.2,1.7 -0.6,2.5 z"
   id="path29" />
					<path
   class="st1"
   d="m 98.9,68.2 c 0.2,-0.1 0.4,-0.2 0.5,-0.2 0.4,-0.1 0.7,-0.2 1.1,-0.2 0.7,-0.2 1.4,-0.3 2.1,-0.5 0.2,0 0.3,0 0.5,0 0.3,-0.1 0.5,-0.1 0.8,-0.1 0.4,0 0.7,0 1.1,0 0.4,0 0.9,-0.1 1.3,-0.2 0.4,0 0.8,0 1.2,-0.1 0.4,-0.1 0.7,-0.1 1,-0.2 0.1,0 0.2,0 0.3,0 0.5,-0.1 1.1,-0.2 1.6,-0.3 0.2,0 0.3,-0.1 0.5,-0.1 0.5,-0.2 1,-0.3 1.4,-0.5 0.4,-0.1 0.8,-0.2 1.2,-0.4 0.3,-0.2 0.6,-0.4 0.9,-0.6 0.5,-0.3 1.1,-0.7 1.5,-1.3 0.1,-0.2 0.3,-0.6 0.3,-0.9 0,-0.1 0,-0.3 0,-0.4 0.1,-0.6 0.1,-1.3 0.1,-1.9 0,-0.2 0,-0.5 0,-0.7 0,-0.1 0,-0.2 0,-0.4 0,-0.2 0,-0.5 0,-0.8 0,-0.1 0,-0.2 0,-0.3 0,-0.1 0,-0.2 0,-0.3 0,-0.1 0,-0.2 0,-0.3 0,-0.2 0.1,-0.3 0.1,-0.5 0,-0.2 -0.1,-0.3 -0.1,-0.5 0,-0.2 0.1,-0.4 0.1,-0.6 0,-0.8 0,-1.5 0,-2.2 0,-0.2 0,-0.4 0,-0.5 0,-0.7 0,-1.3 0,-2 0,-1.8 0,-3.7 0.1,-5.5 0,-0.2 0,-0.4 0,-0.6 0,-0.1 0,-0.1 0,-0.2 0,-0.1 0,-0.3 0,-0.5 0,-0.1 0,-0.2 0,-0.3 0,-0.2 0,-0.3 0,-0.5 0,-0.3 -0.1,-0.6 -0.1,-0.9 0,-0.2 0,-0.4 0.1,-0.6 0,-0.1 0,-0.2 0,-0.3 0,-0.1 0,-0.2 0.1,-0.3 0,-0.1 0,-0.2 0,-0.4 0,-0.1 0,-0.3 0.1,-0.4 0,-0.1 0,-0.2 0,-0.4 0,-0.8 0,-1.6 0,-2.4 0,-0.2 0.1,-0.3 0.1,-0.5 0,-0.2 -0.1,-0.3 0,-0.5 0,-0.1 0,-0.2 0,-0.3 0,-0.3 0,-0.5 0,-0.8 0,-0.4 0,-0.8 0,-1.2 0,-0.1 0,-0.3 -0.1,-0.4 0,-0.3 0.1,-0.6 0.1,-0.9 0,-0.2 0,-0.5 0,-0.7 0,-1.9 -0.1,-3.6 0,-5.5 0,-1 0,-2 0,-3 0,-0.5 0,-1.1 0,-1.7 0,-0.5 0,-1 0,-1.6 0,0 0,0 0,0 0,-0.1 -0.3,0 -0.3,0 -0.5,0 -1.1,0 -1.6,0 -0.4,0 -0.7,0 -1.1,0 -0.1,0 -0.2,0 -0.3,0 -0.1,0 -0.3,0 -0.4,0 -0.2,0 -0.4,0 -0.6,-0.1 -0.7,0 -1.3,0 -2,0 -0.2,0 -0.7,-0.1 -0.8,0 -0.4,0 -0.7,0 -1,0 -0.3,0 -0.6,-0.1 -0.9,0 -0.1,0 -0.1,0 -0.2,0 -0.2,0 -0.5,0 -0.8,0 -0.4,0 -0.7,-0.1 -1.1,-0.1 -0.3,0.1 -0.7,-0.1 -1,0 -0.1,0 -0.1,0 -0.2,0 -0.3,0 -0.6,0 -0.9,0 -0.1,0 -0.3,0 -0.5,0 -0.1,0 -0.2,0 -0.3,0 -0.2,0 -0.5,0 -0.7,-0.1 -0.6,0 -1.2,0 -1.8,0 -0.2,0 -0.5,0 -0.7,0 -0.1,0 -0.1,0 -0.2,0 -0.1,0 -0.2,0 -0.3,0 -0.3,0 -0.9,-0.2 -1.2,-0.1 -0.1,0 -0.1,0 -0.2,0 -0.1,0 -0.3,0 -0.4,0.1 -0.9,0 -1.7,0 -2.5,0 -0.2,0 -0.4,0 -0.7,0 -0.1,0 -0.3,0 -0.4,0 -0.2,0 -0.4,0 -0.6,0 -0.3,0 -0.9,-0.1 -1.2,0 -0.2,0 -0.4,0 -0.6,0 -0.1,0 -0.3,0 -0.4,0 -0.2,0 -0.4,0 -0.5,0 -0.3,0 -0.6,-0.1 -1,-0.1 -0.1,0 -0.2,0 -0.4,0 -0.2,0 -0.5,0 -0.7,0 -0.3,0 -0.6,0 -1,0 -0.1,0 -0.4,0 -0.5,0 -0.4,0 -0.8,0 -1.2,0 -0.3,0 -0.8,-0.1 -1,0 -0.3,0 -0.7,-0.1 -0.9,0 -0.5,0 -1.1,0 -1.6,-0.1 -0.2,0 -0.5,-0.1 -0.7,0 -0.1,0 -0.2,0 -0.3,0 -0.2,0 -0.5,0 -0.7,0 -0.2,0 -0.5,0 -0.6,0 -0.7,0 -1.4,0 -2.1,0 -0.2,0 -0.5,0 -0.7,0 -0.3,0 -0.8,-0.1 -1,0 -0.1,0 -0.4,0 -0.5,0 -0.2,0.2 -0.1,0.9 -0.1,1.2 0,0.2 0,0.4 0,0.6 0,0.2 0,0.4 0,0.5 0,0.3 0,0.5 0,0.8 0,0.7 0,1.4 0,2.2 0,0.2 -0.1,0.3 -0.1,0.5 0,0.2 0,0.4 0,0.6 0,0.2 -0.1,0.4 -0.1,0.5 0,0.4 0,0.8 0,1.2 0,0.7 -0.1,1.4 -0.1,2 0,0.3 0,0.5 0,0.8 0,0.1 0,0.2 0,0.3 0,0.2 0,0.3 -0.1,0.5 0,1.2 0,2.3 0,3.5 0,0.5 0,1 0,1.5 0,0.2 0,0.5 -0.1,0.8 0,0.4 0,0.8 0,1.1 0,0.7 0,1.5 0,2.3 0,0.3 0,0.5 0,0.8 0,0.3 0,0.7 -0.1,1 0,1.4 0,2.8 0,4.2 0,0.3 -0.1,0.6 -0.1,1 0,0.4 0,0.7 0,1.1 0,0.2 0,0.3 0,0.5 0,1.2 -0.1,2.4 -0.1,3.7 0,0.6 -0.1,1.1 -0.1,1.6 0,0.2 0,0.5 0,0.7 0,0.1 0,0.2 0,0.3 0,0.1 0,0.2 0,0.3 0,0.3 0,0.6 0,0.8 0,0.3 0,0.7 0,1.1 0,0.2 0.1,0.3 0.1,0.5 0,0.2 -0.1,0.3 -0.1,0.5 0,0.2 0.1,0.3 0.1,0.6 0,1.5 0,2.9 0.7,4.1 0.5,0.8 1.3,1.3 2.1,1.6 0.5,0.2 1.1,0.5 1.7,0.6 0.4,0.1 0.9,0.2 1.3,0.2 0.4,0.1 0.7,0.2 1.1,0.2 0.3,0 0.7,0.1 1,0.1 0.7,0.1 1.5,0.2 2.2,0.3 0.4,0 0.7,0 1.1,0.1 0.1,0 0.3,0.1 0.5,0.1 0.3,0 0.6,0 0.8,0 0.3,0 0.6,0.1 0.9,0.1 0.1,0 0.3,0 0.5,0 0.1,0 0.3,0.1 0.4,0.1 0.4,0.1 0.7,0.1 1.1,0.2 0.1,0 0.2,0.1 0.4,0.1 0.3,0.1 0.5,0.1 0.8,0.2 0.4,0.1 0.7,0.3 1.1,0.4 0.3,0.1 0.5,0.3 0.8,0.4 0.1,0.1 0.3,0.2 0.4,0.3 0.3,0.2 0.6,0.3 0.8,0.5 0.3,0.3 0.6,0.6 0.8,0.9 0.1,0.1 0.1,0.2 0.3,0.3 0,0.1 0,0 0.1,0 0,-0.1 0.1,-0.1 0.2,-0.2 0.1,-0.1 0.1,-0.2 0.2,-0.3 0.6,-0.9 1.6,-1.6 2.5,-2.1 0.2,0.2 0.3,0.1 0.5,0.1 z"
   id="path30" />
					<g
   id="g73">
						<g
   id="g37">
							<path
   class="st2"
   d="m 99,24.3 c 0,0 0,0 0,0 0,0 0,0 0,0 -0.1,-0.1 -0.1,-0.2 -0.1,-0.2 0,-0.3 0.3,-0.4 0.4,-0.6 0.4,0.2 -0.1,0.6 -0.3,0.8 z"
   id="path31" />
							<path
   class="st2"
   d="m 100.5,21.9 c 0.1,-0.1 0.2,-0.3 0.3,-0.4 0.1,-0.1 0.2,-0.2 0.3,-0.3 0.2,0 0.4,0 0.6,0.1 0,0 0,0.1 0,0.1 -0.3,0 -1.1,1 -1.3,1.3 -0.1,0.1 -0.2,0.4 -0.3,0.4 -0.1,0 -0.2,0 -0.2,0 -0.2,-0.1 -0.1,-0.3 0,-0.5 0,-0.1 0,-0.2 0.1,-0.3 0.1,0 0.2,-0.1 0.2,-0.1 0.1,-0.1 0.2,-0.2 0.3,-0.3 z"
   id="path32" />
							<path
   class="st2"
   d="m 98.6,22.6 c 0.1,-0.2 0.1,-0.3 0.1,-0.5 0.1,-0.2 0.3,-0.2 0.4,-0.3 0.1,-0.1 0.1,-0.3 0.2,-0.4 0.1,-0.1 0.2,-0.2 0.4,-0.2 0.1,0 0.2,0 0.3,0 0,0.1 -0.2,0.3 -0.3,0.4 -0.1,0.2 -0.2,0.3 -0.3,0.5 -0.1,0.2 -0.2,0.3 -0.3,0.5 -0.1,0.1 -0.1,0.2 -0.2,0.4 -0.1,0 -0.1,0.1 -0.2,0.2 -0.1,0.1 -0.1,0.1 -0.2,0.2 -0.1,0.1 -0.1,0.1 -0.2,0.2 -0.1,0.1 -0.1,0.3 -0.3,0.5 0,-0.1 -0.2,0 -0.4,-0.1 0,0 0,0 -0.1,0 0,-0.1 0.4,-0.7 0.5,-0.8 0.1,-0.1 0.2,-0.1 0.3,-0.2 0.1,-0.1 0.1,-0.2 0.1,-0.3 0,0.1 0.1,0 0.2,-0.1 z"
   id="path33" />
							<path
   class="st2"
   d="m 96.4,22.2 c 0,-0.1 0.2,-0.2 0.2,-0.4 0.1,-0.2 0,-0.3 0.1,-0.4 0.1,-0.1 0.9,0 1.1,-0.2 0.1,0 0.3,0 0.5,0 0,0 0,0 0,0.1 0,0 0,0 -0.1,0 -0.2,0.3 -0.3,0.7 -0.5,1 -0.1,0.1 -0.1,0.2 -0.2,0.4 -0.1,0.1 -0.1,0.3 -0.2,0.4 -0.1,0.3 -0.5,0.8 -0.9,0.8 0,0 0,0 0,0 -0.1,0 0,-0.3 0,-0.3 0,-0.1 -0.1,-0.2 -0.1,-0.4 0,-0.2 0.1,-0.3 0.1,-0.4 0.1,-0.2 -0.1,-0.4 0,-0.6 z"
   id="path34" />
							<path
   class="st2"
   d="m 94.1,21.2 c 0.1,-0.1 0.5,0 0.7,-0.1 0.2,0.1 0.6,0 0.9,0.1 0,0.1 0,0.2 0,0.4 0,0.1 0,0.2 0.1,0.3 0,0.1 0,0.2 -0.1,0.3 0,0.5 -0.1,0.9 -0.1,1.3 0,0.3 0,0.6 0.1,0.8 0,0 0,0 0,0 0,0 0,0 0,0 -0.4,0 -0.8,-1.1 -0.9,-1.4 -0.1,-0.1 -0.2,-0.2 -0.3,-0.4 -0.4,-0.2 -0.7,-0.9 -0.4,-1.3 z"
   id="path35" />
							<path
   class="st2"
   d="m 91.8,21.5 c 0,-0.1 0,-0.1 0,0 0.1,-0.2 0.5,-0.2 0.7,-0.3 0.2,0 0.4,0 0.5,0 0.4,0.2 0.6,0.8 0.7,1.2 0.1,0.2 0.2,0.5 0.4,0.7 0.1,0.1 0.1,0.3 0.2,0.4 0.1,0.1 0.1,0.3 0.1,0.4 0,0.1 0,0.3 -0.1,0.4 -0.1,0 -0.2,0 -0.3,0 -0.1,-0.1 -2.2,-2.7 -2.2,-2.8 z"
   id="path36" />
							<path
   class="st2"
   d="m 90.6,21.2 c 0.2,0 0.3,0.1 0.5,0.2 0.2,0.2 0.4,0.5 0.6,0.7 0.1,0.1 0.1,0.3 0.3,0.4 0.1,0.2 0.3,0.3 0.4,0.5 0.1,0.2 0.2,0.3 0.4,0.5 0.1,0.1 0.1,0.1 0.1,0.2 0.1,0.1 0.2,0.2 0.3,0.2 0.2,0.2 0.4,0.4 0.5,0.7 -0.1,0 0,0 -0.1,0.1 -0.2,0 -0.4,-0.1 -0.5,-0.2 C 92.9,24.3 92.7,24.1 92.5,23.9 92.4,23.8 92.2,23.7 92.1,23.6 91.9,23.3 91.7,23 91.5,22.8 91.4,22.7 91.2,22.6 91,22.5 v 0 c 0,-0.1 0,-0.3 -0.1,-0.5 -0.1,-0.2 -0.4,-0.3 -0.5,-0.5 0,0 0,0 0,0 0,0 0,0 0,0 -0.1,-0.2 0.1,-0.3 0.2,-0.3 z"
   id="path37" />
						</g>
						<g
   id="g51">
							<path
   class="st2"
   d="m 97.1,27.2 c 0.1,0 0.2,0 0.2,0 0.2,0.1 0.5,0.5 0.4,0.7 -0.1,0.1 -0.2,0.3 -0.3,0.4 -0.1,0.1 -0.2,0.2 -0.3,0.2 -0.2,0 -0.1,-0.4 -0.1,-0.5 0.1,-0.1 0.2,-0.2 0.2,-0.3 0,-0.3 -0.1,-0.3 -0.1,-0.5 z"
   id="path38" />
							<path
   class="st2"
   d="m 97.5,26 c -0.1,0.1 -0.2,0.2 -0.3,0.2 -0.2,0 -0.2,-0.2 -0.4,-0.4 -0.1,-0.1 -0.4,-0.2 -0.4,-0.4 0,-0.1 0.1,-0.1 0.2,-0.2 0,0 0,0 0,0 0.2,0 0.3,0.1 0.5,0.2 0.2,0.1 0.4,0.1 0.6,0.2 0,0 0.1,0.1 0.1,0.1 -0.1,0.2 -0.2,0.2 -0.3,0.3 z"
   id="path39" />
							<path
   class="st2"
   d="m 97.1,29.6 c 0,0.2 -0.5,0.3 -0.7,0.2 -0.2,-0.2 0.2,-0.5 0.3,-0.5 0.2,-0.1 0.4,0.1 0.4,0.3 z"
   id="path40" />
							<path
   class="st2"
   d="m 95.9,29.4 c -0.1,0 -0.1,-0.1 -0.2,-0.1 -0.1,0 -0.1,-0.1 -0.2,-0.1 -0.1,-0.2 -0.1,-0.3 -0.1,-0.6 0,-0.1 0,-0.3 0,-0.4 0,-0.1 0.1,-0.1 0.2,-0.2 0.1,0 0.2,0 0.2,0 0.1,0 0.7,0.6 0.7,0.7 0,0.3 -0.5,0.6 -0.6,0.7 z"
   id="path41" />
							<path
   class="st2"
   d="m 99.2,27.5 c 0,0.2 -0.1,0.4 -0.3,0.5 0,0 -0.1,0 -0.1,0 0,-0.2 0.3,-0.3 0.4,-0.5 z"
   id="path42" />
							<path
   class="st2"
   d="m 98.7,27.2 c -0.1,0 -0.1,0.1 -0.2,0.1 -0.1,0 -0.1,-0.1 -0.2,-0.2 0,-0.1 0,-1 0,-1.1 0,-0.1 0.2,-0.2 0.3,-0.3 0.2,0.1 0.2,0.2 0.3,0.4 0.1,0.4 0.2,0.8 -0.2,1.1 z"
   id="path43" />
							<path
   class="st2"
   d="m 98.3,28.8 c 0.1,0 0.1,0 0,0 0,0.2 -0.4,0.4 -0.5,0.3 -0.2,-0.2 0,-0.3 0.1,-0.4 0.2,0 0.4,0 0.4,0.1 z"
   id="path44" />
							<path
   class="st2"
   d="m 95.7,25.8 c 0.1,0 0.2,0 0.3,0 0.2,0.1 0.8,0.5 0.7,0.8 -0.1,0.2 -0.2,0.3 -0.4,0.5 -0.2,0.2 -0.3,0.3 -0.6,0.3 -0.2,0 -0.5,-0.9 -0.5,-1.1 0.1,-0.1 0.4,-0.5 0.5,-0.5 z"
   id="path45" />
							<path
   class="st2"
   d="m 95,28.1 c -0.1,0.1 -0.3,0.3 -0.4,0.3 -0.1,0 -0.2,-0.1 -0.3,-0.1 -0.2,-0.2 -0.3,-0.5 -0.3,-0.8 0,-0.1 0.1,-0.2 0.1,-0.2 0.1,-0.2 0.1,-0.3 0.2,-0.5 0.2,0.1 1,0.6 0.9,1 0.1,0.1 -0.1,0.2 -0.2,0.3 z"
   id="path46" />
							<path
   class="st2"
   d="m 95.2,29.7 c 0,0 -0.1,0 0,0 0,0 -0.1,0 -0.2,0 -0.4,-0.1 -0.9,-0.2 -0.6,-0.7 0.1,0 0.1,0 0.2,0 0.1,0.1 0.1,0.2 0.2,0.3 0.1,0.2 0.3,0.2 0.4,0.4 z"
   id="path47" />
							<path
   class="st2"
   d="m 93.2,26 c 0,0 0.2,-0.2 0.3,-0.3 0,0 0,0 0,0 0.4,0.2 0.7,0.7 0.3,1 -0.1,0.1 -0.2,0.2 -0.3,0.2 -0.3,0 -0.2,-0.4 -0.2,-0.5 -0.1,-0.1 -0.1,-0.2 -0.1,-0.4 z"
   id="path48" />
							<path
   class="st2"
   d="m 93.8,25.5 c 0,0 0,-0.1 0,0 0.1,-0.1 0.1,-0.1 0.2,-0.1 0.4,0 0.6,-0.1 0.9,-0.3 0.1,0 0.2,0 0.3,0.1 0.2,0.2 -0.6,0.8 -0.8,0.8 -0.3,-0.1 -0.4,-0.4 -0.6,-0.5 z"
   id="path49" />
							<path
   class="st2"
   d="m 93.4,27.9 c 0.1,0 0.1,0 0.2,0 0.1,0.1 0.6,0.6 0.7,0.7 0,0.2 -0.4,0.5 -0.5,0.5 -0.1,0 -0.1,-0.1 -0.2,-0.2 -0.3,-0.3 -0.3,-0.6 -0.2,-1 z"
   id="path50" />
							<path
   class="st2"
   d="m 92.8,27.6 c -0.3,0.1 -0.2,-0.5 -0.2,-0.7 0.2,0.1 0.6,0.6 0.2,0.7 z"
   id="path51" />
						</g>
						<g
   id="g66">
							<path
   class="st2"
   d="m 96.4,57.5 c 0,-0.1 0.6,-1 0.7,-1.1 0.1,-0.1 0.1,-0.1 0.2,-0.1 0,0 0,0 0,0 0.1,0 0.3,0 0.4,0 0,0.2 -0.7,1.2 -0.9,1.3 -0.1,0 -0.3,0 -0.4,-0.1 0,0.1 0,0 0,0 z"
   id="path52" />
							<path
   class="st2"
   d="m 92,57.4 c -0.2,0.1 -0.4,0 -0.6,0 0,-0.3 1.1,-1 1.3,-1.2 0.1,0 0.3,0 0.4,0 0,0.3 -0.9,1.2 -1.1,1.2 z"
   id="path53" />
							<path
   class="st2"
   d="M 99.8,63.1 C 99.6,63.2 99.4,63 99.3,62.9 99.2,62.7 99.2,62.6 99.1,62.4 99,62.1 98.9,61.8 98.8,61.6 98.7,61.4 98.6,61.2 98.6,61 c 0,-0.1 0.1,-0.2 0.2,-0.3 0.1,0 0.1,0.1 0.2,0.1 0.1,0.1 0.1,0.2 0.1,0.3 0.1,0.3 0.2,0.5 0.3,0.8 0.1,0.3 0.2,0.6 0.4,0.9 0,0.1 0.1,0.3 0,0.3 z"
   id="path54" />
							<path
   class="st2"
   d="m 98.9,56.2 c 0.1,0.2 1,1.1 0.9,1.3 0,0 -0.1,0.1 -0.1,0.1 -0.2,0 -0.5,0 -0.8,0 -0.4,0 -0.9,0 -1.3,0 0,0 0,0 0,0 0,0 0,0 0,0 0,-0.1 0.1,-0.2 0.1,-0.3 0.1,-0.3 0.7,-1 0.6,-1.3 0,-0.1 -0.1,-0.2 -0.2,-0.2 -0.4,-0.1 -0.8,0 -1.1,0 -0.2,0 -0.7,-0.1 -0.8,0 -0.4,0 -1.7,-0.2 -1.9,0.1 0,0.1 0,0.2 0.1,0.2 0.1,0.3 0.4,0.6 0.6,0.9 0.1,0.2 0.2,0.3 0.3,0.5 0,0 0,0 0,0 0,0 -0.1,0 -0.1,0 -0.8,0 -1.6,0 -2.4,0 0,0 0,0 0,-0.1 0,0 1.2,-1.4 1.3,-1.6 0,0 0,0 0,-0.1 -0.1,0 -0.3,0 -0.4,-0.1 -0.2,0 -0.5,0 -0.7,0 -0.7,0 -1.4,0 -2.1,0 0,-0.1 1,-1 1.1,-1.2 0.8,-0.9 1.7,-1.7 2.6,-2.6 0.3,-0.3 0.6,-0.6 0.9,-0.9 0.1,-0.1 0.2,-0.2 0.3,-0.2 0,0 0,0 0,-0.1 0.2,0.1 0.4,0.3 0.5,0.5 0.3,0.3 0.5,0.5 0.8,0.8 0.2,0.2 0.3,0.3 0.5,0.5 0.7,0.8 1.5,1.5 2.3,2.3 0.3,0.3 0.7,0.6 1,1 -0.1,0 -0.1,0 -0.2,0 -0.2,0 -0.5,0 -0.7,0 -0.1,0 -0.2,0 -0.3,0 -0.3,0 -0.7,0 -1,0.1 -0.1,0.2 0.1,0.3 0.2,0.4 z"
   id="path55" />
							<path
   class="st2"
   d="m 90.7,59.5 c 0.1,-0.2 2.3,0 2.7,0 0.6,0 1.1,-0.1 1.6,-0.1 0.8,0 1.5,0.1 2.3,0.1 0.4,0 0.8,0 1.2,0 0.9,0 1.9,0 2.7,0 0,0 0,0 0,0 0.1,0 0.1,-0.2 0.1,-0.3 0,-0.6 0,-1.2 0,-1.8 0,-0.4 0,-0.8 0.1,-1.2 0.5,0.2 0.4,0.8 0.4,1.4 0,0.3 0,0.7 0,1 0,0.2 0,0.4 -0.1,0.6 0,0.3 0.1,0.6 0,0.8 0,0 0,0 0,0.1 0,0 0,0 0,0 0,-0.1 -0.2,0 -0.2,0 -0.5,0 -0.9,0 -1.4,0 -0.2,0 -0.5,0 -0.7,0 -0.2,0 -0.4,0 -0.6,0 -0.5,0 -1,0 -1.6,0 -0.2,0 -0.6,-0.1 -0.8,0 -0.4,0 -0.8,0 -1.1,0 -0.1,0 -0.2,0 -0.3,0 -0.2,0 -0.7,-0.1 -0.9,0 -0.1,0 -0.3,0 -0.4,0 -0.4,0 -0.7,0 -1.1,0 -0.2,0 -0.5,0 -0.7,0 -0.1,0 -0.1,0 -0.2,0 -0.1,0 -0.2,0 -0.3,0 -0.4,0 -0.8,0.1 -1,-0.3 0.3,-0.2 0.3,-0.2 0.3,-0.3 z"
   id="path56" />
							<path
   class="st2"
   d="m 101.7,66.7 c -0.1,0.1 -0.3,0.2 -0.5,0.2 0,-0.7 0,-1.5 0,-2.2 0,-0.2 0,-0.4 0,-0.7 0,-0.1 0.1,-0.1 0.1,-0.2 0.1,0 0.3,0 0.4,0.1 0,0 0.1,0.3 0,0.4 0,0.2 0,0.3 0,0.5 0,0.3 0,0.5 0,0.8 0.1,0.2 0.1,0.9 0,1.1 z"
   id="path57" />
							<path
   class="st2"
   d="m 110.3,65.8 c -0.1,0 -0.2,0 -0.3,0.1 -0.1,0 -0.4,0.1 -0.6,0.1 -0.3,0 -0.5,0.1 -0.7,0.2 -0.2,0 -0.3,0.1 -0.5,0.1 -0.1,0 -0.2,0 -0.4,0.1 -0.1,0 -0.1,0 -0.2,0 -0.1,0 -0.1,0 -0.2,0 -0.2,0 -0.4,0 -0.5,0.1 -0.1,0 -0.1,0 -0.2,0 -0.3,0 -0.6,0 -0.8,0.1 -0.1,0 -0.2,0 -0.3,0 -0.1,0 -0.2,0 -0.3,-0.1 0,0.1 -0.4,0.1 -0.4,0.1 -0.2,0 -0.4,0 -0.6,0 -0.1,0 -0.1,0 -0.2,0 -0.2,0 -0.4,0 -0.6,0.1 -0.1,0 -0.3,0 -0.4,0.1 -0.2,0 -0.7,0.1 -0.8,0 -0.2,-0.2 -0.1,-2 -0.1,-2.3 0,-0.2 0,-0.3 0,-0.5 0,-0.2 0.1,-0.8 -0.3,-0.7 -0.2,0 -0.6,0 -0.7,0 -0.2,0 -0.7,0 -0.8,-0.1 -0.2,-0.2 -0.3,-0.9 -0.4,-1.2 -0.2,-0.4 -0.4,-0.8 -0.5,-1.2 0,-0.1 0,-0.1 0,-0.2 0.1,-0.1 0.5,-0.1 0.6,-0.1 0.3,0 1.9,0 2,-0.2 0.1,-0.1 0.1,-0.6 0,-0.8 0,-0.3 0,-0.6 0,-0.8 0,-0.4 -0.1,-0.9 0.1,-1.3 1,1.1 2.1,2 3.1,3.1 0.1,0.1 0.2,0.2 0.3,0.3 0.2,0.2 0.5,0.5 0.8,0.7 0.7,0.7 1.3,1.4 2,2.1 0.5,0.5 1.1,1.1 1.6,1.6 0.1,0.1 0.3,0.2 0.3,0.3 0.3,0.2 0.1,0.2 0,0.3 z"
   id="path58" />
							<path
   class="st2"
   d="m 108.4,38.4 c 0.2,-0.2 0.3,-0.4 0.5,-0.6 0.2,-0.2 0.4,-0.3 0.6,-0.5 0.2,-0.3 0.5,-0.5 0.8,-0.8 0.3,-0.3 0.6,-0.5 0.9,-0.8 0.6,-0.6 1.1,-1.2 1.7,-1.7 0.9,-0.8 1.7,-1.6 2.5,-2.5 0.2,-0.2 0.5,-0.4 0.7,-0.7 0.1,0.2 0,0.7 0.1,1 0,0.6 0,1.3 0,2 0,0.3 0,0.7 0,1 0,0.3 0,0.7 -0.1,1 0,0.2 0,0.4 0.1,0.6 0,0.1 0,0.2 0,0.3 0,0.1 0,0.2 0,0.3 0,0.1 0,0.2 0,0.3 0,0.5 -0.1,1.1 0,1.6 0,0.3 0.1,0.6 0.1,0.8 0,0.2 0,0.3 -0.1,0.5 0,0.3 0,0.7 0,1 0,0.1 0,0.2 0,0.3 0,0.2 0.1,0.4 0.1,0.7 0,0.3 -0.1,0.6 -0.1,0.9 0,0.4 0.1,0.8 0.1,1.2 0,0.2 0,0.5 -0.1,0.7 0,0.1 0,0.2 0,0.3 0,0.3 0,0.5 0,0.8 0,0.2 0,0.4 0,0.6 0,0.1 0,0.3 -0.1,0.4 0,0.3 0,0.6 0,0.8 0.1,0.4 0,0.9 0,1.3 0,0.1 0,0.2 0,0.3 0,0.2 0.1,0.5 0,0.7 0,0.1 0,0.3 -0.1,0.4 0,0.1 0,0.3 0,0.4 0,0.2 0,0.4 0,0.6 0,0.2 0.1,1.2 -0.1,1.2 -0.1,0 -1,-1 -1.2,-1.2 -1.1,-1.2 -2.3,-2.3 -3.4,-3.5 -0.2,-0.2 -0.3,-0.4 -0.5,-0.6 -0.2,-0.2 -0.3,-0.3 -0.5,-0.5 -0.1,-0.1 -0.2,-0.2 -0.2,-0.3 -1.1,-1.1 -2.2,-2.2 -3.3,-3.3 -0.2,-0.2 -1.6,-1.6 -1.6,-1.7 0,0 0,-0.1 0,-0.1 0.1,-0.3 0.6,-0.6 0.8,-0.8 0.2,-0.2 0.4,-0.5 0.6,-0.7 0.2,-0.2 0.4,-0.4 0.6,-0.6 0.1,-0.1 0.2,-0.1 0.2,-0.2 0.2,-0.2 0.4,-0.4 0.5,-0.6 0.2,0.1 0.4,-0.1 0.5,-0.3 z"
   id="path59" />
							<path
   class="st2"
   d="m 101.8,22.4 c 0.1,-0.1 0.2,-0.1 0.3,-0.2 0.1,-0.1 0.1,-0.2 0.2,-0.3 0.1,-0.2 0.3,-0.4 0.5,-0.6 0.1,-0.1 0.1,-0.1 0.2,-0.2 0.1,-0.1 0.3,0 0.5,0 0.3,0 0.6,0 0.9,0 0.1,0 0.3,0 0.4,-0.1 0.2,0 0.4,0 0.7,0 0.2,0 0.5,0.1 0.8,0.1 0.2,0 0.4,-0.1 0.7,-0.1 0.1,0 0.1,0 0.2,0 0.3,0 0.6,0 0.9,0 0,0 0,0 0,0 0,0 0,0 0,0 0,0 0,0 0,0 0,0 0,0 0,0 -0.3,0.4 -0.7,0.7 -1,1 -0.6,0.6 -1.2,1.2 -1.9,1.8 -0.1,0.1 -0.3,0.2 -0.4,0.4 -0.6,0.6 -1.1,1.2 -1.6,1.7 -0.2,0.2 -0.4,0.4 -0.6,0.6 -0.1,0.1 -0.2,0.2 -0.3,0.3 -0.1,0.2 -0.3,0.3 -0.4,0.5 -0.3,0.4 -0.7,0.7 -1.1,1.1 -0.2,0.2 -0.3,0.4 -0.5,0.6 -0.4,0.4 -0.8,0.7 -1.1,1.1 -0.6,0.6 -1.3,1.3 -1.9,1.9 -0.2,0.2 -0.4,0.5 -0.6,0.6 0,0 0,0 0,0 0,0 0,0 0,0 0,0 0,0 0,0 0,0 0,0 0,0 0,-0.1 0,-0.2 0,-0.3 0,-0.2 0,-0.4 0,-0.6 0,-0.1 0.1,-0.2 0.1,-0.3 0,-0.2 -0.1,-0.4 0,-0.5 0.1,-0.1 0.2,-0.2 0.3,-0.2 0.2,-0.2 0.3,-0.4 0.5,-0.5 0.2,-0.1 0.5,-0.2 0.7,-0.3 0.1,-0.1 0.3,-0.2 0.4,-0.3 0.3,-0.2 0.7,-0.4 0.9,-0.7 0.1,-0.1 0.1,-0.2 0.2,-0.4 0.1,-0.1 0.1,-0.2 0.2,-0.3 0.1,-0.2 0.1,-0.3 0.1,-0.5 0.1,-0.2 0.2,-0.4 0.2,-0.7 0,-0.2 -0.1,-0.4 -0.1,-0.7 0,-0.3 -0.2,-0.5 -0.4,-0.8 -0.1,-0.1 -0.2,-0.2 -0.2,-0.3 -0.1,0 0,-0.1 0,-0.1 0.1,-0.1 0.1,-0.1 0.1,-0.2 0.2,-0.3 0.4,-0.6 0.7,-0.8 0.1,-0.1 0.2,-0.3 0.3,-0.4 0.1,-0.2 0.3,-0.2 0.5,-0.4 0.1,-0.1 0.1,-0.2 0.2,-0.3 0.1,-0.1 0.1,-0.2 0.2,-0.3 0.1,-0.1 0.2,-0.1 0.3,-0.2 -0.2,0 -0.2,-0.1 -0.1,-0.1 z"
   id="path60" />
							<path
   class="st2"
   d="m 85.1,21.1 c 0.3,0 0.6,0 0.9,0 0.2,0 0.4,0 0.7,0 0.2,0 0.4,0 0.5,0 0.2,0 0.5,0 0.7,0 0.1,0 0.2,0 0.3,0.1 0.2,0 0.5,-0.2 0.7,-0.1 0.2,0.1 0.5,0.4 0.7,0.6 0.3,0.3 0.6,0.6 0.9,0.9 0.2,0.2 0.4,0.5 0.6,0.7 0.3,0.3 0.5,0.5 0.8,0.7 0.1,0.2 0.2,0.3 0.4,0.5 0.1,0.1 0.2,0.1 0.3,0.2 0.2,0.1 0.3,0.3 0.4,0.5 -0.1,0 -0.2,0.2 -0.3,0.3 -0.2,0.2 -0.4,0.5 -0.5,0.8 0,0.1 0,0.3 -0.1,0.4 0,0.2 -0.1,0.4 -0.1,0.7 0,0.2 0.1,0.3 0.1,0.5 0.1,0.2 0.1,0.3 0.2,0.5 0.1,0.2 0.1,0.4 0.2,0.5 0.1,0.1 0.2,0.2 0.4,0.2 0.1,0.1 0.2,0.2 0.3,0.3 0.1,0 0.2,0.1 0.3,0.2 0.1,0.1 0.3,0.2 0.4,0.3 0.2,0.1 0.4,0.2 0.6,0.4 0.1,0.2 0.2,0.3 0.3,0.5 0.1,0.1 0.3,0.2 0.3,0.4 0.1,0.1 0.1,0.2 0.1,0.4 0,0.1 0,0.2 0,0.3 0.1,0.3 0.2,0.6 0.1,0.9 -0.2,0 -0.7,-0.6 -0.9,-0.8 C 94,31.7 93.7,31.3 93.3,31 93,30.7 92.8,30.4 92.5,30.2 92,29.7 91.4,29.2 90.9,28.6 90.6,28.3 90.3,28 90.1,27.8 90,27.7 89.9,27.5 89.7,27.4 c -0.9,-0.9 -1.9,-1.8 -2.8,-2.8 -0.2,-0.3 -0.5,-0.5 -0.8,-0.8 -0.5,-0.5 -1,-1.1 -1.6,-1.6 -0.3,-0.3 -0.9,-0.6 -1,-1 0.8,-0.1 1.2,-0.1 1.6,-0.1 z"
   id="path61" />
							<path
   class="st2"
   d="m 79.1,49.5 c -0.4,0.4 -0.8,0.8 -1.2,1.2 -0.6,0.6 -1.2,1.2 -1.8,1.8 -0.2,0.2 -0.5,0.4 -0.6,0.7 0,0 0,0 0,0 0,0.1 -0.1,-0.1 -0.1,-0.2 0,-0.2 0,-0.4 0,-0.6 0,-0.6 0,-1.3 0,-1.9 0,-0.5 0,-1 0,-1.5 0,-0.2 0,-0.3 0,-0.5 0,-0.5 0,-1 0,-1.5 0,-0.2 0,-0.4 0,-0.6 0,-0.3 0,-0.6 0,-0.9 0,-0.2 0,-0.4 0,-0.6 0,-0.6 0,-1.1 0,-1.6 0,-0.2 0,-0.3 0,-0.5 0,-0.2 0,-0.4 0.1,-0.6 0,-0.5 0,-0.9 0,-1.3 0,-0.3 0,-0.7 0.1,-1 0,-0.7 0,-1.4 0,-2.2 0,-0.3 0,-0.7 0.1,-1 0,-0.2 0,-0.4 0,-0.6 0,-0.7 0,-1.5 0,-2.2 0,-0.2 0,-0.3 0,-0.5 0,-0.2 0,-0.4 0,-0.6 0,-0.2 0,-0.4 0,-0.6 0,-0.1 0,-0.2 0.1,-0.4 0,-0.3 0,-0.7 0,-1 0.3,0.1 0.5,0.4 0.8,0.7 0.5,0.5 1,1 1.5,1.4 0.2,0.2 0.3,0.4 0.5,0.6 0.4,0.3 0.8,0.7 1.1,1.1 0.1,0.1 0.2,0.3 0.4,0.4 0.2,0.2 0.5,0.4 0.8,0.7 0.1,0.1 0.2,0.2 0.3,0.3 0.6,0.6 1.2,1.1 1.8,1.6 0.6,0.6 1.1,1.1 1.7,1.7 0.4,0.3 2.6,2.4 2.4,2.7 0,0.1 -0.1,0.1 -0.1,0.2 -0.3,0.4 -0.9,0.9 -1.3,1.3 -0.1,0.1 -0.2,0.3 -0.4,0.4 -0.3,0.3 -0.6,0.7 -1,1 -0.4,0.4 -0.9,0.9 -1.4,1.3 -0.3,0.3 -0.6,0.6 -0.9,0.9 -0.1,0.1 -0.1,0.2 -0.2,0.3 -1.2,0.7 -2,1.4 -2.7,2.1 z"
   id="path62" />
							<path
   class="st2"
   d="m 91.3,63.2 c -0.2,0 -1.1,-0.1 -1.2,0 -0.1,0 -0.1,0.1 -0.1,0.2 0,0.8 0,1.5 0,2.3 0,0.3 0,0.8 0,1.2 0,0.1 -0.1,0.2 -0.1,0.2 0,0 0,0 0,0 -0.2,0 -0.4,-0.1 -0.7,-0.1 -0.2,0 -0.4,0 -0.6,0 -0.1,0 -0.3,0 -0.5,-0.1 -0.3,0 -0.6,-0.1 -0.9,-0.1 -0.1,0 -0.3,0 -0.4,0 -0.7,0 -1.3,-0.1 -2,-0.2 -0.3,0 -0.6,0 -0.9,-0.1 -0.2,0 -0.5,-0.1 -0.7,-0.1 -0.1,0 -0.2,-0.1 -0.3,-0.1 -0.1,0 -0.3,0 -0.5,0 -0.4,-0.1 -0.7,-0.1 -1,-0.2 -0.3,0 -0.6,0 -0.8,-0.2 0,0 0,0 0,0 0,0 0,0 0,-0.1 0,0 0,0 0,0 0.1,-0.2 0.4,-0.5 0.7,-0.7 0.2,-0.2 0.4,-0.4 0.6,-0.6 0.3,-0.3 0.6,-0.6 1,-0.9 0.1,-0.2 0.3,-0.3 0.5,-0.4 0.1,-0.1 0.3,-0.3 0.4,-0.4 0.8,-0.8 1.6,-1.5 2.4,-2.3 0.5,-0.5 0.9,-1 1.4,-1.5 0.7,-0.7 1.4,-1.3 2,-2 0.2,-0.2 0.4,-0.4 0.6,-0.6 0.1,0.2 0.1,0.8 0,1.1 0,0.4 0,0.7 0,1.1 0,0.2 0,0.5 0.1,0.7 0.1,0.2 0.2,0.4 0.3,0.6 0.1,0.1 0.1,0.2 0.2,0.3 0.2,0.1 0.7,0.1 1,0.1 0.4,0 0.8,0 1.3,0 0,0.3 -0.2,0.6 -0.3,0.9 -0.2,0.4 -0.4,0.9 -0.5,1.3 -0.1,0.2 -0.1,0.4 -0.2,0.5 -0.1,0.1 -0.2,0 -0.3,0.1 -0.4,0.1 -0.5,0.1 -0.5,0.1 z"
   id="path63" />
							<path
   class="st2"
   d="M 93.3,68.3 C 93,68.3 92.7,68.1 92.5,68 92.3,67.9 92,67.9 91.9,67.8 c 0,0 0,0 0,0 0,0 0,0 0,0 0,0 0,0 0,0 0,0 0,0 0,0 0.4,0 2.4,0.1 2.6,-0.1 0.1,-0.1 0.1,-0.5 0.1,-0.6 0,-0.9 -0.1,-2.2 0.8,-2.7 0.1,-0.1 0.3,-0.1 0.4,-0.1 0.2,0 0.8,0.1 0.8,0.4 0,0.1 -0.1,0.1 -0.2,0.1 -0.6,0.1 -0.7,0.4 -0.9,0.8 -0.2,0.4 -0.2,1 -0.2,1.4 0,0.4 0,0.9 0,1.3 0,0 0,0 0,0 0,0.1 -0.3,0 -0.4,0 -0.2,0 -0.3,0 -0.4,0.1 -0.5,-0.1 -0.9,-0.1 -1.2,-0.1 z"
   id="path64" />
							<path
   class="st2"
   d="m 96.5,68.9 c -0.1,0.1 -0.2,0.2 -0.3,0.4 -0.2,0.2 -0.5,0.5 -0.7,0.8 0,0 0,0 0,0 -0.2,-0.2 -0.4,-0.4 -0.5,-0.6 -0.2,-0.2 -0.5,-0.4 -0.7,-0.5 0,0 0,0 0,0 0,0 0,0 0,0 0,0 0,0 0,0 0,0 0,0 0,0 0,-0.1 0.1,0 0.1,0 0.1,0 0.2,-0.1 0.3,-0.1 0.3,0 0.7,0 1,0 0,-0.1 0,-0.1 0.1,-0.2 0,-0.1 0,-0.3 0,-0.4 0,-0.1 0,-0.3 0,-0.4 0,-0.1 0,-0.3 0,-0.4 0,-0.3 0,-0.6 0,-0.9 0,-0.2 0.1,-0.3 0.1,-0.5 0,-0.2 0.1,-0.4 0.2,-0.6 0.1,-0.2 0.3,-0.1 0.5,-0.2 0.1,0 0.1,0.1 0.1,0.1 0.1,0.2 0,0.4 0,0.7 0,0.5 0,1 0,1.5 0,0.1 0.1,0.2 0.1,0.3 0.1,0.2 0.1,0.3 0.2,0.5 0,0 0,0 0,0 -0.1,0.2 -0.3,0.4 -0.5,0.5 z"
   id="path65" />
							<path
   class="st2"
   d="m 97.6,68.1 c -0.1,-0.1 -0.2,-0.4 -0.2,-0.6 0.1,0 0.3,0 0.4,0 0.3,0 0.7,0 1,0 0,0 0,0 0,0.1 -0.1,0 -0.2,0.1 -0.3,0.1 -0.3,0.2 -0.6,0.3 -0.9,0.4 0.1,0.1 0,0.1 0,0 z"
   id="path66" />
						</g>
						<g
   id="g72">
							<g
   id="g68">
								<path
   class="st2"
   d="m 87.7,44.5 c 0,-0.3 0.1,-0.5 0.1,-0.8 0,-0.3 0,-0.6 -0.1,-0.9 0,-0.5 0.1,-1 0.1,-1.4 0,-0.3 0,-0.6 0,-0.9 0,-0.2 0,-0.4 0,-0.7 0,-0.2 0,-0.4 -0.1,-0.7 0,-0.4 0.1,-0.7 0.1,-1 0,-0.2 0,-0.4 -0.1,-0.6 0,-0.1 0,-0.2 0,-0.3 0,-0.4 0.1,-0.8 0.1,-1.3 0,-0.3 -0.1,-0.7 0,-1 0.1,-0.3 0.9,-1.2 1.1,-1.3 0,0 0,0 0,0 0.1,0.2 0,0.5 0,0.8 0,0.3 -0.1,0.6 0,0.9 0,0.2 0,0.4 0.1,0.6 0,0.4 0,0.7 0,1.1 0,0.2 0,0.3 0,0.5 0,0.2 0,0.4 0,0.6 0,0.5 0,1.1 0,1.6 0,0.6 -0.1,1.2 -0.1,1.7 0,0.2 0,0.4 0.1,0.6 0,0.4 0,0.9 0,1.3 0,0.2 0,0.4 -0.1,0.6 0,0.3 0,0.7 0,1 0,0.4 0.1,1.1 -0.1,1.5 0,0.1 -0.2,0.2 -0.2,0.3 -0.1,0.1 -0.2,0.3 -0.3,0.4 -0.1,0.1 -0.2,0.2 -0.3,0.3 -0.1,0.2 -0.2,0.4 -0.3,0.6 0,0 0,0 0,0 0,0 0,0 0,0 0,0 0,0 0,0 0,-0.5 -0.1,-1.1 -0.1,-1.7 0,-0.3 0.1,-0.7 0.1,-1 0,-0.4 -0.1,-0.6 0,-0.8 z"
   id="path67" />
								<path
   class="st2"
   d="m 88.2,48.1 c 0.1,-0.3 0.3,-0.4 0.5,-0.7 0.1,-0.1 0.3,-0.3 0.4,-0.4 0.7,-0.5 1.9,-0.5 2.8,-0.3 0.2,0.1 0.4,0.1 0.5,0.2 0.6,0.1 1.1,0.2 1.6,0.5 0.3,0.2 0.6,0.4 0.9,0.7 0.1,0.1 0.2,0.1 0.2,0.2 0.1,0.1 0.3,0.3 0.5,0.3 0.3,0 0.4,-0.3 0.6,-0.5 0.2,-0.2 0.4,-0.3 0.7,-0.5 0.7,-0.3 1.4,-0.7 2.1,-0.8 0.3,-0.1 0.5,-0.1 0.8,-0.2 0.1,0 0.3,0 0.5,-0.1 0.2,0 0.5,0 0.7,0 0.4,0.1 0.8,0.2 1.1,0.5 0.1,0.2 0.3,0.3 0.4,0.4 0.2,0.2 0.4,0.5 0.5,0.8 0,0 0,0 0,0 0,0.1 -0.2,0 -0.3,0 -0.6,0 -1.2,0 -1.8,0 -0.2,0 -0.5,0 -0.7,0.1 -0.2,0 -0.5,-0.1 -0.7,0 -0.1,0 -0.1,0 -0.2,0 -0.2,0 -0.5,0 -0.7,0.1 -0.1,0 -0.2,0 -0.3,0.1 -0.2,0 -0.6,-0.1 -0.8,0 -0.1,0 -0.2,0 -0.3,0 -0.1,0 -0.2,0 -0.3,0 -0.1,0 -0.3,0 -0.4,0.1 -0.1,0 0,0.2 0,0.2 0,0.5 -0.4,1 -0.9,1 -0.4,0 -0.8,-0.3 -0.8,-0.7 0,-0.1 0,-0.3 -0.1,-0.4 0,0 -0.1,-0.1 -0.2,-0.1 -0.2,0 -0.4,0 -0.6,0 -0.1,0 -0.1,0 -0.1,0 -0.5,0 -0.9,-0.1 -1.4,-0.1 -0.1,0 -0.3,0 -0.4,0 -0.4,0 -0.7,0 -1,0 -0.2,0 -0.4,0 -0.5,0.1 -0.5,0 -1,0 -1.5,0 -0.2,0 -0.4,0 -0.6,0 -0.1,0 -0.3,0 -0.4,-0.1 0.1,-0.2 0.2,-0.3 0.2,-0.4 z"
   id="path68" />
							</g>
							<g
   id="g71">
								<path
   class="st2"
   d="m 103.9,36.6 c 0,-0.3 -0.1,-0.6 -0.1,-0.8 0,-0.1 0,-0.3 0,-0.4 0,-0.1 0,-0.3 0,-0.3 0,0 0,0 0,0 0,0 -0.1,0 -0.1,0 -0.1,0.6 0,1.2 0,1.8 0,0.2 -0.1,0.4 -0.1,0.6 0,0.1 0,0.2 0,0.3 0,0.1 0,0.2 0,0.3 -0.1,0 -0.2,0 -0.3,-0.2 0,-0.2 0.1,-0.4 0.1,-0.5 0,-0.1 0,-0.2 0,-0.4 0,-0.7 0.1,-1.4 0.1,-2.1 0,-0.1 0,-0.2 0,-0.3 0,-0.1 0,-0.1 0,-0.2 0,0 -0.1,0 -0.1,0 0,0 0,0 0,0 0,0 0,0 0,0 0,0.5 -0.1,0.9 -0.1,1.4 0,0.1 0,0.2 -0.1,0.3 0,0 -0.1,0 -0.1,0 -0.1,-0.4 -0.1,-0.9 -0.1,-1.3 0,-0.2 0,-0.5 -0.1,-0.7 -0.1,0.2 -0.1,0.3 -0.1,0.5 0,0.2 0,0.5 0,0.8 0,0.3 0.1,0.5 0,0.8 -0.1,1.7 -0.1,3.3 -0.1,4.9 0,0.3 0,0.7 0,1 0,0.3 -0.1,0.6 -0.1,0.9 0,0.4 0,0.9 0,1.3 0,0.4 -0.1,0.9 0,1.3 0,0.1 0,0.2 0.1,0.2 0,0 0,0 0,0 0,0 0,0 0,0 0,0 0,0 0,0 0,0 0,0 0,0 0.1,-0.2 0.1,-0.5 0.1,-0.8 0,-0.4 0.1,-0.9 0.1,-1.4 0,-0.3 -0.1,-0.7 0,-0.9 0,-0.1 0.1,-0.1 0.1,-0.1 0.1,0 0.1,0.2 0.1,0.3 0.1,0.3 0,0.7 0,1.1 0,0.3 0,0.6 0,0.9 0,0.3 0,0.7 0,0.9 0,0.2 0,0.3 0,0.5 0,0.1 0.1,0.3 0.2,0.3 0,-0.5 0.1,-1 0.1,-1.5 0,-0.2 0,-0.5 0,-0.7 0,-0.2 0,-0.5 0.1,-0.7 0,-0.2 0.1,-0.3 0.1,-0.5 0,-0.2 -0.1,-0.4 -0.1,-0.6 0,-0.3 0,-0.6 0,-1 0,-0.2 0,-0.4 0.1,-0.5 0,-0.1 0.1,-0.1 0.1,-0.2 0,0 0,0 0,0 0.1,0.1 0.2,0.2 0.2,0.3 0.1,0.3 0,0.8 0,1.2 0,0.1 -0.1,0.2 -0.1,0.4 0,0.3 0.1,0.7 0.1,1 0,0.1 0,0.3 0,0.4 0,0.6 0,1.1 0,1.7 0,0.4 0,0.9 0.1,1.3 0,0.1 0,0.2 0,0.2 0,0 0.1,0 0.1,0 0.1,-0.2 0.1,-0.6 0.1,-0.9 0,-0.3 0.1,-0.7 0,-1 0,-0.2 -0.1,-0.4 -0.1,-0.7 0,-0.2 0.1,-0.4 0.1,-0.7 0,-0.4 -0.1,-0.7 -0.1,-1 0,-0.4 0,-0.8 0.1,-1.1 0,-0.3 0,-0.6 0,-0.9 0,-0.1 0,-0.2 0,-0.3 0,-0.2 0.1,-0.3 0.1,-0.5 0,-0.3 0,-0.6 0,-0.9 0,-0.5 0,-0.9 0,-1.4 -0.4,-0.4 -0.4,-0.9 -0.4,-1.4 z m -1,4.5 c 0,0 -0.2,0.3 -0.2,0.1 0,-0.1 0,-0.2 0,-0.3 0,-0.3 0,-0.6 0,-0.8 0,-0.4 0,-0.7 0,-1.1 0,-0.3 0,-0.6 0.1,-0.8 0.1,0 0.1,0.1 0.2,0.2 0.1,0.3 0,0.7 0,1 -0.1,0.4 0,1.3 -0.1,1.7 z m 0,-4.2 c 0,0 0,0 0,0 -0.2,0 -0.3,-0.2 -0.1,-0.4 0.1,0 0.2,0.4 0.1,0.4 z m 0.5,3.5 c 0,0 -0.1,0 0,0 -0.1,-0.2 -0.1,-0.4 -0.1,-0.7 0,-0.3 -0.1,-0.7 0.1,-1 0.1,0 0.2,0.1 0.2,0.1 0,0.2 0,1.6 -0.2,1.6 z"
   id="path69" />
								<path
   class="st2"
   d="m 102.1,39.7 c 0,-0.2 0,-0.3 -0.1,-0.5 0,-0.7 0,-1.5 0,-2.2 0,-0.2 0,-0.4 0,-0.7 0,-0.6 0,-1.1 0,-1.6 0,-0.2 -0.1,-0.3 -0.1,-0.5 0,-0.2 0,-0.4 0,-0.6 0,-0.1 0,-0.3 -0.1,-0.3 -0.1,-0.1 -0.3,0 -0.5,0 -0.2,0 -0.4,-0.1 -0.6,-0.1 -0.2,0.1 -0.5,0.1 -0.7,0.1 -1.1,0.2 -2.1,0.3 -3,0.8 -0.2,0.1 -0.5,0.2 -0.6,0.5 -0.1,0.2 -0.1,0.4 -0.2,0.6 -0.1,0.5 -0.1,1 -0.1,1.6 0,0.3 0,0.5 -0.1,0.8 0,0.4 0,0.8 0,1.2 0,0.2 0,0.3 -0.1,0.5 0,0.4 0,0.8 0,1.1 0,0.6 0,1.1 0,1.6 0,0.5 0,1.1 0,1.6 0,0.1 0,0.3 0,0.4 0,0.1 0,0.2 0,0.3 0,0.2 0.1,0.5 0,0.8 0,0.7 0,1.6 0.3,2.2 0,0 0.1,0.2 0.1,0.1 0.3,-0.1 0.6,-0.4 0.9,-0.5 0.3,-0.1 0.6,-0.2 0.8,-0.4 0.3,-0.2 0.5,-0.3 0.9,-0.3 0.1,-0.1 0.5,-0.1 0.6,-0.1 0.1,0 0.1,0 0.2,0 0.1,0 0.1,0 0.2,0 0.3,-0.2 1,0 1.3,0.1 0.1,0 0.3,0.1 0.5,0.1 0.1,-0.4 0,-0.9 0,-1.4 0,-0.2 0,-0.5 0.1,-0.8 0,-0.3 0,-0.6 0,-0.9 0,-0.2 0,-0.3 0.1,-0.5 0,-0.4 0,-0.7 0,-1.1 0,-0.2 0,-0.4 0.1,-0.6 0.1,-0.5 0.1,-0.9 0.1,-1.3 z m -5.4,1.1 c 0.7,-0.6 1.6,-1 2.4,-1.3 0.3,-0.1 0.6,-0.3 0.9,-0.3 0.1,-0.1 0.4,-0.2 0.5,-0.2 0,0 0,0 0,0 0.2,0 0.3,0.1 0.3,0.3 0,0.2 -0.1,0.3 -0.2,0.4 -0.2,0.2 -0.6,0.2 -0.8,0.3 -0.3,0.1 -0.7,0.2 -1,0.3 -0.2,0.1 -0.4,0.1 -0.7,0.2 -0.4,0.2 -0.8,0.4 -1.1,0.6 -0.1,0.1 -0.3,0.2 -0.4,0.2 0,0 -0.1,0 -0.1,0 -0.2,-0.2 0.2,-0.4 0.2,-0.5 z m 4.1,2.3 c -0.2,0.1 -0.6,0.1 -0.8,0.2 -0.2,0.1 -0.5,0.1 -0.8,0.2 -0.9,0.2 -1.6,0.5 -2.3,1 -0.1,0.1 -0.3,0.3 -0.4,0.1 -0.1,-0.1 0.1,-0.2 0.2,-0.3 0.3,-0.2 0.6,-0.4 0.9,-0.6 0.3,-0.2 0.7,-0.4 1.1,-0.6 0.1,-0.1 0.2,-0.1 0.4,-0.2 0.5,-0.2 1,-0.3 1.4,-0.5 0.1,0 0.3,0 0.4,0.1 0.1,0.2 0.1,0.5 -0.1,0.6 z m 0,-7 c -0.1,0.1 -0.3,0.1 -0.4,0.2 -0.3,0.1 -0.6,0.2 -1,0.3 -0.4,0.1 -0.9,0.3 -1.3,0.5 -0.3,0.2 -0.6,0.3 -0.9,0.5 -0.1,0 -0.4,0.2 -0.4,0.1 0,0 0,0 0,0 0,-0.3 0.4,-0.5 0.6,-0.7 0.1,-0.1 0.2,-0.2 0.3,-0.2 0.3,-0.2 0.6,-0.4 0.9,-0.5 0.3,-0.2 0.7,-0.2 1,-0.3 0.1,-0.1 0.2,-0.1 0.4,-0.2 0.2,-0.1 0.3,-0.1 0.5,-0.2 0.1,0 0.3,0 0.4,0 0.2,0.1 0,0.4 -0.1,0.5 z"
   id="path70" />
								<path
   class="st2"
   d="m 95.5,35.9 c 0,-0.4 0,-0.9 -0.2,-1.2 -0.4,-0.6 -1.1,-0.8 -1.7,-1.1 -0.2,-0.1 -0.4,-0.1 -0.5,-0.2 -0.2,0 -0.4,-0.1 -0.6,-0.1 -0.3,-0.1 -0.7,-0.1 -1,-0.2 -0.5,0 -0.9,0 -1.4,0 -0.1,0.1 -0.4,0 -0.4,0.2 0,0.2 0,0.7 0,0.9 0,0.8 0,1.6 0,2.4 0,0.5 0,0.9 0,1.4 0,0.4 -0.1,0.8 -0.1,1.2 0,0.3 0.1,0.5 0.1,0.8 0,0.6 0,1.2 0,1.8 0,0.2 0,0.5 -0.1,0.8 0,0.5 0,1 0,1.5 0,0.2 0,0.5 -0.1,0.8 0,0.2 0.1,0.4 0.1,0.7 0,0.3 -0.1,0.5 -0.1,0.8 0.1,0 0.2,0 0.3,0 0.1,0 0.2,-0.1 0.3,-0.1 0.1,0 0.2,-0.1 0.3,-0.1 0.1,0 0.1,0 0.2,0 0.3,-0.1 1,0 1.3,0.1 0.4,0.1 0.7,0.1 1,0.1 0.4,0.1 1,0.3 1.4,0.5 0.1,0.1 0.8,0.6 0.9,0.6 0,0 0,0 0,0 0.2,-0.3 0.2,-0.6 0.2,-1 0.1,-0.4 0.1,-0.9 0.1,-1.3 0,-0.7 0.1,-1.3 0.1,-2 0,-0.3 0,-0.6 0,-0.9 0,-0.8 0,-1.6 0,-2.4 -0.1,-1.4 0,-2.8 -0.1,-4 z m -1.1,8.7 c -0.5,-0.2 -1,-0.4 -1.6,-0.6 -0.2,-0.1 -0.4,-0.1 -0.6,-0.1 -0.3,-0.1 -0.6,-0.1 -0.9,-0.2 -0.3,-0.1 -0.7,-0.1 -1,-0.1 0,0 -0.1,0 -0.1,0 -0.3,-0.1 -0.3,-0.7 0.1,-0.7 0,0 0,0 0,0 0.2,0 0.4,0.1 0.6,0.1 0.2,0.1 0.4,0.1 0.6,0.1 0.2,0.1 0.4,0.1 0.5,0.2 0.5,0.2 1,0.3 1.5,0.6 0.1,0 0.2,0.1 0.3,0.1 0.3,0.1 0.7,0.4 0.9,0.7 0.1,0.1 0.2,0.1 0.2,0.3 -0.1,-0.1 -0.3,-0.3 -0.5,-0.4 z m 0.7,-3.2 c 0,0.1 0,0.1 0,0 -0.1,0.1 -0.1,0.1 0,0 -0.3,0.1 -1.1,-0.6 -1.3,-0.7 -0.3,-0.1 -0.6,-0.2 -0.9,-0.4 -0.4,-0.2 -0.8,-0.3 -1.2,-0.4 -0.2,0 -0.3,0 -0.5,-0.1 -0.2,0 -0.6,0 -0.8,-0.1 -0.2,-0.2 -0.1,-0.6 0.2,-0.6 0,0 0,0 0,0 1.3,0.1 2.4,0.7 3.4,1.2 0.3,0.2 1,0.6 1.1,0.9 0,0.1 0.1,0.2 0,0.2 z m 0.1,-3.6 c 0,0.1 -0.1,0.1 -0.2,0.1 -0.2,0 -0.3,-0.2 -0.4,-0.3 -0.2,-0.1 -0.3,-0.2 -0.5,-0.3 -0.9,-0.4 -1.9,-0.7 -2.9,-1 -0.3,-0.1 -0.6,-0.1 -0.9,-0.2 -0.2,-0.1 -0.2,-0.4 0,-0.5 0.4,0 0.8,0.1 1.1,0.2 0.1,0 0.2,0 0.3,0.1 0.2,0.1 0.5,0.2 0.7,0.3 0.2,0.1 0.4,0.1 0.6,0.2 0.1,0.1 0.2,0.1 0.3,0.2 0.3,0.1 0.6,0.3 0.8,0.4 0.3,0 1.2,0.6 1.1,0.8 z"
   id="path71" />
							</g>
						</g>
					</g>
				</g>
				<g
   id="g78">
					<path
   class="st3"
   d="m 93.7,10.5 c -0.4,0 -0.9,0.1 -1.3,0.2 -0.4,0.1 -0.8,0.1 -1.2,0.1 -0.9,0.2 -1.8,0.3 -2.7,0.5 -1.3,0.3 -2.4,0.8 -3.6,1.3 -2.2,0.9 -4.2,1.9 -6.2,3.2 -0.5,0.3 -3.7,2.6 -3.7,2.9 0.5,0 1.1,0.1 1.6,0.1 1.3,0.1 2.6,0 3.9,0 0.8,0 1.6,0.1 2.4,0.1 0.3,-0.1 0.8,-0.1 1.2,-0.1 1.1,0 2.1,0.1 3.1,0.1 0.5,-0.2 1.4,0 1.9,0 1.7,0 3.4,0 5.2,0 1.9,0 3.9,0.1 5.8,0.1 3.6,0 7.1,-0.1 10.7,-0.1 0.3,-0.1 0.7,0 1,0 0.6,0 1.2,0 1.9,0 0.3,0 0.6,0 1,0 0.6,0 1.3,0.1 1.9,0.1 0.1,0 0.6,0 0.7,0 0.4,0 -0.4,-0.6 -0.5,-0.8 -0.4,-0.5 -0.9,-0.9 -1.5,-1.2 -0.3,-0.2 -0.6,-0.5 -1,-0.8 -0.6,-0.4 -1.3,-0.9 -1.9,-1.3 -4.1,-2.5 -8,-3.9 -13.1,-4.4 -0.7,0 -1.5,0 -2.2,0 -1.2,0.1 -2.4,0 -3.4,0 z"
   id="path74" />
					<path
   class="st3"
   d="M 73.3,20.4 C 72.9,20.9 72.2,21.5 71.8,22 70.9,23.2 70,24.5 69,25.7 67.1,29 65.9,32.4 65.1,36.2 65,36.8 65,37.4 64.9,38 c -0.3,3.1 -0.4,6.7 0.1,9.8 0.1,0.5 0.3,1 0.4,1.5 0.1,0.8 0.3,1.6 0.5,2.4 0.3,0.7 0.5,1.3 0.8,1.9 0.3,0.9 0.8,1.8 1.3,2.7 1.1,2.1 2.3,4.1 3.8,6 0.2,0.3 0.8,1 1.2,1 0,0 0,0 0,-0.1 0.3,-0.6 0.1,-2.3 0.1,-3 0,-1.2 0,-2.4 0,-3.6 0,-1.1 0,-2.2 0,-3.3 0.1,-2.4 0,-4.8 0.1,-7.2 0,-2 0.1,-4.1 0.1,-6.2 0,-2 -0.1,-4.1 0.1,-6 0,-0.2 0,-0.4 -0.1,-0.6 0,-0.6 0,-1.2 0,-1.8 0,-0.8 0.1,-1.7 0.1,-2.5 -0.1,-1.8 0,-3.6 -0.1,-5.4 -0.1,-1.4 0.1,-2.6 0,-3.2 z"
   id="path75" />
					<path
   class="st3"
   d="m 118.8,20.5 c -0.1,1.2 0.1,3.1 0.1,4.4 0,2.8 -0.1,5.5 -0.1,8.4 0,4.7 0,8.9 0,13.4 0,2.5 -0.1,5 0,7.6 0,1 0,2.1 0,3.1 0,1.9 0.2,3.9 -0.2,5.7 0,0.1 -0.3,0.9 -0.1,0.9 0.6,0 3.6,-4.3 4.1,-5 0.3,-0.6 0.6,-1.1 0.9,-1.7 0.2,-0.4 0.3,-0.8 0.5,-1.1 0.6,-1 1.2,-2.3 1.6,-3.4 0.8,-2.4 1.3,-4.9 1.6,-7.5 0.1,-0.9 0.1,-1.7 0.1,-2.6 0,-0.5 0,-1 0.1,-1.4 0,-2.6 -0.4,-5.3 -1,-7.6 -0.7,-2.3 -1.7,-4.5 -2.8,-6.5 -0.4,-0.7 -0.9,-1.4 -1.3,-2.1 -0.5,-1 -3.1,-4.9 -3.5,-4.6 z"
   id="path76" />
					<path
   class="st3"
   d="m 114.7,67.3 c -1.8,1.3 -5.4,1.5 -7.8,1.8 -0.6,0.1 -1.2,0.2 -1.8,0.2 -2.9,0.1 -6.8,0.4 -7.8,3.4 -0.1,0.3 -0.1,0.4 -0.2,0.7 -0.1,0.3 1.3,0 1.9,0 0.2,-0.1 0.5,-0.1 0.7,-0.1 0.1,0 0.3,-0.1 0.4,-0.1 0.3,-0.2 0.9,-0.2 1.3,-0.2 0.3,-0.2 0.7,-0.1 1,-0.1 0.4,-0.2 1.3,-0.3 1.8,-0.3 0.8,-0.3 1.6,-0.6 2.5,-0.8 2.3,-0.9 4.8,-1.9 6.8,-3.5 0.3,-0.3 0.7,-0.4 1.2,-1 z"
   id="path77" />
					<path
   class="st3"
   d="m 78.3,67.9 c 0.5,0.6 1.3,0.8 1.9,1.2 0.4,0.3 0.9,0.6 1.3,0.8 1.4,0.7 2.5,1.2 3.9,1.7 1.6,0.5 3.1,1 4.9,1.3 0.6,0.1 4.5,0.8 4.7,0.4 0.2,-0.6 -1.1,-2.1 -1.5,-2.4 -0.4,-0.3 -0.9,-0.6 -1.4,-0.8 -0.4,-0.2 -1,-0.4 -1.4,-0.5 C 90.1,69.4 89.4,69.2 88.8,69.1 88,69 87.4,69 86.7,69 86.1,68.9 85.5,68.8 84.9,68.7 84.1,68.6 83.3,68.6 82.6,68.5 81.1,68.3 79.8,68 78.3,67.9 Z"
   id="path78" />
				</g>
			</g>
		</g>
	</g>
	<g
   id="g105">
		<g
   id="g93">
			<path
   class="st1"
   d="M 10.2,105.6 H 7.9 v 11.8 c 0,0.9 0.1,1.6 0.3,1.9 0.2,0.3 0.7,0.5 1.3,0.5 v 0.4 H 4.1 v -0.4 c 0.7,0 1.1,-0.2 1.4,-0.6 0.3,-0.4 0.4,-1 0.4,-1.9 V 105.6 H 3.6 c -1.1,0 -1.8,0.2 -2.3,0.5 -0.5,0.3 -0.8,0.9 -0.8,1.7 H 0 v -3.5 h 0.5 c 0.4,0.4 1.2,0.6 2.3,0.6 h 8.1 c 1.2,0 2,-0.2 2.4,-0.6 h 0.5 v 3.5 h -0.3 c -0.2,-0.9 -0.5,-1.4 -1,-1.7 -0.6,-0.3 -1.3,-0.5 -2.3,-0.5 z"
   id="path81" />
			<path
   class="st1"
   d="m 27.8,117.4 v -4.5 h -8.4 v 4.5 c 0,0.9 0.1,1.6 0.4,1.9 0.3,0.4 0.7,0.5 1.4,0.5 v 0.4 h -5.6 v -0.4 c 0.7,0 1.1,-0.2 1.4,-0.5 0.2,-0.4 0.4,-1 0.4,-1.9 v -9.6 c 0,-0.9 -0.1,-1.6 -0.4,-1.9 -0.2,-0.4 -0.7,-0.5 -1.4,-0.5 V 105 h 5.6 v 0.4 c -0.7,0 -1.1,0.2 -1.4,0.6 -0.3,0.4 -0.4,1 -0.4,1.9 v 4.4 h 8.4 v -4.4 c 0,-0.9 -0.1,-1.6 -0.4,-1.9 -0.2,-0.4 -0.7,-0.5 -1.4,-0.5 v -0.4 h 5.5 v 0.4 c -0.7,0 -1.1,0.2 -1.4,0.5 -0.3,0.3 -0.4,1 -0.4,1.9 v 9.6 c 0,0.9 0.1,1.6 0.4,1.9 0.2,0.4 0.7,0.5 1.4,0.5 v 0.4 H 26 v -0.4 c 0.7,0 1.1,-0.2 1.4,-0.5 0.3,-0.5 0.4,-1.1 0.4,-2 z"
   id="path82" />
			<path
   class="st1"
   d="M 43.6,110.7 H 44 v 3.7 h -0.5 c -0.2,-0.7 -0.4,-1.1 -0.6,-1.2 C 42.7,113 42.1,113 41.3,113 h -3.8 v 5.5 c 0,0.4 0.1,0.7 0.3,0.8 0.2,0.1 0.5,0.2 0.9,0.2 h 2.7 c 1,0 1.6,-0.1 2,-0.2 0.4,-0.1 0.7,-0.3 0.9,-0.6 0.2,-0.3 0.5,-0.7 0.8,-1.4 h 0.5 l -0.7,2.9 h -11 v -0.4 c 0.7,0 1.2,-0.2 1.4,-0.5 0.2,-0.3 0.3,-1 0.3,-1.9 v -9.6 c 0,-0.9 -0.1,-1.6 -0.4,-1.9 -0.2,-0.4 -0.7,-0.5 -1.4,-0.5 V 105 h 11.1 v 2.6 h -0.3 c -0.2,-0.7 -0.4,-1.2 -0.7,-1.5 -0.3,-0.2 -0.9,-0.4 -1.9,-0.4 h -4.4 v 6.6 h 4.3 c 0.6,0 1,-0.1 1.2,-0.3 0.2,-0.3 0.4,-0.7 0.5,-1.3 z"
   id="path83" />
			<path
   class="st1"
   d="m 65.5,117 v -9.2 c 0,-0.9 -0.1,-1.5 -0.4,-1.9 -0.3,-0.4 -0.7,-0.5 -1.3,-0.6 v -0.4 h 5.4 v 0.4 c -0.7,0 -1.1,0.2 -1.4,0.5 -0.3,0.3 -0.4,1 -0.4,1.9 v 9.6 c 0,0.9 0.1,1.5 0.4,1.9 0.2,0.4 0.7,0.5 1.4,0.5 v 0.4 H 65.4 V 118 c -1.4,1.7 -3.1,2.5 -5.1,2.5 -1.6,0 -2.9,-0.5 -3.8,-1.4 -0.9,-0.9 -1.4,-2.2 -1.4,-3.8 v -7.6 c 0,-0.9 -0.1,-1.6 -0.4,-1.9 -0.2,-0.4 -0.7,-0.5 -1.4,-0.5 v -0.4 h 5.6 v 0.4 c -0.7,0 -1.2,0.2 -1.4,0.5 -0.2,0.3 -0.4,1 -0.4,1.9 v 7.8 c 0,1.3 0.3,2.2 1,3 0.7,0.7 1.7,1.1 2.9,1.1 1.9,0 3.4,-0.8 4.5,-2.6 z"
   id="path84" />
			<path
   class="st1"
   d="m 83.1,105.3 v -0.4 h 4.6 v 0.4 c -0.7,0 -1.3,0.2 -1.6,0.5 -0.3,0.4 -0.4,1 -0.4,1.9 v 12.5 H 85.2 L 74.3,106.8 v 10.8 c 0,0.8 0.1,1.3 0.5,1.6 0.3,0.3 0.8,0.5 1.6,0.5 v 0.4 h -4.7 v -0.4 c 0.7,0 1.2,-0.2 1.5,-0.6 0.3,-0.4 0.4,-1.1 0.4,-2.1 v -9 c 0,-1 -0.2,-1.7 -0.5,-2.1 -0.3,-0.4 -0.9,-0.7 -1.8,-0.8 v -0.4 h 3.9 l 9.7,12 v -9 c 0,-0.9 -0.1,-1.6 -0.4,-2 -0.2,-0.2 -0.7,-0.4 -1.4,-0.4 z"
   id="path85" />
			<path
   class="st1"
   d="m 95.4,104.9 v 0.4 c -0.7,0 -1.1,0.2 -1.4,0.5 -0.3,0.3 -0.4,1 -0.4,1.9 v 9.6 c 0,0.9 0.1,1.6 0.4,1.9 0.2,0.4 0.7,0.5 1.4,0.5 v 0.4 h -5.5 v -0.4 c 0.7,0 1.1,-0.2 1.4,-0.5 0.2,-0.4 0.4,-1 0.4,-1.9 v -9.6 c 0,-0.9 -0.1,-1.6 -0.4,-1.9 -0.2,-0.4 -0.7,-0.5 -1.4,-0.5 v -0.4 z"
   id="path86" />
			<path
   class="st1"
   d="m 112.4,104.9 v 0.5 c -1.1,0 -2.1,1 -2.8,3 l -4.5,12.1 h -0.4 L 99.8,108 c -0.4,-1.1 -0.8,-1.9 -1.1,-2.2 -0.3,-0.3 -0.8,-0.5 -1.4,-0.5 v -0.4 h 5.6 v 0.4 c -0.9,0 -1.4,0.3 -1.4,1 0,0.2 0.1,0.5 0.2,0.8 l 3.8,9.9 3.6,-9.6 c 0.1,-0.4 0.2,-0.8 0.2,-1.1 0,-0.7 -0.5,-1.1 -1.4,-1.1 v -0.4 z"
   id="path87" />
			<path
   class="st1"
   d="m 123.6,110.7 h 0.5 v 3.7 h -0.5 c -0.2,-0.7 -0.4,-1.1 -0.6,-1.2 -0.2,-0.2 -0.8,-0.2 -1.6,-0.2 h -3.8 v 5.5 c 0,0.4 0.1,0.7 0.3,0.8 0.2,0.2 0.5,0.2 0.9,0.2 h 2.7 c 1,0 1.6,-0.1 2,-0.2 0.4,-0.1 0.7,-0.3 0.9,-0.6 0.2,-0.3 0.5,-0.7 0.8,-1.4 h 0.5 l -0.7,2.9 h -11.1 v -0.4 c 0.7,0 1.1,-0.2 1.4,-0.5 0.3,-0.3 0.4,-1 0.4,-1.9 v -9.6 c 0,-0.9 -0.1,-1.6 -0.4,-1.9 -0.2,-0.4 -0.7,-0.5 -1.4,-0.5 V 105 H 125 v 2.6 h -0.3 c -0.2,-0.7 -0.4,-1.2 -0.7,-1.5 -0.3,-0.2 -0.9,-0.4 -1.9,-0.4 h -4.4 v 6.6 h 4.3 c 0.6,0 1,-0.1 1.2,-0.3 0.2,-0.3 0.3,-0.7 0.4,-1.3 z"
   id="path88" />
			<path
   class="st1"
   d="m 132.7,113.1 h -1.2 v 4.2 c 0,0.9 0.1,1.6 0.4,1.9 0.3,0.4 0.7,0.5 1.4,0.5 v 0.4 h -5.5 v -0.4 c 0.7,0 1.1,-0.2 1.4,-0.5 0.3,-0.3 0.4,-1 0.4,-1.9 v -9.6 c 0,-0.9 -0.1,-1.5 -0.4,-1.9 -0.2,-0.4 -0.7,-0.5 -1.4,-0.5 v -0.4 h 6.3 c 1.6,0 2.8,0.4 3.7,1.1 0.9,0.8 1.4,1.7 1.4,2.9 0,1.9 -1.1,3.1 -3.2,3.8 0.5,0.3 0.9,0.7 1.4,1.2 0.4,0.5 1,1.4 1.7,2.6 0.8,1.3 1.4,2.2 1.9,2.6 0.4,0.4 0.9,0.6 1.4,0.7 v 0.4 h -3.1 c -0.6,-0.8 -1.4,-1.9 -2.4,-3.4 -1,-1.6 -1.8,-2.6 -2.3,-3 -0.6,-0.4 -1.2,-0.7 -1.9,-0.7 z m 0.4,-7.6 h -1.6 v 7 h 1.9 c 1.1,0 2,-0.3 2.6,-1 0.6,-0.7 1,-1.5 1,-2.6 0,-1 -0.4,-1.9 -1.1,-2.5 -0.7,-0.6 -1.7,-0.9 -2.8,-0.9 z"
   id="path89" />
			<path
   class="st1"
   d="m 151.4,104.7 h 0.4 v 3.6 h -0.5 c -0.1,-1 -0.5,-1.8 -1.1,-2.3 -0.6,-0.6 -1.4,-0.8 -2.3,-0.8 -0.8,0 -1.5,0.2 -2,0.6 -0.5,0.4 -0.8,1 -0.8,1.7 0,0.6 0.2,1.2 0.6,1.8 0.4,0.6 1.3,1.2 2.7,2.1 1.6,1 2.7,1.8 3.3,2.5 0.6,0.7 0.8,1.6 0.8,2.5 0,1.2 -0.4,2.2 -1.3,3.1 -0.9,0.9 -1.9,1.3 -3.1,1.3 -0.7,0 -1.6,-0.2 -2.7,-0.6 -0.4,-0.2 -0.7,-0.2 -0.9,-0.2 -0.2,0 -0.4,0.2 -0.6,0.6 h -0.5 v -4.1 h 0.5 c 0,1.1 0.4,2.1 1.1,2.8 0.7,0.7 1.6,1 2.6,1 0.9,0 1.7,-0.2 2.2,-0.8 0.6,-0.5 0.8,-1.2 0.8,-2 0,-0.6 -0.2,-1.2 -0.7,-1.8 -0.5,-0.6 -1.4,-1.3 -2.9,-2.2 -1.2,-0.7 -2,-1.3 -2.4,-1.8 -0.4,-0.5 -0.7,-0.9 -0.9,-1.4 -0.2,-0.5 -0.3,-1.1 -0.3,-1.7 0,-1.2 0.4,-2.1 1.2,-2.9 0.8,-0.8 1.8,-1.1 3,-1.1 0.7,0 1.4,0.1 2.2,0.4 0.4,0.1 0.6,0.2 0.8,0.2 0.1,0 0.2,0 0.2,-0.1 0.5,-0.1 0.6,-0.2 0.6,-0.4 z"
   id="path90" />
			<path
   class="st1"
   d="m 160.8,104.9 v 0.4 c -0.7,0 -1.1,0.2 -1.4,0.5 -0.3,0.3 -0.4,1 -0.4,1.9 v 9.6 c 0,0.9 0.1,1.6 0.4,1.9 0.2,0.4 0.7,0.5 1.4,0.5 v 0.4 h -5.5 v -0.4 c 0.7,0 1.1,-0.2 1.4,-0.5 0.2,-0.4 0.4,-1 0.4,-1.9 v -9.6 c 0,-0.9 -0.1,-1.6 -0.4,-1.9 -0.2,-0.4 -0.7,-0.5 -1.4,-0.5 v -0.4 z"
   id="path91" />
			<path
   class="st1"
   d="m 173,105.6 h -2.3 v 11.8 c 0,0.9 0.1,1.6 0.3,1.9 0.2,0.3 0.7,0.5 1.3,0.5 v 0.4 h -5.4 v -0.4 c 0.7,0 1.1,-0.2 1.4,-0.6 0.3,-0.4 0.4,-1 0.4,-1.9 v -11.7 h -2.2 c -1.1,0 -1.8,0.2 -2.3,0.5 -0.5,0.3 -0.8,0.9 -0.8,1.7 h -0.5 v -3.5 h 0.5 c 0.4,0.4 1.2,0.6 2.3,0.6 h 8.1 c 1.2,0 2,-0.2 2.4,-0.6 h 0.5 v 3.5 h -0.3 c -0.2,-0.9 -0.5,-1.4 -1,-1.7 -0.6,-0.3 -1.4,-0.5 -2.4,-0.5 z"
   id="path92" />
			<path
   class="st1"
   d="m 189.5,107.1 -3.5,5.4 v 4.8 c 0,0.9 0.1,1.6 0.4,1.9 0.3,0.3 0.7,0.5 1.3,0.5 v 0.4 h -5.6 v -0.4 c 0.8,0 1.3,-0.2 1.5,-0.6 0.2,-0.4 0.4,-1 0.4,-1.9 v -4.8 l -3.3,-5.1 c -0.5,-0.9 -1,-1.4 -1.3,-1.7 -0.3,-0.3 -0.8,-0.4 -1.4,-0.4 v -0.4 h 6 v 0.4 c -1.1,0 -1.6,0.2 -1.6,0.7 0,0.2 0.1,0.5 0.3,0.8 l 3,4.7 2.4,-3.9 c 0.4,-0.6 0.5,-1.1 0.5,-1.5 0,-0.6 -0.3,-0.9 -1,-0.9 v -0.4 h 4.2 v 0.4 c -0.6,0 -1,0.2 -1.3,0.4 -0.1,0.4 -0.5,0.9 -1,1.6 z"
   id="path93" />
		</g>
		<g
   id="g104">
			<path
   class="st1"
   d="m 21.6,136.9 c 0.7,0 1.3,0.3 1.9,0.9 0.5,0.6 0.8,1.3 0.8,2.1 0,1.4 -0.5,2.9 -1.6,4.3 -1.1,1.4 -2.3,2.1 -3.8,2.1 -0.8,0 -1.5,-0.3 -2,-0.9 -0.5,-0.6 -0.8,-1.3 -0.8,-2.2 0,-1.6 0.6,-3 1.7,-4.3 1.2,-1.3 2.4,-2 3.8,-2 z m -2.1,8.7 c 0.9,0 1.6,-0.5 2.3,-1.6 0.7,-1.1 1,-2.4 1,-3.9 0,-0.7 -0.2,-1.2 -0.5,-1.7 -0.3,-0.5 -0.8,-0.7 -1.3,-0.7 -0.8,0 -1.6,0.5 -2.2,1.6 -0.6,1.1 -1,2.3 -1,3.8 0,0.8 0.2,1.4 0.5,1.8 0.2,0.5 0.6,0.7 1.2,0.7 z"
   id="path94" />
			<path
   class="st1"
   d="m 30.9,137.2 -0.1,0.7 H 29 l -1.5,7.8 c -0.4,2.1 -0.8,3.6 -1.3,4.6 -0.5,1 -1.2,1.7 -2,2.2 -0.8,0.5 -1.8,0.8 -2.8,0.8 -1.3,0 -2.4,-0.2 -3.1,-0.7 l 0.4,-1.9 h 0.5 c 0.3,1.4 1.1,2.1 2.3,2.1 1,0 1.8,-0.4 2.5,-1 0.7,-0.7 1.3,-2.3 1.8,-4.8 l 1.7,-9.1 h -1.9 l 0.1,-0.7 h 1.9 l 0.7,-3.2 c 0.3,-1.7 0.9,-2.9 1.7,-3.6 0.8,-0.7 1.7,-1 2.8,-1 0.5,0 1.1,0.1 1.8,0.4 l 0.1,-0.3 h 0.5 l -0.5,2.4 h -0.5 c -0.1,-1.3 -0.7,-1.9 -1.7,-1.9 -1.3,0 -2.2,1.1 -2.6,3.3 l -0.8,4 z"
   id="path95" />
			<path
   class="st1"
   d="M 49.5,136.5 H 50 v 3.7 h -0.5 c -0.2,-0.7 -0.4,-1.1 -0.6,-1.2 -0.2,-0.2 -0.8,-0.2 -1.6,-0.2 h -3.8 v 5.5 c 0,0.4 0.1,0.7 0.3,0.8 0.2,0.2 0.5,0.2 0.9,0.2 h 2.7 c 1,0 1.6,-0.1 2,-0.2 0.4,-0.1 0.7,-0.3 0.9,-0.6 0.2,-0.3 0.5,-0.7 0.8,-1.4 h 0.5 L 50.9,146 H 39.7 v -0.4 c 0.7,0 1.2,-0.2 1.4,-0.5 0.2,-0.3 0.3,-1 0.3,-1.9 v -9.6 c 0,-0.9 -0.1,-1.6 -0.4,-1.9 -0.2,-0.4 -0.7,-0.5 -1.4,-0.5 v -0.4 h 11.1 v 2.6 h -0.3 c -0.2,-0.7 -0.4,-1.2 -0.7,-1.5 -0.3,-0.2 -0.9,-0.4 -1.9,-0.4 h -4.4 v 6.6 h 4.3 c 0.6,0 1,-0.1 1.2,-0.3 0.3,-0.3 0.5,-0.7 0.6,-1.3 z"
   id="path96" />
			<path
   class="st1"
   d="m 53.6,146.1 v -0.4 c 0.7,0 1.1,-0.2 1.4,-0.5 0.2,-0.4 0.4,-1 0.4,-1.9 v -9.6 c 0,-0.9 -0.1,-1.6 -0.4,-1.9 -0.3,-0.3 -0.7,-0.5 -1.4,-0.5 v -0.4 h 7.1 c 2.6,0 4.7,0.8 6.3,2.2 1.6,1.4 2.4,3.4 2.4,5.7 0,2.3 -0.8,4.1 -2.2,5.4 -1.5,1.4 -3.6,2 -6.2,2 z m 6.7,-14.8 h -2.9 v 11.4 c 0,1.1 0.1,1.8 0.4,2.2 0.3,0.4 0.8,0.6 1.6,0.6 H 61 c 1.9,0 3.4,-0.6 4.5,-1.8 1.1,-1.2 1.6,-2.9 1.6,-5 0,-2.2 -0.6,-4 -1.8,-5.4 -1.2,-1.4 -2.8,-2 -5,-2 z"
   id="path97" />
			<path
   class="st1"
   d="m 77,130.7 v 0.4 c -0.7,0 -1.1,0.2 -1.4,0.5 -0.3,0.3 -0.4,1 -0.4,1.9 v 9.6 c 0,0.9 0.1,1.6 0.4,1.9 0.2,0.4 0.7,0.5 1.4,0.5 v 0.4 h -5.5 v -0.4 c 0.7,0 1.1,-0.2 1.4,-0.5 0.2,-0.4 0.4,-1 0.4,-1.9 v -9.6 c 0,-0.9 -0.1,-1.6 -0.4,-1.9 -0.2,-0.4 -0.7,-0.5 -1.4,-0.5 v -0.4 z"
   id="path98" />
			<path
   class="st1"
   d="m 90.6,131.1 v -0.4 h 4.6 v 0.4 c -0.7,0 -1.3,0.2 -1.6,0.5 -0.3,0.4 -0.4,1 -0.4,1.9 V 146 H 92.7 L 81.8,132.6 v 10.8 c 0,0.8 0.1,1.3 0.5,1.6 0.3,0.3 0.8,0.5 1.6,0.5 v 0.4 h -4.7 v -0.4 c 0.7,0 1.2,-0.2 1.5,-0.6 0.3,-0.4 0.4,-1.1 0.4,-2.1 v -9 c 0,-1 -0.2,-1.7 -0.5,-2.1 -0.3,-0.4 -0.9,-0.7 -1.8,-0.8 v -0.4 h 3.9 l 9.7,12 v -9 c 0,-0.9 -0.1,-1.6 -0.4,-2 -0.1,-0.2 -0.6,-0.4 -1.4,-0.4 z"
   id="path99" />
			<path
   class="st1"
   d="M 104.1,146.1 H 97 v -0.4 c 0.7,0 1.1,-0.2 1.4,-0.5 0.3,-0.3 0.4,-1 0.4,-1.9 v -9.6 c 0,-0.9 -0.1,-1.6 -0.4,-1.9 -0.2,-0.4 -0.7,-0.5 -1.4,-0.5 v -0.4 h 5.8 c 1.7,0 3,0.3 3.9,1 0.9,0.7 1.4,1.6 1.4,2.7 0,1.6 -1,2.8 -3.1,3.5 v 0.1 c 1.2,0.2 2.1,0.8 2.9,1.6 0.7,0.8 1.1,1.7 1.1,2.8 0,1.1 -0.4,2.1 -1.4,2.7 -0.8,0.4 -2,0.8 -3.5,0.8 z m -3.3,-14.8 v 6.5 h 1.6 c 1.1,0 2,-0.3 2.6,-0.9 0.7,-0.6 1,-1.4 1,-2.4 0,-1 -0.3,-1.9 -1,-2.4 -0.6,-0.6 -1.6,-0.9 -2.7,-0.9 h -1.5 z m 1.4,7.1 h -1.5 v 4.5 c 0,1 0.1,1.7 0.3,2 0.2,0.3 0.6,0.5 1.3,0.5 h 1.3 c 0.9,0 1.6,-0.3 2.2,-0.9 0.6,-0.6 0.9,-1.4 0.9,-2.4 0,-1.1 -0.4,-2.1 -1.2,-2.8 -0.9,-0.6 -1.9,-0.9 -3.3,-0.9 z"
   id="path100" />
			<path
   class="st1"
   d="m 122.7,142.8 v -9.2 c 0,-0.9 -0.1,-1.5 -0.4,-1.9 -0.3,-0.4 -0.7,-0.5 -1.3,-0.6 v -0.4 h 5.4 v 0.4 c -0.7,0 -1.1,0.2 -1.4,0.5 -0.3,0.3 -0.4,1 -0.4,1.9 v 9.6 c 0,0.9 0.1,1.5 0.4,1.9 0.2,0.4 0.7,0.5 1.4,0.5 v 0.4 h -3.8 v -2.1 c -1.4,1.7 -3.1,2.5 -5.1,2.5 -1.6,0 -2.9,-0.5 -3.8,-1.4 -0.9,-1 -1.4,-2.2 -1.4,-3.8 v -7.6 c 0,-0.9 -0.1,-1.6 -0.4,-1.9 -0.3,-0.3 -0.7,-0.5 -1.4,-0.5 v -0.4 h 5.6 v 0.4 c -0.7,0 -1.2,0.2 -1.4,0.5 -0.2,0.4 -0.4,1 -0.4,1.9 v 7.8 c 0,1.3 0.4,2.2 1,3 0.7,0.7 1.6,1.1 2.9,1.1 1.9,0 3.4,-0.9 4.5,-2.6 z"
   id="path101" />
			<path
   class="st1"
   d="m 133.8,138.9 h -1.2 v 4.2 c 0,0.9 0.1,1.6 0.4,1.9 0.3,0.4 0.7,0.5 1.4,0.5 v 0.4 h -5.5 v -0.4 c 0.7,0 1.1,-0.2 1.4,-0.5 0.3,-0.3 0.4,-1 0.4,-1.9 v -9.6 c 0,-0.9 -0.1,-1.5 -0.4,-1.9 -0.2,-0.4 -0.7,-0.5 -1.4,-0.5 v -0.4 h 6.3 c 1.6,0 2.8,0.4 3.7,1.1 0.9,0.8 1.4,1.7 1.4,2.9 0,1.9 -1.1,3.1 -3.2,3.8 0.5,0.3 0.9,0.7 1.4,1.2 0.4,0.5 1,1.4 1.7,2.6 0.8,1.3 1.4,2.2 1.9,2.6 0.4,0.4 0.9,0.6 1.4,0.7 v 0.4 h -3.1 c -0.6,-0.8 -1.4,-1.9 -2.4,-3.4 -1,-1.6 -1.8,-2.6 -2.3,-3 -0.5,-0.4 -1.2,-0.7 -1.9,-0.7 z m 0.4,-7.6 h -1.6 v 7 h 1.9 c 1.1,0 2,-0.3 2.6,-1 0.6,-0.7 1,-1.5 1,-2.6 0,-1 -0.4,-1.9 -1.1,-2.5 -0.7,-0.6 -1.7,-0.9 -2.8,-0.9 z"
   id="path102" />
			<path
   class="st1"
   d="m 158.7,139.4 v 0.4 c -0.7,0 -1.2,0.2 -1.5,0.5 -0.3,0.3 -0.4,0.9 -0.4,1.6 v 4.1 c -0.4,0.1 -1,0.2 -2,0.3 -1,0.1 -1.7,0.1 -2.3,0.1 -2.8,0 -5.1,-0.7 -6.6,-2.1 -1.5,-1.4 -2.4,-3.2 -2.4,-5.5 0,-1.6 0.4,-3 1,-4.3 0.7,-1.3 1.7,-2.3 2.9,-3.1 1.2,-0.8 2.6,-1.1 4,-1.1 0.8,0 1.8,0.1 2.7,0.4 0.6,0.2 1.1,0.3 1.4,0.3 0.4,0 0.7,-0.2 0.9,-0.5 h 0.5 v 4.5 h -0.4 c -0.2,-1.3 -0.7,-2.3 -1.7,-3 -1,-0.7 -2.1,-1.1 -3.4,-1.1 -1.6,0 -3,0.6 -4,1.9 -1,1.3 -1.6,3 -1.6,5 0,2.2 0.6,4.1 1.8,5.6 1.2,1.5 2.7,2.2 4.5,2.2 1.7,0 2.6,-0.6 2.6,-1.6 v -1.7 c 0,-0.9 -0.1,-1.6 -0.4,-2 -0.2,-0.4 -0.7,-0.6 -1.3,-0.6 h -0.6 v -0.4 z"
   id="path103" />
			<path
   class="st1"
   d="m 172.1,143.2 v -4.5 h -8.4 v 4.5 c 0,0.9 0.1,1.6 0.4,1.9 0.3,0.4 0.7,0.5 1.4,0.5 V 146 H 160 v -0.4 c 0.7,0 1.1,-0.2 1.4,-0.5 0.2,-0.4 0.4,-1 0.4,-1.9 v -9.6 c 0,-0.9 -0.1,-1.6 -0.4,-1.9 -0.2,-0.4 -0.7,-0.5 -1.4,-0.5 v -0.4 h 5.6 v 0.4 c -0.7,0 -1.1,0.2 -1.4,0.6 -0.3,0.4 -0.4,1 -0.4,1.9 v 4.4 h 8.4 v -4.4 c 0,-0.9 -0.1,-1.6 -0.4,-1.9 -0.3,-0.3 -0.7,-0.5 -1.4,-0.5 v -0.4 h 5.5 v 0.4 c -0.7,0 -1.1,0.2 -1.4,0.5 -0.3,0.3 -0.4,1 -0.4,1.9 v 9.6 c 0,0.9 0.1,1.6 0.4,1.9 0.2,0.4 0.7,0.5 1.4,0.5 v 0.4 h -5.5 v -0.4 c 0.7,0 1.1,-0.2 1.4,-0.5 0.2,-0.5 0.3,-1.1 0.3,-2 z"
   id="path104" />
		</g>
	</g>
</g>
</svg>
