<svg xmlns="http://www.w3.org/2000/svg" xmlns:xlink="http://www.w3.org/1999/xlink" version="1.1" width="226.772" height="226.772" viewBox="0 0 226.772 226.772">
<g id="layer_1" data-name="Layer 1">
<path transform="matrix(1,0,0,-1,139.2639,94.6382)" d="M0 0V-24.271H-50.768V-18.762L-55.69-20.581V-29.192H4.922V1.819Z" fill="#10069f"/>
<path transform="matrix(1,0,0,-1,88.4957,92.411609)" d="M0 0V24.271H50.768V18.762L55.69 20.581V29.193H-4.922V-1.819Z" fill="#10069f"/>
<path transform="matrix(1,0,0,-1,79.2173,108.9581)" d="M0 0V5.252L69.325 30.867V25.629Z" fill="#ed1c24"/>
<path transform="matrix(1,0,0,-1,61.6477,154.4964)" d="M0 0 2.353 7.665 4.706 0ZM-2.175 14.725-10.946-9.057H-2.781L-1.925-6.276H6.632L7.488-9.057H15.653L6.881 14.725Z" fill="#10069f"/>
<path transform="matrix(1,0,0,-1,107.7704,139.7717)" d="M0 0H-.027V-8.414H-8.522V0H-35.269V-6.274H-28.887V-23.781H-21.684V-6.274H-15.724V-23.781H-8.522V-14.69H-.027V-23.781H0 18.015V-17.505H7.203V-14.904H17.766V-8.627H7.203V-6.274H18.015V0Z" fill="#10069f"/>
<path transform="matrix(1,0,0,-1,160.4173,154.4964)" d="M0 0 2.353 7.665 4.706 0ZM-2.175 14.725-9.379-4.808V14.725H-16.582V3.457L-24.854 14.725H-32.271V-9.057H-25.068V2.996L-16.297-9.057H-10.946-9.379-2.781L-1.925-6.276H6.632L7.488-9.057H15.653L6.881 14.725Z" fill="#10069f"/>
<path transform="matrix(1,0,0,-1,170.2333,139.7717)" d="M0 0 2.209-6.43H5.837V0Z" fill="#10069f"/>
</g>
</svg>
