<svg xmlns="http://www.w3.org/2000/svg" xmlns:xlink="http://www.w3.org/1999/xlink" version="1.1" width="226.772" height="170.079" viewBox="0 0 226.772 170.079">
<defs>
<clipPath id="clip_0">
<path transform="matrix(1,0,0,-1,0,170.079)" d="M0 170.079H226.772V0H0Z"/>
</clipPath>
</defs>
<g id="layer_1" data-name="Layer 1">
<g clip-path="url(#clip_0)">
<path transform="matrix(1,0,0,-1,81.3193,91.52159)" d="M0 0H-1.39V-1.913H0C.669-1.913 1.003-1.516 1.003-.961 1.003-.407 .669 0 0 0M2.383-.961C2.383-1.714 1.986-2.508 1.285-2.926L2.581-5.915H1.066L-.105-3.198H-1.39V-5.915H-2.822V1.285H.324C1.609 1.285 2.383 .084 2.383-.961" fill="#10069f"/>
<path transform="matrix(1,0,0,-1,86.6389,93.4237)" d="M0 0C-.377 0-.92-.22-.92-.753V-.878H.93V-.794C.93-.241 .418 0 0 0M-.941-1.85C-.941-1.881-.93-1.954-.92-2.09-.889-2.634-.428-2.853 .031-2.853 .313-2.853 .868-2.749 1.233-2.383L1.965-3.219C1.369-3.888 .7-4.066 .031-4.066-1.014-4.066-2.268-3.491-2.268-2.195V-.69C-2.268 .606-1.035 1.212 0 1.212 1.045 1.212 2.268 .606 2.268-.679V-1.85Z" fill="#10069f"/>
<path transform="matrix(1,0,0,-1,91.6289,97.499698)" d="M0 0C-.773 0-1.515 .105-2.289 .763L-1.588 1.714C-1.034 1.212-.512 1.149 .073 1.149 .418 1.149 .794 1.317 .794 1.641 .794 1.892 .585 2.08 .157 2.132-.773 2.268-1.986 2.341-1.986 3.648-1.986 4.734-1.076 5.288-.01 5.288 .815 5.288 1.421 5.173 2.08 4.682L1.453 3.71C.92 4.076 .46 4.128-.01 4.128-.554 4.128-.679 3.877-.679 3.637-.679 3.323 .021 3.271 .303 3.219 1.327 3.083 2.153 2.853 2.153 1.652 2.153 .564 1.16 0 0 0" fill="#10069f"/>
<path transform="matrix(1,0,0,-1,96.7194,93.4237)" d="M0 0C-.377 0-.92-.22-.92-.753V-.878H.93V-.794C.93-.241 .418 0 0 0M-.941-1.85C-.941-1.881-.93-1.954-.92-2.09-.889-2.634-.428-2.853 .031-2.853 .313-2.853 .868-2.749 1.233-2.383L1.965-3.219C1.369-3.888 .7-4.066 .031-4.066-1.014-4.066-2.268-3.491-2.268-2.195V-.69C-2.268 .606-1.035 1.212 0 1.212 1.045 1.212 2.268 .606 2.268-.679V-1.85Z" fill="#10069f"/>
<path transform="matrix(1,0,0,-1,102.9216,95.31529)" d="M0 0H-1.066C-1.369 0-1.871-.052-1.871-.512-1.871-.794-1.651-.983-1.244-.983-.742-.983-.282-.742 0-.606ZM0-2.111V-1.735C-.658-2.059-1.139-2.164-1.567-2.164-2.623-2.164-3.229-1.442-3.229-.512-3.229 .669-1.892 1.087-1.265 1.087H0V1.317C0 1.756-.554 1.933-1.024 1.933-1.369 1.933-1.766 1.892-2.257 1.474L-2.968 2.372C-2.226 2.978-1.609 3.114-.993 3.114 .314 3.114 1.327 2.414 1.327 1.076V-2.111Z" fill="#10069f"/>
<path transform="matrix(1,0,0,-1,108.3085,93.7579)" d="M0 0C-.199 .209-.533 .313-.732 .313-.983 .313-1.348 .094-1.756-.199V-3.679H-3.083V1.505H-1.756V1.097C-1.098 1.505-.941 1.567-.575 1.567-.063 1.567 .386 1.369 .71 1.045Z" fill="#10069f"/>
<path transform="matrix(1,0,0,-1,113.3671,93.0163)" d="M0 0-.784-.94C-1.275-.449-1.651-.407-1.902-.407-2.341-.407-2.832-.648-2.832-1.306V-2.351C-2.832-3.01-2.341-3.25-1.902-3.25-1.62-3.25-1.181-3.156-.847-2.78L0-3.658C-.585-4.316-1.244-4.473-1.902-4.473-2.947-4.473-4.149-3.898-4.149-2.602V-1.055C-4.149 .209-2.916 .815-1.902 .815-1.244 .815-.543 .617 0 0" fill="#10069f"/>
<path transform="matrix(1,0,0,-1,118.5,94.1448)" d="M0 0V-3.292H-1.338V-.105C-1.338 .491-1.661 .679-1.996 .679-2.32 .679-2.685 .512-3.198 .188V-3.292H-4.525V3.982H-3.198V1.484C-2.498 1.902-2.205 1.944-1.839 1.944-.763 1.944 0 1.139 0 0" fill="#10069f"/>
<path transform="matrix(1,0,0,-1,124.4915,91.16599)" d="M0 0C-.324 0-.47-.293-.47-.575-.47-.836-.313-1.108-.136-1.359 .251-1.15 .554-.909 .554-.502 .554-.22 .324 0 0 0M-.543-2.791C-1.139-3.115-1.62-3.522-1.62-4.118-1.62-4.849-1.066-5.236-.418-5.236 0-5.236 .46-5.069 .826-4.724ZM1.923-6.271 1.463-5.623C.93-6.072 .366-6.313-.418-6.313-1.724-6.313-2.801-5.477-2.801-4.139-2.801-3.136-2.007-2.352-1.202-1.882-1.442-1.516-1.63-1.16-1.63-.627-1.63 .345-1.034 1.045 0 1.045 .962 1.045 1.672 .366 1.672-.502 1.672-1.369 1.087-1.871 .46-2.258L1.484-3.669C1.599-3.418 1.652-3.146 1.683-2.738H2.811C2.77-3.407 2.634-4.118 2.226-4.703L3.365-6.271Z" fill="#10069f"/>
<path transform="matrix(1,0,0,-1,0,170.079)" d="M131.152 79.843H132.584V72.642H131.152Z" fill="#10069f"/>
<path transform="matrix(1,0,0,-1,138.2446,94.1448)" d="M0 0V-3.292H-1.338V-.105C-1.338 .491-1.662 .679-1.997 .679-2.32 .679-2.686 .512-3.198 .188V-3.292H-4.526V1.892H-3.198V1.484C-2.498 1.902-2.205 1.944-1.84 1.944-.763 1.944 0 1.139 0 0" fill="#10069f"/>
<path transform="matrix(1,0,0,-1,143.6484,94.1448)" d="M0 0V-3.292H-1.338V-.105C-1.338 .491-1.662 .679-1.997 .679-2.32 .679-2.686 .512-3.198 .188V-3.292H-4.526V1.892H-3.198V1.484C-2.498 1.902-2.205 1.944-1.84 1.944-.763 1.944 0 1.139 0 0" fill="#10069f"/>
<path transform="matrix(1,0,0,-1,147.6522,94.32259)" d="M0 0C0 .648-.492 .899-.941 .899-1.39 .899-1.882 .648-1.882 0V-1.045C-1.882-1.703-1.39-1.944-.941-1.944-.492-1.944 0-1.703 0-1.045ZM-.951-3.167C-1.986-3.167-3.209-2.592-3.209-1.296V.23C-3.209 1.516-1.976 2.122-.941 2.122 .094 2.122 1.317 1.516 1.317 .23V-1.296C1.317-2.592 .094-3.167-.951-3.167" fill="#10069f"/>
<path transform="matrix(1,0,0,-1,152.2646,97.4369)" d="M0 0H-1.034L-2.978 5.173H-1.536L-.522 2.195 .502 5.173H1.934Z" fill="#10069f"/>
<path transform="matrix(1,0,0,-1,157.7705,95.31529)" d="M0 0H-1.066C-1.369 0-1.871-.052-1.871-.512-1.871-.794-1.651-.983-1.244-.983-.742-.983-.282-.742 0-.606ZM0-2.111V-1.735C-.658-2.059-1.139-2.164-1.567-2.164-2.623-2.164-3.229-1.442-3.229-.512-3.229 .669-1.892 1.087-1.265 1.087H0V1.317C0 1.756-.554 1.933-1.024 1.933-1.369 1.933-1.766 1.892-2.257 1.474L-2.968 2.372C-2.226 2.978-1.609 3.114-.993 3.114 .314 3.114 1.327 2.414 1.327 1.076V-2.111Z" fill="#10069f"/>
<path transform="matrix(1,0,0,-1,162.1917,97.447399)" d="M0 0C-1.055 0-1.797 .533-1.797 1.787V4.045H-2.435V5.194H-1.797V6.71H-.481V5.194H.648V4.045H-.481V1.954C-.481 1.411-.22 1.191 .209 1.191H.648V0Z" fill="#10069f"/>
<path transform="matrix(1,0,0,-1,0,170.079)" d="M163.665 77.826H164.99199V72.642H163.665ZM164.324 78.432C163.916 78.432 163.582 78.767 163.582 79.174 163.582 79.582 163.916 79.916 164.324 79.916 164.731 79.916 165.066 79.582 165.066 79.174 165.066 78.767 164.731 78.432 164.324 78.432" fill="#10069f"/>
<path transform="matrix(1,0,0,-1,169.1494,94.32259)" d="M0 0C0 .648-.492 .899-.941 .899-1.39 .899-1.882 .648-1.882 0V-1.045C-1.882-1.703-1.39-1.944-.941-1.944-.492-1.944 0-1.703 0-1.045ZM-.951-3.167C-1.986-3.167-3.209-2.592-3.209-1.296V.23C-3.209 1.516-1.976 2.122-.941 2.122 .094 2.122 1.317 1.516 1.317 .23V-1.296C1.317-2.592 .094-3.167-.951-3.167" fill="#10069f"/>
<path transform="matrix(1,0,0,-1,175.8292,94.1448)" d="M0 0V-3.292H-1.338V-.105C-1.338 .491-1.662 .679-1.997 .679-2.32 .679-2.686 .512-3.198 .188V-3.292H-4.526V1.892H-3.198V1.484C-2.498 1.902-2.205 1.944-1.84 1.944-.763 1.944 0 1.139 0 0" fill="#10069f"/>
<path transform="matrix(1,0,0,-1,0,170.079)" d="M66.136 66.583H67.568V59.382H66.136Z" fill="#10069f"/>
<path transform="matrix(1,0,0,-1,73.228,107.4048)" d="M0 0V-3.292H-1.338V-.105C-1.338 .491-1.662 .679-1.997 .679-2.32 .679-2.686 .512-3.198 .188V-3.292H-4.526V1.892H-3.198V1.484C-2.498 1.902-2.205 1.944-1.84 1.944-.763 1.944 0 1.139 0 0" fill="#10069f"/>
<path transform="matrix(1,0,0,-1,75.7641,106.662799)" d="M0 0V-4.034H-1.317V0H-1.933V1.149H-1.317V1.442C-1.317 2.634-.408 3.24 .47 3.24H1.202V2.048H.69C.271 2.048 0 1.756 0 1.296V1.149H1.202V0Z" fill="#10069f"/>
<path transform="matrix(1,0,0,-1,80.751,107.582599)" d="M0 0C0 .648-.492 .899-.941 .899-1.39 .899-1.882 .648-1.882 0V-1.045C-1.882-1.703-1.39-1.944-.941-1.944-.492-1.944 0-1.703 0-1.045ZM-.951-3.167C-1.986-3.167-3.209-2.592-3.209-1.296V.23C-3.209 1.516-1.976 2.122-.941 2.122 .094 2.122 1.317 1.516 1.317 .23V-1.296C1.317-2.592 .094-3.167-.951-3.167" fill="#10069f"/>
<path transform="matrix(1,0,0,-1,86.0358,107.0179)" d="M0 0C-.199 .209-.533 .313-.732 .313-.983 .313-1.348 .094-1.756-.199V-3.679H-3.083V1.505H-1.756V1.097C-1.098 1.505-.941 1.567-.575 1.567-.063 1.567 .386 1.369 .71 1.045Z" fill="#10069f"/>
<path transform="matrix(1,0,0,-1,93.1205,110.6969)" d="M0 0V3.25C0 3.752-.334 3.982-.711 3.982-.993 3.971-1.296 3.825-1.682 3.574-1.682 3.543-1.661 3.261-1.661 3.114V3.01 0H-2.989V3.188C-2.989 3.741-3.261 3.951-3.595 3.951-3.815 3.951-4.327 3.679-4.651 3.459V0H-5.978V5.184H-4.651V4.776C-3.982 5.226-3.731 5.236-3.365 5.236-2.832 5.236-2.487 5.027-2.163 4.682-1.62 5.006-1.087 5.236-.596 5.236 .544 5.236 1.338 4.421 1.338 3.344V0Z" fill="#10069f"/>
<path transform="matrix(1,0,0,-1,98.4462,108.575199)" d="M0 0H-1.066C-1.369 0-1.871-.052-1.871-.512-1.871-.794-1.651-.983-1.244-.983-.742-.983-.282-.742 0-.606ZM0-2.111V-1.735C-.658-2.059-1.139-2.164-1.567-2.164-2.623-2.164-3.229-1.442-3.229-.512-3.229 .669-1.892 1.087-1.265 1.087H0V1.317C0 1.756-.554 1.933-1.024 1.933-1.369 1.933-1.766 1.892-2.257 1.474L-2.968 2.372C-2.226 2.978-1.609 3.114-.993 3.114 .314 3.114 1.328 2.414 1.328 1.076V-2.111Z" fill="#10069f"/>
<path transform="matrix(1,0,0,-1,102.8673,110.7074)" d="M0 0C-1.055 0-1.797 .533-1.797 1.787V4.045H-2.435V5.194H-1.797V6.71H-.481V5.194H.648V4.045H-.481V1.954C-.481 1.411-.22 1.191 .209 1.191H.648V0Z" fill="#10069f"/>
<path transform="matrix(1,0,0,-1,0,170.079)" d="M104.341 64.566H105.66801V59.382005H104.341ZM104.999 65.172C104.592 65.172 104.257 65.507 104.257 65.914 104.257 66.322 104.592 66.656 104.999 66.656 105.407 66.656 105.742 66.322 105.742 65.914 105.742 65.507 105.407 65.172 104.999 65.172" fill="#10069f"/>
<path transform="matrix(1,0,0,-1,109.8245,107.582599)" d="M0 0C0 .648-.492 .899-.941 .899-1.39 .899-1.882 .648-1.882 0V-1.045C-1.882-1.703-1.39-1.944-.941-1.944-.492-1.944 0-1.703 0-1.045ZM-.951-3.167C-1.986-3.167-3.209-2.592-3.209-1.296V.23C-3.209 1.516-1.976 2.122-.941 2.122 .094 2.122 1.317 1.516 1.317 .23V-1.296C1.317-2.592 .094-3.167-.951-3.167" fill="#10069f"/>
<path transform="matrix(1,0,0,-1,116.5043,107.4048)" d="M0 0V-3.292H-1.338V-.105C-1.338 .491-1.661 .679-1.996 .679-2.32 .679-2.685 .512-3.198 .188V-3.292H-4.525V1.892H-3.198V1.484C-2.498 1.902-2.205 1.944-1.839 1.944-.763 1.944 0 1.139 0 0" fill="#10069f"/>
<path transform="matrix(1,0,0,-1,122.7469,104.78159)" d="M0 0V-5.915H-1.432V0H-3.344V1.285H1.902V0Z" fill="#10069f"/>
<path transform="matrix(1,0,0,-1,126.6286,106.68369)" d="M0 0C-.377 0-.92-.22-.92-.753V-.878H.93V-.794C.93-.241 .418 0 0 0M-.941-1.85C-.941-1.881-.93-1.954-.92-2.09-.889-2.634-.428-2.853 .031-2.853 .313-2.853 .868-2.749 1.233-2.383L1.965-3.219C1.369-3.888 .7-4.066 .031-4.066-1.014-4.066-2.268-3.491-2.268-2.195V-.69C-2.268 .606-1.035 1.212 0 1.212 1.045 1.212 2.268 .606 2.268-.679V-1.85Z" fill="#10069f"/>
<path transform="matrix(1,0,0,-1,133.7895,106.27629)" d="M0 0-.784-.94C-1.275-.449-1.651-.407-1.902-.407-2.341-.407-2.832-.648-2.832-1.306V-2.351C-2.832-3.01-2.341-3.25-1.902-3.25-1.62-3.25-1.181-3.156-.847-2.78L0-3.658C-.585-4.316-1.244-4.473-1.902-4.473-2.947-4.473-4.149-3.898-4.149-2.602V-1.055C-4.149 .209-2.916 .815-1.902 .815-1.244 .815-.543 .617 0 0" fill="#10069f"/>
<path transform="matrix(1,0,0,-1,138.9224,107.4048)" d="M0 0V-3.292H-1.338V-.105C-1.338 .491-1.661 .679-1.996 .679-2.32 .679-2.685 .512-3.198 .188V-3.292H-4.525V3.982H-3.198V1.484C-2.498 1.902-2.205 1.944-1.839 1.944-.763 1.944 0 1.139 0 0" fill="#10069f"/>
<path transform="matrix(1,0,0,-1,144.3272,107.4048)" d="M0 0V-3.292H-1.338V-.105C-1.338 .491-1.662 .679-1.997 .679-2.32 .679-2.686 .512-3.198 .188V-3.292H-4.526V1.892H-3.198V1.484C-2.498 1.902-2.205 1.944-1.84 1.944-.763 1.944 0 1.139 0 0" fill="#10069f"/>
<path transform="matrix(1,0,0,-1,148.3305,107.582599)" d="M0 0C0 .648-.492 .899-.941 .899-1.39 .899-1.882 .648-1.882 0V-1.045C-1.882-1.703-1.39-1.944-.941-1.944-.492-1.944 0-1.703 0-1.045ZM-.951-3.167C-1.986-3.167-3.209-2.592-3.209-1.296V.23C-3.209 1.516-1.976 2.122-.941 2.122 .094 2.122 1.317 1.516 1.317 .23V-1.296C1.317-2.592 .094-3.167-.951-3.167" fill="#10069f"/>
<path transform="matrix(1,0,0,-1,152.5724,110.7388)" d="M0 0C-.042 0-.084 0-.115 .01-1.055 .063-1.965 .554-1.965 1.693V7.316H-.648V1.944C-.648 1.495-.439 1.223 .094 1.212H.126V0Z" fill="#10069f"/>
<path transform="matrix(1,0,0,-1,156.5229,107.582599)" d="M0 0C0 .648-.492 .899-.941 .899-1.39 .899-1.882 .648-1.882 0V-1.045C-1.882-1.703-1.39-1.944-.941-1.944-.492-1.944 0-1.703 0-1.045ZM-.951-3.167C-1.986-3.167-3.209-2.592-3.209-1.296V.23C-3.209 1.516-1.976 2.122-.941 2.122 .094 2.122 1.317 1.516 1.317 .23V-1.296C1.317-2.592 .094-3.167-.951-3.167" fill="#10069f"/>
<path transform="matrix(1,0,0,-1,161.7818,107.2061)" d="M0 0C-.418 .251-.878 .47-1.202 .481-1.589 .481-1.861 .282-1.861-.303V-1.516C-1.861-2.09-1.568-2.31-1.202-2.31-.857-2.31-.314-2.08 0-1.902ZM0 1.285V1.693H1.327V-3.773C1.327-5.069-.01-5.644-1.056-5.644-1.704-5.644-2.53-5.466-3.125-4.818L-2.268-3.951C-1.933-4.306-1.348-4.421-1.045-4.421-.481-4.421 0-4.191 0-3.522L.01-3.094C-.575-3.418-.983-3.543-1.348-3.543-2.435-3.543-3.198-2.728-3.198-1.599V-.199C-3.198 .93-2.435 1.745-1.348 1.745-1.014 1.745-.69 1.672 0 1.285" fill="#10069f"/>
<path transform="matrix(1,0,0,-1,0,170.079)" d="M164.148 64.566H165.47499V59.382005H164.148ZM164.807 65.172C164.4 65.172 164.065 65.507 164.065 65.914 164.065 66.322 164.4 66.656 164.807 66.656 165.214 66.656 165.549 66.322 165.549 65.914 165.549 65.507 165.214 65.172 164.807 65.172" fill="#10069f"/>
<path transform="matrix(1,0,0,-1,168.6862,106.68369)" d="M0 0C-.376 0-.92-.22-.92-.753V-.878H.93V-.794C.93-.241 .418 0 0 0M-.941-1.85C-.941-1.881-.93-1.954-.92-2.09-.889-2.634-.428-2.853 .031-2.853 .313-2.853 .868-2.749 1.233-2.383L1.965-3.219C1.369-3.888 .7-4.066 .031-4.066-1.014-4.066-2.268-3.491-2.268-2.195V-.69C-2.268 .606-1.035 1.212 0 1.212 1.045 1.212 2.268 .606 2.268-.679V-1.85Z" fill="#10069f"/>
<path transform="matrix(1,0,0,-1,173.6761,110.75969)" d="M0 0C-.773 0-1.515 .105-2.289 .763L-1.588 1.714C-1.034 1.212-.512 1.149 .073 1.149 .418 1.149 .794 1.317 .794 1.641 .794 1.892 .585 2.08 .157 2.132-.773 2.268-1.986 2.341-1.986 3.648-1.986 4.734-1.076 5.288-.01 5.288 .815 5.288 1.421 5.173 2.08 4.682L1.453 3.71C.92 4.076 .46 4.128-.01 4.128-.554 4.128-.679 3.877-.679 3.637-.679 3.323 .021 3.271 .303 3.219 1.327 3.083 2.153 2.853 2.153 1.652 2.153 .564 1.16 0 0 0" fill="#10069f"/>
<path transform="matrix(1,0,0,-1,55.9967,112.931697)" d="M0 0H-3.335L5.935 24.93H9.219Z" fill="#ed1c24"/>
<path transform="matrix(1,0,0,-1,61.6474,71.87219)" d="M0 0 2.353 7.665 4.706 0ZM-2.175 14.725-10.946-9.057H-2.781L-1.925-6.276H6.632L7.488-9.057H15.653L6.881 14.725Z" fill="#10069f"/>
<path transform="matrix(1,0,0,-1,107.7701,57.14749)" d="M0 0H-.027V-8.414H-8.522V0H-35.269V-6.274H-28.887V-23.781H-21.684V-6.274H-15.724V-23.781H-8.522V-14.69H-.027V-23.781H0 18.015V-17.505H7.203V-14.904H17.766V-8.627H7.203V-6.274H18.015V0Z" fill="#10069f"/>
<path transform="matrix(1,0,0,-1,160.417,71.87219)" d="M0 0 2.353 7.665 4.706 0ZM-2.175 14.725-9.379-4.808V14.725H-16.582V3.457L-24.854 14.725H-32.271V-9.057H-25.068V2.996L-16.297-9.057H-10.946-9.379-2.781L-1.925-6.276H6.632L7.488-9.057H15.653L6.881 14.725Z" fill="#10069f"/>
<path transform="matrix(1,0,0,-1,170.233,57.14749)" d="M0 0 2.209-6.43H5.837V0Z" fill="#10069f"/>
</g>
</g>
</svg>
