<?xml version="1.0" encoding="utf-8"?>
<!-- Generator: Adobe Illustrator 19.2.1, SVG Export Plug-In . SVG Version: 6.00 Build 0)  -->
<svg version="1.1" id="layer" xmlns="http://www.w3.org/2000/svg" xmlns:xlink="http://www.w3.org/1999/xlink" x="0px" y="0px"
	 viewBox="0 0 652 652" style="enable-background:new 0 0 652 652;" xml:space="preserve">
<style type="text/css">
	.st0{fill:url(#SVGID_1_);}
	.st1{fill:#FFFFFF;}
	.st2{fill:#62C4DD;}
</style>
<g>
	
		<radialGradient id="SVGID_1_" cx="2048.5679" cy="1654.7695" r="1952.7865" gradientTransform="matrix(0.1616 0 0 0.1616 46.1036 -5.3991)" gradientUnits="userSpaceOnUse">
		<stop  offset="0" style="stop-color:#456587"/>
		<stop  offset="0.2555" style="stop-color:#2C4F73"/>
		<stop  offset="0.5931" style="stop-color:#0C395D"/>
		<stop  offset="0.8524" style="stop-color:#002D50"/>
		<stop  offset="1" style="stop-color:#00294B"/>
	</radialGradient>
	<path class="st0" d="M309.9,71c-4.5-0.3-9-0.4-13.4-0.4c-61.9-0.1-117.9,26.3-166.8,78.5c-44.4,47.4-59.3,85.7-59.2,131.8
		c0.1,24.7,4.5,51.6,10.9,83.5C93.7,424.2,129.2,482,179,522.9c38.1,31.3,80.6,47.3,125.4,47.6c23.2,0.1,47-3.9,71.2-12.2
		c78-26.9,152.6-104,181.4-187.4c9.1-26.4,13.6-52.1,13.5-76.5c-0.2-59.8-27.5-112.1-79.7-149.6C427.6,99.3,366.7,74.5,309.9,71z"/>
	<g>
		<path class="st1" d="M220.9,321.4h-17.2l0,0.5c-0.1,3.3-2.1,32.5-28.2,32.5c-23.3,0-35.2-20.9-35.2-62.1
			c0-41.2,11.9-62.1,35.2-62.1c26.5,0,28.2,31.2,28.2,32.5l0,0.5h17.2c1.6,0,3.1-0.6,4.2-1.8c1.1-1.1,1.6-2.5,1.5-4
			c-0.3-8.1-4.5-48.4-51.4-48.4c-37.9,0-57.9,28.8-57.9,83.3c0,54.6,20,83.4,57.9,83.4c45.1,0,50.7-36.9,51.4-48.1
			c0.1-1.6-0.4-3.1-1.5-4.2C224,322,222.5,321.4,220.9,321.4z"/>
		<path class="st2" d="M487.4,282.3L487.4,282.3l-14.7-6.4c-14.2-6.2-19.2-12.3-19.2-23.2c0-14.2,10.4-23.7,25.8-23.7
			c9.1,0,16.6,1.9,25.8,11.2l0.5,0.5l7.9-7.2c4.6-4.2,3.2-8.1,1.3-10.5c-7.7-9.1-20-14-34.8-14c-28.4,0-49.1,18.5-49.1,44.1
			c0,25.1,15.8,35.6,32.9,43.2l15.1,6.7c15.2,6.8,22.4,12.6,22.4,27.2c0,19.9-18,25.2-28.6,25.2c-9.1,0-19.3-2-31.8-16.1l-0.5-0.6
			l-8.2,7.2c-4.2,3.7-4.2,6.9-0.1,12.2c11.3,14.5,27.9,17.6,39.8,17.6c25.8,0,51.9-15.8,51.9-46.1
			C523.7,303.3,509.2,291.7,487.4,282.3z"/>
		<path class="st2" d="M341.7,256.5c0-25.7-20.9-47.5-46.6-47.5c-12.1,0-23.1,4.6-31.4,12.2v-8.8h-15.5c-4.7,0-6.5,3-6.5,6.6v150.2
			c0,4.2,2.6,6.5,6.4,6.5h15.5V257.4c0-15.5,12.6-28.1,28.1-28.1c15.5,0,28.1,12.6,28.1,28.1v118.1h15.4c4.3,0,6.5-2.4,6.5-6.5
			C341.7,369.1,341.7,256.7,341.7,256.5z"/>
		<path class="st1" d="M430.6,220.2c0.8-1,1.3-2.3,1.3-3.7c0-2.6-1.7-4.7-4-5.5c-4.5-1.5-9.3-2.3-14.2-2.3
			c-12.1,0-23.1,4.6-31.4,12.2v-8.8h-15.5c-4.7,0-6.5,3-6.5,6.6v150.1c0,4.2,2.6,6.5,6.4,6.5h15.5V257.1c0-15.5,12.6-28.1,28.1-28.1
			c4.1,0,7.9,0.9,11.4,2.4L430.6,220.2L430.6,220.2z"/>
	</g>
</g>
</svg>
