<?xml version="1.0" encoding="utf-8"?>
<!-- Generator: Adobe Illustrator 24.1.1, SVG Export Plug-In . SVG Version: 6.00 Build 0)  -->
<svg version="1.1" id="Livello_1" xmlns="http://www.w3.org/2000/svg" xmlns:xlink="http://www.w3.org/1999/xlink" x="0px" y="0px"
	 viewBox="0 0 496.72 64" style="enable-background:new 0 0 496.72 64;" xml:space="preserve">
<style type="text/css">
	.st0{fill:#040305;}
	.st1{fill:#35BADB;}
	.st2{fill:#FFCD02;}
	.st3{fill:#1C313A;}
	.st4{fill:#7C7C7B;}
</style>
<g>
	<path class="st0" d="M70.95,24.9c0.8-0.78,1.7-1.36,2.71-1.74c1-0.37,2.02-0.56,3.04-0.56c1.26,0,2.46,0.27,3.6,0.82
		c1.14,0.54,2.11,1.32,2.91,2.32c0.8,1,1.25,2.2,1.35,3.6v0.41H68.52c0.12-0.64,0.28-1.24,0.49-1.79
		C69.51,26.7,70.15,25.68,70.95,24.9 M88.3,32.74c0.41-0.36,0.61-0.81,0.61-1.35c-0.03-1.94-0.39-3.68-1.07-5.21
		c-0.68-1.53-1.58-2.86-2.71-3.98c-1.12-1.12-2.42-1.97-3.88-2.55c-1.46-0.58-2.98-0.87-4.55-0.87c-2.11,0-4.11,0.55-6,1.66
		c-1.89,1.11-3.42,2.71-4.6,4.8c-1.17,2.09-1.76,4.62-1.76,7.59c0,2.66,0.56,5,1.69,7.02c1.12,2.03,2.71,3.62,4.75,4.78
		c2.04,1.16,4.44,1.74,7.2,1.74c1.84,0,3.57-0.39,5.18-1.17c1.62-0.78,2.92-1.7,3.91-2.76c0.54-0.48,0.82-1,0.82-1.58
		c0-0.48-0.17-0.89-0.51-1.23c-0.34-0.34-0.75-0.51-1.23-0.51c-0.44,0-0.89,0.15-1.33,0.46c-0.44,0.48-0.98,0.95-1.61,1.41
		c-0.63,0.46-1.39,0.84-2.27,1.15c-0.89,0.31-1.92,0.46-3.11,0.46c-1.91,0-3.58-0.43-5.01-1.3c-1.43-0.87-2.55-2.05-3.35-3.55
		c-0.7-1.3-1.09-2.78-1.18-4.44h18.57C87.41,33.27,87.89,33.09,88.3,32.74"/>
	<path class="st0" d="M115.98,32.56c0-1.97-0.4-3.7-1.2-5.18c-0.8-1.48-1.89-2.66-3.27-3.52c-1.38-0.87-2.92-1.3-4.62-1.3
		c-1.74,0-3.29,0.43-4.67,1.3c-1.38,0.87-2.48,2.04-3.29,3.52c-0.82,1.48-1.23,3.21-1.23,5.18c0,1.94,0.41,3.66,1.23,5.16
		c0.82,1.5,1.92,2.68,3.29,3.55c1.38,0.87,2.94,1.3,4.67,1.3c1.7,0,3.24-0.43,4.62-1.3c1.38-0.87,2.47-2.05,3.27-3.55
		C115.58,36.22,115.98,34.5,115.98,32.56 M120.12,32.56c0,2.66-0.59,5.02-1.76,7.1c-1.18,2.08-2.76,3.71-4.75,4.9
		c-1.99,1.19-4.23,1.79-6.72,1.79c-2.49,0-4.73-0.6-6.74-1.79c-2.01-1.19-3.6-2.83-4.78-4.9c-1.17-2.08-1.76-4.44-1.76-7.1
		c0-2.66,0.59-5.02,1.76-7.1c1.18-2.08,2.77-3.71,4.78-4.9c2.01-1.19,4.26-1.79,6.74-1.79c2.49,0,4.73,0.6,6.72,1.79
		c1.99,1.19,3.57,2.83,4.75,4.9C119.53,27.53,120.12,29.9,120.12,32.56"/>
	<path class="st0" d="M124.72,41.65c-0.27-0.44-0.4-0.91-0.38-1.41c0.02-0.49,0.3-0.93,0.84-1.3c0.37-0.24,0.79-0.34,1.25-0.31
		c0.46,0.03,0.88,0.26,1.25,0.66c0.95,1.12,2.04,2.02,3.27,2.68c1.23,0.66,2.72,1,4.5,1c0.78-0.03,1.59-0.17,2.43-0.41
		c0.83-0.24,1.53-0.66,2.09-1.25c0.56-0.6,0.84-1.39,0.84-2.38c0-0.95-0.29-1.71-0.87-2.27c-0.58-0.56-1.34-1.02-2.27-1.38
		c-0.94-0.36-1.93-0.67-2.99-0.95c-1.12-0.31-2.23-0.65-3.32-1.02c-1.09-0.37-2.07-0.86-2.94-1.46c-0.87-0.6-1.57-1.34-2.09-2.25
		c-0.53-0.9-0.79-2.02-0.79-3.35c0-1.53,0.42-2.86,1.25-3.98c0.83-1.12,1.95-1.99,3.35-2.6c1.4-0.61,2.94-0.92,4.65-0.92
		c0.95,0,1.95,0.11,2.99,0.33c1.04,0.22,2.05,0.6,3.04,1.12c0.99,0.53,1.86,1.25,2.61,2.17c0.31,0.34,0.48,0.77,0.51,1.28
		c0.03,0.51-0.19,0.97-0.66,1.38c-0.38,0.27-0.79,0.4-1.25,0.38c-0.46-0.02-0.84-0.18-1.15-0.48c-0.75-0.89-1.66-1.56-2.73-2.02
		c-1.07-0.46-2.26-0.69-3.55-0.69c-0.78,0-1.57,0.13-2.35,0.38c-0.78,0.26-1.44,0.66-1.97,1.2s-0.79,1.31-0.79,2.3
		c0.03,0.92,0.34,1.67,0.92,2.25c0.58,0.58,1.36,1.05,2.35,1.41c0.99,0.36,2.08,0.71,3.27,1.05c1.09,0.27,2.14,0.59,3.14,0.95
		c1,0.36,1.92,0.83,2.73,1.4c0.82,0.58,1.46,1.32,1.94,2.22c0.48,0.9,0.71,2.04,0.71,3.4c0,1.57-0.44,2.92-1.33,4.06
		c-0.89,1.14-2.05,2.01-3.5,2.61c-1.45,0.59-3.01,0.89-4.67,0.89c-1.87,0-3.73-0.35-5.57-1.05
		C127.63,44.6,126.04,43.39,124.72,41.65"/>
	<path class="st0" d="M162.16,18.77c1.77,0,3.35,0.19,4.75,0.56c1.4,0.37,2.5,0.89,3.32,1.53c0.82,0.65,1.23,1.38,1.23,2.2
		c0,0.48-0.15,0.92-0.46,1.33c-0.31,0.41-0.73,0.61-1.28,0.61c-0.44,0-0.81-0.09-1.1-0.28c-0.29-0.19-0.56-0.41-0.82-0.66
		c-0.26-0.26-0.61-0.5-1.05-0.74c-0.41-0.2-1-0.38-1.79-0.54c-0.78-0.15-1.57-0.23-2.35-0.23c-1.87,0-3.52,0.44-4.93,1.33
		c-1.41,0.89-2.53,2.08-3.35,3.58c-0.82,1.5-1.23,3.2-1.23,5.11c0,1.91,0.39,3.61,1.17,5.11c0.78,1.5,1.87,2.69,3.27,3.58
		c1.4,0.89,3.01,1.33,4.85,1.33c1.19,0,2.14-0.1,2.84-0.31c0.7-0.2,1.3-0.44,1.81-0.72c0.58-0.34,1.03-0.68,1.35-1.02
		c0.32-0.34,0.77-0.51,1.35-0.51c0.58,0,1.03,0.19,1.35,0.56c0.32,0.38,0.49,0.83,0.49,1.38c0,0.65-0.43,1.31-1.28,1.99
		c-0.85,0.68-2.01,1.25-3.47,1.71c-1.47,0.46-3.1,0.69-4.9,0.69c-2.59,0-4.85-0.6-6.79-1.81c-1.94-1.21-3.45-2.86-4.52-4.95
		c-1.07-2.09-1.61-4.44-1.61-7.02c0-2.59,0.55-4.92,1.66-7c1.11-2.08,2.65-3.73,4.62-4.95C157.29,19.38,159.57,18.77,162.16,18.77"
		/>
	<path class="st1" d="M26.98,20.98c-2.24-1.45-4.83-2.21-7.49-2.21c-2.67,0-5.26,0.77-7.49,2.21c-0.46,0.3-0.75,0.78-0.81,1.32
		c-0.06,0.56,0.13,1.1,0.53,1.5l0.75,0.75c0.36,0.36,0.82,0.54,1.29,0.54c0.33,0,0.65-0.09,0.95-0.27c1.44-0.89,3.09-1.36,4.78-1.36
		c1.69,0,3.34,0.47,4.78,1.36c0.72,0.44,1.64,0.33,2.24-0.27l0.75-0.75c0.4-0.4,0.59-0.94,0.53-1.5
		C27.73,21.75,27.44,21.27,26.98,20.98"/>
	<path class="st2" d="M17.37,41.57c-4.18-0.99-7.09-4.68-7.09-8.97c0-1.7,0.47-3.37,1.37-4.82c0.42-0.69,0.32-1.57-0.26-2.15
		l-0.75-0.75c-0.38-0.38-0.91-0.56-1.44-0.51c-0.52,0.06-0.99,0.34-1.27,0.78c-1.44,2.22-2.2,4.8-2.2,7.45
		c0,6.44,4.57,12.1,10.86,13.45c0.12,0.03,0.24,0.04,0.36,0.04c0.39,0,0.77-0.13,1.08-0.39c0.42-0.34,0.66-0.84,0.66-1.38v-1.05
		C18.69,42.47,18.13,41.75,17.37,41.57"/>
	<path class="st1" d="M42.47,18.84c-7.59,0-13.77,6.18-13.77,13.77l0.01,0.06l-0.01,0.07c-0.06,4.32-3.18,8.06-7.41,8.91
		c-0.58,0.11-1,0.63-1,1.21v2.1c0,0.37,0.16,0.72,0.44,0.95c0.27,0.23,0.63,0.33,0.99,0.28c6.68-1.09,11.53-6.81,11.53-13.58
		c0-5.08,4.13-9.21,9.21-9.21c5.08,0,9.21,4.13,9.21,9.21c0,5.08-4.13,9.21-9.21,9.21c-1.25,0-2.28,1.02-2.28,2.28
		c0,1.25,1.02,2.28,2.28,2.28c7.59,0,13.77-6.18,13.77-13.77C56.24,25.01,50.06,18.84,42.47,18.84"/>
	<polygon class="st0" points="188.23,60.06 188.82,60.06 188.82,5 188.23,5 188.23,60.06 	"/>
	<path class="st3" d="M414.95,20.95h-11.74v-8.73h13.46V9.3h-17.03v27.1h17.22v-2.92h-13.64v-9.6h11.74V20.95L414.95,20.95z
		 M442.14,22.01c0-2.64-0.45-4.96-1.34-6.95c-0.89-1.99-2.17-3.51-3.82-4.56c-1.66-1.05-3.57-1.57-5.74-1.57
		c-2.13,0-4.03,0.53-5.69,1.59c-1.66,1.06-2.94,2.59-3.84,4.59c-0.91,2-1.36,4.3-1.36,6.91v1.95c0.02,2.56,0.49,4.81,1.4,6.75
		c0.91,1.94,2.19,3.44,3.84,4.49c1.65,1.05,3.54,1.57,5.68,1.57c2.18,0,4.1-0.52,5.73-1.56c1.64-1.04,2.9-2.55,3.8-4.53
		c0.89-1.98,1.34-4.3,1.34-6.95V22.01L442.14,22.01z M438.59,23.98c-0.04,3.14-0.69,5.55-1.95,7.23c-1.26,1.68-3.05,2.52-5.36,2.52
		c-2.3,0-4.1-0.89-5.41-2.67c-1.31-1.78-1.96-4.23-1.96-7.34v-1.99c0.04-3.05,0.7-5.44,2-7.16c1.3-1.72,3.07-2.58,5.33-2.58
		c2.32,0,4.13,0.86,5.42,2.58c1.29,1.72,1.93,4.18,1.93,7.4V23.98L438.59,23.98z M460.55,26.47c0.93,0.73,1.39,1.75,1.39,3.08
		c0,1.33-0.5,2.38-1.51,3.15c-1.01,0.77-2.45,1.15-4.34,1.15c-2.02,0-3.64-0.47-4.85-1.42c-1.21-0.95-1.81-2.24-1.81-3.88h-3.59
		c0,1.58,0.44,2.98,1.31,4.22c0.88,1.24,2.12,2.22,3.73,2.93c1.61,0.71,3.35,1.07,5.21,1.07c2.87,0,5.16-0.66,6.87-1.98
		c1.71-1.32,2.57-3.08,2.57-5.28c0-1.38-0.31-2.57-0.92-3.59c-0.61-1.02-1.56-1.91-2.83-2.67c-1.27-0.76-3.03-1.46-5.29-2.1
		c-2.25-0.63-3.85-1.33-4.78-2.1c-0.94-0.76-1.4-1.7-1.4-2.81c0-1.38,0.49-2.46,1.48-3.23c0.99-0.78,2.36-1.17,4.12-1.17
		c1.9,0,3.37,0.47,4.41,1.41c1.04,0.94,1.56,2.23,1.56,3.88h3.59c0-1.5-0.4-2.88-1.2-4.15c-0.8-1.27-1.93-2.26-3.39-2.98
		c-1.46-0.72-3.12-1.08-4.98-1.08c-2.73,0-4.95,0.7-6.65,2.09c-1.71,1.4-2.56,3.16-2.56,5.3c0,1.89,0.7,3.47,2.09,4.76
		c1.4,1.28,3.63,2.37,6.69,3.25C457.93,25.02,459.62,25.74,460.55,26.47L460.55,26.47z M486.46,27.8c-0.35,2.23-1.05,3.8-2.11,4.7
		c-1.06,0.9-2.58,1.35-4.57,1.35c-2.21,0-3.93-0.87-5.16-2.61c-1.23-1.74-1.84-4.08-1.84-7.02v-2.63c0-3.12,0.65-5.52,1.94-7.21
		c1.3-1.69,3.09-2.53,5.37-2.53c1.86,0,3.31,0.49,4.35,1.46c1.04,0.97,1.71,2.54,2.02,4.7h3.59c-0.29-2.84-1.3-5.07-3.03-6.67
		c-1.74-1.61-4.04-2.41-6.92-2.41c-2.17,0-4.08,0.51-5.73,1.54c-1.65,1.02-2.93,2.49-3.83,4.4c-0.9,1.91-1.35,4.13-1.35,6.64v2.61
		c0,3.85,0.96,6.92,2.89,9.21c1.93,2.3,4.49,3.44,7.7,3.44c2.95,0,5.32-0.78,7.1-2.34c1.78-1.56,2.84-3.77,3.17-6.64H486.46
		L486.46,27.8z"/>
	<path class="st2" d="M391.87,9.3h-3.67l-12.14,18.78v2.03h12.34v6.29h3.46v-6.29h3.76V27.3h-3.76V9.3L391.87,9.3z M388,14.75
		l0.41-0.74V27.3h-8.43L388,14.75L388,14.75z"/>
	<path class="st1" d="M298.42,27.8c-0.35,2.23-1.05,3.8-2.11,4.7c-1.06,0.9-2.58,1.35-4.57,1.35c-2.21,0-3.93-0.87-5.16-2.61
		c-1.23-1.74-1.84-4.08-1.84-7.02v-2.63c0-3.12,0.65-5.52,1.95-7.21c1.3-1.69,3.09-2.53,5.37-2.53c1.86,0,3.31,0.49,4.35,1.46
		s1.71,2.54,2.02,4.7h3.59c-0.29-2.84-1.3-5.07-3.03-6.67c-1.74-1.61-4.05-2.41-6.92-2.41c-2.17,0-4.08,0.51-5.73,1.54
		c-1.65,1.02-2.93,2.49-3.82,4.4c-0.9,1.91-1.35,4.13-1.35,6.64v2.61c0,3.85,0.96,6.92,2.89,9.21c1.93,2.3,4.49,3.44,7.7,3.44
		c2.95,0,5.32-0.78,7.1-2.34c1.78-1.56,2.84-3.77,3.17-6.64H298.42L298.42,27.8z M327.73,22.01c0-2.64-0.45-4.96-1.34-6.95
		c-0.89-1.99-2.17-3.51-3.82-4.56c-1.66-1.05-3.57-1.57-5.74-1.57c-2.13,0-4.03,0.53-5.69,1.59c-1.66,1.06-2.94,2.59-3.84,4.59
		c-0.91,2-1.36,4.3-1.36,6.91v1.95c0.02,2.56,0.49,4.81,1.4,6.75c0.91,1.94,2.19,3.44,3.84,4.49c1.65,1.05,3.54,1.57,5.68,1.57
		c2.18,0,4.09-0.52,5.73-1.56c1.64-1.04,2.9-2.55,3.8-4.53c0.89-1.98,1.34-4.3,1.34-6.95V22.01L327.73,22.01z M324.18,23.98
		c-0.04,3.14-0.69,5.55-1.96,7.23c-1.26,1.68-3.05,2.52-5.36,2.52c-2.3,0-4.1-0.89-5.41-2.67c-1.31-1.78-1.96-4.23-1.96-7.34v-1.99
		c0.04-3.05,0.7-5.44,2-7.16c1.3-1.72,3.07-2.58,5.33-2.58c2.32,0,4.13,0.86,5.42,2.58c1.29,1.72,1.94,4.18,1.94,7.4V23.98
		L324.18,23.98z M348.92,36.4h3.83v-0.22l-6.37-11.5c1.63-0.62,2.89-1.56,3.81-2.81c0.91-1.25,1.37-2.72,1.37-4.41
		c0-2.66-0.82-4.68-2.47-6.07c-1.65-1.39-3.99-2.08-7.05-2.08h-8.97v27.1h3.59V25.43h6.36L348.92,36.4L348.92,36.4z M336.67,12.22
		h5.47c1.89,0.01,3.33,0.47,4.33,1.36c1,0.9,1.5,2.18,1.5,3.86c0,1.54-0.52,2.77-1.57,3.69c-1.05,0.92-2.46,1.38-4.23,1.38h-5.49
		V12.22L336.67,12.22z M371.88,20.95h-11.74v-8.73h13.46V9.3h-17.03v27.1h17.22v-2.92h-13.64v-9.6h11.74V20.95L371.88,20.95z"/>
	<path class="st3" d="M220.42,21.51h-11.37v-9.29h13.21V9.3h-16.79v27.1h3.57V24.43h11.37V21.51L220.42,21.51z M240.93,36.4h3.67
		L234.23,9.3h-3.13l-10.35,27.1h3.68l2.55-7.09h11.35L240.93,36.4L240.93,36.4z M232.66,13.71l4.62,12.67h-9.21L232.66,13.71
		L232.66,13.71z M252.08,9.3h-3.57v27.1h3.57V9.3L252.08,9.3z M274.43,36.4h3.83v-0.22l-6.37-11.5c1.63-0.62,2.9-1.56,3.81-2.81
		c0.91-1.25,1.37-2.72,1.37-4.41c0-2.66-0.82-4.68-2.47-6.07c-1.64-1.39-3.99-2.08-7.05-2.08h-8.97v27.1h3.59V25.43h6.36
		L274.43,36.4L274.43,36.4z M262.18,12.22h5.47c1.89,0.01,3.33,0.47,4.33,1.36c1,0.9,1.5,2.18,1.5,3.86c0,1.54-0.52,2.77-1.57,3.69
		c-1.05,0.92-2.46,1.38-4.23,1.38h-5.49V12.22L262.18,12.22z"/>
	<path class="st4" d="M210.43,50.35c-0.11,0.68-0.32,1.15-0.64,1.43c-0.32,0.27-0.78,0.41-1.39,0.41c-0.67,0-1.19-0.26-1.56-0.79
		c-0.37-0.53-0.56-1.24-0.56-2.13v-0.8c0-0.95,0.2-1.68,0.59-2.19c0.39-0.51,0.94-0.77,1.63-0.77c0.57,0,1.01,0.15,1.32,0.44
		c0.32,0.29,0.52,0.77,0.61,1.43h1.09c-0.09-0.86-0.39-1.54-0.92-2.03c-0.53-0.49-1.23-0.73-2.1-0.73c-0.66,0-1.24,0.16-1.74,0.47
		c-0.5,0.31-0.89,0.76-1.16,1.34c-0.27,0.58-0.41,1.25-0.41,2.02v0.79c0,1.17,0.29,2.1,0.88,2.8c0.59,0.7,1.37,1.05,2.34,1.05
		c0.9,0,1.62-0.24,2.16-0.71c0.54-0.47,0.86-1.14,0.96-2.02H210.43L210.43,50.35z M212.56,49.92c0,0.95,0.26,1.71,0.77,2.29
		c0.52,0.58,1.19,0.86,2.02,0.86c0.55,0,1.04-0.13,1.46-0.4c0.42-0.26,0.75-0.63,0.98-1.11c0.23-0.47,0.34-1.01,0.34-1.6v-0.07
		c0-0.96-0.26-1.72-0.77-2.3c-0.51-0.58-1.19-0.86-2.02-0.86c-0.54,0-1.02,0.13-1.44,0.39c-0.42,0.26-0.75,0.63-0.98,1.11
		c-0.24,0.48-0.35,1.02-0.35,1.62V49.92L212.56,49.92z M214.09,48.2c0.32-0.41,0.73-0.62,1.25-0.62c0.53,0,0.95,0.21,1.27,0.62
		c0.32,0.42,0.48,0.96,0.48,1.63c0,0.75-0.16,1.33-0.47,1.75c-0.31,0.42-0.73,0.62-1.27,0.62c-0.53,0-0.95-0.21-1.26-0.62
		c-0.31-0.41-0.47-0.96-0.47-1.63C213.62,49.2,213.77,48.61,214.09,48.2L214.09,48.2z M222.4,46.81c-0.11-0.05-0.26-0.08-0.46-0.08
		c-0.63,0-1.11,0.27-1.46,0.82l-0.02-0.71h-1.02v6.12h1.04v-4.34c0.24-0.58,0.71-0.88,1.4-0.88c0.18,0,0.36,0.01,0.51,0.04V46.81
		L222.4,46.81z M228.1,51.89l-0.64-0.5c-0.19,0.25-0.42,0.45-0.67,0.6c-0.26,0.15-0.57,0.23-0.94,0.23c-0.52,0-0.95-0.19-1.29-0.56
		c-0.34-0.37-0.51-0.86-0.53-1.46h4.14v-0.44c0-0.98-0.22-1.73-0.66-2.25c-0.44-0.52-1.06-0.79-1.85-0.79
		c-0.49,0-0.94,0.13-1.35,0.4c-0.42,0.27-0.74,0.64-0.97,1.12c-0.23,0.48-0.35,1.02-0.35,1.63v0.19c0,0.91,0.26,1.64,0.78,2.18
		c0.52,0.54,1.19,0.82,2.02,0.82C226.82,53.07,227.58,52.68,228.1,51.89L228.1,51.89L228.1,51.89z M226.7,48.02
		c0.26,0.29,0.4,0.7,0.43,1.24v0.08h-3.06c0.07-0.55,0.24-0.98,0.53-1.29c0.29-0.31,0.64-0.46,1.06-0.46
		C226.1,47.59,226.44,47.73,226.7,48.02L226.7,48.02z M237.38,50.35c-0.11,0.68-0.32,1.15-0.64,1.43c-0.32,0.27-0.78,0.41-1.39,0.41
		c-0.67,0-1.19-0.26-1.57-0.79c-0.37-0.53-0.56-1.24-0.56-2.13v-0.8c0-0.95,0.2-1.68,0.59-2.19c0.39-0.51,0.94-0.77,1.63-0.77
		c0.56,0,1.01,0.15,1.32,0.44c0.31,0.29,0.52,0.77,0.61,1.43h1.09c-0.09-0.86-0.39-1.54-0.92-2.03c-0.53-0.49-1.23-0.73-2.1-0.73
		c-0.66,0-1.24,0.16-1.74,0.47c-0.5,0.31-0.89,0.76-1.16,1.34c-0.27,0.58-0.41,1.25-0.41,2.02v0.79c0,1.17,0.29,2.1,0.88,2.8
		c0.59,0.7,1.37,1.05,2.34,1.05c0.9,0,1.62-0.24,2.16-0.71c0.54-0.47,0.86-1.14,0.96-2.02H237.38L237.38,50.35z M239.51,49.92
		c0,0.95,0.26,1.71,0.77,2.29c0.51,0.58,1.19,0.86,2.01,0.86c0.55,0,1.04-0.13,1.46-0.4c0.42-0.26,0.75-0.63,0.98-1.11
		c0.23-0.47,0.34-1.01,0.34-1.6v-0.07c0-0.96-0.26-1.72-0.77-2.3c-0.51-0.58-1.19-0.86-2.02-0.86c-0.54,0-1.02,0.13-1.44,0.39
		c-0.42,0.26-0.75,0.63-0.98,1.11c-0.23,0.48-0.35,1.02-0.35,1.62V49.92L239.51,49.92z M241.04,48.2c0.32-0.41,0.73-0.62,1.25-0.62
		c0.53,0,0.95,0.21,1.27,0.62c0.32,0.42,0.48,0.96,0.48,1.63c0,0.75-0.16,1.33-0.47,1.75c-0.31,0.42-0.73,0.62-1.27,0.62
		c-0.53,0-0.95-0.21-1.26-0.62c-0.32-0.41-0.47-0.96-0.47-1.63C240.56,49.2,240.72,48.61,241.04,48.2L241.04,48.2z M246.38,46.84
		v6.12h1.05v-4.47c0.25-0.58,0.72-0.88,1.41-0.88c0.87,0,1.31,0.44,1.31,1.33v4.01h1.05V48.9c0.04-0.39,0.19-0.7,0.45-0.94
		c0.26-0.23,0.58-0.35,0.97-0.35c0.47,0,0.81,0.11,1.01,0.32c0.2,0.22,0.3,0.54,0.3,0.98v4.04h1.05v-4.1
		c-0.02-1.42-0.7-2.13-2.05-2.13c-0.45,0-0.83,0.09-1.16,0.27s-0.59,0.42-0.79,0.71c-0.31-0.66-0.89-0.98-1.75-0.98
		c-0.76,0-1.37,0.26-1.81,0.79l-0.03-0.68H246.38L246.38,46.84z M261.7,49.87c0-0.99-0.21-1.76-0.64-2.31
		c-0.43-0.55-1.01-0.83-1.74-0.83c-0.76,0-1.35,0.26-1.77,0.79l-0.05-0.68h-0.96v8.47h1.05v-2.94c0.43,0.47,1.01,0.71,1.75,0.71
		c0.73,0,1.3-0.28,1.73-0.85c0.42-0.57,0.64-1.32,0.64-2.25V49.87L261.7,49.87z M260.21,51.62c-0.3,0.4-0.69,0.6-1.2,0.6
		c-0.64,0-1.12-0.28-1.44-0.84v-2.92c0.32-0.56,0.79-0.84,1.42-0.84c0.51,0,0.92,0.2,1.21,0.6c0.29,0.4,0.44,0.94,0.44,1.63
		C260.66,50.63,260.51,51.22,260.21,51.62L260.21,51.62z M262.75,49.92c0,0.95,0.26,1.71,0.77,2.29c0.51,0.58,1.19,0.86,2.01,0.86
		c0.55,0,1.04-0.13,1.46-0.4c0.42-0.26,0.75-0.63,0.98-1.11c0.23-0.47,0.34-1.01,0.34-1.6v-0.07c0-0.96-0.26-1.72-0.77-2.3
		c-0.51-0.58-1.19-0.86-2.02-0.86c-0.54,0-1.02,0.13-1.44,0.39c-0.42,0.26-0.75,0.63-0.98,1.11c-0.24,0.48-0.35,1.02-0.35,1.62
		V49.92L262.75,49.92z M264.28,48.2c0.32-0.41,0.73-0.62,1.25-0.62c0.53,0,0.95,0.21,1.27,0.62c0.32,0.42,0.48,0.96,0.48,1.63
		c0,0.75-0.16,1.33-0.47,1.75c-0.31,0.42-0.73,0.62-1.27,0.62c-0.53,0-0.95-0.21-1.26-0.62c-0.32-0.41-0.47-0.96-0.47-1.63
		C263.8,49.2,263.96,48.61,264.28,48.2L264.28,48.2z M269.63,46.84v6.12h1.04V48.6c0.14-0.29,0.34-0.53,0.6-0.71
		c0.26-0.18,0.55-0.27,0.89-0.27c0.42,0,0.73,0.11,0.92,0.32c0.2,0.21,0.3,0.54,0.3,0.98v4.05h1.05v-4.04
		c-0.01-1.46-0.66-2.19-1.96-2.19c-0.75,0-1.36,0.29-1.83,0.88l-0.03-0.77H269.63L269.63,46.84z M280.86,51.89l-0.64-0.5
		c-0.19,0.25-0.42,0.45-0.67,0.6c-0.26,0.15-0.57,0.23-0.94,0.23c-0.52,0-0.95-0.19-1.29-0.56c-0.34-0.37-0.51-0.86-0.53-1.46h4.14
		v-0.44c0-0.98-0.22-1.73-0.66-2.25c-0.44-0.52-1.06-0.79-1.85-0.79c-0.49,0-0.94,0.13-1.35,0.4c-0.42,0.27-0.74,0.64-0.97,1.12
		c-0.23,0.48-0.35,1.02-0.35,1.63v0.19c0,0.91,0.26,1.64,0.78,2.18c0.52,0.54,1.2,0.82,2.02,0.82
		C279.58,53.07,280.35,52.68,280.86,51.89L280.86,51.89L280.86,51.89z M279.47,48.02c0.26,0.29,0.4,0.7,0.43,1.24v0.08h-3.06
		c0.07-0.55,0.24-0.98,0.53-1.29c0.29-0.31,0.64-0.46,1.06-0.46C278.86,47.59,279.21,47.73,279.47,48.02L279.47,48.02z
		 M282.15,46.84v6.12h1.05V48.6c0.14-0.29,0.34-0.53,0.6-0.71c0.26-0.18,0.55-0.27,0.89-0.27c0.42,0,0.73,0.11,0.92,0.32
		c0.2,0.21,0.3,0.54,0.3,0.98v4.05h1.04v-4.04c-0.01-1.46-0.66-2.19-1.96-2.19c-0.75,0-1.36,0.29-1.83,0.88l-0.03-0.77H282.15
		L282.15,46.84z M288.91,45.36v1.48h-1.11v0.81h1.11v3.79c0,0.52,0.12,0.92,0.36,1.2c0.24,0.28,0.59,0.42,1.06,0.42
		c0.26,0,0.53-0.04,0.8-0.11v-0.84c-0.21,0.05-0.38,0.07-0.5,0.07c-0.25,0-0.42-0.06-0.52-0.18c-0.1-0.12-0.15-0.31-0.15-0.55v-3.8
		h1.14v-0.81h-1.14v-1.48H288.91L288.91,45.36z M295.52,51.98c-0.24,0.16-0.56,0.24-0.95,0.24c-0.43,0-0.77-0.1-1.04-0.31
		c-0.26-0.21-0.4-0.48-0.42-0.83h-1.05c0,0.36,0.11,0.7,0.32,1.01c0.21,0.31,0.51,0.55,0.88,0.73c0.38,0.17,0.81,0.26,1.3,0.26
		c0.7,0,1.27-0.16,1.7-0.49c0.44-0.33,0.66-0.77,0.66-1.31c0-0.33-0.08-0.61-0.23-0.83c-0.16-0.23-0.4-0.42-0.72-0.58
		c-0.32-0.16-0.75-0.3-1.27-0.42c-0.52-0.12-0.88-0.24-1.08-0.37c-0.2-0.13-0.3-0.32-0.3-0.57c0-0.27,0.11-0.48,0.32-0.65
		c0.21-0.17,0.51-0.25,0.89-0.25c0.37,0,0.67,0.1,0.92,0.31c0.24,0.21,0.36,0.45,0.36,0.74h1.05c0-0.56-0.22-1.02-0.65-1.37
		c-0.43-0.36-0.99-0.54-1.69-0.54c-0.66,0-1.2,0.17-1.63,0.52c-0.42,0.35-0.64,0.77-0.64,1.27c0,0.3,0.07,0.56,0.22,0.78
		c0.15,0.22,0.38,0.41,0.69,0.57c0.31,0.16,0.73,0.29,1.26,0.41c0.53,0.11,0.9,0.25,1.11,0.4c0.21,0.16,0.32,0.38,0.32,0.66
		C295.88,51.6,295.76,51.82,295.52,51.98L295.52,51.98z M305.28,49.94c0.28,0.22,0.42,0.53,0.42,0.94c0,0.4-0.15,0.72-0.46,0.96
		c-0.31,0.23-0.74,0.35-1.32,0.35c-0.61,0-1.1-0.14-1.47-0.43c-0.37-0.29-0.55-0.68-0.55-1.18h-1.09c0,0.48,0.13,0.91,0.4,1.28
		c0.27,0.38,0.64,0.67,1.13,0.89c0.49,0.22,1.02,0.33,1.58,0.33c0.87,0,1.57-0.2,2.09-0.6c0.52-0.4,0.78-0.94,0.78-1.6
		c0-0.42-0.09-0.78-0.28-1.09c-0.19-0.31-0.47-0.58-0.86-0.81c-0.39-0.23-0.92-0.44-1.61-0.64c-0.68-0.19-1.17-0.4-1.45-0.64
		c-0.29-0.23-0.43-0.52-0.43-0.85c0-0.42,0.15-0.75,0.45-0.98c0.3-0.24,0.72-0.35,1.25-0.35c0.58,0,1.02,0.14,1.34,0.43
		c0.32,0.29,0.48,0.68,0.48,1.18h1.09c0-0.46-0.12-0.88-0.36-1.26c-0.24-0.38-0.59-0.69-1.03-0.9c-0.44-0.22-0.95-0.33-1.51-0.33
		c-0.83,0-1.5,0.21-2.02,0.64c-0.52,0.42-0.78,0.96-0.78,1.61c0,0.57,0.21,1.05,0.64,1.44c0.42,0.39,1.1,0.72,2.03,0.99
		C304.49,49.5,305,49.72,305.28,49.94L305.28,49.94z M311.82,52.96h1v-6.12h-1.05v4.45c-0.26,0.6-0.8,0.89-1.59,0.89
		c-0.75,0-1.13-0.46-1.13-1.39v-3.95H308v3.98c0,0.74,0.18,1.3,0.52,1.68c0.34,0.38,0.84,0.57,1.49,0.57c0.79,0,1.38-0.24,1.79-0.72
		L311.82,52.96L311.82,52.96z M319.57,49.87c0-0.99-0.21-1.76-0.64-2.31c-0.43-0.55-1.01-0.83-1.74-0.83
		c-0.76,0-1.35,0.26-1.77,0.79l-0.05-0.68h-0.96v8.47h1.05v-2.94c0.42,0.47,1.01,0.71,1.75,0.71c0.73,0,1.3-0.28,1.73-0.85
		c0.43-0.57,0.64-1.32,0.64-2.25V49.87L319.57,49.87z M318.08,51.62c-0.3,0.4-0.69,0.6-1.2,0.6c-0.64,0-1.12-0.28-1.43-0.84v-2.92
		c0.32-0.56,0.79-0.84,1.42-0.84c0.51,0,0.92,0.2,1.21,0.6c0.29,0.4,0.44,0.94,0.44,1.63C318.53,50.63,318.38,51.22,318.08,51.62
		L318.08,51.62z M326.07,49.87c0-0.99-0.21-1.76-0.64-2.31c-0.43-0.55-1.01-0.83-1.74-0.83c-0.76,0-1.35,0.26-1.78,0.79l-0.05-0.68
		h-0.95v8.47h1.04v-2.94c0.43,0.47,1.01,0.71,1.75,0.71c0.73,0,1.3-0.28,1.73-0.85c0.43-0.57,0.64-1.32,0.64-2.25V49.87
		L326.07,49.87z M324.58,51.62c-0.3,0.4-0.7,0.6-1.2,0.6c-0.64,0-1.12-0.28-1.44-0.84v-2.92c0.32-0.56,0.79-0.84,1.42-0.84
		c0.51,0,0.92,0.2,1.21,0.6c0.29,0.4,0.44,0.94,0.44,1.63C325.02,50.63,324.87,51.22,324.58,51.62L324.58,51.62z M327.12,49.92
		c0,0.95,0.26,1.71,0.77,2.29c0.51,0.58,1.19,0.86,2.02,0.86c0.55,0,1.04-0.13,1.46-0.4c0.42-0.26,0.75-0.63,0.98-1.11
		c0.23-0.47,0.34-1.01,0.34-1.6v-0.07c0-0.96-0.26-1.72-0.77-2.3c-0.51-0.58-1.19-0.86-2.02-0.86c-0.54,0-1.02,0.13-1.44,0.39
		c-0.42,0.26-0.75,0.63-0.98,1.11c-0.24,0.48-0.35,1.02-0.35,1.62V49.92L327.12,49.92z M328.64,48.2c0.32-0.41,0.73-0.62,1.25-0.62
		c0.53,0,0.95,0.21,1.27,0.62c0.32,0.42,0.48,0.96,0.48,1.63c0,0.75-0.16,1.33-0.47,1.75c-0.31,0.42-0.74,0.62-1.27,0.62
		c-0.53,0-0.95-0.21-1.26-0.62c-0.32-0.41-0.47-0.96-0.47-1.63C328.17,49.2,328.33,48.61,328.64,48.2L328.64,48.2z M336.95,46.81
		c-0.11-0.05-0.26-0.08-0.46-0.08c-0.63,0-1.11,0.27-1.46,0.82l-0.02-0.71H334v6.12h1.05v-4.34c0.25-0.58,0.71-0.88,1.4-0.88
		c0.19,0,0.36,0.01,0.52,0.04V46.81L336.95,46.81z M338.57,45.36v1.48h-1.11v0.81h1.11v3.79c0,0.52,0.12,0.92,0.36,1.2
		c0.24,0.28,0.59,0.42,1.06,0.42c0.26,0,0.53-0.04,0.8-0.11v-0.84c-0.21,0.05-0.38,0.07-0.5,0.07c-0.25,0-0.42-0.06-0.52-0.18
		c-0.1-0.12-0.15-0.31-0.15-0.55v-3.8h1.14v-0.81h-1.14v-1.48H338.57L338.57,45.36z M343.11,46.84h-1.05v6.12h1.05V46.84
		L343.11,46.84z M342.14,45.64c0.1,0.11,0.26,0.17,0.46,0.17c0.2,0,0.36-0.06,0.46-0.17c0.1-0.11,0.16-0.25,0.16-0.42
		c0-0.17-0.05-0.31-0.16-0.43c-0.11-0.12-0.26-0.18-0.46-0.18c-0.2,0-0.36,0.06-0.46,0.18c-0.1,0.12-0.16,0.26-0.16,0.43
		C341.98,45.39,342.03,45.53,342.14,45.64L342.14,45.64z M344.79,46.84v6.12h1.05V48.6c0.14-0.29,0.34-0.53,0.6-0.71
		c0.26-0.18,0.55-0.27,0.89-0.27c0.42,0,0.73,0.11,0.92,0.32c0.2,0.21,0.3,0.54,0.3,0.98v4.05h1.05v-4.04
		c-0.01-1.46-0.66-2.19-1.96-2.19c-0.75,0-1.36,0.29-1.83,0.88l-0.03-0.77H344.79L344.79,46.84z M351.59,52.2
		c0.44,0.58,1.02,0.86,1.74,0.86c0.72,0,1.29-0.24,1.71-0.72v0.53c0,0.52-0.14,0.92-0.43,1.21c-0.29,0.29-0.68,0.43-1.19,0.43
		c-0.65,0-1.2-0.28-1.64-0.83l-0.54,0.63c0.22,0.33,0.54,0.59,0.97,0.77c0.42,0.19,0.85,0.28,1.29,0.28c0.79,0,1.42-0.23,1.89-0.68
		c0.47-0.46,0.7-1.08,0.7-1.87v-5.97h-0.96l-0.05,0.68c-0.42-0.53-1-0.79-1.75-0.79c-0.73,0-1.31,0.28-1.75,0.84
		c-0.44,0.56-0.66,1.32-0.66,2.28C350.92,50.84,351.15,51.63,351.59,52.2L351.59,52.2z M352.41,48.21c0.29-0.4,0.68-0.59,1.19-0.59
		c0.64,0,1.12,0.29,1.44,0.88v2.79c-0.31,0.6-0.79,0.9-1.45,0.9c-0.51,0-0.91-0.2-1.19-0.59c-0.28-0.39-0.42-0.94-0.42-1.63
		C351.98,49.19,352.12,48.6,352.41,48.21L352.41,48.21z M365.41,52.96v-0.09c-0.14-0.33-0.21-0.78-0.21-1.34v-2.81
		c-0.02-0.62-0.22-1.1-0.62-1.46c-0.4-0.35-0.95-0.53-1.66-0.53c-0.44,0-0.85,0.08-1.22,0.25c-0.37,0.17-0.67,0.39-0.88,0.68
		c-0.22,0.28-0.33,0.58-0.33,0.88h1.05c0-0.27,0.13-0.5,0.38-0.68c0.25-0.19,0.57-0.28,0.94-0.28c0.43,0,0.75,0.11,0.97,0.32
		c0.22,0.22,0.33,0.51,0.33,0.87v0.48h-1.02c-0.88,0-1.56,0.18-2.04,0.53c-0.48,0.35-0.73,0.85-0.73,1.48c0,0.52,0.19,0.96,0.58,1.3
		c0.39,0.34,0.88,0.51,1.48,0.51c0.67,0,1.25-0.25,1.74-0.76c0.04,0.31,0.09,0.52,0.15,0.64H365.41L365.41,52.96z M361.73,51.88
		c-0.22-0.18-0.33-0.44-0.33-0.77c0-0.75,0.64-1.12,1.92-1.12h0.82v1.25c-0.13,0.27-0.35,0.49-0.64,0.66
		c-0.29,0.17-0.61,0.25-0.93,0.25C362.23,52.16,361.95,52.07,361.73,51.88L361.73,51.88z M374.4,48.43h-3.45v-2.82h4.01v-0.89h-5.1
		v8.23h1.08v-3.63h3.45V48.43L374.4,48.43z M380.63,52.96h1.11l-3.15-8.23h-0.95l-3.14,8.23h1.12l0.77-2.15h3.45L380.63,52.96
		L380.63,52.96z M378.12,46.07l1.4,3.85h-2.8L378.12,46.07L378.12,46.07z M384.01,44.73h-1.09v8.23h1.09V44.73L384.01,44.73z
		 M390.8,52.96h1.16v-0.07l-1.93-3.49c0.49-0.19,0.88-0.47,1.16-0.85c0.28-0.38,0.42-0.83,0.42-1.34c0-0.81-0.25-1.42-0.75-1.84
		c-0.5-0.42-1.21-0.63-2.14-0.63h-2.73v8.23h1.09v-3.33h1.93L390.8,52.96L390.8,52.96z M387.08,45.61h1.66
		c0.57,0,1.01,0.14,1.31,0.41c0.3,0.27,0.45,0.66,0.45,1.17c0,0.47-0.16,0.84-0.48,1.12c-0.32,0.28-0.75,0.42-1.29,0.42h-1.67V45.61
		L387.08,45.61z M400.64,48.26h-3.57v-2.65h4.09v-0.89h-5.17v8.23h5.23v-0.89h-4.14v-2.92h3.57V48.26L400.64,48.26z M408.9,48.59
		c0-0.8-0.14-1.51-0.41-2.11c-0.27-0.6-0.66-1.07-1.16-1.38c-0.5-0.32-1.08-0.48-1.74-0.48c-0.65,0-1.22,0.16-1.73,0.48
		c-0.5,0.32-0.89,0.79-1.17,1.39s-0.41,1.31-0.41,2.1v0.59c0.01,0.78,0.15,1.46,0.43,2.05c0.28,0.59,0.67,1.04,1.17,1.36
		c0.5,0.32,1.08,0.48,1.72,0.48c0.66,0,1.24-0.16,1.74-0.47c0.5-0.32,0.88-0.78,1.15-1.38c0.27-0.6,0.41-1.3,0.41-2.11V48.59
		L408.9,48.59z M407.82,49.19c-0.01,0.95-0.21,1.69-0.59,2.2c-0.39,0.51-0.93,0.77-1.63,0.77c-0.7,0-1.24-0.27-1.64-0.81
		c-0.4-0.54-0.6-1.28-0.6-2.23v-0.6c0.01-0.93,0.21-1.65,0.61-2.17c0.39-0.52,0.93-0.78,1.62-0.78c0.7,0,1.25,0.26,1.64,0.78
		c0.39,0.52,0.59,1.27,0.59,2.25V49.19L407.82,49.19z M414.49,49.94c0.28,0.22,0.42,0.53,0.42,0.94c0,0.4-0.15,0.72-0.46,0.96
		c-0.3,0.23-0.74,0.35-1.32,0.35c-0.61,0-1.11-0.14-1.47-0.43c-0.37-0.29-0.55-0.68-0.55-1.18h-1.09c0,0.48,0.13,0.91,0.4,1.28
		c0.27,0.38,0.64,0.67,1.13,0.89c0.49,0.22,1.02,0.33,1.58,0.33c0.87,0,1.57-0.2,2.09-0.6c0.52-0.4,0.78-0.94,0.78-1.6
		c0-0.42-0.09-0.78-0.28-1.09c-0.19-0.31-0.47-0.58-0.86-0.81c-0.39-0.23-0.92-0.44-1.61-0.64c-0.68-0.19-1.17-0.4-1.45-0.64
		c-0.29-0.23-0.43-0.52-0.43-0.85c0-0.42,0.15-0.75,0.45-0.98c0.3-0.24,0.72-0.35,1.25-0.35c0.58,0,1.02,0.14,1.34,0.43
		c0.32,0.29,0.48,0.68,0.48,1.18h1.09c0-0.46-0.12-0.88-0.37-1.26c-0.24-0.38-0.59-0.69-1.03-0.9c-0.44-0.22-0.95-0.33-1.51-0.33
		c-0.83,0-1.5,0.21-2.02,0.64c-0.52,0.42-0.78,0.96-0.78,1.61c0,0.57,0.21,1.05,0.63,1.44c0.42,0.39,1.1,0.72,2.03,0.99
		C413.7,49.5,414.21,49.72,414.49,49.94L414.49,49.94z M422.36,50.35c-0.11,0.68-0.32,1.15-0.64,1.43
		c-0.32,0.27-0.79,0.41-1.39,0.41c-0.67,0-1.19-0.26-1.57-0.79c-0.37-0.53-0.56-1.24-0.56-2.13v-0.8c0-0.95,0.2-1.68,0.59-2.19
		c0.39-0.51,0.94-0.77,1.63-0.77c0.56,0,1.01,0.15,1.32,0.44c0.32,0.29,0.52,0.77,0.61,1.43h1.09c-0.09-0.86-0.39-1.54-0.92-2.03
		c-0.53-0.49-1.23-0.73-2.1-0.73c-0.66,0-1.24,0.16-1.74,0.47c-0.5,0.31-0.89,0.76-1.16,1.34c-0.27,0.58-0.41,1.25-0.41,2.02v0.79
		c0,1.17,0.29,2.1,0.88,2.8c0.59,0.7,1.36,1.05,2.34,1.05c0.9,0,1.62-0.24,2.16-0.71c0.54-0.47,0.86-1.14,0.96-2.02H422.36
		L422.36,50.35z"/>
</g>
</svg>
