<?xml version="1.0" encoding="UTF-8" standalone="no"?>
<!-- Generator: Adobe Illustrator 26.1.0, SVG Export Plug-In . SVG Version: 6.00 Build 0)  -->

<svg
   version="1.1"
   id="Logos"
   x="0px"
   y="0px"
   viewBox="0 0 999.99997 949.99998"
   xml:space="preserve"
   sodipodi:docname="FAU_Kernmarke_H_RGB_blue.svg"
   width="1000"
   height="950"
   inkscape:version="1.3.2 (091e20e, 2023-11-25)"
   xmlns:inkscape="http://www.inkscape.org/namespaces/inkscape"
   xmlns:sodipodi="http://sodipodi.sourceforge.net/DTD/sodipodi-0.dtd"
   xmlns="http://www.w3.org/2000/svg"
   xmlns:svg="http://www.w3.org/2000/svg"><defs
   id="defs49" /><sodipodi:namedview
   id="namedview49"
   pagecolor="#ffffff"
   bordercolor="#000000"
   borderopacity="0.25"
   inkscape:showpageshadow="2"
   inkscape:pageopacity="0.0"
   inkscape:pagecheckerboard="0"
   inkscape:deskcolor="#d1d1d1"
   inkscape:zoom="0.4257928"
   inkscape:cx="331.14698"
   inkscape:cy="428.61222"
   inkscape:window-width="1496"
   inkscape:window-height="666"
   inkscape:window-x="0"
   inkscape:window-y="38"
   inkscape:window-maximized="0"
   inkscape:current-layer="Logos" />
<path
   id="FAU_x5F_Logo_00000116957573279180387480000014782723776190545539_"
   style="fill:#04316a"
   d="m 123.87192,270.96773 9.744,-9.744 v 176.95 h -9.744 z m 29.231,-8.181 h 116.925 v -9.744 h -126.669 v 116.924 h 107.623 v -9.743 h -97.879 z m 112.55,77.95 h -93.062 v -38.975 h 79.588 l 9.743,-9.744 h -89.331 v -9.744 h 97.438 v -9.744 h -107.182 v 77.95 h 93.19 z m -122.294,97.437 h 9.744 v -48.719 h 9.744 v 40.538 l 9.743,-9.743 v -30.795 h 78.392 v -9.743 h -107.623 z m 474.393,-185.131 v 112.054 c 0,26.074 -11.634,48.475 -38.779,65.656 l -0.22,-0.287 c 17.837,-14.146 29.256,-32.316 29.256,-55.789 v -121.634 h -9.744 v 121.472 c 0,34.979 -28.355,61.223 -63.334,61.223 -34.979,0 -63.334,-26.245 -63.334,-61.223 v -113.291 l -9.744,9.744 v 103.71 c 0,40.36 32.718,70.642 73.078,70.642 0.934,0 9.743,0 9.743,0 39.743,0 82.822,-29.35 82.822,-80.08 0,-0.048 0,-112.196 0,-112.196 h -9.744 z m -82.822,172.951 c 29.58,0 53.562,-21.907 53.59,-51.479 h 0.001 v -113.291 l -9.744,9.744 v 94.128 c 0,18.834 -15.269,31.667 -34.104,31.667 -18.834,0 -34.103,-12.833 -34.103,-31.667 l -0.001,-112.053 h -9.743 v 112.053 c 0,24.216 19.631,41.411 43.847,41.411 9.902,0 21.922,-4.892 30.086,-13.503 l 0.219,0.287 c -7.654,14.195 -21.804,22.96 -40.048,22.96 -24.067,0 -43.603,-17.424 -43.841,-41.411 h -0.006 v -121.797 h -9.744 v 121.796 h 0.005 c 0.203,29.408 24.115,51.155 53.586,51.155 z m -216.519,-46.282 -24.64,58.462 9.746,-10e-4 -0.002,10e-4 h 0.002 l 12.318,-29.231 h 82.554 l 12.309,29.231 h 9.743 l -16.41,-38.975 h -84.089 l 4.106,-9.744 h 85.623 l 20.514,48.719 h 9.744 l -24.616,-58.462 z m 14.337,-126.669 -71.61,169.858 6.202,8.42 75.152,-178.278 z m 38.974,0 75.059,178.278 6.187,-8.42 -71.501,-169.858 z m -58.968,116.925 -28.818,68.206 h -9.744 l 73.172,-173.561 40.258,95.612 h 9.743 l -45.13,-107.182 h 9.744 l 49.232,116.924 h -98.457 z m 44.378,-59.014 -20.765,49.27 h 41.51 z m -40.277,49.27 h 9.769 l 25.638,-60.836 -4.879,-11.587 z" />
<g
   id="g49"
   transform="translate(75.153924,204.32473)">
	<g
   id="g48">
		<path
   style="fill:#04316a"
   d="M 73.025,288.792 H 55.593 v 9.624 h 13.033 v 6.269 H 55.593 v 16.498 h -6.874 v -38.715 h 24.307 v 6.324 z"
   id="path1" />
		<path
   style="fill:#04316a"
   d="m 93.701,293.082 -1.045,6.708 c -0.99,-0.549 -2.199,-0.88 -3.629,-0.88 -4.51,0 -5.72,3.629 -5.72,7.919 v 14.353 h -6.544 v -27.991 h 6.434 v 3.52 h 0.11 c 1.484,-2.64 4.124,-4.234 7.314,-4.234 0.936,0 2.09,0.165 3.08,0.605 z"
   id="path2" />
		<path
   style="fill:#04316a"
   d="m 106.653,284.723 c 0,2.31 -1.87,3.96 -4.18,3.96 -2.255,0 -4.124,-1.65 -4.124,-3.96 0,-2.255 1.869,-3.96 4.124,-3.96 2.31,0 4.18,1.705 4.18,3.96 z m -0.879,36.46 H 99.23 v -27.991 h 6.544 z"
   id="path3" />
		<path
   style="fill:#04316a"
   d="m 126.524,321.843 c -8.304,0 -13.857,-5.884 -13.857,-14.738 0,-8.688 5.334,-14.628 13.143,-14.628 7.534,0 12.429,5.609 12.429,14.243 0,0.935 -0.055,1.925 -0.11,2.694 H 119.32 c 0.715,4.345 3.299,6.819 7.259,6.819 2.584,0 4.674,-0.99 6.874,-3.3 l 4.069,4.29 c -3.189,3.135 -6.764,4.62 -10.998,4.62 z M 119.21,304.63 h 12.703 c -0.274,-4.289 -2.529,-6.764 -6.214,-6.764 -3.63,0 -5.939,2.419 -6.489,6.764 z"
   id="path4" />
		<path
   style="fill:#04316a"
   d="m 143.927,307.104 c 0,-9.018 4.564,-14.628 11.384,-14.628 3.52,0 6.27,1.485 8.139,3.794 h 0.11 v -14.353 l 6.544,-1.65 v 40.915 h -6.379 v -3.3 h -0.11 c -2.034,2.476 -4.949,3.96 -8.414,3.96 -6.654,0.001 -11.274,-5.664 -11.274,-14.738 z m 6.489,0 c 0,5.719 2.365,8.964 6.489,8.964 2.53,0 4.619,-1.21 6.654,-3.685 v -10.228 c -1.87,-2.53 -4.015,-3.739 -6.654,-3.739 -4.234,0 -6.489,3.079 -6.489,8.688 z"
   id="path5" />
		<path
   style="fill:#04316a"
   d="m 195.564,293.082 -1.045,6.708 c -0.989,-0.549 -2.199,-0.88 -3.63,-0.88 -4.509,0 -5.719,3.629 -5.719,7.919 v 14.353 h -6.544 v -27.991 h 6.434 v 3.52 h 0.11 c 1.484,-2.64 4.124,-4.234 7.314,-4.234 0.935,0 2.089,0.165 3.08,0.605 z"
   id="path6" />
		<path
   style="fill:#04316a"
   d="m 208.517,284.723 c 0,2.31 -1.87,3.96 -4.18,3.96 -2.255,0 -4.124,-1.65 -4.124,-3.96 0,-2.255 1.869,-3.96 4.124,-3.96 2.31,0 4.18,1.705 4.18,3.96 z m -0.88,36.46 h -6.544 v -27.991 h 6.544 z"
   id="path7" />
		<path
   style="fill:#04316a"
   d="m 238.082,317.333 c -2.805,3.08 -5.994,4.51 -10.009,4.51 -8.029,0 -13.418,-5.774 -13.418,-14.573 0,-8.799 5.444,-14.793 13.528,-14.793 4.179,0 7.644,1.649 10.064,4.784 l -4.51,4.289 c -1.649,-2.145 -3.409,-3.079 -5.609,-3.079 -4.124,0 -6.929,3.41 -6.929,8.689 0,5.224 2.805,8.744 6.874,8.744 2.199,0 3.959,-0.99 5.774,-3.08 z"
   id="path8" />
		<path
   style="fill:#04316a"
   d="m 267.945,321.183 h -6.544 V 305.18 c 0,-4.124 -1.265,-6.819 -5.17,-6.819 -4.509,0 -5.829,3.574 -5.829,6.764 v 16.058 h -6.544 v -39.265 l 6.544,-1.65 v 16.278 h 0.11 c 1.595,-2.475 4.51,-4.069 8.194,-4.069 6.488,0 9.238,4.84 9.238,11.328 v 17.378 z"
   id="path9" />
		<path
   style="fill:#04316a"
   d="m 289.204,307.104 h -13.748 v -6.214 h 13.748 z"
   id="path10" />
		<path
   style="fill:#04316a"
   d="m 306.98,282.468 h 7.259 l 14.408,38.715 h -7.534 l -2.805,-8.249 H 302.69 l -2.805,8.249 h -7.314 z m -2.145,24.306 h 11.328 l -5.609,-16.442 h -0.11 z"
   id="path11" />
		<path
   style="fill:#04316a"
   d="m 340.932,321.183 h -6.544 v -39.375 l 6.544,-1.484 z"
   id="path12" />
		<path
   style="fill:#04316a"
   d="m 361.885,321.843 c -8.304,0 -13.857,-5.884 -13.857,-14.738 0,-8.688 5.334,-14.628 13.143,-14.628 7.534,0 12.429,5.609 12.429,14.243 0,0.935 -0.055,1.925 -0.11,2.694 h -18.807 c 0.715,4.345 3.299,6.819 7.259,6.819 2.584,0 4.674,-0.99 6.874,-3.3 l 4.069,4.29 c -3.191,3.135 -6.766,4.62 -11,4.62 z m -7.314,-17.213 h 12.703 c -0.274,-4.289 -2.529,-6.764 -6.214,-6.764 -3.629,0 -5.939,2.419 -6.489,6.764 z"
   id="path13" />
		<path
   style="fill:#04316a"
   d="m 403.854,321.183 h -7.48 l -5.994,-9.679 h -0.109 l -5.83,9.679 h -7.368 l 9.568,-14.518 -8.854,-13.473 h 7.369 l 5.279,8.579 h 0.109 l 5.225,-8.579 h 7.259 l -8.799,13.363 z"
   id="path14" />
		<path
   style="fill:#04316a"
   d="m 419.32,303.805 c 1.815,0 3.465,0.11 5.279,0.605 v -0.99 c 0,-3.574 -2.09,-5.444 -6.159,-5.444 -2.255,0 -4.784,0.55 -7.094,1.595 l -1.43,-5.499 c 2.584,-0.989 5.994,-1.595 9.184,-1.595 7.864,0 11.934,3.685 11.934,10.833 v 17.873 h -6.215 v -2.97 h -0.109 c -2.42,2.475 -4.949,3.63 -8.194,3.63 -5.609,0 -9.238,-3.465 -9.238,-8.909 -0.001,-5.939 4.234,-9.129 12.042,-9.129 z m -1.099,13.143 c 2.364,0 4.564,-1.155 6.379,-3.355 v -4.895 c -1.54,-0.385 -3.135,-0.55 -4.564,-0.55 -4.124,0 -6.489,1.65 -6.489,4.619 -0.001,2.586 1.814,4.181 4.674,4.181 z"
   id="path15" />
		<path
   style="fill:#04316a"
   d="m 463.418,321.183 h -6.545 V 305.18 c 0,-4.069 -1.209,-6.819 -5.169,-6.819 -4.564,0 -5.829,3.739 -5.829,6.764 v 16.058 h -6.544 v -27.991 h 6.489 v 3.354 h 0.109 c 1.65,-2.475 4.62,-4.069 8.249,-4.069 6.379,0 9.239,4.674 9.239,11.328 v 17.378 z"
   id="path16" />
		<path
   style="fill:#04316a"
   d="m 470.34,307.104 c 0,-9.018 4.564,-14.628 11.384,-14.628 3.52,0 6.27,1.485 8.139,3.794 h 0.11 v -14.353 l 6.544,-1.65 v 40.915 h -6.379 v -3.3 h -0.11 c -2.034,2.476 -4.949,3.96 -8.414,3.96 -6.654,0.001 -11.274,-5.664 -11.274,-14.738 z m 6.489,0 c 0,5.719 2.365,8.964 6.489,8.964 2.529,0 4.619,-1.21 6.654,-3.685 v -10.228 c -1.87,-2.53 -4.015,-3.739 -6.654,-3.739 -4.234,0 -6.489,3.079 -6.489,8.688 z"
   id="path17" />
		<path
   style="fill:#04316a"
   d="m 517.478,321.843 c -8.304,0 -13.857,-5.884 -13.857,-14.738 0,-8.688 5.334,-14.628 13.142,-14.628 7.534,0 12.429,5.609 12.429,14.243 0,0.935 -0.055,1.925 -0.11,2.694 h -18.808 c 0.716,4.345 3.3,6.819 7.26,6.819 2.584,0 4.674,-0.99 6.874,-3.3 l 4.069,4.29 c -3.19,3.135 -6.764,4.62 -10.999,4.62 z m -7.314,-17.213 h 12.703 c -0.275,-4.289 -2.529,-6.764 -6.214,-6.764 -3.63,0 -5.939,2.419 -6.489,6.764 z"
   id="path18" />
		<path
   style="fill:#04316a"
   d="m 553.276,293.082 -1.045,6.708 c -0.989,-0.549 -2.199,-0.88 -3.63,-0.88 -4.509,0 -5.719,3.629 -5.719,7.919 v 14.353 h -6.544 v -27.991 h 6.434 v 3.52 h 0.11 c 1.484,-2.64 4.124,-4.234 7.315,-4.234 0.935,0 2.089,0.165 3.079,0.605 z"
   id="path19" />
		<path
   style="fill:#04316a"
   d="m 571.096,307.104 h -13.748 v -6.214 h 13.748 z"
   id="path20" />
		<path
   style="fill:#04316a"
   d="m 609.691,305.84 c 0,9.349 -4.784,16.003 -15.178,16.003 -10.339,0 -15.068,-6.6 -15.068,-16.003 v -23.372 h 7.039 v 22.987 c 0,5.83 2.53,9.789 8.249,9.789 5.72,0 7.975,-3.904 7.975,-9.789 v -22.987 h 6.983 z"
   id="path21" />
		<path
   style="fill:#04316a"
   d="m 642.468,321.183 h -6.544 V 305.18 c 0,-4.069 -1.21,-6.819 -5.17,-6.819 -4.564,0 -5.829,3.739 -5.829,6.764 v 16.058 h -6.544 v -27.991 h 6.489 v 3.354 h 0.109 c 1.65,-2.475 4.62,-4.069 8.249,-4.069 6.379,0 9.239,4.674 9.239,11.328 v 17.378 z"
   id="path22" />
		<path
   style="fill:#04316a"
   d="m 658.145,284.723 c 0,2.31 -1.87,3.96 -4.18,3.96 -2.255,0 -4.124,-1.65 -4.124,-3.96 0,-2.255 1.869,-3.96 4.124,-3.96 2.309,0 4.18,1.705 4.18,3.96 z m -0.88,36.46 h -6.544 v -27.991 h 6.544 z"
   id="path23" />
		<path
   style="fill:#04316a"
   d="m 689.982,293.191 -10.174,27.991 h -6.819 l -10.173,-27.991 h 7.204 l 6.434,20.347 h 0.11 l 6.434,-20.347 z"
   id="path24" />
		<path
   style="fill:#04316a"
   d="m 706.885,321.843 c -8.304,0 -13.857,-5.884 -13.857,-14.738 0,-8.688 5.334,-14.628 13.143,-14.628 7.534,0 12.429,5.609 12.429,14.243 0,0.935 -0.055,1.925 -0.11,2.694 h -18.807 c 0.715,4.345 3.299,6.819 7.259,6.819 2.584,0 4.674,-0.99 6.874,-3.3 l 4.069,4.29 c -3.191,3.135 -6.766,4.62 -11,4.62 z m -7.314,-17.213 h 12.703 c -0.274,-4.289 -2.529,-6.764 -6.214,-6.764 -3.629,0 -5.939,2.419 -6.489,6.764 z"
   id="path25" />
		<path
   style="fill:#04316a"
   d="m 742.684,293.082 -1.045,6.708 c -0.99,-0.549 -2.199,-0.88 -3.629,-0.88 -4.51,0 -5.72,3.629 -5.72,7.919 v 14.353 h -6.544 v -27.991 h 6.434 v 3.52 h 0.11 c 1.484,-2.64 4.124,-4.234 7.314,-4.234 0.935,0 2.089,0.165 3.08,0.605 z"
   id="path26" />
		<path
   style="fill:#04316a"
   d="m 748.872,313.264 c 2.75,2.09 5.444,3.135 7.919,3.135 2.42,0 4.124,-1.1 4.124,-2.805 0,-4.785 -14.022,-3.08 -14.022,-12.429 0,-5.169 4.289,-8.689 10.559,-8.689 3.354,0 6.709,0.99 9.679,2.915 l -3.08,5.114 c -2.419,-1.65 -4.564,-2.474 -6.709,-2.474 -2.42,0 -4.015,1.044 -4.015,2.584 0,4.564 13.969,2.97 13.969,12.374 0,5.279 -4.345,8.854 -10.779,8.854 -3.739,0 -7.533,-1.155 -10.778,-3.409 z"
   id="path27" />
		<path
   style="fill:#04316a"
   d="m 781.717,284.723 c 0,2.31 -1.87,3.96 -4.18,3.96 -2.255,0 -4.124,-1.65 -4.124,-3.96 0,-2.255 1.869,-3.96 4.124,-3.96 2.31,0 4.18,1.705 4.18,3.96 z m -0.88,36.46 h -6.544 v -27.991 h 6.544 z"
   id="path28" />
		<path
   style="fill:#04316a"
   d="m 803.821,315.188 v 5.609 c -1.43,0.66 -3.575,1.045 -5.5,1.045 -4.949,0 -7.644,-2.75 -7.644,-7.864 v -15.343 h -4.289 v -5.444 h 4.234 v -7.644 l 6.544,-1.43 v 9.074 h 6.654 v 5.444 h -6.654 v 13.803 c 0,2.585 0.88,3.684 3.024,3.684 1.211,10e-4 2.531,-0.384 3.631,-0.934 z"
   id="path29" />
		<path
   style="fill:#04316a"
   d="m 820.975,303.805 c 1.815,0 3.465,0.11 5.279,0.605 v -0.99 c 0,-3.574 -2.09,-5.444 -6.159,-5.444 -2.255,0 -4.784,0.55 -7.094,1.595 l -1.43,-5.499 c 2.584,-0.989 5.994,-1.595 9.184,-1.595 7.864,0 11.934,3.685 11.934,10.833 v 17.873 h -6.215 v -2.97 h -0.109 c -2.42,2.475 -4.949,3.63 -8.194,3.63 -5.609,0 -9.238,-3.465 -9.238,-8.909 -10e-4,-5.939 4.233,-9.129 12.042,-9.129 z m -5.334,-14.958 c -2.09,0 -3.904,-1.76 -3.904,-3.794 0,-2.035 1.814,-3.849 3.904,-3.849 2.09,0 3.904,1.814 3.904,3.849 0,2.034 -1.814,3.794 -3.904,3.794 z m 4.234,28.101 c 2.364,0 4.565,-1.155 6.379,-3.355 v -4.895 c -1.54,-0.385 -3.135,-0.55 -4.564,-0.55 -4.124,0 -6.489,1.65 -6.489,4.619 -10e-4,2.586 1.815,4.181 4.674,4.181 z m 7.204,-28.101 c -2.09,0 -3.904,-1.76 -3.904,-3.794 0,-2.035 1.815,-3.849 3.904,-3.849 2.09,0 3.904,1.814 3.904,3.849 0,2.034 -1.814,3.794 -3.904,3.794 z"
   id="path30" />
		<path
   style="fill:#04316a"
   d="m 855.207,315.188 v 5.609 c -1.43,0.66 -3.575,1.045 -5.5,1.045 -4.949,0 -7.644,-2.75 -7.644,-7.864 v -15.343 h -4.289 v -5.444 h 4.234 v -7.644 l 6.544,-1.43 v 9.074 h 6.654 v 5.444 h -6.654 v 13.803 c 0,2.585 0.88,3.684 3.024,3.684 1.211,10e-4 2.531,-0.384 3.631,-0.934 z"
   id="path31" />
		<path
   style="fill:#04316a"
   d="M 74.016,381.683 H 48.719 v -38.715 h 24.582 v 6.269 H 55.538 v 9.239 h 13.528 v 6.214 H 55.538 v 10.724 h 18.478 z"
   id="path32" />
		<path
   style="fill:#04316a"
   d="m 97.705,353.582 -1.045,6.709 c -0.99,-0.55 -2.199,-0.88 -3.629,-0.88 -4.51,0 -5.72,3.629 -5.72,7.919 v 14.353 h -6.544 v -27.991 h 6.434 v 3.52 h 0.11 c 1.484,-2.64 4.124,-4.234 7.314,-4.234 0.936,-0.001 2.09,0.164 3.08,0.604 z"
   id="path33" />
		<path
   style="fill:#04316a"
   d="m 109.778,381.683 h -6.544 v -39.375 l 6.544,-1.484 z"
   id="path34" />
		<path
   style="fill:#04316a"
   d="m 128.643,364.305 c 1.814,0 3.465,0.11 5.279,0.605 v -0.99 c 0,-3.574 -2.09,-5.444 -6.159,-5.444 -2.255,0 -4.784,0.55 -7.094,1.595 l -1.43,-5.499 c 2.584,-0.99 5.994,-1.595 9.184,-1.595 7.864,0 11.934,3.685 11.934,10.833 v 17.873 h -6.215 v -2.97 h -0.109 c -2.42,2.475 -4.949,3.63 -8.194,3.63 -5.609,0 -9.238,-3.465 -9.238,-8.909 -0.001,-5.939 4.233,-9.129 12.042,-9.129 z m -1.1,13.143 c 2.364,0 4.565,-1.155 6.379,-3.355 v -4.895 c -1.54,-0.385 -3.135,-0.55 -4.564,-0.55 -4.124,0 -6.489,1.65 -6.489,4.619 -0.001,2.586 1.815,4.181 4.674,4.181 z"
   id="path35" />
		<path
   style="fill:#04316a"
   d="m 172.74,381.683 h -6.545 V 365.68 c 0,-4.069 -1.209,-6.819 -5.169,-6.819 -4.564,0 -5.829,3.739 -5.829,6.764 v 16.058 h -6.544 v -27.991 h 6.489 v 3.354 h 0.109 c 1.65,-2.475 4.62,-4.069 8.249,-4.069 6.379,0 9.239,4.674 9.239,11.328 v 17.378 z"
   id="path36" />
		<path
   style="fill:#04316a"
   d="m 187.06,387.787 1.43,-0.055 c 8.358,-0.33 10.833,-2.695 10.833,-7.974 v -1.815 h -0.055 c -1.979,2.529 -5.114,3.904 -8.469,3.904 -6.765,0 -11.108,-5.554 -11.108,-14.188 0,-8.854 4.564,-14.683 11.383,-14.683 3.355,0 6.38,1.43 8.249,3.904 h 0.11 v -3.189 h 6.434 v 25.132 c 0,9.074 -4.619,13.583 -16.772,14.078 l -1.375,0.055 z m -0.88,-20.292 c 0,5.499 2.419,8.744 6.544,8.744 2.475,0 4.564,-1.21 6.599,-3.684 v -10.009 c -1.925,-2.419 -4.124,-3.684 -6.654,-3.684 -4.07,-0.001 -6.489,3.133 -6.489,8.633 z"
   id="path37" />
		<path
   style="fill:#04316a"
   d="m 226.778,382.343 c -8.304,0 -13.857,-5.884 -13.857,-14.738 0,-8.689 5.334,-14.628 13.143,-14.628 7.534,0 12.429,5.609 12.429,14.243 0,0.935 -0.055,1.925 -0.11,2.694 h -18.808 c 0.716,4.345 3.3,6.819 7.26,6.819 2.584,0 4.674,-0.99 6.874,-3.3 l 4.069,4.29 c -3.19,3.135 -6.764,4.62 -11,4.62 z m -7.313,-17.213 h 12.703 c -0.275,-4.289 -2.529,-6.764 -6.214,-6.764 -3.63,0 -5.939,2.419 -6.489,6.764 z"
   id="path38" />
		<path
   style="fill:#04316a"
   d="m 269.727,381.683 h -6.545 V 365.68 c 0,-4.069 -1.209,-6.819 -5.169,-6.819 -4.564,0 -5.829,3.739 -5.829,6.764 v 16.058 h -6.544 v -27.991 h 6.489 v 3.354 h 0.109 c 1.65,-2.475 4.62,-4.069 8.249,-4.069 6.379,0 9.239,4.674 9.239,11.328 v 17.378 z"
   id="path39" />
		<path
   style="fill:#04316a"
   d="m 290.984,367.604 h -13.748 v -6.214 h 13.748 z"
   id="path40" />
		<path
   style="fill:#04316a"
   d="m 299.483,342.968 h 6.984 l 17.213,27.001 h 0.109 l -0.164,-27.001 h 6.653 v 38.715 h -6.818 l -17.269,-27.166 h -0.109 l 0.109,27.166 h -6.709 v -38.715 z"
   id="path41" />
		<path
   style="fill:#04316a"
   d="m 345.754,370.519 c 0,3.85 1.925,5.884 5.554,5.884 3.575,0 5.444,-1.979 5.444,-5.939 v -16.772 h 6.544 v 16.993 c 0,7.369 -4.124,11.659 -11.823,11.659 -7.644,0 -12.263,-4.29 -12.263,-11.604 v -17.048 h 6.544 z m -0.221,-21.172 c -2.089,0 -3.904,-1.76 -3.904,-3.794 0,-2.035 1.815,-3.849 3.904,-3.849 2.09,0 3.905,1.814 3.905,3.849 0.001,2.034 -1.815,3.794 -3.905,3.794 z m 11.44,0 c -2.09,0 -3.905,-1.76 -3.905,-3.794 0,-2.035 1.815,-3.849 3.905,-3.849 2.089,0 3.904,1.814 3.904,3.849 0,2.034 -1.815,3.794 -3.904,3.794 z"
   id="path42" />
		<path
   style="fill:#04316a"
   d="m 388.531,353.582 -1.045,6.709 c -0.99,-0.55 -2.199,-0.88 -3.629,-0.88 -4.51,0 -5.72,3.629 -5.72,7.919 v 14.353 h -6.544 v -27.991 h 6.434 v 3.52 h 0.11 c 1.484,-2.64 4.124,-4.234 7.314,-4.234 0.936,-0.001 2.09,0.164 3.08,0.604 z"
   id="path43" />
		<path
   style="fill:#04316a"
   d="m 418.07,381.683 h -6.545 V 365.68 c 0,-4.069 -1.209,-6.819 -5.169,-6.819 -4.565,0 -5.829,3.739 -5.829,6.764 v 16.058 h -6.544 v -27.991 h 6.489 v 3.354 h 0.109 c 1.65,-2.475 4.62,-4.069 8.249,-4.069 6.379,0 9.239,4.674 9.239,11.328 v 17.378 z"
   id="path44" />
		<path
   style="fill:#04316a"
   d="m 452.538,367.495 c 0,9.018 -4.564,14.848 -11.439,14.848 -3.519,0 -6.434,-1.484 -8.305,-3.905 h -0.109 v 3.245 h -6.27 v -39.265 l 6.544,-1.65 v 16.168 h 0.11 c 1.87,-2.475 4.73,-3.96 8.193,-3.96 6.712,10e-4 11.276,5.445 11.276,14.519 z m -6.434,0.165 c 0,-5.774 -2.364,-8.799 -6.544,-8.799 -2.53,0 -4.564,1.1 -6.6,3.629 v 10.228 c 1.87,2.475 3.96,3.794 6.654,3.794 4.235,10e-4 6.49,-3.244 6.49,-8.852 z"
   id="path45" />
		<path
   style="fill:#04316a"
   d="m 472.141,382.343 c -8.304,0 -13.857,-5.884 -13.857,-14.738 0,-8.689 5.334,-14.628 13.143,-14.628 7.534,0 12.429,5.609 12.429,14.243 0,0.935 -0.055,1.925 -0.11,2.694 h -18.807 c 0.715,4.345 3.299,6.819 7.259,6.819 2.584,0 4.674,-0.99 6.874,-3.3 l 4.069,4.29 c -3.191,3.135 -6.766,4.62 -11,4.62 z m -7.314,-17.213 h 12.703 c -0.274,-4.289 -2.529,-6.764 -6.214,-6.764 -3.629,0 -5.939,2.419 -6.489,6.764 z"
   id="path46" />
		<path
   style="fill:#04316a"
   d="m 507.94,353.582 -1.045,6.709 c -0.99,-0.55 -2.199,-0.88 -3.629,-0.88 -4.51,0 -5.72,3.629 -5.72,7.919 v 14.353 h -6.544 v -27.991 h 6.434 v 3.52 h 0.11 c 1.484,-2.64 4.124,-4.234 7.314,-4.234 0.935,-0.001 2.089,0.164 3.08,0.604 z"
   id="path47" />
		<path
   style="fill:#04316a"
   d="m 519.006,387.787 1.43,-0.055 c 8.358,-0.33 10.833,-2.695 10.833,-7.974 v -1.815 h -0.055 c -1.979,2.529 -5.114,3.904 -8.469,3.904 -6.765,0 -11.108,-5.554 -11.108,-14.188 0,-8.854 4.564,-14.683 11.383,-14.683 3.354,0 6.38,1.43 8.249,3.904 h 0.11 v -3.189 h 6.434 v 25.132 c 0,9.074 -4.619,13.583 -16.772,14.078 l -1.375,0.055 z m -0.88,-20.292 c 0,5.499 2.419,8.744 6.544,8.744 2.475,0 4.564,-1.21 6.599,-3.684 v -10.009 c -1.925,-2.419 -4.124,-3.684 -6.654,-3.684 -4.07,-0.001 -6.489,3.133 -6.489,8.633 z"
   id="path48" />
	</g>
</g>
</svg>
