<?xml version="1.0" encoding="UTF-8" standalone="no"?>
<!-- Created with Inkscape (http://www.inkscape.org/) -->

<svg
   xmlns:svg="http://www.w3.org/2000/svg"
   xmlns="http://www.w3.org/2000/svg"
   version="1.1"
   width="623.35376"
   height="430.49625"
   id="svg2"
   xml:space="preserve"><defs
     id="defs6"><clipPath
       id="clipPath20"><path
         d="M 0,3443.97 0,0 l 4986.83,0 0,3443.97 -4986.83,0 z"
         id="path22" /></clipPath></defs><g
     transform="matrix(1.25,0,0,-1.25,0,430.49625)"
     id="g12"><g
       transform="scale(0.1,0.1)"
       id="g14"><g
         id="g16"><g
           clip-path="url(#clipPath20)"
           id="g18"><path
             d="m 1068.18,1195.9 0,286.45 -55.92,0 0,-117.07 -96.955,0 0,117.07 -55.934,0 0,-286.45 55.934,0 0,119.9 96.955,0 0,-119.9 55.92,0 0,0"
             id="path24"
             style="fill:#1e5dae;fill-opacity:1;fill-rule:nonzero;stroke:none" /><path
             d="m 1371.87,1195.9 0,49.88 -132.77,0 0,69.61 113.07,0 0,49.89 -113.07,0 0,67.18 132.77,0 0,49.89 -188.7,0 0,-286.45 188.7,0 0,0"
             id="path26"
             style="fill:#1e5dae;fill-opacity:1;fill-rule:nonzero;stroke:none" /><path
             d="m 1660.75,1195.9 0,49.88 -129.94,0 0,236.57 -55.92,0 0,-286.45 185.86,0 0,0"
             id="path28"
             style="fill:#1e5dae;fill-opacity:1;fill-rule:nonzero;stroke:none" /><path
             d="m 2013.98,1195.9 0,286.45 -55.14,0 -74.41,-154.89 -74.83,154.89 -55.13,0 0,-286.45 55.94,0 0,166.95 55.1,-108.59 37.83,0 54.72,108.59 0,-166.95 55.92,0 0,0"
             id="path30"
             style="fill:#1e5dae;fill-opacity:1;fill-rule:nonzero;stroke:none" /><path
             d="m 2337.76,1195.9 0,286.45 -55.9,0 0,-117.07 -96.97,0 0,117.07 -55.93,0 0,-286.45 55.93,0 0,119.9 96.97,0 0,-119.9 55.9,0 0,0"
             id="path32"
             style="fill:#1e5dae;fill-opacity:1;fill-rule:nonzero;stroke:none" /><path
             d="m 2654.75,1339.14 c 0,49.5 0.4,85.28 -28.55,114.26 -20.13,20.12 -44.69,31.37 -77.26,31.37 -32.61,0 -57.55,-11.25 -77.66,-31.37 -28.99,-28.98 -28.17,-64.76 -28.17,-114.26 0,-49.49 -0.82,-85.31 28.17,-114.25 20.11,-20.12 45.05,-31.39 77.66,-31.39 32.57,0 57.13,11.27 77.26,31.39 28.95,28.94 28.55,64.76 28.55,114.25 l 0,0 z m -55.93,0 c 0,-55.11 -3.2,-68.39 -14.07,-80.47 -8.04,-9.26 -20.54,-15.29 -35.81,-15.29 -15.33,0 -28.17,6.03 -36.23,15.29 -10.85,12.08 -13.66,25.36 -13.66,80.47 0,55.12 2.81,68.4 13.66,80.47 8.06,9.24 20.9,15.28 36.23,15.28 15.27,0 27.77,-6.04 35.81,-15.28 10.87,-12.07 14.07,-25.35 14.07,-80.47 l 0,0"
             id="path34"
             style="fill:#1e5dae;fill-opacity:1;fill-rule:nonzero;stroke:none" /><path
             d="m 2945.92,1195.9 0,49.88 -129.92,0 0,236.57 -55.93,0 0,-286.45 185.85,0 0,0"
             id="path36"
             style="fill:#1e5dae;fill-opacity:1;fill-rule:nonzero;stroke:none" /><path
             d="m 3191.75,1432.46 0,49.89 -205.6,0 0,-49.89 74.85,0 0,-236.56 55.9,0 0,236.56 74.85,0 0,0"
             id="path38"
             style="fill:#1e5dae;fill-opacity:1;fill-rule:nonzero;stroke:none" /><path
             d="m 3456.44,1195.9 0,49.88 -122.74,0 122.74,192.33 0,44.24 -183.08,0 0,-49.89 117.1,0 -122.31,-191.48 0,-45.08 188.29,0 0,0"
             id="path40"
             style="fill:#1e5dae;fill-opacity:1;fill-rule:nonzero;stroke:none" /><path
             d="m 1012.25,986.371 0,-986.371 27.95,0 0,986.371 -27.95,0 0,0"
             id="path42"
             style="fill:#1e5dae;fill-opacity:1;fill-rule:nonzero;stroke:none" /><path
             d="m 1239.07,716.141 0,35.328 125.01,198.332 -119.68,0 0,36.859 167.94,0 0,-33.43 -125.76,-200.242 125.76,0 0,-36.847 -173.27,0 0,0"
             id="path44"
             style="fill:#1e5dae;fill-opacity:1;fill-rule:nonzero;stroke:none" /><path
             d="m 1480.36,716.141 0,270.519 172.88,0 0,-36.859 -131.85,0 0,-79.02 112.48,0 0,-36.48 -112.48,0 0,-81.313 131.85,0 0,-36.847 -172.88,0 0,0"
             id="path46"
             style="fill:#1e5dae;fill-opacity:1;fill-rule:nonzero;stroke:none" /><path
             d="m 1889.97,716.141 -125.01,190.339 0,-190.339 -41.04,0 0,270.519 37.63,0 125,-189.98 0,189.98 41.04,0 0,-270.519 -37.62,0 0,0"
             id="path48"
             style="fill:#1e5dae;fill-opacity:1;fill-rule:nonzero;stroke:none" /><path
             d="m 2104.28,949.801 0,-233.66 -41.04,0 0,233.66 -74.46,0 0,36.859 189.98,0 0,-36.859 -74.48,0 0,0"
             id="path50"
             style="fill:#1e5dae;fill-opacity:1;fill-rule:nonzero;stroke:none" /><path
             d="m 2341.78,949.801 -60.82,0 0,-84.723 60.82,0 c 27.35,0 45.96,15.582 45.96,42.172 0,26.602 -18.61,42.551 -45.96,42.551 l 0,0 z m 47.5,-233.66 -57.01,113.98 -51.31,0 0,-113.98 -41.02,0 0,270.519 104.85,0 c 51.31,0 83.99,-33.058 83.99,-79.039 0,-38.75 -23.56,-63.441 -53.95,-71.801 l 62.33,-119.679 -47.88,0 0,0"
             id="path52"
             style="fill:#1e5dae;fill-opacity:1;fill-rule:nonzero;stroke:none" /><path
             d="m 2595.96,713.852 c -55.07,0 -96.87,37.617 -96.87,93.449 l 0,179.359 41.02,0 0,-177.441 c 0,-36.09 22.06,-58.508 55.85,-58.508 33.83,0 56.25,22.418 56.25,58.508 l 0,177.441 41.06,0 0,-179.359 c 0,-55.832 -42.2,-93.449 -97.31,-93.449 l 0,0"
             id="path54"
             style="fill:#1e5dae;fill-opacity:1;fill-rule:nonzero;stroke:none" /><path
             d="m 2971.78,716.141 0,180.859 -62.34,-131.84 -30.4,0 -63.82,131.84 0,-180.859 -41.01,0 0,270.519 41.01,0 79.03,-168.32 77.53,168.32 41.01,0 0,-270.519 -41.01,0 0,0"
             id="path56"
             style="fill:#1e5dae;fill-opacity:1;fill-rule:nonzero;stroke:none" /><path
             d="m 178.07,1145.55 c 10.973,184.77 154.418,333.89 336.68,353.69 -5.84,-52.87 -9.258,-111.27 -9.301,-175.6 -2.769,0.07 -5.539,0.13 -8.32,0.13 -115.668,0 -212.988,-78.47 -241.645,-185.1 -16.183,-0.35 -43.683,0.43 -77.414,6.88 l 0,0 z M 0,1229.16 c 0.972656,376.16 296.723,682.99 668.434,701.74 -11.481,-12.54 -52.383,-61.39 -90.332,-159.06 C 280.18,1749.22 43.5,1507.5 28.7969,1207.44 19.1602,1214.05 9.53125,1221.25 0,1229.16 l 0,0 z m 76.4297,-49.63 c 7.0508,277.13 215.0313,504.3 483.7033,541.25 -14.801,-46.52 -28.242,-101.58 -38.082,-166.01 -212.27,-14.02 -382.11,-183.29 -397.051,-395.29 -15.688,5.29 -31.9883,11.87 -48.5703,20.05 l 0,0"
             id="path58"
             style="fill:#1e5dae;fill-opacity:1;fill-rule:nonzero;stroke:none" /><path
             d="m 1345.07,517.371 -72.9,0 0,-100.141 72.9,0 c 31.83,0 54.47,16.5 54.47,49.879 0,33.36 -22.64,50.262 -54.47,50.262 l 0,0 z m 54.85,-247.051 -62.15,121.211 -65.6,0 0,-121.211 -29.15,0 0,273.121 104.73,0 c 47.57,0 80.94,-28.769 80.94,-75.961 0,-39.878 -24.17,-65.968 -59.45,-73.261 l 64.82,-123.899 -34.14,0 0,0"
             id="path60"
             style="fill:#1e5dae;fill-opacity:1;fill-rule:nonzero;stroke:none" /><path
             d="m 1646.6,500.102 c -11.9,12.269 -29.15,19.546 -47.19,19.546 -18.03,0 -35.28,-7.277 -47.18,-19.546 -17.26,-17.661 -19.18,-36.051 -19.18,-93.223 0,-57.149 1.92,-75.57 19.18,-93.219 11.9,-12.269 29.15,-19.558 47.18,-19.558 18.04,0 35.29,7.289 47.19,19.558 17.26,17.649 19.18,36.07 19.18,93.219 0,57.172 -1.92,75.562 -19.18,93.223 l 0,0 z m 22.64,-203.692 c -18.42,-18.422 -42.59,-28.398 -69.83,-28.398 -27.24,0 -51.4,9.976 -69.81,28.398 -25.71,25.68 -25.71,52.539 -25.71,110.469 0,57.922 0,84.781 25.71,110.492 18.41,18.391 42.57,28.379 69.81,28.379 27.24,0 51.41,-9.988 69.83,-28.379 25.69,-25.711 25.69,-52.57 25.69,-110.492 0,-57.93 0,-84.789 -25.69,-110.469 l 0,0"
             id="path62"
             style="fill:#1e5dae;fill-opacity:1;fill-rule:nonzero;stroke:none" /><path
             d="m 1853.39,268.012 c -41.05,0 -67.89,10.347 -93.6,36.058 l 19.94,19.961 c 22.64,-22.64 43.74,-29.929 74.43,-29.929 39.89,0 64.44,18.789 64.44,50.628 0,14.2 -4.22,26.461 -13.04,34.141 -8.82,7.68 -15.73,9.981 -35.67,13.039 l -31.85,4.981 c -21.48,3.461 -38.36,10.379 -50.25,20.73 -13.81,12.289 -20.71,29.16 -20.71,51.02 0,46.418 33.38,77.109 87.46,77.109 34.91,0 57.93,-8.828 81.33,-29.93 l -18.8,-18.789 c -16.88,15.34 -34.9,23.399 -63.68,23.399 -36.44,0 -57.54,-20.328 -57.54,-50.641 0,-13.418 3.83,-24.16 12.27,-31.449 8.44,-7.301 22.64,-12.68 36.83,-14.961 l 29.92,-4.609 c 25.7,-3.829 38.36,-9.2 49.87,-19.18 14.96,-12.649 23.02,-31.461 23.02,-54.078 0,-47.973 -37.6,-77.5 -94.37,-77.5 l 0,0"
             id="path64"
             style="fill:#1e5dae;fill-opacity:1;fill-rule:nonzero;stroke:none" /><path
             d="m 2092.4,268.012 c -41.05,0 -67.89,10.347 -93.59,36.058 l 19.94,19.961 c 22.63,-22.64 43.73,-29.929 74.42,-29.929 39.89,0 64.44,18.789 64.44,50.628 0,14.2 -4.21,26.461 -13.04,34.141 -8.81,7.68 -15.73,9.981 -35.67,13.039 l -31.84,4.981 c -21.49,3.461 -38.36,10.379 -50.26,20.73 -13.8,12.289 -20.71,29.16 -20.71,51.02 0,46.418 33.38,77.109 87.46,77.109 34.9,0 57.93,-8.828 81.33,-29.93 l -18.79,-18.789 c -16.89,15.34 -34.91,23.399 -63.69,23.399 -36.44,0 -57.54,-20.328 -57.54,-50.641 0,-13.418 3.84,-24.16 12.28,-31.449 8.43,-7.301 22.63,-12.68 36.82,-14.961 l 29.92,-4.609 c 25.71,-3.829 38.36,-9.2 49.87,-19.18 14.96,-12.649 23.02,-31.461 23.02,-54.078 0,-47.973 -37.59,-77.5 -94.37,-77.5 l 0,0"
             id="path66"
             style="fill:#1e5dae;fill-opacity:1;fill-rule:nonzero;stroke:none" /><path
             d="m 2267.36,270.32 0,273.121 169.55,0 0,-26.07 -140.39,0 0,-96.293 119.69,0 0,-26.098 -119.69,0 0,-98.57 140.39,0 0,-26.09 -169.55,0 0,0"
             id="path68"
             style="fill:#1e5dae;fill-opacity:1;fill-rule:nonzero;stroke:none" /><path
             d="m 2691.28,270.32 -145,219.039 0,-219.039 -29.17,0 0,273.121 27.61,0 145,-218.261 0,218.261 29.16,0 0,-273.121 -27.6,0 0,0"
             id="path70"
             style="fill:#1e5dae;fill-opacity:1;fill-rule:nonzero;stroke:none" /><path
             d="m 2959.82,497.41 c -14.2,14.59 -32.62,19.961 -53.71,19.961 l -59.45,0 0,-220.961 59.45,0 c 21.09,0 39.51,5.371 53.71,19.942 18.79,19.57 18.02,60.218 18.02,93.589 0,33.379 0.77,67.911 -18.02,87.469 l 0,0 z m 20.34,-201.781 c -16.51,-16.488 -40.67,-25.309 -69.08,-25.309 l -93.58,0 0,273.121 93.58,0 c 28.41,0 52.57,-8.832 69.08,-25.312 28.37,-28.399 26.83,-70.199 26.83,-108.188 0,-37.961 1.54,-85.91 -26.83,-114.312 l 0,0"
             id="path72"
             style="fill:#1e5dae;fill-opacity:1;fill-rule:nonzero;stroke:none" /><path
             d="m 3227.59,500.102 c -11.9,12.269 -29.16,19.546 -47.18,19.546 -18.04,0 -35.29,-7.277 -47.2,-19.546 -17.24,-17.661 -19.18,-36.051 -19.18,-93.223 0,-57.149 1.94,-75.57 19.18,-93.219 11.91,-12.269 29.16,-19.558 47.2,-19.558 18.02,0 35.28,7.289 47.18,19.558 17.27,17.649 19.19,36.07 19.19,93.219 0,57.172 -1.92,75.562 -19.19,93.223 l 0,0 z m 22.64,-203.692 c -18.42,-18.422 -42.57,-28.398 -69.82,-28.398 -27.24,0 -51.42,9.976 -69.81,28.398 -25.7,25.68 -25.7,52.539 -25.7,110.469 0,57.922 0,84.781 25.7,110.492 18.39,18.391 42.57,28.379 69.81,28.379 27.25,0 51.4,-9.988 69.82,-28.379 25.7,-25.711 25.7,-52.57 25.7,-110.492 0,-57.93 0,-84.789 -25.7,-110.469 l 0,0"
             id="path74"
             style="fill:#1e5dae;fill-opacity:1;fill-rule:nonzero;stroke:none" /><path
             d="m 3466.24,517.371 -72.88,0 0,-100.141 72.88,0 c 31.84,0 54.45,16.5 54.45,49.879 0,33.36 -22.61,50.262 -54.45,50.262 l 0,0 z m 54.84,-247.051 -62.14,121.211 -65.58,0 0,-121.211 -29.16,0 0,273.121 104.72,0 c 47.55,0 80.93,-28.769 80.93,-75.961 0,-39.878 -24.16,-65.968 -59.44,-73.261 l 64.81,-123.899 -34.14,0 0,0"
             id="path76"
             style="fill:#1e5dae;fill-opacity:1;fill-rule:nonzero;stroke:none" /><path
             d="m 3664.6,517.371 0,-100.512 119.67,0 0,-26.097 -119.67,0 0,-120.442 -29.16,0 0,273.121 169.55,0 0,-26.07 -140.39,0 0,0"
             id="path78"
             style="fill:#1e5dae;fill-opacity:1;fill-rule:nonzero;stroke:none" /><path
             d="m 3357.62,932.602 c -11.4,12.558 -26.63,18.277 -46.08,18.277 l -49.89,0 0,-197.309 49.89,0 c 19.45,0 34.68,5.731 46.08,18.289 14.12,15.621 14.5,44.961 14.5,82.262 0,37.348 -0.38,62.859 -14.5,78.481 l 0,0 z m 28.21,-190.43 c -17.15,-17.152 -41.92,-25.531 -70.09,-25.531 l -95.22,0 0,271.179 95.22,0 c 28.17,0 52.94,-8.379 70.09,-25.531 29.32,-29.32 27.41,-68.93 27.41,-108.168 0,-39.211 1.91,-82.641 -27.41,-111.949 l 0,0"
             id="path80"
             style="fill:#1e5dae;fill-opacity:1;fill-rule:nonzero;stroke:none" /><path
             d="m 3595.74,950.879 -60.93,0 0,-84.938 60.93,0 c 27.43,0 46.11,15.61 46.11,42.289 0,26.629 -18.68,42.649 -46.11,42.649 l 0,0 z m 47.63,-234.238 -57.13,114.257 -51.43,0 0,-114.257 -41.13,0 0,271.179 105.12,0 c 51.42,0 84.18,-33.148 84.18,-79.218 0,-38.852 -23.61,-63.622 -54.08,-71.981 l 62.46,-119.98 -47.99,0 0,0"
             id="path82"
             style="fill:#1e5dae;fill-opacity:1;fill-rule:nonzero;stroke:none" /><path
             d="m 3762.66,716.641 0,271.179 173.31,0 0,-36.941 -132.17,0 0,-79.219 112.73,0 0,-36.558 -112.73,0 0,-81.532 132.17,0 0,-36.929 -173.31,0 0,0"
             id="path84"
             style="fill:#1e5dae;fill-opacity:1;fill-rule:nonzero;stroke:none" /><path
             d="m 4083.84,714.359 c -40.74,0 -70.08,9.532 -95.98,35.801 l 27.42,27.051 c 19.81,-19.801 41.53,-25.902 69.32,-25.902 35.41,0 56,15.242 56,41.511 0,11.809 -3.44,21.692 -10.67,28.18 -6.87,6.48 -13.71,9.141 -29.73,11.422 l -32,4.578 c -22.06,3.039 -39.6,10.66 -51.39,21.691 -13.32,12.579 -19.82,29.731 -19.82,51.797 0,47.231 34.29,79.614 90.66,79.614 35.8,0 60.92,-9.141 84.16,-30.864 l -26.28,-25.898 c -16.75,16.019 -36.18,20.961 -59.05,20.961 -31.99,0 -49.49,-18.281 -49.49,-42.289 0,-9.883 3.06,-18.653 10.29,-25.121 6.86,-6.09 17.88,-10.661 30.45,-12.571 l 30.87,-4.57 c 25.13,-3.809 39.22,-9.898 50.65,-20.199 14.86,-12.93 22.09,-32.36 22.09,-55.582 0,-49.899 -40.74,-79.61 -97.5,-79.61 l 0,0"
             id="path86"
             style="fill:#1e5dae;fill-opacity:1;fill-rule:nonzero;stroke:none" /><path
             d="m 4393.16,932.602 c -11.39,12.558 -26.63,18.277 -46.06,18.277 l -49.9,0 0,-197.309 49.9,0 c 19.43,0 34.67,5.731 46.06,18.289 14.12,15.621 14.5,44.961 14.5,82.262 0,37.348 -0.38,62.859 -14.5,78.481 l 0,0 z m 28.21,-190.43 c -17.14,-17.152 -41.92,-25.531 -70.07,-25.531 l -95.24,0 0,271.179 95.24,0 c 28.15,0 52.93,-8.379 70.07,-25.531 29.32,-29.32 27.43,-68.93 27.43,-108.168 0,-39.211 1.89,-82.641 -27.43,-111.949 l 0,0"
             id="path88"
             style="fill:#1e5dae;fill-opacity:1;fill-rule:nonzero;stroke:none" /><path
             d="m 4529.23,716.641 0,271.179 173.3,0 0,-36.941 -132.17,0 0,-79.219 112.74,0 0,-36.558 -112.74,0 0,-81.532 132.17,0 0,-36.929 -173.3,0 0,0"
             id="path90"
             style="fill:#1e5dae;fill-opacity:1;fill-rule:nonzero;stroke:none" /><path
             d="m 4944.85,716.641 -125.31,190.8 0,-190.8 -41.13,0 0,271.179 37.7,0 125.3,-190.429 0,190.429 41.14,0 0,-271.179 -37.7,0 0,0"
             id="path92"
             style="fill:#1e5dae;fill-opacity:1;fill-rule:nonzero;stroke:none" /><path
             d="m 1868.48,3282.99 0,160.98 -222.17,0 0,-160.98 222.17,0 0,0"
             id="path94"
             style="fill:#1e5dae;fill-opacity:1;fill-rule:nonzero;stroke:none" /><path
             d="m 1116.4,3282.99 0,160.98 -219.295,0 0,-160.98 219.295,0 0,0"
             id="path96"
             style="fill:#f25c19;fill-opacity:1;fill-rule:nonzero;stroke:none" /><path
             d="m 897.105,3156.21 0,-450.8 219.295,0 0,270.27 529.91,0 0,-270.27 222.17,0 0,450.8 -971.375,0 0,0"
             id="path98"
             style="fill:#1e5dae;fill-opacity:1;fill-rule:nonzero;stroke:none" /><path
             d="m 2523.32,3282.99 334.6,0 0,160.98 -866.52,0 0,-159.61 533.79,0 -1.87,-1.37 0,0"
             id="path100"
             style="fill:#1e5dae;fill-opacity:1;fill-rule:nonzero;stroke:none" /><path
             d="m 2686.9,3156.21 -336.47,0 -373.49,-273.81 0,-176.99 893.5,0 0,173.13 -565.56,0 382.02,277.67 0,0"
             id="path102"
             style="fill:#1e5dae;fill-opacity:1;fill-rule:nonzero;stroke:none" /><path
             d="m 3550.13,3443.97 -579.89,0 0,-160.98 442.52,0 0,-0.87 111.45,0 c 195.19,0 204.84,-18.94 204.84,-204.53 0,-186.53 -39.43,-191.38 -204.84,-191.38 l -330.88,0 0,270 -223.09,0 0,-450.8 579.89,0 c 319.35,0 400.09,13.45 400.09,368.31 0,356.79 -86.52,370.25 -400.09,370.25 l 0,0"
             id="path104"
             style="fill:#1e5dae;fill-opacity:1;fill-rule:nonzero;stroke:none" /><path
             d="m 4812.76,3052.93 c 138.5,20.17 174.07,88.64 174.07,153.5 0,169.26 -69.28,237.54 -208.7,237.54 l -741.52,0 0,-160.3 644.42,-0.06 c 114.41,0 114.41,-127.59 0,-127.59 l -644.42,0 0,-450.61 234.65,0 0,247.52 390.49,0 c 60.6,0 86.52,-83.99 86.52,-138.81 l 0,-108.71 232.77,0 0,133.69 c 0,89.47 -53.82,198.44 -168.28,213.83 l 0,0"
             id="path106"
             style="fill:#1e5dae;fill-opacity:1;fill-rule:nonzero;stroke:none" /></g></g></g></g></svg>