<?xml version="1.0" encoding="utf-8"?>
<!-- Generator: Adobe Illustrator 16.0.0, SVG Export Plug-In . SVG Version: 6.00 Build 0)  -->
<!DOCTYPE svg PUBLIC "-//W3C//DTD SVG 1.1//EN" "http://www.w3.org/Graphics/SVG/1.1/DTD/svg11.dtd">
<svg version="1.1" xmlns="http://www.w3.org/2000/svg" xmlns:xlink="http://www.w3.org/1999/xlink" x="0px" y="0px" width="512px"
	 height="512px" viewBox="0 0 512 512" enable-background="new 0 0 512 512" xml:space="preserve">
<g id="Layer_1" display="none">
	<g display="inline">
		<defs>
			<rect id="SVGID_1_" width="512" height="512"/>
		</defs>
		<clipPath id="SVGID_2_">
			<use xlink:href="#SVGID_1_"  overflow="visible"/>
		</clipPath>
		<g clip-path="url(#SVGID_2_)">
			<rect x="439" opacity="0.4" fill="#FF5050" enable-background="new    " width="73" height="512"/>
			<rect opacity="0.4" fill="#FF5050" enable-background="new    " width="73" height="512"/>
			<rect x="73" opacity="0.1" fill="#FF5050" enable-background="new    " width="73" height="512"/>
			<rect y="73" opacity="0.1" fill="#FF5050" enable-background="new    " width="512" height="73"/>
			<rect x="366" opacity="0.1" fill="#FF5050" enable-background="new    " width="73" height="512"/>
			<rect y="366" opacity="0.1" fill="#FF5050" enable-background="new    " width="512" height="73"/>
			<rect x="-0.5" opacity="0.4" fill="#FF5050" enable-background="new    " width="512" height="73"/>
			<rect y="439" opacity="0.4" fill="#FF5050" enable-background="new    " width="512" height="73"/>
			<path fill="none" stroke="#FF4D4D" stroke-width="0.25" d="M73,0v512"/>
			<path fill="none" stroke="#FF4D4D" stroke-width="0.25" d="M146,0v512"/>
			<path fill="none" stroke="#FF4D4D" stroke-width="0.25" d="M219,0v512"/>
			<path fill="none" stroke="#FF4D4D" stroke-width="0.25" d="M292,0v512"/>
			<path fill="none" stroke="#FF4D4D" stroke-width="0.25" d="M366,0v512"/>
			<path fill="none" stroke="#FF4D4D" stroke-width="0.25" d="M439,0v512"/>
			<path fill="none" stroke="#FF4D4D" stroke-width="0.25" d="M512,73H0"/>
			<path fill="none" stroke="#FF4D4D" stroke-width="0.25" d="M512,146H0"/>
			<path fill="none" stroke="#FF4D4D" stroke-width="0.25" d="M512,219H0"/>
			<path fill="none" stroke="#FF4D4D" stroke-width="0.25" d="M512,292H0"/>
			<path fill="none" stroke="#FF4D4D" stroke-width="0.25" d="M512,366H0"/>
			<path fill="none" stroke="#FF4D4D" stroke-width="0.25" d="M512,439H0"/>
		</g>
	</g>
</g>
<g id="Layer_2">
	<g>
		<path fill-rule="evenodd" clip-rule="evenodd" fill="#4687E6" d="M364.249,384.023c2.225,4.548,4.36,8.91,6.492,13.274
			c0.818,1.677,1.654,3.348,2.427,5.047c0.719,1.583,0.506,3.091-0.672,4.38c-1.106,1.209-2.609,1.615-4.03,0.968
			c-0.975-0.443-1.942-1.378-2.429-2.34c-3.254-6.446-6.377-12.958-9.548-19.446c-0.17-0.348-0.393-0.669-0.607-1.028
			c-5.524,0-11.008,0-16.644,0c-0.057,0.694-0.15,1.311-0.151,1.927c-0.012,5.259-0.002,10.517-0.013,15.773
			c-0.002,0.686-0.012,1.383-0.13,2.055c-0.364,2.076-1.91,3.368-3.882,3.31c-2.085-0.062-3.695-1.585-3.896-3.704
			c-0.041-0.439-0.026-0.885-0.026-1.326c-0.001-14.792-0.002-29.584,0-44.376c0-3.767,1.269-5.032,5.042-5.034
			c7.027-0.003,14.06-0.151,21.08,0.071c2.896,0.092,5.896,0.622,8.627,1.584c5.642,1.985,8.61,6.331,9.166,12.224
			c0.178,1.882,0.063,3.851-0.29,5.711c-0.898,4.737-3.732,8.018-8.137,9.949C365.916,383.353,365.189,383.636,364.249,384.023z
			 M339.227,360.966c0,5.746,0,11.262,0,16.746c0.274,0.098,0.41,0.188,0.546,0.188c6.578-0.002,13.161,0.121,19.734-0.071
			c3.307-0.097,5.969-1.745,7.141-5.035c2.096-5.879-1.114-12.022-8.055-11.979c-5.893,0.037-11.785,0.003-17.679,0.011
			C340.392,360.827,339.868,360.909,339.227,360.966z"/>
		<path fill-rule="evenodd" clip-rule="evenodd" fill="#222080" d="M149.081,380.515c-0.098,11.762-6.536,21.728-16.878,25.513
			c-16.156,5.911-33.982-2.896-36.479-21.648c-1.544-11.6,3.632-22.709,13.222-27.929c15.009-8.17,36.655-1.465,39.77,19.819
			C148.92,377.672,148.962,379.099,149.081,380.515z M122.189,360.279c-8.523,0.021-15.087,4.76-17.747,12.864
			c-1.379,4.199-1.596,8.492-0.522,12.777c1.886,7.529,6.322,12.799,14.145,14.306c7.9,1.521,14.779-0.518,19.535-7.427
			c3.356-4.875,4.143-10.394,3.301-16.196C139.476,366.81,131.979,360.257,122.189,360.279z"/>
		<path fill-rule="evenodd" clip-rule="evenodd" fill="#4687E6" d="M385.837,360.865c0,5.224,0,10.156,0,15.221
			c0.728,0.045,1.35,0.117,1.971,0.117c7.174,0.009,14.349-0.004,21.523,0.02c0.773,0.002,1.585,0.081,2.312,0.321
			c1.457,0.482,2.274,1.857,2.221,3.468c-0.053,1.622-0.946,2.87-2.482,3.268c-0.75,0.193-1.554,0.235-2.333,0.237
			c-7.075,0.018-14.151,0.008-21.228,0.016c-0.622,0.002-1.243,0.082-1.977,0.133c0,5.458,0,10.786,0,16.278
			c0.647,0.053,1.263,0.146,1.878,0.146c7.961,0.01,15.921,0,23.881,0.016c0.779,0.002,1.584,0.043,2.332,0.236
			c1.639,0.422,2.563,1.684,2.59,3.341c0.027,1.581-0.935,3.006-2.472,3.461c-0.692,0.205-1.451,0.258-2.181,0.259
			c-9.729,0.017-19.459,0.017-29.188,0.009c-3.445-0.003-4.867-1.407-4.869-4.82c-0.007-14.743-0.007-29.484,0-44.227
			c0.003-3.186,1.46-4.773,4.656-4.79c9.926-0.053,19.853-0.021,29.778-0.014c0.391,0,0.785,0.063,1.168,0.14
			c1.947,0.387,3.197,1.877,3.124,3.703c-0.073,1.864-1.543,3.32-3.578,3.435c-1.322,0.074-2.651,0.026-3.979,0.026
			c-7.027,0.002-14.055,0.001-21.08,0.001C387.276,360.865,386.648,360.865,385.837,360.865z"/>
		<path fill-rule="evenodd" clip-rule="evenodd" fill="#4687E6" d="M303.439,393.989c-8.432,0-16.679,0-25.09,0
			c-0.88,1.89-1.771,3.793-2.652,5.701c-0.907,1.961-1.768,3.945-2.72,5.885c-1.06,2.154-3.282,2.95-5.296,1.979
			c-1.765-0.854-2.431-2.932-1.479-5.072c5.299-11.89,10.632-23.765,15.952-35.643c1.688-3.766,3.4-7.521,5.053-11.3
			c0.717-1.644,1.802-2.647,3.674-2.658c1.863-0.011,2.98,0.945,3.717,2.592c6.998,15.649,14.023,31.287,21.021,46.937
			c0.979,2.186,0.291,4.348-1.534,5.176c-2.055,0.933-4.231,0.114-5.266-2.074c-1.532-3.242-2.994-6.517-4.495-9.773
			C304.062,395.165,303.756,394.61,303.439,393.989z M300.533,386.775c-3.235-7.516-6.352-14.754-9.613-22.331
			c-3.271,7.597-6.399,14.859-9.617,22.331C287.822,386.775,293.99,386.775,300.533,386.775z"/>
		<path fill-rule="evenodd" clip-rule="evenodd" fill="#222080" d="M159.868,401.668c0,0.819,0,1.337,0,1.854
			c0,4.813,0.006,9.625-0.003,14.437c-0.005,2.657-1.441,4.269-3.786,4.285c-2.343,0.016-3.897-1.596-3.901-4.218
			c-0.021-14.045-0.022-28.09,0-42.136c0.004-2.644,1.454-4.166,3.761-4.142c2.282,0.022,3.643,1.592,3.661,4.224
			c0.003,0.483,0,0.966,0,1.817c1.786-2.426,3.779-4.101,6.258-5.143c9.009-3.786,19.165,1.325,21.826,11.211
			c1.899,7.057,0.906,13.667-4.296,19.195c-5.646,6-16.72,6.979-22.781-0.689C160.47,402.189,160.282,402.056,159.868,401.668z
			 M182.496,389.689c0.005-7.157-4.49-11.919-11.209-11.877c-6.394,0.041-11.393,5.225-11.391,11.813
			c0.001,6.587,5.032,11.796,11.405,11.807C177.99,401.443,182.491,396.722,182.496,389.689z"/>
		<path fill-rule="evenodd" clip-rule="evenodd" fill="#222080" d="M199.855,392.464c-0.256,3.481,2.285,7.201,5.822,8.443
			c4.494,1.577,8.704,0.98,12.443-2.117c0.604-0.5,1.162-1.066,1.804-1.513c1.317-0.917,3.154-0.712,4.172,0.401
			c1.023,1.12,1.105,2.759,0.103,4.052c-1.768,2.281-4.123,3.792-6.802,4.738c-6.027,2.131-12.008,2.133-17.618-1.184
			c-5.693-3.363-7.885-8.813-8.114-15.149c-0.279-7.769,4.001-14.484,10.878-17.342c10.255-4.262,21.16,1.7,23.062,12.634
			c0.217,1.252,0.317,2.533,0.373,3.804c0.095,2.153-0.866,3.175-3.069,3.216c-2.8,0.051-5.601,0.016-8.401,0.016
			c-4.274,0.001-8.549,0.001-12.822,0.001C201.104,392.464,200.524,392.464,199.855,392.464z M200.003,386.069
			c6.26,0,12.421,0,18.574,0c0.301-3.799-3.904-8.085-8.08-8.337C204.942,377.395,200.189,381.114,200.003,386.069z"/>
		<path fill-rule="evenodd" clip-rule="evenodd" fill="#222080" d="M236.864,395.521c-0.001,2.701,0.018,5.402-0.007,8.104
			c-0.022,2.391-1.534,4.038-3.715,4.113c-2.101,0.072-3.953-1.585-3.959-3.907c-0.016-6.036-0.128-12.09,0.262-18.104
			c0.448-6.941,6.206-12.703,13.627-13.836c9.698-1.48,17.068,4.421,18.948,12.283c0.216,0.903,0.433,1.836,0.439,2.756
			c0.044,5.696,0.056,11.394,0.014,17.091c-0.015,2.027-1.525,3.535-3.499,3.709c-1.832,0.162-3.562-1.1-4.005-2.99
			c-0.144-0.613-0.168-1.264-0.17-1.896c-0.013-5.01,0.007-10.019-0.012-15.028c-0.021-5.375-3.796-9.164-9.045-9.12
			c-5.174,0.044-8.866,3.854-8.876,9.165C236.861,390.413,236.865,392.967,236.864,395.521z"/>
		<path fill-rule="evenodd" clip-rule="evenodd" fill="#4687E6" d="M319.376,380.324c0-7.663-0.006-15.326,0.004-22.989
			c0.004-2.225,0.85-3.578,2.561-4.208c2.392-0.881,4.776,0.438,5.257,2.945c0.119,0.622,0.126,1.27,0.126,1.906
			c0.008,14.934,0.009,29.865-0.002,44.798c-0.001,0.73-0.036,1.483-0.208,2.188c-0.452,1.857-1.891,2.97-3.717,2.98
			c-1.873,0.013-3.413-1.166-3.854-3.028c-0.146-0.612-0.158-1.265-0.16-1.898C319.373,395.453,319.375,387.889,319.376,380.324z"/>
	</g>
	<path fill="#222080" d="M344.053,216.343c-0.307-5.771-1.199-11.509-1.961-17.314c-3.158-14.614-9.378-28.089-17.97-39.72
		c0.013,1.546,0.019,3.092-0.109,4.625c-0.291,3.452-2.632,5.683-5.614,5.636c-2.998-0.047-5.25-2.313-5.419-5.792
		c-0.163-3.376-0.048-6.768-0.089-10.152c-0.013-1.335-0.121-2.672-0.224-4.767c-3.397,0-6.605,0-9.819-0.007
		c-1.58,0-3.161,0.048-4.741-0.027c-3.241-0.163-5.086-1.838-5.1-4.666c-0.014-3.133,1.736-4.876,4.739-5.093
		c2.158-0.149,4.321-0.163,6.484-0.176c-11-8.572-39.015-18.195-39.441-18.29c-26.456-6.199-51.968-3.344-75.276,10.544
		c-12.139,7.23-22.597,15.598-30.945,25.269c-11.956,15.062-19.83,33.508-21.959,53.664c-0.197,2.799-0.277,5.656-0.244,8.579
		c0.074,6.774,0.475,14.044,1.58,20.649c2.679,16.019,9.203,31.176,18.785,44.189c0.251,0.333,0.502,0.665,0.753,0.997
		c19.05,24.841,49.031,40.859,82.756,40.859c51.256,0,93.871-37.008,102.579-85.76c0.014-0.088,0.035-0.185,0.048-0.272
		C344.079,231.92,344.474,224.264,344.053,216.343z M285.303,277.683c-27.839,22.25-66.73,21.008-93.329-2.849
		c-26.096-23.403-31.263-62.507-11.969-92.312c19.687-30.423,56.267-38.636,82.315-29.094c17.137,4.87,31.271,13.352,31.271,13.352
		s8.698,19.775,14.87,33.211C316.356,219.862,313.468,255.174,285.303,277.683z"/>
	<path fill="#4687E6" d="M318.676,87.091c-31.46,0-56.966,25.506-56.966,56.966s25.506,56.966,56.966,56.966
		c31.467,0,56.966-25.506,56.966-56.966S350.143,87.091,318.676,87.091z M343.896,144.273c-0.122,2.788-1.776,4.388-4.529,4.503
		c-3.609,0.149-10.831,0.096-10.831,0.096l-4.43-0.005c0,0,0.016,5.742,0,8.305c-0.005,2.251,0.098,4.523-0.094,6.761
		c-0.291,3.452-2.632,5.683-5.614,5.636c-2.998-0.047-5.25-2.313-5.419-5.792c-0.163-3.376-0.089-10.152-0.089-10.152l-0.034-4.767
		l-10.009-0.007c0,0-3.161,0.048-4.741-0.027c-3.241-0.163-5.086-1.838-5.1-4.666c-0.014-3.133,1.736-4.876,4.739-5.093
		c3.372-0.23,15.151-0.137,15.151-0.137s-0.007-5.228,0.007-7.54c0.007-2.366-0.074-4.748,0.067-7.107
		c0.211-3.52,2.36-5.778,5.358-5.866c3.072-0.088,5.507,2.299,5.703,5.914c0.176,3.262,0.325,12.691,0.325,14.526
		c2.062,0,12.322,0.041,15.564,0.4C342.69,139.567,344.02,141.547,343.896,144.273z"/>
</g>
</svg>
