<?xml version="1.0" encoding="utf-8"?>
<!-- Generator: Adobe Illustrator 19.2.1, SVG Export Plug-In . SVG Version: 6.00 Build 0)  -->
<svg version="1.1" id="layer" xmlns="http://www.w3.org/2000/svg" xmlns:xlink="http://www.w3.org/1999/xlink" x="0px" y="0px"
	 viewBox="0 0 652 652" style="enable-background:new 0 0 652 652;" xml:space="preserve">
<style type="text/css">
	.st0{fill:#0047A8;}
</style>
<path class="st0" d="M617.8,300.1c-2.9-6.6-6.8-12.3-11.7-17.2c-4.9-4.9-10.6-8.7-17.2-11.5c-6.6-2.8-13.6-4.2-20.9-4.2
	c-7.6,0-14.6,1.4-21.1,4.2c-3.2,1.4-6.3,3-9.1,4.9c-2.9,1.9-5.6,4.1-8.1,6.6c-1.5,1.5-3,3.1-4.3,4.8c-1.5,1.9-3.1,4.4-4.1,5.9
	c-1.2,1.9-3.9,7.6-5.1,11.6c0.2-6.7,1.2-16.8,5.1-22.4V234c0-3.2-1.1-5.9-3.4-8.1c-2.3-2.2-4.9-3.3-7.9-3.3c-3.2,0-5.9,1.1-8.1,3.3
	c-2.2,2.2-3.3,4.9-3.3,8.1v43.3c-4.6-3.2-9.5-5.7-14.8-7.5c-5.3-1.8-10.8-2.7-16.6-2.7c-7.4,0-14.3,1.4-20.9,4.2
	c-6.6,2.8-12.3,6.6-17.2,11.5c-4.9,4.9-8.8,10.6-11.6,17.2c-0.2,0.5-0.4,1-0.6,1.5c-0.2-0.5-0.4-1-0.6-1.5
	c-2.9-6.6-6.8-12.3-11.7-17.2c-4.9-4.9-10.6-8.7-17.2-11.5c-6.6-2.8-13.6-4.2-20.9-4.2c-7.6,0-14.6,1.4-21.1,4.2
	c-6.5,2.8-12.2,6.6-17.2,11.5c-5,4.9-8.9,10.6-11.7,17.2c-0.2,0.5-0.4,0.9-0.6,1.4c-0.2-0.5-0.4-0.9-0.6-1.4
	c-2.9-6.6-6.8-12.3-11.6-17.2c-4.9-4.9-10.6-8.7-17.2-11.5c-6.6-2.8-13.5-4.2-20.9-4.2c-7.6,0-14.6,1.4-21.1,4.2
	c-6.5,2.8-12.2,6.6-17.2,11.5c-5,4.9-8.9,10.6-11.7,17.2c-0.2,0.4-0.3,0.9-0.5,1.3c-0.2-0.4-0.3-0.9-0.5-1.3
	c-2.9-6.6-6.8-12.3-11.7-17.2c-4.9-4.9-10.6-8.7-17.2-11.5c-6.6-2.8-13.6-4.2-20.9-4.2c-7.6,0-14.6,1.4-21.1,4.2
	c-6,2.6-11.3,6.1-16,10.5V280c0-6.4-5.2-11.6-11.6-11.6H35.5c-6.4,0-11.6,5.2-11.6,11.6c0,6.4,5.2,11.6,11.6,11.6h63.7L24.5,392.2
	c-1.5,2-2.3,4.4-2.3,6.9v7.5c0,6.4,5.2,11.6,11.6,11.6H120c6.1,0,11.1-4.7,11.5-10.7c3.8,3,8.1,5.6,12.7,7.6
	c6.6,2.8,13.5,4.2,20.9,4.2c11.2,0,21.1-3,29.9-9c7.1-4.8,12.7-10.8,16.7-18v15.6c0,3.2,1.1,5.9,3.3,8.1c2.2,2.2,4.9,3.3,8.1,3.3
	c3,0,5.6-1.1,7.9-3.3c2.3-2.2,3.4-4.9,3.4-8.1v-40.5h0c0,0,0-0.1,0-0.1s-25.2,0-28.3,0c-2.4,0-4.5,0.6-6.4,1.9
	c-1.9,1.3-3.3,3.1-4,5.2l-1.9,3.8c-2.6,5.6-6.4,10-11.5,13.3c-5.1,3.3-10.8,4.9-17.2,4.9c-4.2,0-8.2-0.8-12.1-2.4
	c-3.9-1.6-7.2-3.8-10-6.7c-2.8-2.9-5-6.2-6.7-10c-1.7-3.8-2.5-7.8-2.5-12v-10.2h72.6h5.4h22.7V321c0-4.2,0.8-8.2,2.4-11.9
	c1.6-3.8,3.8-7.1,6.7-10c2.9-2.9,6.2-5.1,10-6.7c3.8-1.6,7.9-2.4,12.2-2.4c4.2,0,8.2,0.8,12.1,2.4c3.9,1.6,7.2,3.8,10,6.7
	c2.8,2.9,5,6.2,6.7,10c1.7,3.8,2.5,7.8,2.5,11.9v86.9c0,3.2,1.1,5.9,3.3,8.1c2.2,2.2,4.9,3.3,8.1,3.3c3,0,5.6-1.1,7.9-3.3
	c2.3-2.2,3.4-4.9,3.4-8.1v-15.6c2.4,4.1,5.3,7.9,8.6,11.3c4.9,4.9,10.6,8.7,17.2,11.5c6.6,2.8,13.5,4.2,20.9,4.2
	c7.4,0,14.3-1.4,20.9-4.2c6.6-2.8,12.3-6.6,17.3-11.5c5-4.9,8.9-10.6,11.7-17.2c0.2-0.4,0.3-0.8,0.4-1.2c0.2,0.4,0.3,0.8,0.5,1.2
	c2.8,6.6,6.7,12.3,11.7,17.2c5,4.9,10.7,8.7,17.2,11.5c6.5,2.8,13.5,4.2,21.1,4.2c7.4,0,14.3-1.4,20.9-4.2
	c6.6-2.8,12.3-6.6,17.2-11.5c4.9-4.9,8.8-10.6,11.7-17.2c0.2-0.5,0.4-1,0.6-1.5c0.2,0.5,0.4,1,0.6,1.5c2.9,6.6,6.8,12.3,11.7,17.2
	c4.9,4.9,10.6,8.7,17.2,11.5c6.6,2.8,13.5,4.2,20.9,4.2c7.4,0,14.3-1.4,20.9-4.2c6.6-2.8,12.3-6.6,17.3-11.5
	c5-4.9,8.9-10.6,11.7-17.2c2.8-6.6,4.2-13.6,4.2-20.9V321C622.2,313.6,620.7,306.6,617.8,300.1z M51.1,395.1l60.5-81.5
	c-0.3,2.4-0.5,4.9-0.5,7.3v44.5c0,7.4,1.4,14.3,4.3,20.9c1.3,3.1,2.9,6,4.7,8.7c-0.1,0-0.1,0-0.2,0L51.1,395.1L51.1,395.1z
	 M196.6,332.6h-62.7V321c0-4.2,0.8-8.2,2.4-11.9c1.6-3.8,3.8-7.1,6.7-10c2.9-2.9,6.2-5.1,10-6.7c3.8-1.6,7.9-2.4,12.3-2.4
	c4.2,0,8.2,0.8,12.1,2.4c3.9,1.6,7.2,3.8,10,6.7c2.8,2.9,5,6.2,6.7,10c1.7,3.8,2.5,7.8,2.5,11.9C196.6,321,196.6,332.6,196.6,332.6z
	 M398.1,365.5c0,4.2-0.8,8.2-2.4,12c-1.6,3.8-3.8,7.1-6.7,10c-2.9,2.9-6.2,5.1-10,6.7c-3.8,1.6-7.9,2.4-12.2,2.4
	c-4.2,0-8.2-0.8-12.1-2.4c-3.9-1.6-7.2-3.8-10-6.7c-2.8-2.9-5-6.2-6.7-10c-1.7-3.8-2.5-7.8-2.5-12V321c0-4.2,0.8-8.2,2.4-11.9
	c1.6-3.8,3.8-7.1,6.7-10c2.9-2.9,6.2-5.1,10-6.7c3.8-1.6,7.9-2.4,12.3-2.4c4.2,0,8.2,0.8,12.1,2.4c3.9,1.6,7.2,3.8,10,6.7
	c2.8,2.9,5,6.2,6.7,10c1.7,3.8,2.5,7.8,2.5,11.9C398.1,321,398.1,365.5,398.1,365.5z M498.8,365.5c0,4.2-0.8,8.2-2.5,12
	c-1.7,3.8-3.9,7.1-6.7,10c-2.8,2.9-6.1,5.1-10,6.7c-3.9,1.6-7.9,2.4-12.1,2.4c-4.4,0-8.5-0.8-12.2-2.4c-3.8-1.6-7.1-3.8-10-6.7
	c-2.9-2.9-5.1-6.2-6.7-10c-1.6-3.8-2.4-7.8-2.4-12V321c0-4.2,0.9-8.2,2.5-11.9c1.7-3.8,3.9-7.1,6.7-10c2.8-2.9,6.1-5.1,10-6.7
	c3.9-1.6,7.9-2.4,12.1-2.4c4.4,0,8.5,0.8,12.2,2.4c3.8,1.6,7.1,3.8,10,6.7c2.9,2.9,5.1,6.2,6.7,10c1.6,3.8,2.4,7.8,2.4,11.9
	L498.8,365.5L498.8,365.5z M599.5,365.5c0,4.2-0.8,8.2-2.4,12c-1.6,3.8-3.8,7.1-6.7,10c-2.9,2.9-6.2,5.1-10,6.7
	c-3.8,1.6-7.9,2.4-12.2,2.4c-4.2,0-8.2-0.8-12.1-2.4c-3.9-1.6-7.2-3.8-10-6.7c-2.8-2.9-5-6.2-6.7-10c-1.7-3.8-2.5-7.8-2.5-12V321
	c0-4.2,0.8-8.2,2.4-11.9c1.6-3.8,3.8-7.1,6.7-10c2.9-2.9,6.2-5.1,10-6.7c3.8-1.6,7.9-2.4,12.3-2.4c4.2,0,8.2,0.8,12.1,2.4
	c3.9,1.6,7.2,3.8,10,6.7c2.8,2.9,5,6.2,6.7,10c1.7,3.8,2.5,7.8,2.5,11.9L599.5,365.5L599.5,365.5z"/>
</svg>
