<?xml version="1.0" encoding="UTF-8" standalone="no"?>
<svg
   xmlns:dc="http://purl.org/dc/elements/1.1/"
   xmlns:cc="http://creativecommons.org/ns#"
   xmlns:rdf="http://www.w3.org/1999/02/22-rdf-syntax-ns#"
   xmlns:svg="http://www.w3.org/2000/svg"
   xmlns="http://www.w3.org/2000/svg"
   viewBox="0 0 409.10266 71.892532"
   height="71.892532"
   width="409.10266"
   xml:space="preserve"
   id="svg2"
   version="1.1"><metadata
     id="metadata8"><rdf:RDF><cc:Work
         rdf:about=""><dc:format>image/svg+xml</dc:format><dc:type
           rdf:resource="http://purl.org/dc/dcmitype/StillImage" /></cc:Work></rdf:RDF></metadata><defs
     id="defs6"><clipPath
       id="clipPath14"
       clipPathUnits="userSpaceOnUse"><path
         id="path12"
         d="M 17.08,15.97 H 323.907 V 69.8894 H 17.08 Z" /></clipPath><clipPath
       id="clipPath24"
       clipPathUnits="userSpaceOnUse"><path
         id="path22"
         d="M 0,0 H 340.157 V 85.039 H 0 Z" /></clipPath></defs><g
     clip-path="url(#clipPath14)"
     transform="matrix(1.3333333,0,0,-1.3333333,-22.773333,93.185867)"
     id="g10"><path
       id="path16"
       style="fill:#040305;fill-opacity:1;fill-rule:nonzero;stroke:none"
       d="m 182.943,18.196 h 0.52 v 48.647 h -0.52 z" /><g
       id="g18"><g
         clip-path="url(#clipPath24)"
         id="g20"><g
           transform="translate(79.3356,49.2658)"
           id="g26"><path
             id="path28"
             style="fill:#040305;fill-opacity:1;fill-rule:nonzero;stroke:none"
             d="m 0,0 c 0.707,0.692 1.504,1.203 2.392,1.535 0.887,0.33 1.783,0.496 2.685,0.496 1.113,0 2.173,-0.242 3.182,-0.722 1.007,-0.482 1.864,-1.166 2.572,-2.054 0.706,-0.887 1.106,-1.948 1.195,-3.181 V -4.287 H -2.15 c 0.107,0.566 0.246,1.098 0.435,1.58 C -1.279,-1.595 -0.707,-0.692 0,0 m 15.321,-6.927 c 0.361,0.316 0.541,0.714 0.541,1.196 -0.029,1.715 -0.346,3.249 -0.947,4.603 -0.602,1.354 -1.399,2.527 -2.392,3.52 C 11.53,3.385 10.387,4.136 9.093,4.648 7.799,5.159 6.46,5.415 5.077,5.415 3.211,5.415 1.444,4.926 -0.225,3.949 -1.895,2.971 -3.249,1.557 -4.287,-0.293 c -1.038,-1.85 -1.557,-4.084 -1.557,-6.702 0,-2.346 0.497,-4.415 1.49,-6.205 0.993,-1.79 2.391,-3.197 4.196,-4.219 1.806,-1.023 3.926,-1.534 6.363,-1.534 1.625,0 3.151,0.346 4.581,1.037 1.429,0.692 2.579,1.504 3.452,2.438 0.481,0.421 0.722,0.887 0.722,1.398 0,0.421 -0.15,0.783 -0.451,1.084 -0.301,0.299 -0.662,0.451 -1.083,0.451 -0.392,0 -0.783,-0.136 -1.174,-0.406 -0.391,-0.422 -0.865,-0.835 -1.421,-1.242 -0.557,-0.406 -1.226,-0.744 -2.009,-1.015 -0.782,-0.27 -1.699,-0.406 -2.752,-0.406 -1.685,0 -3.159,0.383 -4.422,1.151 -1.264,0.767 -2.25,1.812 -2.957,3.136 -0.614,1.15 -0.96,2.458 -1.041,3.926 h 16.407 c 0.481,0 0.903,0.158 1.264,0.474" /></g><g
           transform="translate(119.1158,42.497)"
           id="g30"><path
             id="path32"
             style="fill:#040305;fill-opacity:1;fill-rule:nonzero;stroke:none"
             d="m 0,0 c 0,1.745 -0.354,3.272 -1.06,4.58 -0.708,1.309 -1.67,2.347 -2.889,3.114 -1.219,0.767 -2.58,1.151 -4.084,1.151 -1.534,0 -2.911,-0.384 -4.129,-1.151 C -13.38,6.927 -14.351,5.889 -15.073,4.58 -15.795,3.272 -16.156,1.745 -16.156,0 c 0,-1.715 0.361,-3.234 1.083,-4.558 0.722,-1.324 1.693,-2.37 2.911,-3.137 1.218,-0.767 2.595,-1.15 4.129,-1.15 1.504,0 2.865,0.383 4.084,1.15 1.219,0.767 2.181,1.813 2.889,3.137 C -0.354,-3.234 0,-1.715 0,0 m 3.655,0 c 0,-2.347 -0.518,-4.438 -1.557,-6.273 -1.038,-1.835 -2.436,-3.28 -4.196,-4.332 -1.76,-1.054 -3.739,-1.579 -5.935,-1.579 -2.196,0 -4.182,0.525 -5.957,1.579 -1.775,1.052 -3.181,2.497 -4.219,4.332 -1.038,1.835 -1.557,3.926 -1.557,6.273 0,2.347 0.519,4.437 1.557,6.273 1.038,1.834 2.444,3.278 4.219,4.332 1.775,1.052 3.761,1.579 5.957,1.579 2.196,0 4.175,-0.527 5.935,-1.579 C -0.338,9.551 1.06,8.107 2.098,6.273 3.137,4.437 3.655,2.347 3.655,0" /></g><g
           transform="translate(126.8326,34.4641)"
           id="g34"><path
             id="path36"
             style="fill:#040305;fill-opacity:1;fill-rule:nonzero;stroke:none"
             d="m 0,0 c -0.241,0.391 -0.354,0.804 -0.339,1.241 0.015,0.436 0.263,0.819 0.745,1.151 0.331,0.21 0.699,0.3 1.106,0.27 0.405,-0.03 0.774,-0.225 1.105,-0.586 0.842,-0.993 1.805,-1.783 2.888,-2.369 1.083,-0.587 2.407,-0.88 3.971,-0.88 0.692,0.029 1.407,0.15 2.144,0.36 0.737,0.211 1.354,0.579 1.85,1.106 0.497,0.526 0.745,1.226 0.745,2.099 0,0.842 -0.256,1.512 -0.767,2.008 C 12.936,4.896 12.267,5.302 11.44,5.618 10.612,5.935 9.732,6.212 8.799,6.453 7.807,6.724 6.829,7.024 5.866,7.356 4.903,7.686 4.039,8.116 3.272,8.642 2.505,9.168 1.888,9.83 1.421,10.628 c -0.467,0.796 -0.7,1.782 -0.7,2.956 0,1.353 0.369,2.527 1.106,3.52 0.737,0.993 1.722,1.76 2.957,2.301 1.233,0.541 2.601,0.812 4.106,0.812 0.842,0 1.722,-0.098 2.64,-0.293 0.917,-0.196 1.812,-0.527 2.685,-0.993 0.872,-0.467 1.64,-1.106 2.301,-1.918 0.271,-0.301 0.421,-0.676 0.452,-1.128 0.03,-0.452 -0.166,-0.858 -0.587,-1.219 -0.331,-0.241 -0.7,-0.353 -1.105,-0.338 -0.407,0.015 -0.745,0.158 -1.016,0.428 -0.662,0.783 -1.466,1.377 -2.415,1.783 -0.947,0.407 -1.992,0.61 -3.136,0.61 -0.692,0 -1.383,-0.113 -2.075,-0.339 C 5.941,16.584 5.362,16.231 4.896,15.749 4.429,15.268 4.196,14.591 4.196,13.719 4.227,12.906 4.497,12.244 5.009,11.733 5.52,11.221 6.212,10.808 7.085,10.492 7.957,10.176 8.919,9.868 9.973,9.567 10.936,9.326 11.86,9.048 12.748,8.732 13.635,8.417 14.441,8.003 15.163,7.491 15.885,6.979 16.456,6.325 16.878,5.528 17.299,4.73 17.509,3.73 17.509,2.527 c 0,-1.384 -0.391,-2.58 -1.173,-3.587 -0.783,-1.009 -1.813,-1.776 -3.091,-2.302 -1.28,-0.526 -2.656,-0.79 -4.129,-0.79 -1.655,0 -3.295,0.309 -4.92,0.925 C 2.573,-2.61 1.173,-1.534 0,0" /></g><g
           transform="translate(159.9107,54.6813)"
           id="g38"><path
             id="path40"
             style="fill:#040305;fill-opacity:1;fill-rule:nonzero;stroke:none"
             d="M 0,0 C 1.564,0 2.963,-0.166 4.197,-0.497 5.43,-0.828 6.408,-1.279 7.13,-1.85 7.852,-2.422 8.213,-3.069 8.213,-3.791 8.213,-4.212 8.078,-4.603 7.808,-4.964 7.536,-5.325 7.16,-5.506 6.679,-5.506 c -0.391,0 -0.715,0.083 -0.97,0.249 -0.256,0.165 -0.496,0.361 -0.722,0.586 -0.226,0.226 -0.535,0.444 -0.925,0.654 -0.362,0.181 -0.888,0.339 -1.58,0.475 -0.693,0.135 -1.384,0.202 -2.076,0.202 -1.654,0 -3.106,-0.391 -4.355,-1.173 -1.248,-0.782 -2.234,-1.836 -2.955,-3.159 -0.723,-1.324 -1.083,-2.828 -1.083,-4.512 0,-1.686 0.345,-3.19 1.037,-4.513 0.693,-1.324 1.655,-2.377 2.888,-3.159 1.234,-0.783 2.663,-1.174 4.287,-1.174 1.054,0 1.889,0.091 2.505,0.271 0.617,0.18 1.151,0.391 1.603,0.632 0.51,0.301 0.909,0.602 1.195,0.903 0.286,0.3 0.684,0.451 1.196,0.451 0.511,0 0.91,-0.166 1.196,-0.496 0.286,-0.332 0.429,-0.738 0.429,-1.219 0,-0.572 -0.376,-1.159 -1.129,-1.76 -0.752,-0.602 -1.775,-1.106 -3.068,-1.512 -1.294,-0.406 -2.739,-0.609 -4.332,-0.609 -2.287,0 -4.287,0.534 -6.003,1.602 -1.714,1.068 -3.046,2.527 -3.994,4.377 -0.947,1.851 -1.421,3.919 -1.421,6.206 0,2.285 0.489,4.347 1.467,6.182 0.977,1.835 2.339,3.294 4.084,4.377 C -4.302,-0.542 -2.287,0 0,0" /></g><g
           transform="translate(40.4842,52.7282)"
           id="g42"><path
             id="path44"
             style="fill:#80529a;fill-opacity:1;fill-rule:nonzero;stroke:none"
             d="m 0,0 c -1.975,1.277 -4.263,1.953 -6.616,1.953 -2.355,0 -4.644,-0.676 -6.62,-1.955 -0.403,-0.261 -0.663,-0.687 -0.714,-1.168 -0.052,-0.492 0.119,-0.974 0.467,-1.322 l 0.662,-0.662 c 0.314,-0.314 0.726,-0.476 1.14,-0.476 0.289,0 0.578,0.078 0.837,0.238 1.271,0.785 2.733,1.201 4.228,1.201 1.493,0 2.954,-0.415 4.224,-1.199 0.633,-0.391 1.446,-0.294 1.977,0.238 l 0.662,0.662 c 0.349,0.349 0.519,0.831 0.467,1.322 C 0.663,-0.686 0.403,-0.261 0,0" /></g><g
           transform="translate(31.9934,34.5369)"
           id="g46"><path
             id="path48"
             style="fill:#3ea3dc;fill-opacity:1;fill-rule:nonzero;stroke:none"
             d="m 0,0 c -3.689,0.873 -6.266,4.13 -6.266,7.921 0,1.503 0.417,2.975 1.207,4.254 0.375,0.609 0.281,1.391 -0.23,1.901 l -0.662,0.662 c -0.335,0.336 -0.799,0.499 -1.272,0.45 -0.464,-0.05 -0.873,-0.299 -1.123,-0.687 -1.27,-1.964 -1.941,-4.24 -1.941,-6.58 0,-5.687 4.035,-10.685 9.594,-11.885 0.106,-0.023 0.212,-0.034 0.319,-0.034 0.343,0 0.68,0.118 0.956,0.341 0.37,0.299 0.583,0.744 0.583,1.219 v 0.923 C 1.165,-0.797 0.675,-0.159 0,0" /></g><g
           transform="translate(54.17,54.6195)"
           id="g50"><path
             id="path52"
             style="fill:#80529a;fill-opacity:1;fill-rule:nonzero;stroke:none"
             d="m 0,0 c -6.706,0 -12.162,-5.456 -12.162,-12.162 l 0.006,-0.053 -0.007,-0.061 c -0.052,-3.815 -2.807,-7.124 -6.549,-7.868 -0.51,-0.101 -0.881,-0.553 -0.881,-1.072 v -1.856 c 0,-0.325 0.142,-0.632 0.391,-0.844 0.242,-0.206 0.56,-0.295 0.871,-0.244 5.905,0.966 10.19,6.013 10.19,11.999 0,4.488 3.652,8.14 8.141,8.14 4.489,0 8.141,-3.652 8.141,-8.141 0,-4.488 -3.652,-8.141 -8.141,-8.141 -1.108,0 -2.01,-0.901 -2.01,-2.01 0,-1.108 0.902,-2.01 2.01,-2.01 6.706,0 12.162,5.456 12.162,12.161 C 12.162,-5.456 6.706,0 0,0" /></g><g
           transform="translate(275.3793,30.6019)"
           id="g54"><path
             id="path56"
             style="fill:#80529a;fill-opacity:1;fill-rule:nonzero;stroke:none"
             d="m 0,0 h 3.387 v 0.197 l -5.623,10.162 c 1.436,0.548 2.557,1.376 3.362,2.483 0.806,1.107 1.209,2.406 1.209,3.897 0,2.346 -0.726,4.133 -2.179,5.361 -1.452,1.227 -3.527,1.841 -6.224,1.841 h -7.925 V 0 h 3.173 v 9.685 h 5.624 z m -10.82,21.36 h 4.835 c 1.666,-0.011 2.94,-0.412 3.823,-1.203 0.882,-0.791 1.323,-1.927 1.323,-3.41 0,-1.362 -0.463,-2.449 -1.389,-3.262 -0.927,-0.812 -2.173,-1.218 -3.741,-1.218 H -10.82 Z M 18.958,8.772 C 19.78,8.131 20.192,7.224 20.192,6.051 20.192,4.878 19.748,3.952 18.86,3.272 17.972,2.592 16.695,2.253 15.028,2.253 13.241,2.253 11.814,2.672 10.745,3.511 9.676,4.349 9.142,5.492 9.142,6.939 H 5.968 C 5.968,5.547 6.355,4.302 7.127,3.206 7.9,2.11 8.999,1.247 10.424,0.617 c 1.425,-0.631 2.96,-0.946 4.604,-0.946 2.533,0 4.555,0.584 6.068,1.751 1.513,1.168 2.269,2.722 2.269,4.662 0,1.217 -0.271,2.275 -0.814,3.173 -0.543,0.899 -1.376,1.686 -2.499,2.36 -1.124,0.674 -2.68,1.291 -4.67,1.851 -1.99,0.561 -3.398,1.178 -4.226,1.854 -0.828,0.675 -1.241,1.501 -1.241,2.479 0,1.219 0.435,2.171 1.307,2.858 0.871,0.686 2.085,1.03 3.642,1.03 1.677,0 2.976,-0.416 3.897,-1.246 0.921,-0.831 1.381,-1.972 1.381,-3.424 h 3.174 c 0,1.326 -0.354,2.548 -1.061,3.666 -0.707,1.119 -1.705,1.996 -2.993,2.631 -1.288,0.636 -2.754,0.954 -4.398,0.954 -2.412,0 -4.371,-0.617 -5.878,-1.85 -1.508,-1.233 -2.261,-2.793 -2.261,-4.678 0,-1.666 0.616,-3.066 1.849,-4.201 1.234,-1.135 3.204,-2.091 5.912,-2.869 2.159,-0.625 3.65,-1.258 4.472,-1.9 m 22.658,4.876 H 31.241 v 7.712 h 11.888 v 2.581 H 28.084 V 0 H 43.293 V 2.582 H 31.241 v 8.484 h 10.375 z" /></g></g></g><g
       transform="translate(213.2097,44.2498)"
       id="g58"><path
         id="path60"
         style="fill:#3ea3dc;fill-opacity:1;fill-rule:nonzero;stroke:none"
         d="M 0,0 H -10.376 V 7.712 H 1.513 v 2.581 h -15.046 v -23.941 h 15.21 v 2.582 h -12.053 v 8.484 L 0,-2.582 Z M 7.399,10.293 H 3.962 l 8.863,-23.941 H 15.62 L 24.5,10.293 H 21.047 L 14.206,-9.455 Z M 41.912,0 H 31.537 v 7.712 h 11.888 v 2.581 H 28.38 v -23.941 h 15.209 v 2.582 H 31.537 v 8.484 h 10.375 z" /></g></g></svg>