<svg width="185" height="40" viewBox="0 0 185 40" fill="none" xmlns="http://www.w3.org/2000/svg">
<mask id="mask0_2389_111" style="mask-type:luminance" maskUnits="userSpaceOnUse" x="0" y="0" width="185" height="40">
<path d="M185 0H0V39.4039H185V0Z" fill="white"/>
</mask>
<g mask="url(#mask0_2389_111)">
<path d="M58.1226 0H0V39.4039H58.1226V0Z" fill="#034EA2"/>
<path d="M57.0051 1.08179H1.11841V38.2793H57.0051V1.08179Z" fill="#034EA2"/>
<path d="M27.8719 9.18641L29.05 8.32502L30.2282 9.18641L29.7811 7.79558L30.9793 6.93705H29.503L29.05 5.52905L28.5972 6.93705H27.1238L28.3191 7.79558L27.8719 9.18641Z" fill="#FCEE23"/>
<path d="M21.7691 10.8231L22.9473 9.96174L24.1255 10.8231L23.6783 9.4323L24.8736 8.57377H23.3974L22.9473 7.16577L22.4944 8.57377H21.0181L22.2163 9.4323L21.7691 10.8231Z" fill="#FCEE23"/>
<path d="M18.4806 11.6331L18.0305 13.0439L16.5542 13.0411L17.7496 13.8996L17.3024 15.2904L18.4806 14.4319L19.6616 15.2904L19.2116 13.8996L20.4097 13.0411H18.9335L18.4806 11.6331Z" fill="#FCEE23"/>
<path d="M16.8437 20.5161L18.022 21.3746L17.5748 19.9867L18.7701 19.1253H17.2939L16.8437 17.7173L16.3909 19.1281L14.9146 19.1253L16.1128 19.9867L15.6628 21.3746L16.8437 20.5161Z" fill="#FCEE23"/>
<path d="M18.9335 25.2293L18.4806 23.8213L18.0305 25.2322L16.5542 25.2293L17.7496 26.0879L17.3024 27.4787L18.4806 26.6173L19.6616 27.4787L19.2116 26.0879L20.4097 25.2293H18.9335Z" fill="#FCEE23"/>
<path d="M23.4087 29.6968L22.9559 28.2888L22.5058 29.6968H21.0295L22.2249 30.5554L21.7777 31.9433L22.9559 31.0848L24.134 31.9433L23.6868 30.5554L24.8851 29.6968H23.4087Z" fill="#FCEE23"/>
<path d="M29.503 31.3138L29.05 29.9058L28.6 31.3167L27.1238 31.3138L28.3191 32.1723L27.8719 33.5632L29.053 32.7046L30.2311 33.5632L29.7811 32.1723L30.9793 31.3138H29.503Z" fill="#FCEE23"/>
<path d="M35.5973 29.6968L35.1472 28.2888L34.6944 29.6968H33.218L34.4163 30.5554L33.9663 31.9433L35.1472 31.0848L36.3254 31.9433L35.8754 30.5554L37.0736 29.6968H35.5973Z" fill="#FCEE23"/>
<path d="M40.0715 25.2293L39.6213 23.8213L39.1684 25.2322L37.6921 25.2293L38.8904 26.0879L38.4403 27.4787L39.6213 26.6173L40.7995 27.4787L40.3494 26.0879L41.5477 25.2293H40.0715Z" fill="#FCEE23"/>
<path d="M43.1678 19.108H41.6916L41.2414 17.7L40.7885 19.1109L39.3123 19.108L40.5105 19.9694L40.0633 21.3574L41.2414 20.496L42.4197 21.3574L41.9725 19.9694L43.1678 19.108Z" fill="#FCEE23"/>
<path d="M38.4403 15.2705L39.6185 14.4119L40.7995 15.2705L40.3494 13.8825L41.5477 13.0239H40.0715L39.6185 11.616L39.1684 13.0269L37.6921 13.0239L38.8904 13.8825L38.4403 15.2705Z" fill="#FCEE23"/>
<path d="M35.1645 7.16577L34.7116 8.57663L33.2354 8.57377L34.4336 9.43517L33.9835 10.8231L35.1645 9.96174L36.3426 10.8231L35.8955 9.43517L37.0937 8.57377H35.6145L35.1645 7.16577Z" fill="#FCEE23"/>
<path d="M65.1206 15.07V5.91797H71.4071V7.4662H66.9725V9.63257H70.7994V11.1808H66.9725V15.07H65.1206Z" fill="#034EA2"/>
<path d="M77.2924 15.0699V14.0769C77.0516 14.4317 76.7334 14.7093 76.3379 14.9125C75.9451 15.1157 75.5266 15.2188 75.0908 15.2188C74.6552 15.2188 74.2452 15.1215 73.8897 14.9239C73.5343 14.7293 73.2792 14.4546 73.1216 14.0998C72.9639 13.7449 72.8835 13.2556 72.8835 12.6317V8.43628H74.6408V11.4841C74.6408 12.417 74.6724 12.9865 74.7383 13.1983C74.8013 13.4072 74.9217 13.576 75.0908 13.6991C75.2629 13.8222 75.4778 13.8823 75.7416 13.8823C76.0426 13.8823 76.3121 13.7992 76.547 13.6362C76.785 13.473 76.9484 13.267 77.0344 13.0237C77.1232 12.7805 77.1662 12.1852 77.1662 11.2351V8.43914H78.9235V15.0699H77.2924Z" fill="#034EA2"/>
<path d="M86.7857 15.07H85.0284V11.6845C85.0284 10.9691 84.9912 10.5055 84.9167 10.2966C84.8421 10.0877 84.7188 9.92168 84.5497 9.80721C84.3805 9.68988 84.177 9.63265 83.9391 9.63265C83.6352 9.63265 83.3629 9.71563 83.1192 9.88162C82.8785 10.0476 82.7122 10.268 82.6234 10.5427C82.5345 10.8174 82.4887 11.324 82.4887 12.0652V15.0672H80.7314V8.43928H82.3625V9.41228C82.9415 8.66249 83.6726 8.2876 84.5526 8.2876C84.9395 8.2876 85.295 8.35628 85.616 8.49652C85.9371 8.63674 86.1808 8.81417 86.3441 9.03167C86.5076 9.24916 86.6222 9.49241 86.6882 9.76715C86.7512 10.0419 86.7857 10.4339 86.7857 10.9462V15.0672V15.07Z" fill="#034EA2"/>
<path d="M94.6608 15.0699H93.0298V14.0969C92.7575 14.4747 92.4393 14.7579 92.0695 14.9439C91.6998 15.1299 91.3271 15.2216 90.9545 15.2216C90.192 15.2216 89.5383 14.9154 88.9937 14.3001C88.4491 13.6848 88.1768 12.8291 88.1768 11.7302C88.1768 10.6313 88.4405 9.7527 88.9707 9.16603C89.5011 8.58223 90.169 8.28746 90.9773 8.28746C91.7198 8.28746 92.3619 8.59653 92.9037 9.21182V5.91504H94.6608V15.0699ZM89.9711 11.61C89.9711 12.3169 90.0686 12.8291 90.2664 13.1468C90.5502 13.6047 90.9459 13.8336 91.4561 13.8336C91.8603 13.8336 92.2042 13.6619 92.4881 13.3185C92.7718 12.9751 92.9123 12.4628 92.9123 11.7789C92.9123 11.0176 92.7747 10.4681 92.4995 10.1333C92.2243 9.79849 91.8717 9.62964 91.4417 9.62964C91.0117 9.62964 90.6764 9.79563 90.3955 10.1247C90.1145 10.4567 89.9741 10.9489 89.9741 11.6071L89.9711 11.61Z" fill="#034EA2"/>
<path d="M100.242 12.9608L101.994 13.2555C101.767 13.8966 101.412 14.3859 100.927 14.7207C100.44 15.0557 99.8322 15.2245 99.1041 15.2245C97.9489 15.2245 97.0946 14.8467 96.5385 14.094C96.1 13.4902 95.8821 12.729 95.8821 11.8074C95.8821 10.7086 96.1688 9.84715 96.745 9.22615C97.3211 8.60514 98.0463 8.29321 98.9263 8.29321C99.9153 8.29321 100.695 8.61945 101.265 9.26907C101.836 9.92157 102.111 10.9175 102.085 12.2625H97.6824C97.6938 12.7833 97.8371 13.1868 98.1066 13.4759C98.3789 13.765 98.7142 13.9108 99.1213 13.9108C99.3965 13.9108 99.6287 13.8365 99.815 13.6848C100.001 13.5332 100.145 13.2927 100.239 12.9608H100.242ZM100.342 11.1865C100.331 10.6799 100.199 10.2936 99.9497 10.0274C99.7004 9.76417 99.3965 9.62966 99.0353 9.62966C98.6512 9.62966 98.3359 9.7699 98.0836 10.0475C97.8342 10.3251 97.711 10.7057 97.7138 11.1836H100.34L100.342 11.1865Z" fill="#034EA2"/>
<path d="M109.61 15.0699H107.979V14.0969C107.707 14.4747 107.388 14.7579 107.019 14.9439C106.649 15.1299 106.276 15.2216 105.903 15.2216C105.141 15.2216 104.487 14.9154 103.943 14.3001C103.398 13.6848 103.126 12.8291 103.126 11.7302C103.126 10.6313 103.389 9.7527 103.92 9.16603C104.45 8.58223 105.118 8.28746 105.926 8.28746C106.669 8.28746 107.311 8.59653 107.853 9.21182V5.91504H109.61V15.0699ZM104.92 11.61C104.92 12.3169 105.018 12.8291 105.215 13.1468C105.499 13.6047 105.895 13.8336 106.405 13.8336C106.809 13.8336 107.153 13.6619 107.437 13.3185C107.721 12.9751 107.861 12.4628 107.861 11.7789C107.861 11.0176 107.724 10.4681 107.448 10.1333C107.173 9.79849 106.821 9.62964 106.391 9.62964C105.961 9.62964 105.625 9.79563 105.344 10.1247C105.064 10.4567 104.923 10.9489 104.923 11.6071L104.92 11.61Z" fill="#034EA2"/>
<path d="M114.827 15.07V5.91797H116.584V9.21474C117.126 8.59946 117.768 8.29039 118.511 8.29039C119.319 8.29039 119.989 8.5823 120.517 9.16896C121.048 9.75277 121.312 10.5941 121.312 11.6873C121.312 12.7806 121.042 13.6906 120.5 14.3029C119.961 14.9154 119.305 15.2217 118.533 15.2217C118.155 15.2217 117.779 15.1272 117.41 14.9384C117.04 14.7494 116.722 14.4689 116.455 14.0998V15.0728H114.824L114.827 15.07ZM116.573 11.6101C116.573 12.2969 116.682 12.8034 116.897 13.1325C117.2 13.5989 117.605 13.8308 118.109 13.8308C118.497 13.8308 118.829 13.6648 119.101 13.3358C119.373 13.0038 119.511 12.4829 119.511 11.7704C119.511 11.0119 119.373 10.4653 119.097 10.1305C118.823 9.79569 118.471 9.62685 118.041 9.62685C117.61 9.62685 117.269 9.78997 116.988 10.1162C116.71 10.4425 116.57 10.9404 116.57 11.6043L116.573 11.6101Z" fill="#034EA2"/>
<path d="M121.893 8.43921H123.761L125.35 13.1468L126.901 8.43921H128.721L126.376 14.821L125.958 15.9772C125.803 16.3635 125.656 16.6612 125.516 16.8643C125.376 17.0675 125.216 17.2335 125.035 17.3594C124.854 17.4853 124.631 17.5855 124.367 17.657C124.103 17.7286 123.803 17.7629 123.469 17.7629C123.137 17.7629 122.802 17.7286 122.475 17.657L122.317 16.2834C122.593 16.3378 122.842 16.3635 123.063 16.3635C123.473 16.3635 123.773 16.2433 123.969 16.0058C124.163 15.7654 124.315 15.462 124.419 15.09L121.893 8.43921Z" fill="#034EA2"/>
<path d="M68.1417 23.7839V25.1833H66.9406V27.8562C66.9406 28.3971 66.952 28.7119 66.975 28.8034C66.998 28.8922 67.0496 28.9666 67.1327 29.0238C67.2129 29.0811 67.3133 29.1125 67.4308 29.1125C67.5942 29.1125 67.8292 29.0553 68.1389 28.9437L68.2879 30.3059C67.878 30.4805 67.4164 30.5692 66.9005 30.5692C66.5823 30.5692 66.2985 30.5149 66.0434 30.4089C65.7883 30.303 65.6019 30.1657 65.4844 29.9969C65.3669 29.8279 65.2837 29.599 65.2379 29.3129C65.2007 29.1097 65.1805 28.6976 65.1805 28.0765V25.1862H64.375V23.7867H65.1805V22.4703L66.9434 21.4458V23.7867H68.1445L68.1417 23.7839Z" fill="#034EA2"/>
<path d="M71.1151 21.2627V24.6282C71.6827 23.9672 72.3592 23.6352 73.1475 23.6352C73.5516 23.6352 73.9157 23.7095 74.2425 23.8613C74.5664 24.0101 74.8129 24.2018 74.9764 24.4365C75.1397 24.6712 75.2543 24.9287 75.3146 25.212C75.3748 25.4953 75.4063 25.9332 75.4063 26.5285V30.4176H73.6491V26.9148C73.6491 26.2194 73.6147 25.7787 73.5488 25.5898C73.4828 25.4009 73.3653 25.2549 73.1961 25.1433C73.027 25.0318 72.8149 24.9773 72.5627 24.9773C72.2703 24.9773 72.0094 25.0489 71.7801 25.1892C71.5508 25.3293 71.3845 25.544 71.2755 25.8301C71.1695 26.1163 71.1151 26.537 71.1151 27.095V30.4176H69.3579V21.2627H71.1151Z" fill="#034EA2"/>
<path d="M81.0328 28.3055L82.7843 28.6003C82.5579 29.2414 82.2025 29.7306 81.7179 30.0655C81.2307 30.4003 80.6229 30.5691 79.8948 30.5691C78.7395 30.5691 77.8854 30.1915 77.3293 29.4388C76.8906 28.8349 76.6729 28.0737 76.6729 27.1522C76.6729 26.0532 76.9594 25.1918 77.5356 24.5709C78.1118 23.9498 78.8371 23.6379 79.7171 23.6379C80.7061 23.6379 81.4858 23.9642 82.0562 24.6138C82.6267 25.2663 82.9019 26.2622 82.8761 27.6072H78.473C78.4844 28.1281 78.6278 28.5316 78.8973 28.8206C79.1696 29.1097 79.505 29.2556 79.912 29.2556C80.1873 29.2556 80.4194 29.1812 80.6057 29.0296C80.7921 28.8778 80.9354 28.6375 81.03 28.3055H81.0328ZM81.1332 26.5312C81.1217 26.0246 80.9898 25.6383 80.7405 25.3722C80.491 25.1089 80.1873 24.9744 79.8261 24.9744C79.442 24.9744 79.1266 25.1146 78.8744 25.3922C78.6249 25.6698 78.5016 26.0504 78.5046 26.5283H81.1303L81.1332 26.5312Z" fill="#034EA2"/>
<path d="M87.8811 30.4176V21.2627H94.6806V22.8109H89.7329V24.84H94.3365V26.3825H89.7329V28.875H94.8555V30.4176H87.8811Z" fill="#034EA2"/>
<path d="M100.783 30.4176V29.4245C100.542 29.7793 100.224 30.057 99.8287 30.2602C99.436 30.4633 99.0174 30.5664 98.5818 30.5664C98.146 30.5664 97.7361 30.4691 97.3807 30.2716C97.0252 30.077 96.7701 29.8023 96.6124 29.4475C96.4548 29.0925 96.3745 28.6032 96.3745 27.9793V23.7839H98.1317V26.8317C98.1317 27.7646 98.1632 28.3342 98.2292 28.5459C98.2923 28.7577 98.4126 28.9237 98.5818 29.0468C98.7537 29.1698 98.9688 29.2299 99.2325 29.2299C99.5334 29.2299 99.8029 29.1469 100.038 28.9838C100.276 28.8206 100.439 28.6146 100.525 28.3713C100.614 28.1282 100.657 27.5329 100.657 26.5828V23.7868H102.414V30.4176H100.783Z" fill="#034EA2"/>
<path d="M105.92 30.4175H104.163V23.7868H105.794V24.7283C106.072 24.2818 106.324 23.99 106.548 23.8469C106.771 23.7067 107.023 23.635 107.307 23.635C107.708 23.635 108.093 23.7467 108.465 23.967L107.921 25.4981C107.625 25.3063 107.35 25.212 107.095 25.212C106.84 25.212 106.639 25.2805 106.47 25.4151C106.298 25.5496 106.163 25.7957 106.066 26.1477C105.969 26.5025 105.92 27.2437 105.92 28.3714V30.4203V30.4175Z" fill="#034EA2"/>
<path d="M108.815 27.0062C108.815 26.4224 108.958 25.8587 109.248 25.3149C109.534 24.7683 109.942 24.3534 110.472 24.0672C110.999 23.781 111.587 23.635 112.238 23.635C113.244 23.635 114.066 23.9614 114.709 24.6109C115.351 25.2634 115.672 26.0848 115.672 27.0807C115.672 28.0765 115.348 28.915 114.7 29.5761C114.052 30.2372 113.235 30.5663 112.252 30.5663C111.644 30.5663 111.062 30.4289 110.509 30.1542C109.956 29.8795 109.537 29.476 109.248 28.9465C108.961 28.4171 108.815 27.7703 108.815 27.0091V27.0062ZM110.615 27.1007C110.615 27.7589 110.773 28.2625 111.085 28.6117C111.398 28.9609 111.785 29.1354 112.243 29.1354C112.702 29.1354 113.086 28.9609 113.399 28.6117C113.708 28.2625 113.866 27.7531 113.866 27.0892C113.866 26.4252 113.711 25.9417 113.399 25.5897C113.086 25.2377 112.702 25.066 112.243 25.066C111.785 25.066 111.398 25.2405 111.085 25.5897C110.773 25.9388 110.615 26.4424 110.615 27.1007Z" fill="#034EA2"/>
<path d="M116.997 23.784H118.637V24.757C118.849 24.425 119.138 24.1531 119.5 23.9442C119.86 23.7354 120.264 23.6323 120.706 23.6323C121.477 23.6323 122.131 23.9328 122.669 24.5367C123.209 25.1404 123.475 25.9819 123.475 27.0579C123.475 28.134 123.203 29.0268 122.661 29.6393C122.119 30.2544 121.463 30.5607 120.692 30.5607C120.324 30.5607 119.992 30.4891 119.694 30.3433C119.396 30.1973 119.084 29.9483 118.754 29.5934V32.9331H116.997V23.7783V23.784ZM118.734 26.9863C118.734 27.7304 118.883 28.2827 119.178 28.6376C119.474 28.9924 119.834 29.1699 120.258 29.1699C120.684 29.1699 121.007 29.0068 121.28 28.6806C121.552 28.3543 121.687 27.8191 121.687 27.0722C121.687 26.3768 121.546 25.8616 121.268 25.524C120.99 25.1863 120.643 25.0174 120.23 25.0174C119.818 25.0174 119.445 25.1834 119.161 25.5126C118.877 25.8444 118.737 26.3339 118.737 26.9835L118.734 26.9863Z" fill="#034EA2"/>
<path d="M128.715 28.3055L130.468 28.6003C130.241 29.2414 129.885 29.7306 129.401 30.0655C128.913 30.4003 128.305 30.5691 127.578 30.5691C126.422 30.5691 125.568 30.1915 125.012 29.4388C124.573 28.8349 124.355 28.0737 124.355 27.1522C124.355 26.0532 124.642 25.1918 125.218 24.5709C125.794 23.9498 126.52 23.6379 127.4 23.6379C128.389 23.6379 129.169 23.9642 129.739 24.6138C130.31 25.2663 130.584 26.2622 130.559 27.6072H126.156C126.168 28.1281 126.31 28.5316 126.58 28.8206C126.852 29.1097 127.188 29.2556 127.595 29.2556C127.87 29.2556 128.103 29.1812 128.289 29.0296C128.475 28.8778 128.619 28.6375 128.713 28.3055H128.715ZM128.816 26.5312C128.805 26.0246 128.673 25.6383 128.423 25.3722C128.174 25.1089 127.87 24.9744 127.509 24.9744C127.125 24.9744 126.81 25.1146 126.558 25.3922C126.308 25.6698 126.184 26.0504 126.188 26.5283H128.813L128.816 26.5312Z" fill="#034EA2"/>
<path d="M133.307 25.8071L131.714 25.521C131.894 24.8799 132.201 24.4049 132.64 24.0986C133.079 23.7896 133.729 23.6379 134.592 23.6379C135.374 23.6379 135.96 23.7295 136.344 23.9155C136.728 24.1016 136.997 24.3362 137.155 24.6224C137.312 24.9085 137.39 25.4294 137.39 26.1935L137.369 28.2425C137.369 28.8263 137.398 29.2556 137.453 29.5332C137.51 29.8108 137.613 30.1056 137.768 30.4232H136.028C135.982 30.3059 135.924 30.1342 135.858 29.9052C135.83 29.8022 135.81 29.7336 135.796 29.6992C135.494 29.9911 135.174 30.2085 134.833 30.3545C134.491 30.5005 134.125 30.5721 133.737 30.5721C133.053 30.5721 132.513 30.3861 132.121 30.0169C131.728 29.6448 131.53 29.1783 131.53 28.6117C131.53 28.2368 131.619 27.9019 131.8 27.6101C131.98 27.3153 132.23 27.0921 132.554 26.9346C132.877 26.7774 133.343 26.6428 133.953 26.5255C134.775 26.3709 135.343 26.2278 135.662 26.0933V25.9188C135.662 25.5811 135.578 25.3406 135.412 25.1976C135.246 25.0545 134.93 24.983 134.469 24.983C134.156 24.983 133.913 25.0431 133.737 25.1662C133.563 25.2891 133.419 25.5038 133.313 25.8129L133.307 25.8071ZM135.658 27.2295C135.432 27.3038 135.076 27.3925 134.589 27.4985C134.101 27.6015 133.783 27.7045 133.631 27.8046C133.403 27.9678 133.287 28.1738 133.287 28.4229C133.287 28.6718 133.379 28.8808 133.563 29.061C133.747 29.2414 133.979 29.3301 134.262 29.3301C134.58 29.3301 134.881 29.227 135.168 29.0181C135.38 28.8606 135.52 28.6661 135.586 28.4371C135.632 28.2883 135.656 28.0022 135.656 27.5815V27.2323L135.658 27.2295Z" fill="#034EA2"/>
<path d="M145.161 30.4176H143.403V27.0321C143.403 26.3167 143.367 25.853 143.291 25.6442C143.217 25.4353 143.094 25.2693 142.925 25.1548C142.756 25.0375 142.552 24.9802 142.314 24.9802C142.01 24.9802 141.738 25.0633 141.494 25.2291C141.254 25.3951 141.088 25.6155 140.998 25.8903C140.91 26.165 140.864 26.6715 140.864 27.4128V30.4148H139.107V23.784H140.738V24.757C141.316 24.0073 142.048 23.6323 142.928 23.6323C143.315 23.6323 143.671 23.701 143.991 23.8413C144.313 23.9815 144.556 24.1589 144.719 24.3735C144.883 24.591 144.997 24.8371 145.063 25.1119C145.126 25.3866 145.161 25.7787 145.161 26.2909V30.4119V30.4176Z" fill="#034EA2"/>
<path d="M150.502 21.2627H152.353V26.2194C152.353 27.0063 152.376 27.5158 152.422 27.7505C152.503 28.1253 152.689 28.4258 152.987 28.6519C153.285 28.878 153.691 28.9925 154.211 28.9925C154.73 28.9925 155.13 28.8866 155.4 28.6719C155.666 28.4573 155.828 28.194 155.882 27.882C155.936 27.5701 155.962 27.0521 155.962 26.3281V21.2656H157.813V26.0734C157.813 27.1723 157.765 27.9479 157.665 28.4029C157.565 28.8579 157.381 29.2386 157.111 29.5505C156.842 29.8625 156.484 30.1114 156.034 30.2974C155.584 30.4834 154.996 30.5749 154.271 30.5749C153.397 30.5749 152.731 30.4748 152.279 30.2716C151.826 30.0713 151.467 29.808 151.206 29.4847C150.942 29.1613 150.77 28.8235 150.688 28.4687C150.568 27.945 150.508 27.1695 150.508 26.1449V21.2627H150.502Z" fill="#034EA2"/>
<path d="M165.791 30.4176H164.034V27.0321C164.034 26.3167 163.997 25.853 163.922 25.6442C163.848 25.4353 163.724 25.2693 163.555 25.1548C163.386 25.0375 163.183 24.9802 162.945 24.9802C162.641 24.9802 162.369 25.0633 162.125 25.2291C161.884 25.3951 161.718 25.6155 161.629 25.8903C161.54 26.165 161.494 26.6715 161.494 27.4128V30.4148H159.738V23.784H161.368V24.757C161.947 24.0073 162.679 23.6323 163.558 23.6323C163.945 23.6323 164.3 23.701 164.622 23.8413C164.942 23.9815 165.186 24.1589 165.35 24.3735C165.513 24.591 165.628 24.8371 165.694 25.1119C165.757 25.3866 165.791 25.7787 165.791 26.2909V30.4119V30.4176Z" fill="#034EA2"/>
<path d="M167.575 22.8854V21.2627H169.332V22.8854H167.575ZM167.575 30.4147V23.784H169.332V30.4147H167.575Z" fill="#034EA2"/>
<path d="M170.728 27.0062C170.728 26.4224 170.871 25.8587 171.16 25.3149C171.447 24.7683 171.855 24.3534 172.385 24.0672C172.912 23.781 173.5 23.635 174.15 23.635C175.156 23.635 175.979 23.9614 176.621 24.6109C177.263 25.2634 177.585 26.0848 177.585 27.0807C177.585 28.0765 177.261 28.915 176.613 29.5761C175.965 30.2372 175.148 30.5663 174.165 30.5663C173.557 30.5663 172.975 30.4289 172.421 30.1542C171.869 29.8795 171.45 29.476 171.16 28.9465C170.874 28.4171 170.728 27.7703 170.728 27.0091V27.0062ZM172.527 27.1007C172.527 27.7589 172.685 28.2625 172.998 28.6117C173.311 28.9609 173.697 29.1354 174.156 29.1354C174.614 29.1354 174.998 28.9609 175.312 28.6117C175.621 28.2625 175.778 27.7531 175.778 27.0892C175.778 26.4252 175.624 25.9417 175.312 25.5897C175.002 25.2405 174.614 25.066 174.156 25.066C173.697 25.066 173.311 25.2405 172.998 25.5897C172.685 25.9388 172.527 26.4424 172.527 27.1007Z" fill="#034EA2"/>
<path d="M185 30.4176H183.243V27.0321C183.243 26.3167 183.205 25.853 183.131 25.6442C183.057 25.4353 182.933 25.2693 182.765 25.1548C182.595 25.0375 182.391 24.9802 182.154 24.9802C181.85 24.9802 181.578 25.0633 181.334 25.2291C181.093 25.3951 180.926 25.6155 180.838 25.8903C180.748 26.165 180.704 26.6715 180.704 27.4128V30.4148H178.946V23.784H180.578V24.757C181.156 24.0073 181.887 23.6323 182.767 23.6323C183.155 23.6323 183.509 23.701 183.831 23.8413C184.151 23.9815 184.395 24.1589 184.559 24.3735C184.722 24.591 184.837 24.8371 184.902 25.1119C184.966 25.3866 185 25.7787 185 26.2909V30.4119V30.4176Z" fill="#034EA2"/>
</g>
</svg>
