<?xml version="1.0" encoding="UTF-8" standalone="no"?>
<svg
   width="346"
   height="83"
   viewBox="0 0 346 83"
   fill="none"
   version="1.1"
   id="svg76"
   sodipodi:docname="science-clusters-logo.svg"
   inkscape:version="1.3 (0e150ed, 2023-07-21)"
   xmlns:inkscape="http://www.inkscape.org/namespaces/inkscape"
   xmlns:sodipodi="http://sodipodi.sourceforge.net/DTD/sodipodi-0.dtd"
   xmlns="http://www.w3.org/2000/svg"
   xmlns:svg="http://www.w3.org/2000/svg">
  <defs
     id="defs76" />
  <sodipodi:namedview
     id="namedview76"
     pagecolor="#ffffff"
     bordercolor="#000000"
     borderopacity="0.25"
     inkscape:showpageshadow="2"
     inkscape:pageopacity="0.0"
     inkscape:pagecheckerboard="0"
     inkscape:deskcolor="#d1d1d1"
     inkscape:zoom="2.0470873"
     inkscape:cx="172.68438"
     inkscape:cy="42.01091"
     inkscape:window-width="1712"
     inkscape:window-height="853"
     inkscape:window-x="1603"
     inkscape:window-y="259"
     inkscape:window-maximized="0"
     inkscape:current-layer="svg76" />
  <path
     d="M100.125 46.9502C98.9848 46.9502 97.9606 46.8077 97.0522 46.5227C96.1438 46.2377 95.271 45.739 94.4427 45.0265C94.229 44.8484 94.0687 44.6436 93.9529 44.4209C93.8371 44.1894 93.7837 43.9667 93.7837 43.7352C93.7837 43.3611 93.9173 43.0316 94.1845 42.7466C94.4516 42.4616 94.7901 42.3191 95.1997 42.3191C95.5114 42.3191 95.7875 42.4171 96.028 42.613C96.6425 43.1207 97.257 43.5036 97.8715 43.7619C98.486 44.0202 99.2341 44.1538 100.125 44.1538C100.73 44.1538 101.282 44.0647 101.781 43.8688C102.289 43.6817 102.69 43.4324 103.001 43.1118C103.313 42.7911 103.464 42.4349 103.464 42.0252C103.464 41.5354 103.322 41.1257 103.028 40.7784C102.734 40.44 102.289 40.1461 101.683 39.9145C101.078 39.683 100.321 39.496 99.3944 39.3624C98.5127 39.2288 97.7468 39.0328 97.0789 38.7657C96.4109 38.4985 95.8588 38.1512 95.4046 37.7415C94.9593 37.3229 94.6208 36.842 94.3893 36.2809C94.1577 35.7198 94.0509 35.0875 94.0509 34.3928C94.0509 33.333 94.327 32.4335 94.8702 31.6854C95.4135 30.9373 96.1527 30.3674 97.0789 29.9755C98.0051 29.5836 99.0293 29.3877 100.151 29.3877C101.211 29.3877 102.191 29.548 103.09 29.8597C103.99 30.1803 104.729 30.5811 105.299 31.0709C105.771 31.445 106.003 31.8725 106.003 32.3623C106.003 32.7185 105.86 33.048 105.584 33.3419C105.308 33.6358 104.978 33.7783 104.604 33.7783C104.364 33.7783 104.141 33.7071 103.945 33.5557C103.687 33.3241 103.331 33.1104 102.894 32.9056C102.458 32.7007 101.995 32.5315 101.505 32.389C101.015 32.2554 100.561 32.1842 100.143 32.1842C99.439 32.1842 98.8512 32.2732 98.3703 32.4514C97.8893 32.6295 97.5331 32.8699 97.2837 33.1816C97.0433 33.4933 96.9186 33.8496 96.9186 34.2593C96.9186 34.7491 97.0611 35.1499 97.3461 35.4705C97.6311 35.7911 98.0407 36.0404 98.5751 36.2275C99.1094 36.4145 99.7507 36.5837 100.499 36.7262C101.478 36.9043 102.333 37.1181 103.073 37.3585C103.812 37.599 104.426 37.9196 104.916 38.2936C105.406 38.6766 105.771 39.1575 106.012 39.7364C106.252 40.3153 106.377 41.0189 106.377 41.8471C106.377 42.9069 106.083 43.8153 105.495 44.5812C104.907 45.3472 104.141 45.9349 103.188 46.3357C102.235 46.7454 101.211 46.9502 100.107 46.9502H100.125Z"
     fill="#37277C"
     id="path1"
     style="fill:#422f93;fill-opacity:1" />
  <path
     d="M120.707 30.4654C121.125 30.6791 121.375 31.0086 121.455 31.4628C121.526 31.917 121.41 32.3356 121.098 32.7096C120.885 33.0035 120.618 33.1638 120.279 33.1995C119.95 33.2351 119.611 33.1639 119.264 33.0035C118.872 32.8254 118.462 32.6829 118.035 32.585C117.607 32.487 117.153 32.4425 116.681 32.4425C115.799 32.4425 115.016 32.585 114.33 32.861C113.635 33.1371 113.048 33.529 112.558 34.0455C112.068 34.5621 111.703 35.1677 111.444 35.8623C111.195 36.5659 111.07 37.3318 111.07 38.1779C111.07 39.1665 111.213 40.0303 111.498 40.7606C111.783 41.4909 112.175 42.1054 112.682 42.5863C113.19 43.0673 113.778 43.4324 114.464 43.6729C115.149 43.9133 115.889 44.0291 116.681 44.0291C117.118 44.0291 117.563 43.9846 117.999 43.9044C118.436 43.8243 118.863 43.6729 119.264 43.468C119.602 43.3077 119.941 43.2454 120.279 43.2988C120.609 43.3433 120.894 43.5215 121.116 43.8064C121.446 44.2161 121.562 44.6347 121.473 45.0622C121.383 45.4897 121.134 45.8103 120.724 45.9973C120.306 46.211 119.869 46.3803 119.424 46.5228C118.979 46.6653 118.525 46.7632 118.07 46.8434C117.616 46.9146 117.153 46.9502 116.681 46.9502C115.514 46.9502 114.401 46.7632 113.35 46.3892C112.299 46.0151 111.364 45.4629 110.545 44.7327C109.726 44.0024 109.075 43.0851 108.603 41.9896C108.131 40.8942 107.9 39.6207 107.9 38.169C107.9 36.9132 108.114 35.7644 108.55 34.7046C108.978 33.6448 109.592 32.7364 110.376 31.9615C111.168 31.1867 112.095 30.59 113.172 30.1536C114.241 29.7262 115.417 29.5035 116.681 29.5035C117.394 29.5035 118.097 29.5837 118.783 29.744C119.469 29.9043 120.11 30.1447 120.707 30.4475V30.4654Z"
     fill="#37277C"
     id="path2"
     style="fill:#422f93;fill-opacity:1" />
  <path
     d="M126.656 45.2225C126.656 45.6411 126.504 45.9973 126.193 46.2823C125.881 46.5673 125.525 46.7098 125.115 46.7098C124.661 46.7098 124.296 46.5673 124.02 46.2823C123.744 45.9973 123.601 45.6411 123.601 45.2225V31.1244C123.601 30.7058 123.744 30.3496 124.037 30.0646C124.331 29.7796 124.705 29.6371 125.16 29.6371C125.551 29.6371 125.899 29.7796 126.193 30.0646C126.496 30.3496 126.647 30.7058 126.647 31.1244V45.2225H126.656Z"
     fill="#37277C"
     id="path3"
     style="fill:#422f93;fill-opacity:1" />
  <path
     d="M131.367 29.6371H139.534C139.953 29.6371 140.309 29.7707 140.594 30.0379C140.879 30.305 141.021 30.6524 141.021 31.0709C141.021 31.4895 140.879 31.8101 140.594 32.0595C140.309 32.3089 139.953 32.4335 139.534 32.4335H132.703L132.926 32.015V36.7707L132.73 36.5748H138.438C138.857 36.5748 139.213 36.7084 139.498 36.9756C139.783 37.2428 139.926 37.5901 139.926 38.0087C139.926 38.4272 139.783 38.7479 139.498 38.9972C139.213 39.2466 138.857 39.3713 138.438 39.3713H132.801L132.926 39.1753V44.1003L132.73 43.8777H139.534C139.953 43.8777 140.309 44.0202 140.594 44.3052C140.879 44.5902 141.021 44.9197 141.021 45.2937C141.021 45.7034 140.879 46.0329 140.594 46.2912C140.309 46.5495 139.953 46.683 139.534 46.683H131.367C130.949 46.683 130.592 46.5406 130.307 46.2556C130.022 45.9706 129.88 45.6143 129.88 45.1958V31.0977C129.88 30.6791 130.022 30.3228 130.307 30.0379C130.592 29.7529 130.949 29.6104 131.367 29.6104V29.6371Z"
     fill="#37277C"
     id="path4"
     style="fill:#422f93;fill-opacity:1" />
  <path
     d="M156.339 29.6371C156.731 29.6371 157.043 29.7707 157.292 30.0289C157.533 30.2872 157.657 30.6167 157.657 31.0086V45.2314C157.657 45.65 157.515 46.0062 157.23 46.2912C156.945 46.5762 156.589 46.7187 156.17 46.7187C155.956 46.7187 155.743 46.6831 155.52 46.6118C155.297 46.5406 155.137 46.4337 155.021 46.309L145.439 34.1346L146.071 33.7427V45.3561C146.071 45.7479 145.946 46.0685 145.697 46.3357C145.447 46.594 145.118 46.7276 144.708 46.7276C144.299 46.7276 144.005 46.594 143.755 46.3357C143.515 46.0774 143.39 45.7479 143.39 45.3561V31.1333C143.39 30.7147 143.533 30.3585 143.818 30.0735C144.103 29.7885 144.459 29.646 144.877 29.646C145.109 29.646 145.341 29.6905 145.581 29.7796C145.821 29.8686 146 30.0022 146.115 30.1803L155.404 42.0342L154.986 42.328V31.0086C154.986 30.6167 155.11 30.2961 155.351 30.0289C155.591 29.7707 155.921 29.6371 156.33 29.6371H156.339Z"
     fill="#37277C"
     id="path5"
     style="fill:#422f93;fill-opacity:1" />
  <path
     d="M172.833 30.4654C173.252 30.6791 173.501 31.0086 173.581 31.4628C173.652 31.917 173.537 32.3356 173.225 32.7096C173.011 33.0035 172.744 33.1638 172.406 33.1995C172.076 33.2351 171.738 33.1639 171.39 33.0035C170.998 32.8254 170.589 32.6829 170.161 32.585C169.734 32.487 169.28 32.4425 168.808 32.4425C167.926 32.4425 167.142 32.585 166.456 32.861C165.762 33.1371 165.174 33.529 164.684 34.0455C164.194 34.5621 163.829 35.1677 163.571 35.8623C163.322 36.5659 163.197 37.3318 163.197 38.1779C163.197 39.1665 163.339 40.0303 163.624 40.7606C163.909 41.4909 164.301 42.1054 164.809 42.5863C165.316 43.0673 165.904 43.4324 166.59 43.6729C167.276 43.9133 168.015 44.0291 168.808 44.0291C169.244 44.0291 169.689 43.9846 170.126 43.9044C170.562 43.8243 170.99 43.6729 171.39 43.468C171.729 43.3077 172.067 43.2454 172.406 43.2988C172.735 43.3433 173.02 43.5215 173.243 43.8064C173.572 44.2161 173.688 44.6347 173.599 45.0622C173.51 45.4897 173.261 45.8103 172.851 45.9973C172.432 46.211 171.996 46.3803 171.551 46.5228C171.105 46.6653 170.651 46.7632 170.197 46.8434C169.743 46.9146 169.28 46.9502 168.808 46.9502C167.641 46.9502 166.528 46.7632 165.477 46.3892C164.426 46.0151 163.491 45.4629 162.671 44.7327C161.852 44.0024 161.202 43.0851 160.73 41.9896C160.258 40.8942 160.026 39.6207 160.026 38.169C160.026 36.9132 160.24 35.7644 160.676 34.7046C161.104 33.6448 161.718 32.7364 162.502 31.9615C163.295 31.1867 164.221 30.59 165.299 30.1536C166.367 29.7262 167.543 29.5035 168.808 29.5035C169.52 29.5035 170.224 29.5837 170.909 29.744C171.595 29.9043 172.236 30.1447 172.833 30.4475V30.4654Z"
     fill="#37277C"
     id="path6"
     style="fill:#422f93;fill-opacity:1" />
  <path
     d="M177.224 29.6371H185.39C185.809 29.6371 186.165 29.7707 186.45 30.0379C186.735 30.305 186.878 30.6524 186.878 31.0709C186.878 31.4895 186.735 31.8101 186.45 32.0595C186.165 32.3089 185.809 32.4335 185.39 32.4335H178.56L178.782 32.015V36.7707L178.586 36.5748H184.295C184.714 36.5748 185.07 36.7084 185.355 36.9756C185.64 37.2428 185.782 37.5901 185.782 38.0087C185.782 38.4272 185.64 38.7479 185.355 38.9972C185.07 39.2466 184.714 39.3713 184.295 39.3713H178.657L178.782 39.1753V44.1003L178.586 43.8777H185.39C185.809 43.8777 186.165 44.0202 186.45 44.3052C186.735 44.5902 186.878 44.9197 186.878 45.2937C186.878 45.7034 186.735 46.0329 186.45 46.2912C186.165 46.5495 185.809 46.683 185.39 46.683H177.224C176.805 46.683 176.449 46.5406 176.164 46.2556C175.879 45.9706 175.736 45.6143 175.736 45.1958V31.0977C175.736 30.6791 175.879 30.3228 176.164 30.0379C176.449 29.7529 176.805 29.6104 177.224 29.6104V29.6371Z"
     fill="#37277C"
     id="path7"
     style="fill:#422f93;fill-opacity:1" />
  <path
     d="M210.416 30.4654C210.835 30.6791 211.084 31.0086 211.155 31.4628C211.227 31.917 211.111 32.3356 210.799 32.7096C210.585 33.0035 210.318 33.1638 209.98 33.1995C209.65 33.2351 209.312 33.1639 208.964 33.0035C208.573 32.8254 208.163 32.6829 207.735 32.585C207.308 32.487 206.854 32.4425 206.382 32.4425C205.5 32.4425 204.716 32.585 204.031 32.861C203.336 33.1371 202.748 33.529 202.258 34.0455C201.768 34.5621 201.403 35.1677 201.145 35.8623C200.896 36.5659 200.771 37.3318 200.771 38.1779C200.771 39.1665 200.913 40.0303 201.198 40.7606C201.483 41.4909 201.875 42.1054 202.383 42.5863C202.882 43.0762 203.478 43.4324 204.164 43.6729C204.85 43.9044 205.589 44.0291 206.382 44.0291C206.818 44.0291 207.263 43.9846 207.7 43.9044C208.136 43.8243 208.564 43.6729 208.964 43.468C209.303 43.3077 209.641 43.2454 209.98 43.2988C210.318 43.3522 210.594 43.5215 210.817 43.8064C211.146 44.2161 211.262 44.6347 211.173 45.0622C211.084 45.4897 210.835 45.8103 210.434 45.9973C210.006 46.211 209.579 46.3803 209.134 46.5228C208.688 46.6653 208.234 46.7632 207.78 46.8434C207.326 46.9235 206.863 46.9502 206.391 46.9502C205.224 46.9502 204.111 46.7632 203.06 46.3892C202.009 46.0151 201.074 45.4629 200.254 44.7327C199.435 44.0024 198.785 43.0851 198.313 41.9896C197.841 40.8942 197.609 39.6207 197.609 38.169C197.609 36.9132 197.823 35.7644 198.26 34.7046C198.687 33.6448 199.302 32.7364 200.085 31.9615C200.878 31.1867 201.804 30.59 202.882 30.1536C203.959 29.7262 205.126 29.5035 206.391 29.5035C207.103 29.5035 207.807 29.5837 208.492 29.744C209.178 29.9043 209.819 30.1447 210.416 30.4475V30.4654Z"
     fill="#37277C"
     id="path8"
     style="fill:#422f93;fill-opacity:1" />
  <path
     d="M222.733 43.8599C223.16 43.8599 223.508 43.9935 223.793 44.2606C224.078 44.5278 224.22 44.8751 224.22 45.2937C224.22 45.7123 224.078 46.0418 223.793 46.309C223.508 46.5762 223.151 46.7098 222.733 46.7098H214.807C214.379 46.7098 214.032 46.5673 213.747 46.2823C213.462 45.9973 213.319 45.6411 213.319 45.2225V31.1244C213.319 30.7058 213.462 30.3496 213.756 30.0646C214.05 29.7796 214.424 29.6371 214.878 29.6371C215.27 29.6371 215.617 29.7796 215.911 30.0646C216.214 30.3496 216.365 30.7058 216.365 31.1244V44.2695L215.831 43.851H222.733V43.8599Z"
     fill="#37277C"
     id="path9"
     style="fill:#422f93;fill-opacity:1" />
  <path
     d="M238.22 29.6104C238.639 29.6104 238.986 29.7529 239.245 30.0379C239.503 30.3228 239.637 30.6791 239.637 31.0977V39.9234C239.637 41.2771 239.352 42.4705 238.773 43.5125C238.194 44.5545 237.401 45.365 236.395 45.9528C235.388 46.5406 234.213 46.8344 232.886 46.8344C231.559 46.8344 230.374 46.5406 229.359 45.9528C228.344 45.365 227.542 44.5545 226.972 43.5125C226.393 42.4705 226.108 41.2771 226.108 39.9234V31.0977C226.108 30.6791 226.251 30.3228 226.545 30.0379C226.839 29.7529 227.213 29.6104 227.667 29.6104C228.041 29.6104 228.379 29.7529 228.682 30.0379C228.985 30.3228 229.136 30.6791 229.136 31.0977V39.9234C229.136 40.7339 229.315 41.4375 229.662 42.0342C230.009 42.6308 230.472 43.085 231.051 43.4146C231.63 43.7441 232.245 43.9044 232.895 43.9044C233.589 43.9044 234.248 43.7441 234.845 43.4146C235.442 43.085 235.932 42.6308 236.306 42.0342C236.68 41.4375 236.867 40.7339 236.867 39.9234V31.0977C236.867 30.6791 236.991 30.3228 237.232 30.0379C237.472 29.7529 237.811 29.6104 238.229 29.6104H238.22Z"
     fill="#37277C"
     id="path10"
     style="fill:#422f93;fill-opacity:1" />
  <path
     d="M248.097 46.9502C246.957 46.9502 245.933 46.8077 245.025 46.5227C244.116 46.2377 243.244 45.739 242.415 45.0265C242.202 44.8484 242.041 44.6436 241.926 44.4209C241.81 44.1983 241.756 43.9667 241.756 43.7352C241.756 43.3611 241.89 43.0316 242.157 42.7466C242.424 42.4616 242.763 42.3191 243.172 42.3191C243.484 42.3191 243.76 42.4171 244.001 42.613C244.615 43.1207 245.23 43.5036 245.844 43.7619C246.459 44.0202 247.207 44.1538 248.097 44.1538C248.694 44.1538 249.255 44.0647 249.754 43.8688C250.253 43.6817 250.662 43.4324 250.974 43.1118C251.286 42.7911 251.437 42.4349 251.437 42.0252C251.437 41.5354 251.295 41.1257 251.001 40.7784C250.707 40.44 250.262 40.1461 249.656 39.9145C249.05 39.683 248.293 39.496 247.367 39.3624C246.485 39.2288 245.719 39.0328 245.052 38.7657C244.384 38.4985 243.831 38.1512 243.377 37.7415C242.932 37.3229 242.593 36.842 242.362 36.2809C242.13 35.7198 242.024 35.0875 242.024 34.3928C242.024 33.333 242.3 32.4335 242.843 31.6854C243.386 30.9373 244.125 30.3674 245.052 29.9755C245.978 29.5836 247.002 29.3877 248.124 29.3877C249.184 29.3877 250.164 29.548 251.063 29.8597C251.963 30.1803 252.702 30.5811 253.272 31.0709C253.744 31.445 253.975 31.8725 253.975 32.3623C253.975 32.7185 253.842 33.048 253.557 33.3419C253.281 33.6358 252.951 33.7783 252.577 33.7783C252.337 33.7783 252.114 33.7071 251.918 33.5557C251.66 33.3241 251.312 33.1104 250.867 32.9056C250.422 32.7007 249.968 32.5315 249.478 32.389C248.988 32.2554 248.534 32.1842 248.115 32.1842C247.412 32.1842 246.824 32.2732 246.343 32.4514C245.862 32.6295 245.497 32.8699 245.256 33.1816C245.016 33.4933 244.891 33.8496 244.891 34.2593C244.891 34.7491 245.034 35.1499 245.319 35.4705C245.604 35.7911 246.013 36.0404 246.548 36.2275C247.082 36.4145 247.723 36.5837 248.471 36.7262C249.451 36.9043 250.306 37.1181 251.045 37.3585C251.784 37.599 252.399 37.9196 252.889 38.2936C253.379 38.6766 253.744 39.1575 253.984 39.7364C254.225 40.3153 254.349 41.0189 254.349 41.8471C254.349 42.9069 254.055 43.8153 253.468 44.5812C252.88 45.3472 252.114 45.9349 251.161 46.3357C250.208 46.7454 249.184 46.9502 248.08 46.9502H248.097Z"
     fill="#37277C"
     id="path11"
     style="fill:#422f93;fill-opacity:1" />
  <path
     d="M257.128 32.4425C256.7 32.4425 256.353 32.3089 256.068 32.0506C255.783 31.7923 255.641 31.445 255.641 31.0264C255.641 30.6078 255.783 30.2694 256.068 30.0111C256.353 29.7618 256.709 29.6371 257.128 29.6371H267.958C268.376 29.6371 268.732 29.7707 269.017 30.0289C269.302 30.2872 269.445 30.6346 269.445 31.0531C269.445 31.4717 269.302 31.8101 269.017 32.0684C268.732 32.3178 268.376 32.4425 267.958 32.4425H257.128ZM262.516 46.7098C262.062 46.7098 261.688 46.5673 261.394 46.2823C261.1 45.9973 260.957 45.6411 260.957 45.2225V31.0798H264.128V45.2225C264.128 45.6411 263.977 45.9973 263.674 46.2823C263.371 46.5673 262.988 46.7098 262.516 46.7098Z"
     fill="#37277C"
     id="path12"
     style="fill:#422f93;fill-opacity:1" />
  <path
     d="M273.052 29.6371H281.218C281.637 29.6371 281.993 29.7707 282.278 30.0379C282.563 30.305 282.706 30.6524 282.706 31.0709C282.706 31.4895 282.563 31.8101 282.278 32.0595C281.993 32.3089 281.637 32.4335 281.218 32.4335H274.388L274.61 32.015V36.7707L274.414 36.5748H280.123C280.542 36.5748 280.898 36.7084 281.183 36.9756C281.468 37.2428 281.61 37.5901 281.61 38.0087C281.61 38.4272 281.468 38.7479 281.183 38.9972C280.898 39.2466 280.542 39.3713 280.123 39.3713H274.486L274.61 39.1753V44.1003L274.414 43.8777H281.218C281.637 43.8777 281.993 44.0202 282.278 44.3052C282.563 44.5902 282.706 44.9197 282.706 45.2937C282.706 45.7034 282.563 46.0329 282.278 46.2912C281.993 46.5495 281.637 46.683 281.218 46.683H273.052C272.624 46.683 272.277 46.5406 271.992 46.2556C271.707 45.9706 271.564 45.6143 271.564 45.1958V31.0977C271.564 30.6791 271.707 30.3228 271.992 30.0379C272.277 29.7529 272.633 29.6104 273.052 29.6104V29.6371Z"
     fill="#37277C"
     id="path13"
     style="fill:#422f93;fill-opacity:1" />
  <path
     d="M286.829 46.7098C286.375 46.7098 285.965 46.5673 285.609 46.2823C285.253 45.9973 285.075 45.6411 285.075 45.2225V31.1244C285.075 30.7058 285.217 30.3496 285.502 30.0646C285.787 29.7796 286.143 29.6371 286.562 29.6371H293.589C294.435 29.6371 295.227 29.8597 295.967 30.305C296.706 30.7503 297.303 31.3737 297.757 32.1575C298.211 32.9501 298.443 33.8496 298.443 34.8738C298.443 35.4883 298.318 36.0939 298.068 36.6817C297.819 37.2695 297.472 37.7949 297.044 38.2669C296.617 38.739 296.127 39.1041 295.593 39.3624L295.619 38.8013C296.074 39.0418 296.448 39.3357 296.75 39.6652C297.053 39.9947 297.285 40.3598 297.454 40.7428C297.623 41.1257 297.73 41.5354 297.757 41.9718C297.819 42.3815 297.864 42.7377 297.89 43.0405C297.917 43.3522 297.962 43.6105 298.033 43.8242C298.104 44.038 298.247 44.1983 298.46 44.3141C298.817 44.5278 299.039 44.8306 299.128 45.2314C299.217 45.6321 299.128 45.9795 298.852 46.2912C298.674 46.5049 298.443 46.6385 298.166 46.692C297.89 46.7454 297.614 46.7454 297.338 46.692C297.062 46.6385 296.831 46.5584 296.652 46.4604C296.376 46.3001 296.1 46.0596 295.824 45.739C295.548 45.4184 295.325 44.9909 295.156 44.4566C294.987 43.9222 294.898 43.2275 294.898 42.3815C294.898 42.1054 294.853 41.8471 294.755 41.6156C294.657 41.384 294.524 41.1792 294.337 41.01C294.159 40.8408 293.927 40.7072 293.651 40.6181C293.375 40.529 293.046 40.4845 292.671 40.4845H287.746L288.112 39.9234V45.2136C288.112 45.6321 287.996 45.9884 287.773 46.2734C287.551 46.5584 287.23 46.7009 286.82 46.7009L286.829 46.7098ZM287.782 37.982H293.464C293.758 37.982 294.043 37.8484 294.319 37.5812C294.595 37.314 294.827 36.9489 295.005 36.4858C295.183 36.0226 295.272 35.515 295.272 34.9628C295.272 34.2504 295.076 33.6537 294.702 33.1727C294.319 32.6918 293.909 32.4514 293.473 32.4514H287.836L288.129 31.6676V38.5697L287.791 37.982H287.782Z"
     fill="#37277C"
     id="path14"
     style="fill:#422f93;fill-opacity:1" />
  <path
     d="M306.876 46.9502C305.736 46.9502 304.712 46.8077 303.804 46.5227C302.895 46.2377 302.022 45.739 301.194 45.0265C300.98 44.8484 300.82 44.6436 300.704 44.4209C300.589 44.1983 300.535 43.9667 300.535 43.7352C300.535 43.3611 300.669 43.0316 300.936 42.7466C301.203 42.4616 301.542 42.3191 301.951 42.3191C302.263 42.3191 302.539 42.4171 302.779 42.613C303.394 43.1207 304.008 43.5036 304.623 43.7619C305.237 44.0202 305.986 44.1538 306.876 44.1538C307.473 44.1538 308.034 44.0647 308.533 43.8688C309.031 43.6817 309.441 43.4324 309.753 43.1118C310.065 42.7911 310.216 42.4349 310.216 42.0252C310.216 41.5354 310.073 41.1257 309.78 40.7784C309.486 40.44 309.04 40.1461 308.435 39.9145C307.829 39.683 307.072 39.496 306.146 39.3624C305.264 39.2288 304.498 39.0328 303.83 38.7657C303.162 38.4985 302.61 38.1512 302.156 37.7415C301.711 37.3229 301.372 36.842 301.141 36.2809C300.909 35.7198 300.802 35.0875 300.802 34.3928C300.802 33.333 301.078 32.4335 301.622 31.6854C302.165 30.9373 302.904 30.3674 303.83 29.9755C304.757 29.5836 305.781 29.3877 306.903 29.3877C307.963 29.3877 308.942 29.548 309.842 29.8597C310.741 30.1803 311.481 30.5811 312.051 31.0709C312.523 31.445 312.754 31.8725 312.754 32.3623C312.754 32.7185 312.621 33.048 312.336 33.3419C312.059 33.6358 311.73 33.7783 311.356 33.7783C311.115 33.7783 310.893 33.7071 310.697 33.5557C310.439 33.3241 310.091 33.1104 309.646 32.9056C309.201 32.7007 308.746 32.5315 308.257 32.389C307.767 32.2554 307.313 32.1842 306.894 32.1842C306.19 32.1842 305.603 32.2732 305.122 32.4514C304.641 32.6295 304.276 32.8699 304.035 33.1816C303.795 33.4933 303.67 33.8496 303.67 34.2593C303.67 34.7491 303.813 35.1499 304.098 35.4705C304.383 35.7911 304.792 36.0404 305.327 36.2275C305.861 36.4145 306.502 36.5837 307.25 36.7262C308.23 36.9043 309.085 37.1181 309.824 37.3585C310.563 37.599 311.178 37.9196 311.668 38.2936C312.157 38.6766 312.523 39.1575 312.763 39.7364C313.003 40.3153 313.128 41.0189 313.128 41.8471C313.128 42.9069 312.834 43.8153 312.246 44.5812C311.659 45.3472 310.893 45.9349 309.94 46.3357C308.987 46.7454 307.963 46.9502 306.858 46.9502H306.876Z"
     fill="#37277C"
     id="path15"
     style="fill:#422f93;fill-opacity:1" />
  <path
     d="M316.566 46.6831C316.094 46.6831 315.729 46.5584 315.48 46.309C315.23 46.0597 315.105 45.6945 315.105 45.2225V44.8039C315.105 44.3319 315.23 43.9668 315.48 43.7174C315.729 43.468 316.094 43.3433 316.566 43.3433H316.887C317.359 43.3433 317.724 43.468 317.973 43.7174C318.223 43.9668 318.347 44.3319 318.347 44.8039V45.2225C318.347 45.6945 318.223 46.0597 317.973 46.309C317.724 46.5584 317.359 46.6831 316.887 46.6831H316.566Z"
     fill="#37277C"
     id="path16"
     style="fill:#422f93;fill-opacity:1" />
  <path
     d="M327.048 46.9502C325.668 46.9502 324.465 46.6652 323.45 46.0864C322.435 45.5075 321.651 44.7238 321.108 43.7352C320.565 42.7466 320.289 41.6245 320.289 40.3687C320.289 38.9082 320.582 37.6613 321.179 36.6283C321.776 35.5952 322.551 34.8025 323.504 34.2504C324.457 33.6982 325.481 33.4221 326.549 33.4221C327.378 33.4221 328.161 33.5913 328.901 33.9298C329.64 34.2682 330.299 34.7402 330.86 35.3369C331.43 35.9336 331.884 36.6194 332.214 37.3942C332.543 38.169 332.712 39.0061 332.712 39.8789C332.695 40.2708 332.543 40.5825 332.249 40.8319C331.955 41.0812 331.617 41.197 331.225 41.197H321.909L321.179 38.7568H330.13L329.595 39.2466V38.5876C329.56 38.1155 329.399 37.697 329.097 37.3229C328.794 36.9489 328.42 36.655 327.974 36.4323C327.529 36.2097 327.048 36.1028 326.549 36.1028C326.051 36.1028 325.605 36.1651 325.187 36.2987C324.768 36.4323 324.394 36.6461 324.091 36.9578C323.789 37.2695 323.539 37.6792 323.361 38.2046C323.183 38.7212 323.094 39.3802 323.094 40.1817C323.094 41.0634 323.281 41.8026 323.646 42.4171C324.011 43.0227 324.483 43.4947 325.062 43.8064C325.641 44.1271 326.256 44.2785 326.906 44.2785C327.511 44.2785 327.983 44.2339 328.348 44.136C328.705 44.038 328.999 43.9222 329.212 43.7797C329.426 43.6372 329.631 43.5215 329.809 43.4235C330.103 43.281 330.379 43.2008 330.637 43.2008C330.994 43.2008 331.287 43.3255 331.528 43.566C331.759 43.8064 331.884 44.0914 331.884 44.421C331.884 44.8573 331.653 45.2581 331.198 45.6144C330.771 45.9706 330.183 46.2823 329.417 46.5495C328.651 46.8167 327.868 46.9502 327.048 46.9502Z"
     fill="#37277C"
     id="path17"
     style="fill:#422f93;fill-opacity:1" />
  <path
     d="M344.539 33.6626C344.967 33.6626 345.314 33.8051 345.59 34.0901C345.866 34.375 346 34.7313 346 35.1499V41.3484C346 43.0761 345.519 44.4388 344.557 45.4451C343.595 46.4515 342.215 46.9591 340.407 46.9591C338.599 46.9591 337.227 46.4515 336.275 45.4451C335.322 44.4388 334.85 43.0672 334.85 41.3484V35.1499C334.85 34.7313 334.983 34.375 335.268 34.0901C335.544 33.8051 335.892 33.6626 336.319 33.6626C336.747 33.6626 337.094 33.8051 337.37 34.0901C337.646 34.375 337.78 34.7313 337.78 35.1499V41.3484C337.78 42.337 338.002 43.0761 338.439 43.5571C338.875 44.038 339.534 44.2784 340.416 44.2784C341.298 44.2784 341.974 44.038 342.42 43.5571C342.856 43.0761 343.079 42.3459 343.079 41.3484V35.1499C343.079 34.7313 343.212 34.375 343.497 34.0901C343.773 33.8051 344.121 33.6626 344.548 33.6626H344.539Z"
     fill="#37277C"
     id="path18"
     style="fill:#422f93;fill-opacity:1" />
  <path
     d="M94.2202 63.5331C94.0866 63.5331 93.9797 63.4975 93.8996 63.4173C93.8194 63.3372 93.7749 63.2481 93.7749 63.1412V54.8053C93.7749 54.6984 93.8105 54.6093 93.8907 54.5292C93.9708 54.449 94.0599 54.4134 94.1668 54.4134H97.6846C98.1833 54.4134 98.6197 54.5203 99.0116 54.734C99.4035 54.9478 99.7063 55.2417 99.9289 55.6157C100.152 55.9898 100.258 56.4083 100.258 56.8804C100.258 57.2633 100.187 57.6106 100.054 57.9313C99.9111 58.2519 99.7152 58.528 99.4658 58.7417C99.2164 58.9554 98.9314 59.1246 98.6197 59.2315L98.1655 59.089C98.4861 59.1157 98.7889 59.2137 99.065 59.3918C99.3411 59.5699 99.5638 59.8104 99.733 60.1221C99.9022 60.4338 99.9912 60.799 100 61.2354C100 61.6094 100.027 61.9033 100.062 62.1081C100.089 62.313 100.134 62.4733 100.196 62.5802C100.258 62.687 100.339 62.7672 100.428 62.8295C100.517 62.883 100.57 62.9542 100.606 63.0522C100.632 63.1501 100.624 63.2392 100.57 63.3282C100.535 63.3995 100.49 63.444 100.419 63.4797C100.356 63.5064 100.285 63.5242 100.214 63.5242C100.143 63.5242 100.071 63.5064 100.009 63.4707C99.8844 63.3995 99.7597 63.2926 99.635 63.1412C99.5103 62.9898 99.4035 62.7761 99.3233 62.4911C99.2431 62.2061 99.1986 61.8053 99.1986 61.2888C99.1986 60.9504 99.1452 60.6743 99.0383 60.4516C98.9314 60.2379 98.7889 60.0687 98.6197 59.9529C98.4505 59.8371 98.2635 59.757 98.0587 59.7035C97.8538 59.659 97.6579 59.6323 97.4798 59.6323H94.4428L94.5853 59.4542V63.1412C94.5853 63.2481 94.5497 63.3372 94.4785 63.4173C94.4072 63.4975 94.3182 63.5331 94.2024 63.5331H94.2202ZM94.4517 58.9198H97.7202C98.0141 58.8931 98.2902 58.7951 98.5574 58.6259C98.8157 58.4567 99.0294 58.2251 99.1897 57.9313C99.35 57.6374 99.4302 57.29 99.4302 56.9071C99.4302 56.4083 99.261 55.9987 98.9314 55.6781C98.593 55.3485 98.1566 55.1882 97.6223 55.1882H94.5141L94.6032 55.0101V59.1157L94.4607 58.9376L94.4517 58.9198Z"
     fill="#4463A0"
     id="path19" />
  <path
     d="M105.255 63.6667C104.587 63.6667 103.999 63.5242 103.482 63.2392C102.966 62.9542 102.574 62.5534 102.28 62.0458C101.986 61.5382 101.853 60.9326 101.853 60.2468C101.853 59.5076 101.995 58.8753 102.289 58.3587C102.583 57.8333 102.957 57.4325 103.42 57.1564C103.883 56.8715 104.373 56.729 104.898 56.729C105.281 56.729 105.655 56.8002 106.012 56.9338C106.368 57.0674 106.697 57.2633 106.973 57.5305C107.25 57.7977 107.481 58.1183 107.65 58.5012C107.82 58.8842 107.909 59.3295 107.926 59.8282C107.926 59.9351 107.873 60.0242 107.793 60.0954C107.713 60.1666 107.624 60.2023 107.517 60.2023H102.298L102.138 59.4987H107.267L107.098 59.659V59.4007C107.063 58.9911 106.938 58.6437 106.706 58.3587C106.475 58.0738 106.208 57.8511 105.887 57.7086C105.566 57.5661 105.228 57.486 104.881 57.486C104.622 57.486 104.355 57.5394 104.079 57.6463C103.803 57.7531 103.554 57.9134 103.34 58.1361C103.117 58.3587 102.939 58.6437 102.797 58.9822C102.654 59.3295 102.592 59.7303 102.592 60.2023C102.592 60.7188 102.699 61.1819 102.903 61.5916C103.108 62.0102 103.411 62.3397 103.812 62.5802C104.213 62.8206 104.676 62.9453 105.228 62.9453C105.531 62.9453 105.807 62.9008 106.047 62.8117C106.288 62.7227 106.501 62.6069 106.688 62.4644C106.875 62.3219 107.018 62.1705 107.143 62.0191C107.241 61.9389 107.33 61.9033 107.428 61.9033C107.517 61.9033 107.588 61.9389 107.659 62.0102C107.73 62.0814 107.757 62.1616 107.757 62.2417C107.757 62.3486 107.713 62.4377 107.624 62.5178C107.365 62.8295 107.027 63.1056 106.608 63.3283C106.19 63.5509 105.736 63.6756 105.237 63.6756L105.255 63.6667Z"
     fill="#4463A0"
     id="path20" />
  <path
     d="M109.227 62.4822C109.156 62.3753 109.129 62.2774 109.129 62.1794C109.129 62.0814 109.191 62.0013 109.289 61.9389C109.36 61.8766 109.441 61.8499 109.53 61.8588C109.619 61.8588 109.708 61.9122 109.788 61.9924C110.019 62.2952 110.304 62.5445 110.643 62.7316C110.972 62.9186 111.373 63.0076 111.836 63.0076C112.077 63.0076 112.317 62.9631 112.558 62.883C112.798 62.8028 112.994 62.6781 113.145 62.5089C113.306 62.3397 113.377 62.1259 113.377 61.8677C113.377 61.6094 113.297 61.3779 113.145 61.2175C112.994 61.0572 112.789 60.9236 112.54 60.8257C112.291 60.7277 112.032 60.6476 111.756 60.5763C111.462 60.4962 111.177 60.4071 110.901 60.3091C110.625 60.2112 110.376 60.0865 110.162 59.9351C109.948 59.7837 109.779 59.5967 109.645 59.3829C109.512 59.1692 109.45 58.902 109.45 58.5903C109.45 58.2251 109.547 57.9045 109.752 57.6285C109.948 57.3524 110.224 57.1297 110.563 56.9783C110.901 56.818 111.293 56.7468 111.729 56.7468C111.943 56.7468 112.184 56.7735 112.433 56.8358C112.682 56.8982 112.932 56.9872 113.172 57.1119C113.413 57.2366 113.635 57.4236 113.822 57.6463C113.902 57.7264 113.938 57.8155 113.938 57.9134C113.938 58.0114 113.894 58.1005 113.805 58.1806C113.733 58.2341 113.653 58.2608 113.564 58.2608C113.475 58.2608 113.395 58.2251 113.333 58.1539C113.128 57.9223 112.878 57.7442 112.593 57.6195C112.308 57.4949 111.997 57.4414 111.667 57.4414C111.418 57.4414 111.177 57.486 110.955 57.5661C110.732 57.6463 110.545 57.7709 110.402 57.9402C110.251 58.1094 110.18 58.3231 110.18 58.5903C110.198 58.8397 110.287 59.0445 110.447 59.2048C110.607 59.3651 110.821 59.4898 111.088 59.5967C111.355 59.7035 111.649 59.7926 111.979 59.8817C112.255 59.9529 112.522 60.0331 112.78 60.131C113.039 60.229 113.261 60.3448 113.457 60.4873C113.653 60.6298 113.805 60.8079 113.929 61.0305C114.054 61.2532 114.107 61.5203 114.107 61.8499C114.107 62.2328 114 62.5623 113.787 62.8384C113.573 63.1145 113.288 63.3283 112.932 63.4797C112.576 63.6311 112.184 63.7023 111.747 63.7023C111.275 63.7023 110.821 63.6132 110.385 63.4262C109.948 63.2481 109.556 62.9364 109.218 62.5178L109.227 62.4822Z"
     fill="#4463A0"
     id="path21" />
  <path
     d="M118.712 63.6667C118.044 63.6667 117.456 63.5242 116.939 63.2392C116.423 62.9542 116.031 62.5534 115.737 62.0458C115.443 61.5382 115.31 60.9326 115.31 60.2468C115.31 59.5076 115.452 58.8753 115.746 58.3587C116.04 57.8333 116.414 57.4325 116.877 57.1564C117.34 56.8715 117.83 56.729 118.355 56.729C118.738 56.729 119.112 56.8002 119.469 56.9338C119.825 57.0674 120.154 57.2633 120.43 57.5305C120.707 57.7977 120.938 58.1183 121.107 58.5012C121.277 58.8842 121.366 59.3295 121.383 59.8282C121.383 59.9351 121.33 60.0242 121.25 60.0954C121.17 60.1666 121.081 60.2023 120.974 60.2023H115.755L115.595 59.4987H120.724L120.555 59.659V59.4007C120.52 58.9911 120.395 58.6437 120.163 58.3587C119.932 58.0738 119.665 57.8511 119.344 57.7086C119.023 57.5661 118.685 57.486 118.338 57.486C118.079 57.486 117.812 57.5394 117.536 57.6463C117.26 57.7531 117.011 57.9134 116.797 58.1361C116.574 58.3587 116.396 58.6437 116.254 58.9822C116.111 59.3295 116.049 59.7303 116.049 60.2023C116.049 60.7188 116.156 61.1819 116.36 61.5916C116.565 62.0102 116.868 62.3397 117.269 62.5802C117.67 62.8206 118.133 62.9453 118.685 62.9453C118.988 62.9453 119.264 62.9008 119.504 62.8117C119.745 62.7227 119.958 62.6069 120.146 62.4644C120.333 62.3219 120.475 62.1705 120.6 62.0191C120.698 61.9389 120.787 61.9033 120.885 61.9033C120.974 61.9033 121.045 61.9389 121.116 62.0102C121.187 62.0814 121.214 62.1616 121.214 62.2417C121.214 62.3486 121.17 62.4377 121.081 62.5178C120.822 62.8295 120.484 63.1056 120.065 63.3283C119.647 63.5509 119.193 63.6756 118.694 63.6756L118.712 63.6667Z"
     fill="#4463A0"
     id="path22" />
  <path
     d="M128.571 56.8804C128.686 56.8804 128.775 56.916 128.847 56.9961C128.918 57.0763 128.954 57.1653 128.954 57.2811V63.1412C128.954 63.2481 128.918 63.3372 128.838 63.4173C128.758 63.4975 128.669 63.5331 128.562 63.5331C128.446 63.5331 128.357 63.4975 128.286 63.4173C128.214 63.3372 128.179 63.2481 128.179 63.1412V61.5916L128.401 61.4847C128.401 61.7252 128.33 61.9745 128.197 62.2239C128.063 62.4733 127.876 62.7137 127.644 62.9275C127.413 63.1412 127.137 63.3193 126.816 63.4529C126.495 63.5865 126.157 63.6578 125.792 63.6578C125.204 63.6578 124.679 63.5064 124.207 63.2036C123.744 62.9008 123.378 62.4822 123.111 61.9567C122.844 61.4313 122.71 60.8346 122.71 60.1756C122.71 59.5165 122.844 58.902 123.111 58.3855C123.378 57.8689 123.744 57.4592 124.207 57.1653C124.67 56.8714 125.186 56.72 125.765 56.72C126.139 56.72 126.487 56.7824 126.816 56.916C127.146 57.0496 127.422 57.2277 127.671 57.4503C127.912 57.673 128.099 57.9313 128.241 58.2252C128.375 58.519 128.446 58.8218 128.446 59.1336L128.17 58.9376V57.2811C128.17 57.1653 128.205 57.0763 128.277 56.9961C128.348 56.916 128.446 56.8804 128.553 56.8804H128.571ZM125.863 62.9364C126.326 62.9364 126.727 62.8206 127.083 62.5802C127.44 62.3397 127.716 62.0102 127.92 61.5916C128.125 61.173 128.223 60.701 128.223 60.1756C128.223 59.6501 128.125 59.2048 127.92 58.7951C127.716 58.3855 127.44 58.0648 127.083 57.8155C126.727 57.5661 126.317 57.4503 125.863 57.4503C125.409 57.4503 125.008 57.5661 124.643 57.7977C124.287 58.0292 124.002 58.3498 123.797 58.7595C123.592 59.1692 123.494 59.6323 123.494 60.1666C123.494 60.701 123.592 61.1552 123.797 61.5827C124.002 62.0013 124.278 62.3308 124.634 62.5712C124.99 62.8117 125.4 62.9275 125.854 62.9275L125.863 62.9364Z"
     fill="#4463A0"
     id="path23" />
  <path
     d="M131.394 63.5331C131.269 63.5331 131.18 63.4975 131.109 63.4173C131.038 63.3372 131.002 63.2481 131.002 63.1412V57.3078C131.002 57.201 131.038 57.1119 131.109 57.0318C131.18 56.9516 131.278 56.916 131.385 56.916C131.492 56.916 131.59 56.9516 131.661 57.0318C131.732 57.1119 131.768 57.201 131.768 57.3078V59.2582L131.572 59.2939C131.599 58.9911 131.67 58.6883 131.803 58.3855C131.928 58.0827 132.097 57.8066 132.32 57.5572C132.534 57.3078 132.792 57.103 133.095 56.9427C133.398 56.7824 133.727 56.7111 134.101 56.7111C134.262 56.7111 134.413 56.7468 134.555 56.8091C134.707 56.8714 134.778 56.9783 134.778 57.1297C134.778 57.2633 134.742 57.3613 134.671 57.4325C134.6 57.5038 134.52 57.5394 134.422 57.5394C134.342 57.5394 134.262 57.5216 134.164 57.477C134.074 57.4325 133.95 57.4147 133.807 57.4147C133.567 57.4147 133.317 57.486 133.077 57.6284C132.837 57.7709 132.614 57.9669 132.409 58.2073C132.213 58.4478 132.053 58.7239 131.937 59.0178C131.821 59.3206 131.759 59.6234 131.759 59.9262V63.1412C131.759 63.2481 131.723 63.3372 131.643 63.4173C131.563 63.4975 131.474 63.5331 131.367 63.5331H131.394Z"
     fill="#4463A0"
     id="path24" />
  <path
     d="M138.661 56.729C139.079 56.729 139.462 56.7735 139.81 56.8625C140.157 56.9516 140.433 57.0763 140.647 57.2366C140.86 57.3969 140.967 57.5661 140.967 57.7442C140.967 57.8333 140.941 57.9134 140.878 58.0025C140.816 58.0827 140.736 58.1272 140.629 58.1272C140.522 58.1272 140.442 58.1005 140.38 58.047C140.317 57.9936 140.246 57.9313 140.184 57.8689C140.121 57.8066 140.023 57.7353 139.908 57.673C139.792 57.6195 139.631 57.575 139.427 57.5305C139.222 57.486 138.981 57.4681 138.714 57.4681C138.224 57.4681 137.788 57.5928 137.396 57.8333C137.004 58.0738 136.701 58.4033 136.47 58.8129C136.247 59.2226 136.131 59.6857 136.131 60.2023C136.131 60.7188 136.238 61.1908 136.461 61.6094C136.675 62.028 136.977 62.3575 137.36 62.5891C137.743 62.8295 138.189 62.9453 138.705 62.9453C139.053 62.9453 139.32 62.9186 139.516 62.8562C139.703 62.7939 139.872 62.7227 140.014 62.6514C140.175 62.5534 140.299 62.4644 140.371 62.3753C140.442 62.2863 140.54 62.2417 140.665 62.2417C140.78 62.2417 140.86 62.2774 140.923 62.3397C140.976 62.402 141.012 62.4911 141.012 62.598C141.012 62.7405 140.914 62.8919 140.709 63.0611C140.504 63.2303 140.228 63.3817 139.872 63.5064C139.516 63.6311 139.106 63.6934 138.652 63.6934C138.002 63.6934 137.432 63.542 136.942 63.2392C136.452 62.9364 136.069 62.5178 135.793 61.9924C135.517 61.4669 135.383 60.8791 135.383 60.2112C135.383 59.5432 135.526 59 135.802 58.4834C136.078 57.958 136.47 57.5394 136.969 57.2277C137.467 56.916 138.046 56.7557 138.705 56.7557L138.661 56.729Z"
     fill="#4463A0"
     id="path25" />
  <path
     d="M145.51 56.8269C146.053 56.8269 146.498 56.9427 146.837 57.1743C147.175 57.4058 147.424 57.7264 147.585 58.1272C147.745 58.528 147.825 58.9732 147.825 59.4542V63.1412C147.825 63.2481 147.79 63.3372 147.709 63.4173C147.629 63.4975 147.54 63.5331 147.433 63.5331C147.309 63.5331 147.22 63.4975 147.148 63.4173C147.077 63.3372 147.041 63.2481 147.041 63.1412V59.4542C147.041 59.0979 146.988 58.7773 146.881 58.4923C146.774 58.2073 146.596 57.9758 146.356 57.8066C146.115 57.6374 145.786 57.5483 145.376 57.5483C145.011 57.5483 144.664 57.6374 144.343 57.8066C144.022 57.9758 143.755 58.2073 143.559 58.4923C143.363 58.7773 143.256 59.0979 143.256 59.4542V63.1412C143.256 63.2481 143.221 63.3372 143.141 63.4173C143.06 63.4975 142.971 63.5331 142.865 63.5331C142.74 63.5331 142.651 63.4975 142.58 63.4173C142.508 63.3372 142.473 63.2481 142.473 63.1412V54.2887C142.473 54.1819 142.508 54.0928 142.58 54.0126C142.651 53.9325 142.749 53.8969 142.856 53.8969C142.962 53.8969 143.06 53.9325 143.132 54.0126C143.203 54.0928 143.239 54.1819 143.239 54.2887V58.5101L142.936 58.9643C142.954 58.6972 143.034 58.43 143.194 58.1806C143.345 57.9223 143.541 57.6908 143.791 57.4949C144.031 57.29 144.298 57.1297 144.601 57.0139C144.895 56.8982 145.198 56.8358 145.501 56.8358L145.51 56.8269Z"
     fill="#4463A0"
     id="path26" />
  <path
     d="M154.442 63.1323C154.442 63.2481 154.389 63.3372 154.309 63.4173C154.229 63.4975 154.131 63.5331 154.033 63.5331C153.908 63.5331 153.81 63.4975 153.739 63.4173C153.667 63.3372 153.632 63.2481 153.632 63.1323V54.8231C153.632 54.7073 153.667 54.6182 153.748 54.5381C153.828 54.4579 153.926 54.4223 154.05 54.4223C154.157 54.4223 154.246 54.4579 154.326 54.5381C154.407 54.6182 154.451 54.7073 154.451 54.8231V63.1323H154.442Z"
     fill="#4463A0"
     id="path27" />
  <path
     d="M159.821 56.729C160.391 56.729 160.854 56.8447 161.193 57.0763C161.531 57.3078 161.781 57.6196 161.932 58.0114C162.084 58.4033 162.164 58.8397 162.164 59.3206V63.1501C162.164 63.257 162.128 63.3461 162.048 63.4262C161.968 63.5064 161.879 63.542 161.772 63.542C161.647 63.542 161.558 63.5064 161.487 63.4262C161.416 63.3461 161.38 63.257 161.38 63.1501V59.3651C161.38 59.0178 161.327 58.6972 161.211 58.4122C161.095 58.1272 160.917 57.8956 160.659 57.7264C160.4 57.5572 160.062 57.4681 159.652 57.4681C159.278 57.4681 158.922 57.5572 158.592 57.7264C158.263 57.8956 157.987 58.1272 157.782 58.4122C157.577 58.6972 157.47 59.0178 157.47 59.3651V63.1501C157.47 63.257 157.435 63.3461 157.354 63.4262C157.274 63.5064 157.185 63.542 157.078 63.542C156.954 63.542 156.865 63.5064 156.793 63.4262C156.722 63.3461 156.687 63.257 156.687 63.1501V57.3167C156.687 57.2099 156.722 57.1208 156.793 57.0407C156.865 56.9605 156.963 56.9249 157.069 56.9249C157.176 56.9249 157.274 56.9605 157.346 57.0407C157.417 57.1208 157.452 57.2099 157.452 57.3167V58.4122L157.15 58.8842C157.167 58.6081 157.256 58.3409 157.417 58.0827C157.577 57.8244 157.782 57.5928 158.031 57.3969C158.281 57.201 158.566 57.0318 158.868 56.916C159.171 56.8002 159.483 56.7379 159.804 56.7379L159.821 56.729Z"
     fill="#4463A0"
     id="path28" />
  <path
     d="M167.115 57.0139C167.222 57.0139 167.303 57.0496 167.374 57.1208C167.445 57.1921 167.481 57.2811 167.481 57.3791C167.481 57.477 167.445 57.5661 167.374 57.6374C167.303 57.7086 167.213 57.7442 167.115 57.7442H163.927C163.829 57.7442 163.749 57.7086 163.669 57.6374C163.589 57.5661 163.562 57.477 163.562 57.3791C163.562 57.2633 163.598 57.1742 163.669 57.1119C163.74 57.0496 163.829 57.0139 163.927 57.0139H167.115ZM166.617 53.9503C166.75 53.9503 166.884 53.9592 167.044 53.9859C167.196 54.0126 167.329 54.0572 167.445 54.1195C167.561 54.1819 167.614 54.2798 167.614 54.4134C167.614 54.5114 167.579 54.5915 167.507 54.6717C167.436 54.7518 167.356 54.7785 167.276 54.7785C167.196 54.7785 167.08 54.7518 166.946 54.7073C166.813 54.6628 166.679 54.6361 166.528 54.6361C166.35 54.6361 166.189 54.6806 166.056 54.7607C165.922 54.8409 165.824 54.9567 165.753 55.1081C165.682 55.2595 165.646 55.4465 165.646 55.6602V63.1323C165.646 63.2392 165.61 63.3282 165.539 63.4084C165.468 63.4886 165.37 63.5242 165.263 63.5242C165.156 63.5242 165.058 63.4886 164.987 63.4084C164.916 63.3282 164.88 63.2392 164.88 63.1323V55.6602C164.88 55.1081 165.04 54.6806 165.37 54.3867C165.699 54.0928 166.118 53.9414 166.626 53.9414L166.617 53.9503Z"
     fill="#4463A0"
     id="path29" />
  <path
     d="M169.288 63.5331C169.164 63.5331 169.075 63.4975 169.003 63.4173C168.932 63.3372 168.896 63.2481 168.896 63.1412V57.3078C168.896 57.201 168.932 57.1119 169.003 57.0318C169.075 56.9516 169.173 56.916 169.279 56.916C169.386 56.916 169.484 56.9516 169.556 57.0318C169.627 57.1119 169.662 57.201 169.662 57.3078V59.2582L169.466 59.2939C169.493 58.9911 169.564 58.6883 169.698 58.3855C169.823 58.0827 169.992 57.8066 170.215 57.5572C170.428 57.3078 170.687 57.103 170.989 56.9427C171.292 56.7824 171.622 56.7111 171.996 56.7111C172.156 56.7111 172.307 56.7468 172.45 56.8091C172.601 56.8714 172.673 56.9783 172.673 57.1297C172.673 57.2633 172.637 57.3613 172.566 57.4325C172.494 57.5038 172.414 57.5394 172.316 57.5394C172.236 57.5394 172.156 57.5216 172.058 57.477C171.969 57.4325 171.844 57.4147 171.702 57.4147C171.461 57.4147 171.212 57.486 170.972 57.6284C170.731 57.7709 170.508 57.9669 170.304 58.2073C170.108 58.4478 169.947 58.7239 169.832 59.0178C169.716 59.3206 169.653 59.6234 169.653 59.9262V63.1412C169.653 63.2481 169.618 63.3372 169.538 63.4173C169.458 63.4975 169.369 63.5331 169.262 63.5331H169.288Z"
     fill="#4463A0"
     id="path30" />
  <path
     d="M179.21 56.8804C179.325 56.8804 179.415 56.916 179.486 56.9961C179.557 57.0763 179.593 57.1653 179.593 57.2811V63.1412C179.593 63.2481 179.557 63.3372 179.477 63.4173C179.397 63.4975 179.308 63.5331 179.201 63.5331C179.085 63.5331 178.996 63.4975 178.925 63.4173C178.853 63.3372 178.818 63.2481 178.818 63.1412V61.5916L179.041 61.4847C179.041 61.7252 178.969 61.9745 178.836 62.2239C178.702 62.4733 178.515 62.7137 178.284 62.9275C178.052 63.1412 177.776 63.3193 177.455 63.4529C177.135 63.5865 176.796 63.6578 176.431 63.6578C175.843 63.6578 175.318 63.5064 174.846 63.2036C174.383 62.9008 174.018 62.4822 173.75 61.9567C173.483 61.4313 173.35 60.8346 173.35 60.1756C173.35 59.5165 173.483 58.902 173.75 58.3855C174.018 57.8689 174.383 57.4592 174.846 57.1653C175.309 56.8714 175.825 56.72 176.404 56.72C176.778 56.72 177.126 56.7824 177.455 56.916C177.785 57.0496 178.061 57.2277 178.31 57.4503C178.551 57.673 178.738 57.9313 178.88 58.2252C179.014 58.519 179.085 58.8218 179.085 59.1336L178.809 58.9376V57.2811C178.809 57.1653 178.845 57.0763 178.916 56.9961C178.987 56.916 179.085 56.8804 179.192 56.8804H179.21ZM176.502 62.9364C176.965 62.9364 177.366 62.8206 177.722 62.5802C178.079 62.3397 178.355 62.0102 178.56 61.5916C178.764 61.173 178.862 60.701 178.862 60.1756C178.862 59.6501 178.764 59.2048 178.56 58.7951C178.355 58.3855 178.079 58.0648 177.722 57.8155C177.366 57.5661 176.957 57.4503 176.502 57.4503C176.048 57.4503 175.647 57.5661 175.282 57.7977C174.926 58.0292 174.641 58.3498 174.436 58.7595C174.231 59.1692 174.133 59.6323 174.133 60.1666C174.133 60.701 174.231 61.1552 174.436 61.5827C174.641 62.0013 174.917 62.3308 175.273 62.5712C175.63 62.8117 176.039 62.9275 176.493 62.9275L176.502 62.9364Z"
     fill="#4463A0"
     id="path31" />
  <path
     d="M181.267 62.4822C181.196 62.3753 181.169 62.2774 181.169 62.1794C181.169 62.0814 181.231 62.0013 181.329 61.9389C181.4 61.8766 181.481 61.8499 181.57 61.8588C181.659 61.8588 181.748 61.9122 181.828 61.9924C182.06 62.2952 182.345 62.5445 182.683 62.7316C183.012 62.9186 183.413 63.0076 183.876 63.0076C184.117 63.0076 184.357 62.9631 184.598 62.883C184.838 62.8028 185.034 62.6781 185.186 62.5089C185.346 62.3397 185.417 62.1259 185.417 61.8677C185.417 61.6094 185.337 61.3779 185.186 61.2175C185.034 61.0572 184.829 60.9236 184.58 60.8257C184.331 60.7277 184.072 60.6476 183.796 60.5763C183.502 60.4962 183.217 60.4071 182.941 60.3091C182.665 60.2112 182.416 60.0865 182.202 59.9351C181.988 59.7837 181.819 59.5967 181.685 59.3829C181.552 59.1692 181.49 58.902 181.49 58.5903C181.49 58.2251 181.588 57.9045 181.792 57.6285C181.988 57.3524 182.264 57.1297 182.603 56.9783C182.941 56.818 183.333 56.7468 183.769 56.7468C183.983 56.7468 184.224 56.7735 184.473 56.8358C184.722 56.8982 184.972 56.9872 185.212 57.1119C185.453 57.2366 185.675 57.4236 185.862 57.6463C185.943 57.7264 185.978 57.8155 185.978 57.9134C185.978 58.0114 185.934 58.1005 185.845 58.1806C185.773 58.2341 185.693 58.2608 185.604 58.2608C185.515 58.2608 185.435 58.2251 185.373 58.1539C185.168 57.9223 184.918 57.7442 184.633 57.6195C184.348 57.4949 184.037 57.4414 183.707 57.4414C183.458 57.4414 183.217 57.486 182.995 57.5661C182.772 57.6463 182.585 57.7709 182.442 57.9402C182.291 58.1094 182.22 58.3231 182.22 58.5903C182.238 58.8397 182.327 59.0445 182.487 59.2048C182.647 59.3651 182.861 59.4898 183.128 59.5967C183.395 59.7035 183.689 59.7926 184.019 59.8817C184.295 59.9529 184.562 60.0331 184.82 60.131C185.079 60.229 185.301 60.3448 185.497 60.4873C185.693 60.6298 185.845 60.8079 185.969 61.0305C186.094 61.2532 186.147 61.5203 186.147 61.8499C186.147 62.2328 186.04 62.5623 185.827 62.8384C185.613 63.1145 185.328 63.3283 184.972 63.4797C184.616 63.6311 184.224 63.7023 183.787 63.7023C183.315 63.7023 182.861 63.6132 182.425 63.4262C181.988 63.2481 181.596 62.9364 181.258 62.5178L181.267 62.4822Z"
     fill="#4463A0"
     id="path32" />
  <path
     d="M187.323 56.9071H190.36C190.467 56.9071 190.547 56.9427 190.618 57.014C190.689 57.0852 190.725 57.1743 190.725 57.2811C190.725 57.3791 190.689 57.4593 190.618 57.5305C190.547 57.6017 190.458 57.6374 190.36 57.6374H187.323C187.216 57.6374 187.127 57.6017 187.056 57.5305C186.984 57.4593 186.949 57.3702 186.949 57.2722C186.949 57.1654 186.984 57.0852 187.056 57.014C187.127 56.9427 187.216 56.9071 187.323 56.9071ZM188.668 55.0725C188.783 55.0725 188.872 55.1081 188.944 55.1882C189.015 55.2684 189.051 55.3574 189.051 55.4643V62.0013C189.051 62.2417 189.086 62.4288 189.148 62.5445C189.211 62.6692 189.3 62.7494 189.407 62.785C189.514 62.8206 189.612 62.8473 189.718 62.8473C189.79 62.8473 189.852 62.8384 189.906 62.8117C189.959 62.7939 190.021 62.7761 190.093 62.7761C190.173 62.7761 190.235 62.8028 190.297 62.8652C190.351 62.9275 190.378 63.0077 190.378 63.0967C190.378 63.2214 190.306 63.3194 190.173 63.3995C190.03 63.4797 189.87 63.5242 189.674 63.5242C189.594 63.5242 189.478 63.5242 189.327 63.5064C189.166 63.4975 189.006 63.444 188.846 63.3639C188.676 63.2837 188.543 63.1323 188.436 62.9275C188.329 62.7227 188.276 62.4199 188.276 62.028V55.4554C188.276 55.3485 188.311 55.2595 188.383 55.1793C188.454 55.0992 188.552 55.0636 188.659 55.0636L188.668 55.0725Z"
     fill="#4463A0"
     id="path33" />
  <path
     d="M192.551 63.5331C192.426 63.5331 192.337 63.4975 192.266 63.4173C192.194 63.3372 192.159 63.2481 192.159 63.1412V57.3078C192.159 57.201 192.194 57.1119 192.266 57.0318C192.337 56.9516 192.435 56.916 192.542 56.916C192.649 56.916 192.746 56.9516 192.818 57.0318C192.889 57.1119 192.925 57.201 192.925 57.3078V59.2582L192.729 59.2939C192.755 58.9911 192.827 58.6883 192.96 58.3855C193.085 58.0827 193.254 57.8066 193.477 57.5572C193.691 57.3078 193.949 57.103 194.252 56.9427C194.554 56.7824 194.884 56.7111 195.258 56.7111C195.418 56.7111 195.57 56.7468 195.712 56.8091C195.864 56.8714 195.935 56.9783 195.935 57.1297C195.935 57.2633 195.899 57.3613 195.828 57.4325C195.757 57.5038 195.677 57.5394 195.579 57.5394C195.498 57.5394 195.418 57.5216 195.32 57.477C195.231 57.4325 195.107 57.4147 194.964 57.4147C194.724 57.4147 194.474 57.486 194.234 57.6284C193.993 57.7709 193.771 57.9669 193.566 58.2073C193.37 58.4478 193.21 58.7239 193.094 59.0178C192.978 59.3206 192.916 59.6234 192.916 59.9262V63.1412C192.916 63.2481 192.88 63.3372 192.8 63.4173C192.72 63.4975 192.631 63.5331 192.524 63.5331H192.551Z"
     fill="#4463A0"
     id="path34" />
  <path
     d="M202.151 56.9249C202.267 56.9249 202.356 56.9605 202.427 57.0407C202.499 57.1208 202.534 57.2099 202.534 57.3168V60.986C202.534 61.841 202.294 62.5 201.804 62.9542C201.314 63.4084 200.664 63.6311 199.836 63.6311C199.008 63.6311 198.375 63.4084 197.885 62.9542C197.405 62.5 197.164 61.8499 197.164 60.986V57.3168C197.164 57.2099 197.2 57.1208 197.271 57.0407C197.342 56.9605 197.44 56.9249 197.547 56.9249C197.654 56.9249 197.752 56.9605 197.823 57.0407C197.894 57.1208 197.93 57.2099 197.93 57.3168V60.986C197.93 61.6094 198.099 62.0903 198.429 62.411C198.758 62.7405 199.221 62.9008 199.818 62.9008C200.415 62.9008 200.887 62.7405 201.225 62.411C201.564 62.0814 201.733 61.6094 201.733 60.986V57.3168C201.733 57.2099 201.768 57.1208 201.84 57.0407C201.911 56.9605 202 56.9249 202.125 56.9249H202.151Z"
     fill="#4463A0"
     id="path35" />
  <path
     d="M207.513 56.729C207.931 56.729 208.314 56.7735 208.662 56.8625C209.009 56.9516 209.285 57.0763 209.499 57.2366C209.713 57.3969 209.819 57.5661 209.819 57.7442C209.819 57.8333 209.793 57.9134 209.73 58.0025C209.668 58.0827 209.588 58.1272 209.481 58.1272C209.374 58.1272 209.294 58.1005 209.232 58.047C209.169 57.9936 209.098 57.9313 209.036 57.8689C208.973 57.8066 208.875 57.7353 208.76 57.673C208.644 57.6195 208.483 57.575 208.279 57.5305C208.074 57.486 207.833 57.4681 207.566 57.4681C207.076 57.4681 206.64 57.5928 206.248 57.8333C205.856 58.0738 205.553 58.4033 205.322 58.8129C205.099 59.2226 204.983 59.6857 204.983 60.2023C204.983 60.7188 205.09 61.1908 205.313 61.6094C205.527 62.028 205.83 62.3575 206.212 62.5891C206.595 62.8295 207.041 62.9453 207.557 62.9453C207.905 62.9453 208.172 62.9186 208.368 62.8562C208.555 62.7939 208.724 62.7227 208.866 62.6514C209.027 62.5534 209.151 62.4644 209.223 62.3753C209.294 62.2863 209.392 62.2417 209.517 62.2417C209.632 62.2417 209.713 62.2774 209.775 62.3397C209.828 62.402 209.864 62.4911 209.864 62.598C209.864 62.7405 209.766 62.8919 209.561 63.0611C209.356 63.2303 209.08 63.3817 208.724 63.5064C208.368 63.6311 207.958 63.6934 207.504 63.6934C206.854 63.6934 206.284 63.542 205.794 63.2392C205.304 62.9364 204.921 62.5178 204.645 61.9924C204.369 61.4669 204.235 60.8791 204.235 60.2112C204.235 59.5432 204.378 59 204.654 58.4834C204.93 57.958 205.322 57.5394 205.821 57.2277C206.319 56.916 206.898 56.7557 207.557 56.7557L207.513 56.729Z"
     fill="#4463A0"
     id="path36" />
  <path
     d="M210.897 56.9071H213.934C214.041 56.9071 214.121 56.9427 214.192 57.014C214.263 57.0852 214.299 57.1743 214.299 57.2811C214.299 57.3791 214.263 57.4593 214.192 57.5305C214.121 57.6017 214.032 57.6374 213.934 57.6374H210.897C210.79 57.6374 210.701 57.6017 210.63 57.5305C210.559 57.4593 210.523 57.3702 210.523 57.2722C210.523 57.1654 210.559 57.0852 210.63 57.014C210.701 56.9427 210.79 56.9071 210.897 56.9071ZM212.242 55.0725C212.358 55.0725 212.447 55.1081 212.518 55.1882C212.589 55.2684 212.625 55.3574 212.625 55.4643V62.0013C212.625 62.2417 212.66 62.4288 212.723 62.5445C212.785 62.6692 212.874 62.7494 212.981 62.785C213.088 62.8206 213.186 62.8473 213.293 62.8473C213.364 62.8473 213.426 62.8384 213.48 62.8117C213.533 62.7939 213.595 62.7761 213.667 62.7761C213.747 62.7761 213.809 62.8028 213.872 62.8652C213.925 62.9275 213.952 63.0077 213.952 63.0967C213.952 63.2214 213.88 63.3194 213.747 63.3995C213.604 63.4797 213.444 63.5242 213.248 63.5242C213.168 63.5242 213.052 63.5242 212.901 63.5064C212.741 63.4975 212.58 63.444 212.42 63.3639C212.251 63.2837 212.117 63.1323 212.01 62.9275C211.903 62.7227 211.85 62.4199 211.85 62.028V55.4554C211.85 55.3485 211.886 55.2595 211.957 55.1793C212.028 55.0992 212.126 55.0636 212.233 55.0636L212.242 55.0725Z"
     fill="#4463A0"
     id="path37" />
  <path
     d="M220.72 56.9249C220.836 56.9249 220.925 56.9605 220.996 57.0407C221.068 57.1208 221.103 57.2099 221.103 57.3168V60.986C221.103 61.841 220.863 62.5 220.373 62.9542C219.883 63.4084 219.233 63.6311 218.405 63.6311C217.576 63.6311 216.944 63.4084 216.454 62.9542C215.973 62.5 215.733 61.8499 215.733 60.986V57.3168C215.733 57.2099 215.769 57.1208 215.84 57.0407C215.911 56.9605 216.009 56.9249 216.116 56.9249C216.223 56.9249 216.321 56.9605 216.392 57.0407C216.463 57.1208 216.499 57.2099 216.499 57.3168V60.986C216.499 61.6094 216.668 62.0903 216.998 62.411C217.327 62.7405 217.79 62.9008 218.387 62.9008C218.984 62.9008 219.456 62.7405 219.794 62.411C220.132 62.0814 220.302 61.6094 220.302 60.986V57.3168C220.302 57.2099 220.337 57.1208 220.409 57.0407C220.48 56.9605 220.569 56.9249 220.694 56.9249H220.72Z"
     fill="#4463A0"
     id="path38" />
  <path
     d="M223.544 63.5331C223.419 63.5331 223.33 63.4975 223.259 63.4173C223.187 63.3372 223.152 63.2481 223.152 63.1412V57.3078C223.152 57.201 223.187 57.1119 223.259 57.0318C223.33 56.9516 223.428 56.916 223.535 56.916C223.642 56.916 223.74 56.9516 223.811 57.0318C223.882 57.1119 223.918 57.201 223.918 57.3078V59.2582L223.722 59.2939C223.749 58.9911 223.82 58.6883 223.953 58.3855C224.078 58.0827 224.247 57.8066 224.47 57.5572C224.684 57.3078 224.942 57.103 225.245 56.9427C225.548 56.7824 225.877 56.7111 226.251 56.7111C226.411 56.7111 226.563 56.7468 226.705 56.8091C226.857 56.8714 226.928 56.9783 226.928 57.1297C226.928 57.2633 226.892 57.3613 226.821 57.4325C226.75 57.5038 226.67 57.5394 226.572 57.5394C226.492 57.5394 226.411 57.5216 226.313 57.477C226.224 57.4325 226.1 57.4147 225.957 57.4147C225.717 57.4147 225.467 57.486 225.227 57.6284C224.986 57.7709 224.764 57.9669 224.559 58.2073C224.363 58.4478 224.203 58.7239 224.087 59.0178C223.971 59.3206 223.909 59.6234 223.909 59.9262V63.1412C223.909 63.2481 223.873 63.3372 223.793 63.4173C223.713 63.4975 223.624 63.5331 223.517 63.5331H223.544Z"
     fill="#4463A0"
     id="path39" />
  <path
     d="M230.891 63.6667C230.223 63.6667 229.635 63.5242 229.119 63.2392C228.602 62.9542 228.21 62.5534 227.916 62.0458C227.622 61.5382 227.489 60.9326 227.489 60.2468C227.489 59.5076 227.631 58.8753 227.925 58.3587C228.219 57.8333 228.593 57.4325 229.056 57.1564C229.519 56.8715 230.009 56.729 230.535 56.729C230.918 56.729 231.292 56.8002 231.648 56.9338C232.004 57.0674 232.334 57.2633 232.61 57.5305C232.886 57.7977 233.117 58.1183 233.287 58.5012C233.456 58.8842 233.545 59.3295 233.563 59.8282C233.563 59.9351 233.509 60.0242 233.429 60.0954C233.349 60.1666 233.26 60.2023 233.153 60.2023H227.934L227.774 59.4987H232.904L232.734 59.659V59.4007C232.699 58.9911 232.574 58.6437 232.343 58.3587C232.111 58.0738 231.844 57.8511 231.523 57.7086C231.203 57.5661 230.864 57.486 230.517 57.486C230.259 57.486 229.991 57.5394 229.715 57.6463C229.439 57.7531 229.19 57.9134 228.976 58.1361C228.753 58.3587 228.575 58.6437 228.433 58.9822C228.29 59.3295 228.228 59.7303 228.228 60.2023C228.228 60.7188 228.335 61.1819 228.54 61.5916C228.745 62.0102 229.047 62.3397 229.448 62.5802C229.849 62.8206 230.312 62.9453 230.864 62.9453C231.167 62.9453 231.443 62.9008 231.683 62.8117C231.924 62.7227 232.138 62.6069 232.325 62.4644C232.512 62.3219 232.654 62.1705 232.779 62.0191C232.877 61.9389 232.966 61.9033 233.064 61.9033C233.153 61.9033 233.224 61.9389 233.295 62.0102C233.367 62.0814 233.393 62.1616 233.393 62.2417C233.393 62.3486 233.349 62.4377 233.26 62.5178C233.002 62.8295 232.663 63.1056 232.245 63.3283C231.826 63.5509 231.372 63.6756 230.873 63.6756L230.891 63.6667Z"
     fill="#4463A0"
     id="path40" />
  <path
     d="M234.854 62.4822C234.783 62.3753 234.756 62.2774 234.756 62.1794C234.756 62.0814 234.819 62.0013 234.917 61.9389C234.988 61.8766 235.068 61.8499 235.157 61.8588C235.246 61.8588 235.335 61.9122 235.415 61.9924C235.647 62.2952 235.932 62.5445 236.27 62.7316C236.6 62.9186 237.001 63.0076 237.464 63.0076C237.704 63.0076 237.945 62.9631 238.185 62.883C238.426 62.8028 238.622 62.6781 238.773 62.5089C238.933 62.3397 239.004 62.1259 239.004 61.8677C239.004 61.6094 238.924 61.3779 238.773 61.2175C238.622 61.0572 238.417 60.9236 238.167 60.8257C237.918 60.7277 237.66 60.6476 237.384 60.5763C237.09 60.4962 236.805 60.4071 236.529 60.3091C236.253 60.2112 236.003 60.0865 235.789 59.9351C235.576 59.7837 235.406 59.5967 235.273 59.3829C235.139 59.1692 235.077 58.902 235.077 58.5903C235.077 58.2251 235.175 57.9045 235.38 57.6285C235.576 57.3524 235.852 57.1297 236.19 56.9783C236.529 56.818 236.921 56.7468 237.357 56.7468C237.571 56.7468 237.811 56.7735 238.06 56.8358C238.31 56.8982 238.559 56.9872 238.8 57.1119C239.04 57.2366 239.263 57.4236 239.45 57.6463C239.53 57.7264 239.566 57.8155 239.566 57.9134C239.566 58.0114 239.521 58.1005 239.432 58.1806C239.361 58.2341 239.281 58.2608 239.192 58.2608C239.102 58.2608 239.022 58.2251 238.96 58.1539C238.755 57.9223 238.506 57.7442 238.221 57.6195C237.936 57.4949 237.624 57.4414 237.295 57.4414C237.045 57.4414 236.805 57.486 236.582 57.5661C236.359 57.6463 236.172 57.7709 236.03 57.9402C235.879 58.1094 235.807 58.3231 235.807 58.5903C235.825 58.8397 235.914 59.0445 236.074 59.2048C236.235 59.3651 236.448 59.4898 236.716 59.5967C236.983 59.7035 237.277 59.7926 237.606 59.8817C237.882 59.9529 238.15 60.0331 238.408 60.131C238.666 60.229 238.889 60.3448 239.085 60.4873C239.281 60.6298 239.432 60.8079 239.557 61.0305C239.681 61.2532 239.735 61.5203 239.735 61.8499C239.735 62.2328 239.628 62.5623 239.414 62.8384C239.2 63.1145 238.915 63.3283 238.559 63.4797C238.203 63.6311 237.811 63.7023 237.375 63.7023C236.903 63.7023 236.448 63.6132 236.012 63.4262C235.576 63.2481 235.184 62.9364 234.845 62.5178L234.854 62.4822Z"
     fill="#4463A0"
     id="path41" />
  <path
     d="M247.803 57.0139C247.91 57.0139 247.99 57.0496 248.061 57.1208C248.132 57.1921 248.168 57.2811 248.168 57.3791C248.168 57.477 248.132 57.5661 248.061 57.6374C247.99 57.7086 247.901 57.7442 247.803 57.7442H244.615C244.517 57.7442 244.437 57.7086 244.356 57.6374C244.276 57.5661 244.25 57.477 244.25 57.3791C244.25 57.2633 244.285 57.1742 244.356 57.1119C244.428 57.0496 244.517 57.0139 244.615 57.0139H247.803ZM247.304 53.9503C247.438 53.9503 247.571 53.9592 247.732 53.9859C247.883 54.0126 248.017 54.0572 248.133 54.1195C248.248 54.1819 248.302 54.2798 248.302 54.4134C248.302 54.5114 248.266 54.5915 248.195 54.6717C248.124 54.7518 248.043 54.7785 247.963 54.7785C247.883 54.7785 247.767 54.7518 247.634 54.7073C247.5 54.6628 247.367 54.6361 247.215 54.6361C247.037 54.6361 246.877 54.6806 246.743 54.7607C246.61 54.8409 246.512 54.9567 246.44 55.1081C246.369 55.2595 246.333 55.4465 246.333 55.6602V63.1323C246.333 63.2392 246.298 63.3282 246.227 63.4084C246.155 63.4886 246.057 63.5242 245.951 63.5242C245.844 63.5242 245.746 63.4886 245.674 63.4084C245.603 63.3282 245.568 63.2392 245.568 63.1323V55.6602C245.568 55.1081 245.728 54.6806 246.057 54.3867C246.387 54.0928 246.806 53.9414 247.313 53.9414L247.304 53.9503Z"
     fill="#4463A0"
     id="path42" />
  <path
     d="M255.302 60.2023C255.302 60.8613 255.16 61.458 254.875 61.9835C254.59 62.5089 254.198 62.9186 253.699 63.2214C253.201 63.5242 252.639 63.6667 252.007 63.6667C251.375 63.6667 250.832 63.5153 250.333 63.2214C249.834 62.9275 249.442 62.5089 249.148 61.9835C248.854 61.458 248.712 60.8702 248.712 60.2023C248.712 59.5343 248.854 58.9376 249.148 58.4211C249.442 57.9045 249.834 57.486 250.333 57.1832C250.832 56.8804 251.393 56.729 252.007 56.729C252.622 56.729 253.209 56.8804 253.699 57.1832C254.198 57.486 254.581 57.8956 254.875 58.4211C255.16 58.9465 255.302 59.5343 255.302 60.2023ZM254.519 60.2023C254.519 59.6768 254.412 59.2048 254.189 58.7862C253.975 58.3766 253.673 58.047 253.298 57.8066C252.924 57.5661 252.488 57.4503 252.007 57.4503C251.526 57.4503 251.117 57.5661 250.734 57.8066C250.351 58.047 250.048 58.3676 249.825 58.7862C249.603 59.1959 249.496 59.6679 249.496 60.2023C249.496 60.7366 249.603 61.1997 249.825 61.6094C250.048 62.0191 250.351 62.3397 250.734 62.5802C251.117 62.8206 251.544 62.9364 252.007 62.9364C252.47 62.9364 252.924 62.8206 253.298 62.5802C253.673 62.3397 253.975 62.0191 254.189 61.6094C254.403 61.1997 254.519 60.7366 254.519 60.2023Z"
     fill="#4463A0"
     id="path43" />
  <path
     d="M257.36 63.5331C257.235 63.5331 257.146 63.4975 257.075 63.4173C257.003 63.3372 256.968 63.2481 256.968 63.1412V57.3078C256.968 57.201 257.003 57.1119 257.075 57.0318C257.146 56.9516 257.244 56.916 257.351 56.916C257.458 56.916 257.556 56.9516 257.627 57.0318C257.698 57.1119 257.734 57.201 257.734 57.3078V59.2582L257.538 59.2939C257.564 58.9911 257.636 58.6883 257.769 58.3855C257.894 58.0827 258.063 57.8066 258.286 57.5572C258.5 57.3078 258.758 57.103 259.061 56.9427C259.363 56.7824 259.693 56.7111 260.067 56.7111C260.227 56.7111 260.379 56.7468 260.521 56.8091C260.673 56.8714 260.744 56.9783 260.744 57.1297C260.744 57.2633 260.708 57.3613 260.637 57.4325C260.566 57.5038 260.486 57.5394 260.388 57.5394C260.307 57.5394 260.227 57.5216 260.129 57.477C260.04 57.4325 259.916 57.4147 259.773 57.4147C259.533 57.4147 259.283 57.486 259.043 57.6284C258.802 57.7709 258.58 57.9669 258.375 58.2073C258.179 58.4478 258.019 58.7239 257.903 59.0178C257.787 59.3206 257.725 59.6234 257.725 59.9262V63.1412C257.725 63.2481 257.689 63.3372 257.609 63.4173C257.529 63.4975 257.44 63.5331 257.333 63.5331H257.36Z"
     fill="#4463A0"
     id="path44" />
  <path
     d="M273.853 58.9822C273.853 59.6679 273.746 60.2913 273.532 60.8613C273.319 61.4313 273.016 61.9211 272.624 62.3486C272.232 62.7672 271.769 63.0967 271.235 63.3283C270.7 63.5598 270.121 63.6756 269.48 63.6756C268.839 63.6756 268.26 63.5598 267.726 63.3283C267.191 63.0967 266.728 62.7761 266.336 62.3486C265.945 61.93 265.642 61.4313 265.428 60.8613C265.214 60.2913 265.107 59.6679 265.107 58.9822C265.107 58.2964 265.214 57.673 265.428 57.103C265.642 56.533 265.945 56.0432 266.336 55.6157C266.728 55.1971 267.191 54.8676 267.726 54.6361C268.26 54.4045 268.839 54.2887 269.48 54.2887C270.121 54.2887 270.7 54.4045 271.235 54.6361C271.769 54.8676 272.232 55.1882 272.624 55.6157C273.016 56.0343 273.319 56.533 273.532 57.103C273.746 57.673 273.853 58.2964 273.853 58.9822ZM273.016 58.9822C273.016 58.2073 272.864 57.5305 272.571 56.9427C272.277 56.3549 271.858 55.9007 271.324 55.5712C270.798 55.2417 270.184 55.0725 269.489 55.0725C268.794 55.0725 268.189 55.2417 267.663 55.5712C267.129 55.9007 266.71 56.3549 266.417 56.9427C266.123 57.5305 265.971 58.2073 265.971 58.9822C265.971 59.757 266.123 60.4338 266.417 61.0216C266.71 61.6094 267.129 62.0636 267.663 62.3931C268.198 62.7227 268.803 62.8919 269.489 62.8919C270.175 62.8919 270.798 62.7316 271.324 62.3931C271.849 62.0636 272.268 61.6094 272.571 61.0216C272.873 60.4338 273.016 59.757 273.016 58.9822Z"
     fill="#4463A0"
     id="path45" />
  <path
     d="M278.671 56.8269C279.259 56.8269 279.784 56.9694 280.238 57.2633C280.692 57.5572 281.058 57.9491 281.325 58.4656C281.592 58.9732 281.726 59.561 281.726 60.2201C281.726 60.8791 281.592 61.4669 281.325 61.9746C281.058 62.4911 280.692 62.8919 280.229 63.1858C279.766 63.4797 279.25 63.6311 278.68 63.6311C278.377 63.6311 278.092 63.5865 277.816 63.4975C277.54 63.4084 277.29 63.2837 277.068 63.1234C276.845 62.9631 276.64 62.785 276.471 62.5712C276.293 62.3575 276.159 62.126 276.052 61.8766L276.284 61.7074V65.7596C276.284 65.8664 276.248 65.9555 276.177 66.0357C276.106 66.1158 276.008 66.1514 275.901 66.1514C275.794 66.1514 275.696 66.1158 275.625 66.0357C275.554 65.9555 275.518 65.8664 275.518 65.7596V57.2722C275.518 57.1564 275.554 57.0674 275.625 56.9872C275.696 56.9071 275.785 56.8714 275.91 56.8714C276.026 56.8714 276.115 56.9071 276.186 56.9872C276.257 57.0674 276.293 57.1653 276.293 57.2722V58.6794L276.115 58.5725C276.204 58.3053 276.328 58.0648 276.498 57.8511C276.667 57.6374 276.863 57.4592 277.094 57.3078C277.317 57.1564 277.566 57.0407 277.834 56.9605C278.101 56.8804 278.386 56.8447 278.68 56.8447L278.671 56.8269ZM278.608 57.5572C278.136 57.5572 277.727 57.673 277.37 57.9045C277.014 58.1361 276.738 58.4478 276.533 58.8397C276.328 59.2315 276.231 59.6946 276.231 60.2112C276.231 60.7277 276.328 61.1819 276.533 61.5916C276.738 62.0013 277.014 62.3219 277.37 62.5445C277.727 62.7761 278.136 62.8919 278.608 62.8919C279.08 62.8919 279.472 62.7761 279.829 62.5445C280.176 62.313 280.461 61.9924 280.666 61.5916C280.871 61.1908 280.977 60.7277 280.977 60.2112C280.977 59.6946 280.871 59.2404 280.666 58.8397C280.461 58.4389 280.176 58.1272 279.829 57.8956C279.472 57.6641 279.072 57.5483 278.608 57.5483V57.5572Z"
     fill="#4463A0"
     id="path46" />
  <path
     d="M286.41 63.6667C285.742 63.6667 285.155 63.5242 284.638 63.2392C284.122 62.9542 283.73 62.5534 283.436 62.0458C283.142 61.5382 283.008 60.9326 283.008 60.2468C283.008 59.5076 283.151 58.8753 283.445 58.3587C283.739 57.8333 284.113 57.4325 284.576 57.1564C285.039 56.8715 285.529 56.729 286.054 56.729C286.437 56.729 286.811 56.8002 287.167 56.9338C287.524 57.0674 287.853 57.2633 288.129 57.5305C288.405 57.7977 288.637 58.1183 288.806 58.5012C288.975 58.8842 289.064 59.3295 289.082 59.8282C289.082 59.9351 289.029 60.0242 288.949 60.0954C288.868 60.1666 288.779 60.2023 288.672 60.2023H283.454L283.293 59.4987H288.423L288.254 59.659V59.4007C288.218 58.9911 288.094 58.6437 287.862 58.3587C287.63 58.0738 287.363 57.8511 287.043 57.7086C286.722 57.5661 286.384 57.486 286.036 57.486C285.778 57.486 285.511 57.5394 285.235 57.6463C284.959 57.7531 284.709 57.9134 284.496 58.1361C284.273 58.3587 284.095 58.6437 283.952 58.9822C283.81 59.3295 283.747 59.7303 283.747 60.2023C283.747 60.7188 283.854 61.1819 284.059 61.5916C284.264 62.0102 284.567 62.3397 284.968 62.5802C285.368 62.8206 285.831 62.9453 286.384 62.9453C286.686 62.9453 286.963 62.9008 287.203 62.8117C287.443 62.7227 287.657 62.6069 287.844 62.4644C288.031 62.3219 288.174 62.1705 288.298 62.0191C288.396 61.9389 288.485 61.9033 288.583 61.9033C288.672 61.9033 288.744 61.9389 288.815 62.0102C288.886 62.0814 288.913 62.1616 288.913 62.2417C288.913 62.3486 288.868 62.4377 288.779 62.5178C288.521 62.8295 288.183 63.1056 287.764 63.3283C287.345 63.5509 286.891 63.6756 286.393 63.6756L286.41 63.6667Z"
     fill="#4463A0"
     id="path47" />
  <path
     d="M293.892 56.729C294.462 56.729 294.925 56.8447 295.263 57.0763C295.602 57.3078 295.851 57.6196 296.002 58.0114C296.154 58.4033 296.234 58.8397 296.234 59.3206V63.1501C296.234 63.257 296.198 63.3461 296.118 63.4262C296.038 63.5064 295.949 63.542 295.842 63.542C295.717 63.542 295.628 63.5064 295.557 63.4262C295.486 63.3461 295.45 63.257 295.45 63.1501V59.3651C295.45 59.0178 295.397 58.6972 295.281 58.4122C295.165 58.1272 294.987 57.8956 294.729 57.7264C294.471 57.5572 294.132 57.4681 293.723 57.4681C293.348 57.4681 292.992 57.5572 292.663 57.7264C292.333 57.8956 292.057 58.1272 291.852 58.4122C291.647 58.6972 291.541 59.0178 291.541 59.3651V63.1501C291.541 63.257 291.505 63.3461 291.425 63.4262C291.345 63.5064 291.256 63.542 291.149 63.542C291.024 63.542 290.935 63.5064 290.864 63.4262C290.792 63.3461 290.757 63.257 290.757 63.1501V57.3167C290.757 57.2099 290.792 57.1208 290.864 57.0407C290.935 56.9605 291.033 56.9249 291.14 56.9249C291.247 56.9249 291.345 56.9605 291.416 57.0407C291.487 57.1208 291.523 57.2099 291.523 57.3167V58.4122L291.22 58.8842C291.238 58.6081 291.327 58.3409 291.487 58.0827C291.647 57.8244 291.852 57.5928 292.102 57.3969C292.351 57.201 292.636 57.0318 292.939 56.916C293.242 56.8002 293.553 56.7379 293.874 56.7379L293.892 56.729Z"
     fill="#4463A0"
     id="path48" />
  <path
     d="M304.543 63.6667C303.884 63.6667 303.314 63.5687 302.824 63.355C302.334 63.1412 301.871 62.8117 301.435 62.3753C301.39 62.3397 301.354 62.2952 301.328 62.2417C301.301 62.1883 301.283 62.126 301.283 62.0636C301.283 61.9567 301.328 61.8677 301.408 61.7786C301.488 61.6896 301.586 61.645 301.684 61.645C301.782 61.645 301.88 61.6896 301.969 61.7786C302.307 62.1438 302.69 62.4199 303.118 62.6158C303.545 62.8117 304.008 62.9008 304.507 62.9008C304.926 62.9008 305.291 62.8384 305.62 62.7048C305.95 62.5713 306.208 62.3842 306.395 62.1438C306.582 61.9033 306.68 61.6183 306.68 61.2977C306.68 60.8969 306.573 60.5763 306.351 60.327C306.128 60.0776 305.843 59.8728 305.496 59.7124C305.139 59.5521 304.748 59.4096 304.311 59.2761C303.955 59.1692 303.617 59.0534 303.296 58.9198C302.975 58.7862 302.69 58.617 302.441 58.4211C302.192 58.2252 301.996 57.9847 301.853 57.6997C301.711 57.4147 301.648 57.0674 301.648 56.6577C301.648 56.1946 301.773 55.7938 302.013 55.4376C302.254 55.0814 302.601 54.8053 303.047 54.6004C303.492 54.3956 304.008 54.2976 304.605 54.2976C305.113 54.2976 305.611 54.3867 306.083 54.5559C306.556 54.7251 306.93 54.9834 307.206 55.3218C307.339 55.4643 307.402 55.589 307.402 55.6959C307.402 55.7849 307.357 55.8651 307.268 55.9541C307.179 56.0432 307.09 56.0877 306.983 56.0877C306.894 56.0877 306.823 56.061 306.76 55.9987C306.609 55.8206 306.422 55.6513 306.199 55.5088C305.977 55.3663 305.727 55.2506 305.451 55.1793C305.175 55.1081 304.89 55.0635 304.596 55.0635C304.187 55.0635 303.821 55.1259 303.492 55.2506C303.162 55.3753 302.913 55.5534 302.726 55.7938C302.539 56.0254 302.45 56.3104 302.45 56.6399C302.45 57.005 302.557 57.3078 302.762 57.5394C302.966 57.771 303.242 57.9669 303.581 58.1183C303.919 58.2697 304.276 58.4122 304.659 58.5458C305.033 58.6526 305.389 58.7684 305.736 58.902C306.075 59.0356 306.386 59.2048 306.645 59.4007C306.912 59.5967 307.117 59.8549 307.268 60.1577C307.419 60.4605 307.5 60.8435 307.5 61.3066C307.5 61.7697 307.375 62.1527 307.125 62.5089C306.876 62.8651 306.529 63.1501 306.092 63.355C305.656 63.5598 305.139 63.6756 304.552 63.6845L304.543 63.6667Z"
     fill="#4463A0"
     id="path49" />
  <path
     d="M312.086 56.729C312.505 56.729 312.888 56.7735 313.235 56.8625C313.583 56.9516 313.859 57.0763 314.072 57.2366C314.286 57.3969 314.393 57.5661 314.393 57.7442C314.393 57.8333 314.366 57.9134 314.304 58.0025C314.242 58.0827 314.162 58.1272 314.055 58.1272C313.948 58.1272 313.868 58.1005 313.805 58.047C313.743 57.9936 313.672 57.9313 313.609 57.8689C313.547 57.8066 313.449 57.7353 313.333 57.673C313.218 57.6195 313.057 57.575 312.852 57.5305C312.648 57.486 312.407 57.4681 312.14 57.4681C311.65 57.4681 311.214 57.5928 310.822 57.8333C310.43 58.0738 310.127 58.4033 309.896 58.8129C309.673 59.2226 309.557 59.6857 309.557 60.2023C309.557 60.7188 309.664 61.1908 309.887 61.6094C310.1 62.028 310.403 62.3575 310.786 62.5891C311.169 62.8295 311.614 62.9453 312.131 62.9453C312.478 62.9453 312.745 62.9186 312.941 62.8562C313.128 62.7939 313.298 62.7227 313.44 62.6514C313.6 62.5534 313.725 62.4644 313.796 62.3753C313.868 62.2863 313.966 62.2417 314.09 62.2417C314.206 62.2417 314.286 62.2774 314.349 62.3397C314.402 62.402 314.438 62.4911 314.438 62.598C314.438 62.7405 314.34 62.8919 314.135 63.0611C313.93 63.2303 313.654 63.3817 313.298 63.5064C312.941 63.6311 312.532 63.6934 312.078 63.6934C311.427 63.6934 310.857 63.542 310.368 63.2392C309.878 62.9364 309.495 62.5178 309.219 61.9924C308.943 61.4669 308.809 60.8791 308.809 60.2112C308.809 59.5432 308.952 59 309.228 58.4834C309.504 57.958 309.896 57.5394 310.394 57.2277C310.893 56.916 311.472 56.7557 312.131 56.7557L312.086 56.729Z"
     fill="#4463A0"
     id="path50" />
  <path
     d="M316.263 55.8918C316.085 55.8918 315.942 55.8473 315.853 55.7671C315.764 55.6869 315.72 55.5623 315.72 55.4109V55.2773C315.72 55.117 315.773 55.0012 315.871 54.921C315.969 54.8409 316.112 54.7964 316.281 54.7964C316.441 54.7964 316.575 54.8409 316.664 54.921C316.753 55.0012 316.797 55.1259 316.797 55.2773V55.4109C316.797 55.5712 316.753 55.6869 316.664 55.7671C316.575 55.8473 316.441 55.8918 316.263 55.8918ZM316.655 63.1412C316.655 63.2481 316.619 63.3372 316.539 63.4173C316.459 63.4975 316.37 63.5331 316.263 63.5331C316.147 63.5331 316.058 63.4975 315.987 63.4173C315.916 63.3372 315.88 63.2481 315.88 63.1412V57.1475C315.88 57.0407 315.916 56.9516 315.987 56.8714C316.058 56.7913 316.156 56.7557 316.263 56.7557C316.37 56.7557 316.468 56.7913 316.539 56.8714C316.61 56.9516 316.646 57.0407 316.646 57.1475V63.1412H316.655Z"
     fill="#4463A0"
     id="path51" />
  <path
     d="M321.696 63.6667C321.028 63.6667 320.44 63.5242 319.924 63.2392C319.407 62.9542 319.015 62.5534 318.721 62.0458C318.428 61.5382 318.294 60.9326 318.294 60.2468C318.294 59.5076 318.436 58.8753 318.73 58.3587C319.024 57.8333 319.398 57.4325 319.861 57.1564C320.324 56.8715 320.814 56.729 321.34 56.729C321.723 56.729 322.097 56.8002 322.453 56.9338C322.809 57.0674 323.139 57.2633 323.415 57.5305C323.691 57.7977 323.922 58.1183 324.092 58.5012C324.261 58.8842 324.35 59.3295 324.368 59.8282C324.368 59.9351 324.314 60.0242 324.234 60.0954C324.154 60.1666 324.065 60.2023 323.958 60.2023H318.739L318.579 59.4987H323.709L323.54 59.659V59.4007C323.504 58.9911 323.379 58.6437 323.148 58.3587C322.916 58.0738 322.649 57.8511 322.328 57.7086C322.008 57.5661 321.669 57.486 321.322 57.486C321.064 57.486 320.797 57.5394 320.52 57.6463C320.244 57.7531 319.995 57.9134 319.781 58.1361C319.559 58.3587 319.38 58.6437 319.238 58.9822C319.095 59.3295 319.033 59.7303 319.033 60.2023C319.033 60.7188 319.14 61.1819 319.345 61.5916C319.55 62.0102 319.852 62.3397 320.253 62.5802C320.654 62.8206 321.117 62.9453 321.669 62.9453C321.972 62.9453 322.248 62.9008 322.489 62.8117C322.729 62.7227 322.943 62.6069 323.13 62.4644C323.317 62.3219 323.459 62.1705 323.584 62.0191C323.682 61.9389 323.771 61.9033 323.869 61.9033C323.958 61.9033 324.029 61.9389 324.101 62.0102C324.172 62.0814 324.199 62.1616 324.199 62.2417C324.199 62.3486 324.154 62.4377 324.065 62.5178C323.807 62.8295 323.468 63.1056 323.05 63.3283C322.631 63.5509 322.177 63.6756 321.678 63.6756L321.696 63.6667Z"
     fill="#4463A0"
     id="path52" />
  <path
     d="M329.177 56.729C329.747 56.729 330.21 56.8447 330.548 57.0763C330.887 57.3078 331.136 57.6196 331.288 58.0114C331.439 58.4033 331.519 58.8397 331.519 59.3206V63.1501C331.519 63.257 331.484 63.3461 331.403 63.4262C331.323 63.5064 331.234 63.542 331.127 63.542C331.003 63.542 330.914 63.5064 330.842 63.4262C330.771 63.3461 330.735 63.257 330.735 63.1501V59.3651C330.735 59.0178 330.682 58.6972 330.566 58.4122C330.45 58.1272 330.272 57.8956 330.014 57.7264C329.756 57.5572 329.417 57.4681 329.008 57.4681C328.634 57.4681 328.277 57.5572 327.948 57.7264C327.618 57.8956 327.342 58.1272 327.137 58.4122C326.933 58.6972 326.826 59.0178 326.826 59.3651V63.1501C326.826 63.257 326.79 63.3461 326.71 63.4262C326.63 63.5064 326.541 63.542 326.434 63.542C326.309 63.542 326.22 63.5064 326.149 63.4262C326.078 63.3461 326.042 63.257 326.042 63.1501V57.3167C326.042 57.2099 326.078 57.1208 326.149 57.0407C326.22 56.9605 326.318 56.9249 326.425 56.9249C326.532 56.9249 326.63 56.9605 326.701 57.0407C326.772 57.1208 326.808 57.2099 326.808 57.3167V58.4122L326.505 58.8842C326.523 58.6081 326.612 58.3409 326.772 58.0827C326.933 57.8244 327.137 57.5928 327.387 57.3969C327.636 57.201 327.921 57.0318 328.224 56.916C328.527 56.8002 328.838 56.7379 329.159 56.7379L329.177 56.729Z"
     fill="#4463A0"
     id="path53" />
  <path
     d="M336.497 56.729C336.916 56.729 337.299 56.7735 337.646 56.8625C337.993 56.9516 338.269 57.0763 338.483 57.2366C338.697 57.3969 338.804 57.5661 338.804 57.7442C338.804 57.8333 338.777 57.9134 338.715 58.0025C338.652 58.0827 338.572 58.1272 338.465 58.1272C338.358 58.1272 338.278 58.1005 338.216 58.047C338.154 57.9936 338.082 57.9313 338.02 57.8689C337.958 57.8066 337.86 57.7353 337.744 57.673C337.628 57.6195 337.468 57.575 337.263 57.5305C337.058 57.486 336.818 57.4681 336.551 57.4681C336.061 57.4681 335.624 57.5928 335.232 57.8333C334.841 58.0738 334.538 58.4033 334.306 58.8129C334.084 59.2226 333.968 59.6857 333.968 60.2023C333.968 60.7188 334.075 61.1908 334.297 61.6094C334.511 62.028 334.814 62.3575 335.197 62.5891C335.58 62.8295 336.025 62.9453 336.542 62.9453C336.889 62.9453 337.156 62.9186 337.352 62.8562C337.539 62.7939 337.708 62.7227 337.851 62.6514C338.011 62.5534 338.136 62.4644 338.207 62.3753C338.278 62.2863 338.376 62.2417 338.501 62.2417C338.617 62.2417 338.697 62.2774 338.759 62.3397C338.813 62.402 338.848 62.4911 338.848 62.598C338.848 62.7405 338.75 62.8919 338.545 63.0611C338.341 63.2303 338.065 63.3817 337.708 63.5064C337.352 63.6311 336.942 63.6934 336.488 63.6934C335.838 63.6934 335.268 63.542 334.778 63.2392C334.288 62.9364 333.906 62.5178 333.629 61.9924C333.353 61.4669 333.22 60.8791 333.22 60.2112C333.22 59.5432 333.362 59 333.638 58.4834C333.914 57.958 334.306 57.5394 334.805 57.2277C335.304 56.916 335.883 56.7557 336.542 56.7557L336.497 56.729Z"
     fill="#4463A0"
     id="path54" />
  <path
     d="M343.319 63.6667C342.651 63.6667 342.063 63.5242 341.547 63.2392C341.03 62.9542 340.638 62.5534 340.344 62.0458C340.051 61.5382 339.917 60.9326 339.917 60.2468C339.917 59.5076 340.059 58.8753 340.353 58.3587C340.647 57.8333 341.021 57.4325 341.484 57.1564C341.948 56.8715 342.437 56.729 342.963 56.729C343.346 56.729 343.72 56.8002 344.076 56.9338C344.432 57.0674 344.762 57.2633 345.038 57.5305C345.314 57.7977 345.546 58.1183 345.715 58.5012C345.884 58.8842 345.973 59.3295 345.991 59.8282C345.991 59.9351 345.937 60.0242 345.857 60.0954C345.777 60.1666 345.688 60.2023 345.581 60.2023H340.362L340.202 59.4987H345.332L345.163 59.659V59.4007C345.127 58.9911 345.002 58.6437 344.771 58.3587C344.539 58.0738 344.272 57.8511 343.951 57.7086C343.631 57.5661 343.292 57.486 342.945 57.486C342.687 57.486 342.42 57.5394 342.143 57.6463C341.867 57.7531 341.618 57.9134 341.404 58.1361C341.182 58.3587 341.004 58.6437 340.861 58.9822C340.719 59.3295 340.656 59.7303 340.656 60.2023C340.656 60.7188 340.763 61.1819 340.968 61.5916C341.173 62.0102 341.476 62.3397 341.876 62.5802C342.277 62.8206 342.74 62.9453 343.292 62.9453C343.595 62.9453 343.871 62.9008 344.112 62.8117C344.352 62.7227 344.566 62.6069 344.753 62.4644C344.94 62.3219 345.082 62.1705 345.207 62.0191C345.305 61.9389 345.394 61.9033 345.492 61.9033C345.581 61.9033 345.652 61.9389 345.724 62.0102C345.795 62.0814 345.822 62.1616 345.822 62.2417C345.822 62.3486 345.777 62.4377 345.688 62.5178C345.43 62.8295 345.091 63.1056 344.673 63.3283C344.254 63.5509 343.8 63.6756 343.301 63.6756L343.319 63.6667Z"
     fill="#4463A0"
     id="path55" />
  <path
     d="M36.2257 16.1412C39.0979 15.5307 40.7109 11.6699 39.8284 7.51787C38.9459 3.36587 35.902 0.494921 33.0298 1.10544C30.1575 1.71595 28.5445 5.57673 29.4271 9.72874C30.3096 13.8807 33.3535 16.7517 36.2257 16.1412Z"
     fill="#4463A0"
     id="path56" />
  <path
     d="M26.386 20.5235C28.7616 18.7975 28.6648 14.6144 26.1698 11.1804C23.6748 7.74627 19.7263 6.36157 17.3507 8.08755C14.9751 9.81353 15.0719 13.9966 17.5669 17.4307C20.0619 20.8648 24.0104 22.2495 26.386 20.5235Z"
     fill="#4463A0"
     id="path57" />
  <path
     d="M19.1782 28.5345C20.6464 25.9915 18.8566 22.2095 15.1805 20.0871C11.5044 17.9647 7.33415 18.3057 5.86594 20.8487C4.39774 23.3917 6.18756 27.1737 9.86364 29.2961C13.5397 31.4185 17.71 31.0775 19.1782 28.5345Z"
     fill="#4463A0"
     id="path58" />
  <path
     d="M15.8432 38.7889C16.1501 35.8686 12.9768 33.1415 8.75524 32.6978C4.53373 32.2541 0.8627 34.2618 0.555762 37.1821C0.248823 40.1025 3.42221 42.8295 7.64372 43.2732C11.8652 43.7169 15.5363 41.7092 15.8432 38.7889Z"
     fill="#9E559D"
     id="path59" />
  <path
     d="M11.3022 56.9332C15.3392 55.6215 17.8762 52.2942 16.9688 49.5015C16.0614 46.7088 12.0532 45.5082 8.0162 46.8199C3.97919 48.1316 1.44214 51.4589 2.34954 54.2516C3.25694 57.0443 7.26518 58.2449 11.3022 56.9332Z"
     fill="#9E559D"
     id="path60" />
  <path
     d="M20.2084 67.9149C23.3628 65.0746 24.3272 61.003 22.3624 58.8209C20.3975 56.6387 16.2475 57.1722 13.093 60.0125C9.93855 62.8528 8.97417 66.9243 10.939 69.1065C12.9039 71.2887 17.0539 70.7552 20.2084 67.9149Z"
     fill="#9E559D"
     id="path61" />
  <path
     d="M32.8019 74.3391C34.5284 70.4613 33.7534 66.3495 31.0708 65.1552C28.3883 63.9608 24.814 66.1362 23.0875 70.014C21.361 73.8918 22.1361 78.0035 24.8186 79.1979C27.5012 80.3922 31.0754 78.2169 32.8019 74.3391Z"
     fill="#2FA0DB"
     id="path62" />
  <path
     d="M41.6127 82.7699C44.5492 82.7699 46.9296 79.3289 46.9296 75.0841C46.9296 70.8393 44.5492 67.3983 41.6127 67.3983C38.6763 67.3983 36.2959 70.8393 36.2959 75.0841C36.2959 79.3289 38.6763 82.7699 41.6127 82.7699Z"
     fill="#2FA0DB"
     id="path63" />
  <path
     d="M38.5158 37.2252C40.8915 35.4992 40.7947 31.3161 38.2996 27.882C35.8046 24.448 31.8562 23.0633 29.4806 24.7893C27.105 26.5152 27.2018 30.6983 29.6968 34.1324C32.1918 37.5665 36.1402 38.9512 38.5158 37.2252Z"
     fill="#4463A0"
     id="path64" />
  <path
     d="M30.9355 50.545C34.9725 49.2333 37.5095 45.906 36.6021 43.1134C35.6947 40.3207 31.6865 39.1201 27.6495 40.4318C23.6125 41.7435 21.0754 45.0708 21.9828 47.8635C22.8902 50.6562 26.8985 51.8567 30.9355 50.545Z"
     fill="#9E559D"
     id="path65" />
  <path
     d="M41.6127 62.1259C44.5492 62.1259 46.9296 58.6849 46.9296 54.4401C46.9296 50.1954 44.5492 46.7543 41.6127 46.7543C38.6763 46.7543 36.2959 50.1954 36.2959 54.4401C36.2959 58.6849 38.6763 62.1259 41.6127 62.1259Z"
     fill="#2FA0DB"
     id="path66" />
  <path
     d="M61.233 47.865C62.1404 45.0723 59.6034 41.745 55.5663 40.4333C51.5293 39.1216 47.5211 40.3222 46.6137 43.1149C45.7063 45.9076 48.2433 49.2348 52.2804 50.5465C56.3174 51.8582 60.3256 50.6577 61.233 47.865Z"
     fill="#80519A"
     id="path67" />
  <path
     d="M53.5252 34.1301C56.0202 30.696 56.117 26.513 53.7414 24.787C51.3658 23.061 47.4174 24.4457 44.9224 27.8798C42.4274 31.3139 42.3306 35.4969 44.7062 37.2229C47.0818 38.9489 51.0302 37.5642 53.5252 34.1301Z"
     fill="#37277C"
     id="path68"
     style="fill:#422f93;fill-opacity:1" />
  <path
     d="M58.4014 79.2067C61.0839 78.0123 61.859 73.9005 60.1325 70.0228C58.406 66.145 54.8317 63.9696 52.1492 65.164C49.4666 66.3583 48.6916 70.4701 50.4181 74.3479C52.1446 78.2257 55.7188 80.401 58.4014 79.2067Z"
     fill="#2FA0DB"
     id="path69" />
  <path
     d="M72.2916 69.1152C74.2564 66.933 73.292 62.8615 70.1376 60.0212C66.9831 57.1809 62.8331 56.6474 60.8682 58.8296C58.9034 61.0118 59.8678 65.0833 63.0222 67.9236C66.1767 70.7639 70.3267 71.2974 72.2916 69.1152Z"
     fill="#80519A"
     id="path70" />
  <path
     d="M80.8814 54.246C81.7888 51.4533 79.2518 48.126 75.2148 46.8143C71.1778 45.5026 67.1695 46.7032 66.2621 49.4959C65.3547 52.2885 67.8918 55.6158 71.9288 56.9275C75.9658 58.2392 79.974 57.0386 80.8814 54.246Z"
     fill="#80519A"
     id="path71" />
  <path
     d="M75.5824 43.2696C79.8039 42.8259 82.9773 40.0989 82.6703 37.1785C82.3634 34.2582 78.6924 32.2505 74.4709 32.6942C70.2494 33.1379 67.076 35.865 67.3829 38.7853C67.6898 41.7056 71.3609 43.7133 75.5824 43.2696Z"
     fill="#80519A"
     id="path72" />
  <path
     d="M73.366 29.2946C77.0421 27.1722 78.8319 23.3902 77.3637 20.8472C75.8955 18.3042 71.7253 17.9632 68.0492 20.0856C64.3731 22.208 62.5833 25.99 64.0515 28.533C65.5197 31.076 69.69 31.417 73.366 29.2946Z"
     fill="#37277C"
     id="path73"
     style="fill:#422f93;fill-opacity:1" />
  <path
     d="M65.661 17.4406C68.156 14.0065 68.2528 9.82345 65.8772 8.09747C63.5016 6.37149 59.5532 7.75618 57.0581 11.1903C54.5631 14.6244 54.4663 18.8074 56.8419 20.5334C59.2176 22.2594 63.166 20.8747 65.661 17.4406Z"
     fill="#37277C"
     id="path74"
     style="fill:#422f93;fill-opacity:1" />
  <path
     d="M53.7981 9.73577C54.6807 5.58377 53.0677 1.72298 50.1954 1.11246C47.3232 0.50195 44.2793 3.3729 43.3968 7.5249C42.5143 11.6769 44.1272 15.5377 46.9995 16.1482C49.8717 16.7587 52.9156 13.8878 53.7981 9.73577Z"
     fill="#37277C"
     id="path75"
     style="fill:#432e97;fill-opacity:1" />
  <path
     d="M193.842 36.5837H190.992C190.21 36.5837 189.576 37.2177 189.576 37.9998C189.576 38.7818 190.21 39.4158 190.992 39.4158H193.842C194.624 39.4158 195.258 38.7818 195.258 37.9998C195.258 37.2177 194.624 36.5837 193.842 36.5837Z"
     fill="#4463A0"
     id="path76"
     style="fill:#422f93;fill-opacity:1" />
</svg>
